<svg xmlns="http://www.w3.org/2000/svg" xmlns:xlink="http://www.w3.org/1999/xlink" width="700" height="500" viewBox="0 0 7.7777778 5.5555556" id="svg2" fill-rule="evenodd"><defs id="defs4"><color-profile name="Coated-FOGRA39--ISO-12647-2:2004-" xlink:href="/usr/share/color/icc/Adobe_ICC_Profiles_(end-user)-2011/CoatedFOGRA39.icc" id="color-profile3752"/><style id="style6"/></defs><path id="_148171424" fill="#e41e20" fill-rule="nonzero" d="M7.778 5.556V0H0v5.556z"/><path d="M3.334 1.08c-.054 0-.143.017-.14.06-.152-.027-.167.035-.16.09.016-.022.033-.033.047-.036.02-.003.042.003.063.017.02.014.045.035.056.048-.054.013-.096.005-.137-.003-.02-.003-.05-.015-.066-.027-.018-.012-.023-.023-.05-.05-.03-.033-.065-.024-.055.027.025.046.065.067.116.076.025.005.062.014.103.014.043 0 .09-.006.115 0-.016.008-.033.025-.067.032-.035.006-.088-.02-.12-.03.004.03.038.054.106.067.11.024.202.042.263.075.06.033.1.075.126.107.055.064.058.114.06.125.012.102-.024.16-.09.178-.034.01-.093-.008-.114-.033-.023-.026-.044-.07-.038-.138.006-.027.036-.097.01-.112-.12-.066-.267-.134-.373-.174-.03-.01-.054.03-.063.045-.18-.022-.343-.144-.416-.274-.05-.087-.13 0-.117.085.022.093.093.16.18.208.086.048.195.096.306.093.058.012.058.09-.014.103-.14 0-.25-.003-.356-.105-.08-.073-.125.014-.102.063.04.152.256.194.475.145.084-.014.034.077.01.078-.092.067-.256.13-.4 0-.066-.05-.11-.008-.086.065.064.19.31.15.477.057.043-.024.083.032.03.075-.21.146-.314.147-.408.09-.118-.045-.13.086-.058.13.078.046.276.01.42-.08.064-.047.067.025.027.054-.173.15-.24.19-.42.165-.09-.007-.09.103-.018.146.095.06.283-.037.428-.158.06-.033.07.02.04.084-.088.112-.17.18-.25.21-.082.03-.16.025-.214.006-.065-.023-.074.046-.037.11.022.037.114.05.214.014.1-.035.206-.117.28-.214.063-.056.055.02.026.072-.147.23-.28.317-.458.303-.078-.014-.096.047-.046.104.087.073.196.07.292 0 .085-.083.248-.26.334-.355.06-.048.08 0 .062.097-.016.056-.057.115-.166.158-.075.043-.02.102.037.103.03 0 .093-.036.14-.09.064-.07.068-.12.103-.23.033-.053.09-.028.09.028-.027.112-.05.132-.108.177-.054.052.038.07.07.048.09-.06.122-.14.152-.21.022-.053.085-.028.056.057-.07.2-.185.28-.386.32-.02.004-.032.016-.025.04l.08.08c-.124.037-.224.058-.35.094l-.17-.114c-.016-.038-.023-.095-.113-.055-.062-.028-.09-.017-.124.01.048.003.07.016.09.038.024.066.082.072.14.054.04.03.06.056.098.088l-.193-.006c-.068-.073-.122-.07-.17-.012-.038.006-.054.007-.08.052.04-.016.066-.02.083-.003.073.04.12.03.156 0l.202.01c-.025.023-.06.035-.086.057-.106-.03-.16.01-.18.096-.013.035-.02.07-.013.107.01-.034.026-.063.056-.08.093.023.128-.016.133-.072.045-.036.113-.045.158-.082l.133.044c.02.058.06.08.13.066.083.002.07.036.075.063.022-.04.022-.078-.03-.112-.018-.05-.06-.073-.112-.044-.05-.014-.064-.035-.115-.05.13-.04.22-.05.346-.09.032.03.058.052.09.08.017.01.033.01.043 0 .08-.117.114-.218.188-.295.03-.032.064-.075.104-.085.02-.005.044-.002.06.015.015.017.028.048.022.095-.007.067-.023.088-.042.128-.02.04-.042.065-.065.095-.047.062-.11.097-.146.12-.073.05-.104.03-.16.025-.075.01-.094.045-.034.094.056.03.107.033.148.026.035-.007.077-.053.106-.077.034-.04.09.007.05.052-.067.08-.135.134-.22.133-.088.013-.07.062-.013.087.106.043.2-.038.25-.092.037-.04.064-.042.057.02-.037.115-.088.16-.17.165-.068-.006-.068.046-.02.08.113.078.193-.053.23-.133.028-.072.07-.038.074.02 0 .08-.035.145-.13.226.072.117.158.235.23.353.074-.118.16-.236.233-.353-.095-.08-.13-.145-.13-.225.004-.06.046-.093.072-.02.038.08.12.21.23.133.05-.034.05-.086-.018-.08-.082-.005-.133-.05-.17-.164-.007-.063.02-.062.057-.02.05.053.145.134.25.09.06-.024.076-.073-.013-.085-.084.002-.152-.05-.22-.132-.038-.045.017-.09.05-.052.03.024.07.07.107.077.04.007.092.004.148-.026.06-.05.04-.085-.033-.094-.058.004-.09.025-.163-.024-.037-.025-.1-.06-.146-.122-.023-.03-.046-.055-.064-.095-.02-.04-.035-.06-.043-.128-.005-.047.007-.078.023-.095.015-.017.04-.02.06-.015.04.01.075.053.103.084.074.076.11.177.19.293.01.012.025.01.042 0 .032-.027.057-.05.09-.08.127.042.217.05.344.092-.05.014-.063.035-.114.05-.053-.03-.094-.007-.113.043-.052.034-.052.072-.03.11.006-.026-.008-.06.074-.062.07.014.112-.008.13-.066l.132-.044c.045.037.113.046.16.082.004.056.04.095.133.07.03.02.045.048.055.082.006-.037 0-.072-.014-.107-.018-.086-.073-.126-.178-.096-.026-.022-.06-.034-.087-.056l.204-.01c.035.03.082.04.154 0 .018-.02.043-.014.083.002-.025-.045-.04-.046-.078-.052-.05-.057-.105-.06-.173.012l-.193.006c.038-.032.06-.057.097-.09.06.02.118.013.143-.053.02-.022.04-.035.09-.037-.035-.028-.063-.04-.124-.01-.09-.04-.098.016-.114.054l-.17.114c-.126-.036-.227-.057-.35-.093.026-.028.053-.053.08-.08.007-.025-.005-.037-.026-.04-.2-.04-.315-.12-.385-.32-.03-.086.034-.11.056-.06.03.072.064.15.154.212.03.02.123.004.07-.048-.058-.045-.082-.065-.11-.176 0-.055.058-.08.09-.026.036.11.04.158.103.23.048.053.11.09.14.09.058-.002.114-.06.04-.104-.11-.043-.15-.102-.167-.158-.018-.097.002-.145.062-.097.085.095.248.272.333.354.096.07.206.073.294 0 .048-.056.03-.117-.048-.103-.176.014-.31-.072-.457-.303-.03-.053-.037-.128.027-.072.073.097.18.18.28.214.098.036.19.023.213-.015.036-.062.028-.13-.04-.108-.053.02-.13.024-.21-.007-.08-.03-.164-.097-.253-.21-.03-.062-.02-.116.04-.083.146.12.333.218.43.16.07-.044.07-.154-.02-.147-.18.025-.247-.015-.42-.164-.04-.028-.036-.1.026-.054.146.092.344.127.422.08.07-.043.06-.174-.058-.128-.094.056-.2.055-.408-.09-.053-.044-.014-.1.03-.076.168.094.413.134.477-.057.025-.073-.02-.115-.085-.065-.145.13-.308.067-.4 0-.024 0-.075-.09.01-.077.22.05.436.007.475-.145.023-.05-.022-.136-.102-.063-.105.102-.217.105-.357.104-.07-.015-.07-.092-.01-.104.11.003.22-.045.306-.093.085-.047.156-.115.18-.208.013-.084-.07-.172-.12-.084-.072.13-.235.253-.415.275-.008-.015-.032-.055-.06-.044-.107.04-.254.11-.374.175-.027.015.004.085.01.112.006.068-.015.112-.037.138-.022.025-.082.042-.115.033-.067-.018-.103-.076-.09-.178.002-.01.005-.06.06-.125.027-.032.065-.074.126-.107.062-.033.153-.05.264-.075.067-.013.1-.038.106-.066-.033.008-.085.035-.12.03-.034-.008-.052-.025-.067-.034.025-.005.072 0 .114 0 .04 0 .078-.008.102-.012.05-.008.09-.03.115-.075.01-.05-.023-.06-.054-.027-.026.027-.032.038-.05.05-.016.012-.045.024-.065.027-.042.008-.083.016-.136.003.01-.013.033-.034.055-.047.02-.013.042-.02.062-.016.014.003.03.014.045.036.01-.055-.006-.117-.157-.09.002-.043-.088-.06-.142-.06-.03 0-.093.02-.138.04-.072.02-.143.037-.226.043.047.04.057.043.105.077-.073.027-.13.082-.155.118.064.003.085-.002.106.007-.09.026-.13.04-.176.088.016.003.04.008.052.012.01.004.006.01 0 .017-.022.013-.1.105-.123.127-.024-.023-.103-.115-.123-.128-.007-.007-.012-.013 0-.017.01-.004.034-.01.05-.012-.046-.047-.086-.062-.176-.088.023-.01.044-.004.108-.007-.025-.036-.082-.09-.155-.118.048-.034.058-.037.106-.077-.085-.006-.156-.022-.227-.043-.045-.02-.108-.04-.14-.04zm.008.097c.044 0 .072.015.072.033 0 .02-.028.034-.072.034-.043 0-.07-.017-.07-.035 0-.02.027-.033.07-.033zm1.093 0c.044 0 .072.014.072.032 0 .017-.028.034-.072.034s-.07-.015-.07-.034c0-.018.026-.033.07-.033z" id="path9"/></svg>