<svg xmlns="http://www.w3.org/2000/svg" xmlns:xlink="http://www.w3.org/1999/xlink" version="1" width="1440" height="720" id="svg2" fill-rule="evenodd"><defs id="defs4"><style id="style6"/></defs><path id="rect2533" fill="#f7e017" fill-rule="nonzero" d="M0 0h1440v720H0z"/><path id="path2535" fill="#fff" d="M1440 350v170L0 220V50z"/><path id="path3422" d="M1440 520v150L0 370V220z"/><path d="M695.744 569.718c-19.367-2.566-37.114-8.73-49.447-17.173-2.39-1.635-4.633-2.973-4.987-2.973-.356 0-.645 1.816-.646 4.064-.004 6.378-2.568 9.58-9.01 11.25-6.16 1.6-15.557-1.624-23.176-7.948-7.89-6.547-17-11.544-24.71-13.55-6.352-1.653-14.777-1.39-20.868.655-2.828.95-6.055 2.288-7.17 2.976-1.115.688-2.358 1.25-2.763 1.25-1.08 0-.925-6.852.206-9.038 1.485-2.873 5.16-5.7 9.432-7.26 2.162-.787 3.93-1.802 3.93-2.254 0-.452-.727-2.095-1.616-3.652-2.904-5.077-1.714-10 3.35-13.865 5.182-3.956 13.947-4.64 21.702-1.694 1.952.743 3.77 1.35 4.038 1.35 1.017 0 .396-1.42-2.41-5.518-3.245-4.74-3.885-7.08-3.477-12.714.517-7.148 6.34-12.984 13.467-13.5 5.82-.42 9.444 1.533 18.028 9.718 25.655 24.463 53.544 37.938 86.074 41.59 8.21.92 24.726.425 34.417-1.034 29.27-4.406 58.76-19.123 81.793-40.82 6.378-6.007 9.446-7.6 14.68-7.62 4.548-.016 7.735 1.45 10.994 5.057 2.976 3.294 3.98 6.426 3.66 11.43-.204 3.217-.73 4.792-2.638 7.902-2.82 4.596-2.342 5.018 3.236 2.85 7.543-2.932 16.83-1.58 21.844 3.182 4.41 4.187 4.828 8.377 1.405 14.062-1.252 2.08-2.276 4.03-2.276 4.338 0 .572.95.843 5.526 1.577 5.99.96 9.43 5.417 9.43 12.218 0 2.033-.254 3.696-.562 3.696-.308 0-2.576-.83-5.04-1.846-6.988-2.88-10.96-3.624-19.11-3.575-6.214.037-8.356.33-12.68 1.74-6.638 2.166-13.726 6.345-19.507 11.503-6.366 5.68-10.373 7.47-16.582 7.414-5.757-.053-9.695-1.732-11.774-5.02-1.11-1.76-1.27-2.83-1-6.802.176-2.593.144-4.714-.072-4.714-.216 0-2.46 1.425-4.99 3.166-6.635 4.568-10.872 6.824-18.468 9.83-23.183 9.18-56.628 13.144-82.236 9.752z" id="path3152" fill="#cf1126"/><path d="M802.722 539.746c4.125-2.105 9.53-7.608 11.743-11.958 1.765-3.467 2.013-4.662 2.224-10.73.194-5.593.028-7.24-.92-9.103-1.064-2.088-1.4-2.276-4.06-2.276-2.572 0-3.068.25-4.39 2.21-1.903 2.825-2.096 8.924-.35 11.082 1.09 1.345 1.245 1.363 3.557.397 3.216-1.345 3.76-1.28 3.752.452-.02 4.417-6.348 12.92-12.986 17.45-1.787 1.22-3.39 2.583-3.562 3.032-.482 1.256 1.97.982 4.99-.558z" id="path3138" fill="#fc0"/><path d="M711.045 563.818c3.992-1.32 6.263-3.734 7.896-8.394.815-2.325 1.364-4.74 1.222-5.365-.34-1.49-2.058-1.414-3.962.173-1.303 1.086-1.46 1.64-1.086 3.852.948 5.608-1.042 6.998-11.648 8.134-1.046.11-4.09-.07-6.765-.4-5.04-.627-6.84-.128-5.012 1.387.554.46 1.956 1.08 3.116 1.378 2.825.725 13.212.235 16.24-.767z" id="path3150" fill="#ffd42a"/><path d="M733.018 562.888c.6-.544 2.662-1.495 4.58-2.113 2.558-.824 3.88-1.708 4.958-3.31 3.115-4.634 2.535-8.62-2.038-14.008-2.48-2.92-3.58-2.84-5.558.403-1.71 2.804-1.67 2.98.792 3.617 1.29.334 2.526 1.282 3.206 2.457 2.682 4.634 1.892 7.506-2.074 7.538-3.604.03-4.592.54-5.566 2.87-.504 1.206-.916 2.495-.916 2.864 0 .984 1.36.82 2.616-.318z" id="path3148" fill="#ffd42a"/><path d="M725.814 557.65c.68-1.842.912-5.15.84-11.898-.054-5.14-.257-9.506-.452-9.7-.598-.6-3.56 1.303-3.95 2.537-.204.64.123 2.117.726 3.284.922 1.782 1.043 3.453.76 10.466-.36 8.86.22 10.348 2.076 5.31z" id="path3146" fill="#ffd42a"/><path d="M708.892 553.43c.355-1.655.818-5.028 1.03-7.497.212-2.47.713-5.596 1.114-6.948 1.025-3.453-.005-4.368-2.73-2.427l-2.04 1.452.427 4.968c.385 4.478-.32 12.835-1.356 16.075-.273.853.125.636 1.255-.685.91-1.063 1.945-3.286 2.3-4.94z" id="path3144" fill="#ffd42a"/><path d="M693.884 555.84c2.38-2.176 2.87-3.536 3.772-10.495.463-3.577 1.03-7.454 1.262-8.616.516-2.605-.51-2.783-3.277-.57-1.81 1.45-1.88 1.676-1.2 3.894.902 2.94.095 10.21-1.383 12.466-1.124 1.715-3.426 2.102-5.596.94-.952-.51-1.15-1.11-.853-2.59.555-2.772-1.035-3.097-5.425-1.11-4.107 1.857-5.69 1.695-5.13-.527.222-.89-.015-1.78-.61-2.272-.9-.746-1.782-.73-7.79.146-1.004.146-1.3-.18-1.3-1.436 0-.894-.203-1.935-.45-2.314-.256-.392-3.156-.733-6.756-.793-6.936-.116-11.85-1.262-15.26-3.56-3.48-2.345-3.788-4.192-1.46-8.708 1.08-2.094 2.304-4.857 2.718-6.14.415-1.28 1.625-3.165 2.69-4.185 1.065-1.02 1.936-2.13 1.936-2.468 0-.862-4.377-.057-6.207 1.142-1.244.815-1.454 1.388-1.164 3.174.392 2.422-1.145 6.022-4.037 9.46-3.178 3.777-7.855 2.226-14.07-4.667-2.344-2.598-3.222-3.198-3.82-2.61-1.12 1.1-.24 4.93 1.508 6.565 1.964 1.836 9.518 5.348 11.533 5.36 2.03.014 2.674.483 3.902 2.837 1.554 2.98 11.463 5.998 21.13 6.436 3.06.138 3.267.26 3.58 2.098.33 1.935.37 1.952 5.044 2.142 4.694.19 5.368.514 3.972 1.91-.405.406-.556 1.208-.335 1.784.333.868 1.1.983 4.468.668 2.237-.21 4.655-.52 5.375-.69.99-.232 1.545.21 2.283 1.816.75 1.63 1.503 2.218 3.25 2.53 3.212.577 5.93.007 7.7-1.615z" id="path3142" fill="#ffd42a"/><path d="M780.703 552.267c5.848-2.88 9.298-6.118 11.515-10.81 1.05-2.223 1.91-4.332 1.91-4.687 0-.806-2.88-2.154-4.603-2.154-1.726 0-2.08-1.182-1.34-4.477.72-3.21-.142-7.23-1.55-7.23-.513 0-1.42.746-2.016 1.656-.925 1.41-.968 2.012-.293 4.064 1.002 3.043.216 5.313-2.51 7.254-1.29.92-1.995 1.98-1.995 3.003 0 .87.11 1.58.243 1.58.134 0 1.555-.732 3.16-1.63l2.914-1.628 1.717 1.35c.945.744 1.72 1.955 1.72 2.69 0 3.555-10.146 9.542-17.116 10.102-3.705.297-4.342.17-5.63-1.115-1.045-1.047-1.35-1.93-1.09-3.172.2-.946.56-2.67.8-3.833.644-3.1-.695-2.678-2.99.94-1.892 2.984-2.454 6.176-1.385 7.862.866 1.364 6.646 2.672 10.735 2.428 2.57-.154 5.107-.867 7.803-2.195z" id="path3140" fill="#fc0"/><path d="M809.352 514.787c-1.548-2.36-.62-5.206 1.698-5.206 1.374 0 1.638.338 1.804 2.31.138 1.646-.174 2.642-1.087 3.468-1.24 1.12-1.32 1.102-2.415-.57z" id="path3136" fill="#cf1126"/><path d="M819.743 530.493c3.673-3.673 5.234-8.144 5.256-15.05l.015-5.192 3.035-1.44c3.95-1.877 7.694-5.624 7.694-7.704 0-2.134-.95-2.026-2.673.304-1.248 1.69-2.922 2.713-9.03 5.518-1.545.71-1.645 1.088-1.995 7.552-.403 7.45-1.42 10.243-5.577 15.326-2.543 3.11-2.642 3.51-.865 3.51.725 0 2.588-1.27 4.14-2.823z" id="path3134" fill="#fc0"/><path d="M634.12 525.566c1.11-1.4 2.77-4.254 3.686-6.34.917-2.086 2.283-4.455 3.036-5.265 1.763-1.896.775-3.066-2.063-2.443-1.502.33-2.106.886-2.365 2.18-.85 4.243-2.384 8.578-3.75 10.6-2.48 3.665-2.542 3.816-1.52 3.816.527 0 1.866-1.146 2.976-2.547z" id="path3132" fill="#ffd42a"/><path d="M779.66 526.325c.355-1.068-1.683-1.83-2.556-.956-.374.373-.474 1.013-.22 1.422.573.93 2.413.62 2.775-.467z" id="path3130" fill="#fc0"/><path d="M620.528 519.324c3.315-1.68 6.483-5.603 6.483-8.03 0-1.588-2.665-3.34-5.08-3.34-1.073 0-3.087.878-4.7 2.046-5.043 3.653-10.435 2.907-13.385-1.85-2.428-3.918-4.964-6.047-7.2-6.047-2.794 0-2.907 1.753-.173 2.706 1.322.46 2.42 1.576 3.327 3.38 2.658 5.29 4.21 6.233 11.28 6.847l4.55.396.2 2.764c.11 1.52.486 2.763.835 2.763.35 0 2.087-.736 3.863-1.636z" id="path3128" fill="#ffd42a"/><path d="M619.443 514.783c-.58-1.514.237-2.927 1.695-2.927 1.333 0 1.65.985.926 2.873-.5 1.303-2.13 1.336-2.62.053z" id="path3126" fill="#cf1126"/><path d="M834.93 512.02c.357-1.068-1.68-1.83-2.554-.957-.374.374-.474 1.014-.22 1.423.573.93 2.413.62 2.775-.467z" id="path3124" fill="#fc0"/><path d="M706.342 525.168c-.536-.106-3.61-.538-6.827-.96-16.574-2.17-36.294-9.02-50.747-17.63-32.615-19.43-56.468-53.14-63.972-90.413-8.576-42.6-2.468-79.25 17.66-105.955 3.666-4.863 7.532-8.882 6.818-7.087-.214.537-1.742 4.26-3.397 8.276-9.3 22.57-10.457 46.434-3.538 73.006 2.74 10.52 5.313 17.282 10.155 26.675 16.957 32.893 48.726 57.157 83.768 63.978 2.86.557 8.275 1.603 12.03 2.324 9.867 1.896 15.24 1.705 28.58-1.015 12.47-2.54 22.517-5.56 31.557-9.48 27.44-11.9 50.244-34.61 61.933-61.673 8.003-18.53 11.764-45.723 9.217-66.652-1.538-12.644-5.52-26.487-10.43-36.252-1.032-2.056-1.595-3.74-1.25-3.74 1.08 0 8.516 9.094 12.865 15.73 9.584 14.63 16.066 32.79 18.383 51.504 1.904 15.388.258 40.034-3.63 54.33-7.985 29.36-25.46 57.244-46.596 74.356-22.397 18.132-46.18 27.522-76.894 30.36-6.443.595-23.233.803-25.686.318z" id="path3122" fill="#cf1126"/><path d="M763.065 512.655c.62-.538 1.314-1.984 1.545-3.216.23-1.232.75-2.33 1.15-2.438l3.478-.945c1.846-.5 3.306-1.48 4.454-2.984 2.607-3.418 2.36-7.83-1.023-18.246-1.504-4.625-2.947-9.14-3.21-10.035-.622-2.125-1.174-2.05-3.07.41l-1.57 2.035 1.63 1.94c2.163 2.57 5.652 13.125 5.752 17.4.054 2.28-.303 3.985-1.082 5.175-1.257 1.918-.61 1.88-9.994.597-2.082-.285-3.41-.042-5.384.988-3.473 1.81-5.04 1.737-5.958-.277-1.14-2.497-2.15-1.546-2.15 2.023v3.197h7.116l.415 2.506c.228 1.38.796 2.742 1.263 3.03 1.182.732 5.283.014 6.637-1.16z" id="path3120" fill="#fc0"/><path d="M757.98 509.586c-1.35-2.064-.777-3.582 1.354-3.582 1.173 0 1.844.477 2.278 1.62 1.31 3.445-1.62 5.03-3.63 1.962z" id="path3118" fill="#d40000"/><path d="M675.684 506.634c2.05-.882 4.486-2.736 6.533-4.97l3.263-3.563 3.766.457c4.664.566 4.74.612 4.74 2.84 0 1.77.117 1.83 4.39 2.233 2.415.228 5.598.416 7.074.42 1.895.002 2.947.37 3.577 1.247.84 1.17 1.327 1.204 8.366.57 6.58-.594 7.876-.538 10.845.47 2.108.718 4.426 1.028 6.185.83 5.04-.568 12.01-4.714 13.02-7.744.122-.365 1.948-1.01 4.058-1.43 5.092-1.018 5.324-2.11.575-2.704-2.06-.258-5.154-1.025-6.88-1.705-1.725-.68-4.085-1.236-5.244-1.236-2.555 0-4.996 1.582-4.996 3.24 0 1.078.388 1.177 3.414.87 2.852-.29 3.708-.113 5.208 1.075.987.78 1.624 1.695 1.417 2.03-.67 1.086-6.607 3.794-9.237 4.214-1.756.28-3.19.08-4.573-.635-2.307-1.192-5.7-1.376-6.34-.343-.275.447-.993.17-1.992-.768l-1.56-1.467-3.55 1.47c-3.59 1.49-4.895 1.41-4.895-.3 0-.785-1.054-.873-6.34-.532-5.835.377-6.434.305-7.523-.91-1.005-1.122-1.056-1.52-.34-2.666.665-1.067.673-1.514.04-2.148-.63-.63-1.425-.633-3.732-.016-5.794 1.55-7.465.69-7.465-3.836 0-3.962-3.236-5.658-6.47-3.392-5.315 3.722-6.694 8.127-3.084 9.85 2.656 1.266 1.98 2.762-2.19 4.85-5.97 2.986-11.225 2.606-21.23-1.538-2.464-1.02-3.097-.61-2.532 1.64.553 2.205 2.562 3.413 7.586 4.56 5.394 1.232 11.92.84 16.12-.966z" id="path3116" fill="#fc0"/><path d="M680.53 493.88c-.25-.656.06-1.412.805-1.957 1.03-.753 1.355-.746 2.145.044.512.512.754 1.393.538 1.957-.518 1.35-2.964 1.32-3.487-.044z" id="path3114" fill="#cf1126"/><path d="M672.096 495.602c3.535-2.242 3.452-2.07 3.96-8.293.357-4.39.295-4.715-.9-4.715-1.724 0-2.627 1.894-2.627 5.514 0 2.315-.364 3.36-1.597 4.593-2.938 2.938-10.245 1.596-11.16-2.05-.316-1.257.084-2.383 1.616-4.558 3.19-4.526 2.466-5.63-1.442-2.2-2.685 2.358-3.17 2.43-2.66.396.47-1.87-.505-2.615-2.698-2.064-1.124.282-1.725.988-1.997 2.345-.266 1.332-.875 2.065-1.936 2.332-1.77.444-4.79-1.233-4.79-2.663 0-1.062 4.52-6.576 10.327-12.603 2.19-2.272 3.98-4.394 3.98-4.715 0-.32-1.17-.584-2.6-.584-2.096 0-2.602.234-2.602 1.2 0 .66-2.926 4.494-6.503 8.522-7.46 8.398-8.077 10.146-4.39 12.394 2.974 1.814 6.777 1.675 9.765-.355l2.427-1.65v2.992c0 3.82.762 5.19 3.76 6.774 3.767 1.99 8.324 1.758 12.064-.614z" id="path3112" fill="#fc0"/><path d="M779.505 491.968c.008-4.128.114-4.477 1.3-4.265 7.446 1.33 10.89.336 14.106-4.08 1.76-2.414 1.912-3.027 1.68-6.777l-.256-4.123 3.61.432c6.55.784 6.622.826 6.167 3.5-1.24 7.3-3.52 11.32-9.148 16.126-3.935 3.362-3.924 5.007.02 3.136 3.34-1.585 7.215-5.57 9.3-9.56 1.533-2.93 1.802-4.236 1.83-8.872.027-4.877.186-5.562 1.535-6.655 1.132-.917 2.39-1.182 5.078-1.067 3.228.137 3.73-.03 5.197-1.735 1.278-1.486 1.54-2.332 1.232-3.977-.568-3.027.072-4.085 3.532-5.838 4.685-2.374 6.506-4.902 6.506-9.03 0-3.8-1.174-6.04-2.832-5.404-1.26.483-1.446 3.768-.316 5.576.414.663.57 1.682.347 2.264-.605 1.578-4.115 3.483-7.296 3.96-4.016.602-6.794 2.747-8.888 6.863-3.33 6.547-2.85 6.246-5.76 3.618-4.463-4.032-8.41-2.966-10.087 2.726l-.72 2.43-1.2-2.437c-1.223-2.478-2.675-3.068-4.084-1.658-1.26 1.26-.888 3.252 1.182 6.306 1.067 1.574 1.94 3.564 1.94 4.422 0 4.002-3.785 7.24-7.402 6.334-1.936-.486-3.653-3.203-3.653-5.782 0-2.332-1.748-2.113-2.275.286-.885 4.03-2.694 2.39-3.488-3.16-.538-3.76-1.9-3.964-3.573-.538-1.07 2.192-1.1 2.6-.248 3.577 1.773 2.04 4.55 10.17 4.884 14.295.454 5.638 1.77 4.98 1.78-.892z" id="path3110" fill="#fc0"/><path d="M800.974 470.01c-1.587-1.162-.86-3.02 1.182-3.02 1.856 0 3.325 1.532 2.794 2.916-.47 1.222-2.38 1.27-3.976.103z" id="path3108" fill="#cf1126"/><path d="M815.25 465.657c-.507-1.6.682-3.22 2.366-3.22 1.25 0 1.602 1.504.827 3.523-.565 1.472-2.693 1.27-3.192-.303z" id="path3106" fill="#cf1126"/><path d="M645.103 491.482c.122-.627-.205-1.084-.774-1.084-1.21 0-1.94 1.06-1.367 1.985.588.952 1.887.405 2.14-.9z" id="path3104" fill="#fc0"/><path d="M695.938 485.798c0-.93-.35-1.28-1.13-1.13-1.695.326-1.884 2.48-.218 2.48.93 0 1.348-.42 1.348-1.35z" id="path3102" fill="#fc0"/><path d="M625.404 480.237l1.798-2.36 6.746.453c8.215.55 9.196.09 15.288-7.15 2.24-2.664 4.445-4.842 4.903-4.842.457 0 .832-.73.832-1.625 0-2.36-2.83-2.253-4.34.162-2.176 3.477-8.244 10.036-9.85 10.646-.895.342-2.937.424-4.537.184-2.425-.364-2.712-.547-1.722-1.1 1.716-.96 5.493-4.852 5.493-5.66 0-1.05-3.126-2.007-5.085-1.557-.958.22-3.242 1.228-5.075 2.238-3.47 1.91-6.096 1.96-6.096.11 0-.552 1.536-2.662 3.413-4.69 1.878-2.028 4.244-4.614 5.257-5.748 1.014-1.135 2.112-2.062 2.44-2.062.326 0 .594-.44.594-.976 0-.694-.705-.976-2.44-.976-2.23 0-2.573.252-4.003 2.948-.86 1.622-2.587 3.848-3.838 4.946-1.845 1.62-2.676 1.932-4.397 1.653-3.373-.547-5.48-2.253-5.48-4.44 0-1.042-.415-2.055-.924-2.25-1.37-.527-3.626.912-3.626 2.316 0 2.386.857 3.367 4.592 5.252 3.318 1.675 3.802 2.165 3.982 4.032.18 1.882.413 2.11 2.023 2 2.572-.18 3.58 2.11 2.147 4.88-1.113 2.152-1.41 5.975-.465 5.975.315 0 1.382-1.06 2.372-2.358z" id="path3100" fill="#fc0"/><path d="M628.31 475.117c0-1.06.596-1.206 2.278-.56.864.332.908.527.216.965-1.348.855-2.493.668-2.493-.405z" id="path3098" fill="#f0f"/><path d="M630.912 472.295c0-.567 2.847-2.055 3.932-2.055 1.265 0 .567 1.813-.843 2.19-2.046.55-3.088.504-3.088-.135z" id="path3096" fill="#cf1126"/><path d="M674.154 476.742c0-1.41-2.536-1.216-2.812.216-.178.923.112 1.142 1.292.975.836-.118 1.52-.654 1.52-1.19z" id="path3094" fill="#fc0"/><path d="M786.202 466.817c.26-1.344-1.618-2.25-2.61-1.26-.99.992-.084 2.87 1.26 2.61.623-.12 1.23-.728 1.35-1.35z" id="path3092" fill="#fc0"/><path d="M611.824 453.09c1.756-1.51 1.777-1.61 1.012-4.925-1.074-4.652-1.005-5.155.766-5.6 2.24-.562 7.926 2.487 9.19 4.93.974 1.885.948 2.017-.712 3.555-1.785 1.654-1.78 3.584.01 3.584 1.478 0 5.57-3.87 5.57-5.268 0-1.925-4.542-6.485-8.127-8.158-2.22-1.036-4.446-1.52-7.012-1.524-4.598-.008-5.22.984-3.976 6.338 1.457 6.268-.52 7.115-5.576 2.387-3.75-3.508-5.223-7.16-5.21-12.912.015-6.173 2.375-9.222 7.688-9.934 3.53-.474 3.448-1.302-.187-1.847-5.298-.794-9.78 2.743-11.48 9.062-1.89 7.01 2.436 15.554 10.096 19.948 4.013 2.3 5.61 2.374 7.948.363z" id="path3090" fill="#fc0"/><path d="M820.658 445.4c.43-.43.78-1.397.78-2.15 0-.753.732-2.36 1.626-3.572.894-1.212 1.626-2.45 1.626-2.748 0-1.232-2.026-1.19-3.634.075-1.638 1.29-2.87 1.318-2.87.07 0-.318.784-.96 1.74-1.426 2.386-1.164 2.588-2.31.57-3.23-2.58-1.174-5.17.97-5.432 4.502-.177 2.363.017 2.767 1.834 3.836 1.667.98 1.97 1.504 1.692 2.907-.48 2.425.53 3.273 2.068 1.735z" id="path3088" fill="#fc0"/><path d="M840.294 443.178c1.432-1.293 2.603-2.754 2.603-3.247 0-.49 1.244-1.788 2.764-2.88 4.312-3.098 5.258-6.23 3.332-11.044-.754-1.885-3.116-4.5-8.238-9.117-3.95-3.56-7.57-6.474-8.046-6.474-1.4 0-1.15 5.152.272 5.607 2.564.82 4.108 1.862 8.135 5.497 4.688 4.23 6.845 8.184 5.667 10.385-1.135 2.12-2.635 1.464-6.764-2.964-2.172-2.328-4.315-4.23-4.762-4.226-.474.005-.812.85-.812 2.026 0 1.475.786 2.892 2.926 5.272 3.486 3.877 3.828 6.21 1.213 8.27-.943.74-1.91 1.346-2.148 1.346-.24 0-1.004-1.154-1.7-2.565-1.465-2.967-10.392-12.39-11.738-12.39-.603 0-.908.758-.908 2.26 0 1.808.356 2.443 1.796 3.187 1.777.92 6.15 5.332 10.558 10.655 1.25 1.512 2.494 2.75 2.76 2.752.268.002 1.658-1.055 3.09-2.35z" id="path3086" fill="#fc0"/><path d="M849.047 418.106c-.58-1.865-12.557-14.193-13.787-14.193-.645 0-.836.753-.69 2.72.173 2.377.435 2.784 2.067 3.217 1.028.273 4.18 2.747 7.008 5.498 2.827 2.752 5.305 4.838 5.507 4.636.2-.2.154-1.047-.105-1.878z" id="path3084" fill="#fc0"/><use transform="matrix(-1 0 0 1 1440 0)" id="use3950" width="17926044" height="16293461" xlink:href="#g3939"/><g id="g3939" fill="#cf1126"><path d="M512.024 469.9c-2.62-.275-5.256 1.908-4.363 4.698.222.505 1.103 1.48 2.574 2.48 1.495 1.015 3.59 2.094 6.17 3.07 5.155 1.95 12.253 3.456 20.526 3.235h-1.175c8.396.11 12.9-.667 18.772-2.606 4.962-1.623 9.242-2.855 9.542-7.242 0-.755-.23-1.198-.61-1.558-.38-.36-.97-.64-1.715-.803-1.49-.325-3.213.537-4.71 1.03-3.193 1.047-9.952 3.905-21.278 3.978-5.97.152-10.374-1.27-14.93-2.787-5.455-1.817-6.218-3.122-8.803-3.494z" id="path3169"/><path d="M481.526 302.7c-.08.008-.144.027-.212.048-.272.083-.562.283-.85.827v.023c-.1.17-.352 1.07-.426 2.315-.073 1.243-.037 2.865.07 4.77.217 3.81.77 8.707 1.584 13.933 1.625 10.447 4.256 22.237 7.037 29.283 2.723 6.52 8.69 12.37 14.5 17.64 5.807 5.27 11.47 9.868 13.507 14.618.38.85.56 2.037.756 3.73.196 1.7.343 3.86.472 6.378.26 5.036.415 11.5.472 18.443.092 11.033-.02 23.16-.212 32.778.272.12.556.243.85.378 1.404.642 3.053 1.475 4.888 2.314 3.67 1.678 8.105 3.305 12.706 3.164h.022c9.28-.067 13.413-2.78 16.555-3.99h.023c.603-.232 1.263-.408 1.937-.52-.12-8.823-.933-69.984-.92-80.6v-.024c.1-2.906-2.654-6.61-6.236-9.918-3.58-3.308-7.822-6.245-10.295-8.1l-.024-.024-.046-.023c-1.47-1.307-4.468-4.468-7.297-7.605-1.415-1.568-2.78-3.134-3.85-4.416-1.068-1.28-1.805-2.17-2.172-2.904-.105-.21-.686-.973-1.488-1.748-.802-.775-1.837-1.618-2.952-2.338s-2.316-1.312-3.377-1.558c-1.06-.247-1.933-.18-2.645.26-.637.39-.882 1.017-.85 2.172.032 1.155.45 2.714 1.11 4.345 1.32 3.263 3.565 6.892 5.195 9.116.996 1.357 1.915 3.624 2.81 6.257.897 2.633 1.723 5.59 2.315 8.124.592 2.536.98 4.48.897 5.716-.02.31.09.67-.496 1.133-.292.23-.807.27-1.086.164-.28-.105-.422-.25-.543-.377-.485-.51-.81-1.17-1.346-2.362v-.024l-.025-.022c-.813-2.076-3.98-4.39-8.005-6.73-4.026-2.342-8.82-4.794-12.682-7.77-.93-.754-1.165-1.87-1.44-3.188-.276-1.32-.544-2.965-1.11-4.983-1.132-4.036-3.466-9.59-9.47-16.65l-.307-.353.095-.473c1.315-6.724-.46-13.193-2.88-17.19-1.21-2-2.62-3.36-3.638-3.826-.38-.175-.683-.233-.92-.213z" id="path3165"/><path d="M491.445 304.19c-.454.01-.852.183-1.228.47-.74.57-1.32 1.716-1.275 3.236 1.965 4.24 3.137 9.94 2.078 15.94 5.95 7.093 8.364 12.834 9.54 17.028.6 2.132.875 3.86 1.134 5.1.256 1.23.558 1.886.756 2.055 3.646 2.806 8.333 5.225 12.42 7.603 3.343 1.944 6.337 3.79 7.983 6.093-.092-.457-.192-.926-.307-1.417-.33-1.416-.752-2.98-1.204-4.535-.665-1.673-2.58-3.813-4.794-5.55-2.214-1.736-4.738-3.098-6.423-3.495l-.732-.165-.048-.732c-.126-1.907-1.682-6.302-3.85-10.415-2.166-4.112-5.02-8.082-7.273-9.54l-.472-.307.024-.566c.363-13.066-2.538-18.803-4.794-20.286-.564-.37-1.082-.53-1.535-.52z" id="path3163"/><path d="M499.734 306.62c-.344.022-.596.13-.898.497-.283.345-.583.968-.78 1.89 1.193 3.513 1.878 8.534 1.725 15.515 2.753 2.01 5.36 5.906 7.487 9.942 2.056 3.9 3.606 7.83 3.99 10.51 2.048.635 4.38 2.004 6.52 3.683.57.447 1.126.91 1.652 1.393-.61-1.524-1.217-2.772-1.677-3.4-1.72-2.345-4.01-6.05-5.432-9.565-.482-1.194-.875-2.354-1.085-3.47-2.326-2.43-4.538-6.83-3.99-11.17.485-5.57-1.827-11.036-4.323-13.84-1.25-1.404-2.5-2.025-3.188-1.984z" id="path3161"/><path d="M509.156 307.967c-.262.018-.553.13-.92.402-.478.353-1.055 1.01-1.654 2.006 1.837 3.303 3.05 7.68 2.645 12.256v.048c-.33 2.577.704 5.515 2.03 7.675.257-.905.768-1.704 1.607-2.22.895-.552 1.9-.715 2.905-.66-.464-6.866-1.89-13.215-3.71-16.698-.95-1.82-1.966-2.72-2.644-2.81-.085-.01-.172-.006-.26 0z" id="path3159"/><path d="M523.397 365.377c-.103.138-.006.157 0 .07v-.07z" id="path3157"/><path d="M555.23 450.865c-.443.09-.87.208-1.25.354-1.645.632-4.08 1.95-7.865 2.927l9.163-.094-.048-3.188z" id="path697-1"/><path d="M518.283 449.568c-1.943-.275-3.897 1.908-3.235 4.698.164.504.817 1.48 1.907 2.48 1.11 1.015 2.663 2.094 4.574 3.07 3.823 1.95 9.085 3.455 15.22 3.234h-.872c6.225.11 9.565-.666 13.917-2.605 3.68-1.623 6.853-2.855 7.075-7.242 0-.755-.17-1.198-.45-1.56-.283-.36-.72-.64-1.273-.802-1.105-.323-2.382.54-3.493 1.03-2.366 1.05-7.378 3.907-15.775 3.98-4.428.152-7.692-1.27-11.07-2.787-4.045-1.817-4.61-3.123-6.527-3.495z" id="path3151"/><path d="M514.828 459.522c-2.276-.276-4.566 1.908-3.79 4.697.192.504.957 1.48 2.235 2.48 1.3 1.014 3.12 2.094 5.36 3.07 4.48 1.95 10.647 3.455 17.834 3.234h-1.02c7.294.11 11.208-.666 16.31-2.605 4.31-1.624 8.03-2.857 8.29-7.243 0-.755-.2-1.2-.53-1.56-.33-.36-.842-.64-1.49-.802-1.295-.324-2.792.538-4.093 1.03-2.773 1.048-8.646 3.906-18.486 3.978-5.188.153-9.013-1.27-12.972-2.786-4.74-1.817-5.402-3.123-7.648-3.495z" id="path3167"/></g><path d="M715.667 475.98c-12.48-1.316-23.35-9.226-28.612-20.82-1.76-3.88-1.714-4.885.163-3.532 3.175 2.287 7.7 4.306 9.65 4.306 1.602 0 2.932.824 6.072 3.76 6.083 5.69 12.9 7.164 9.937 2.148-2.08-3.52-1.5-5.893 2.952-12.085 2.235-3.11 4.356-5.675 4.714-5.7.357-.028 2.166 2.065 4.02 4.648 3.98 5.552 5.213 9.73 3.744 12.694-1.288 2.596-1.195 4.288.237 4.288 1.567 0 6.983-3.438 10.206-6.48 1.75-1.65 3.667-2.708 5.853-3.23 1.79-.427 4.818-1.655 6.73-2.73 1.915-1.072 3.616-1.816 3.78-1.652.783.783-4.41 9.605-7.774 13.208-6.528 6.992-12.81 10.12-22.283 11.093-2.84.29-7.065.33-9.39.084z" id="path3082" fill="#cf1126"/><path d="M731.53 460.22c-.204-.535-.205-1.243 0-1.573.784-1.27-1.695-7.287-4.766-11.57l-4.257-5.936c-.576-.804-1.414-1.462-1.86-1.462-.95 0-7.11 8.366-9.694 13.168-.984 1.827-1.79 4.293-1.79 5.48 0 1.188-.31 2.16-.692 2.16-1.79 0-5.316-3.74-7.267-7.703-1.974-4.013-2.115-4.745-2.082-10.818.042-7.688 1.173-12.553 5.37-23.096 2.695-6.77 2.98-8.003 3.01-13.006.035-6.026-1.102-9.18-4.43-12.287-1.982-1.85-1.69-2.67.956-2.67 2.465 0 6.327 1.97 8.265 4.213 1.848 2.138 3.034 1.442 3.603-2.114.214-1.336 1.252-3.452 2.307-4.702 1.59-1.883 2.123-2.154 3.107-1.58 1.777 1.033 4.114 6.075 4.114 8.874 0 3.21 1.01 3.164 4.258-.192 2.87-2.965 4.818-4.12 7.935-4.714 2.815-.535 2.767.628-.14 3.447-3.38 3.274-5.07 7.37-5.107 12.374-.036 4.818.617 7.166 4.177 15.017 3.357 7.404 5.134 14.58 5.134 20.735 0 6.628-1.332 10.833-4.615 14.562-3.27 3.716-5 4.777-5.53 3.393z" id="path3080" fill="#cf1126"/><path d="M726.73 389.626c-1.638-3.21-5.06-7.17-6.198-7.17-1.027 0-6.166 5.7-6.166 6.838 0 .443-.403 1.14-.896 1.548-.694.577-1.494.352-3.558-1-3.358-2.198-4.872-6.285-4.83-13.032.04-5.884.983-9.903 4.235-18.023 2.362-5.898 2.558-6.848 2.34-11.38-.287-5.99-1.91-9.667-6.464-14.65-1.75-1.914-3.182-3.66-3.182-3.877 0-.218 1.357-.397 3.013-.397 3.353 0 6.11 1.402 8.89 4.522.97 1.09 2.017 1.98 2.325 1.98.31 0 .763-1.535 1.01-3.413.492-3.757 1.835-6.34 3.294-6.34 1.38 0 2.928 3.433 2.928 6.49 0 3.718 1.33 3.954 4.224.75 1.3-1.438 3.37-2.948 4.6-3.353 2.31-.764 5.823-.362 6.506.743.214.346-.833 1.954-2.327 3.575-6.547 7.103-7.865 15.103-4.02 24.396 3.138 7.582 4.19 12.96 3.86 19.744-.355 7.332-1.675 10.7-5.075 12.95-1.396.925-2.685 1.68-2.864 1.68-.18 0-.92-1.162-1.643-2.582z" id="path3078" fill="#cf1126"/><path d="M711.61 326.895c-3.358-2.466-4.47-4.82-4.47-9.466 0-2.384.442-3.668 2.008-5.83 2.315-3.195 1.888-4.206-1.38-3.27-5.254 1.508-7.767.133-7.945-4.35-.088-2.188.38-3.123 3.326-6.664 2.36-2.838 3.218-4.33 2.754-4.792-.463-.464-3.258 1.957-8.985 7.783-4.572 4.65-9.712 9.402-11.422 10.56-9.834 6.647-19.234 7.673-23.53 2.567-2.197-2.61-2.076-4.087.466-5.663 1.163-.72 3.138-2.38 4.39-3.686 2.947-3.077 11.732-9.42 16.094-11.617 3.537-1.783 4.384-3 2.087-3-2.985 0-12.548 6.228-19.79 12.887-2.138 1.965-5.206 4.156-6.818 4.87-3.618 1.6-10.724 2.185-13.883 1.142-2.238-.74-6.302-4.573-6.302-5.946 0-.362.926-1.156 2.058-1.766 1.132-.61 3.157-2.07 4.5-3.25 5.8-5.086 16.786-10.32 25.514-12.15 2.77-.582 1.745-1.985-1.35-1.848-5.98.265-17.87 5.83-24.977 11.693-8.322 6.86-20.87 6.213-24.91-1.29-.694-1.287-1.104-2.497-.912-2.69.192-.192 2.667-.935 5.5-1.65 3.056-.773 9.112-3.278 14.902-6.166 9.117-4.545 11.81-5.515 18.087-6.52 2.82-.45 2.962-1.83.223-2.154-3.532-.418-8.94 1.352-18.495 6.053-12.278 6.042-15.723 7.08-22.193 6.694-5.904-.353-9.226-1.87-14.016-6.4-3.132-2.962-7.577-10.505-6.705-11.378.205-.207 1.647-.002 3.203.455 1.72.505 6.652.84 12.583.855 8.314.022 10.522-.197 14.956-1.48 7.403-2.143 17.263-7.148 23.994-12.18 12.89-9.64 23.402-13.514 36.806-13.567 12.37-.05 20.237 2.806 27.21 9.876 2.356 2.387 4.37 3.938 4.694 3.613.313-.313.65-4.493.75-9.29 0 0 3.648-.35 4.41.67 0 7.787.09 8.402 1.222 8.402.743 0 1.537-.76 2.027-1.944 1.055-2.547 4.978-6.043 9.16-8.162 9.06-4.59 24.72-4.73 37.294-.334 5.3 1.853 11.18 5.18 16.784 9.493 5.61 4.32 17.103 10.105 23.9 12.033 6.867 1.948 18.973 2.44 25.19 1.027 2.56-.582 4.96-1.058 5.337-1.058 2.292 0-1.613 7.634-6.19 12.103-8.37 8.172-19.258 8.134-34.585-.12-9.547-5.143-20.965-7.95-20.965-5.156 0 .583.6.975 1.49.975 3.315 0 9.73 2.224 18.668 6.472 9.675 4.598 15.103 6.533 18.326 6.533 2.336 0 2.408 1.452.23 4.657-2.315 3.407-6.237 5.1-11.77 5.083-5.298-.017-8.237-1.175-12.963-5.106-7.906-6.577-27.616-13.918-26.862-10.004.15.787 1.105 1.266 3.136 1.575 6.86 1.045 14.91 4.893 23.147 11.064 2.544 1.904 5.176 3.786 5.85 4.182 1.13.662 1.15.864.255 2.537-1.473 2.754-5.203 4.9-9.24 5.316-5.234.54-9.786-1.017-14.49-4.956-9.946-8.323-19.312-14.347-22.31-14.347-2.456 0-1.355 1.35 2.968 3.642 5.678 3.01 11.517 7.084 15.814 11.034 2.038 1.873 4.324 3.737 5.08 4.142 1.803.965 1.734 2.37-.246 4.964-2.016 2.644-5.36 3.797-9.69 3.34-8.64-.91-15.382-5.082-25.973-16.067-4.138-4.292-7.83-7.804-8.205-7.804-1.412 0-.586 1.915 2.143 4.968 3.384 3.784 4.038 5.917 2.757 8.983-1.135 2.717-3.013 3.347-6.877 2.306-3.948-1.063-4.563-.09-1.978 3.125 3.867 4.812 3.29 10.696-1.442 14.747-1.47 1.257-3.008 2.286-3.42 2.286-.412 0-1.457-1.073-2.322-2.385-3.043-4.62-5.717-4.592-8.674.085-1.027 1.623-1.896 2.943-1.934 2.934-.038-.01-1.42-1.01-3.075-2.222z" id="path3059" fill="#cf1126"/><path d="M726.67 233.026l-5.126 4.06-4.605-3.47v27.748l9.73.118z" id="path689-7" fill="#cf1126"/><path d="M716.954 197.565c-4.46.077-9.166.138-13.39.968-2.936.576-5.597 1.523-7.817 3.093.367 8.532 41 12.09 51.907.166-2.297-1.675-5.09-2.662-8.17-3.26-4.07-.788-8.573-.874-12.848-.944.008 2.346.024 4.692.024 7.038l-9.706-.024v-7.037z" id="path3139" fill="#cf1126"/><path d="M724.892 155.237l-2.416 23.64 24.326 11.878-12.313-16.46 16.812-5.44z" id="path625-4" fill="#cf1126"/><path d="M722.182 149.08c-3.694 0-6.423 1.38-6.423 3.018s2.728 3.03 6.422 3.03c3.692 0 6.4-1.392 6.4-3.03 0-1.637-2.708-3.017-6.4-3.017z" id="path690-0" fill="#cf1126"/><path d="M724.902 153.97l-6.314.047v49.386l6.438.023z" id="path4149" fill="#cf1126"/><path d="M694.887 204.247c-1.022 13.117-4.347 22.266-8.976 32.357l11.098-10.293 7.72 9.168 8.363-9.328 8.525 7.88 8.202-8.2 8.524 9.97 7.4-8.202 12.544 9.006c-4.553-10.093-10.715-18.648-9.94-32.84-12.153 9.023-41.03 10.652-53.457.483z" id="path3969" fill="#cf1126"/><g id="g3072" fill="#fc0" fill-rule="nonzero"><path d="M777.496 556.89a1.78 1.632 0 1 1-3.56 0 1.78 1.632 0 1 1 3.56 0z" id="path3068"/><path d="M783.79 554.793a1.78 1.632 0 1 1-3.56 0 1.78 1.632 0 1 1 3.56 0z" id="path3070"/></g></svg>