<svg xmlns="http://www.w3.org/2000/svg" width="833.33" height="500" xmlns:xlink="http://www.w3.org/1999/xlink"><defs><linearGradient id="a"><stop stop-color="#fbd55f" offset="0"/><stop stop-color="#cb8e32" offset="1"/></linearGradient><radialGradient id="ao" gradientUnits="userSpaceOnUse" xlink:href="#a" cx="685.79" cy="453.08" r="8.107" gradientTransform="matrix(1 0 0 .9966 1.768 2.964)"/><radialGradient id="an" gradientUnits="userSpaceOnUse" xlink:href="#a" cx="604.74" cy="740" r="2.914" gradientTransform="matrix(1 0 0 1.0026 0 -1.96)"/><radialGradient id="am" gradientUnits="userSpaceOnUse" xlink:href="#a" cx="602" cy="734.39" r="2.724" gradientTransform="matrix(1 0 0 .9888 0 8.212)"/><radialGradient id="al" gradientUnits="userSpaceOnUse" xlink:href="#a" cx="600.03" cy="728.91" r="2.506" gradientTransform="matrix(1 0 0 1.0265 0 -19.31)"/><radialGradient id="ak" gradientUnits="userSpaceOnUse" xlink:href="#a" cx="612.94" cy="737.49" r="3.378" gradientTransform="matrix(1 0 0 1.0156 0 -11.523)"/><radialGradient id="aj" gradientUnits="userSpaceOnUse" xlink:href="#a" cx="609.28" cy="730.85" r="3.122" gradientTransform="matrix(1 0 0 1.0186 0 -13.586)"/><radialGradient id="ai" gradientUnits="userSpaceOnUse" xlink:href="#a" cx="606.69" cy="724.91" r="2.946" gradientTransform="matrix(1 0 0 1.005 0 -3.546)"/><radialGradient id="ah" gradientUnits="userSpaceOnUse" xlink:href="#a" cx="621.24" cy="734.22" r="3.473" gradientTransform="matrix(1 0 0 1.0053 0 -3.906)"/><radialGradient id="ag" gradientUnits="userSpaceOnUse" xlink:href="#a" cx="617.69" cy="727.85" r="3.256" gradientTransform="matrix(1 0 0 1.016 0 -11.57)"/><radialGradient id="af" gradientUnits="userSpaceOnUse" xlink:href="#a" cx="614.05" cy="721.3" r="3.053" gradientTransform="matrix(1 0 0 1.0098 0 -7.086)"/><radialGradient id="ae" gradientUnits="userSpaceOnUse" xlink:href="#a" cx="629.94" cy="730.32" r="3.904" gradientTransform="matrix(1 0 0 1.0334 0 -24.397)"/><radialGradient id="ad" gradientUnits="userSpaceOnUse" xlink:href="#a" cx="625.6" cy="723.58" r="3.634" gradientTransform="matrix(1 0 0 1.019 0 -13.684)"/><radialGradient id="ac" gradientUnits="userSpaceOnUse" xlink:href="#a" cx="621.03" cy="717.31" r="3.417" gradientTransform="matrix(1 0 0 1.0162 0 -11.635)"/><radialGradient id="ab" gradientUnits="userSpaceOnUse" xlink:href="#a" cx="639.59" cy="726.09" r="4.048" gradientTransform="matrix(1 0 0 1.0318 0 -23.056)"/><radialGradient id="aa" gradientUnits="userSpaceOnUse" xlink:href="#a" cx="633.37" cy="718.62" r="3.871" gradientTransform="matrix(1 0 0 1.021 0 -15.183)"/><radialGradient id="Z" gradientUnits="userSpaceOnUse" xlink:href="#a" cx="628.35" cy="711.82" r="3.517" gradientTransform="matrix(1 0 0 1.0268 0 -19.05)"/><radialGradient id="Y" gradientUnits="userSpaceOnUse" xlink:href="#a" cx="649.42" cy="720.03" r="4.405" gradientTransform="matrix(1 0 0 1.0073 0 -5.25)"/><radialGradient id="X" gradientUnits="userSpaceOnUse" xlink:href="#a" cx="642.62" cy="712.94" r="4.135" gradientTransform="matrix(1 0 0 1.0138 0 -9.865)"/><radialGradient id="W" gradientUnits="userSpaceOnUse" xlink:href="#a" cx="637.01" cy="705.72" r="3.872" gradientTransform="matrix(1 0 0 1.011 0 -7.714)"/><radialGradient id="V" gradientUnits="userSpaceOnUse" xlink:href="#a" cx="660.59" cy="713.14" r="4.846" gradientTransform="matrix(1 0 0 1.017 0 -12.2)"/><radialGradient id="U" gradientUnits="userSpaceOnUse" xlink:href="#a" cx="653.02" cy="704.68" r="4.489" gradientTransform="matrix(1 0 0 1.0055 0 -3.892)"/><radialGradient id="T" gradientUnits="userSpaceOnUse" xlink:href="#a" cx="646.03" cy="696.48" r="4.136" gradientTransform="matrix(1 0 0 1.0236 0 -16.403)"/><radialGradient id="S" gradientUnits="userSpaceOnUse" xlink:href="#a" cx="654.58" cy="687.37" r="4.49" gradientTransform="matrix(1 0 0 1.0167 0 -11.49)"/><radialGradient id="R" gradientUnits="userSpaceOnUse" xlink:href="#a" cx="662.2" cy="695.65" r="5.292" gradientTransform="matrix(1 0 0 1.0106 0 -7.342)"/><radialGradient id="Q" gradientUnits="userSpaceOnUse" xlink:href="#a" cx="671.6" cy="705.18" r="6.282" gradientTransform="matrix(1 0 0 1.006 0 -4.166)"/><radialGradient id="P" gradientUnits="userSpaceOnUse" xlink:href="#a" cx="663.89" cy="678.28" r="4.489" gradientTransform="matrix(1 0 0 1.0086 0 -5.844)"/><radialGradient id="O" gradientUnits="userSpaceOnUse" xlink:href="#a" cx="673.31" cy="686.5" r="5.292" gradientTransform="matrix(1 0 0 1.017 0 -11.63)"/><radialGradient id="N" gradientUnits="userSpaceOnUse" xlink:href="#a" cx="682.71" cy="696.23" r="6.282" gradientTransform="matrix(1 0 0 1.008 0 -5.585)"/><radialGradient id="M" gradientUnits="userSpaceOnUse" xlink:href="#a" cx="671.83" cy="668.65" r="4.779" gradientTransform="matrix(1 0 0 1.0244 0 -16.33)"/><radialGradient id="L" gradientUnits="userSpaceOnUse" xlink:href="#a" cx="682.92" cy="676.43" r="5.721" gradientTransform="matrix(1 0 0 1.0058 0 -3.938)"/><radialGradient id="K" gradientUnits="userSpaceOnUse" xlink:href="#a" cx="694.25" cy="686.15" r="6.753" gradientTransform="matrix(1 0 0 1.01 0 -6.764)"/><radialGradient id="J" gradientUnits="userSpaceOnUse" xlink:href="#a" cx="680.18" cy="655.53" r="5.651" gradientTransform="matrix(1 0 0 1.0053 0 -3.497)"/><radialGradient id="I" gradientUnits="userSpaceOnUse" xlink:href="#a" cx="693.57" cy="664.01" r="6.615" gradientTransform="matrix(1 0 0 1.013 0 -8.648)"/><radialGradient id="H" gradientUnits="userSpaceOnUse" xlink:href="#a" cx="707.38" cy="674.82" r="7.953" gradientTransform="matrix(1 0 0 .9913 0 5.87)"/><radialGradient id="G" gradientUnits="userSpaceOnUse" xlink:href="#a" cx="686.7" cy="642.53" r="6.091" gradientTransform="matrix(1 0 0 1.007 0 -4.435)"/><radialGradient id="F" gradientUnits="userSpaceOnUse" xlink:href="#a" cx="702.21" cy="650.42" r="7.301" gradientTransform="matrix(1 0 0 .999 0 .647)"/><radialGradient id="E" gradientUnits="userSpaceOnUse" xlink:href="#a" cx="718.42" cy="660.82" r="8.623" gradientTransform="matrix(1 0 0 1.0025 0 -1.666)"/><radialGradient id="D" gradientUnits="userSpaceOnUse" xlink:href="#a" cx="695.15" cy="628.49" r="6.64" gradientTransform="matrix(1 0 0 .9977 0 1.462)"/><radialGradient id="C" gradientUnits="userSpaceOnUse" xlink:href="#a" cx="712.98" cy="635.08" r="7.792" gradientTransform="matrix(1 0 0 1.006 0 -3.79)"/><radialGradient id="B" gradientUnits="userSpaceOnUse" xlink:href="#a" cx="731.65" cy="644.12" r="9.333" gradientTransform="matrix(1 0 0 .9983 0 1.067)"/><radialGradient id="A" gradientUnits="userSpaceOnUse" xlink:href="#a" cx="700.55" cy="614.7" r="7.03" gradientTransform="matrix(1 0 0 .9965 0 2.18)"/><radialGradient id="z" gradientUnits="userSpaceOnUse" xlink:href="#a" cx="720.45" cy="618.78" r="8.345" gradientTransform="matrix(1 0 0 1.007 0 -4.273)"/><radialGradient id="y" gradientUnits="userSpaceOnUse" xlink:href="#a" cx="741.9" cy="625.39" r="9.95" gradientTransform="matrix(1 0 0 .999 0 .535)"/><radialGradient id="x" gradientUnits="userSpaceOnUse" xlink:href="#a" cx="706.08" cy="597.51" r="8.123" gradientTransform="matrix(1 0 0 .9973 0 1.636)"/><radialGradient id="w" gradientUnits="userSpaceOnUse" xlink:href="#a" cx="729.67" cy="600.54" r="9.95" gradientTransform="matrix(1 0 0 .999 0 .513)"/><radialGradient id="v" gradientUnits="userSpaceOnUse" xlink:href="#a" cx="751.9" cy="604.02" r="10.462" gradientTransform="matrix(1 0 0 .9892 0 6.53)"/><radialGradient id="u" gradientUnits="userSpaceOnUse" xlink:href="#a" cx="711.71" cy="576.36" r="10.886" gradientTransform="matrix(1 0 0 .9926 0 4.272)"/><radialGradient id="t" gradientUnits="userSpaceOnUse" xlink:href="#a" cx="737.53" cy="577.5" r="10.886" gradientTransform="matrix(1 0 0 .992 0 4.59)"/><radialGradient id="s" gradientUnits="userSpaceOnUse" xlink:href="#a" cx="761.91" cy="580.39" r="10.886" gradientTransform="matrix(1 0 0 .9926 0 4.303)"/><radialGradient id="r" gradientUnits="userSpaceOnUse" xlink:href="#a" cx="714.26" cy="552.78" r="11.385" gradientTransform="matrix(1 0 0 .989 0 6.08)"/><radialGradient id="q" gradientUnits="userSpaceOnUse" xlink:href="#a" cx="741.28" cy="552.78" r="11.347" gradientTransform="matrix(1 0 0 .9923 0 4.237)"/><radialGradient id="p" gradientUnits="userSpaceOnUse" xlink:href="#a" cx="768.04" cy="552.78" r="11.383" gradientTransform="matrix(1 0 0 .9892 0 5.99)"/><radialGradient id="o" gradientUnits="userSpaceOnUse" xlink:href="#a" cx="716.86" cy="525.29" r="12.039" gradientTransform="matrix(1 0 0 .993 0 3.648)"/><radialGradient id="n" gradientUnits="userSpaceOnUse" xlink:href="#a" cx="745.39" cy="525.29" r="12.039" gradientTransform="matrix(1 0 0 .993 0 3.648)"/><radialGradient id="m" gradientUnits="userSpaceOnUse" xlink:href="#a" cx="772.18" cy="526.29" r="12.039" gradientTransform="matrix(1 0 0 .993 0 3.655)"/><radialGradient id="l" gradientUnits="userSpaceOnUse" xlink:href="#a" cx="714.14" cy="499.67" r="12.039" gradientTransform="matrix(1 0 0 .991 0 4.502)"/><radialGradient id="k" gradientUnits="userSpaceOnUse" xlink:href="#a" cx="742.68" cy="499.67" r="12.039" gradientTransform="matrix(1 0 0 .991 0 4.502)"/><radialGradient id="j" gradientUnits="userSpaceOnUse" xlink:href="#a" cx="771.02" cy="499.67" r="12.039" gradientTransform="matrix(1 0 0 .991 0 4.502)"/><radialGradient id="i" gradientUnits="userSpaceOnUse" xlink:href="#a" cx="703.46" cy="474.25" r="12.039" gradientTransform="matrix(1 0 0 .993 0 3.294)"/><radialGradient id="h" gradientUnits="userSpaceOnUse" xlink:href="#a" cx="731.81" cy="474.25" r="12.039" gradientTransform="matrix(1 0 0 .993 0 1.88)"/><radialGradient id="g" gradientUnits="userSpaceOnUse" xlink:href="#a" cx="760.54" cy="474.25" r="12.039" gradientTransform="matrix(1 0 0 .993 0 3.294)"/><radialGradient id="f" xlink:href="#a" gradientUnits="userSpaceOnUse" cy="814.57" cx="416.38" gradientTransform="matrix(1 0 0 1.0057 0 -4.636)" r="7.422"/><radialGradient id="e" xlink:href="#a" gradientUnits="userSpaceOnUse" cy="837.95" cx="393.34" gradientTransform="matrix(1 0 0 .991 0 7.468)" r="7.506"/><radialGradient id="d" xlink:href="#a" gradientUnits="userSpaceOnUse" cy="860.97" cx="416.58" gradientTransform="matrix(1 0 0 1.0082 0 -7.063)" r="7.422"/><radialGradient id="c" xlink:href="#a" gradientUnits="userSpaceOnUse" cy="837.58" cx="439.62" gradientTransform="matrix(1 0 0 .9878 0 10.237)" r="7.506"/><radialGradient id="b" xlink:href="#a" gradientUnits="userSpaceOnUse" cy="837.65" cx="416.51" gradientTransform="matrix(1 0 0 .9885 0 9.646)" r="11.146"/></defs><path fill="#002b7f" d="M0 0h833.33v500H0z"/><path fill="#fff" d="M0 83.333h833.33v333.33H0z"/><path fill="#ce1126" d="M0 166.67h833.33v166.67H0z"/><ellipse cx="250" cy="250" rx="62.5" ry="72.917" fill="#fff"/><g transform="translate(196.615 195.396) scale(.1282)"><g stroke-linejoin="round" stroke="#000" stroke-linecap="round"><path d="M105.36 349.34l11-20.25-26-7.25-8 18 23 9.5zM727.6 349.34l-11-20.25 26-7.25 8 18-23 9.5z" stroke-width="3" fill="#cea849" color="#000"/><path d="M409.48 91.438l-40.094 1.157c-25.6 2.418-35.334 12.29-19.437 30.965-41.273 6.47-81.638 15.908-118.94 35.626-10.487-1.74-22.663 4.134-26.157 14.232-2.912 8.158 4.188 16.828 16.812 13.387-8.35 21.987-106.99 19.428-109.5 56.05 7.472-6.368 15.7-11.766 23.906-6.318l-5.655 17.11c-14.363 4.277-24.455 6.644-30.47 22.363-6.212 15.77-15.13 39.832-21.343 51.67-4.08 5.473-5.063 11.285-5.063 14.17 0 6.815 4.868 16.327 16.124 16.327 11.456 0 17.094-7.175 17.094-14.388-.666-5.02-2.644-10.913-14.75-10.23 20.32-4.87 37.886 1.954 49.687 9.478 16.306 12.038 20.387 35.38 10.875 54.58-9.323 18.654-33.013 29.543-68.344 15.764-28.736-11.292-57.644 3.484-67.156 29.15-43.293 117.15 32.408 212.17 118.22 267.58 89.304 57.704 105.21 73.42 129.09 101.62 24.07 28.156 47.37 60.4 82.312 60.4 5.437 0 10.682-1.56 15.344-4.098 21.995 0 23.424 8.208 52.937 8.727v.032c.512 0 1.004-.027 1.5-.03.492.003.962.03 1.47.03v-.03c29.544-.515 30.965-8.728 52.968-8.728 4.663 2.537 9.877 4.097 15.313 4.097 34.943 0 58.243-32.242 82.312-60.397 23.88-28.205 39.82-43.92 129.12-101.62 85.81-55.415 161.51-150.44 118.22-267.58-9.512-25.668-38.45-40.443-67.187-29.15-35.33 13.778-58.99 2.89-68.312-15.765-9.512-19.2-5.43-42.542 10.875-54.58 11.803-7.524 29.336-14.35 49.657-9.477-12.106-.683-14.053 5.21-14.72 10.23 0 7.212 5.64 14.387 17.095 14.387 11.257 0 16.094-9.512 16.094-16.327 0-2.885-.95-8.697-5.03-14.17-6.213-11.838-15.164-35.902-21.376-51.67-6.014-15.72-16.106-18.086-30.47-22.364l-5.624-17.11c8.207-5.447 16.434-.05 23.906 6.32-2.507-36.623-101.18-34.065-109.53-56.05 12.625 3.44 19.756-5.23 16.844-13.388-3.494-10.098-15.67-15.973-26.156-14.232-37.27-19.72-77.67-29.16-118.94-35.63 15.89-18.68 6.16-28.547-19.44-30.964l-40.094-1.157-7-.22-6.97.22z" stroke-width="3.001" fill="#dca842"/><path d="M365.36 93.093c38.572.12 30.016 46.144-5 48.25-43.15 5.035-96.2 3.62-125 15.5" stroke-width="3" fill="none"/><path d="M136.36 218.09c33.314-9.378 69.202-1.792 91-11.75s26.49-42.896 3-47.25" stroke-width="3" fill="none" color="#000"/><path d="M349.11 123.59c7.68-1.77 15.89-2.044 19.98-5.77 4.09-3.727 5.312-10.405-4.48-11.23" stroke-width="3" fill="none"/><path d="M221.62 187.09c7.16-12.05 4.837-20.454-4.518-14.67" stroke-width="3" fill="none" color="#000"/><path d="M467.6 93.093c-38.572.12-30.016 46.144 5 48.25 43.15 5.035 96.2 3.62 125 15.5" stroke-width="3" fill="none"/><path d="M696.6 218.09c-33.314-9.378-69.202-1.792-91-11.75s-26.49-42.896-3-47.25" stroke-width="3" fill="none" color="#000"/><path d="M483.85 123.59c-7.68-1.77-15.89-2.044-19.98-5.77-4.09-3.727-5.31-10.405 4.48-11.23" stroke-width="3" fill="none"/><path d="M611.33 187.09c-7.16-12.05-4.837-20.454 4.518-14.67" stroke-width="3" fill="none" color="#000"/><g stroke-width="3" fill="none"><path d="M219.23 742.45c61.736 43.665 70.667 100.43 134.54 103.15M354.55 854.5c-37.662 8.11-62.318-12.363-92.023-56.818-15.15-22.4-54.94-53.9-122.89-96.38-106.78-66.66-138.42-182.91-103.67-246.66 8.543-15.676 30.48-21.857 43.1-18.346 32.81 8.852 87.946 0 88.14-53.16.194-29.916-24.268-64.878-55.912-64.878-19.224 0-29.51 6.38-34.556 13.154"/><path d="M349.89 831.9c0-2.918 2.52-5.984 6.212-5.984 3.688 0 6.988 3.264 6.988 7.32 0 8.9-5.05 13.697-15.725 11.57-8.737-1.73-12.62-11.176-8.93-20.67 3.687-9.643 16.11-15.626 29.505-9.643 13.4 6.182 11.843 26.654 7.187 38.275-2.72 6.725-8.156 12.363-14.756 16.022M613.72 742.45c-61.73 43.66-70.66 100.43-134.73 103.15"/><path d="M478.41 854.5c37.662 8.11 62.318-12.363 92.018-56.818 14.95-22.4 54.942-53.9 122.89-96.38 106.77-66.658 138.42-182.92 103.67-246.66-8.538-15.675-30.475-21.856-43.094-18.345-32.81 8.852-87.947 0-88.14-53.16-.195-29.916 24.267-64.878 55.91-64.878 19.22 0 29.51 6.378 34.556 13.153"/><path d="M495.88 830.52c0-26.456-44.843-34.764-79.205-34.764-34.168 0-79.205 8.308-79.205 34.764"/><path d="M483.07 831.9c0-2.918-2.52-5.984-6.212-5.984-3.688 0-6.988 3.264-6.988 7.32 0 8.9 5.05 13.697 15.725 11.57 8.737-1.73 12.62-11.176 8.93-20.67-3.687-9.643-16.11-15.626-29.505-9.643-13.4 6.182-11.843 26.654-7.187 38.275 2.72 6.725 8.156 12.363 14.756 16.022"/><path d="M460.16 857.17c-18.056 0-17.474 19.44-43.68 19.44-26.013 0-25.432-19.44-43.488-19.44"/></g></g><g stroke="#000" stroke-width="3"><path d="M416.48 828.14c-12.812 0-12.812 19.035 0 19.035s13.006-19.035 0-19.035" fill="url(#b)"/><path d="M439.58 831.66c-7.957 0-7.957 11.828 0 11.828 7.962 0 8.156-11.828 0-11.828" fill="url(#c)"/><path d="M422.5 860.99c0-8.002-11.843-8.002-11.843 0 0 7.952 11.843 7.952 11.843 0" fill="url(#d)"/><path d="M393.38 843.89c7.957 0 7.957-11.878 0-11.878-7.962 0-8.156 11.878 0 11.878" fill="url(#e)"/><path d="M410.46 814.57c0 7.952 11.843 7.952 11.843 0s-11.843-7.952-11.843 0" fill="url(#f)"/></g><g id="ap" stroke="#000"><path d="M154.052 272.66c2.176.12 4.39.67 6.438 1.53 3.615 1.524 6.784 4.13 7.906 7.75.007.024.024.04.03.064 31.913 88.55 14.846 126.29-13.5 183.59-40.957 82.506-11.104 205.42 80.376 259.16 44.974 26.295 79.656 35.262 106.22 41.906 13.28 3.322 24.558 6.07 34.094 10.156 9.2 3.94 18.697 11 24.695 19.174-9.19.76-24.19 3.28-31.553 5.445-10.704-13.603-37.624-26.11-65.484-35.588-27.86-9.478-56.925-16.224-72.688-19.344h-.03c-51.285-14.874-99.1-48.25-135.12-90.656-38.136-44.89-57.626-106.35-50.095-167.97 1.687-14.102 7.292-22.72 15.28-27.406 7.99-4.686 18.097-5.485 28.813-4.78 19.477 1.124 38.56-4.194 56-14.938 22.488-13.845 31.704-38.325 31.344-64.906-.36-26.58-10.4-55.133-26.312-76.406-5.686-7.658-7.962-13.4-7.844-17.844.12-4.444 3.003-7.378 6.532-8.406.883-.257 1.807-.426 2.75-.5.708-.056 1.43-.072 2.156-.03z" stroke-width="3" fill="#825123"/><path fill="url(#g)" d="M760.57 462.8c15.337 0 15.337 22.91 0 22.91s-15.53-22.91 0-22.91" transform="matrix(-1 0 0 1 833.412 0)"/><path fill="url(#h)" d="M731.84 461.38c15.337 0 15.337 22.91 0 22.91s-15.53-22.91 0-22.91" transform="matrix(-1 0 0 1 833.412 0)"/><path fill="url(#i)" d="M703.5 462.8c15.337 0 15.337 22.91 0 22.91s-15.53-22.91 0-22.91" transform="matrix(-1 0 0 1 833.412 0)"/><path fill="url(#j)" d="M771.06 488.24c15.337 0 15.337 22.862 0 22.862s-15.53-22.862 0-22.862" transform="matrix(-1 0 0 1 833.412 0)"/><path fill="url(#k)" d="M742.71 488.24c15.337 0 15.337 22.862 0 22.862s-15.53-22.862 0-22.862" transform="matrix(-1 0 0 1 833.412 0)"/><path fill="url(#l)" d="M714.17 488.24c15.337 0 15.337 22.862 0 22.862s-15.53-22.862 0-22.862" transform="matrix(-1 0 0 1 833.412 0)"/><path fill="url(#m)" d="M772.22 514.84c15.337 0 15.337 22.91 0 22.91s-15.53-22.91 0-22.91" transform="matrix(-1 0 0 1 833.412 0)"/><path fill="url(#n)" d="M745.43 513.84c15.337 0 15.337 22.91 0 22.91s-15.53-22.91 0-22.91" transform="matrix(-1 0 0 1 833.412 0)"/><path fill="url(#o)" d="M716.89 513.84c15.337 0 15.337 22.91 0 22.91s-15.53-22.91 0-22.91" transform="matrix(-1 0 0 1 833.412 0)"/><path fill="url(#p)" d="M768.14 542.02c14.368 0 14.368 21.52 0 21.52-14.557 0-14.75-21.52 0-21.52" transform="matrix(-1 0 0 1 833.412 0)"/><path fill="url(#q)" d="M741.35 542.02c14.363 0 14.363 21.52 0 21.52-14.562 0-14.562-21.52 0-21.52" transform="matrix(-1 0 0 1 833.412 0)"/><path fill="url(#r)" d="M714.37 542.02c14.368 0 14.368 21.52 0 21.52-14.562 0-14.756-21.52 0-21.52" transform="matrix(-1 0 0 1 833.412 0)"/><path fill="url(#s)" d="M762.43 570.11c13.782.547 12.812 21.172-.97 20.575-13.786-.596-13.01-21.37.97-20.575" transform="matrix(-1 0 0 1 833.412 0)"/><path fill="url(#t)" d="M738.05 567.22c13.782.596 12.812 21.172-.974 20.575-13.782-.547-13.006-21.122.974-20.575" transform="matrix(-1 0 0 1 833.412 0)"/><path fill="url(#u)" d="M712.23 566.07c13.787.596 12.817 21.172-.97 20.575-13.78-.596-13.005-21.37.97-20.575" transform="matrix(-1 0 0 1 833.412 0)"/><path fill="url(#v)" d="M752.61 594.2c13.205.994 11.843 20.575-1.357 19.63-13.2-.794-12.037-20.574 1.357-19.63" transform="matrix(-1 0 0 1 833.412 0)"/><path fill="url(#w)" d="M730.29 591.12c12.62.745 11.262 19.58-1.163 18.836-12.62-.795-11.456-19.63 1.163-18.836" transform="matrix(-1 0 0 1 833.412 0)"/><path fill="url(#x)" d="M706.61 589.93c10.094.596 9.12 15.953-.974 15.158-10.094-.596-9.32-15.705.974-15.158" transform="matrix(-1 0 0 1 833.412 0)"/><path fill="url(#y)" d="M742.52 615.97c12.62.745 11.262 19.58-1.163 18.836-12.62-.795-11.456-19.63 1.163-18.836" transform="matrix(-1 0 0 1 833.412 0)"/><path fill="url(#z)" d="M720.97 610.9c10.487.795 9.32 16.5-.97 15.755-10.485-.795-9.512-16.5.97-15.755" transform="matrix(-1 0 0 1 833.412 0)"/><path fill="url(#A)" d="M700.97 608.22c8.737.348 7.763 13.568-.775 12.97-8.737-.397-7.962-13.567.775-12.97" transform="matrix(-1 0 0 1 833.412 0)"/><path fill="url(#B)" d="M733.59 635.55c11.456 2.535 7.574 19.83-3.881 17.096-11.457-2.535-7.57-19.58 3.88-17.096" transform="matrix(-1 0 0 1 833.412 0)"/><path fill="url(#C)" d="M714.56 628c9.512 2.137 6.212 16.5-3.106 14.164-9.513-2.137-6.406-16.5 3.106-14.164" transform="matrix(-1 0 0 1 833.412 0)"/><path fill="url(#D)" d="M696.51 622.58c7.962 1.74 5.243 13.767-2.719 11.828-7.955-1.74-5.237-13.767 2.72-11.828" transform="matrix(-1 0 0 1 833.412 0)"/><path fill="url(#E)" d="M721.16 653.24c10.1 3.48 4.662 18.836-5.437 15.158-10.094-3.53-4.85-18.836 5.437-15.158" transform="matrix(-1 0 0 1 833.412 0)"/><path fill="url(#F)" d="M704.47 644.1c8.543 2.932 3.881 15.755-4.468 12.624-8.538-2.883-4.075-15.705 4.468-12.624" transform="matrix(-1 0 0 1 833.412 0)"/><path fill="url(#G)" d="M688.55 637.34c6.988 2.286 3.3 12.97-3.688 10.437-6.992-2.485-3.3-13.17 3.688-10.437" transform="matrix(-1 0 0 1 833.412 0)"/><path fill="url(#H)" d="M710.49 668.2c8.93 4.075 2.719 17.444-6.212 13.17-8.93-3.877-2.72-17.246 6.212-13.17" transform="matrix(-1 0 0 1 833.412 0)"/><path fill="url(#I)" d="M696.12 658.46c7.38 3.33 2.137 14.562-5.045 11.083-7.38-3.28-2.33-14.562 5.045-11.083" transform="matrix(-1 0 0 1 833.412 0)"/><path fill="url(#J)" d="M682.34 650.91c6.212 2.932 1.744 12.027-4.274 9.294-6.212-2.883-1.938-12.226 4.274-9.294" transform="matrix(-1 0 0 1 833.412 0)"/><path fill="url(#K)" d="M697.09 680.63c7.38 3.678 1.556 14.91-5.626 11.033-7.38-3.678-1.75-14.91 5.626-11.033" transform="matrix(-1 0 0 1 833.412 0)"/><path fill="url(#L)" d="M685.25 671.88c6.212 3.08 1.357 12.425-4.662 9.095-6.212-3.08-1.357-12.425 4.662-9.095" transform="matrix(-1 0 0 1 833.412 0)"/><path fill="url(#M)" d="M673.79 664.87c5.05 2.733.97 10.288-3.881 7.604-5.05-2.535-1.17-10.486 3.88-7.604" transform="matrix(-1 0 0 1 833.412 0)"/><path fill="url(#N)" d="M685.83 691.46c6.406 4.075 0 13.816-6.212 9.542-6.407-4.075-.194-13.816 6.212-9.542" transform="matrix(-1 0 0 1 833.412 0)"/><path fill="url(#O)" d="M675.93 682.57c5.238 3.48 0 11.43-5.243 7.952-5.243-3.48 0-11.68 5.243-7.952" transform="matrix(-1 0 0 1 833.412 0)"/><path fill="url(#P)" d="M666.03 674.96c4.468 2.932 0 9.542-4.27 6.61-4.462-2.882 0-9.492 4.27-6.61" transform="matrix(-1 0 0 1 833.412 0)"/><path fill="url(#Q)" d="M674.73 700.43c6.406 4.274 0 13.767-6.212 9.492-6.407-4.075-.194-13.767 6.212-9.492" transform="matrix(-1 0 0 1 833.412 0)"/><path fill="url(#R)" d="M664.83 691.66c5.238 3.53 0 11.48-5.243 7.952-5.243-3.48 0-11.43 5.243-7.952" transform="matrix(-1 0 0 1 833.412 0)"/><path fill="url(#S)" d="M656.71 684.11c4.463 2.932 0 9.492-4.274 6.61-4.463-2.932 0-9.74 4.274-6.61" transform="matrix(-1 0 0 1 833.412 0)"/><path fill="url(#T)" d="M647.98 693.4c4.075 2.535 0 8.747-3.886 6.212-4.076-2.683 0-8.896 3.886-6.212" transform="matrix(-1 0 0 1 833.412 0)"/><path fill="url(#U)" d="M655.16 701.4c4.463 2.883 0 9.492-4.27 6.56-4.467-2.882 0-9.492 4.27-6.56" transform="matrix(-1 0 0 1 833.412 0)"/><path fill="url(#V)" d="M662.92 709.55c4.85 3.28 0 10.486-4.662 7.157-4.855-3.082 0-10.487 4.662-7.157" transform="matrix(-1 0 0 1 833.412 0)"/><path fill="url(#W)" d="M638.85 702.94c3.688 2.535 0 7.952-3.688 5.616-3.692-2.535 0-8.15 3.688-5.616" transform="matrix(-1 0 0 1 833.412 0)"/><path fill="url(#X)" d="M644.57 709.92c4.075 2.733 0 8.747-3.881 6.014-4.082-2.684 0-8.698 3.88-6.014" transform="matrix(-1 0 0 1 833.412 0)"/><path fill="url(#Y)" d="M651.55 716.84c4.274 2.684 0 9.294-4.27 6.41-4.273-2.93 0-9.342 4.27-6.41" transform="matrix(-1 0 0 1 833.412 0)"/><path fill="url(#Z)" d="M630 709.28c3.3 2.137 0 7.405-3.3 5.07-3.3-2.138 0-7.356 3.3-5.07" transform="matrix(-1 0 0 1 833.412 0)"/><path fill="url(#aa)" d="M635.21 715.78c3.688 2.535 0 8.15-3.688 5.666-3.687-2.535 0-8.15 3.688-5.666" transform="matrix(-1 0 0 1 833.412 0)"/><path fill="url(#ab)" d="M641.53 723.19c3.881 2.535 0 8.747-3.881 5.815-3.883-2.535 0-8.747 3.88-5.815" transform="matrix(-1 0 0 1 833.412 0)"/><path fill="url(#ac)" d="M622.74 714.97c3.106 2.336-.393 7.008-3.5 4.672-2.91-2.336.394-7.008 3.5-4.672" transform="matrix(-1 0 0 1 833.412 0)"/><path fill="url(#ad)" d="M627.45 721.07c3.3 2.535-.388 7.554-3.688 5.02-3.3-2.485.388-7.555 3.688-5.02" transform="matrix(-1 0 0 1 833.412 0)"/><path fill="url(#ae)" d="M631.97 727.58c3.494 2.733-.388 8.35-4.075 5.467-3.494-2.733.387-8.35 4.075-5.467" transform="matrix(-1 0 0 1 833.412 0)"/><path fill="url(#af)" d="M615.7 719.44c2.525 2.137-.775 6.063-3.3 3.727-2.52-2.335.78-6.013 3.3-3.727" transform="matrix(-1 0 0 1 833.412 0)"/><path fill="url(#ag)" d="M619.58 725.92c2.525 2.286-.97 6.56-3.688 3.877-2.718-2.336.97-6.61 3.688-3.877" transform="matrix(-1 0 0 1 833.412 0)"/><path fill="url(#ah)" d="M623.18 732.05c2.912 2.733-.97 7.008-3.881 4.274-2.914-2.485.968-6.958 3.88-4.274" transform="matrix(-1 0 0 1 833.412 0)"/><path fill="url(#ai)" d="M608.34 723.22c2.33 2.137-.97 5.616-3.3 3.48-2.33-2.337.97-5.816 3.3-3.48" transform="matrix(-1 0 0 1 833.412 0)"/><path fill="url(#aj)" d="M611.02 729c2.525 2.535-.97 6.212-3.494 3.678-2.524-2.336.97-6.213 3.494-3.678" transform="matrix(-1 0 0 1 833.412 0)"/><path fill="url(#ak)" d="M614.9 735.44c2.719 2.733-1.163 6.81-3.881 4.075-2.72-2.534.973-6.808 3.88-4.075" transform="matrix(-1 0 0 1 833.412 0)"/><path fill="url(#al)" d="M601.5 727.58c1.744 1.938-1.168 4.672-2.912 2.733-1.75-1.938.97-4.87 2.912-2.733" transform="matrix(-1 0 0 1 833.412 0)"/><path fill="url(#am)" d="M603.61 732.94c1.943 2.137-1.163 5.02-3.3 2.883-1.744-2.137 1.168-5.02 3.3-2.883" transform="matrix(-1 0 0 1 833.412 0)"/><path fill="url(#an)" d="M606.49 738.49c2.132 2.336-1.362 5.417-3.5 3.13-2.13-2.335 1.363-5.665 3.5-3.13" transform="matrix(-1 0 0 1 833.412 0)"/><path fill="url(#ao)" d="M687.6 446.92c10.094 0 10.094 15.158 0 15.158s-10.288-15.158 0-15.158" transform="matrix(-1 0 0 1 833.412 0)"/></g><use xlink:href="#ap" transform="matrix(-1 0 0 1 832.957 0)" height="500" width="833.333"/></g><path fill="#89c5e3" d="M219.967 250.917c1.443-4.804 2.165-10.978.125-19.012 8.984-5.798 15.305-11.1 29.94-11.1 14.61 0 21.504 4.028 29.942 11.1-2.016 8.034-1.294 14.183.124 19.012h-60.18" stroke="#000" stroke-width=".1282"/><path fill="#fcdd09" d="M226.806 239.22l-.67 7.264h-.02l-2.58-7.2 1.243 7.604-.03.012-2.88-3.8 1.73 4.518-2.114-1.475 1.286 2.412-.036.048-1.506-.184.933 1.31c-.19.527-.292 1.095-.292 1.687 0 .028.008.053.01.08h9.95c0-.027.008-.052.008-.08 0-.594-.1-1.166-.292-1.694l1.96-1.88-2.468.86-.06-.092c.38-.464 4.09-5.03 3.938-5.03-.157 0-4.692 3.89-4.85 4.026l-.025-.02 3.562-7.885-4.928 7.077c-.016-.007-.03-.014-.048-.02l1.452-7.472-2.596 7.18-.673-7.244z"/><path fill="#0f47af" d="M219.924 250.917c-.796 2.663-1.79 4.93-2.662 6.868-2.265 5.104-2.738 16.974 5.624 25.365 12.42 12.418 21.878 7.416 26.63 14.182h.972c4.753-6.766 14.21-1.764 26.63-14.182 8.363-8.392 7.915-20.26 5.625-25.365-.846-1.917-1.866-4.205-2.663-6.868H219.9" stroke="#000" stroke-width=".1282"/><path d="M238.103 239.493c-.144-.696-1.768-.563-1.65-1.683-1.08-.172-.88-2.103 1.137-1.97.213-.384 2.65-1.262 2.356-.05 1.223-1.065 2.11-.09 1.426.386.472.472.71 1.553-.737 1.458.554.985-.732.95-1.586.673.02.373-.044.67-.53.577-.307.207-.075.475-.032.72l-.385-.11zM260.487 240.253c.013-.88-1.643-.61-1.58-1.61-.9-.14-.77-2 1.09-1.89-.105-.537 2.5-1.227 2.255-.045.907-.962 1.803-.063 1.253.368.452.453 1 1.23-.593 1.397.642.623-.702.908-1.52.645.02.357-.217.48-.682.392-.294.198.104.615.145.85l-.368-.107zM273.394 243.29c.154-.665-1.366-.606-1.327-1.364-.69-.105-.59-1.514.837-1.43-.08-.407 1.778-1.09 1.654-.098.697-.73 1.465.016 1.043.343.348.343.77.933-.455 1.058.494.472-.54.688-1.168.488.016.27-.07.316-.428.25-.227.15.272.513.303.69l-.46.064z" fill="#fff"/><path d="M-308.88 472.49c2.912-15.158 15.337-29.124 16.7-40.952 1.162-10.685 3.3-15.158 9.51-26.39 6.214-11.282 8.734-16.5 10.095-24.303 1.94-10.09 9.513-12.226 13.006-1.938 3.3 10.288 9.9 36.13 13.395 42.145 3.3 6.013 6.8 14.363 6.213 18.438-.582 4.075 4.468 5.616 7.38 8.548 2.913 2.733 3.3 12.226 11.843 20.377 8.54 8.15 18.052 13.965 26.013 18.04 7.182 16.153 12.037 40.605 10.87 68.536h-533.29c-.195-7.355 0-14.56.387-21.52 47.368-12.225 65.036-43.486 85.03-41.35 10.874-15.157 24.074-31.46 33.2-39.808 10.868-9.89 32.224-49.3 37.66-73.406 5.438-23.856 13.395-36.678 19.413-35.336 6.018 1.392 8.543 2.535 15.725 24.104 9.905 29.67 16.7 33.2 24.268 54.52 6.6 18.488 20.387 51.637 41.548 68.933 13.2-9.89 28.343-20.973 33.194-28.726 4.08-6.808 10.293-17.294 17.668-22.314 3.3-9.89 7.57-27.583 11.068-31.857 3.3-3.878 4.657-7.754 5.044-14.563.194-6.81 5.437-21.172 12.62-33.2 7.186-11.827 16.698-15.704 20.967 0 4.076 15.756 13.588 48.756 22.52 69.33 3.687 8.55 10.486 25.397 25.43 43.09l1.614 1.906c.302-.53.606-.926.91-2.304z" stroke="#000" stroke-width=".999" fill="#509164" transform="matrix(.1284 0 0 .1282 307.865 195.396)"/><path fill="#034418" d="M260.354 263.134c-1.27-1.223-3.29-.95-4.31-1.917-1-.943-2.594-.3-6.034-2.04-.424-.222-.848-.496-1.272-.82-2.717-2.218-4.486-6.475-5.334-8.838-.947-2.716-1.845-3.162-3.116-6.997-.673-2.04-1.047-2.664-1.496-2.887 1.172 1.275.55 3.263 1.496 5.403.374.847-.25.847-.448.573-.175-.274-.748-.402-1.023-.376.5.427.574 1.497 1.072 2.612.473 1.12-.375 1 .648 2.592.273.446.374 1.115-.025 1.39-.424.248-.723-.772-1.347-.42.175.4.898 1.12 1.372 1.54.473.428.024.65-.35.453-.398-.204-.922-.4-1.196-.624 0 .326.4.695.947 1.192.573.478.2.822-1.123.822.2.3.125 1.045-.473 1.147.822.052 1.446 1.568 2.467 1.67 1 .07 1.098.77.126.943-.972.172-2.94-1.395-3.913-2.415-.25.35-.773.497-1.147.3-.025.47.125 1.618.573 2.364-.474-.198-1.097-.822-1.72-1.593-.6-.72-.997.35-.474.993.523.65.872 1.172.025 1.67-.822.47-1.345.298-1.97-.574-.87.725-1.22.77-1.893.648 0 .42-.723 1.42-1.047 2.167-.723 1.44 32.057 4.428 31.135.943"/><path fill="#034418" d="M283.93 263.355c-8.624-.752-13.384-4.084-16.077-7.27-1.92-2.243-2.792-4.428-3.265-5.524-1.147-2.637-2.368-6.867-2.892-8.887-.175-.67-.424-1.07-.723-1.217-.448-.223-.224.548.1.943.35.375.324.725-.125.45-.448-.247-.673.25-.25.868.4.6 1.023 1.3 1.148 1.97.125.648.174 1.215.498 1.54.3.325-.823.402-1.296-.37-.025.498.125 1.218.448 1.14.3-.05.4.224-.024.976-.424.72-.374.97-.224 1.294.224.497.797-1.472 1.146-.35.175.522.474 1.172.748 1.592.274.4.25.65-.15.65s-.748-1-.797-.153c-.025.822.623 1.096 1.296 1.045.65-.026.75.223.65.573-.076.35.198.695.572.625.35-.102.898.223 1.197 1.07.298.848-.2 1.217-.924.618-.723-.618-1.77-1.166-1.87-1.618-.074-.395-.373.178-.05.726.3.548.474.797.873 1.02.398.197-.026 1.02-.698.497-.65-.497-.948-.376-1.147.197-.324.924-1.296.7-.997 1.198.3.497.174 1.293-.274 1.49-.474.198-1.022-.095-.973-.968-.123.172-.597.25-.97.147-.05 1.223-.4 1.644-1.147 1.32-.025.273-.05.744-.424 1.095.822-.12.996.446 1.07.796.05.35.175.3.65.35.447.026 1.02.62.174.472-.848-.12-2.17.172-2.942-.395.798.72 3.066.745 4.013 1.663 6.905 2.842 19.07 3.836 23.88 2.517.025-.574-.05-1.893-.1-2.313"/><path fill="#034418" d="M273.917 243.185c.2.096.4.37.573.797.424 1.318 1.272 4.625 1.72 5.396.425.77.873 1.84.798 2.364-.075.522.574.726.947 1.096.374.35.424 1.567 1.52 2.612 1.098 1.045 2.32 1.797 3.34 2.32.625 1.388 1.098 3.255 1.297 5.447-2.94-.223-6.63-1.096-8.475-1.918.075-.275.075-.62-.025-1.14-.124-.524-.025-.925.523-1.422.55-.497.374-1.345.076-1.816-.3-.446-.274-.72-.025-.994.225-.248.225-.7-.298-1.198-.55-.497-.175-1.02.124-1.465.3-.453.75-1.224.425-2.217-.324-.97-.823.223-1.222-.147-.25-.254-.398-.725-.124-1.12.273-.376.098-1.096-.226-1.644.723-.198-.498-2.313-.698-3.21-.2-.9.225-1.346-.25-1.696"/><path fill="#509164" d="M242.554 251.267c0 .47-.124 1.147-.25 1.37.3.47.7 1.44.65 1.74.398-.37 1.17-.077 1.345.948.174 1.045.348 2.014.25 2.587.348.3 1.096.822 1.22 1.396.124.548.498.47.872.42 1.172-.172 1.072 1.243 2.294 1.045 1.72-.25.648 1.12 2.368 1.07.997-.05 2.368.147 3.066 1.122.772-1.045 1.445-.65 2.144-.376.698.247 1.57.177.797-.37-.796-.574-2.367-.65-3.065-.48-.698.18-1.745.052-2.468-.59-.698-.65-1.92-1.2-2.667-1.224-.748-.026-.922-.07-1.495-.918-.55-.822-1.446-.726-1.895-.77-.424-.026-.748-.574-.25-1.097.724-.77-.3-.872.075-1.343.374-.472.175-1.096-.822-1.172-.997-.077-.623-.396-.474-1.096.348-1.664-1.895-1.39-1.72-2.187M281.69 260.225c.1-1.02-.673-1.44-.847-2.217-.15-.77-1.37-.796-1.695-.567.125.224 0 .62-.15.842-.15.204-.15.325.15.427.324.076.598.146.623.42.026.248.176.025.3-.3.1-.318.972.402 1.073 1.045.074.65.423 1.096.523.325M277.652 259.13c.15.375.7.898.997.898.3 0 .747.223.822.573.05.3.3.72.623.772.324.05.15.3-.25.274-.423-.025-1.07-.274-1.12-.573.15.624-.05.898-.45.446-.374-.422-.573-1.02-1.07-1.097.373-.07.423-.172.248-.548-.15-.37-.025-1.364.2-.746"/><path d="M-716.69 545.89c6.382-3.13 16.23-1.938 19.904 1.342 1.93-3.678 5.025-6.41 10.828-5.417 4.644-5.07 8.51-7.604 11.22-5.07 2.708-5.02 11.8-6.212 14.894-3.08 3.288-5.07 9.863-7.406 14.31-4.673 5.802-7.604 16.05-10.288 22.24-6.41 5.417-4.076 11.606-3.28 14.314-.597 2.708 2.535 8.51-2.684 10.833 2.137 4.06-.944 11.794-1.143 13.344 3.13.965-2.335 4.446-3.726 6.382-1.937 0-8.946 6.38-15.755 15.28-13.618 4.252-6.412 11.605-9.095 15.086-6.81 3.674-3.677 11.215-1.142 14.502 3.33 7.16-.198 10.64 3.082 14.314 9.493 3.674 6.41 14.314 10.288 21.083 7.405 6.77-2.534 12.958-3.33 15.28-.198 4.06-3.678 8.51-2.734 11.215-.2 4.644 4.076 9.09-3.13 11.8-.397 4.257 4.473 8.124-4.075 15.665.398 7.353 4.473 21.855 11.232 33.075 11.232s20.117-13.767 27.272-4.076c7.155-4.82 17.988-7.156 25.53-3.08 4.45-4.076 14.7-5.418 18.76-1.542 4.06-6.212 11.798-9.94 18.373-7.802 3.674-6.362 18.374-7.356 22.82 1.59 3.68 0 9.478 3.28 9.478 7.356 3.68 0 9.482 2.335 9.482 6.61 4.06-.994 9.085 1.54 9.863 6.41 8.12-.596 14.7 2.734 18.374 9.493 2.708-2.337 1.158-8.35 7.347-9.493 6.19-.994 8.125.944 9.862 3.08 6.77-5.02 16.25-4.422 24.177 2.734 5.802-2.334 11.22-1.34 12.957 1.542 2.516-2.336 6.576-2.882 10.64-2.882.194 13.17-.97 27.533-3.87 42.294h-523.75c-2.71-14.363-3.868-28.726-3.675-41.946" stroke="#000" stroke-width=".999" fill="#078930" transform="matrix(.1284 0 0 .1282 307.865 195.396)"/><g fill="#fff"><path d="M249.974 226.806l-.672 2.166h-2.29l1.867 1.344-.698 2.166 1.817-1.344 1.84 1.344-.696-2.166 1.84-1.293h-2.263l-.696-2.166M241.314 227.526l-.323 2.242-2.238.35 2.04 1.02-.348 2.236 1.592-1.618 2.016 1.026-1.045-2.02 1.617-1.593-2.24.35-1.045-2.02M232.854 229.64l.025 2.27-2.166.72 2.19.674v2.262l1.294-1.867 2.165.674-1.37-1.822 1.32-1.84-2.165.726-1.368-1.822M224.866 233.1l.398 2.242-2.015 1.07 2.263.3.373 2.235.97-2.038 2.24.298-1.642-1.592.995-2.02-2.016 1.07-1.642-1.567M258.684 227.526l.324 2.242 2.24.35-2.04 1.02.347 2.236-1.593-1.618-2.015 1.026 1.045-2.02-1.593-1.593 2.24.35 1.044-2.02M267.146 229.64l-.025 2.27 2.166.72-2.19.674v2.262l-1.294-1.867-2.165.674 1.37-1.822-1.32-1.84 2.14.726 1.368-1.822M275.134 233.1l-.398 2.242 2.016 1.07-2.265.3-.373 2.235-.97-2.038-2.24.298 1.642-1.592-.995-2.02 2.016 1.07 1.643-1.567"/></g><g><path fill="#865800" d="M246.245 281.6l.25-16.645c0-.796.148-.923.173-.05l.05 16.874"/><path stroke-linejoin="round" d="M246.245 281.6l.25-16.645c0-.796.148-.923.173-.05l.05 16.874" stroke="#000" stroke-linecap="round" fill="#704d25" stroke-width=".12818"/><path fill="#fff" d="M246.692 264.93c.572-.497 1.89.624 2.712.153-.497 1.61-2.488.344-2.712.942v-1.095"/><path stroke-linejoin="round" d="M246.692 264.93c.572-.497 1.89.624 2.712.153-.497 1.61-2.488.344-2.712.942v-1.095" stroke="#000" stroke-linecap="round" fill="none" stroke-width=".12818"/><path fill="#865800" d="M251.868 281.627l.25-16.62c0-.797.15-.95.173-.026l.05 16.844"/><path stroke-linejoin="round" d="M251.868 281.627l.25-16.62c0-.797.15-.95.173-.026l.05 16.844" stroke="#000" stroke-linecap="round" fill="#704d25" stroke-width=".12818"/><path fill="#fff" d="M252.34 264.98c.573-.496 1.893.625 2.714.147-.523 1.62-2.49.35-2.713.95v-1.096"/><path stroke-linejoin="round" d="M252.34 264.98c.573-.496 1.893.625 2.714.147-.523 1.62-2.49.35-2.713.95v-1.096" stroke="#000" stroke-linecap="round" fill="none" stroke-width=".12818"/><path fill="#865800" d="M257.193 282.55l.25-16.65c0-.798.148-.92.173-.02l.05 16.843"/><path stroke-linejoin="round" d="M257.193 282.55l.25-16.65c0-.798.148-.92.173-.02l.05 16.843" stroke="#000" stroke-linecap="round" fill="#704d25" stroke-width=".12818"/><path fill="#fff" d="M257.642 265.9c.572-.498 1.89.623 2.712.126-.522 1.618-2.488.35-2.712.943v-1.09"/><path stroke-linejoin="round" d="M257.642 265.9c.572-.498 1.89.623 2.712.126-.522 1.618-2.488.35-2.712.943v-1.09.02z" stroke="#000" stroke-linecap="round" fill="none" stroke-width=".12818"/><path fill="#704d25" d="M259.11 284.462c-.573 0-1.294-.268-1.494-.72-.423.4-2.19.624-2.886.026-.473.4-1.94.675-2.688.197-.597.523-2.364.478-3.285-.07-.373.395-1.443.694-2.015.745-.822-1.172-3.037-3.038-4.43-3.733-1.568-.77-4.703-2.268-6.37-2.988-.97-.42-1.867-1.147-.025-.35 1.966.846 5.126 2.114 7.266 3.063 3.06 1.344 15.28 1.147 17.294.97 1.046-.07 2.44-.868 3.41-1.467.747-.452.77-.178.05.198-.797.42-1.668.745-2.29 1.618-.846 1.172-2.016 1.695-2.464 2.465"/><path stroke-linejoin="round" d="M259.11 284.462c-.573 0-1.294-.268-1.494-.72-.423.4-2.19.624-2.886.026-.473.4-1.94.675-2.688.197-.597.523-2.364.478-3.285-.07-.373.395-1.443.694-2.015.745-.822-1.172-3.037-3.038-4.43-3.733-1.568-.77-4.703-2.268-6.37-2.988-.97-.42-1.867-1.147-.025-.35 1.966.846 5.126 2.114 7.266 3.063 3.06 1.344 15.28 1.147 17.294.97 1.046-.07 2.44-.868 3.41-1.467.747-.452.77-.178.05.198-.797.42-1.668.745-2.29 1.618-.846 1.172-2.016 1.695-2.464 2.465l-.074.045z" stroke="#000" stroke-linecap="round" fill="#704d25" stroke-width=".12818"/><path fill="#fff" d="M260.254 268.74l-3.957-.428c-.697 1.173-.796 2.638-.423 3.663 1.27-1.197 3.56-.573 4.704.045-.374-1.045-.946-2.46-.3-3.255"/><path stroke-linejoin="round" d="M260.254 268.74l-3.957-.428c-.697 1.173-.796 2.638-.423 3.663 1.27-1.197 3.56-.573 4.704.045-.374-1.045-.946-2.46-.3-3.255l-.024-.026z" stroke="#000" stroke-linecap="round" fill="none" stroke-width=".12818"/><path fill="#fff" d="M260.553 271.995c-1.17.026-3.956-.045-4.828-.045-.945 1.217-.423 3.058-.2 3.76 1.046-1.67 4.356-.778 5.625.42-.647-1.224-1.145-2.268-.572-4.154"/><path stroke-linejoin="round" d="M260.553 271.995c-1.17.026-3.956-.045-4.828-.045-.945 1.217-.423 3.058-.2 3.76 1.046-1.67 4.356-.778 5.625.42-.647-1.224-1.145-2.268-.572-4.154l-.025.02z" stroke="#000" stroke-linecap="round" fill="none" stroke-width=".12818"/><path fill="#fff" d="M261.126 276.18c-1.145-.204-4.828-.452-5.575-.65-.596 1.243-1.094 2.86-1.342 4.41 1.79-1.97 5.947-.524 6.818 1.388-.87-1.644-1.742-4.13.124-5.148"/><path stroke-linejoin="round" d="M261.126 276.18c-1.145-.204-4.828-.452-5.575-.65-.596 1.243-1.094 2.86-1.342 4.41 1.79-1.97 5.947-.524 6.818 1.388-.87-1.644-1.742-4.13.124-5.148h-.024z" stroke="#000" stroke-linecap="round" fill="none" stroke-width=".12818"/><path fill="#fff" d="M256.198 267.542l-5.226-.694c-.746.872-1.294 2.414-1.22 4.204 1.096-1.045 5.102-.624 6.123.873-.35-1.618-.797-3.657.348-4.41"/><path stroke-linejoin="round" d="M256.198 267.542l-5.226-.694c-.746.872-1.294 2.414-1.22 4.204 1.096-1.045 5.102-.624 6.123.873-.35-1.618-.797-3.657.348-4.41l-.025.027z" stroke="#000" stroke-linecap="round" fill="none" stroke-width=".12818"/><path fill="#fff" d="M255.8 272.072l-5.8-.77c-.92 1.17-.87 2.834-.646 4.605 1.32-1.096 5.624-.497 6.645.968-.623-2.14-1.146-3.408-.175-4.803"/><path stroke-linejoin="round" d="M255.8 272.072l-5.8-.77c-.92 1.17-.87 2.834-.646 4.605 1.32-1.096 5.624-.497 6.645.968-.623-2.14-1.146-3.408-.175-4.803h-.025z" stroke="#000" stroke-linecap="round" fill="none" stroke-width=".12818"/><path fill="#fff" d="M255.974 276.875l-5.898-.6c-.92 1.148-1.543 2.32-1.343 4.034.92-1.517 4.827-.422 6.494 1.266-.995-1.318-1.095-3.21.747-4.7"/><path stroke-linejoin="round" d="M255.974 276.875l-5.898-.6c-.92 1.148-1.543 2.32-1.343 4.034.92-1.517 4.827-.422 6.494 1.266-.995-1.318-1.095-3.21.747-4.7z" stroke="#000" stroke-linecap="round" fill="none" stroke-width=".12818"/><path fill="#fff" d="M246.368 267.542c-.647.497-1.642 2.217-1.792 2.688 1.095-.446 3.41-.573 4.853.497-.424-.822-.573-2.26-.2-2.86-.572-.25-2.09-.376-2.837-.3"/><path stroke-linejoin="round" d="M246.368 267.542c-.647.497-1.642 2.217-1.792 2.688 1.095-.446 3.41-.573 4.853.497-.424-.822-.573-2.26-.2-2.86-.572-.25-2.09-.376-2.837-.3l-.025-.025z" stroke="#000" stroke-linecap="round" fill="none" stroke-width=".12818"/><path fill="#fff" d="M243.954 271.026c1.518-.026 4.63.35 5.973.72-.796 1.197-.697 3.236-.373 4.504-2.066-2.04-5.475-1.988-7.49-1.39.372-.923 1.293-2.84 1.866-3.86"/><path stroke-linejoin="round" d="M243.954 271.026c1.518-.026 4.63.35 5.973.72-.796 1.197-.697 3.236-.373 4.504-2.066-2.04-5.475-1.988-7.49-1.39.372-.923 1.293-2.84 1.866-3.86l.024.026z" stroke="#000" stroke-linecap="round" fill="none" stroke-width=".12818"/><path fill="#fff" d="M249.976 276.703c-1.468.05-5.225-.6-6.943-1.446-.597 1.618-.87 4.307-.92 5.275 1.667-2.236 5.748-.994 7.042 1.293-.124-1.217-.572-4.204.82-5.147"/><path stroke-linejoin="round" d="M249.976 276.703c-1.468.05-5.225-.6-6.943-1.446-.597 1.618-.87 4.307-.92 5.275 1.667-2.236 5.748-.994 7.042 1.293-.124-1.217-.572-4.204.82-5.147v.025z" stroke="#000" stroke-linecap="round" fill="none" stroke-width=".12818"/><path fill="#fff" d="M246.368 267.542c-4.13 2.49-7.266 7.517-8.436 11.002 1.17-.026 2.638.35 3.16 1.395 1.22-5.008 2.937-9.633 5.276-12.424"/><path stroke-linejoin="round" d="M246.368 267.542c-4.13 2.49-7.266 7.517-8.436 11.002 1.17-.026 2.638.35 3.16 1.395 1.22-5.008 2.937-9.633 5.276-12.424v.026zM246.492 265.127c-3.384 3.408-8.186 9.486-9.93 12.792M260.254 268.74c.92 4.478 1.145 10.498.772 12.715" stroke="#000" stroke-linecap="round" fill="none" stroke-width=".12818"/><path fill="#00009e" d="M265.152 276.827c-1.05.524-3.038-.94-3.977-.275v-.58c.91-.637 2.9.827 3.977.276v.608"/><path fill="#002b7f" d="M265.152 276.827c-1.05.524-3.038-.94-3.977-.275v-.58c.91-.637 2.9.827 3.977.276v.608-.028z"/><path fill="#fff" d="M265.152 277.435c-1.05.523-3.038-.94-3.977-.304v-.607c.91-.637 2.9.827 3.977.276v.607"/><path fill="none" d="M265.152 277.435c-1.05.523-3.038-.94-3.977-.304v-.607c.91-.637 2.9.827 3.977.276v.635z"/><path fill="#ff0016" d="M265.152 278.044c-1.05.552-3.038-.912-3.977-.276v-.608c.91-.637 2.9.827 3.977.304v.58"/><path fill="#ce1126" d="M265.152 278.044c-1.05.552-3.038-.912-3.977-.276v-.608c.91-.637 2.9.827 3.977.304v.58"/><path fill="#fff" d="M265.152 278.652c-1.05.55-3.038-.913-3.977-.276v-.61c.91-.607 2.9.83 3.977.277v.61"/><path fill="none" d="M265.152 278.652c-1.05.55-3.038-.913-3.977-.276v-.61c.91-.607 2.9.83 3.977.277v.61"/><path fill="#00009e" d="M265.152 279.232c-1.05.552-3.038-.912-3.977-.276v-.608c.91-.636 2.9.828 3.977.276v.58"/><path fill="#002b7f" d="M265.152 279.232c-1.05.552-3.038-.912-3.977-.276v-.608c.91-.636 2.9.828 3.977.276v.608z"/></g><g stroke-width="1.832"><path fill="#865800" d="M248.41 251.813l.09-5.906c0-.283.052-.328.06-.018l.02 5.987"/><path stroke-linejoin="round" d="M248.41 251.813l.09-5.906c0-.283.052-.328.06-.018l.02 5.987" stroke="#000" stroke-linecap="round" fill="#704d25" stroke-width=".08333768000000001"/><path fill="#fff" d="M248.57 245.898c.203-.177.67.22.962.054-.176.572-.883.122-.962.334v-.388"/><path stroke-linejoin="round" d="M248.57 245.898c.203-.177.67.22.962.054-.176.572-.883.122-.962.334v-.388" stroke="#000" stroke-linecap="round" fill="none" stroke-width=".08333768000000001"/><path fill="#865800" d="M250.407 251.823l.088-5.898c0-.283.053-.337.062-.01l.017 5.978"/><path stroke-linejoin="round" d="M250.407 251.823l.088-5.898c0-.283.053-.337.062-.01l.017 5.978" stroke="#000" stroke-linecap="round" fill="#704d25" stroke-width=".08333768000000001"/><path fill="#fff" d="M250.574 245.916c.203-.177.672.22.963.052-.186.574-.883.124-.963.337v-.39"/><path stroke-linejoin="round" d="M250.574 245.916c.203-.177.672.22.963.052-.186.574-.883.124-.963.337v-.39" stroke="#000" stroke-linecap="round" fill="none" stroke-width=".08333768000000001"/><path fill="#865800" d="M252.296 252.15l.088-5.91c0-.28.053-.324.062-.005l.018 5.977"/><path stroke-linejoin="round" d="M252.296 252.15l.088-5.91c0-.28.053-.324.062-.005l.018 5.977" stroke="#000" stroke-linecap="round" fill="#704d25" stroke-width=".08333768000000001"/><path fill="#fff" d="M252.455 246.24c.203-.175.67.223.963.047-.186.574-.883.124-.963.334v-.385"/><path stroke-linejoin="round" d="M252.455 246.24c.203-.175.67.223.963.047-.186.574-.883.124-.963.334v-.385.006z" stroke="#000" stroke-linecap="round" fill="none" stroke-width=".08333768000000001"/><path fill="#704d25" d="M252.976 252.83c-.203 0-.46-.096-.53-.257-.15.143-.777.222-1.024.01-.168.142-.69.24-.954.07-.212.185-.84.17-1.165-.025-.133.14-.513.246-.716.264-.29-.416-1.077-1.078-1.572-1.325-.556-.273-1.67-.804-2.26-1.06-.345-.15-.663-.407-.01-.124.7.3 1.82.75 2.58 1.087 1.086.477 5.42.407 6.136.344.372-.025.867-.308 1.21-.52.266-.16.275-.064.02.07-.284.15-.593.264-.813.574-.3.416-.716.6-.875.875"/><path stroke-linejoin="round" d="M252.976 252.83c-.203 0-.46-.096-.53-.257-.15.143-.777.222-1.024.01-.168.142-.69.24-.954.07-.212.185-.84.17-1.165-.025-.133.14-.513.246-.716.264-.29-.416-1.077-1.078-1.572-1.325-.556-.273-1.67-.804-2.26-1.06-.345-.15-.663-.407-.01-.124.7.3 1.82.75 2.58 1.087 1.086.477 5.42.407 6.136.344.372-.025.867-.308 1.21-.52.266-.16.275-.064.02.07-.284.15-.593.264-.813.574-.3.416-.716.6-.875.875l-.026.016z" stroke="#000" stroke-linecap="round" fill="#704d25" stroke-width=".08333768000000001"/><path fill="#fff" d="M253.382 247.25l-1.404-.152c-.247.416-.282.936-.15 1.3.45-.425 1.263-.204 1.67.016-.133-.37-.337-.873-.107-1.156"/><path stroke-linejoin="round" d="M253.382 247.25l-1.404-.152c-.247.416-.282.936-.15 1.3.45-.425 1.263-.204 1.67.016-.133-.37-.337-.873-.107-1.156l-.008-.01z" stroke="#000" stroke-linecap="round" fill="none" stroke-width=".08333768000000001"/><path fill="#fff" d="M253.488 248.405c-.415.01-1.404-.016-1.713-.016-.335.43-.15 1.084-.07 1.333.37-.593 1.545-.276 1.995.15-.23-.435-.406-.806-.203-1.475"/><path stroke-linejoin="round" d="M253.488 248.405c-.415.01-1.404-.016-1.713-.016-.335.43-.15 1.084-.07 1.333.37-.593 1.545-.276 1.995.15-.23-.435-.406-.806-.203-1.475l-.01.007z" stroke="#000" stroke-linecap="round" fill="none" stroke-width=".08333768000000001"/><path fill="#fff" d="M253.692 249.89c-.407-.072-1.714-.16-1.98-.23-.21.44-.387 1.014-.475 1.564.635-.7 2.11-.186 2.42.492-.31-.583-.62-1.464.043-1.826"/><path stroke-linejoin="round" d="M253.692 249.89c-.407-.072-1.714-.16-1.98-.23-.21.44-.387 1.014-.475 1.564.635-.7 2.11-.186 2.42.492-.31-.583-.62-1.464.043-1.826h-.008z" stroke="#000" stroke-linecap="round" fill="none" stroke-width=".08333768000000001"/><path fill="#fff" d="M251.943 246.825l-1.855-.247c-.264.31-.46.857-.432 1.492.388-.37 1.81-.22 2.172.31-.123-.574-.282-1.298.124-1.564"/><path stroke-linejoin="round" d="M251.943 246.825l-1.855-.247c-.264.31-.46.857-.432 1.492.388-.37 1.81-.22 2.172.31-.123-.574-.282-1.298.124-1.564l-.01.01z" stroke="#000" stroke-linecap="round" fill="none" stroke-width=".08333768000000001"/><path fill="#fff" d="M251.802 248.432l-2.058-.273c-.327.414-.31 1.004-.23 1.633.468-.39 1.996-.176 2.358.344-.22-.76-.406-1.21-.062-1.705"/><path stroke-linejoin="round" d="M251.802 248.432l-2.058-.273c-.327.414-.31 1.004-.23 1.633.468-.39 1.996-.176 2.358.344-.22-.76-.406-1.21-.062-1.705h-.008z" stroke="#000" stroke-linecap="round" fill="none" stroke-width=".08333768000000001"/><path fill="#fff" d="M251.863 250.136l-2.092-.212c-.326.407-.547.823-.476 1.43.326-.537 1.713-.148 2.304.45-.353-.467-.388-1.14.265-1.668"/><path stroke-linejoin="round" d="M251.863 250.136l-2.092-.212c-.326.407-.547.823-.476 1.43.326-.537 1.713-.148 2.304.45-.353-.467-.388-1.14.265-1.668z" stroke="#000" stroke-linecap="round" fill="none" stroke-width=".08333768000000001"/><path fill="#fff" d="M248.455 246.825c-.23.176-.583.786-.636.954.387-.16 1.21-.205 1.72.175-.15-.292-.202-.803-.07-1.015-.203-.088-.74-.134-1.006-.106"/><path stroke-linejoin="round" d="M248.455 246.825c-.23.176-.583.786-.636.954.387-.16 1.21-.205 1.72.175-.15-.292-.202-.803-.07-1.015-.203-.088-.74-.134-1.006-.106l-.01-.01z" stroke="#000" stroke-linecap="round" fill="none" stroke-width=".08333768000000001"/><path fill="#fff" d="M247.598 248.06c.54-.008 1.643.125 2.12.256-.283.425-.248 1.15-.133 1.6-.733-.725-1.943-.707-2.658-.494.133-.328.46-1.008.662-1.37"/><path stroke-linejoin="round" d="M247.598 248.06c.54-.008 1.643.125 2.12.256-.283.425-.248 1.15-.133 1.6-.733-.725-1.943-.707-2.658-.494.133-.328.46-1.008.662-1.37l.008.01z" stroke="#000" stroke-linecap="round" fill="none" stroke-width=".08333768000000001"/><path fill="#fff" d="M249.735 250.075c-.52.02-1.854-.212-2.464-.513-.21.575-.308 1.528-.325 1.872.59-.793 2.04-.353 2.5.46-.045-.433-.204-1.493.29-1.828"/><path stroke-linejoin="round" d="M249.735 250.075c-.52.02-1.854-.212-2.464-.513-.21.575-.308 1.528-.325 1.872.59-.793 2.04-.353 2.5.46-.045-.433-.204-1.493.29-1.828v.01z" stroke="#000" stroke-linecap="round" fill="none" stroke-width=".08333768000000001"/><path fill="#fff" d="M248.455 246.825c-1.466.883-2.58 2.667-2.994 3.904.416-.01.937.123 1.123.494.432-1.777 1.042-3.418 1.872-4.408"/><path stroke-linejoin="round" d="M248.455 246.825c-1.466.883-2.58 2.667-2.994 3.904.416-.01.937.123 1.123.494.432-1.777 1.042-3.418 1.872-4.408v.01zM248.5 245.968c-1.202 1.21-2.906 3.366-3.525 4.54M253.382 247.25c.327 1.59.406 3.725.274 4.512" stroke="#000" stroke-linecap="round" fill="none" stroke-width=".08333768000000001"/><path fill="#00009e" d="M255.12 250.12c-.372.185-1.078-.334-1.41-.098v-.206c.322-.226 1.028.294 1.41.098v.216"/><path fill="#002b7f" d="M255.12 250.12c-.372.185-1.078-.334-1.41-.098v-.206c.322-.226 1.028.294 1.41.098v.216-.01z"/><path fill="#fff" d="M255.12 250.335c-.372.186-1.078-.334-1.41-.108v-.216c.322-.224 1.028.295 1.41.1v.215"/><path fill="none" d="M255.12 250.335c-.372.186-1.078-.334-1.41-.108v-.216c.322-.224 1.028.295 1.41.1v.225z"/><path fill="#ff0016" d="M255.12 250.55c-.372.197-1.078-.322-1.41-.097v-.215c.322-.226 1.028.293 1.41.107v.206"/><path fill="#ce1126" d="M255.12 250.55c-.372.197-1.078-.322-1.41-.097v-.215c.322-.226 1.028.293 1.41.107v.206"/><path fill="#fff" d="M255.12 250.767c-.372.196-1.078-.324-1.41-.098v-.217c.322-.216 1.028.294 1.41.098v.217"/><path fill="none" d="M255.12 250.767c-.372.196-1.078-.324-1.41-.098v-.217c.322-.216 1.028.294 1.41.098v.217"/><path fill="#00009e" d="M255.12 250.973c-.372.196-1.078-.324-1.41-.098v-.216c.322-.227 1.028.293 1.41.097v.206"/><path fill="#002b7f" d="M255.12 250.973c-.372.196-1.078-.324-1.41-.098v-.216c.322-.227 1.028.293 1.41.097v.216z"/></g><path d="M279.96 231.905c-3.16 12.494.374 20.408 2.813 25.88 2.29 5.104 2.738 16.974-5.625 25.365-12.42 12.418-21.877 7.417-26.63 14.183M249.498 297.357c-4.754-6.766-14.21-1.764-26.63-14.182-8.364-8.39-7.915-20.26-5.626-25.365 2.44-5.447 5.973-13.36 2.813-25.88" stroke="#000" stroke-width=".38460000000000005" fill="none"/><g transform="translate(196.615 195.396) scale(.1282)"><g stroke-linejoin="round" stroke="#000" stroke-width="3" stroke-linecap="round"><path d="M427.55 39.787c1.357 6.308 3.106 23.32-6.212 25.758 17.082 21.075 41.737 24.086 85.03 24.086 27.18 0 49.118-.19 65.23 0 0 5.4-1.75 11.184-1.75 17.922 0 6.5 6.8 9.51 16.7 7.264 9.9-2.246 31.06-8.602 42.512 1.48 19.224 17.205 54.555 20.168 64.067 31.016-2.912-13.094-15.337-26.332-29.12-37.37 13.007-1.864 29.895-.526 35.72 3.918-14.76-16-41.55-16.382-55.14-24.22-13.59-7.837-26.6-14.766-36.69-17.394 0-4.444-.586-8.028-4.468-10.61-8.544-5.973-25.238-8.027-38.826-8.792 1.94-2.055 2.326-4.492 2.326-8.22V23.55c0-7.313.78-9.176-7.57-14.386-32.224-19.785-71.44-33.978-142.88-33.978-71.248 0-110.47 14.002-142.88 33.978-8.542 5.21-7.568 7.073-7.568 14.385v21.074c0 3.728.194 6.165 2.326 8.22-13.588.573-30.088 2.628-38.825 8.793-3.688 2.58-4.468 5.974-4.468 10.61-9.9 2.437-22.906 9.366-36.688 17.394-13.593 7.84-40.38 8.22-55.136 24.23 5.632-4.444 22.52-5.974 35.526-3.92-13.588 10.85-26.012 24.087-29.12 37.372 9.513-10.848 44.844-13.81 64.262-31.015 11.257-10.084 32.42-3.918 42.513-1.48 9.9 2.245 16.7-.574 16.7-7.265 0-6.738-1.75-12.52-1.75-17.92 15.92-.383 37.856 0 65.23 0 43.1 0 67.755-3.012 85.03-24.087-9.512-2.437-7.763-19.26-6.212-25.758-20.188-4.492-30.282-12.138-46.593-12.138-16.112 0-19.025 8.553-19.025 11.755v2.628c-12.812 0-30.868-3.202-35.33-11.613 24.85-10.084 61.735-19.21 112.4-19.21 50.667 0 87.554 9.127 112.4 19.21-4.464 8.41-22.52 11.613-35.332 11.613v-2.628c0-3.01-2.72-11.756-19.025-11.756s-26.405 7.454-46.593 12.137h-.775z" fill="#89c5e3"/><path d="M260.98 89.965c-12.62.19-21.55.956-26.405 2.437-7.763 2.438-8.538 6.547-3.494 8.793M339.21 42.176v9.75c0 6.307 6.794 14.527 17.28 14.527 25.82 0 30.868-4.444 50.087-3.92" fill="none"/><path d="M406.38 62.01c-17.86-3.012-32.03-12.522-47.76-12.522-15.53 0-18.83 7.073-16.112 10.466M224.48 72.81v19.21c0 5.257 3.688 12.52 17.668 9.75 12.23-2.247 20.188.525 20.188 5.78" fill="none"/><path d="M267.96 53.215c2.912 2.963 9.32 5.59 23.493 10.657 26.012 9.51 85.805 16.01 124.64-.956M528.88 30.42c5.05 2.055 9.706 4.11 13.787 6.165 24.263 12.138 26.012 14.958 17.47 19.594M571.79 89.965c12.62.19 21.55.956 26.405 2.437 7.763 2.438 8.538 6.547 3.494 8.793M493.36 42.176v9.75c0 6.307-6.794 14.527-17.28 14.527-25.82 0-30.868-4.444-50.087-3.92" fill="none"/><path d="M426.18 62.01c17.87-3.012 32.04-12.522 47.77-12.522 15.526 0 18.83 7.073 15.92 10.466M608.09 72.81v19.21c0 5.257-3.688 12.52-17.668 9.75-12.23-2.247-20.193.525-20.193 5.78" fill="none"/><path d="M564.61 53.215c-2.912 2.963-9.32 5.59-23.493 10.657-26.012 9.51-85.805 16.01-124.64-.956" fill="none"/><path d="M416.28 66.453c11.843 0 12.23-8.937 12.23-17.156 0-8.03-.387-17.013-12.23-17.013s-12.23 8.984-12.23 17.013.387 17.156 12.23 17.156z" fill="#89c5e3"/><path d="M304.55 30.437c-5.17 2.052-9.936 4.105-14.113 6.157-24.843 12.123-26.628 14.94-17.883 19.568" fill="none"/></g><g id="aq" stroke="#000" stroke-width="3" fill="#078930"><path d="M387.94 192.56c16.306-10.486 36.5-28.13 43.874-39.81 10.094-16.3 11.456-8.348 19.22-9.69-18.25 19.98-40.963 41.35-57.075 52.63l-6.02-3.13M251.46 231.77c-40.768-23.11-56.3.994-65.812 2.137 11.257 2.734 20.77 20.774 65.812-2.137z"/><path d="M269.71 218.4c-38.83-26.24-56.105-3.33-65.816-2.733 11.068 3.48 19.224 22.315 65.816 2.733z"/><path d="M297.47 202.84c-38.248-26.987-56.105-4.473-65.816-4.075 11.068 3.876 18.637 22.514 65.816 4.075z"/><path d="M320.38 189.08c-35.137-31.062-55.33-10.486-64.842-11.282 10.482 5.07 16.112 24.452 64.842 11.282z"/><path d="M349.69 178.99c-33.582-32.85-54.744-13.22-64.256-14.562 10.288 5.417 14.95 25.396 64.256 14.562z"/><path d="M380.37 175.66c-27.762-37.672-51.83-21.917-61.15-24.65 9.125 7.205 10.482 27.383 61.15 24.65z"/><path d="M385.42 177.2c-1.362-8.498-17.28-19.383-18.637-23.458 4.075-.398 4.657-5.268 2.912-7.008-1.36-1.342-4.66-.596-6.406 1.193-1.75 2.137-3.495 7.157 2.13 11.43 5.826 4.275 13.206 12.028 15.537 17.843"/><path stroke-linejoin="round" d="M214.38 234.5c11.063-3.33 25.043-1.74 34.75-2.733M232.44 218.2c11.45-2.535 25.043 0 34.943 0M260.2 201.85c11.45-2.087 25.043.596 34.943.596M283.49 184.01c11.65-.944 24.85 3.33 34.556 4.473M313 171.98c11.644-.398 24.656 4.473 34.362 6.212M345.42 163.03c11.65 1.193 23.686 8.548 32.81 11.48" stroke-linecap="round"/></g><use xlink:href="#aq" transform="matrix(-1 0 0 1 832.76 0)"/><g stroke-linejoin="round" stroke="#000" stroke-linecap="round" stroke-width="3"><path d="M416.49 190.46c9.125 0 16.888 0 22.52-.745v-13.02c0-4.276 15.142-9.345 38.05-4.872 89.69 17.494 101.92 58.05 170.07 81.357.774.2 3.3.994 6.21 1.54 1.75-4.075 3.69-8.15 5.826-13.17 1.163-3.727 11.068-3.528 19.8.547 10.1 4.87 14.562 10.487 12.817 13.42-1.75 4.274-3.5 7.753-5.05 11.23 15.92 5.667 44.844 14.215 35.332 52.434-7.376-7.155-25.237-14.958-36.3-14.958-12.62 0-26.21-4.82-21.937-18.637-2.33-1.143-6.41-3.28-8.544-3.677-.387 1.193-.97 2.336-1.555 3.48-2.914 7.205-15.532 9.74-28.15 5.466-71.056-24.253-92.993-77.878-176.86-78.624v2.335c0 6.76-8.738 12.97-32.226 12.97-23.3 0-32.225-6.21-32.225-12.97v-2.335c-83.674.546-105.81 54.172-176.86 78.624-12.426 4.274-25.044 1.54-28.15-5.467-.394-1.143-.975-2.287-1.557-3.48-2.137.398-6.212 2.535-8.543 3.678 4.08 13.618-9.125 18.637-21.937 18.637-11.063 0-28.73 7.803-36.3 14.96-9.513-38.02 19.025-46.57 35.33-52.434-1.555-3.478-3.105-6.957-5.05-11.232-1.55-2.932 2.72-8.548 12.813-13.42 8.738-4.273 18.443-4.47 19.805-.545 2.14 4.822 3.883 8.897 5.826 13.17 2.913-.546 5.238-1.34 6.213-1.54 67.948-23.31 80.372-63.863 170.06-81.357 22.716-4.473 38.054.596 38.054 4.87v13.022c5.63.546 13.394.745 22.52.745z" fill="#fff"/><path d="M393.78 189.71c-6.02-.596-9.512-1.938-9.512-4.274 0-5.815 9.512-3.877 9.512-8.747M165.27 253.58c3.494 8.35 7.962 19.035 12.037 28.13M156.73 257.85c3.494 8.15 10.1 22.116 12.037 27.93" fill="#fff"/><path d="M140.62 255.71c2.33 4.075 14.562-1.938 16.112 1.938 1.362 4.076-2.326 6.213-10.87 9.294M173.43 241.55c1.744 5.218-10.487 7.356-7.962 12.027 1.556 3.08 8.35 2.137 13.786.944" fill="none"/><path d="M384.06 185.24v26.987M439.2 189.71c5.825-.596 9.512-1.938 9.512-4.274 0-5.815-9.512-3.877-9.512-8.747M667.7 253.58c-3.494 8.35-7.962 19.035-12.037 28.13M676.24 257.85c-3.5 8.15-10.1 22.116-12.037 27.93" fill="#fff"/><path d="M692.36 255.71c-2.33 4.075-14.562-1.938-16.112 1.938-1.362 4.076 2.326 6.213 10.87 9.294M659.55 241.55c-1.744 5.218 10.487 7.356 7.962 12.027-1.556 3.08-8.35 2.137-13.787.944" fill="none"/><path d="M448.91 185.24v26.987" fill="#fff"/></g><path d="M203.96 281.77l-7.523-26.884 9.37-2.622c2.397-.67 4.177-.908 5.34-.713 1.16.197 2.24.798 3.232 1.806.993 1.007 1.723 2.342 2.188 4.005.588 2.103.558 3.938-.092 5.504-.65 1.566-1.857 2.774-3.623 3.624 1.146.417 2.144.946 2.995 1.584.85.64 2.108 1.86 3.773 3.66l4.146 4.496-5.3 1.483-4.865-4.946c-1.752-1.79-2.91-2.892-3.475-3.308-.565-.415-1.107-.66-1.63-.73-.52-.072-1.294.035-2.32.323l-.918.255 3.14 11.223zm.097-16.756l3.3-.924c2.018-.564 3.277-1.012 3.777-1.343.5-.33.847-.814 1.04-1.448.19-.634.162-1.397-.088-2.29-.24-.856-.603-1.495-1.09-1.92-.49-.423-1.053-.65-1.695-.682-.452-.018-1.675.25-3.668.81l-3.484.974zM228.67 274.55l-12.392-25.016 15.22-7.54 2.097 4.232-11.092 5.494 2.748 5.546 10.307-5.105 2.088 4.216-10.307 5.105 3.373 6.81 11.468-5.68 2.088 4.214zM248.81 263.92l-15.128-23.463 6.242-4.024c2.326-1.5 3.92-2.368 4.778-2.605 1.376-.373 2.816-.207 4.32.5 1.506.705 2.86 1.992 4.065 3.86 1.094 1.696 1.69 3.324 1.79 4.884.1 1.56-.182 2.88-.843 3.964-.66 1.084-2.165 2.382-4.513 3.896l-2.544 1.64 5.707 8.85zm-8.695-21.99l4.292 6.657 2.145-1.383c1.44-.928 2.354-1.66 2.74-2.197.388-.537.576-1.175.566-1.917-.01-.74-.262-1.496-.757-2.264-.5-.78-1.095-1.325-1.78-1.64-.686-.312-1.338-.398-1.956-.256-.62.142-1.74.736-3.36 1.78zM250.55 229.77l3.778-2.64 8.66 12.396c1.345 1.925 2.268 3.146 2.77 3.664.87.893 1.814 1.395 2.83 1.507 1.014.11 2.036-.193 3.067-.913.874-.61 1.45-1.304 1.73-2.08.278-.775.277-1.58-.004-2.413-.28-.833-1.216-2.39-2.808-4.67l-8.845-12.66 3.793-2.65 8.398 12.02c2.145 3.07 3.532 5.405 4.16 7.002.628 1.598.664 3.222.106 4.874-.557 1.652-1.777 3.135-3.66 4.45-1.958 1.368-3.73 2.084-5.32 2.15-1.588.064-3.074-.37-4.46-1.298s-3.273-3.106-5.665-6.53zM269.82 215.83l7.703-4.957c2.103-1.353 3.705-2.112 4.806-2.278 1.1-.165 2.258.05 3.47.643 1.212.593 2.214 1.504 3.004 2.732.728 1.13 1.135 2.315 1.22 3.55s-.13 2.33-.65 3.284c1.404-.33 2.744-.21 4.022.355 1.278.566 2.37 1.554 3.278 2.963 1.1 1.708 1.617 3.416 1.554 5.125s-.565 3.063-1.508 4.06c-.655.695-2.403 1.956-5.243 3.783l-6.55 4.216zm6.39 1.413l3.493 5.43 2.562-1.65c1.538-.99 2.47-1.627 2.8-1.914.593-.534.93-1.147 1.012-1.84.08-.696-.13-1.432-.63-2.212-.447-.694-.96-1.16-1.544-1.395-.582-.237-1.124-.27-1.625-.098-.5.172-1.777.917-3.826 2.236zm6.008 9.337l4.04 6.277 3.602-2.32c1.58-1.016 2.54-1.75 2.883-2.205.342-.454.51-1.022.5-1.703-.007-.683-.252-1.397-.733-2.145-.495-.768-1.065-1.296-1.71-1.583-.645-.287-1.297-.35-1.956-.19-.66.16-1.822.776-3.488 1.848zM302.8 227.14l-12.79-24.557 4.087-2.13 10.617 20.387 10.2-5.313 2.174 4.172zM320.09 217.81l-10.795-25.746 4.25-1.782 10.795 25.746zM338.51 201.14l4.784.377c.226 3.192-.232 5.712-1.376 7.558s-2.853 3.11-5.127 3.79c-2.858.855-5.504.448-7.938-1.222-2.804-1.93-4.852-5.055-6.144-9.372-1.365-4.56-1.405-8.438-.12-11.63 1.117-2.774 3.184-4.612 6.2-5.515 2.457-.735 4.764-.51 6.92.673 1.537.84 2.93 2.35 4.18 4.534l-3.997 2.587c-.712-1.365-1.6-2.308-2.665-2.83-1.064-.524-2.16-.616-3.293-.278-1.617.484-2.726 1.584-3.325 3.3-.6 1.717-.414 4.2.558 7.447 1.008 3.368 2.224 5.615 3.647 6.74s2.93 1.448 4.525.97c1.167-.348 2.04-1.104 2.62-2.264.582-1.16.765-2.783.553-4.866zM368.64 204.55l-4.942.924-3.13-5.866-8.986 1.68-.687 6.58-4.83.903 3.63-29.078 4.81-.9zm-10.397-9.292l-4.993-9.606-1.147 10.753zM397.3 193.94l8.208.624c2.076.157 3.624.508 4.645 1.05 1.02.545 1.934 1.4 2.74 2.567.806 1.168 1.396 2.647 1.77 4.44.372 1.793.46 3.992.262 6.598-.18 2.348-.6 4.37-1.262 6.064-.663 1.695-1.44 3.018-2.333 3.97-.892.95-1.935 1.638-3.13 2.063-1.193.425-2.698.57-4.514.43l-8.45-.64zm4.135 4.936l-1.367 17.992 3.373.256c1.446.11 2.503.053 3.172-.17.67-.222 1.232-.592 1.687-1.11.455-.52.864-1.36 1.226-2.526.36-1.165.616-2.717.763-4.656.152-2.014.134-3.612-.056-4.794-.19-1.182-.553-2.13-1.09-2.84-.535-.713-1.215-1.205-2.04-1.48-.617-.207-1.827-.38-3.63-.517zM420.77 222.48l-1.723-27.188 16.542-1.05.29 4.6-12.054.765.382 6.027 11.2-.71.292 4.58-11.2.71.468 7.4 12.462-.79.29 4.58zM471.17 196.46l4.378 1.965c-.86 3.082-2.14 5.3-3.838 6.654-1.698 1.353-3.732 1.968-6.103 1.844-2.98-.156-5.335-1.43-7.065-3.822-1.992-2.76-2.87-6.392-2.634-10.893.25-4.755 1.516-8.42 3.8-10.996 1.985-2.235 4.55-3.27 7.694-3.106 2.56.134 4.658 1.12 6.29 2.96 1.165 1.308 1.968 3.2 2.41 5.677l-4.633 1.092c-.214-1.524-.733-2.71-1.56-3.562-.826-.85-1.828-1.307-3.007-1.368-1.687-.09-3.1.575-4.243 1.99-1.142 1.414-1.8 3.814-1.978 7.2-.184 3.51.205 6.036 1.166 7.574.962 1.538 2.274 2.35 3.935 2.438 1.217.063 2.294-.354 3.23-1.252.937-.898 1.656-2.363 2.157-4.397zM481.46 193.93c.794-3.23 1.926-5.772 3.396-7.627 1.47-1.854 3.1-3.104 4.893-3.748 1.792-.644 3.785-.696 5.98-.156 3.18.78 5.473 2.633 6.88 5.554 1.405 2.922 1.556 6.626.452 11.113-1.116 4.537-3.048 7.82-5.796 9.85-2.416 1.8-5.22 2.305-8.414 1.52-3.217-.792-5.482-2.532-6.795-5.22-1.493-3.075-1.692-6.837-.597-11.287zm4.668.952c-.767 3.12-.75 5.604.05 7.455.8 1.85 2.074 2.99 3.825 3.42 1.763.435 3.414.02 4.953-1.24s2.704-3.497 3.492-6.702c.773-3.144.78-5.606.023-7.388-.757-1.78-2.048-2.897-3.873-3.345-1.824-.45-3.496-.056-5.016 1.178s-2.67 3.442-3.452 6.622zM505.57 205.27l4.363 1.272c-.926 3.483-.092 5.774 2.502 6.875 1.286.546 2.44.64 3.46.28 1.022-.36 1.744-1.037 2.165-2.03.248-.584.33-1.136.247-1.654-.084-.518-.333-1.02-.747-1.506s-1.5-1.468-3.26-2.945c-1.578-1.318-2.652-2.477-3.22-3.477-.57-1-.88-2.128-.932-3.385s.176-2.487.687-3.69c.595-1.403 1.45-2.53 2.562-3.382 1.113-.85 2.352-1.325 3.717-1.422s2.87.205 4.52.904c2.476 1.052 4.125 2.545 4.946 4.48.82 1.933.74 4.168-.24 6.703l-4.355-1.58c.398-1.458.404-2.593.017-3.405-.386-.812-1.152-1.46-2.297-1.947-1.145-.485-2.13-.62-2.952-.404-.823.216-1.385.68-1.688 1.394-.297.7-.267 1.41.09 2.127.358.718 1.426 1.79 3.205 3.222 1.876 1.526 3.145 2.834 3.807 3.92.662 1.09 1.015 2.28 1.06 3.575s-.263 2.712-.917 4.255c-.947 2.232-2.43 3.816-4.448 4.753s-4.488.785-7.41-.455c-5.165-2.192-6.792-6.352-4.882-12.478zM527.08 225.29l11.3-20.255-5.937-3.312 2.3-4.124 15.883 8.86-2.3 4.123-5.92-3.303-11.3 20.255zM556.83 243.82l-4.205-2.756 1.805-6.4-7.645-5.01-5.053 4.27-4.11-2.694 22.76-18.462 4.092 2.683zm-1.064-13.904l3.05-10.386-8.274 6.962zM566.04 250.48l15.933-22.924 7.99 5.554c2.044 1.42 3.36 2.64 3.95 3.66.59 1.02.812 2.235.67 3.643-.145 1.407-.71 2.82-1.695 4.238-1.246 1.794-2.68 2.94-4.3 3.435-1.62.497-3.322.336-5.102-.484.407 1.15.636 2.256.686 3.318.05 1.063-.09 2.81-.42 5.24l-.824 6.06-4.52-3.14.716-6.902c.263-2.492.375-4.088.336-4.788-.04-.7-.198-1.273-.474-1.72-.277-.448-.853-.976-1.728-1.584l-.782-.544-6.652 9.57zm12.98-10.6l2.814 1.957c1.72 1.196 2.867 1.88 3.44 2.056.575.175 1.168.134 1.778-.12.61-.257 1.18-.766 1.71-1.527.507-.73.77-1.417.785-2.063.016-.646-.17-1.226-.553-1.74-.275-.362-1.262-1.133-2.96-2.314l-2.972-2.066zM584.91 263.5l15.362-23.31 3.848 2.536-15.362 23.31zM610.21 266.99l3.024 3.726c-2.156 2.364-4.298 3.768-6.424 4.213-2.126.442-4.22.075-6.28-1.104-2.59-1.48-4.118-3.68-4.586-6.594-.535-3.362.317-7 2.555-10.91 2.362-4.133 5.143-6.835 8.342-8.106 2.78-1.1 5.536-.87 8.27.693 2.225 1.272 3.653 3.098 4.282 5.476.45 1.69.316 3.742-.404 6.153l-4.63-1.113c.497-1.457.568-2.75.213-3.882-.354-1.132-1.044-1.99-2.07-2.577-1.465-.838-3.026-.883-4.683-.134-1.656.75-3.326 2.595-5.01 5.537-1.745 3.054-2.535 5.483-2.37 7.29s.972 3.12 2.416 3.947c1.058.605 2.207.718 3.448.338 1.24-.38 2.543-1.365 3.906-2.955zM631.84 287.24l-4.71-1.762.35-6.64-8.56-3.203-3.988 5.28-4.602-1.723 18.13-23.024 4.584 1.715zm-4.102-13.327l.687-10.804-6.537 8.614z"/><g><path d="M307.368 23.483l-3.876 1.752-3.752-4.192-7.048 3.185.757 5.547-3.79 1.712-2.856-24.632 3.773-1.706zm-10.412-5.55l-6.033-6.892 1.217 9.07zM309.313 22.888l-7.4-22.433 5.556-1.833 8.382 14.203-1.742-16.393 5.57-1.837 7.4 22.433-3.444 1.136-5.824-17.66 2.167 18.867-3.582 1.182-9.45-16.463 5.824 17.657zM330.88 16.058l-5.652-22.936 13.955-3.44.956 3.88-10.17 2.507 1.252 5.084 9.45-2.33.952 3.866-9.45 2.328 1.54 6.243 10.512-2.59.952 3.864zM348.434 11.85l-4.196-23.246 8.103-1.462c2.073-.374 3.59-.432 4.554-.175.963.257 1.823.85 2.58 1.777.757.928 1.265 2.11 1.525 3.548.327 1.82.155 3.36-.517 4.63-.67 1.266-1.785 2.188-3.34 2.763.93.443 1.73.968 2.396 1.573.665.606 1.627 1.734 2.886 3.384l3.133 4.118-4.583.827-3.704-4.555c-1.335-1.647-2.223-2.67-2.665-3.064-.443-.395-.88-.643-1.314-.745-.433-.102-1.094-.073-1.98.088l-.794.144 1.75 9.704zm1.416-14.107l2.854-.515c1.744-.315 2.84-.592 3.288-.83.448-.24.778-.62.99-1.138.213-.518.25-1.163.11-1.935-.134-.74-.39-1.308-.766-1.704-.377-.395-.835-.63-1.373-.71-.38-.05-1.432.08-3.155.39l-3.013.544zM367.56 8.612L364.36-14.79l3.864-.53 3.202 23.404zM386.67-2.294l3.91 1.1c-.337 2.685-1.13 4.7-2.384 6.046s-2.878 2.114-4.878 2.305c-2.512.24-4.642-.53-6.39-2.317-2.01-2.063-3.197-4.992-3.56-8.788-.386-4.01.217-7.235 1.807-9.675 1.383-2.118 3.4-3.305 6.052-3.56 2.16-.206 4.038.36 5.634 1.695 1.14.948 2.047 2.43 2.726 4.45l-3.742 1.49c-.368-1.248-.95-2.177-1.748-2.786-.797-.61-1.694-.865-2.688-.77-1.422.136-2.523.868-3.302 2.194-.78 1.327-1.032 3.418-.758 6.273.284 2.962.924 5.026 1.92 6.193s2.196 1.684 3.597 1.55c1.027-.1 1.876-.582 2.548-1.45.672-.87 1.09-2.185 1.256-3.95zM412.05 5.09l-4.25.17-1.905-5.293-7.728.31-1.38 5.424-4.154.167 6.593-23.905 4.137-.165zm-7.57-9.05l-3.006-8.652L399.2-3.75zM434.358-3.13l3.735 1.594c-.68 2.62-1.727 4.518-3.142 5.69-1.415 1.172-3.126 1.724-5.134 1.656-2.523-.085-4.535-1.125-6.037-3.12-1.73-2.306-2.53-5.364-2.4-9.175.135-4.026 1.15-7.147 3.04-9.362 1.645-1.922 3.8-2.838 6.46-2.748 2.17.073 3.96.875 5.37 2.406 1.005 1.088 1.715 2.676 2.128 4.764l-3.903.997c-.204-1.285-.662-2.28-1.374-2.988-.712-.706-1.567-1.076-2.566-1.11-1.427-.048-2.613.535-3.557 1.75-.944 1.215-1.464 3.256-1.56 6.122-.1 2.974.268 5.104 1.106 6.39.838 1.286 1.96 1.952 3.366 2 1.03.035 1.935-.335 2.713-1.11.78-.774 1.364-2.025 1.755-3.753zM441.195 5.91l2.042-23.533 14.32 1.242-.346 3.98-10.433-.905-.453 5.217 9.696.84-.344 3.966-9.696-.84-.556 6.404 10.788.936-.344 3.965zM459.202 7.557l3.343-23.384 3.764.538 5.615 16.74 2.232-15.618 3.605.515-3.342 23.385-3.893-.556-5.54-16.353-2.18 15.248zM482.743 11.316l3.863-19.242-5.64-1.132.787-3.918 15.087 3.03-.787 3.917-5.624-1.128-3.864 19.242zM494.713 13.784l6.036-22.838 7.96 2.104c2.035.538 3.435 1.128 4.2 1.77.763.64 1.29 1.54 1.585 2.7.293 1.162.253 2.448-.12 3.86-.473 1.787-1.28 3.112-2.426 3.976-1.146.864-2.545 1.228-4.198 1.09.657.797 1.158 1.61 1.505 2.44.348.83.742 2.26 1.184 4.288l1.098 5.057-4.502-1.19-1.43-5.693c-.512-2.058-.892-3.36-1.127-3.904-.227-.545-.523-.956-.87-1.23-.35-.277-.967-.53-1.835-.76l-.78-.207-2.52 9.534zm7.253-12.182l2.804.74c1.714.454 2.824.666 3.33.64.51-.028.968-.23 1.38-.61.41-.38.717-.95.917-1.71.193-.726.202-1.348.027-1.867-.174-.518-.488-.926-.943-1.224-.322-.206-1.33-.534-3.022-.98l-2.96-.784zM530.077 24.562l-4.023-1.382.143-5.625-7.315-2.512-3.252 4.557-3.932-1.35 14.806-19.892 3.916 1.345zm-3.776-11.18l.334-9.153-5.332 7.436zM532.07 25.433l9.405-21.458 3.572 1.565-7.808 17.813 8.913 3.907-1.598 3.645z"/></g></g></svg>