<svg xmlns="http://www.w3.org/2000/svg" width="600" height="300" viewBox="0 0 1200 600"><title>Flag of Dominica</title><path fill="#006b3f" d="M0 0h1200v600H0z"/><path fill="#FFF" d="M0 325h1200v50H0z"/><path d="M0 275h1200v50H0z"/><path fill="#fcd116" d="M0 225h1200v50H0z"/><path fill="#fcd116" d="M525 0h50v600h-50z"/><path d="M575 0h50v600h-50z"/><path fill="#FFF" d="M625 0h50v600h-50z"/><path d="M749.997 299.998a150 150 0 1 1-299.993 0 150 150 0 1 1 299.993 0z" fill="#d41c30"/><path d="M595.19 181.59c0-.22 4.81-13.72 4.81-13.72l4.37 13.5s14.65.44 14.65.22-11.59 8.85-11.59 8.85 5.47 15.49 5.25 15.05S600 196.2 600 196.2s-12.68 8.85-12.46 8.85 4.81-14.61 4.81-14.61l-11.37-8.63 14.21-.22zM604.81 418.75c0 .22-4.81 13.72-4.81 13.72l-4.37-13.5s-14.65-.44-14.65-.22 11.59-8.85 11.59-8.85-5.47-15.49-5.25-15.05 12.68 9.3 12.68 9.3 12.68-8.86 12.46-8.86-4.81 14.61-4.81 14.61l11.37 8.63-14.21.22zM669.72 215.46c0 .22-4.81 13.72-4.81 13.72l-4.38-13.5s-14.64-.44-14.64-.22 11.58-8.85 11.58-8.85-5.46-15.49-5.24-15.05c.21.44 12.68 9.29 12.68 9.29s12.68-8.85 12.46-8.85-4.81 14.61-4.81 14.61l11.37 8.63-14.21.22zM711.81 338.51c0 .22-4.81 13.72-4.81 13.72l-4.37-13.5s-14.65-.44-14.65-.22 11.59-8.85 11.59-8.85-5.47-15.49-5.25-15.05S707 323.9 707 323.9s12.68-8.85 12.46-8.85c-.21 0-4.81 14.61-4.81 14.61l11.37 8.63-14.21.22zM497.79 342.03c0 .22-4.81 13.71-4.81 13.71l-4.37-13.49s-14.65-.45-14.65-.22c0 .22 11.59-8.86 11.59-8.86s-5.47-15.49-5.25-15.04c.22.44 12.68 9.29 12.68 9.29s12.68-8.85 12.46-8.85-4.81 14.6-4.81 14.6L512 341.8l-14.21.23zM536.65 216.9c0 .22-4.81 13.72-4.81 13.72l-4.38-13.5s-14.64-.44-14.64-.22 11.58-8.85 11.58-8.85-5.46-15.49-5.24-15.05c.21.44 12.68 9.29 12.68 9.29s12.68-8.85 12.46-8.85-4.81 14.61-4.81 14.61l11.37 8.63-14.21.22zM487.32 261.86c0-.22 4.81-13.72 4.81-13.72l4.37 13.5s14.65.44 14.65.22-11.59 8.85-11.59 8.85 5.47 15.49 5.25 15.05-12.68-9.29-12.68-9.29-12.68 8.85-12.46 8.85c.21 0 4.81-14.61 4.81-14.61l-11.37-8.63 14.21-.22zM529.14 384.69c0-.23 4.81-13.72 4.81-13.72l4.37 13.49s14.65.45 14.65.23c0-.23-11.58 8.85-11.58 8.85s5.46 15.49 5.24 15.04c-.22-.44-12.68-9.29-12.68-9.29s-12.68 8.85-12.46 8.85 4.81-14.6 4.81-14.6l-11.37-8.63 14.21-.22zM701.43 258.59c0-.23 4.81-13.72 4.81-13.72l4.37 13.49s14.65.45 14.65.23c0-.23-11.59 8.85-11.59 8.85s5.47 15.49 5.25 15.04c-.22-.44-12.68-9.29-12.68-9.29s-12.68 8.85-12.46 8.85 4.81-14.6 4.81-14.6l-11.37-8.63 14.21-.22zM662.45 383.53c0-.22 4.81-13.72 4.81-13.72l4.37 13.5s14.65.44 14.65.22-11.59 8.85-11.59 8.85 5.47 15.49 5.25 15.05c-.22-.45-12.68-9.3-12.68-9.3s-12.68 8.85-12.46 8.85 4.81-14.6 4.81-14.6l-11.37-8.63 14.21-.22z" stroke="#000" fill="#006b3f"/><g font-size="12" transform="translate(-21.815 423.66) scale(1.2607)"><g transform="matrix(.1635 -.0163 .0118 .1844 429.835 -215.628)" stroke="#000" stroke-width="2.5" fill="#006b3f"><ellipse rx="30.805" ry="189.82" transform="matrix(1.405 -.0058 .0082 1 -534.287 263.723)" cy="586.13" cx="680.21"/><ellipse rx="30.805" ry="189.82" transform="matrix(1.4862 -.0058 .0086 1 -547.218 267.054)" cy="586.13" cx="680.21"/><ellipse rx="30.805" ry="189.82" transform="matrix(1.189 -.0064 .007 1.1052 -364.93 214.098)" cy="586.13" cx="680.21"/></g><g stroke="#000" transform="translate(72.865 -9.797)"><path d="M238.34 971.79c29.97-1.67 16.65-16.65 31.64-24.98 14.98-8.32 36.63-3.33 43.29 6.66s1.67 19.99 9.99 19.99c8.33 0 234.56-12.68 242.88-4.35 8.33 8.32 10 24.97 1.67 31.59-8.33 6.7-294.5 14.4-304.49 7.7-9.99-6.6-24.98-34.94-24.98-36.61z" transform="matrix(.2024 .0035 -.004 .214 340.864 -247.31)" stroke-width="2.505" fill="#9c4a00"/><path d="M529.59 405.46c0 39.98 45.56 27.88 46.81 61.25-.72 35.41-76.71 3.47-78.64-61.25 1.93-64.72 75.11-97.93 76.71-61.01 1.25 30.68-44.88 21.03-44.88 61.01z" transform="matrix(.148 .002 -.0028 .1146 340.422 -81.69)" stroke-width="3.853" fill="#fcd116"/><path d="M529.59 405.46c0 39.98 45.56 27.88 46.81 61.25-.72 35.41-76.71 3.47-78.64-61.25 1.93-64.72 75.11-97.93 76.71-61.01 1.25 30.68-44.88 21.03-44.88 61.01z" transform="matrix(.148 .002 -.0028 .1146 344.42 -81.638)" stroke-width="3.853" fill="#fcd116"/><path d="M529.59 405.46c0 39.98 45.56 27.88 46.81 61.25-.72 35.41-76.71 3.47-78.64-61.25 1.93-64.72 75.11-97.93 76.71-61.01 1.25 30.68-44.88 21.03-44.88 61.01z" transform="matrix(.148 .002 -.0028 .1146 348.71 -81.8)" stroke-width="3.853" fill="#fcd116"/><path d="M529.59 405.46c0 39.98 45.56 27.88 46.81 61.25-.72 35.41-76.71 3.47-78.64-61.25 1.93-64.72 75.11-97.93 76.71-61.01 1.25 30.68-44.88 21.03-44.88 61.01z" transform="matrix(.148 .002 -.0028 .1146 352.707 -81.747)" stroke-width="3.853" fill="#fcd116"/><ellipse rx="3.534" ry="3.403" transform="matrix(1.0945 .0165 -.0243 1.1537 -75.57 4.678)" cy="-41.086" cx="478.38" stroke-width=".399" fill="#9c4a00"/></g><g stroke="#000" stroke-width="2.5" transform="rotate(-5.798 688.33 -625.24)"><ellipse rx="20.814" ry="24.144" transform="matrix(.1662 -.008 .0017 .3152 369.8 -361.654)" cy="905" cx="427.11" fill="#006b3f"/><ellipse rx="20.814" ry="24.144" transform="matrix(.1662 -.008 .0017 .3152 364.04 -362.7)" cy="905" cx="427.11" fill="#006b3f"/><ellipse rx="20.814" ry="24.144" transform="matrix(.1662 -.008 .0017 .3152 360.638 -370.554)" cy="905" cx="427.11" fill="#006b3f"/><ellipse rx="20.814" ry="24.144" transform="matrix(.16 -.009 .0016 .3477 369.3 -399.352)" cy="905" cx="427.11" fill="#006b3f"/><ellipse rx="20.814" ry="24.144" transform="matrix(.16 -.0084 .0016 .326 377.41 -379.072)" cy="905" cx="427.11" fill="#009543"/><ellipse rx="20.814" ry="24.144" transform="matrix(.16 -.0084 .0016 .326 373.222 -382.214)" cy="905" cx="427.11" fill="#009543"/><ellipse rx="20.814" ry="24.144" transform="matrix(.16 -.0084 .0016 .326 367.987 -386.664)" cy="905" cx="427.11" fill="#009543"/><ellipse rx="20.814" ry="24.144" transform="matrix(.16 -.0084 .0016 .326 363.013 -389.543)" cy="905" cx="427.11" fill="#006b3f"/></g><path d="M173.17 346.35s-54.19 64.89-21.25 208.81c33.96 144.59 178.97 189.78 178.97 189.78s26.49-47.42 1.72-164.04c-39.96-169.84-116.14-234.55-116.14-234.55h-43.3z" transform="matrix(.177 .0322 -.0314 .1824 461.788 -208.612)" stroke="#000" stroke-width="2.5" fill="#9461c9"/><g transform="rotate(4.468 180.97 769.882)" stroke="#000" stroke-width="2.5" fill="#006b3f"><ellipse rx="20.814" ry="24.144" transform="matrix(.1662 -.008 .0017 .3152 369.8 -361.654)" cy="905" cx="427.11"/><ellipse rx="20.814" ry="24.144" transform="matrix(.1662 -.008 .0017 .3152 364.04 -362.7)" cy="905" cx="427.11"/><ellipse rx="20.814" ry="24.144" transform="matrix(.1662 -.008 .0017 .3152 360.638 -370.554)" cy="905" cx="427.11"/><ellipse rx="20.814" ry="24.144" transform="matrix(.16 -.009 .0016 .3477 369.3 -399.352)" cy="905" cx="427.11"/><ellipse rx="20.814" ry="24.144" transform="matrix(.16 -.0084 .0016 .326 377.41 -379.072)" cy="905" cx="427.11"/><ellipse rx="20.814" ry="24.144" transform="matrix(.16 -.0084 .0016 .326 373.222 -382.214)" cy="905" cx="427.11"/><ellipse rx="20.814" ry="24.144" transform="matrix(.16 -.0084 .0016 .326 367.987 -386.664)" cy="905" cx="427.11"/><ellipse rx="20.814" ry="24.144" transform="matrix(.16 -.0084 .0016 .326 363.013 -389.543)" cy="905" cx="427.11"/></g><ellipse rx="58.28" ry="186.49" stroke="#000" transform="matrix(.157 -.0606 .0636 .1484 369.613 -145.055)" cy="606.11" cx="624.42" stroke-width="1pt" fill="#d41c30"/><g stroke="#000" transform="rotate(1.02 242.62 -1957.79)"><ellipse rx="10.823" ry="12.905" transform="matrix(.3953 0 0 .2927 445.072 -230.526)" cy="356.75" cx="218.13" stroke-width="1.464" fill="#009543"/><ellipse rx="10.823" ry="12.905" transform="matrix(.354 0 0 .2927 457.174 -235.922)" cy="356.75" cx="218.13" stroke-width="1.546" fill="#009543"/><ellipse rx="10.823" ry="12.905" transform="matrix(.354 0 0 .2927 452.004 -235.922)" cy="356.75" cx="218.13" stroke-width="1.546" fill="#009543"/><ellipse rx="10.823" ry="12.905" transform="matrix(.3706 0 0 .2748 449.48 -233.46)" cy="356.75" cx="218.13" stroke-width="1.56" fill="#006b3f"/><ellipse rx="10.823" ry="12.905" transform="matrix(.3706 0 0 .2748 448.946 -237.932)" cy="356.75" cx="218.13" stroke-width="1.56" fill="#006b3f"/><ellipse rx="10.823" ry="12.905" transform="matrix(.354 0 0 .2927 447.013 -238.852)" cy="356.75" cx="218.13" stroke-width="1.546" fill="#006b3f"/><ellipse rx="10.823" ry="12.905" transform="matrix(.354 0 0 .2867 448.082 -241.577)" cy="356.75" cx="218.13" stroke-width="1.562" fill="#006b3f"/><ellipse rx="10.823" ry="12.905" transform="matrix(.3953 0 0 .2927 432.772 -243.477)" cy="356.75" cx="218.13" stroke-width="1.464" fill="#006b3f"/><ellipse rx="10.823" ry="12.905" transform="matrix(.3706 0 0 .2748 445.916 -243.482)" cy="356.75" cx="218.13" stroke-width="1.56" fill="#006b3f"/><ellipse rx="10.823" ry="12.905" transform="matrix(.354 0 0 .2867 444.16 -246.973)" cy="356.75" cx="218.13" stroke-width="1.562" fill="#006b3f"/><ellipse rx="10.823" ry="12.905" transform="matrix(.354 0 0 .2927 436.14 -243.17)" cy="356.75" cx="218.13" stroke-width="1.546" fill="#006b3f"/><ellipse rx="10.823" ry="12.905" transform="matrix(.354 0 0 .2867 437.42 -243.878)" cy="356.75" cx="218.13" stroke-width="1.562" fill="#006b3f"/><ellipse rx="10.823" ry="12.905" transform="matrix(.354 0 0 .2867 438.99 -247.02)" cy="356.75" cx="218.13" stroke-width="1.562" fill="#006b3f"/></g><g stroke="#000" fill="#006b3f" transform="matrix(.1796 -.0045 .0042 .185 420.986 -216.802)"><ellipse rx="67.438" ry="205.64" transform="matrix(.9757 -.308 .363 .8745 -245.806 324.397)" cy="564.48" cx="528.68" stroke-width="2.545"/><ellipse rx="13.321" ry="40.796" transform="rotate(-23.382 630.514 660.85)" cy="646.07" cx="528.68" stroke-width="2.5"/><path d="M139.87 643.99c0 57.67-18.75 86.17-34.55 110.31 7.52-32.47 12.9-52.63 12.9-110.31S147.8 558.65 158.6 542c-4.18 16.65-18.73 44.31-18.73 101.99z" transform="matrix(1.8828 -.456 .9534 1.1822 -352.255 -10.02)" stroke-width="1.533"/><path d="M139.87 643.99c0 57.67-18.75 86.17-34.55 110.31 7.52-32.47 12.9-52.63 12.9-110.31S147.8 558.65 158.6 542c-4.18 16.65-18.73 44.31-18.73 101.99z" transform="matrix(1.8828 -.456 .9534 1.1822 -348.423 44.058)" stroke-width="1.533"/><path d="M139.87 643.99c0 57.67-18.75 86.17-34.55 110.31 7.52-32.47 12.9-52.63 12.9-110.31S147.8 558.65 158.6 542c-4.18 16.65-18.73 44.31-18.73 101.99z" transform="matrix(1.873 -.4947 .9776 1.1623 -361.924 105.783)" stroke-width="1.533"/><ellipse rx="13.321" ry="40.796" transform="matrix(1.8105 -.4005 .699 1.6353 -915.63 -221.014)" cy="646.07" cx="528.68" stroke-width="1.389"/><ellipse rx="13.321" ry="40.796" transform="matrix(1.6257 -.2307 .5416 1.3528 -739.49 -91.775)" cy="646.07" cx="528.68" stroke-width="1.64"/><ellipse rx="13.321" ry="40.796" transform="matrix(1.6304 -.1972 .5125 1.3635 -750.62 -91.826)" cy="646.07" cx="528.68" stroke-width="1.64"/><ellipse rx="13.321" ry="40.796" transform="matrix(1.3144 -.2006 .469 1.01 -531.056 47.568)" cy="646.07" cx="528.68" stroke-width="2.097"/><ellipse rx="13.321" ry="40.796" transform="matrix(1.3258 -.1304 .4034 1.0327 -517.87 12.21)" cy="646.07" cx="528.68" stroke-width="2.097"/><path d="M145.7 569.47c0 34.01-6.71 61.61-14.99 61.61-8.27 0-14.98-27.6-14.98-61.61" transform="matrix(1.0254 -.4928 .4644 1.1773 12.767 -14.52)" stroke-width="2.086"/><ellipse rx="13.321" ry="40.796" transform="matrix(1.3258 -.1304 .4034 1.0327 -519.534 -34.412)" cy="646.07" cx="528.68" stroke-width="2.097"/><ellipse rx="13.321" ry="40.796" transform="matrix(1.3288 -.105 .3795 1.04 -533.975 -40.12)" cy="646.07" cx="528.68" stroke-width="2.097"/><path d="M145.7 569.47c0 34.01-6.71 61.61-14.99 61.61-8.27 0-14.98-27.6-14.98-61.61" transform="matrix(.6722 -.4718 .459 .799 39.486 143.278)" stroke-width="2.88"/><path d="M145.7 569.47c0 34.01-6.71 61.61-14.99 61.61-8.27 0-14.98-27.6-14.98-61.61" transform="matrix(.6722 -.4718 .459 .799 51.142 125.794)" stroke-width="2.88"/><path d="M145.7 569.47c0 34.01-6.71 61.61-14.99 61.61-8.27 0-14.98-27.6-14.98-61.61" transform="matrix(.9374 -.6447 .64 1.092 -40.198 -10.744)" stroke-width="2.086"/><path d="M145.7 569.47c0 34.01-6.71 61.61-14.99 61.61-8.27 0-14.98-27.6-14.98-61.61" transform="matrix(.6722 -.5202 .459 .881 68.626 71.18)" stroke-width="2.742"/></g><g stroke="#000" stroke-width="2.5" fill="#9461c9"><path d="M276.27 345.41c-12.28 9.17.41 25.14 12.02 30.68 13.06 7.67 86.6 58.18 136.31 12-40.79.83-118.66-63.19-148.33-42.68z" transform="matrix(.156 .0074 -.0042 .2246 457.966 -214.282)"/><path d="M276.27 345.41c-12.28 9.17.41 25.14 12.02 30.68 13.06 7.67 86.6 58.18 136.31 12-40.79.83-118.66-63.19-148.33-42.68z" transform="matrix(.156 .0074 -.0042 .2246 456.573 -220.15)"/><path d="M276.27 345.41c-12.28 9.17.41 25.14 12.02 30.68 13.06 7.67 86.6 58.18 136.31 12-40.79.83-118.66-63.19-148.33-42.68z" transform="matrix(.156 .0074 -.0042 .2246 454.792 -225.775)"/><path d="M276.27 345.41c-12.28 9.17.41 25.14 12.02 30.68 13.06 7.67 86.6 58.18 136.31 12-40.79.83-118.66-63.19-148.33-42.68z" transform="matrix(.156 .0074 -.0042 .2246 450.92 -232.21)"/></g><g transform="rotate(1.02 -589.686 681.566)"><path d="M211.17 247.3c21.77-12.06 56.61-9.75 79.73 11.17 19.36 16.94 45.31 75.19 70.32 92.83-20.22.02-31.3-5.77-42.24-15.18-28.76 15.44-38.12 16.72-63.89 15.63-35.88-1.33-62.46-17.65-68.18-40.6-6.16-21.81 4.93-52.5 24.26-63.85z" transform="matrix(.2088 -.041 .0473 .1806 407.805 -213.636)" stroke="#000" stroke-width="2.5" fill="#9461c9"/><ellipse rx="14.154" ry="14.986" stroke="#000" transform="matrix(.2452 0 0 .1343 401.82 -215.18)" cy="323.04" cx="287.23" stroke-width="2.5" fill="#d41c30"/><ellipse rx="23.254" ry="15.895" stroke="#000" transform="matrix(.1936 -.076 .0676 .1727 398.662 -208.062)" cy="348.26" cx="204.58" stroke-width="2.5" fill="#fcd116"/><ellipse rx="5.828" ry="5.828" transform="matrix(.214 0 0 .1852 411.287 -233.74)" cy="333.86" cx="283.9" stroke-width="1pt"/><path d="M516.8 260.29c4.42 18.11-6.68 43.09-33.14 52.61-26.77 13.18-46.08 41.83-55.64 88.02-47.24-103.27-23.1-148.28 20.6-160.35 37.38-14.36 60.42-13.37 68.18 19.72z" transform="matrix(.0923 .001 -.0034 .0848 417.852 -191.493)" stroke="#000" stroke-width="6.56" fill="#fcd116"/><ellipse rx="4.71" ry="4.71" transform="matrix(.187 -.013 .014 .1914 418.686 -234.977)" cy="362.39" cx="198.98" stroke-width="1pt"/></g></g></svg>