<svg xmlns="http://www.w3.org/2000/svg" height="600" width="900" xmlns:xlink="http://www.w3.org/1999/xlink"><defs><clipPath id="j"><path d="M8633500 5714200c-24600 1540-49320 2310-74220 2310-543320 0-1805300-278760-2291700-696690-509520 386070-1792300 696690-2326800 696690-25070 0-49840-3070-74390-7570-1240 121770 5090 247990 12650 362790 28280 429090 103540 859700 217800 1274000 359680 1304100 1095900 2412400 2151400 3253100 1056400-841400 1793400-1950700 2153900-3255800 114440-414300 189940-844870 218490-1273900 7470-112460 13760-235680 12910-354990z"/></clipPath></defs><path fill-rule="evenodd" d="M0 300h900v300H0z"/><path fill-rule="evenodd" fill="#ce1126" d="M0 0h900v300H0z"/><path fill-rule="evenodd" fill="#fff" d="M0 200h900v200H0z"/><path stroke-linejoin="round" d="M450 393.81c19.943 0 39.024-1.578 50.213-4.734 4.735-.86 4.735-3.298 4.735-6.455 4.736-1.577 2.295-7.17 5.595-7.17-3.3.863-4.016-5.594-8.033-4.73 0-5.598-5.596-6.314-10.33-4.74-9.47 3.16-26.255 3.876-42.18 3.876-15.924-.717-32.567-.717-42.18-3.875-4.733-1.574-10.326-.858-10.326 4.74-4.018-.864-4.736 5.593-8.034 4.73 3.3 0 .86 5.593 5.594 7.17 0 3.158 0 5.597 4.878 6.456 11.045 3.156 30.128 4.734 50.068 4.734z" fill-rule="evenodd" stroke="#c09300" stroke-linecap="round" stroke-width="2.378" fill="#fff"/><path stroke-linejoin="round" d="M450.81 302.4l68.488 63.58-4.876-115.47c-.716-17.5-15.924-13.486-26.97-7.173-11.192 7.172-23.96 7.172-37.447 2.437-13.485 4.735-26.253 4.735-37.444-2.437-11.045-6.313-26.25-10.328-26.97 7.172l-4.878 115.47 70.098-63.58z" fill-rule="evenodd" stroke="#c09300" stroke-linecap="round" stroke-width="1.27" fill="#fff"/><use fill-rule="evenodd" xlink:href="#a" transform="matrix(-1 0 0 1 900 0)" height="600" width="900"/><path d="M453.16 315.06l9.613 43.755-3.158 3.155-3.3-2.44-5.45-39.017 2.294 39.018-3.157 4.017-3.157-4.016 2.296-39.017-5.45 39.018-3.303 2.44-3.155-3.155 9.61-43.755h6.315z" fill-rule="evenodd" stroke="#c09300" stroke-linecap="square" stroke-width="1.074" fill="#c09300"/><path id="b" d="M393.47 246.49l-4.734 112.32-8.035 7.168 4.88-115.47c2.294-1.578 6.313-4.017 7.89-4.017z" fill-rule="evenodd" fill="#c09300"/><path id="c" d="M403.09 254.53l-4.017 93.955-8.032 8.22 4.878-108.49c1.58 1.577 6.314 5.45 7.172 6.31z" fill-rule="evenodd" fill="#c09300"/><path id="d" d="M411.84 261.7l-3.155 78.362-6.455 6.31 4.018-89.406c1.574 1.578 4.73 3.874 5.592 4.734z" fill-rule="evenodd" fill="#c09300"/><path id="e" d="M421.31 265.72l-3.156 66.787-6.313 5.12 3.157-74.345c1.58.717 4.735 2.438 6.313 2.438z" fill-rule="evenodd" fill="#c09300"/><path id="a" d="M430.06 265.72l-2.297 55.657-6.455 6.313 2.44-61.252c1.575 0 5.593 0 6.312-.718z" fill-rule="evenodd" fill="#c09300"/><use fill-rule="evenodd" xlink:href="#b" transform="matrix(-1 0 0 1 900 0)" height="600" width="900"/><use fill-rule="evenodd" xlink:href="#c" transform="matrix(-1 0 0 1 900 0)" height="600" width="900"/><use fill-rule="evenodd" xlink:href="#d" transform="matrix(-1 0 0 1 900 0)" height="600" width="900"/><use fill-rule="evenodd" xlink:href="#e" transform="matrix(-1 0 0 1 900 0)" height="600" width="900"/><path stroke-linejoin="round" d="M428.48 295.84l-19.08 67.705 26.255 4.018 11.188-50.924-18.363-20.8zM471.52 295.84l19.08 67.705-26.253 4.018-11.19-50.924 18.363-20.8z" fill-rule="evenodd" stroke="#c09300" stroke-linecap="round" stroke-width="1.189" fill="#fff"/><use fill-rule="evenodd" xlink:href="#f" transform="matrix(-1 0 0 1 900 0)" height="300" width="218"/><use fill-rule="evenodd" xlink:href="#g" transform="matrix(-1 0 0 1 899.79 0)" height="300" width="218"/><path id="f" stroke-linejoin="round" d="M422.17 318.94l2.296 5.593 12.405-11.848" stroke="#c09300" stroke-linecap="round" stroke-width="1.27" fill="none"/><path id="i" stroke-linejoin="round" d="M430.76 304.92l2.596 24.346 7.89-10.328" stroke="#c09300" stroke-linecap="round" stroke-width="1.27" fill="none"/><path id="k" stroke-linejoin="round" d="M438.09 322.95l4.31 14.875" stroke="#c09300" stroke-linecap="round" stroke-width="1.27" fill="none"/><path id="g" stroke-linejoin="round" d="M444.09 332.36l-8.718 13.24m2.72 13.217l-2.79-13.198-2.437-13.424-5.84 7.91-2.562-9.12-8.174 8.385 4.156 15.252 5.738-9.435 3.155 9.612 5.89-9.163" stroke="#c09300" stroke-linecap="round" stroke-width="1.271" fill="none"/><path id="h" stroke-linejoin="round" d="M414.99 361.97l5.3-7.444 3.452 11.457 4.735-8.032 3.157 9.615" stroke="#c09300" stroke-linecap="round" stroke-width="1.27" fill="none"/><use fill-rule="evenodd" xlink:href="#h" transform="matrix(-1 0 0 1 900.21 0)" height="300" width="218"/><path stroke-linejoin="round" d="M422.89 363.54c6.454.86 13.628 1.578 19.225.86 3.153 0 5.45 5.452-.863 6.314-5.593.715-14.345 0-19.08-.862-4.017-.718-12.768-2.295-18.364-3.876-5.594-2.436-1.576-7.168 1.578-6.452 4.88 1.577 11.192 3.157 17.505 4.016zM477.12 363.54c-6.457.86-13.628 1.578-19.08.86-3.302 0-5.597 5.452.716 6.314 5.596.715 14.347 0 19.078-.862 4.02-.718 12.77-2.295 18.364-3.876 5.597-2.436 1.58-7.168-1.577-6.452-4.877 1.577-11.19 3.157-17.5 4.016z" fill-rule="evenodd" stroke="#c09300" stroke-linecap="round" stroke-width="1.27" fill="#fff"/><path stroke-linejoin="round" d="M403.09 360.39c-4.877-.86-7.172 4.732-5.593 7.887.717-1.578 4.017-1.578 4.735-3.155.858-2.437-.718-2.437.858-4.732zM422.17 375.06c0-3.153 3.155-2.765 3.155-5.921 0-1.578-.86-4.02-2.437-4.02-1.58 0-3.158 1.58-3.158 3.157-.718 3.157 2.44 3.63 2.44 6.783zM444.88 365.98c4.73 0 4.262 6.314 1.966 9.47 0-2.295-4.017-3.156-4.017-4.732 0-2.442 3.625-2.442 2.05-4.738zM496.91 360.39c4.878-.86 7.174 4.732 5.595 7.887-.718-1.578-4.017-1.578-4.734-3.155-.86-2.437.72-2.437-.86-4.732zM477.83 375.06c0-3.153-3.153-2.765-3.153-5.921 0-1.578.86-4.02 2.438-4.02 1.577 0 3.156 1.58 3.156 3.157.72 3.157-2.44 3.63-2.44 6.783zM455.12 365.98c-4.732 0-4.263 6.314-1.967 9.47 0-2.295 4.015-3.156 4.015-4.732 0-2.442-3.626-2.442-2.048-4.738z" fill-rule="evenodd" stroke="#c09300" stroke-linecap="round" stroke-width="1.27" fill="#fff"/><path stroke-linejoin="round" d="M404.67 361.97c1.58 0 4.018.718 4.735 1.577l-4.735-1.577zM412.55 364.41c.862 0 4.018.716 5.596 1.575l-5.596-1.575zM441.25 367.56c-1.578 0-4.734 0-5.593.715l5.593-.715zM432.5 367.56c-.86-.862-4.016-.862-5.593 0h5.593z" stroke="#c09300" stroke-linecap="round" stroke-width=".892" fill="none"/><path stroke-linejoin="round" d="M495.34 361.97c-1.578 0-3.875.718-4.735 1.577l4.735-1.577zM487.45 364.41c-.86 0-4.017.716-5.595 1.575l5.595-1.575zM458.75 367.56c1.58 0 4.735 0 5.595.715l-5.595-.715zM467.5 367.56c.86-.862 4.018-.862 5.595 0H467.5z" fill-rule="evenodd" stroke="#c09300" stroke-linecap="round" stroke-width=".892" fill="#fff"/><use fill-rule="evenodd" xlink:href="#i" transform="matrix(-1 0 0 1 900.15 0)" height="300" width="218"/><path d="M449.98 327.23c32.642-25.106 29.843-61.883 29.843-61.883-.86.172-1.68.258-2.54.258-6.848 0-23.18-3.917-26.99-8.892-4.08 4.503-20.77 8.892-27.573 8.892-.86 0-1.722-.086-2.54-.258 0 0-2.843 36.776 29.8 61.883z" fill-rule="evenodd" stroke="#c09300" stroke-width="1.15" fill="#fff"/><path fill-rule="evenodd" fill="#fff" d="M477.22 268.04c-.28.018-.563.026-.848.026-6.205 0-20.62-3.183-26.175-7.957-5.82 4.41-20.47 7.956-26.576 7.956-.285 0-.568-.035-.848-.086-.015 1.39.058 2.832.144 4.144.323 4.9 1.183 9.82 2.488 14.552 4.108 14.895 12.516 27.553 24.572 37.155 12.066-9.61 20.484-22.28 24.6-37.185 1.308-4.732 2.17-9.65 2.496-14.55.086-1.285.157-2.692.148-4.055z"/><g fill-rule="evenodd" transform="matrix(0 0 0 0 378.62 202.77)" clip-path="url(#j)"><g fill="#c09300"><path d="M3255500 11376000V4258600h2064000v7117400zM7124200 11376000V4258600h2173700v7117400z"/></g></g><use fill-rule="evenodd" xlink:href="#k" transform="matrix(-1 0 0 1 899.69 0)" height="300" width="218"/><path d="M403.34 374.58c-.534-.102-.815-.525-.68-1.025.164-.61.65-.957 1.112-.794.294.105.83.646.832.84.003.222-.28.752-.402.754-.053 0-.135.046-.182.102-.1.118-.413.175-.68.124zm54.926 3.923c-.2-.074-.515-.518-.515-.724.003-.388.575-1.02.93-1.022.175 0 .655.248.834.434.325.338.254.893-.154 1.208-.2.155-.8.212-1.094.103zm.363 2.48c-.42-.142-.574-.348-.61-.814-.034-.486.013-.562.526-.84l.365-.2.348.154c.48.214.693.444.71.767.018.35-.24.705-.64.884-.35.158-.372.16-.7.05zm-54.26-3.066c.256-.222.262-.448.012-.554-.158-.068-.25-.052-.56.097-.314.15-.37.206-.353.357.018.172.152.23.62.27.04.003.167-.073.28-.17zm8.43 4.402c-.226-.077-.784-.21-1.24-.3-1.05-.2-2.68-.568-3.122-.703-.186-.057-.525-.144-.752-.195-.418-.093-.632-.156-1.317-.386-.208-.07-.716-.21-1.13-.31-.413-.103-.896-.246-1.074-.32-.177-.073-.386-.132-.465-.13-.078 0-.255-.06-.393-.133-.137-.074-.466-.154-.73-.178-.555-.05-.968-.246-1.203-.567-.2-.274-.204-.487-.02-.864.078-.16.142-.346.143-.416 0-.07.068-.183.15-.25.082-.07.148-.158.148-.196 0-.085.348-.59.554-.804.27-.28.828-.548 1.144-.55.186-.004.35-.053.43-.132.09-.087.292-.14.653-.168l.523-.042.204-.362c.112-.2.206-.46.207-.578.003-.12.056-.313.12-.432.062-.12.16-.412.214-.65.21-.903.36-1.405.45-1.493.13-.126.118-.182-.108-.46-.122-.15-.263-.244-.366-.243-.25.003-.66.15-.79.286-.256.27-.596.448-.855.45-.356.004-.814-.25-.985-.547-.134-.233-.133-.247.023-.563.1-.207.234-.353.365-.403.31-.12 1.104-.06 1.288.097.13.11.226.12.64.074.27-.03.507-.08.527-.112.02-.033.186-.082.368-.11s.35-.096.37-.152c.023-.056.16-.124.304-.15.145-.03.302-.097.35-.153.046-.055.18-.102.298-.103.165 0 .243.05.342.228.112.204.116.287.037.702-.05.26-.152.592-.227.74-.075.147-.135.394-.134.548 0 .176-.052.342-.146.447-.08.092-.147.24-.146.332 0 .09-.05.214-.113.276-.063.062-.15.316-.192.565-.043.25-.12.518-.17.597-.05.08-.112.297-.137.482-.025.185-.095.376-.154.424-.06.05-.107.192-.105.317 0 .125-.06.347-.135.493-.075.145-.158.436-.185.647-.026.21-.09.447-.143.527-.053.08-.118.307-.146.506-.028.198-.1.435-.158.526-.098.15-.094.185.044.366.222.293.874.504 1.537.497.517-.004.545-.015.73-.243.112-.137.214-.38.243-.578.027-.19.097-.433.154-.542.058-.11.104-.383.102-.608-.005-.38-.024-.423-.274-.616-.248-.192-.26-.222-.18-.4.084-.18.425-.337.747-.342.067 0 .2-.062.298-.137.1-.075.252-.16.34-.187.09-.027.29-.165.447-.305.327-.294.53-.3.695-.024.104.173.103.227-.01.54-.07.19-.124.49-.122.666.002.175-.043.37-.1.433-.056.062-.135.26-.176.438-.04.18-.125.455-.186.614-.06.16-.112.42-.112.58 0 .16-.066.418-.147.575-.213.41-.187.66.083.78.062.028.198.097.3.154.105.057.325.103.49.102.165 0 .446.062.625.138.178.075.538.156.8.18.464.04.478.036.685-.192.13-.143.247-.39.304-.642.05-.225.11-.482.135-.57.07-.275-.048-.636-.282-.852-.412-.38-.24-.89.3-.896.233-.003.866-.255 1.033-.413.452-.426.733-.538 1.01-.4.217.11.287.407.15.647-.055.1-.147.376-.203.614-.055.238-.168.663-.25.944-.08.28-.2.768-.263 1.083-.064.314-.18.764-.255 1-.077.234-.14.487-.14.563.002.075-.068.3-.154.497-.25.578-.624.69-1.407.426zm-9.676.037c-.496-.467-.416-.807.317-1.354.315-.234.506-.207.865.12.552.504.574.823.086 1.255-.24.214-.345.257-.626.26-.293.003-.376-.033-.64-.28zm3.048.926c-.485-.12-.764-.608-.623-1.088.128-.434.202-.477.84-.483.715-.007.853.112.86.742.004.354-.023.436-.2.6-.207.193-.605.296-.878.23zm89.107.078c-.228-.188-.274-.273-.276-.514-.003-.41.233-.712.746-.944.682-.31.96-.266 1.216.186.342.6.325.847-.084 1.252-.225.224-.268.237-.784.242-.508.003-.566-.01-.82-.22zm-85.06 1.15c-.363-.097-.55-.37-.556-.807-.004-.334.02-.387.253-.57.152-.118.39-.22.58-.245.266-.037.363-.013.578.138.55.387.668.77.35 1.14-.34.397-.663.488-1.204.344zm21.92.983l-.28-.242.037-.6c.02-.332.087-.733.148-.892.06-.16.11-.523.107-.81-.002-.284.045-.657.103-.828.058-.17.154-.805.213-1.41.06-.607.138-1.185.177-1.285.04-.1.068-.368.066-.593-.002-.225.057-.622.13-.88.087-.302.136-.72.135-1.154 0-.375.033-.795.074-.934s.075-.328.074-.42c-.002-.18.256-.592.37-.593.036 0 .188.174.338.386.15.21.45.55.668.75.96.888.918.81.606 1.104-.114.107-.242.196-.283.196-.042 0-.166.092-.275.205-.166.17-.2.272-.2.597.002.215-.05.522-.113.68-.104.263-.21 1.236-.25 2.27-.007.22-.045.446-.084.506-.037.06-.083.58-.1 1.156-.018.576-.064 1.094-.102 1.152-.038.058-.07.236-.074.394-.01.586-.14 1.116-.316 1.3-.138.144-.247.182-.53.184-.303.003-.402-.034-.64-.237zm29.05-.664l.392-.117-.026-.374-.027-.375-.313-.018c-.26-.016-.344.015-.507.185-.288.302-.32.52-.1.68.098.07.182.13.185.13.003.002.18-.05.396-.113zm-2.277 1.553c-.157-.217-.164-.267-.092-.665.044-.237.083-.64.09-.898.003-.258.047-.54.095-.626.048-.087.086-.268.085-.4-.003-.188.064-.307.294-.527.163-.156.296-.32.296-.362 0-.094.585-.547.708-.548.048 0 .148-.066.222-.146.074-.08.225-.146.336-.147.11 0 .29-.076.4-.168.184-.156.196-.204.19-.79-.004-.38-.055-.757-.128-.957-.067-.18-.114-.4-.105-.487.008-.086-.014-.496-.05-.912-.06-.673-.088-.777-.263-.95-.108-.11-.238-.197-.29-.196-.094 0-.447-.412-.398-.465.517-.552 1.437-1.42 1.54-1.452.21-.067.53.076.61.275.04.097.096.527.124.954.03.427.087.97.13 1.208.042.237.116.98.164 1.654.05.673.122 1.336.163 1.474.04.14.1.754.135 1.367.033.613.094 1.24.136 1.393.144.526.748.84 1.177.615.072-.038.393-.11.714-.162.746-.12.76-.143.693-1.207-.046-.738-.07-.84-.25-1.063-.11-.135-.283-.265-.386-.29-.205-.046-.334-.22-.336-.455 0-.166.386-.554.63-.63.082-.024.305-.173.495-.328.423-.346.702-.372.966-.09.17.182.187.276.244 1.24.043.745.096 1.105.183 1.258.09.157.125.413.13.944.004.497.048.815.13.997.106.235.107.294.014.494-.06.124-.128.298-.154.385-.06.2-.175.235-.865.253-.31.01-.697.052-.86.097-.166.046-.604.09-.975.1-1.584.04-3.747.222-3.865.326-.088.078-.34.106-1.01.113l-.895.008-.17-.235zm-33.776-5.944c.198-.137.214-.323.03-.37-.23-.057-.417-.377-.433-.74-.03-.655-.335-.693-.905-.11-.165.166-.416.392-.557.5l-.258.197.187.19c.314.315.664.44 1.242.443.367.002.578-.032.693-.11zm2.326 7.13c-.114-.037-.208-.093-.208-.122 0-.07-.71-.503-.82-.502-.046 0-.102-.088-.127-.197-.024-.11-.114-.41-.2-.67-.15-.456-.15-.806.006-.9.112-.068.07-.29-.077-.417-.09-.076-.326-.13-.658-.153-.706-.046-.787-.067-1.035-.274-.177-.148-.228-.264-.282-.65-.038-.276-.12-.527-.198-.608-.137-.142-.37-.18-.44-.07-.022.034-.142.083-.267.108-.152.03-.25.108-.3.233-.038.102-.158.3-.264.436-.185.238-.215.25-.675.253-.265.002-.594-.04-.732-.093-.295-.115-.62-.165-1.436-.22-1.17-.08-1.71.007-1.8.29-.125.393-1.07 1.2-1.482 1.268-.165.027-.446.097-.623.155-.178.058-.356.087-.396.064-.04-.024-.434-.087-.876-.14-.836-.104-1.144-.245-1.147-.525-.002-.17.51-.43.708-.357.213.078.564.074.563-.007 0-.037.182-.105.405-.152.223-.047.446-.132.495-.19.048-.057.186-.106.306-.107.177 0 .258-.065.437-.343.122-.187.22-.385.22-.44 0-.056.065-.184.146-.285.088-.11.147-.295.145-.455 0-.148.05-.412.11-.586.107-.298.103-.346-.06-.82-.094-.275-.213-.525-.265-.555-.052-.03-.135-.167-.184-.306-.13-.368.01-.696.542-1.264.056-.06.124-.215.152-.344.052-.244.22-.38.474-.382.187-.003.54.386.543.596.002.087.058.232.125.32.073.1.15.425.192.825.074.685.194 1.388.285 1.657.076.23.485.546.706.547.106 0 .395.045.644.1.248.055.645.098.884.097.43-.002.434-.002.876-.447.244-.244.442-.48.44-.526-.01-.288-.977-.807-1.754-.943-.272-.048-.463-.38-.404-.703.05-.272.413-.748.766-1.003.135-.097.583-.27.996-.387l.75-.21.208-.404c.395-.77 1.226-1.38 1.89-1.388.333-.003.403.035.67.365.072.092.21.263.306.38.295.364.46.794.416 1.076-.04.263.072.683.184.682.103 0 1.197 1.063 1.25 1.216.025.076.076.14.113.138.093 0 .228.48.232.828.006.515-.11.592-.91.606-.382.007-.847.058-1.032.113l-.336.1-.018.4c-.025.54.11.69.7.775.244.035.48.097.522.137.043.04.165.072.273.07.108 0 .262.045.342.1.132.09.148.194.157 1.025l.01.923.245.073c.133.04.284.112.334.16.178.166.413.095.507-.154.05-.13.118-.3.153-.38.035-.08.094-.565.132-1.08.038-.516.115-1.067.17-1.226.058-.16.137-.677.178-1.15.04-.474.112-.905.158-.96.047-.055.1-.506.118-1.023.027-.74.06-.954.163-1.066.11-.118.13-.283.12-1.034l-.01-.894-.3-.25c-.202-.166-.303-.31-.304-.43-.002-.26.068-.335.444-.472l.634-.232c.164-.06.332-.148.374-.196.13-.15.546-.415.654-.417.058 0 .16.058.23.13.16.167.176.85.024 1.138-.065.123-.107.403-.105.685.004.262-.045.62-.108.793-.065.18-.147.838-.193 1.54-.044.675-.12 1.297-.168 1.384-.05.087-.087.38-.085.65.002.27-.045.765-.105 1.103-.06.337-.14.903-.178 1.258-.038.355-.116.757-.173.894s-.123.478-.147.76c-.023.282-.104.627-.18.765-.073.14-.134.31-.133.38.002.18-.386.848-.494.85-.05 0-.125.064-.165.138-.04.074-.175.156-.3.18-.126.027-.32.11-.432.188-.24.166-.94.252-1.235.153zm63.1-5.673c.465-.2.596-.445.414-.774-.156-.284-.385-.395-.757-.37-.432.027-.786.31-.782.627.003.204.053.277.323.454.178.117.347.214.378.217.03.004.222-.065.426-.153zm-5.985.055c.32-.148.358-.19.36-.404 0-.325-.298-.71-.736-.952-.465-.257-.632-.252-.84.022-.16.215-.162.233-.045.554.067.182.123.38.123.44 0 .142.455.502.636.504.08 0 .304-.073.5-.164zm-2.667.253c.028-.123.024-.403-.007-.622-.044-.315-.104-.438-.284-.593-.272-.232-.412-.21-.733.114-.207.21-.237.292-.244.67-.013.59.07.667.71.66.508-.003.51-.003.558-.23zm-5.956 1.114c.258-.132.32-.276.254-.594-.1-.48-.702-.62-.994-.233-.09.118-.16.244-.16.28 0 .037-.05.107-.11.156-.087.07-.092.12-.024.242.048.085.124.177.17.206.14.088.64.054.864-.06zm9.48.855c.21-.162.228-.39.042-.553-.217-.19-.616-.188-1.025.007-.242.115-.31.188-.31.33.002.12.06.2.172.243.254.095.987.077 1.122-.027zm-11.628 3.47c-.086-.08-.06-.433.038-.51.05-.04.177-.098.28-.128.103-.03.237-.097.298-.15.062-.05.28-.118.486-.15.74-.108 1.385-.695 1.387-1.26.003-.157-.022-.32-.05-.363-.085-.128-1.38-.05-2.082.125-.166.04-.248.007-.452-.183l-.248-.234-.035-1.06-.036-1.06.325-.356c.178-.197.404-.486.5-.643.1-.157.2-.295.227-.307.027-.012.18-.137.338-.278.314-.28.83-.563 1.18-.648.12-.03.256-.1.3-.16.042-.058.176-.114.295-.124.184-.015.25.03.428.304.116.177.216.42.223.538.005.12.062.345.124.503.062.157.137.473.165.7.03.228.09.458.137.512.114.133 1.02.196 1.178.082.088-.064.127-.257.15-.744.02-.377.082-.754.147-.883.062-.124.135-.33.162-.46.072-.354.664-1.172 1.018-1.408.17-.115.354-.247.405-.295.052-.047.17-.11.26-.138.225-.07.278-.163.276-.482-.003-.275-.23-.59-.704-.972-.115-.093-.21-.225-.21-.295-.003-.203.218-.59.563-.993.176-.206.322-.402.324-.435 0-.033.12-.133.26-.223.205-.128.3-.15.448-.097.2.07.257.17.442.787.245.815.302 1.053.362 1.514.034.26.085.51.113.55.027.044.36.145.736.226.377.08.757.19.845.242.09.052.246.118.348.147.257.07.605.32.607.435 0 .052.03.094.063.094.08 0 .46.548.807 1.172.39.703.368.687.992.68.503-.002.56-.02.7-.196.085-.105.154-.28.152-.388-.004-.225.19-.49.66-.906l.49-.437c.29-.264.622-.474.75-.476.068 0 .44.127.823.284.57.233.74.34.91.57.37.504 1.163.71 1.556.408.103-.08.225-.146.27-.146.045 0 .08-.05.08-.11 0-.153-.307-.984-.4-1.09-.042-.048-.112-.34-.155-.646-.043-.307-.148-.704-.232-.882-.104-.217-.17-.547-.202-1.005-.025-.375-.113-.922-.195-1.216-.08-.294-.15-.625-.15-.736-.007-.53-.457-1.23-.916-1.42-.104-.042-.274-.123-.378-.18-.27-.146-.628-.125-.787.047-.074.08-.205.146-.29.147-.16 0-.64.39-.64.514 0 .038-.11.07-.246.07-.202.004-.292-.052-.49-.295-.136-.165-.246-.334-.247-.376 0-.042-.138-.19-.303-.326-.246-.202-.302-.295-.305-.506-.003-.206.034-.275.183-.342.103-.046.186-.116.186-.155 0-.038.125-.092.28-.12.154-.026.55-.118.88-.203.827-.215 2.318-.227 2.68-.022.135.075.33.156.437.178.247.053.897.653 1.03.95.057.126.134.247.173.27.038.02.095.177.125.345.03.167.1.4.157.52.085.176.197.917.312 2.05.02.2.172.894.29 1.328.044.158.13.524.19.815.06.29.163.583.228.65.065.07.12.182.12.252.003.28.78.753 1.23.75.393-.004.98-.27 1.35-.61.21-.192.46-.37.56-.396.202-.05.53.105.648.307.143.247.38.464.693.64.34.186.462.435.333.672-.044.08-.137.145-.207.146-.07 0-.31.084-.528.185-.22.1-.462.184-.54.185-.075 0-.5.118-.945.26-.443.144-1.227.348-1.742.455-.91.188-2.13.527-2.28.632-.04.03-.21.076-.374.105-.51.09-.554.116-.602.378-.06.323-.747 1.04-1.255 1.31-.352.19-.424.2-1.3.2-.512-.004-.99-.02-1.065-.042-.074-.02-.158-.134-.186-.25-.028-.117-.152-.28-.278-.364-.24-.16-.512-.155-1.124.02l-.272.077-.045.71c-.025.39-.09.788-.145.882-.055.094-.132.237-.172.316-.04.08-.243.293-.453.473-.21.18-.517.452-.68.602-.338.31-.63.357-.832.134-.075-.082-.223-.142-.348-.14-.252.003-.835-.237-1.202-.493-.225-.158-.697-.927-.7-1.14 0-.043-.068-.14-.152-.22-.12-.112-.248-.14-.62-.133-.257.004-.62.04-.805.082-.185.04-.636.11-1.002.154s-.774.124-.906.18c-.132.053-.383.123-.56.153-.46.078-.6.247-.594.716.003.25-.034.42-.102.474-.06.048-.127.18-.15.29-.064.29-.678.886-1.115 1.082-.206.09-.498.23-.65.31-.228.12-.426.146-1.13.153-.47.003-.876-.013-.904-.04zm-5.95.648l-.172-.115.15-.208c.083-.114.276-.248.43-.298.523-.17.875-.385 1.302-.79.235-.223.427-.46.426-.528 0-.067.09-.23.202-.36.195-.228.203-.27.19-.998-.017-.743-.055-.9-.333-1.33-.132-.204-.58-.528-1.035-.75-.303-.147-.41-.447-.255-.702.066-.107.273-.504.46-.882.19-.378.383-.77.433-.868.135-.273.47-.287.698-.03.215.24.56.853.563.992 0 .055.066.157.145.227.172.15.54.785.543.93 0 .057.09.246.2.42.135.216.2.424.204.658.005.19.06.465.12.612.182.43.123 1.867-.09 2.27-.09.17-.19.308-.22.31-.03 0-.154.134-.276.296-.233.31-1.027.867-1.237.87-.067 0-.17.074-.232.164-.103.152-.17.165-1.076.195-.8.027-.995.013-1.137-.084zm-6.847.448c-.243-.25-.296-.355-.3-.6-.002-.247.046-.345.284-.585.438-.443.652-.454 1.41-.07.722.365.966.398 1.03.14.063-.25.48-.48.875-.482.25-.002.39.048.59.204.252.196.265.226.27.68.005.462 0 .48-.29.735-.277.244-.32.26-.665.225-.437-.044-.7-.244-.77-.588-.052-.25-.14-.31-.206-.14-.022.054-.13.12-.24.15-.203.05-.55.267-.794.5-.093.086-.255.127-.52.13-.354.003-.404-.018-.677-.3zm-6.31-3.894c.166-.063.2-.112.165-.23-.026-.083-.084-.305-.13-.492-.072-.294-.11-.34-.268-.34-.17 0-.49.182-.78.44-.142.128-.23.44-.153.544.17.23.672.264 1.166.078zm-5.79 2.176c.165-.126.17-.16.162-1.482l-.007-1.354-.202-.176c-.194-.17-.264-.18-1.645-.233-.793-.03-1.573-.097-1.732-.147-.208-.065-.395-.07-.668-.02-.247.045-.54.044-.843-.003-1.122-.176-1.868-.036-2.14.4-.126.207-.127.23-.005.424.07.114.214.22.318.238.103.018.345.08.537.136.213.063.667.102 1.164.1.447 0 1.202.023 1.677.053s1.134.06 1.466.07c.433.01.664.05.817.145l.214.132-.044.696c-.042.667-.037.702.13.845.203.172.444.306.553.306.04 0 .152-.057.245-.128zm-.636 2.305c0-.035-.187-.15-.416-.253-.442-.203-.82-.51-1.052-.85-.16-.24-.35-.845-.355-1.136 0-.144-.047-.206-.17-.233-.51-.112-1.807-.254-2.76-.302-.6-.03-1.72-.118-2.492-.194-1.675-.167-2.315-.143-2.538.092-.085.09-.19.267-.235.395-.044.128-.208.403-.364.61-.154.21-.28.412-.28.454 0 .042-.034.076-.075.077-.04 0-.136.058-.21.128-.19.18-.576.445-.775.534-.093.04-.253.122-.356.18-.27.153-2.145.17-2.447.023-.12-.058-.32-.104-.446-.103-.125 0-.293-.043-.373-.098-.12-.082-.133-.134-.072-.304.086-.245.337-.307 1.306-.323.54-.01.697-.04 1.01-.203.378-.195 1.02-.666 1.07-.783.015-.036.09-.117.166-.182.077-.064.16-.23.185-.37.026-.14.11-.383.19-.54.167-.326.147-.524-.136-1.336-.292-.836-.396-1.02-.728-1.302-.42-.354-.41-.52.06-.998.204-.208.492-.556.638-.773.238-.353.29-.392.5-.375.2.017.265.077.448.414.282.517.668 1.414.67 1.552 0 .06.05.212.11.336.06.124.148.344.196.49.12.356.187.393.808.445.652.055.66.046.717-.83.022-.333.073-.64.115-.68.042-.04.075-.138.074-.216-.002-.175-.376-1.203-.47-1.297-.128-.125-.076-.49.113-.81.103-.17.214-.313.248-.313s.19-.086.346-.19c.39-.26.975-.324 1.226-.133.163.123.188.21.225.773.038.573.062.65.24.8.11.09.28.163.38.163.1 0 .243.053.318.116.113.097.377.118 1.582.127 1.666.013 2.597.057 2.715.13.046.027.336.05.645.047.31-.003.985.02 1.5.05.903.052.946.062 1.165.27l.228.213.017.958c.02 1.107.084 1.25.567 1.244.425-.003.544-.134.578-.625.016-.234.072-.46.125-.5.053-.043.146-.195.207-.34.127-.3.65-.826.892-.9.088-.026.228-.106.31-.177.08-.07.25-.147.373-.17.54-.102 1.133-.302 1.274-.428.097-.088.278-.144.5-.154.288-.012.378.015.503.157.18.202.212.358.283 1.346.03.408.09.828.136.934.045.106.102.613.127 1.128l.044.936-.233.308-.234.308-2.426.02c-1.334.012-2.543.044-2.685.07-.282.055-.35.202-.343.756.002.172-.05.313-.14.394-.078.07-.16.203-.185.298-.045.18-.542.556-.862.653-.102.03-.237.096-.298.145-.176.14-.74.406-.86.408-.06 0-.11-.028-.11-.063z" fill-rule="evenodd" fill="#c09300"/><g fill-rule="evenodd"><path d="M462.31 253.095c.668.04-.9-3.568-.9-3.568 1.764 1.803 8.43 2.235 8.43 2.235-4-1.766-8-15.096-7.53-25.722.433-10.664-1.527-14.86-3.096-16.427-2-2-8.43-3.764-12.663-4-2.392-.117-2 1.804-2 1.804-4.43-1.137-8.86-1.568-10.86-.235-1.882 1.255-2.274 7.528-.902 6.43 3.333-2.666 6.234-.235 8.234 2.666 1.764 2.55 1.646 9.763-.902 18.192-2.666 8.86-9.96 17.723-9.96 17.723 3.96 0 9.53-3.53 9.53-3.53l-1.334 5.53c4.195-2 7.527-5.098 7.527-5.098l4 4.195c1.333-1.764 4-4.195 4-4.195s3.33 3.53 8.428 4z" stroke="#c09300" stroke-width="1.0885" fill="#fff"/><path d="M446.12 227.57s-2.236 16.428-6.43 21.094M449.648 227.14s-.863 16.622-3.764 21.955M452.784 227.805s0 18.193 1.098 21.29M456.745 228.707s.902 15.29 4.666 20.82" stroke="#c09300" stroke-width="1.1354000000000002" fill="none"/><path d="M442.08 219.612c-.195-1.45-.548-2.588-1.058-3.333-2-2.902-4.9-5.333-8.234-2.667 0 0 1.137-3.53 3.568-3.646 1.882-.118 6.156 1.41 9.92 7.84 0 0-2.784-.626-3.45-.038-1.255 1.097-.745 1.842-.745 1.842z" stroke="#c09300" stroke-width=".31655000000000005" fill="#c09300"/><path d="M432.436 209.26c.274-.9.705-1.725 1.254-2.078 2-1.333 6.43-.9 10.86.236 0 0-.39-1.92 2-1.804 4.235.235 10.665 2 12.664 4 .47.51 1.02 1.254 1.49 2.39h-.078c-.98-1.37-3.764-1.293-4.43-1.214-1.06.117-1.726.078-3.138.43-.666.158-1.686.354-2.235.785-.43.353-.784 1.647-1.45 1.647-1.06 0-.98-.275-1.255-.588-.353-.432-.55-1.06-.902-1.02-1.098.196-2.862-.666-5.097-2.43-2.235-1.765-3.098-2.196-6-2-2.86.235-3.763 1.842-3.763 1.842l.078-.196z" stroke="#c09300" stroke-width=".31655000000000005" fill="#c09300"/><path fill="#fff" d="M448.824 211.848c.667 0 1.176-.51 1.176-1.176 0-.667-.51-1.176-1.176-1.176-.627 0-1.176.51-1.176 1.176 0 .666.55 1.176 1.176 1.176z"/></g><path d="M477.22 268.04c-.28.018-.563.026-.848.026-6.205 0-20.62-3.183-26.175-7.957-5.82 4.41-20.47 7.956-26.576 7.956-.285 0-.568-.035-.848-.086-.015 1.39.058 2.832.144 4.144.323 4.9 1.183 9.82 2.488 14.552 4.108 14.895 12.516 27.553 24.572 37.155 12.066-9.61 20.484-22.28 24.6-37.185 1.308-4.732 2.17-9.65 2.496-14.55.086-1.285.157-2.692.148-4.055z" stroke="#c09300" stroke-width=".916" fill="none"/></svg>