<svg xmlns="http://www.w3.org/2000/svg" width="1200" height="600"><path fill="#da121a" d="M0 0h1200v600H0z"/><path fill="#fcdd09" d="M0 0h1200v400H0z"/><path fill="#078930" d="M0 0h1200v200H0z"/><circle fill="#0f47af" cx="600" cy="300" r="200"/><path d="M447.83 249.935H564.08l26.284-80.893 7.01 21.574-38.196 117.555-11.343-8.24 11.913-36.66h-93.563l-18.352-13.335m58.124 178.886l35.923-110.556-68.812-49.995h22.684l99.997 72.652-11.342 8.24-31.186-22.658-28.914 88.983-18.352 13.334m188.092 0L600 360.494l-68.812 49.994 7.01-21.573 99.998-72.653 4.332 13.334-31.186 22.658 75.694 54.995 7.01 21.574m58.123-178.885l-94.047 68.33 26.284 80.892-18.352-13.334L627.86 268.27h14.02l11.91 36.66 75.695-54.995h22.684M600 139.378l35.922 110.557h85.056l-18.35 13.334H579.02l4.333-13.335h38.548l-28.913-88.983 7.01-21.574z" fill="#fcdd09"/><path d="M600 373.333V460m-69.744-137.34l-82.425 26.782m109.066-108.77l-50.94-70.115m137.15 70.115l50.94-70.115M669.744 322.66l82.425 26.782-82.426-26.78z" stroke="#fcdd09" stroke-width="6.667"/></svg>