<svg xmlns="http://www.w3.org/2000/svg" xmlns:xlink="http://www.w3.org/1999/xlink" width="750" height="450" viewBox="0 0 250 150"><clipPath id="d"><circle r="25"/></clipPath><path fill="#e8112d" d="M0 0h250v150H0z"/><g transform="translate(125 75)"><g id="c" transform="scale(.25)"><g id="b"><path id="a" d="M-8.4 108C0 130-18 164 0 180c-6-24 14-50 8.4-72s-25.2-22-16.8 0z" fill="#ffef00"/><use xlink:href="#a" transform="rotate(90)"/><use xlink:href="#a" transform="rotate(180)"/><use xlink:href="#a" transform="rotate(270)"/></g><use xlink:href="#b" transform="rotate(18)"/><use xlink:href="#b" transform="rotate(36)"/><use xlink:href="#b" transform="rotate(54)"/><use xlink:href="#b" transform="rotate(72)"/></g><use xlink:href="#c" transform="rotate(9)"/><circle r="27" fill="#e8112d"/><circle cy="-1.5" r="22.5" fill="#ffef00"/><g id="e" fill="#e8112d" clip-path="url(#d)"><path d="M-20.125 18a34.825 34.825 0 1 1 69.65 0h.96a33.986 33.986 0 1 0-67.97 0z"/><path d="M-15.773 18a33.473 33.473 0 1 1 66.946 0h1.102a32.775 32.775 0 1 0-65.55 0z"/><path d="M20.7-14.36a32.36 32.36 0 1 0 0 64.72l1.8-.54a31.82 31.82 0 1 1 0-63.64z"/></g><use xlink:href="#e" transform="scale(-1 1)"/></g></svg>