<svg xmlns="http://www.w3.org/2000/svg" width="800" height="512"><path d="M0 128h800v256H0z" fill="#e00025"/><path d="M0 0h800v128H0zM0 384h800v128H0z" fill="#032ea1"/><g stroke="#000"><path d="M396.986 155.986s-.184-5.264 2.88-5.322c3.067.058 2.882 5.322 2.882 5.322zM523.665 293.6v-26.264c.858-3.332 3.686-6.28 5.813-6.87v-24.63c-3.216 0-4.79 4.19-4.79 4.19l-5.467 24.077v29.295z" fill="#fff" stroke-width=".96"/><path d="M475.945 241.317h-7.883v16.71h7.883z" fill="#fff" stroke-width="1.0336" stroke-linecap="square" stroke-linejoin="bevel"/><path d="M327.895 241.317H473.56v56.05H327.894z" fill="#fff" stroke-width=".96" stroke-linejoin="bevel"/><path d="M276.58 293.5v-26.164c-.858-3.332-3.686-6.28-5.813-6.87v-23.03l4.79 2.59 5.467 24.077V293.5z" fill="#fff" stroke-width=".96"/><path d="M276.58 293.6v-26.264c-.858-3.332-3.686-6.28-5.813-6.87v-24.63c3.215 0 4.79 4.19 4.79 4.19l5.467 24.077v29.295z" fill="#fff" stroke-width=".96"/><path d="M270.915 300.307c2.253-1.148 4.823-3.82 5.664-6.808h247.135c.84 2.988 3.41 5.66 5.664 6.807z" fill="#fff" stroke-width=".96"/><path fill="#fff" stroke-width=".96" stroke-linecap="square" stroke-linejoin="bevel" d="M466.033 272.26h4.59v21.113h-4.59z"/><path fill="#fff" stroke-width=".96" stroke-linejoin="bevel" d="M327.895 261.83H473.56v6.515H327.894zM327.895 253H473.56v5.745H327.894z"/><path fill="#fff" stroke-width=".9456" stroke-linejoin="bevel" d="M327.895 244.18H473.56v5.572H327.894z"/><path d="M475.945 241.317h-7.883v16.71h7.883z" fill="#fff" stroke-width="1.0336" stroke-linecap="square" stroke-linejoin="bevel"/><path d="M526.858 300.307c-2.214-1-5.44-3.736-5.44-6.49v-32.7l1.52-2.7h-55.71l2.174 2.7v32.7c0 2.754-2.214 5.49-4.43 6.49z" fill="#fff" stroke-width=".96"/><path fill="#fff" stroke-width=".96" stroke-linecap="square" stroke-linejoin="bevel" d="M366.233 272.26h4.59v21.113h-4.59zM428.946 272.26h4.59v21.113h-4.59z"/><path d="M436.624 300.307c-2.594-1-6.37-3.736-6.37-6.49v-31.1l3.376-4.3h-67.553l3.238 4.3v31.1c0 2.754-2.594 5.49-5.188 6.49z" fill="#fff" stroke-width=".96"/><path fill="#fff" stroke-width=".96" stroke-linecap="square" stroke-linejoin="bevel" d="M378.09 272.26h4.59v21.113h-4.59zM416.893 272.26h4.59v21.113h-4.59z"/><path d="M364.868 223.025v35.4h69.15V250.8l.1-27.775c-2.83 1.11-3.325 3.675-3.325 3.675v15.075h-62.4V226.7s-.697-2.564-3.525-3.675z" fill="#fff" stroke-width=".96"/><path d="M424.635 300.307c-2.26-1-7.183-3.736-7.183-6.49v-34.805c.483-1.943 3.118-3.09 4.814-4.3h-45.853c2.182 1.156 4.615 2.116 5.484 4.3v34.806c0 2.753-3.892 5.49-6.152 6.49z" fill="#fff" stroke-width=".96"/><path d="M430.786 255.086v-25.072H424.5v-2.443h-49.714v2.444H368.5v25.072z" fill="#fff" stroke-width=".96"/><path fill="#fff" stroke-width=".96" stroke-linecap="square" stroke-linejoin="bevel" d="M329.045 272.26h4.59v21.113h-4.59z"/><path d="M273.175 300.307c2.215-1 5.44-3.736 5.44-6.49v-32.7l-1.518-2.7h55.708l-2.173 2.7v32.7c0 2.754 2.214 5.49 4.428 6.49z" fill="#fff" stroke-width=".96"/><path fill="#fff" stroke-width=".96" stroke-linecap="square" stroke-linejoin="bevel" d="M279.143 236.657h5.143v19.07h-5.143zM279.11 232.578h5.143v4.018h-5.143z"/><path d="M323.814 300.307c-2.215-1-5.44-3.736-5.44-6.49v-31.1l4.634-4.3h-37.873l4.633 4.3v31.1c0 2.754-3.224 5.49-5.44 6.49z" fill="#fff" stroke-width=".96"/><path d="M318.51 300.307c-2.216-1-5.44-3.736-5.44-6.49v-28.114l3.033-4.3H292.04l3.033 4.3v28.115c0 2.753-3.224 5.49-5.44 6.49zM515.53 300.307c-2.215-1-5.44-3.736-5.44-6.49v-31.1l4.633-4.3H476.85l4.633 4.3v31.1c0 2.754-3.224 5.49-5.438 6.49z" fill="#fff" stroke-width=".96"/><path d="M510.224 300.307c-2.214-1-5.438-3.736-5.438-6.49v-28.114l3.032-4.3h-24.062l3.032 4.3v28.115c0 2.753-3.224 5.49-5.438 6.49zM298.323 261.404h11.497v38.903h-11.497zM414.728 300.307c-2.214-1-5.44-3.736-5.44-6.49v-29.714l1.82-2.7h-22.644l1.818 2.7v29.715c0 2.753-3.224 5.49-5.438 6.49z" fill="#fff" stroke-width=".96"/><path d="M394.048 261.414h11.476v38.882h-11.476z" fill="#fff" stroke-width=".9808"/><path d="M490.04 261.404h11.495v38.903H490.04z" fill="#fff" stroke-width=".96"/><path fill="#fff" stroke-width=".96" stroke-linejoin="bevel" d="M388.27 246.628h23.03v8.485h-23.03z"/><path d="M411.553 252.857c.027-2.56 7.472-2.676 11.304-4.857h-46.02c3.834 2.18 11.106 2.36 11.106 4.857l1.557 4.97 19.05.764z" fill="#fff" stroke-width=".96" stroke-linejoin="bevel"/><path d="M420.548 225.8c0-6.27.263-8.686 2.19-8.686v19.943c-4.725 1.714-8.097 7.743-8.097 7.743h-29.71s-3.37-6.03-8.096-7.743v-19.943c2.376 0 2.39 2.524 2.39 8.686z" fill="#fff" stroke-width=".96"/><path d="M385.372 229.514c3.828 4.596 3.473 12.39 3.43 16.986H411c-.044-4.595-.4-12.39 3.43-16.986z" fill="#fff" stroke-width=".96"/><path fill="#fff" stroke-width=".96" stroke-linecap="square" stroke-linejoin="bevel" d="M282.682 272.26h4.59v21.113h-4.59zM521.04 236.657h-5.143v19.07h5.144z"/><path d="M270.915 300.307c2.253-1.148 4.824-3.82 5.664-6.808h247.135c.84 2.988 3.41 5.66 5.664 6.807z" fill="none" stroke-width=".96"/><path fill="#fff" stroke-width=".96" stroke-linecap="square" stroke-linejoin="bevel" d="M322.04 272.26h4.59v21.113h-4.59z"/><path d="M275.542 230.157v28.26h3.214v-28.33c-1.158-.586-2.246-.676-3.214.07z" fill="#fff" stroke-width=".96"/><path d="M275.643 248.443c3.984 2.037 7.93 4.393 8.93 9.975h-8.93z" fill="#fff" stroke-width=".96"/><path d="M324.24 241.317h7.883v16.71h-7.884z" fill="#fff" stroke-width="1.0336" stroke-linecap="square" stroke-linejoin="bevel"/><path d="M330.898 239.978v18.44h2.605V239.93c-.814-.38-1.925-.44-2.605.048zM380.996 225.8v-7.086c-.1-3.543-3.532-3.8-3.633-6.382 0 0-.443-3.874.578-5.643 1.39 5.18 3.913 4.228 3.913 2.098 0-1.86-1.43-3.588-4.362-8.102-.936-1.443-.356-5.965.957-7.58.51 3.93 1.092 5.81 2.78 5.81 1.03 0 1.87-.67 1.87-2.64 0-2.504-1.696-3.768-2.53-6.047-.973-2.66-.303-5.372 1.313-6.887.693 3.877.487 5.423 2.21 5.423 3.472-1.098 0-6.126-.742-7.395-.854-1.477 1.148-4.427 1.148-4.427 1.103 3.443 1.458 3.723 2.65 3.404 1.502-.402 1.308-2.63-.526-4.433-1.157-1.137-1.035-2.83.208-4.19 1.248 2.44 2.846 2.29 3 .842l-1.004-5.623h22.086l-1.096 5.438c-.314 1.558 1.787 1.896 3.092-.657 1.243 1.36 1.366 3.054.208 4.19-1.833 1.803-2.027 4.032-.524 4.434 1.19.32 1.545.04 2.65-3.404 0 0 1.795 2.01 1.147 4.428-.742 1.27-4.214 6.298-.74 7.396 1.72 0 1.514-1.546 2.207-5.423 1.617 1.515 2.286 4.226 1.313 6.886-.833 2.278-2.53 3.542-2.53 6.047 0 1.968.842 2.64 1.87 2.64 1.69 0 2.27-1.88 2.78-5.812 1.314 1.616 1.894 6.138.957 7.58-2.932 4.515-4.362 6.244-4.362 8.103 0 2.13 2.523 3.082 3.912-2.1 1.02 1.77.578 5.644.578 5.644-.1 2.583-3.532 2.84-3.633 6.382v7.086z" fill="#fff" stroke-width=".96"/><path d="M389.095 173.683h21.924" fill="none" stroke-width=".8"/><path d="M397.85 176.87l-3.04-1.567v-4.476c1.243.374 2.64.526 2.775 2.508.433-2.83 1.214-2.69 2.44-3.793 1.227 1.103 2.008.964 2.44 3.793.137-1.982 1.533-2.134 2.776-2.508v4.476l-3.04 1.567z" fill="#fff" stroke-width=".96"/><path d="M386.496 180.526h26.78" fill="none" stroke-width=".8"/><path d="M397.648 184.217l-5.05-3.472v-4.126c1.77.41 3.758.577 3.952 2.75.617-3.102 1.73-4.705 3.475-5.914 1.747 1.21 2.86 2.812 3.476 5.914.195-2.173 2.183-2.34 3.954-2.75v4.125l-5.05 3.472z" fill="#fff" stroke-width=".96"/><path d="M383.903 188.835h31.877" fill="none" stroke-width=".8"/><path d="M397.292 195.665l-5.808-5.1v-6.062c2.036.603 4.322.85 4.546 4.04.71-4.556 1.987-6.91 3.995-8.687 2.01 1.776 3.287 4.13 3.996 8.688.225-3.192 2.51-3.438 4.547-4.04v6.06l-5.808 5.1zM408 202.44l-5.253 7.266H396.8l-5.253-7.265zM388.526 214.636c2.627 1.436 3.598 4.296 3.878 9.667h14.784c.28-5.37 1.25-8.23 3.878-9.667z" fill="#fff" stroke-width=".96"/><path d="M381.182 198.985h37.806M380.313 210.55h38.945" fill="none" stroke-width=".8"/><path d="M411.283 202.44v-7.297c-2.495.687-4.112 2.165-4.832 4.17 0-2.423-3.187-8.01-6.665-10.79-3.487 3.112-6.73 8.167-6.664 10.79-.592-1.91-2.336-3.483-4.832-4.17v7.298z" fill="#fff" stroke-width=".96" stroke-linejoin="bevel"/><path d="M412.39 214.636v-7.3c-2.737.688-4.51 2.166-5.298 4.17 0-2.422-3.495-8.01-7.306-10.79-3.823 3.113-7.377 8.168-7.306 10.79-.65-1.91-2.562-3.482-5.298-4.17v7.3z" fill="#fff" stroke-width=".96" stroke-linejoin="bevel"/><path d="M415.466 229.612v-8.418c-3.404.88-5.52 3.396-6.59 4.864 0-4.56-5.148-11.508-9.09-13.784-4.045 2.335-9.09 9.517-9.09 13.784-1.1-1.46-3.187-3.985-6.59-4.864v8.418z" fill="#fff" stroke-width=".96" stroke-linejoin="bevel"/><path d="M413.623 248.3v-8.654c-3.004 1.176-3.902 4.07-4.847 6.036.37-8.778-4.942-18.214-8.99-20.608-4.048 2.394-9.463 12.032-8.99 20.608-.97-1.954-1.844-4.86-4.847-6.036v8.655z" fill="#fff" stroke-width=".96" stroke-linejoin="bevel"/><path fill="#fff" stroke-width=".96" stroke-linecap="square" stroke-linejoin="bevel" d="M521.073 232.578h-5.143v4.018h5.143zM473.47 272.26h4.59v21.113h-4.59zM512.827 272.26h4.59v21.113h-4.59z"/><path d="M368.5 248.3h62.285M388.27 248.31h23.087v8.485H388.27z" fill="none" stroke-width=".96"/><path d="M411.518 261.404v-8.655c-3.147.747-3.34 1.907-4.342 3.846.37-5.244-3.342-11.225-7.39-13.62-4.048 2.395-7.762 8.376-7.39 13.62-1-1.94-1.124-3.1-4.342-3.847v8.654zM333.503 248.443c-3.984 2.037-7.93 4.393-8.93 9.975h8.93z" fill="#fff" stroke-width=".96"/><path d="M278.756 236.657h5.53V258.3h-5.53zM278.756 232.578h5.497v4.018h-5.497z" fill="#fff" stroke-width=".96" stroke-linecap="square" stroke-linejoin="bevel"/><path d="M324.24 241.317h7.883v16.71h-7.884z" fill="#fff" stroke-width="1.0336" stroke-linecap="square" stroke-linejoin="bevel"/><path d="M284.207 258.132v-37.044c1.577 0 1.82 5.43 5.44 5.43 1.883 0 1.682-2.25.625-4.08-.937-1.623-2.096-3.864-.52-8.037 1.078 3.194 3.982 4.207 3.445 2.205-.922-3.442-3.577-4.007-1.585-9.347.692 4.455 3.55 4.26 2.856 1.668-.782-2.918-2.398-4.113-.404-8.227 1.116 4.67 2.626 4.396 2.626 1.498 0-4.284-.164-8.904 5.38-10.62 0 0 .32-3.926 2.32-3.926 2 0 2.32 3.927 2.32 3.927 5.543 1.714 5.38 6.334 5.38 10.618 0 2.898 1.51 3.172 2.625-1.5 1.993 4.115.378 5.31-.404 8.228-.693 2.59 2.165 2.787 2.856-1.668 1.992 5.34-.662 5.905-1.585 9.347-.535 2.002 2.37.99 3.448-2.204 1.575 4.174.416 6.415-.52 8.037-1.06 1.832-1.26 4.08.625 4.08 3.618 0 3.86-5.43 5.438-5.43v37.045z" fill="#fff" stroke-width=".96"/><path d="M307.164 205.227l2.322-1.952v-2.5c-.85.083-1.313.376-1.94 1.198-.534-1.657-1.708-2.95-3.28-3.754-1.573.802-2.747 2.037-3.28 3.694-.628-.822-1.09-1.056-1.94-1.138v2.5l2.32 1.95z" fill="#fff" stroke-width=".96"/><path d="M308.406 211.494l1.08-2.337v-3.25c-.85.085-1.313.38-1.94 1.215-.534-1.68-1.708-2.992-3.28-3.807-1.573.815-2.747 2.067-3.28 3.747-.628-.834-1.09-1.07-1.94-1.154v3.25l1.078 2.336z" fill="#fff" stroke-width=".96"/><path d="M308.57 219.97l3.45-4.206v-4.152c-1.262.142-1.95.644-2.883 2.056-.792-2.845-2.535-3.466-4.872-4.846-2.336 1.38-4.08 1.9-4.87 4.745-.934-1.412-1.622-1.813-2.884-1.955v4.152l3.45 4.206z" fill="#fff" stroke-width=".96"/><path d="M309.58 228.307s4.02-3.507 4.258-5.432v-4.438c-1.557.183-3.03.587-4.18 2.41-.98-3.673-2.508-4.698-5.393-6.48-2.884 1.782-4.412 2.807-5.39 6.48-1.15-1.823-2.625-2.227-4.183-2.41v4.438c.508 1.925 4.26 5.432 4.26 5.432z" fill="#fff" stroke-width=".96"/><path d="M311.294 243.695s5.506-6.095 5.632-8.47v-6.92c-2.06.286-4.01 1.703-5.53 4.547-1.295-5.728-3.316-9.722-7.13-12.5-3.815 2.778-5.836 6.772-7.13 12.5-1.522-2.844-3.47-4.26-5.53-4.546v6.92c.394 2.374 5.63 8.47 5.63 8.47z" fill="#fff" stroke-width=".96"/><path d="M311.294 252.79s4.706-4.79 5.632-6.87V239c-2.06.286-4.01 1.703-5.53 4.547-1.295-5.728-3.316-9.008-7.13-11.785-3.815 2.777-5.836 6.057-7.13 11.785-1.522-2.844-3.47-4.26-5.53-4.546v6.92c1.194 2.08 5.63 6.87 5.63 6.87z" fill="#fff" stroke-width=".96"/><path d="M313.194 258.086c-1.374-5.975-2.555-10.407-9.17-14.9-6.612 4.493-7.793 8.925-9.167 14.9z" fill="#fff" stroke-width=".96"/><path d="M316.598 261.404v-8.655c-3.004 1.175-5.718 2.917-6.72 4.856-1.117-4.805-3.27-6.922-5.955-9.83-2.684 2.908-4.48 5.025-5.6 9.83-1-1.94-3.715-3.68-6.718-4.857v8.654zM275.542 230.157v28.26h3.214v-28.33c-1.158-.586-2.246-.676-3.214.07z" fill="#fff" stroke-width=".96"/><path d="M275.643 248.443c3.984 2.037 7.93 4.393 8.93 9.975h-8.93zM330.898 239.978v18.44h2.605V239.93c-.814-.38-1.925-.44-2.605.048z" fill="#fff" stroke-width=".96"/><path d="M333.503 248.3c-3.984 2.037-7.93 4.394-8.93 9.975h8.93zM524.642 230.157v28.26h-3.214v-28.33c1.158-.586 2.246-.676 3.214.07zM475.803 258.132v-37.044c1.577 0 1.82 5.43 5.44 5.43 1.883 0 1.682-2.25.625-4.08-.937-1.623-2.096-3.864-.52-8.037 1.078 3.194 3.982 4.207 3.445 2.205-.922-3.442-3.577-4.007-1.585-9.347.692 4.455 3.55 4.26 2.856 1.668-.782-2.918-2.398-4.113-.404-8.227 1.116 4.67 2.626 4.396 2.626 1.498 0-4.284-.164-8.904 5.38-10.62 0 0 .32-3.926 2.32-3.926 2 0 2.32 3.927 2.32 3.927 5.543 1.714 5.38 6.334 5.38 10.618 0 2.898 1.51 3.172 2.625-1.5 1.994 4.115.38 5.31-.403 8.228-.694 2.59 2.164 2.787 2.855-1.668 1.992 5.34-.662 5.905-1.585 9.347-.536 2.002 2.368.99 3.447-2.204 1.575 4.174.416 6.415-.52 8.037-1.06 1.832-1.26 4.08.625 4.08 3.617 0 3.86-5.43 5.437-5.43v37.045z" fill="#fff" stroke-width=".96"/><path d="M498.76 205.227l2.322-1.952v-2.5c-.85.083-1.313.376-1.94 1.198-.534-1.657-1.708-2.95-3.28-3.754-1.573.802-2.747 2.037-3.28 3.694-.628-.822-1.09-1.056-1.94-1.138v2.5l2.32 1.95z" fill="#fff" stroke-width=".96"/><path d="M500.002 211.494l1.08-2.337v-3.25c-.85.085-1.313.38-1.94 1.215-.534-1.68-1.708-2.992-3.28-3.807-1.573.815-2.747 2.067-3.28 3.747-.628-.834-1.09-1.07-1.94-1.154v3.25l1.078 2.336z" fill="#fff" stroke-width=".96"/><path d="M500.166 219.97l3.45-4.206v-4.152c-1.262.142-1.95.644-2.883 2.056-.792-2.845-2.535-3.466-4.872-4.846-2.335 1.38-4.078 1.9-4.87 4.745-.933-1.412-1.62-1.813-2.883-1.955v4.152l3.45 4.206z" fill="#fff" stroke-width=".96"/><path d="M501.176 228.307s4.02-3.507 4.258-5.432v-4.438c-1.557.183-3.03.587-4.182 2.41-.978-3.673-2.507-4.698-5.39-6.48-2.885 1.782-4.413 2.807-5.392 6.48-1.15-1.823-2.624-2.227-4.182-2.41v4.438c.508 1.925 4.26 5.432 4.26 5.432z" fill="#fff" stroke-width=".96"/><path d="M502.89 243.695s5.506-6.095 5.632-8.47v-6.92c-2.06.286-4.01 1.703-5.53 4.547-1.295-5.728-3.316-9.722-7.13-12.5-3.815 2.778-5.836 6.772-7.13 12.5-1.522-2.844-3.47-4.26-5.53-4.546v6.92c.394 2.374 5.63 8.47 5.63 8.47z" fill="#fff" stroke-width=".96"/><path d="M502.89 252.79s4.706-4.79 5.632-6.87V239c-2.06.286-4.01 1.703-5.53 4.547-1.295-5.728-3.316-9.008-7.13-11.785-3.815 2.777-5.836 6.057-7.13 11.785-1.522-2.844-3.47-4.26-5.53-4.546v6.92c1.194 2.08 5.63 6.87 5.63 6.87z" fill="#fff" stroke-width=".96"/><path d="M504.79 258.086c-1.374-5.975-2.555-10.407-9.17-14.9-6.612 4.493-7.793 8.925-9.167 14.9zM524.54 248.443c-3.983 2.037-7.5 4.393-8.5 9.975h8.5zM469.287 239.978v18.44h-2.606V239.93c.815-.38 1.926-.44 2.607.048z" fill="#fff" stroke-width=".96"/><path d="M466.682 248.443c3.983 2.037 7.93 4.393 8.928 9.975h-8.928z" fill="#fff" stroke-width=".96"/><path d="M469.287 239.978v18.44h-2.606V239.93c.815-.38 1.926-.44 2.607.048z" fill="#fff" stroke-width=".96"/><path d="M466.682 248.443c3.983 2.037 7.93 4.393 8.928 9.975h-8.928zM422.738 223.23c0-7.19 6.21-8 6.21-8v6.4c-2.364-.1-3.504 2.02-3.504 5.177 0 3.157 1.903 3.207 1.903 3.207v18.164h-4.61zM376.86 223.23c0-7.19-6.208-8-6.208-8v6.4c2.363-.1 3.503 2.02 3.503 5.177 0 3.157-1.903 3.207-1.903 3.207v18.164h4.61zM508.295 261.303v-8.655c-3.004 1.176-5.718 2.918-6.72 4.857-1.117-4.805-3.27-6.922-5.955-9.83-2.684 2.908-4.48 5.025-5.6 9.83-1-1.94-3.715-3.68-6.718-4.857v8.655zM242.99 331.93h314.02v16.04H242.99z" fill="#fff" stroke-width=".96"/><path d="M234.714 347.943h330.572v16.016H234.714zM259.48 307.937h281.04v10.38H259.48z" fill="#fff" stroke-width=".96"/><path d="M251.264 318.247h297.472v13.596H251.264zM264.39 299.957h271.22v7.903H264.39z" fill="#fff" stroke-width=".96"/><path d="M293.828 300h20.487v63.916h-20.487z" fill="#fff" stroke-width="1.0448000000000002"/><path d="M298.365 299.998h11.413v63.92h-11.413z" fill="#fff" stroke-width="1.0432000000000001"/><path d="M298.155 307.885h11.833M298.155 315.885h11.833M298.155 323.885h11.833M298.155 331.885h11.833M298.155 339.885h11.833M298.155 347.885h11.833M298.155 355.885h11.833" fill="none" stroke-width=".96"/><path d="M389.4 300h20.486v63.916H389.4z" fill="#fff" stroke-width="1.0448000000000002"/><path d="M394.08 299.998h11.413v63.92H394.08z" fill="#fff" stroke-width="1.0432000000000001"/><path d="M394.134 307.872h11.017M394.134 315.877h11.017M394.134 323.88h11.017M394.134 331.885h11.017M394.134 339.89h11.017M394.134 347.893h11.017M394.134 355.898h11.017" fill="none" stroke-width=".96"/><path d="M485.543 300h20.487v63.916h-20.487z" fill="#fff" stroke-width="1.0448000000000002"/><path d="M490.08 299.998h11.414v63.92H490.08z" fill="#fff" stroke-width="1.0432000000000001"/><path d="M489.87 307.885h11.833M489.87 315.885h11.833M489.87 323.885h11.833M489.87 331.885h11.833M489.87 339.885h11.833M489.87 347.885h11.833M489.87 355.885h11.833" fill="none" stroke-width=".96"/><path fill="#fff" stroke-width=".96" stroke-linecap="square" stroke-linejoin="bevel" d="M338.04 272.26h4.59v21.113h-4.59zM347.64 272.26h4.59v21.113h-4.59zM357.24 272.26h4.59v21.113h-4.59zM437.643 272.26h4.59v21.113h-4.59zM447.243 272.26h4.59v21.113h-4.59zM456.843 272.26h4.59v21.113h-4.59z"/><path d="M390.24 166.892l-.51-4h20.274l-.51 4zM391.597 162.813l-.436-3.288h17.414l-.437 3.288zM394.36 159.402l-.29-3.288h11.595l-.29 3.288z" fill="#fff" stroke-width=".96"/></g></svg>