<svg xmlns="http://www.w3.org/2000/svg" xmlns:xlink="http://www.w3.org/1999/xlink" version="1" width="1200" height="600"><path fill="#ffb700" d="M0 0h1200v600H0z"/><path fill="#ff5b00" d="M215 50h165v500H215z"/><path fill="#005641" d="M50 50h165v500H50z"/><path fill="#8d2029" d="M430 50h725v500H430z"/><use transform="matrix(-1 0 0 1 1585 0)" width="1200" height="600" xlink:href="#a"/><use transform="matrix(1 0 0 -1 0 600)" width="1200" height="600" xlink:href="#a"/><use transform="rotate(180 792.5 300)" width="1200" height="600" xlink:href="#a"/><path d="M498.937 466.063s-6.798 13.84-14.31 19.48c-11.126 8.356-33.944 7.752-43.627 17.5-11.604 11.495.9 26.683.796 28l-.636 8.02s7.824.096 11.118.61c4.954.772 6.886 4.802 16.11 4.204 23.188-1.505 22.254-22.397 23.565-40.25 1.165-6.8 3.86-15.662 5.39-22.46 1.314-5.827 1.594-15.104 1.594-15.104z" id="a" fill="#ffb700" fill-rule="evenodd" stroke="#000" stroke-width="2.126"/><path d="M681.537 479.556l4.36-2.517 1.864 2.52c2.486 3.36 9.36 3.322 13.923-.077l3.488-2.598 2.922 2.598c3.84 3.417 11.012 3.422 15.59.013 3.207-2.39 3.654-2.437 5.774-.62 1.263 1.083 4.97 2.316 8.236 2.74 5.883.764 5.972.722 9.414-4.442 2.883-4.324 3.334-6.075 2.646-10.27-.456-2.78-.947-7.255-1.092-9.944-.26-4.87-.233-4.9 6.86-7.37 3.917-1.364 8.45-3.193 10.076-4.065 2.833-1.52 10.643-10.7 10.643-12.508 0-.48-3.052-1.214-6.78-1.632-14.834-1.664-17.346-9.63-7.703-24.424 15.725-24.127 25.214-47.624 25.278-62.592.028-6.69.41-8.937 1.27-7.482 3.512 5.946-2.782 30.876-12.317 48.78l-3.84 7.208 3.664-.843c2.015-.463 13.862-5.46 26.325-11.106 34.115-15.45 45.833-18.48 67.91-17.55 18.498.78 26.375 4.394 39.435 18.092 6.918 7.256 13.583 12.448 25.775 20.08 25.974 16.26 27.057 17.667 28.293 36.788 1.25 19.373.628 20.424-14.025 23.66-12.523 2.768-20.375 8.607-22.48 16.718-1.125 4.332 1.24 4.456 7.555.398l4.628-2.974 2.057 2.974c2.705 3.91 8.455 3.926 13.23.036l3.607-2.938 3.687 2.938c5.727 4.565 13.345 3.458 15.495-2.252.414-1.098 1.517-.746 3.75 1.195 4.185 3.637 14.914 5.197 16.073 2.337.442-1.09-.398-3.786-1.867-5.99-6.24-9.36-8.193-13.822-8.275-18.917-.112-7.086 2.002-10.505 10.062-16.268 9.79-7 12.816-16.033 5.37-16.033-4.597 0-9.23-4.065-12.187-10.687-6.008-13.46-4.83-28.552 4.187-53.657 9.158-25.5 10.174-30.202 10.21-47.256.03-13.79-.316-16.174-3.454-23.734-1.918-4.622-5.81-11.505-8.65-15.295l-5.16-6.89 6.627-5.49c20.234-16.762 16.095-44.197-8.263-54.768-7.452-3.234-9.314-3.52-22.373-3.43-7.834.05-19.78 1.082-26.545 2.29-6.9 1.23-18.577 2.22-26.587 2.252-12.724.05-14.885-.262-19.788-2.872-5.114-2.722-5.99-4.014-6.99-10.305-.207-1.293-1.11-2.583-2.01-2.867-1.74-.548-9.77 6.423-10.958 9.51-.585 1.524-1.063 1.42-2.78-.613-1.142-1.35-2.734-4.45-3.54-6.888-2.027-6.136.462-10.736 7.674-14.182l5.596-2.674-3.3-2.048c-6.808-4.225-18.384-1.335-22.57 5.635-1.185 1.973-2.477 3.59-2.872 3.594-.394.003-2.645-1.877-5.002-4.18-8.79-8.59-5.767-21.297 5.99-25.177 6.27-2.068 11.82-.49 12.973 3.69 1.762 6.383 7.24-2.007 6.258-9.584-.653-5.037-.555-5.212 2.93-5.212 4.848 0 15.165 6.363 18.357 11.32 3.706 5.757 3.436 14.823-.643 21.58l-3.202 5.306 4.19-.84c6.143-1.23 12.11-5.045 15.13-9.67 3.192-4.893 3.536-14.417.705-19.557-2.743-4.982-2.428-5.773 1.627-4.09 6.897 2.863 10.584 6.02 13.35 11.432 2.49 4.873 2.63 6.083 1.28 11.155-.83 3.13-2.682 7.246-4.113 9.15-2.227 2.96-2.303 3.458-.528 3.458 3.305 0 10.206-3.128 12.657-5.737 1.24-1.32 3.044-4.564 4.012-7.213l1.76-4.816 2.024 3.67c2.86 5.19 8.422 9.862 15.203 12.77 7.293 3.126 10.33 3.302 6.516.377-2.573-1.972-7.312-15.878-5.876-17.238.845-.8 10.748 6.818 22.053 16.967 10.695 9.6 17.415 12.746 27.238 12.746 12.547 0 19.853-10.923 14.214-21.25-3.29-6.023-10.614-6.86-14.897-1.702-1.97 2.372-2.51 4.258-1.933 6.746.706 3.047.43 3.453-2.346 3.453-3.647 0-10.836-4.668-23.605-15.323-19.472-16.247-43.132-30.02-60.215-35.05-10.963-3.228-34.383-4.488-45.528-2.45-12.062 2.208-26.33 9.11-34.1 16.5-13.773 13.094-13.992 30.52-.582 46.385l3.84 4.546-2.6 4.04c-3.783 5.875-3.46 13.783.804 19.61 1.876 2.564 3.77 4.662 4.207 4.66.437 0 .917-1.65 1.066-3.665.376-5.096 2.563-8.51 6.318-9.863 3.382-1.217 5.568-.642 21.052 5.538 16.288 6.5 43.076 6.948 71.56 1.194 13.965-2.82 30.43-2.656 37.675.38 13.28 5.562 16.357 20.036 6.596 31.022-4.226 4.756-8.3 6.692-21.984 10.448-10.412 2.857-12.88 3.047-36.544 2.81-20.218-.2-27.484.187-35.737 1.91-8.96 1.87-14.472 2.06-40.79 1.396l-30.43-.767 3.373 2.796c1.856 1.537 4.478 3.427 5.827 4.202 2.295 1.317 2.22 1.494-1.193 2.76-2.004.742-6.454 1.35-9.888 1.35h-6.244l-.84 5.306c-.463 2.918-.428 6.325.077 7.57.745 1.84.467 2.103-1.47 1.4-1.313-.478-4.97-1.417-8.126-2.087-3.157-.67-7.405-2.034-9.442-3.03-3.425-1.678-3.805-1.633-5.067.6-1.126 1.993-11.702 9.863-13.254 9.863-.25 0-.574-1.517-.718-3.372-.145-1.855-1.67-6.684-3.39-10.73-1.72-4.048-3.517-8.463-3.992-9.812-.717-2.035-1.04-2.14-1.906-.613-.573 1.012-1.41 3.77-1.86 6.132-.448 2.36-2.042 6.196-3.54 8.522l-2.724 4.23-1.737-3.616c-1.865-3.882-4.962-7.91-6.083-7.91-.378 0-1.023 1.243-1.432 2.76-.854 3.17-8.197 11.958-9.99 11.958-.66 0-1.2-2.484-1.2-5.52 0-3.034-.584-5.518-1.296-5.518-.712 0-1.295.786-1.295 1.746 0 2.333-6.27 9.292-8.372 9.292-.918 0-2.394.827-3.28 1.84-2.313 2.637-4.204 2.267-3.232-.633.456-1.36.16-4.533-.658-7.052l-1.933-5.957c-.31-.954-2.556-.7-7.312.824-7.685 2.463-10.26 2.028-6.308-1.068 1.445-1.132 3.642-5.05 4.884-8.71 1.24-3.66 3.07-6.907 4.068-7.216 1.397-.433 1.322.102-.323 2.327-1.176 1.59-2.14 3.732-2.145 4.763 0 1.03-.89 3.473-1.966 5.428s-1.753 3.748-1.504 3.985c.25.235 3.174-.876 6.498-2.47l6.044-2.898.025 2.593c.014 1.426.742 5.187 1.62 8.36l1.592 5.766 4.114-1.89c4.204-1.933 8.187-8.823 8.187-14.164 0-2.64 1.513-2.236 2.133.57.182.825 1.13 3.916 2.11 6.87l1.78 5.372 2.816-3.392c1.55-1.865 3.49-5.524 4.316-8.13 1.43-4.526 3.68-6.47 3.68-3.185 0 2.37 6.46 10.86 7.708 10.132.602-.353 1.802-3.54 2.666-7.083 1.796-7.37 4.695-12.38 6.537-11.303.692.405.962 1.192.6 1.748-.364.556 1.124 5.346 3.307 10.646 2.182 5.3 4.373 10.635 4.87 11.857.796 1.963 1.516 1.678 6.194-2.453 2.91-2.57 5.553-5.45 5.87-6.395.482-1.432 1.13-1.38 3.853.31 3.808 2.362 16.606 6.168 17.595 5.232.37-.35.75-3.712.843-7.47l.17-6.832 3.68.764c2.025.42 6.28.394 9.46-.058l5.777-.82-5.15-3.533c-2.83-1.943-5.695-4.458-6.363-5.588-.71-1.204-3.232-2.226-6.087-2.47-7.715-.654-21.388-8.323-21.388-11.994 0-.69 1.894.483 4.21 2.605 5.134 4.707 12.267 7.66 18.498 7.66h4.662l-2.884-3.835c-1.657-2.203-3.143-6.383-3.49-9.822-.557-5.48-1.136-6.352-6.86-10.33-3.437-2.39-7.695-5.973-9.46-7.96l-3.213-3.616-1.64 4.292c-.9 2.36-2.002 4.292-2.447 4.292-.445 0-2.178-1.38-3.85-3.066-1.673-1.686-3.377-3.06-3.787-3.052-.41.007-1.892 2.28-3.293 5.047l-2.547 5.034-1.97-2.903c-1.08-1.595-3.64-4.418-5.68-6.273-2.044-1.855-3.12-3.373-2.39-3.373s3.252 1.934 5.604 4.295l4.277 4.294 1.74-3.147c1.033-1.867 1.42-4.734.952-7.053-.683-3.38-.587-3.576.71-1.455.823 1.35 3.325 3.936 5.558 5.748l4.062 3.294 2.803-5.134c2.79-5.11 2.81-5.12 4.078-2.068 1.698 4.08 13.98 14.15 24.44 20.032 1.61.906.93-2.212-2.046-9.38-.788-1.9-1.433-5.323-1.433-7.608 0-3.39-.977-4.9-5.313-8.2-6.26-4.763-8.283-8.15-9.463-15.834-.478-3.113-1.573-6.575-2.434-7.694-1.277-1.66-1.49-.73-1.147 5.047.23 3.893-.276 8.735-1.125 10.758l-1.545 3.68-1.193-3.067c-.657-1.685-3.56-4.618-6.454-6.515-2.893-1.898-4.923-3.77-4.512-4.16.41-.39 3.388 1.34 6.614 3.844 4.914 3.813 5.997 4.226 6.678 2.547.8-1.974 0-10.562-1.546-16.564-.772-2.997-.704-2.98 2.993.716 2.726 2.725 4.234 5.976 5.402 11.65 1.484 7.206 2.232 8.406 8.896 14.257 4.003 3.513 7.486 6.19 7.74 5.95.255-.24.76-9.33 1.122-20.2.696-20.84-.09-25.8-5.11-32.238l-2.578-3.31 4.054-4.373c5.288-5.704 7.717-10.277 8.77-16.515l.857-5.075-4.575 4.333c-3.746 3.548-5.536 4.333-9.875 4.333-4.296 0-5.974-.72-8.87-3.805-3.474-3.702-9.63-7.264-15.55-8.997-2.185-.64-2.912-.36-2.912 1.12 0 1.083-1.208 4.212-2.684 6.953l-2.686 4.982-5.623-5.558c-3.45-3.41-7.543-6.064-10.588-6.865-7.78-2.046-8.202-1.843-8.202 3.954 0 8.794-3.755 10.432-10.512 4.587-5.15-4.455-9.423-5.424-19.19-4.35l-7.544.83 1.358 3.404c1.133 2.845.878 4.043-1.55 7.274-3.94 5.24-9.063 7.51-16.95 7.51-3.63 0-8.176.752-10.1 1.67-1.922.92-6.7 1.977-10.618 2.352-3.917.375-8.092 1.044-9.277 1.487-1.856.692-2.06.12-1.462-4.1.915-6.457-3.596-11.22-10.627-11.22-9.12 0-13.33 8.16-9.757 18.92.69 2.072 1.588 5.34 2 7.26.428 1.994 4.537 7.283 9.57 12.318 4.85 4.854 9.435 9.905 10.187 11.224.753 1.32 3.24 3.435 5.53 4.704l4.16 2.305-.55-4.45c-.602-4.893.464-5.66 3.067-2.208.93 1.234 3.295 3.23 5.254 4.433 3.085 1.897 3.56 1.935 3.56.288 0-1.045.63-3.454 1.398-5.353l1.398-3.452 2.425 4.697c1.333 2.584 5.67 8.455 9.638 13.048 7.7 8.912 12.39 18.87 9.968 21.164-.982.93-3.636.858-9.137-.248-4.266-.858-9.54-1.31-11.723-1.008-4.457.62-4.808.044-2.067-3.388 2.893-3.623 2.433-4.22-3.25-4.22-6.577 0-22.902-3.152-29.168-5.632-6.094-2.41-7.5-1.81-9.293 3.97-.81 2.6-2.287 7.313-3.286 10.472l-1.816 5.745 6.592-.636c3.626-.35 8.29-1.143 10.364-1.764 2.074-.622 3.96-.952 4.19-.734.23.218-.696 2.462-2.055 4.988l-2.473 4.592 4.11-.838c2.26-.46 5.662-1.588 7.558-2.506 3.3-1.596 3.565-1.48 6.168 2.698 3.2 5.137 5.76 4.926 6.33-.522.586-5.633 2.44-4.8 5.925 2.664 3.35 7.178 6.838 9.712 7.508 5.457.222-1.414 2.028-3.713 4.012-5.11 4.014-2.83 7.038-1.98 8.772 2.46 1.795 4.595-2.208 9.33-13.853 16.39-23.327 14.14-36.886 33.48-40.757 58.128-3.492 22.233 7.413 45.207 29.29 61.708 10.47 7.896 27.1 16.23 26.043 13.05-4.488-13.505-4.34-39.273.25-43.62.69-.653.452 2.036-.526 5.974-3.645 14.672-2.062 26.363 7.282 53.763 8.45 24.782 7.28 35.374-4.68 42.375-3.842 2.248-6.315 2.618-16.644 2.493-11.207-.135-12.428.09-16.026 2.958-3.488 2.78-8.01 11.906-8.01 16.165 0 2.307 2.562 2.002 7.596-.905zm90.817-214.924c0-1.8-5.284-6.675-10.638-9.817-4.204-2.467-4.9-2.542-4.908-.53-.015 3.055-2.73 10.73-3.798 10.73-.602 0-1.49-1.5-1.977-3.332-.486-1.833-2.524-5.446-4.53-8.03l-3.646-4.695-2.84 4.35c-2.646 4.057-7.23 8.03-9.265 8.03-.486 0-.58-2.137-.212-4.748.402-2.836.092-5.086-.77-5.59-.794-.465-1.443-.303-1.443.36 0 1.528-6.367 8.75-7.714 8.75-.556 0-1.333-2.07-1.727-4.598-.395-2.53-1.066-6.53-1.49-8.892-.427-2.36.48-.76 2.014 3.558l2.788 7.85 3.058-4.784c1.68-2.63 3.06-5.506 3.064-6.39 0-.882.573-1.273 1.264-.87.692.406 1.654 3.57 2.14 7.03l.88 6.292 3.365-3.69c1.85-2.028 4.018-4.744 4.818-6.035 1.427-2.303 1.507-2.3 4.346.106 1.59 1.35 4.036 4.576 5.434 7.17 1.4 2.596 2.73 4.527 2.96 4.293.227-.235.74-2.91 1.138-5.945.397-3.035.752-5.63.788-5.77.198-.75 10.135 5.71 13.812 8.98 2.363 2.1 4.607 3.527 4.987 3.167.38-.36.69-3.46.69-6.892 0-5.317-.563-6.742-3.815-9.648-3.74-3.343-3.843-3.36-5.225-.916-1.793 3.173-3.908 3.22-3.908.084 0-2.287-7.066-11.08-8.904-11.08-.476 0-1.964 1.932-3.307 4.293-1.342 2.36-2.786 4.29-3.208 4.287-1.812-.01-11.773-11.117-11.77-13.122 0-1.594.672-1.186 2.42 1.477 1.326 2.023 3.977 5.044 5.89 6.712 3.872 3.38 5.28 2.558 6.775-3.953.426-1.855 1.166-3.373 1.644-3.373 1.656 0 10.328 9.21 11.547 12.265l1.225 3.066.928-3.372c1.134-4.124 2.385-4.277 4.196-.514.755 1.572 4.49 4.84 8.3 7.263l6.926 4.405 1.39-4.43c.764-2.437 1.777-3.837 2.25-3.112.706 1.082-1.094 8.423-2.453 10.002-.203.237-2.447-1.07-4.987-2.905l-4.617-3.335-.02 5.97c-.012 3.285-.368 7.213-.798 8.73-.84 2.968-3.07 3.803-3.07 1.15zm-34.535-47.605c-8.232-6.872-9.482-8.445-9.3-11.702l.195-3.467.537 3.35c.313 1.954 2.506 4.884 5.268 7.04l4.732 3.695 2.908-3.364c1.6-1.85 2.928-4.053 2.954-4.897.067-2.198.462-2.013 6.035 2.822 4.95 4.296 5.027 4.317 5.764 1.533.41-1.552.265-4.474-.324-6.493-1.618-5.55-1.3-6.387 1.15-3.04 1.222 1.668 3.186 4.025 4.365 5.24 2.053 2.112 2.178 2.086 2.94-.614.44-1.55.807-4.39.817-6.308l.018-3.488 4.464 5.06c4.17 4.728 4.555 4.902 5.828 2.65.75-1.326 1.37-4.517 1.382-7.09.014-3.326.364-4.165 1.21-2.9 1.412 2.115.432 7.87-2.176 12.777l-1.87 3.52-2.458-3.826c-3.142-4.893-4.188-4.814-6.204.466-1.905 4.99-3.144 5.37-5 1.533-1.202-2.483-1.43-2.18-2.283 3.037l-.948 5.797-5.678-4.407-5.68-4.406-2.552 2.902c-1.404 1.596-2.572 3.592-2.595 4.435-.052 1.828-1.418 1.886-3.5.147zm73.223-25.595c-2.997-2.7-5.06-5.275-4.587-5.723.473-.45 1.006-.578 1.185-.287.18.292 2.628 2.867 5.443 5.723 6.482 6.577 5.15 6.763-2.04.286zM713.51 181.35c-2.727-3.685-2.54-6.126.78-10.12 2.396-2.887 3.49-3.28 7.678-2.747 2.685.34 8.464 2.714 12.84 5.272 5.056 2.956 10.286 4.935 14.336 5.427 3.507.426 6.376.587 6.376.357 0-.23-1.457-2.604-3.237-5.275-4.23-6.343-4.084-7.024.685-3.224 4.896 3.902 10.75 5.043 23.837 4.646l6.393-.195-3.71-3.665c-5.186-5.127-3.59-5.587 2.14-.615 5.37 4.662 5.034 4.99-6.273 6.12-4.805.48-9.972.13-14.267-.96-6.425-1.636-6.675-1.61-5.457.543.702 1.242 1.838 2.257 2.525 2.257.688 0 1.25.63 1.25 1.398 0 2.365-13.88.286-20.51-3.072-15.152-7.672-17.06-8.336-20.665-7.2-2.007.633-4.015 2.484-4.707 4.34-2.31 6.186 6.466 10.995 10.085 5.526 1.05-1.585.804-2.67-1.04-4.6-2.525-2.64-2.288-3.018 1.12-1.78 2.42.88 2.746 6.69.495 8.822-2.576 2.44-8.454 1.75-10.674-1.254zm59.684-15.283c-1.895-1.794-.41-2.234 8.084-2.392 10.51-.196 16.89-1.947 24.42-6.7 6.033-3.81 7.67-3.06 1.943.89-5.224 3.602-13.372 6.37-21.238 7.218-3.81.41-8.15.978-9.647 1.262-1.497.285-3.1.16-3.56-.278zm90.26 312.994l4.7-3.02 3.19 3.02c4.18 3.96 9.077 3.87 13.095-.236 1.753-1.792 3.327-3.033 3.498-2.76.17.275.953 1.603 1.738 2.952.993 1.708 3.036 2.567 6.722 2.827 4.442.313 5.635-.117 7.4-2.668l2.103-3.04 4.63 2.973c12.668 8.143 19.42-.4 13.757-17.41-2.88-8.65-1.296-13.513 7.983-24.522 3.913-4.642 7.117-9.597 7.12-11.01 0-2.255-.723-2.557-5.93-2.454-4.984.1-6.44-.435-9.065-3.323-4.266-4.697-4.013-10.076.757-16.044l3.81-4.77-6.76-4.586c-3.718-2.523-10.422-8.492-14.9-13.265-10.052-10.72-19.938-15.803-32.973-16.955l-8.742-.773.013 6.615c.018 8.517 4.015 16.71 14.925 30.588 12.406 15.78 13.272 18.222 13.774 38.846l.424 17.443-3.59 3.404c-3.243 3.078-4.706 3.47-15.172 4.074-9.965.575-12.058 1.09-14.982 3.68-3.884 3.44-5.045 5.31-6.244 10.062-.7 2.77-.416 3.372 1.583 3.372 1.337 0 4.548-1.36 7.133-3.02zm-266.635-45.08c1.108-1.498 2.015-3.92 2.015-5.378 0-2.205.985-2.794 5.83-3.482l5.833-.828-3.89-3.1c-4.62-3.68-5.047-6.558-.975-6.564 4.056 0 10.925-4.212 11.97-7.328.485-1.45.18-3.384-.69-4.377-2.275-2.595-6.55-2.203-7.344.672-.854 3.09-2.283 3.1-5.523.03-4.873-4.615-4.982-14.168-.225-19.73 2.24-2.623 2.22-2.795-.637-5.502-3.074-2.91-5.27-8.675-3.826-10.042.46-.435 2.888-.088 5.397.772 3.566 1.22 4.973 1.24 6.442.084 4.45-3.497-.372-7.994-7.507-7.002-2.872.4-4.06 0-4.47-1.49-.313-1.13-2.825-2.605-5.655-3.32-5.057-1.278-5.092-1.263-5.092 2.22 0 3.82-2.18 4.54-6.32 2.09-3.366-1.99-6.63-.445-6.63 3.138 0 3.344 3.363 4.993 9.39 4.604 4.62-.298 4.792 3.14.403 8.08l-3.158 3.553 2.5 3.592c3.705 5.32 3.393 14.158-.654 18.547l-3.172 3.44-2.08-2.76c-2.893-3.834-6.848-3.577-7.933.516-.71 2.68-.123 3.905 3.233 6.745 2.256 1.91 5.55 3.47 7.318 3.47 4.378 0 4.207 3.444-.344 6.923l-3.56 2.72 5.502.855c3.027.47 5.504 1.353 5.504 1.963 0 2.34 3.814 9.616 5.04 9.616.708 0 2.194-1.227 3.303-2.726zm71.658-31.056c5-1.97 15.822-11.135 15.822-13.398 0-.712-2.987-3.997-6.638-7.3-7.682-6.95-16.04-18.657-18.204-25.5-1.13-3.57-6.584-9.68-21.95-24.583l-20.45-19.832-5.892 1.494c-3.242.82-7.196 1.513-8.79 1.537-2.743.043-2.693.2.955 3.024l3.85 2.978 5.396-2.995c5.23-2.903 5.416-2.92 6.06-.584.38 1.367-.436 3.738-1.882 5.48-1.4 1.687-2.2 3.6-1.774 4.253.425.653-.92 2.016-2.993 3.03-3.84 1.882-6.505 8.072-3.475 8.072 2.726 0 8.738-7.417 8.045-9.926-.355-1.284-.183-2.606.38-2.936 2.342-1.37 2.196 4.453-.183 7.317-1.4 1.687-2.2 3.602-1.774 4.254.425.653-.92 2.016-2.993 3.03-3.815 1.87-6.507 8.072-3.503 8.072 2.944 0 8.857-7.09 8.124-9.74-.383-1.388-.234-2.793.33-3.123 1.577-.923 2.428 3.674 1.097 5.926-.713 1.207-.707 2.854.016 4.16 1.31 2.366-.017 6.91-2.43 8.323-1.035.606-.334 1.794 2.175 3.69 3.63 2.74 3.702 3.03 3.702 15.13 0 10.11.408 12.72 2.266 14.48 2.084 1.976 2.266 1.984 2.266.09 0-2.07 3.63-4.6 6.6-4.6.878 0 6.353 4.64 12.17 10.313 5.85 5.705 11.972 10.56 13.706 10.87 1.723.306 3.59.633 4.146.725.557.092 3.18-.687 5.827-1.73zm-62.52-48.928c0-3.26-6.725-6.74-14.768-7.642-6.493-.728-6.6-.687-6.6 2.557 0 2.686 1.022 3.742 5.504 5.694 7.203 3.135 15.863 2.804 15.863-.608zm7.374-.298c3.28-2.976 4.834-6.516 2.86-6.516-2.27 0-8.293 5.405-8.293 7.442 0 3.18 1.118 2.988 5.432-.926zm-6.996-9.636c.278-1.84-.86-3.067-4.27-4.607-7.356-3.322-16.15-4.86-18.268-3.196-3.9 3.065-1.302 7.182 5.003 7.923 2.54.298 5.98 1.072 7.65 1.72 4.845 1.882 9.453 1.024 9.886-1.84zm0-9.85c.396-2.625-1.282-3.564-14.98-8.384-10.224-3.6-14.75-1.902-11.482 4.305 1.138 2.163 3.05 3.15 7.334 3.792 3.187.478 7.542 1.41 9.68 2.074 5.707 1.77 9.005 1.147 9.448-1.79zm6.865-9.234c2.068-2.095 3.76-4.567 3.76-5.494 0-3.006-8.163 2.312-9.203 5.996-1.248 4.42.775 4.232 5.445-.502zm-6.858-.62c.45-2.99-4.52-5.688-14.294-7.763-7.17-1.522-10.334-.658-9.797 2.674.294 1.818 2.682 3.147 9.457 5.262 10.843 3.383 14.104 3.344 14.635-.174zm9.558-13.912c12.524-5.576 13.608-19.636 1.797-23.327-4.903-1.534-8.034-.708-9.91 2.614-1.438 2.543-.477 7.167 1.49 7.167.663 0 1.207.857 1.207 1.903 0 4.882-19.123 7.094-26.965 3.12-2.757-1.397-3.956-5.022-1.663-5.022 1.713 0 2.898-3.692 2.022-6.305-1.193-3.56-4.78-4.792-9.984-3.43-11.74 3.07-11.41 16.864.543 22.718 9.8 4.8 31.286 5.092 41.46.563zm-7.793-10.803c.725-.687.41-1.743-.806-2.7-2.66-2.09-2.52-5.204.4-8.767 2.195-2.676 2.47-6.68 3.224-47.074 1.3-69.61 6.477-121.972 13.3-134.533 2.716-5.002 2.335-5.02-4.684-.246-9.042 6.153-15.926 14.164-22.026 25.63-11.516 21.652-15.518 50.78-15.518 112.957 0 35.307.24 39.926 2.25 43.244 1.912 3.153 2.013 4.317.67 7.683-.87 2.183-1.263 4.27-.876 4.636 2.57 2.435 21.302 1.79 24.067-.83zm105.236-66.38c.392-.6-.475-3.636-1.927-6.744-2.263-4.848-3.175-5.653-6.4-5.653-10.102 0-26.34-4.515-43.083-11.977-9.668-4.31-13.007-5.3-14.166-4.2-2.958 2.8 1.958 9.45 9.57 12.945 6.755 3.1 25.636 6.91 34.25 6.91 4.996 0 5.114.226 2.27 4.336l-2.09 3.024 5.65.145c3.11.08 7.402.566 9.538 1.08 5.55 1.338 5.602 1.34 6.388.134z" stroke="#000" stroke-width="5.56"/><path d="M681.537 479.556l4.36-2.517 1.864 2.52c2.486 3.36 9.36 3.322 13.923-.077l3.488-2.598 2.922 2.598c3.84 3.417 11.012 3.422 15.59.013 3.207-2.39 3.654-2.437 5.774-.62 1.263 1.083 4.97 2.316 8.236 2.74 5.883.764 5.972.722 9.414-4.442 2.883-4.324 3.334-6.075 2.646-10.27-.456-2.78-.947-7.255-1.092-9.944-.26-4.87-.233-4.9 6.86-7.37 3.917-1.364 8.45-3.193 10.076-4.065 2.833-1.52 10.643-10.7 10.643-12.508 0-.48-3.052-1.214-6.78-1.632-14.834-1.664-17.346-9.63-7.703-24.424 15.725-24.127 25.214-47.624 25.278-62.592.028-6.69.41-8.937 1.27-7.482 3.512 5.946-2.782 30.876-12.317 48.78l-3.84 7.208 3.664-.843c2.015-.463 13.862-5.46 26.325-11.106 34.115-15.45 45.833-18.48 67.91-17.55 18.498.78 26.375 4.394 39.435 18.092 6.918 7.256 13.583 12.448 25.775 20.08 25.974 16.26 27.057 17.667 28.293 36.788 1.25 19.373.628 20.424-14.025 23.66-12.523 2.768-20.375 8.607-22.48 16.718-1.125 4.332 1.24 4.456 7.555.398l4.628-2.974 2.057 2.974c2.705 3.91 8.455 3.926 13.23.036l3.607-2.938 3.687 2.938c5.727 4.565 13.345 3.458 15.495-2.252.414-1.098 1.517-.746 3.75 1.195 4.185 3.637 14.914 5.197 16.073 2.337.442-1.09-.398-3.786-1.867-5.99-6.24-9.36-8.193-13.822-8.275-18.917-.112-7.086 2.002-10.505 10.062-16.268 9.79-7 12.816-16.033 5.37-16.033-4.597 0-9.23-4.065-12.187-10.687-6.008-13.46-4.83-28.552 4.187-53.657 9.158-25.5 10.174-30.202 10.21-47.256.03-13.79-.316-16.174-3.454-23.734-1.918-4.622-5.81-11.505-8.65-15.295l-5.16-6.89 6.627-5.49c20.234-16.762 16.095-44.197-8.263-54.768-7.452-3.234-9.314-3.52-22.373-3.43-7.834.05-19.78 1.082-26.545 2.29-6.9 1.23-18.577 2.22-26.587 2.252-12.724.05-14.885-.262-19.788-2.872-5.114-2.722-5.99-4.014-6.99-10.305-.207-1.293-1.11-2.583-2.01-2.867-1.74-.548-9.77 6.423-10.958 9.51-.585 1.524-1.063 1.42-2.78-.613-1.142-1.35-2.734-4.45-3.54-6.888-2.027-6.136.462-10.736 7.674-14.182l5.596-2.674-3.3-2.048c-6.808-4.225-18.384-1.335-22.57 5.635-1.185 1.973-2.477 3.59-2.872 3.594-.394.003-2.645-1.877-5.002-4.18-8.79-8.59-5.767-21.297 5.99-25.177 6.27-2.068 11.82-.49 12.973 3.69 1.762 6.383 7.24-2.007 6.258-9.584-.653-5.037-.555-5.212 2.93-5.212 4.848 0 15.165 6.363 18.357 11.32 3.706 5.757 3.436 14.823-.643 21.58l-3.202 5.306 4.19-.84c6.143-1.23 12.11-5.045 15.13-9.67 3.192-4.893 3.536-14.417.705-19.557-2.743-4.982-2.428-5.773 1.627-4.09 6.897 2.863 10.584 6.02 13.35 11.432 2.49 4.873 2.63 6.083 1.28 11.155-.83 3.13-2.682 7.246-4.113 9.15-2.227 2.96-2.303 3.458-.528 3.458 3.305 0 10.206-3.128 12.657-5.737 1.24-1.32 3.044-4.564 4.012-7.213l1.76-4.816 2.024 3.67c2.86 5.19 8.422 9.862 15.203 12.77 7.293 3.126 10.33 3.302 6.516.377-2.573-1.972-7.312-15.878-5.876-17.238.845-.8 10.748 6.818 22.053 16.967 10.695 9.6 17.415 12.746 27.238 12.746 12.547 0 19.853-10.923 14.214-21.25-3.29-6.023-10.614-6.86-14.897-1.702-1.97 2.372-2.51 4.258-1.933 6.746.706 3.047.43 3.453-2.346 3.453-3.647 0-10.836-4.668-23.605-15.323-19.472-16.247-43.132-30.02-60.215-35.05-10.963-3.228-34.383-4.488-45.528-2.45-12.062 2.208-26.33 9.11-34.1 16.5-13.773 13.094-13.992 30.52-.582 46.385l3.84 4.546-2.6 4.04c-3.783 5.875-3.46 13.783.804 19.61 1.876 2.564 3.77 4.662 4.207 4.66.437 0 .917-1.65 1.066-3.665.376-5.096 2.563-8.51 6.318-9.863 3.382-1.217 5.568-.642 21.052 5.538 16.288 6.5 43.076 6.948 71.56 1.194 13.965-2.82 30.43-2.656 37.675.38 13.28 5.562 16.357 20.036 6.596 31.022-4.226 4.756-8.3 6.692-21.984 10.448-10.412 2.857-12.88 3.047-36.544 2.81-20.218-.2-27.484.187-35.737 1.91-8.96 1.87-14.472 2.06-40.79 1.396l-30.43-.767 3.373 2.796c1.856 1.537 4.478 3.427 5.827 4.202 2.295 1.317 2.22 1.494-1.193 2.76-2.004.742-6.454 1.35-9.888 1.35h-6.244l-.84 5.306c-.463 2.918-.428 6.325.077 7.57.745 1.84.467 2.103-1.47 1.4-1.313-.478-4.97-1.417-8.126-2.087-3.157-.67-7.405-2.034-9.442-3.03-3.425-1.678-3.805-1.633-5.067.6-1.126 1.993-11.702 9.863-13.254 9.863-.25 0-.574-1.517-.718-3.372-.145-1.855-1.67-6.684-3.39-10.73-1.72-4.048-3.517-8.463-3.992-9.812-.717-2.035-1.04-2.14-1.906-.613-.573 1.012-1.41 3.77-1.86 6.132-.448 2.36-2.042 6.196-3.54 8.522l-2.724 4.23-1.737-3.616c-1.865-3.882-4.962-7.91-6.083-7.91-.378 0-1.023 1.243-1.432 2.76-.854 3.17-8.197 11.958-9.99 11.958-.66 0-1.2-2.484-1.2-5.52 0-3.034-.584-5.518-1.296-5.518-.712 0-1.295.786-1.295 1.746 0 2.333-6.27 9.292-8.372 9.292-.918 0-2.394.827-3.28 1.84-2.313 2.637-4.204 2.267-3.232-.633.456-1.36.16-4.533-.658-7.052l-1.933-5.957c-.31-.954-2.556-.7-7.312.824-7.685 2.463-10.26 2.028-6.308-1.068 1.445-1.132 3.642-5.05 4.884-8.71 1.24-3.66 3.07-6.907 4.068-7.216 1.397-.433 1.322.102-.323 2.327-1.176 1.59-2.14 3.732-2.145 4.763 0 1.03-.89 3.473-1.966 5.428s-1.753 3.748-1.504 3.985c.25.235 3.174-.876 6.498-2.47l6.044-2.898.025 2.593c.014 1.426.742 5.187 1.62 8.36l1.592 5.766 4.114-1.89c4.204-1.933 8.187-8.823 8.187-14.164 0-2.64 1.513-2.236 2.133.57.182.825 1.13 3.916 2.11 6.87l1.78 5.372 2.816-3.392c1.55-1.865 3.49-5.524 4.316-8.13 1.43-4.526 3.68-6.47 3.68-3.185 0 2.37 6.46 10.86 7.708 10.132.602-.353 1.802-3.54 2.666-7.083 1.796-7.37 4.695-12.38 6.537-11.303.692.405.962 1.192.6 1.748-.364.556 1.124 5.346 3.307 10.646 2.182 5.3 4.373 10.635 4.87 11.857.796 1.963 1.516 1.678 6.194-2.453 2.91-2.57 5.553-5.45 5.87-6.395.482-1.432 1.13-1.38 3.853.31 3.808 2.362 16.606 6.168 17.595 5.232.37-.35.75-3.712.843-7.47l.17-6.832 3.68.764c2.025.42 6.28.394 9.46-.058l5.777-.82-5.15-3.533c-2.83-1.943-5.695-4.458-6.363-5.588-.71-1.204-3.232-2.226-6.087-2.47-7.715-.654-21.388-8.323-21.388-11.994 0-.69 1.894.483 4.21 2.605 5.134 4.707 12.267 7.66 18.498 7.66h4.662l-2.884-3.835c-1.657-2.203-3.143-6.383-3.49-9.822-.557-5.48-1.136-6.352-6.86-10.33-3.437-2.39-7.695-5.973-9.46-7.96l-3.213-3.616-1.64 4.292c-.9 2.36-2.002 4.292-2.447 4.292-.445 0-2.178-1.38-3.85-3.066-1.673-1.686-3.377-3.06-3.787-3.052-.41.007-1.892 2.28-3.293 5.047l-2.547 5.034-1.97-2.903c-1.08-1.595-3.64-4.418-5.68-6.273-2.044-1.855-3.12-3.373-2.39-3.373s3.252 1.934 5.604 4.295l4.277 4.294 1.74-3.147c1.033-1.867 1.42-4.734.952-7.053-.683-3.38-.587-3.576.71-1.455.823 1.35 3.325 3.936 5.558 5.748l4.062 3.294 2.803-5.134c2.79-5.11 2.81-5.12 4.078-2.068 1.698 4.08 13.98 14.15 24.44 20.032 1.61.906.93-2.212-2.046-9.38-.788-1.9-1.433-5.323-1.433-7.608 0-3.39-.977-4.9-5.313-8.2-6.26-4.763-8.283-8.15-9.463-15.834-.478-3.113-1.573-6.575-2.434-7.694-1.277-1.66-1.49-.73-1.147 5.047.23 3.893-.276 8.735-1.125 10.758l-1.545 3.68-1.193-3.067c-.657-1.685-3.56-4.618-6.454-6.515-2.893-1.898-4.923-3.77-4.512-4.16.41-.39 3.388 1.34 6.614 3.844 4.914 3.813 5.997 4.226 6.678 2.547.8-1.974 0-10.562-1.546-16.564-.772-2.997-.704-2.98 2.993.716 2.726 2.725 4.234 5.976 5.402 11.65 1.484 7.206 2.232 8.406 8.896 14.257 4.003 3.513 7.486 6.19 7.74 5.95.255-.24.76-9.33 1.122-20.2.696-20.84-.09-25.8-5.11-32.238l-2.578-3.31 4.054-4.373c5.288-5.704 7.717-10.277 8.77-16.515l.857-5.075-4.575 4.333c-3.746 3.548-5.536 4.333-9.875 4.333-4.296 0-5.974-.72-8.87-3.805-3.474-3.702-9.63-7.264-15.55-8.997-2.185-.64-2.912-.36-2.912 1.12 0 1.083-1.208 4.212-2.684 6.953l-2.686 4.982-5.623-5.558c-3.45-3.41-7.543-6.064-10.588-6.865-7.78-2.046-8.202-1.843-8.202 3.954 0 8.794-3.755 10.432-10.512 4.587-5.15-4.455-9.423-5.424-19.19-4.35l-7.544.83 1.358 3.404c1.133 2.845.878 4.043-1.55 7.274-3.94 5.24-9.063 7.51-16.95 7.51-3.63 0-8.176.752-10.1 1.67-1.922.92-6.7 1.977-10.618 2.352-3.917.375-8.092 1.044-9.277 1.487-1.856.692-2.06.12-1.462-4.1.915-6.457-3.596-11.22-10.627-11.22-9.12 0-13.33 8.16-9.757 18.92.69 2.072 1.588 5.34 2 7.26.428 1.994 4.537 7.283 9.57 12.318 4.85 4.854 9.435 9.905 10.187 11.224.753 1.32 3.24 3.435 5.53 4.704l4.16 2.305-.55-4.45c-.602-4.893.464-5.66 3.067-2.208.93 1.234 3.295 3.23 5.254 4.433 3.085 1.897 3.56 1.935 3.56.288 0-1.045.63-3.454 1.398-5.353l1.398-3.452 2.425 4.697c1.333 2.584 5.67 8.455 9.638 13.048 7.7 8.912 12.39 18.87 9.968 21.164-.982.93-3.636.858-9.137-.248-4.266-.858-9.54-1.31-11.723-1.008-4.457.62-4.808.044-2.067-3.388 2.893-3.623 2.433-4.22-3.25-4.22-6.577 0-22.902-3.152-29.168-5.632-6.094-2.41-7.5-1.81-9.293 3.97-.81 2.6-2.287 7.313-3.286 10.472l-1.816 5.745 6.592-.636c3.626-.35 8.29-1.143 10.364-1.764 2.074-.622 3.96-.952 4.19-.734.23.218-.696 2.462-2.055 4.988l-2.473 4.592 4.11-.838c2.26-.46 5.662-1.588 7.558-2.506 3.3-1.596 3.565-1.48 6.168 2.698 3.2 5.137 5.76 4.926 6.33-.522.586-5.633 2.44-4.8 5.925 2.664 3.35 7.178 6.838 9.712 7.508 5.457.222-1.414 2.028-3.713 4.012-5.11 4.014-2.83 7.038-1.98 8.772 2.46 1.795 4.595-2.208 9.33-13.853 16.39-23.327 14.14-36.886 33.48-40.757 58.128-3.492 22.233 7.413 45.207 29.29 61.708 10.47 7.896 27.1 16.23 26.043 13.05-4.488-13.505-4.34-39.273.25-43.62.69-.653.452 2.036-.526 5.974-3.645 14.672-2.062 26.363 7.282 53.763 8.45 24.782 7.28 35.374-4.68 42.375-3.842 2.248-6.315 2.618-16.644 2.493-11.207-.135-12.428.09-16.026 2.958-3.488 2.78-8.01 11.906-8.01 16.165 0 2.307 2.562 2.002 7.596-.905zm90.817-214.924c0-1.8-5.284-6.675-10.638-9.817-4.204-2.467-4.9-2.542-4.908-.53-.015 3.055-2.73 10.73-3.798 10.73-.602 0-1.49-1.5-1.977-3.332-.486-1.833-2.524-5.446-4.53-8.03l-3.646-4.695-2.84 4.35c-2.646 4.057-7.23 8.03-9.265 8.03-.486 0-.58-2.137-.212-4.748.402-2.836.092-5.086-.77-5.59-.794-.465-1.443-.303-1.443.36 0 1.528-6.367 8.75-7.714 8.75-.556 0-1.333-2.07-1.727-4.598-.395-2.53-1.066-6.53-1.49-8.892-.427-2.36.48-.76 2.014 3.558l2.788 7.85 3.058-4.784c1.68-2.63 3.06-5.506 3.064-6.39 0-.882.573-1.273 1.264-.87.692.406 1.654 3.57 2.14 7.03l.88 6.292 3.365-3.69c1.85-2.028 4.018-4.744 4.818-6.035 1.427-2.303 1.507-2.3 4.346.106 1.59 1.35 4.036 4.576 5.434 7.17 1.4 2.596 2.73 4.527 2.96 4.293.227-.235.74-2.91 1.138-5.945.397-3.035.752-5.63.788-5.77.198-.75 10.135 5.71 13.812 8.98 2.363 2.1 4.607 3.527 4.987 3.167.38-.36.69-3.46.69-6.892 0-5.317-.563-6.742-3.815-9.648-3.74-3.343-3.843-3.36-5.225-.916-1.793 3.173-3.908 3.22-3.908.084 0-2.287-7.066-11.08-8.904-11.08-.476 0-1.964 1.932-3.307 4.293-1.342 2.36-2.786 4.29-3.208 4.287-1.812-.01-11.773-11.117-11.77-13.122 0-1.594.672-1.186 2.42 1.477 1.326 2.023 3.977 5.044 5.89 6.712 3.872 3.38 5.28 2.558 6.775-3.953.426-1.855 1.166-3.373 1.644-3.373 1.656 0 10.328 9.21 11.547 12.265l1.225 3.066.928-3.372c1.134-4.124 2.385-4.277 4.196-.514.755 1.572 4.49 4.84 8.3 7.263l6.926 4.405 1.39-4.43c.764-2.437 1.777-3.837 2.25-3.112.706 1.082-1.094 8.423-2.453 10.002-.203.237-2.447-1.07-4.987-2.905l-4.617-3.335-.02 5.97c-.012 3.285-.368 7.213-.798 8.73-.84 2.968-3.07 3.803-3.07 1.15zm-34.535-47.605c-8.232-6.872-9.482-8.445-9.3-11.702l.195-3.467.537 3.35c.313 1.954 2.506 4.884 5.268 7.04l4.732 3.695 2.908-3.364c1.6-1.85 2.928-4.053 2.954-4.897.067-2.198.462-2.013 6.035 2.822 4.95 4.296 5.027 4.317 5.764 1.533.41-1.552.265-4.474-.324-6.493-1.618-5.55-1.3-6.387 1.15-3.04 1.222 1.668 3.186 4.025 4.365 5.24 2.053 2.112 2.178 2.086 2.94-.614.44-1.55.807-4.39.817-6.308l.018-3.488 4.464 5.06c4.17 4.728 4.555 4.902 5.828 2.65.75-1.326 1.37-4.517 1.382-7.09.014-3.326.364-4.165 1.21-2.9 1.412 2.115.432 7.87-2.176 12.777l-1.87 3.52-2.458-3.826c-3.142-4.893-4.188-4.814-6.204.466-1.905 4.99-3.144 5.37-5 1.533-1.202-2.483-1.43-2.18-2.283 3.037l-.948 5.797-5.678-4.407-5.68-4.406-2.552 2.902c-1.404 1.596-2.572 3.592-2.595 4.435-.052 1.828-1.418 1.886-3.5.147zm73.223-25.595c-2.997-2.7-5.06-5.275-4.587-5.723.473-.45 1.006-.578 1.185-.287.18.292 2.628 2.867 5.443 5.723 6.482 6.577 5.15 6.763-2.04.286zM713.51 181.35c-2.727-3.685-2.54-6.126.78-10.12 2.396-2.887 3.49-3.28 7.678-2.747 2.685.34 8.464 2.714 12.84 5.272 5.056 2.956 10.286 4.935 14.336 5.427 3.507.426 6.376.587 6.376.357 0-.23-1.457-2.604-3.237-5.275-4.23-6.343-4.084-7.024.685-3.224 4.896 3.902 10.75 5.043 23.837 4.646l6.393-.195-3.71-3.665c-5.186-5.127-3.59-5.587 2.14-.615 5.37 4.662 5.034 4.99-6.273 6.12-4.805.48-9.972.13-14.267-.96-6.425-1.636-6.675-1.61-5.457.543.702 1.242 1.838 2.257 2.525 2.257.688 0 1.25.63 1.25 1.398 0 2.365-13.88.286-20.51-3.072-15.152-7.672-17.06-8.336-20.665-7.2-2.007.633-4.015 2.484-4.707 4.34-2.31 6.186 6.466 10.995 10.085 5.526 1.05-1.585.804-2.67-1.04-4.6-2.525-2.64-2.288-3.018 1.12-1.78 2.42.88 2.746 6.69.495 8.822-2.576 2.44-8.454 1.75-10.674-1.254zm59.684-15.283c-1.895-1.794-.41-2.234 8.084-2.392 10.51-.196 16.89-1.947 24.42-6.7 6.033-3.81 7.67-3.06 1.943.89-5.224 3.602-13.372 6.37-21.238 7.218-3.81.41-8.15.978-9.647 1.262-1.497.285-3.1.16-3.56-.278zm90.26 312.994l4.7-3.02 3.19 3.02c4.18 3.96 9.077 3.87 13.095-.236 1.753-1.792 3.327-3.033 3.498-2.76.17.275.953 1.603 1.738 2.952.993 1.708 3.036 2.567 6.722 2.827 4.442.313 5.635-.117 7.4-2.668l2.103-3.04 4.63 2.973c12.668 8.143 19.42-.4 13.757-17.41-2.88-8.65-1.296-13.513 7.983-24.522 3.913-4.642 7.117-9.597 7.12-11.01 0-2.255-.723-2.557-5.93-2.454-4.984.1-6.44-.435-9.065-3.323-4.266-4.697-4.013-10.076.757-16.044l3.81-4.77-6.76-4.586c-3.718-2.523-10.422-8.492-14.9-13.265-10.052-10.72-19.938-15.803-32.973-16.955l-8.742-.773.013 6.615c.018 8.517 4.015 16.71 14.925 30.588 12.406 15.78 13.272 18.222 13.774 38.846l.424 17.443-3.59 3.404c-3.243 3.078-4.706 3.47-15.172 4.074-9.965.575-12.058 1.09-14.982 3.68-3.884 3.44-5.045 5.31-6.244 10.062-.7 2.77-.416 3.372 1.583 3.372 1.337 0 4.548-1.36 7.133-3.02zm-266.635-45.08c1.108-1.498 2.015-3.92 2.015-5.378 0-2.205.985-2.794 5.83-3.482l5.833-.828-3.89-3.1c-4.62-3.68-5.047-6.558-.975-6.564 4.056 0 10.925-4.212 11.97-7.328.485-1.45.18-3.384-.69-4.377-2.275-2.595-6.55-2.203-7.344.672-.854 3.09-2.283 3.1-5.523.03-4.873-4.615-4.982-14.168-.225-19.73 2.24-2.623 2.22-2.795-.637-5.502-3.074-2.91-5.27-8.675-3.826-10.042.46-.435 2.888-.088 5.397.772 3.566 1.22 4.973 1.24 6.442.084 4.45-3.497-.372-7.994-7.507-7.002-2.872.4-4.06 0-4.47-1.49-.313-1.13-2.825-2.605-5.655-3.32-5.057-1.278-5.092-1.263-5.092 2.22 0 3.82-2.18 4.54-6.32 2.09-3.366-1.99-6.63-.445-6.63 3.138 0 3.344 3.363 4.993 9.39 4.604 4.62-.298 4.792 3.14.403 8.08l-3.158 3.553 2.5 3.592c3.705 5.32 3.393 14.158-.654 18.547l-3.172 3.44-2.08-2.76c-2.893-3.834-6.848-3.577-7.933.516-.71 2.68-.123 3.905 3.233 6.745 2.256 1.91 5.55 3.47 7.318 3.47 4.378 0 4.207 3.444-.344 6.923l-3.56 2.72 5.502.855c3.027.47 5.504 1.353 5.504 1.963 0 2.34 3.814 9.616 5.04 9.616.708 0 2.194-1.227 3.303-2.726zm71.658-31.056c5-1.97 15.822-11.135 15.822-13.398 0-.712-2.987-3.997-6.638-7.3-7.682-6.95-16.04-18.657-18.204-25.5-1.13-3.57-6.584-9.68-21.95-24.583l-20.45-19.832-5.892 1.494c-3.242.82-7.196 1.513-8.79 1.537-2.743.043-2.693.2.955 3.024l3.85 2.978 5.396-2.995c5.23-2.903 5.416-2.92 6.06-.584.38 1.367-.436 3.738-1.882 5.48-1.4 1.687-2.2 3.6-1.774 4.253.425.653-.92 2.016-2.993 3.03-3.84 1.882-6.505 8.072-3.475 8.072 2.726 0 8.738-7.417 8.045-9.926-.355-1.284-.183-2.606.38-2.936 2.342-1.37 2.196 4.453-.183 7.317-1.4 1.687-2.2 3.602-1.774 4.254.425.653-.92 2.016-2.993 3.03-3.815 1.87-6.507 8.072-3.503 8.072 2.944 0 8.857-7.09 8.124-9.74-.383-1.388-.234-2.793.33-3.123 1.577-.923 2.428 3.674 1.097 5.926-.713 1.207-.707 2.854.016 4.16 1.31 2.366-.017 6.91-2.43 8.323-1.035.606-.334 1.794 2.175 3.69 3.63 2.74 3.702 3.03 3.702 15.13 0 10.11.408 12.72 2.266 14.48 2.084 1.976 2.266 1.984 2.266.09 0-2.07 3.63-4.6 6.6-4.6.878 0 6.353 4.64 12.17 10.313 5.85 5.705 11.972 10.56 13.706 10.87 1.723.306 3.59.633 4.146.725.557.092 3.18-.687 5.827-1.73zm-62.52-48.928c0-3.26-6.725-6.74-14.768-7.642-6.493-.728-6.6-.687-6.6 2.557 0 2.686 1.022 3.742 5.504 5.694 7.203 3.135 15.863 2.804 15.863-.608zm7.374-.298c3.28-2.976 4.834-6.516 2.86-6.516-2.27 0-8.293 5.405-8.293 7.442 0 3.18 1.118 2.988 5.432-.926zm-6.996-9.636c.278-1.84-.86-3.067-4.27-4.607-7.356-3.322-16.15-4.86-18.268-3.196-3.9 3.065-1.302 7.182 5.003 7.923 2.54.298 5.98 1.072 7.65 1.72 4.845 1.882 9.453 1.024 9.886-1.84zm0-9.85c.396-2.625-1.282-3.564-14.98-8.384-10.224-3.6-14.75-1.902-11.482 4.305 1.138 2.163 3.05 3.15 7.334 3.792 3.187.478 7.542 1.41 9.68 2.074 5.707 1.77 9.005 1.147 9.448-1.79zm6.865-9.234c2.068-2.095 3.76-4.567 3.76-5.494 0-3.006-8.163 2.312-9.203 5.996-1.248 4.42.775 4.232 5.445-.502zm-6.858-.62c.45-2.99-4.52-5.688-14.294-7.763-7.17-1.522-10.334-.658-9.797 2.674.294 1.818 2.682 3.147 9.457 5.262 10.843 3.383 14.104 3.344 14.635-.174zm9.558-13.912c12.524-5.576 13.608-19.636 1.797-23.327-4.903-1.534-8.034-.708-9.91 2.614-1.438 2.543-.477 7.167 1.49 7.167.663 0 1.207.857 1.207 1.903 0 4.882-19.123 7.094-26.965 3.12-2.757-1.397-3.956-5.022-1.663-5.022 1.713 0 2.898-3.692 2.022-6.305-1.193-3.56-4.78-4.792-9.984-3.43-11.74 3.07-11.41 16.864.543 22.718 9.8 4.8 31.286 5.092 41.46.563zm-7.793-10.803c.725-.687.41-1.743-.806-2.7-2.66-2.09-2.52-5.204.4-8.767 2.195-2.676 2.47-6.68 3.224-47.074 1.3-69.61 6.477-121.972 13.3-134.533 2.716-5.002 2.335-5.02-4.684-.246-9.042 6.153-15.926 14.164-22.026 25.63-11.516 21.652-15.518 50.78-15.518 112.957 0 35.307.24 39.926 2.25 43.244 1.912 3.153 2.013 4.317.67 7.683-.87 2.183-1.263 4.27-.876 4.636 2.57 2.435 21.302 1.79 24.067-.83zm105.236-66.38c.392-.6-.475-3.636-1.927-6.744-2.263-4.848-3.175-5.653-6.4-5.653-10.102 0-26.34-4.515-43.083-11.977-9.668-4.31-13.007-5.3-14.166-4.2-2.958 2.8 1.958 9.45 9.57 12.945 6.755 3.1 25.636 6.91 34.25 6.91 4.996 0 5.114.226 2.27 4.336l-2.09 3.024 5.65.145c3.11.08 7.402.566 9.538 1.08 5.55 1.338 5.602 1.34 6.388.134z" fill="#ffb700"/></svg>