<svg width="1800" xmlns="http://www.w3.org/2000/svg" height="900"><path fill="#cc092f" d="M0 0h1800v900H0z"/><path fill="#ffd200" d="M0 0h1200v900H0z"/><path fill="#0046ae" d="M0 0h600v900H0z"/><path fill="#b07f55" d="M816.5 531.96l8.36-.62.73 7.13 7.69-3.25 2.08 9.82 16.95-17.18 23.57 11.62-44.73 79.71-15.94 11.78 28.73 10.78 29.47-34.35-4.26 22.56-8.76 21.89 35.87 20.66 38.96-23.01-19.15-40.19 6.23-2.86 25.26 36.59 27.51-13.64-35.76-41.81-23.52-50.3 24.81-8.19 16.9 16.22 2.52-10.55 8.93 4.32-1.13-8.81 8.98 1.96-10.94-17.34 27.78-23.3 17.56 54.9 25.9 29.58 5.5-.68 18.8 23.24-.2-322.01-34.7-36.54-33.76 27.5 1.41 29.64-15.16.56-22.56 11.56-12.63 4.15-5.95 1.18-7.75-8.42-10.38-20.77-.68-20.48 6.4-13.36-1.18-12.63 5.74.11-3.66-8.53 5.06-2.02-7.58-6.68 2.64-3.09-28.63-12.29-21.84-1.46-5.89 2.58-2.86 5.34 5.78 16.33-6.18 6.17 6.12 11.96.23 26.21-4.89 22.12-9.82 16.72-5.16 1.97-12.3-2.81-25.76-13.58-16.28-.9-1.12-31.55-31.21-25.08-31.82 34.35-4.55 10.1 1.46 312.53 20.6-24.92 4.32 1.07 21.27-23.02 18.08-45.57 5.33-18.92 24.36 28.79"/><path d="M847.69 183.24c-3.223 0-6.038.822-7.68 2.1 2.61.76 4.506 3.166 4.506 6.092v7.423h-7.423c-2.907 0-5.315-1.87-6.093-4.454-1.277 1.643-2.098 4.458-2.098 7.68 0 3.223.82 6.04 2.1 7.68.76-2.61 3.165-4.507 6.092-4.507H844.515v35.682c0 2.805-1.754 5.132-4.198 5.99 3.54.48 6.588 5.233 7.423 7.832.838-2.593 3.885-7.35 7.425-7.833-2.47-.842-4.25-3.166-4.25-5.99V205.25h7.423c2.908 0 5.315 1.87 6.093 4.457 1.278-1.642 2.1-4.46 2.1-7.68 0-3.223-.82-6.038-2.1-7.68-.76 2.61-3.166 4.505-6.092 4.505H850.914v-7.422c0-2.908 1.87-5.315 4.455-6.093-1.64-1.276-4.458-2.098-7.68-2.098z"/><path d="M847.69 184.78c-1.678 0-3.156.314-4.402.716 1.664 1.447 2.765 3.544 2.765 5.94v7.422c0 .106-.03.207-.052.308v1.177h-1.177c-.1.02-.202.05-.307.052H837.092c-2.367 0-4.44-1.083-5.886-2.713-.416 1.26-.768 2.697-.768 4.403 0 1.678.314 3.156.716 4.402 1.447-1.664 3.543-2.763 5.938-2.763h8.959c-.01.154-.05.303-.05.46v.767c.02.1.05.202.05.308v35.681c0 2.316-1.194 4.138-2.764 5.58 1.123.692 2.09 1.564 2.918 2.56.737.885 1.03 1.75 1.536 2.66.507-.907.8-1.775 1.536-2.66.815-.978 1.768-1.82 2.867-2.51-1.584-1.436-2.765-3.304-2.765-5.63V203.772h1.23c.1-.02.2-.05.306-.05h7.424c2.366 0 4.438 1.083 5.886 2.712.415-1.258.77-2.695.77-4.402 0-1.677-.316-3.156-.718-4.402-1.447 1.664-3.543 2.763-5.938 2.763H850.915c-.105 0-.207-.03-.307-.052h-1.178v-1.176c-.022-.1-.052-.2-.053-.308v-7.422c0-2.367 1.084-4.438 2.713-5.887-1.26-.414-2.696-.768-4.402-.768z" fill="#f5d402"/><path fill="#d10429" d="M798.64 565.51l-10.48-.32-10.79 5.08-3.5 11.75 1.59 5.4 11.75 12.7 9.53-5.4 7.62-8.25 1.9-7.31 27.31-35.56-1.27-8.89-6.04 3.81-2.22-7.3-3.81 1.27M990.11 589l12.69 11.44 3.8-.96 14-16.19-3.2-11.11-13-7.94-9.85.95-21.91-32.7-3.81-1.59-1.58 6.35-6.36-1.9-2.54 6.98 28.89 39.06"/><path d="M801.375 591.952l16.2 8.838-3.93 18.03-16.2-8.84z"/><path d="M725.9 418.73l-5.836 2.663L786 565.813h7.014L725.9 418.733zm77.762 170.32l-4.76 4.915 2.97 6.553 5.783-2.662-3.992-8.806z"/><path fill="#f5d402" d="M803.71 597.062l10.048 5.482-2.438 11.183-10.05-5.482z"/><path fill="#0b45bb" d="M895.48 551.22l40.02-21.91 46.98-22.22 8.9-13.66v-76.52l-190.52-.31.32 77.79 5.72 9.21 36.19 20 46.36 21.27"/><path d="M798.65 322.95l2.405 7.013-.563 89.333 3.328 3.685 27.49 3.278 29.744-4.352 29.182 4.507.358 1.79s4.32-.658 5.682-.87l5.63.87.36-1.79 29.18-4.507 29.744 4.352 27.49-3.277 3.33-3.684-.565-89.333 2.407-7.013-32.917.254s-37.62.374-64.657.667c-27.03-.292-64.71-.666-64.71-.666l-32.916-.254h-.002z" fill="#d10429"/><path d="M861.05 421.91s-20.387-4.984-28.002-15.05c-13.313 11.975-29.232 16.125-29.232 16.125s16.607 7.498 29.232 17.048c5.817-8.336 28.002-18.123 28.002-18.123zM931.44 421.91s22.186 9.786 28.004 18.123c12.623-9.55 29.23-17.048 29.23-17.048s-15.918-4.15-29.23-16.126c-7.615 10.065-28.004 15.05-28.004 15.05zM896.22 330.42l-5.735 16.28-15.614-7.423 7.424 15.615-16.28 5.784 16.28 5.785-7.423 15.564 15.615-7.423 5.735 16.28 5.785-16.28 15.614 7.424-7.423-15.563 16.28-5.784-16.28-5.784 7.422-15.615-15.615 7.424-5.785-16.28z"/><path fill="#f5d402" d="M863.64 451.7l5.62-6.07 6.28 6.29-5.83 5.84M929.43 451.7l-6.06-6.74-6.29 6.51 5.62 6.06M916.63 464.27l-2.91 6.51-.23 17.96 4.72 10.1 6.28 2.7-.89-23.58 4.26-16.39M868.81 481.78v19.31l5.61-4.04 3.82-8.76.67-15.26-2.92-9.21-11.22-2.02M946.49 505.58l-.22-11.68 9.88-13.46 11.67-2.7-13.02-6.29-12.57 2.7-6.51 7.63-.68 12.35 9.21 10.78M838.95 506.26l3.37-6.29 5.38 3.59 6.51-1.35 4.27-6.51-2.92-6.06-3.14-2.47 4.49-2.47 1.8-7.41-6.07-6.96-5.83.9-2.92 2.24-1.35-5.38-6.96-4.05-5.84 2.25-2.92 6.06 1.58 5.39-6.07-.67-4.94 4.71-.67 6.29 3.37 4.04 4.71 1.57 2.7-.22-2.25 5.61 1.8 5.61 5.61 3.14"/><path d="M896.28 341.38l3.686 10.394 9.93-4.76-4.71 9.98 10.343 3.688-10.343 3.686 4.71 9.93-9.93-4.71-3.738 10.342-3.687-10.34-9.93 4.71 4.71-9.932-10.342-3.686 10.342-3.687-4.71-9.982 9.93 4.76 3.738-10.393z" fill="#ffd200"/><path d="M863.46 327.97c-.94 6.577-34.042 20.25-34.042 47.814 0 35.29 33.02 43.617 33.02 43.617l-1.385 2.51-8.036 14.64s13.645.683 20.887 6.86c8.733 7.45 7.883 23.23 7.883 34.71 0 9.045-1.143 18.59-5.784 22.524-6.232 5.284-10.445 5.675-10.445 11.878 0 5.174 3.977 6.21 10.445 9.625 8.287 4.373 7.9 10.238 20.22 10.238 12.32 0 11.985-5.864 20.273-10.238 6.468-3.414 10.444-4.45 10.444-9.625 0-6.203-4.214-6.594-10.444-11.878-4.64-3.936-5.784-13.48-5.784-22.524 0-11.48-.85-27.26 7.883-34.71 7.243-6.176 20.886-6.86 20.887-6.86l-8.038-14.64-1.38-2.51s33.018-8.325 33.018-43.616c0-27.563-33.103-41.237-34.044-47.814-3.235 11.38 11.058 27.1 11.058 45.715 0 24.086-17.764 25.24-17.764 25.24-4.157 0-5.84 2.967-7.475 2.967-3.497-.365-5.143-4.813-8.6-4.813-3.248 0-5.74 5.016-10.034 5.016-4.292 0-6.735-5.017-9.983-5.017-3.456 0-5.103 4.447-8.6 4.812-1.634 0-3.32-2.968-7.476-2.968 0 0-17.763-1.153-17.763-25.24 0-18.614 14.296-34.335 11.058-45.714z"/><path d="M832.74 411.88c6.73 7.703 17.407 10.648 17.407 10.648-.002 0-17.1 12.696-17.1 12.696l-.205.255-.358-.308-18.94-11.877s12.086-4.167 19.197-11.416z" fill="#ffd200"/><path d="M858.65 337.95c1.357 2.924-11.058 20.95-11.058 35.734 0 18.128 9.667 28.82 22.576 28.82 2.462 0 5.155 3.33 7.475 3.33 3.782 0 6.298-4.2 8.6-4.2 2.928 0 4.9 4.608 9.983 4.608s7.107-4.607 10.034-4.607c2.302 0 4.818 4.198 8.6 4.198 2.32 0 5.012-3.328 7.475-3.328 12.91 0 22.577-10.693 22.577-28.82 0-14.785-12.416-32.81-11.058-35.735 0 0 24.214 17.37 24.214 37.832 0 32.963-33.43 41.11-33.43 41.11l7.526 16.943s-10.362 1.554-16.69 6.656c-8.438 6.806-8.55 25.192-8.55 37.627 0 14.648.546 20.855 5.838 24.83 5.58 4.192 9.777 5.095 9.777 9.368 0 3.723-4.346 5.246-9.984 7.73-6.413 2.827-7.052 7.73-16.33 7.73-9.28 0-9.867-4.903-16.28-7.73-5.637-2.484-9.983-4.006-9.983-7.73 0-4.273 4.197-5.176 9.777-9.37 5.292-3.973 5.836-10.18 5.836-24.828 0-12.435-.11-30.82-8.55-37.626-6.327-5.103-16.688-6.655-16.688-6.655l7.524-16.944s-33.428-8.144-33.428-41.108c0-20.463 24.214-37.832 24.214-37.832h.002z" fill="#ffd200"/><path d="M959.75 411.88c7.112 7.248 19.198 11.415 19.198 11.415s-12.61 6.28-18.943 11.877c.238 1.155-.312.268-.357.307-.295.375-.113-.142-.204-.256-5.986-6.87-17.098-12.696-17.098-12.696s10.676-2.945 17.405-10.648z" fill="#ffd200"/><path d="M869.4 443.61l-7.935 7.934 7.935 7.935 7.935-7.936-7.935-7.934zM923.1 443.61l-7.934 7.934 7.934 7.935 7.935-7.936-7.935-7.934z"/><path d="M869.4 447.4l4.147 4.145-4.147 4.2-4.198-4.2 4.198-4.145zM923.1 447.4l4.2 4.145-4.2 4.2-4.146-4.2 4.146-4.145z" fill="#ffd200"/><path d="M862.08 459.48c1.576 3.9 5.323 15.977 5.323 30.46 0 10.025-.972 15.307-.972 15.307s11.187-3.293 13.415-14.64c1.044-5.32 2.207-24.92-3.175-28.26l-14.59-2.867zM930.42 459.48l-14.59 2.868c-5.382 3.34-4.22 22.938-3.175 28.26 2.227 11.347 13.413 14.64 13.413 14.64s-.972-5.282-.972-15.307c0-14.482 3.747-26.56 5.325-30.46zM834.9 462.66c-.625.027-1.266.098-1.895.255-5.03 1.262-8.07 6.385-6.808 11.416.193.77.51 1.482.87 2.15-.733-.243-1.498-.405-2.304-.46-.323-.022-.655-.01-.972 0-4.76.16-8.73 3.903-9.06 8.755-.354 5.174 3.58 9.63 8.755 9.983.772.052 1.523.024 2.25-.103-.444.61-.83 1.263-1.124 1.996-1.936 4.814.41 10.352 5.223 12.29 4.812 1.934 10.298-.462 12.234-5.274.296-.735.46-1.452.564-2.202.444.615.977 1.18 1.587 1.69 3.98 3.327 9.93 2.8 13.26-1.178 3.328-3.978 2.8-9.88-1.18-13.208-.6-.504-1.27-.9-1.944-1.228.723-.232 1.426-.552 2.098-.972 4.396-2.755 5.726-8.61 2.97-13.004-1.894-3.02-5.222-4.574-8.55-4.35-1.512.1-3.028.57-4.402 1.433-.67.42-1.267.888-1.79 1.433 0-.756-.065-1.534-.257-2.303-1.103-4.403-5.15-7.305-9.52-7.117v.002z"/><path d="M867.2 463.88l7.833 1.64c2.897 3.997 2.405 10.46 2.405 19.454 0 9.067-6.808 12.54-6.808 12.54 0-21.793-2.247-27.033-3.43-33.633zM925.3 463.88c-1.185 6.602-3.43 11.84-3.43 33.634 0 0-6.808-3.474-6.808-12.54 0-8.994-.492-15.456 2.406-19.455l7.832-1.64zM835.46 466.6c3.393-.146 6.512 2.105 7.372 5.528.204.816.226 1.618.153 2.407-.06.654-.234 1.248-.46 1.842-1.133-.414-2.36-.615-3.635-.615-3.16 0-5.987 1.39-7.935 3.585-.51-.452-.955-.952-1.33-1.536-.42-.648-.775-1.358-.973-2.15-.982-3.912 1.41-7.875 5.324-8.856.488-.124 1-.185 1.485-.205h.002z" fill="#ffd200"/><path d="M952.43 469.62c-12.018 0-20.813 9.262-19.605 20.63 1.017 9.587 8.808 17.62 18.43 19.914-1.644-2.687-2.736-5.682-3.073-8.856-1.205-11.37 7.588-20.58 19.607-20.58 1.893 0 3.728.233 5.527.666-4.237-6.947-12.215-11.775-20.887-11.775z"/><path d="M850.1 472.23c2.347.078 4.598 1.294 5.937 3.43 2.144 3.418 1.115 7.942-2.303 10.085-.714.447-1.478.744-2.254.922-.646.15-1.303.135-1.945.102.004-.105 0-.202 0-.31 0-4.348-2.615-8.11-6.348-9.776.264-.638.574-1.246 1.023-1.792.482-.583 1.063-1.11 1.742-1.536 1.282-.804 2.736-1.174 4.146-1.126zM952.43 473.87c3.762 0 7.376 1.152 10.495 3.072-11.73 2.268-20.17 12.628-18.942 24.727-3.738-3.097-6.473-7.267-6.962-11.878-.95-8.98 5.572-15.922 15.41-15.922zM826.5 478.27c.85.06 1.614.294 2.354.613.592.26 1.14.59 1.638.973-1.422 1.82-2.252 4.12-2.252 6.604 0 1.95.523 3.754 1.433 5.325-.618.387-1.267.693-1.995.87-.707.173-1.44.257-2.203.205-4.024-.276-7.083-3.756-6.808-7.78.276-4.026 3.81-7.086 7.833-6.81zM838.89 479.35c3.907 0 7.065 3.21 7.065 7.118 0 3.907-3.158 7.065-7.065 7.065-3.91 0-7.066-3.158-7.066-7.065 0-3.91 3.158-7.118 7.066-7.118zM849.48 487.48c.7.078 1.375.246 2.047.512.698.278 1.39.617 1.996 1.126 3.094 2.59 3.46 7.195.87 10.29-2.588 3.094-7.195 3.51-10.29.922-.652-.547-1.126-1.202-1.535-1.895-.324-.55-.535-1.137-.716-1.74 4.12-1.19 7.203-4.822 7.628-9.214zM830.03 492.4c1.912 2.832 5.177 4.71 8.858 4.71.773 0 1.524-.1 2.25-.257.155.672.25 1.35.206 2.05-.047.757-.162 1.507-.46 2.252-1.506 3.742-5.78 5.55-9.523 4.044-3.74-1.506-5.6-5.78-4.095-9.523.305-.755.726-1.413 1.23-1.996.442-.513.972-.92 1.535-1.28z" fill="#ffd200"/><path d="M883.58 509.81c-6.567 0-10.75 1.386-10.75 3.38 0 1.993 4.184 3.327 10.75 3.327 1.75 0 3.737-1.02 3.737-3.328s-1.988-3.38-3.737-3.38zM908.92 509.81c-1.75 0-3.737 1.07-3.737 3.38 0 2.308 1.987 3.327 3.737 3.327 6.568 0 10.75-1.333 10.75-3.328 0-1.995-4.183-3.38-10.75-3.38zM1100.1 393.65l-11.365 8.294 1.28 2.712s-2.08.714-3.02 2.56.614 4.454.614 4.454-10.805-.943-12.492.154c-1.528.99.647 8.474-.36 14.795-1.4 8.81-4.874 8.07-5.016 9.776-.138 1.66 1.33 4.25 1.33 4.25s-2.025.637-2.457 1.484c-.695 1.362.484 3.875-.358 5.528-4.7 9.223-11.64 22.836-16.228 31.843-.642 1.258-2.364 1.738-3.227 3.43-.796 1.563-.153 3.84-.153 3.84s-3.04.182-4.096 2.253c-1.12 2.2-.46 5.17-.46 5.17s-1.924.246-2.87 2.1c-1.008 1.98.7 3.02.26 3.89-6.17 12.102-13.434 26.368-17.867 35.068-1.63 3.2-7.338 3.84-10.65 10.342-3.214 6.306 1.382 10.955 1.382 10.955s-4.773.432-6.04 2.92c-1.293 2.534-.27 6.383 3.173 8.138 3.444 1.754 7.207.334 8.5-2.2 1.267-2.488-1.28-6.605-1.28-6.605s6.462.93 9.674-5.376c3.313-6.5.52-11.44 2.15-14.64 4.434-8.7 11.7-22.966 17.867-35.07.445-.87 2.267-.116 3.276-2.097.944-1.853 0-3.532 0-3.532s2.822-1.23 3.943-3.43c1.056-2.072-.563-4.66-.563-4.66s2.223-.79 3.02-2.353c.862-1.693.228-3.35.87-4.61 4.59-9.005 11.53-22.62 16.228-31.84.843-1.655 3.555-2.22 4.25-3.585.43-.846-.256-2.866-.256-2.866s2.988-.295 4.248-1.382c1.298-1.118-1.337-3.516 4.967-9.83 4.522-4.527 11.817-7.19 11.722-9.01-.106-2.01-7.22-10.186-7.22-10.186s3.002-.253 3.943-2.098c.94-1.846.308-3.994.308-3.994l2.97-.512V393.65zM993.26 596.43c-1.456.147-2.366 1.01-2.66 1.588-.45.877-.53 2.076 0 3.12 0 0-3.584-1.12-4.813-.51-1.158.572 0 17.457 0 17.457s14.295-9.018 14.077-10.29c-.23-1.352-3.225-3.635-3.225-3.635 1.157-.186 2.06-.912 2.508-1.79.47-.926.533-3.57-2.714-5.224-1.216-.62-2.3-.804-3.175-.716z"/><path d="M882.71 203.36c-3.576 0-8.84.098-11.928 2.15-2.825 1.876-2.595 4.315-3.584 5.17-2.33 2.017-6.32 1.946-8.243 1.946-12.44 0-12.9 13.31-12.9 13.31s3.18-4.812 8.804-4.812c9.35 0 16.432 5.094 16.432 7.013 0 .777-.964.92-1.023.92-6.11 0-15.327-3.515-20.224-3.685v1.946c.065.043.11.1.206.154-.07-.013-.137-.038-.206-.052v.358c10.93 3.803 22.013 9.187 22.013 32.917 0 14.943-1.79 30.19-9.266 42.183-2.648 4.247-6.418 7.88-10.955 11.11-2.02-.61-11.514-3.56-18.175-7.27-11.726-6.53-17.806-13.03-31.74-13.668v-10.598c0-5.662 2.05-10.763 2.05-16.177-5.875-1.575-22.18-21.51-37.22-30.358-22.13 14.334-39.264 37.865-39.264 48.686 0 0 .666 232.51 0 313.51 0 4.668-2.814 11.263-2.814 11.263 8.08-3.418 22.888-23.68 26.006-31.382v3.687c12.2-5.563 21.135-20.183 25.136-27.746.07 1.093.257 3.838.257 3.838 10.9-9.555 24.776-66.038 24.776-66.038l-.715-11.877s-9.597 46.116-20.528 55.596v-198.58l8.652 8.036 13.104-12.236v-9.317l-11.62 10.852v-28.106c1.75-2.65 2.91-4.626 3.787-6.194 1.882 3.28 7.96 13.33 15.102 19.505 1.175-4.778 8.908-9.318 8.908-9.318s2.77 7.508 7.012 9.368c1.492-2.628 10.394-8.446 10.394-8.446s-7.616 1.156-10.7 4.044c-2.65-.593-3.328-11.058-3.328-11.058s-11.207 5.46-13.156 9.368c-2.137-.578-5.464-8.988-6.76-12.44 1.956-.213 4.717-.46 8.346-.46 3.196 0 7.285 1.514 11.57 3.532 4.706 2.216 9.63 5.022 14.027 7.014 5.632 2.55 14.153 3.068 16.637 3.174-2.845 2-5.973 3.826-9.367 5.53 0 0 13.41-.125 22.832-4.814 3.36-2.162 6.85-4.316 9.83-6.86-1.294 3.593-3.307 7.84-6.453 11.467 13.836-1.17 20.726-9.072 22.68-11.723.917 2.375 2.552 6.187 5.118 9.47 2.568-3.283 4.252-7.095 5.17-9.47 1.957 2.65 8.844 10.552 22.68 11.723-3.146-3.628-5.16-7.874-6.45-11.467 2.978 2.543 6.468 4.698 9.828 6.86 9.42 4.69 22.833 4.813 22.833 4.813-3.397-1.703-6.576-3.534-9.42-5.53 2.392-.09 11.012-.602 16.69-3.173 4.396-1.992 9.32-4.798 14.026-7.014 4.284-2.018 8.374-3.532 11.57-3.532 3.63 0 6.388.247 8.344.46-1.295 3.453-4.62 11.862-6.758 12.44-1.95-3.91-13.157-9.368-13.157-9.368s-.68 10.465-3.328 11.058c-3.084-2.888-10.7-4.045-10.7-4.045s8.9 5.817 10.392 8.445c4.242-1.86 6.963-9.368 6.963-9.368s7.784 4.54 8.96 9.318c7.14-6.177 13.218-16.223 15.1-19.505.91 1.618 2.123 3.674 3.788 6.194v28.105l-11.62-10.853v9.317l13.105 12.235 8.652-8.037v198.58c-10.933-9.48-20.528-55.596-20.528-55.596l-.718 11.877s13.88 56.483 24.778 66.038c0 0 .185-2.744.256-3.838 4 7.563 12.936 22.183 25.136 27.747v-3.686c3.117 7.702 17.927 27.964 26.005 31.382 0 0-2.814-6.595-2.814-11.263-.665-81 0-313.51 0-313.51 0-10.822-17.134-34.35-39.265-48.686-15.036 8.848-31.342 28.784-37.216 30.358 0 5.414 2.047 10.515 2.047 16.177v10.546c-13.903.652-20.023 7.194-31.738 13.72-6.704 3.735-16.3 6.695-18.223 7.27-4.536-3.222-8.26-6.863-10.905-11.11-6.372-10.224-9.06-22.774-9.06-35.528 0-5.39 6.04-11.46 6.04-15.82 0-6.59-.615-10.544-.615-10.544 2.143.292 5.887 4.095 5.887 4.095s-.13-10.937-3.585-12.848c0 0 1.398-1.438 6.45-1.587-1.42-3.596-8.445-7.986-8.445-7.986.35-.63 1-1.174 1.842-1.64 1.764-.975 4.244-1.62 6.14-1.996-2.02-.42-4.35-1.06-6.91-1.895-5.84-1.904-12.718-4.698-19.145-7.78-11.732-5.63-20.67-5.99-25.597-5.99zm.256 3.225c1.087.01 2.096.052 2.968.052 11.458 0 19.517 5.224 30.36 10.033 2.84 1.26 5.45 2.28 7.778 3.07-1.46 1.294-2.594 2.593-2.918 3.688 0 0 4.86.9 7.064 4.967 0 0-4.62.524-5.375 3.224 2.588.194 5.16 3.456 5.17 6.604l-6.552-2.05s1.588 7.36 1.588 15.36c0 4.085-5.886 8.893-5.886 15.818 0 21.734 5.475 30.088 9.37 36.807 1.522 2.628 2.76 5.653 5.323 7.934-11.218-5.973-19.556-13.44-19.556-20.374v-26.262h-2.92v26.262c0 5.03 1.23 7.372 1.23 7.372 1.76 5.564 5.32 14.152 7.525 17.61-10.32-5.578-15.564-12.563-15.564-15.153v-36.093h-2.917v36.603l.563 2.508c-1.25 1.88-2.877 4.106-3.993 4.863-1.113-.755-2.69-2.985-3.943-4.862l.564-2.508v-36.603h-2.918v36.092c0 2.588-5.243 9.574-15.563 15.152 2.205-3.46 5.764-12.046 7.524-17.61 0 0 1.23-2.342 1.23-7.372v-26.262h-2.92v26.262c0 6.927-8.306 14.405-19.504 20.374 2.537-2.283 3.757-5.32 5.272-7.935 4.258-7.35 9.522-16.684 9.522-43.26 0-9.973-1.475-16.754-4.044-21.5-.78-1.566-1.833-5.734 4.146-5.734 3.096 0 10.187 5.478 10.187 5.478s-.292-4.37-3.89-6.86c-.598-.413-1.587-1.712-1.587-2.92 0-.903 1.55-3.134 2.763-3.685.833-.38-12.183-2.647-12.183-8.55 0-1.23.773-2.048 3.48-2.048 3.544 0 9.31 4.25 14.437 4.25 3.79 0 5.283-.923 9.163-.923 4.742 0 14.635 8.978 18.02 8.65-3.784-2.375-9.895-11.365-19.146-11.365-3.21 0-6.117.717-9.114.717-3.84 0-7.623-3.533-11.774-3.533-2.782 0-5.89.154-6.35-.565-.804-1.255-.08-1.983.667-3.02 1.41-1.957 5.366-2.525 9.267-2.66 1.17-.042 2.338-.062 3.43-.053h.002zm-116.21 39.418v.05s20.565 18.843 27.49 21.245l.256 6.348v18.687c-5.02-1.727-11.326-9.973-14.384-14.334v-2.56c0-2.41 1.417-4.168 2.457-5.12l-3.02-1.074c-1.152 1.313-2.406 3.263-2.406 5.784v1.485l-.973 1.025-.512.564-7.525 8.087-8.856-13.412v-3.276c0-2.208 1.698-4.67 3.123-6.348l-2.97-1.075c-1.5 1.94-3.072 4.558-3.072 7.012v2.66c-2.083 2.157-10.187 10.497-10.187 10.497l-5.17-11.11c6.205-8.595 16.266-18.22 25.75-25.137zm258.98 0c9.465 6.9 19.53 16.558 25.752 25.136l-5.17 11.108s-8.104-8.34-10.187-10.495v-2.662c0-2.453-1.572-5.07-3.07-7.012l-2.97 1.075c1.425 1.677 3.123 4.14 3.123 6.348v3.277l-8.858 13.413-7.524-8.087-.51-.564-.974-1.025v-1.486c0-2.522-1.254-4.473-2.405-5.785l-3.02 1.074c1.04.952 2.457 2.71 2.457 5.12V278c-3.06 4.36-9.365 12.605-14.385 14.333v-18.687l.256-6.348c6.925-2.402 27.49-21.245 27.49-21.245v-.05zm-288.32 30.87l4.71 8.548v15.412l-7.166 6.654v-22.883c0-2.19.918-4.83 2.457-7.73zm317.65 0c1.542 2.9 2.457 5.54 2.457 7.73v22.883l-7.167-6.654v-15.41l4.71-8.55zm-298.86 1.945l8.24 12.54v9.523l-8.24 7.732v-29.794zm280.08 0v29.794l-8.243-7.73v-9.522l8.243-12.54zm-283 2.252v27.49l-8.243-7.678v-11.16l8.243-8.65zm285.91 0l8.243 8.65v11.16l-8.244 7.68v-27.492zm-260.62 1.996c1.24 2.065 6.934 11.275 12.337 13.925-1.914 2.706-6.927 9.322-12.337 12.237v-26.16zm235.33 0v26.16c-5.41-2.914-10.42-9.53-12.337-12.236 5.404-2.65 11.096-11.86 12.336-13.925zm-238.25 1.33v24.164l-8.243-7.68v-8.548l8.243-7.935zm241.17 0l8.243 7.936v8.55l-8.244 7.678v-24.163zm-274.7 25.75v24.114l-7.167-6.707v-10.7l7.166-6.706zm308.23 0l7.167 6.707v10.7l-7.167 6.707v-24.113zm-305.32.054l4.71 4.402 3.534 3.276v8.65l-3.533 3.277-4.71 4.402v-24.01.002zm19.402 0v24.01l-4.71-4.403-3.53-3.328v-8.55l3.53-3.328 4.71-4.402zm2.97 0l8.243 7.73v8.55l-3.584 3.377-4.658 4.352V310.2zm19.402 0v24.06l-4.71-4.402-3.534-3.33v-8.035c2.843-1.735 5.702-4.924 8.243-8.294zm218.85 0c2.542 3.367 5.4 6.56 8.24 8.292v8.037l-3.53 3.327-4.71 4.402V310.2zm19.402 0v24.01l-4.66-4.352-3.582-3.378v-8.55l8.243-7.73zm2.97 0l4.71 4.402 3.532 3.328v8.55l-3.533 3.327-4.71 4.402V310.2zm19.4 0v24.01l-4.71-4.403-3.532-3.276v-8.65l3.532-3.276 4.71-4.403zm-290.21 26.57l8.703 8.138 8.703-8.09v198.63s.607 9.857 1.024 16.28l-18.43 18.634v-233.6zm278.03 0v233.59s-14.557-14.724-18.43-18.634c.418-6.424 1.024-16.28 1.024-16.28v-198.63l8.703 8.09 8.702-8.14zm-283 .05v226.12c0 6.385-11.658 21.273-17.302 24.675v-250.74l8.6 8.036 8.703-8.087zm287.96 0l8.704 8.088 8.6-8.036v250.74c-5.64-3.402-17.303-18.29-17.303-24.675v-226.12zm-216.24 177.64s-8.36 16.975-11.618 20.015c0 0 2.184.277 4.658.256-1.522 2.19-13.147 18.926-16.79 25.24-3.41 5.905-5.817 3.276-11.06 3.276-4.346 0-14.2 6.925-15.817 9.727-1.7 2.945-2.968 6.523-2.968 9.47 0 3.24 3.43 7.68 3.43 7.68.37-1.55 1.023-2.1 1.023-2.1s9.013 11.23 10.34 12.696c1.035 1.142 5.646 1.885 7.27.41 4.067-3.697 8.003-6.282 11.622-11.62 1.863-2.752 2.005-5.905 4.146-8.86 7.162-9.88 21.415-28.798 24.675-33.12.218 1.203.405 2.205.612 3.43 3.694-7.457 21.45-21.706 21.45-21.706l-4.914-3.226s-10.703 12.48-14.18 14.796c0 0-1.484-6.206-2.354-8.396 0 0-4.1 3.102-6.346 3.176 0 0-.67-4.212-1.178-6.964-2.825 1.883-7.525 1.485-7.525 1.485 4.127-1.954 9.01-13.925 9.01-13.925l-3.48-1.74h-.002zm144.52 0l-3.48 1.74s4.884 11.97 9.01 13.925c0 0-4.7.4-7.525-1.484-.506 2.752-1.178 6.964-1.178 6.964-2.245-.073-6.35-3.175-6.35-3.175-.868 2.188-2.354 8.395-2.354 8.395-3.474-2.317-14.18-14.797-14.18-14.797l-4.914 3.225s17.756 14.25 21.45 21.708c.208-1.224.395-2.226.613-3.43 3.26 4.323 17.512 23.243 24.675 33.122 2.14 2.954 2.282 6.107 4.147 8.857 3.617 5.338 7.554 7.923 11.62 11.62 1.624 1.476 6.236.733 7.27-.41 1.328-1.468 10.34-12.695 10.34-12.695s.655.548 1.025 2.098c0 0 3.43-4.44 3.43-7.68 0-2.947-1.27-6.524-2.97-9.47-1.617-2.802-11.47-9.727-15.817-9.727-5.242 0-7.648 2.63-11.057-3.276-3.645-6.313-15.27-23.05-16.792-25.238 2.475.022 4.658-.256 4.658-.256-3.258-3.04-11.62-20.017-11.62-20.017zm-145.7 19.146s-.067 5.753 1.743 7.782l6.348-4.352s.423 2.1.972 4.967c-2.718 3.716-18.33 25.024-26.057 35.425-1.92 2.584-3.534 9.163-3.534 9.163s-2.814-1.33-2.814-3.735c0-2.362.308-5.17.308-5.17s-2.1 2.405-5.735 2.405c0-2.903 5.614-6.052 5.836-10.186-4.282 3.174-8 1.545-12.952 3.072-5.393 1.66-6.895 3.927-8.55 3.84-.973-.053-1.855-1.733-1.483-2.765.644-1.786 7.314-6.732 11.977-7.626 1.117-.214 9.903 1.912 11.673-.82 7.292-11.25 19.13-29.517 20.272-31.277.752-.18 1.444-.37 1.995-.717zm146.87 0c.555.347 1.246.538 1.998.717 1.143 1.76 12.98 20.026 20.272 31.278 1.77 2.733 10.555.606 11.67.82 4.667.896 11.336 5.842 11.98 7.627.373 1.032-.51 2.712-1.484 2.765-1.653.087-3.155-2.178-8.55-3.84-4.952-1.527-8.668.102-12.95-3.072.22 4.133 5.836 7.284 5.836 10.187-3.632 0-5.734-2.406-5.734-2.406s.307 2.81.307 5.17c0 2.406-2.815 3.738-2.815 3.738s-1.613-6.58-3.533-9.165c-7.727-10.4-23.34-31.708-26.057-35.425.55-2.865.972-4.967.972-4.967l6.347 4.353c1.81-2.028 1.74-7.782 1.74-7.782v.002zm-96.138 4.198s-34.687 79.735-65.476 91.995c0 0 13.395 5.69 29.845 14.23 2.4 1.247 4.87 2.585 7.372 3.944 2.07-2.494 4.25-5.265 6.4-8.14 9.835-13.16 19.454-28.413 19.454-28.413.67 3.962-4.525 16.195-13.31 31.282-1.73 2.964-3.53 6.064-5.53 9.213 2.23 1.273 4.44 2.56 6.655 3.892 16.295 9.805 31.598 21.077 37.267 31.432 5.67-10.356 20.974-21.627 37.27-31.433 2.213-1.333 4.425-2.62 6.654-3.892-2-3.15-3.8-6.247-5.528-9.213-8.787-15.087-13.98-27.32-13.31-31.28 0 0 9.62 15.25 19.455 28.41 2.147 2.876 4.328 5.648 6.398 8.142 2.5-1.358 4.974-2.696 7.373-3.943 16.45-8.54 29.843-14.23 29.843-14.23-30.787-12.26-65.476-91.996-65.476-91.996l-5.118 1.484s27.667 68.9 54.725 89.742c-6.153 1.852-13.355 4.51-20.785 7.68-9.028-10.576-18.367-24.842-25.954-37.526-8.19-13.695-14.897-37.73-14.897-37.73-3.797 9.226 4.297 55.563 20.632 84.88-13.51 7.032-25.53 14.652-31.28 20.887-5.75-6.235-17.77-13.854-31.278-20.885 16.334-29.316 24.428-75.655 20.63-84.88 0 0-6.705 24.033-14.898 37.73-7.586 12.683-16.925 26.95-25.954 37.525-7.428-3.17-14.63-5.828-20.785-7.68 27.058-20.843 54.726-89.742 54.726-89.742l-5.12-1.484zm-90.47 38.29c.238.026.488.153.666.358.353.408.322 1.006-.053 1.33l-2.866 2.508c-.374.324-.976.255-1.33-.154-.353-.408-.323-1.006.053-1.33l2.866-2.51c.186-.162.427-.232.665-.204v.002zm226.63 0c.238-.03.48.04.667.204l2.867 2.508c.374.325.406.924.05 1.33-.354.41-.956.48-1.33.155l-2.867-2.508c-.375-.324-.406-.922-.05-1.33.177-.204.427-.33.665-.358zm-223.61 2.508c.712-.058 1.46.254 1.997.87.858.988.803 2.388-.102 3.175l-6.962 6.09c-.906.79-2.367.63-3.226-.356-.857-.987-.803-2.438.103-3.224l6.962-6.04c.34-.297.802-.478 1.23-.513zm220.03 0c.18-.03.384-.015.563 0 .43.035.888.216 1.23.51l6.962 6.042c.904.786.96 2.238.1 3.226-.857.986-2.32 1.145-3.224.356l-6.963-6.09c-.905-.787-.96-2.186-.1-3.176.4-.462.895-.778 1.432-.87zm-216.09 4.71c.71-.058 1.51.252 2.047.87.858.988.804 2.387-.102 3.174l-7.012 6.092c-.906.787-2.316.63-3.175-.358-.857-.987-.802-2.438.105-3.224l6.96-6.04c.34-.296.75-.477 1.18-.513zm212.14 0c.184-.03.384-.014.563 0 .428.035.837.217 1.177.512l6.963 6.04c.906.787.962 2.238.1 3.225-.855.987-2.267 1.144-3.173.357l-7.012-6.093c-.906-.786-.96-2.185-.103-3.173.402-.46.935-.777 1.485-.87zm-207.69 4.607c.713-.06 1.46.2 1.997.818.86.988.804 2.44-.1 3.225l-6.964 6.042c-.906.787-2.316.63-3.174-.36s-.854-2.387.05-3.174l7.015-6.09c.338-.296.75-.427 1.177-.46zm203.24 0c.18-.028.385-.015.563 0 .43.034.838.165 1.177.46l7.015 6.09c.905.787.907 2.188.05 3.176s-2.27 1.146-3.175.36l-6.963-6.043c-.907-.786-.96-2.237-.102-3.225.403-.462.898-.74 1.434-.82z"/><path d="M1098 397.8l-6.656 4.71 3.378 1.742 3.38 1.69-.102-8.14zm-6.452 7.833c-1.207.083-2.272.727-2.815 1.792-.868 1.704-.025 3.886 1.894 4.863 1.92.977 4.148.373 5.018-1.33.868-1.704.023-3.885-1.895-4.863-.72-.367-1.476-.51-2.2-.46h-.002zm-12.542 7.833c-1.002.012-1.73.047-1.894.154-.71.46.256 6.545.05 11.722-.193 4.882-1.755 6.257-2.61 7.935-.79 1.55-3.634 3.38-3.634 3.38l2.354 2.354s1.532-2.385 3.942-7.117c2.843-5.58 2.75-15.688 3.585-16.227.724-.47 6.654-1.946 6.654-1.946s-5.442-.294-8.446-.255h-.002zm10.34 1.382s-6.235 1.196-7.117 2.05c-.853.822-.477 9.266-3.79 15.766-2.743 5.388-4.093 7.372-4.093 7.372l1.69.87 1.69.82s.786-2.19 3.532-7.578c3.31-6.5 10.378-11.213 10.543-12.39.172-1.21-2.456-6.91-2.456-6.91zm1.997.82s2.257 5.69 2.304 6.552c.052.99-8.163 6.86-11.007 12.44-2.41 4.73-3.43 7.372-3.43 7.372l3.277.512s-.226-3.367.563-4.915c.854-1.678 1.08-3.732 4.915-6.758 4.068-3.21 9.567-6.014 9.522-6.86-.04-.783-6.143-8.345-6.143-8.345zm-18.53 26.825c-1.034.11-1.785.767-2.202 1.586-.62 1.22-.284 2.854-5.222 12.543-2.164 4.247-3.036 5.956-5.376 10.545-2.378 4.67-5.836 11.416-5.836 11.416s-1.175 2.156 1.024 3.276c2.2 1.12 3.174-1.127 3.174-1.127s3.458-6.747 5.836-11.416c2.34-4.59 3.212-6.35 5.376-10.597 4.936-9.688 6.444-10.348 7.065-11.57.67-1.31.51-3.077-1.688-4.198-.824-.42-1.53-.526-2.15-.46zm-21.247 40.392c-.83.072-1.485.424-1.79 1.023-.612 1.2.435 2.964 2.354 3.943 1.92.977 3.996.792 4.607-.41.61-1.2-.486-2.963-2.406-3.942-.958-.49-1.934-.687-2.763-.613zm-2.866 5.886c-1.375-.064-2.577.412-3.072 1.383-.792 1.553.443 3.783 2.765 4.968 2.322 1.184 4.84.887 5.63-.666.793-1.554-.443-3.782-2.764-4.967-.872-.442-1.734-.677-2.56-.716zm-3.89 7.322c-.83.073-1.486.424-1.793 1.025-.61 1.2.437 2.963 2.355 3.94 1.92.98 3.995.792 4.608-.408.61-1.2-.437-2.965-2.355-3.943-.96-.49-1.986-.688-2.815-.615zm-1.69 6.298c-1.212.156-1.793 1.382-1.793 1.382s-12.448 24.5-16.84 33.12c-1.404 2.755-7.312 4.47-9.625 9.012-2.33 4.568-.686 8.844 2.354 10.392 3.04 1.55 7.502.423 9.83-4.146 2.313-4.54.235-10.353 1.637-13.106 4.393-8.624 16.843-33.122 16.843-33.122s1.226-2.156-.973-3.276c-.55-.28-1.028-.308-1.433-.255zm-30.05 56.414c-1.4.04-2.644.7-3.226 1.842-.933 1.83.134 4.27 2.405 5.426 2.27 1.158 4.903.6 5.836-1.228.933-1.83-.186-4.27-2.457-5.427-.853-.435-1.722-.637-2.56-.614zm-19.813 39.265c-.71.023-1.298.248-1.535.716-.477.935.508 2.413 2.2 3.276 1.694.862 3.465.782 3.943-.154.477-.937-.51-2.414-2.2-3.276-.848-.432-1.696-.588-2.408-.564zm-5.836 4.605v12.082l9.83-7.065s-1.332-2.354-4.25-3.84c-2.916-1.485-5.58-1.178-5.58-1.178z" fill="#f5d402"/><path d="M746.39 532.6s5.554 11.472 9.775 13.045c-2.183-.595-9.27 2.006-9.27 2.006s12.498 11.166 23.1 11.9c8.99.618 13.354-3.87 13.354-3.87l-1.802-9.523s-5.5-6.642-14.302-9.707c-8.894-3.098-20.857-3.848-20.857-3.848zM788.26 512.05s-7.67 6.565-9.768 14.17c-2.1 7.604 1.368 16.246 1.368 16.246l6.444 12.02s8.93-4.752 12.73-11.86c3.8-7.107 2.406-16.697 2.406-16.697s-7.075 2.633-7.975 3.8c1.493-7.885-5.206-17.68-5.206-17.68h-.002zM763.61 508.98s-8.722 2.948-17.192 2.438c-8.068-.487-14.777-7.262-14.777-7.262s6.69-4.526 9.99-3.923c-3.63-1.327-8.896-10.423-8.896-10.423s7.482-2.26 14.116.24c6.634 2.503 12.42 9.77 12.42 9.77l4.34 9.16zM766.61 466.38s4.362 9.032 3.328 12.17c1.353-2.09 6.474-5.344 6.474-5.344s3.096 14.624.135 23.656c-2.96 9.03-11.974 12.47-11.974 12.47l-9.943-19.337s-1.48-7.164 1.62-12.837 10.36-10.78 10.36-10.78zM709.86 442.47s9.427-.99 18.05 2.583c7.21 2.993 9.42 8.433 9.42 8.433l3.552 9.52s-10.26 3.848-18.368.906c-8.108-2.945-14.065-12.68-14.065-12.68s5.665-2.15 7.822-1.343c-3.142-1.39-6.41-7.42-6.41-7.42zM739.51 424.8s4.137 5.313 4.26 11.424c1.104-3.25 6.27-6.84 6.27-6.84s5.31 12.855 4.145 21.982c-1.166 9.128-8.81 14.527-8.81 14.527l-9.53-18.092s-3.106-7.414-2.19-13.166c.915-5.75 5.855-9.836 5.855-9.836v.002zM706.86 390.2s-1.71 9.854 1.2 15.53c2.597 5.065 4.25 6.176 4.25 6.176-4.953-3.27-12.443-3.55-12.443-3.55s2.666 10.72 9.037 15.61 16.195 3.75 16.195 3.75 6.46-8.6 6.01-17.866c-.45-9.265-7.81-19.197-7.81-19.197s-2.9 6.02-3.157 10.514c-1.878-4.633-13.285-10.966-13.285-10.966z"/><path d="M709.76 396.19s-.255 7.2 2.127 11.285c2.383 4.086 7.704 5.715 7.704 5.715s.255-7.2-2.127-11.283c-2.383-4.086-7.703-5.717-7.703-5.717zM704.78 412.48s6.255.368 9.868 3.136c3.61 2.768 5.01 8.535 5.01 8.535s-4.147.422-7.757-2.346c-3.61-2.77-7.12-9.324-7.12-9.324zM724.41 397.94s-2.08 4.77-1.84 9.912c.24 5.143 3.24 10.937 3.24 10.937s2.713-6.175 2.474-11.32c-.238-5.142-3.147-8.074-3.874-9.53zM713.88 444.3s3.07 4.288 7.8 6.626c4.727 2.337 11.772 2.424 11.772 2.424s-3.516-4.562-8.245-6.9c-4.728-2.337-11.327-2.152-11.327-2.152v.002zM715.4 454.26s2.257 4.42 6.384 6.316c4.13 1.896 12.574 1.74 12.574 1.74s-3.24-4.13-7.368-6.027c-4.128-1.898-11.59-2.03-11.59-2.03zM739.17 430.68s-2.495 4.123-2.25 8.666c.244 4.545 3.226 9.51 3.226 9.51s2.097-5.692 1.852-10.236c-.244-4.545-2.83-7.94-2.83-7.94zM748.36 436.51s-4.27 5.73-4.882 11.62c-.613 5.89 2.428 11.943 2.428 11.943s5.157-5.178 5.77-11.068c.613-5.892-3.316-12.493-3.316-12.493v-.002zM736.59 490.91s.513 2.118 2.297 4.367c1.783 2.25 4.836 4.632 4.836 4.632s2.95-.95 6.615-.156c3.665.795 8.54 4.06 8.54 4.06s-5.247-7.83-10.695-10.876c-5.448-3.043-11.59-2.03-11.59-2.03h-.002zM736.05 504.37s6.793-2.902 12.387-2.153c5.595.75 10.64 5.17 10.64 5.17s-7.562 2.617-13.156 1.87c-5.595-.75-9.87-4.887-9.87-4.887zM764.76 472.79s-6.007 6.364-6.51 11.887c-.504 5.522 4.87 10.67 4.87 10.67s-.264-3.543.66-5.875c.927-2.332 2.894-4.822 2.894-4.822s.838-2.843.514-5.123c-.453-3.186-2.428-6.737-2.428-6.737zM773.38 480.16s-5.662 5.73-7.158 11.864c-1.497 6.135 1.17 12.676 1.17 12.676s5.15-4.062 6.646-10.196c1.497-6.135-.66-14.344-.66-14.344h.002zM787.56 517.14s2.565 5.355 3.215 9.833c.652 4.477.048 6.027.048 6.027s-2.652 2.607-3.84 4.14c-1.53 1.97-1.753 5.576-1.753 5.576s-5.325-7.916-4.504-13.703c.82-5.786 6.834-11.874 6.834-11.874zM798.78 529.53s-6.818 4.503-9.523 9.123c-2.708 4.617-1.304 9.35-1.304 9.35s4.858-.43 7.566-5.047c2.705-4.618 3.26-13.427 3.26-13.427zM753.98 548.55s9.826-.268 15.832 1.21c6.006 1.474 8.192 4.694 8.192 4.694s-6.753 3.162-12.76 1.686c-6.005-1.475-11.265-7.59-11.265-7.59zM752.32 536.89s4.433 6.873 10.164 9.367c7.898 3.435 17.043 1.77 17.043 1.77s-4.968-6.09-11.804-8.777c-6.838-2.687-15.403-2.36-15.403-2.36z" fill="#097754"/><path d="M783.86 555.27l.265 3.537c5.875.055 6.75-.53 8.256 1.322 1.004 1.233 3.39 2.31 5.788 1.214 2.4-1.095 3.475-3.977 2.38-6.376s-3.326-2.92-5.475-2.496c-1.32.26-2.187 1.313-3.306 1.89-2.128 1.103-7.91.91-7.91.91h.002z"/><path d="M783.35 552.57l2.86 2.095c-3.068 5.014-4.025 5.446-3.252 7.705.515 1.504.166 4.097-2.035 5.553-2.2 1.455-5.214.84-6.67-1.358-1.453-2.2-.714-4.366.784-5.965.92-.982 2.27-1.16 3.353-1.803 2.062-1.223 4.96-6.228 4.96-6.228zM763.45 510.57l.264 3.537c5.876.054 6.75-.53 8.256 1.32 1.002 1.234 3.39 2.312 5.787 1.216 2.4-1.095 3.476-3.976 2.38-6.375-1.096-2.4-3.326-2.92-5.475-2.496-1.32.26-2.187 1.313-3.305 1.89-2.13 1.102-7.91.91-7.91.91h.002z"/><path d="M764.64 511.82l2.5 2.517c-3.81 4.474-4.824 4.753-4.41 7.104.275 1.568-.474 4.076-2.875 5.17-2.4 1.096-5.28.022-6.376-2.378s-.03-4.425 1.7-5.77c1.06-.826 2.425-.794 3.593-1.26 2.227-.886 5.867-5.38 5.867-5.38zM743.67 468.72l.265 3.537c5.876.054 6.75-.53 8.257 1.323 1.003 1.23 3.388 2.31 5.788 1.213 2.398-1.095 3.474-3.975 2.38-6.377-1.098-2.4-3.327-2.92-5.477-2.495-1.32.262-2.187 1.314-3.306 1.892-2.128 1.102-7.908.907-7.908.907z"/><path d="M745.3 467.98l2.5 2.516c-3.81 4.475-4.823 4.754-4.412 7.105.276 1.567-.473 4.075-2.873 5.17-2.4 1.094-5.28.02-6.376-2.38-1.095-2.4-.028-4.425 1.7-5.77 1.06-.827 2.424-.793 3.594-1.26 2.227-.887 5.866-5.38 5.866-5.38zM722.6 424.54l.264 3.536c5.876.055 6.75-.53 8.256 1.32 1.004 1.235 3.39 2.312 5.788 1.218 2.4-1.097 3.475-3.977 2.38-6.377s-3.326-2.92-5.476-2.496c-1.318.262-2.186 1.315-3.305 1.892-2.128 1.1-7.91.908-7.91.908h.002z"/><path d="M724.23 423.8l2.498 2.517c-3.808 4.475-4.823 4.753-4.41 7.105.276 1.566-.474 4.074-2.873 5.17-2.4 1.094-5.28.02-6.375-2.38-1.096-2.4-.028-4.427 1.7-5.77 1.06-.826 2.424-.794 3.593-1.26 2.226-.887 5.866-5.38 5.866-5.38v-.002z"/><path d="M759.72 500.09c-2.106.874-5.23-8.295-7.524-13.318-2.353-5.155-7.13-13.1-5.774-13.72 1.49-.68 3.45 3.492 5.86 8.767 2.407 5.272 9.41 17.448 7.438 18.268v.002zM738.09 451.8c-2.105.877-4.41-5.127-6.703-10.15-2.353-5.155-4.645-8.796-3.288-9.416 1.49-.68 3.69 3.837 5.615 8.055 1.866 4.087 6.348 10.69 4.374 11.51zM788.13 561.29c-1.653.442-8.87-14.662-14.703-27.442s-10.177-23.12-8.82-23.736c1.49-.68 6.213 11.39 12.05 24.172 5.834 12.78 12.712 26.673 11.474 27.006z" fill="#f5d402"/><path d="M848.73 220.69s2.42-4.58 8.534-4.58c2.556 0 10.992-.178 10.992-.178 1.124 2.92 6.25 7.802 6.25 12.878 0 0-5.203-9.377-19.724-9.377-3.65 0-6.054 1.256-6.054 1.256z" fill="#cc092f"/><path d="M867.44 221.97s-3.568-1.144-3.568-2.342c0-1.526 1.733-1.526 2.77-.337.712.82.797 2.68.797 2.68z"/><path d="M872.34 230.6s-3.093 3.258-3.765 4.997c-3.06-1.16-8.4-6.66-8.4-6.66s4.526 2.64 12.164 1.663z" fill="#d10429"/><path d="M887.91 222.06a5.112 4.043 0 1 1-10.224 0 5.112 4.043 0 1 1 10.224 0z"/><path d="M886.36 222.06a3.56 3.56 0 1 1-7.12 0 3.56 3.56 0 1 1 7.12 0z" fill="#f5d402"/><path d="M884.31 222.06a1.51 1.51 0 1 1-3.02 0 1.51 1.51 0 1 1 3.02 0z"/><path d="M790.1 320.44s8.703 6.53 8.703 13.157v157.986c0 4.162 1.286 6.872 3.328 9.52 2.042 2.854 6.39 6.796 10.904 9.728 13.94 9.054 37.246 18.6 54.88 26.622 14.694 6.684 20.67 9.38 28.31 18.84 7.638-9.46 13.666-12.155 28.36-18.84 17.63-8.02 40.938-17.568 54.88-26.62 4.514-2.933 8.863-6.874 10.903-9.728 2.042-2.65 3.276-5.36 3.276-9.52V333.596c0-6.626 8.703-13.157 8.703-13.157H790.1h.002zm11.16 5.017h189.927s-2.56 3.08-2.56 8.14V491.58c0 3.448-3.578 11.525-24.214 21.807-34.112 16.996-60.33 24.933-68.19 34.606-7.858-9.673-34.077-17.61-68.188-34.607-20.637-10.283-24.215-18.36-24.215-21.808V333.596c0-5.06-2.56-8.14-2.56-8.14z" fill="#f5d402"/></svg>