<svg xmlns="http://www.w3.org/2000/svg" width="1000" height="600"><defs><linearGradient id="a"><stop offset="0"/><stop offset="1" stop-color="#fff"/></linearGradient></defs><path font-size="12" fill="#fff" fill-rule="evenodd" stroke-width="1pt" d="M0 0h1000v600H0z"/><path font-size="12" fill="#0038a8" fill-rule="evenodd" stroke-width="1pt" d="M0 400h1000v200H0z"/><path font-size="12" fill="#d52b1e" fill-rule="evenodd" stroke-width="1pt" d="M0 0h1000v200H0z"/><path d="M-236.122-33.236a120.446 122.83 0 1 1-240.892 0 120.446 122.83 0 1 1 240.892 0z" transform="matrix(.6 0 0 .6 727.1 320.8)" fill="none" stroke="#000" stroke-width="3.101" stroke-linecap="round"/><g fill="#009b3a" font-size="12" fill-rule="evenodd" stroke="#000"><path d="M510.14 264.174s29.184 12.574 24.088 38.558c-5.096 25.983-21.345 25.81-27.716 28.68-6.372 2.872-10.767 6.982-13.282 6.407-2.514-.576-5.837-2.516-5.837-2.516s-.266 4.268 4.852 5.044c5.118.777 11.844-6.735 15.076-7.57 3.232-.835 23.07-2.988 27.896-29.427 5.633-28.22-24.897-38.348-25.077-39.176z" stroke-width=".20377101"/><path d="M524.88 269.706a4.007.95 75.104 0 1-1.92.147 4.007.95 75.104 1 1 1.92-.147z" stroke-width=".094012"/><path d="M523.866 269.975a4.13.92 63.335 1 1-1.74.636 4.13.92 63.335 1 1 1.74-.635zM520.953 271.905a3.91.972 17.053 0 1-.182 1.975 3.91.972 17.053 1 1 .183-1.975z" stroke-width=".094012"/><path d="M521.38 270.843a4.11.925 34.225 1 1-.84 1.665 4.11.925 34.225 1 1 .84-1.665z" stroke-width=".094012"/><path d="M522.614 270.333a4.18.91 46.194 0 1-1.27 1.302 4.18.91 46.194 0 1 1.27-1.302z" stroke-width=".094012"/><path d="M524.65 273.995c.017.018-1.125.635-1.384.727-.26.092-.61-.345-1.354.037-.744.38-1.255 1.078-1.417 1.487-.162.408.21.58 1.11.143.9-.438 1.136-1.13 1.57-1.402.433-.27 1.16-.67 1.575-.818.18-.39.76-1.23 1.062-1.71.3-.483 1.48-1.277 1.91-2.203.376-.765.235-1.417-.267-1.144-.502.272-1.15 1.04-1.453 1.593-.303.553-.043 1.256-.38 1.773-.263.374-.903 1.514-.97 1.515z" stroke-width=".05335181"/><path d="M533.684 276.99a1.348 6.01-1.585 1 1-2.71-.648 1.348 6.01-1.585 1 1 2.71.65z" stroke-width=".13725752"/><path d="M532.19 276.922a6.26 1.294 77.49 1 1-2.62.132 6.26 1.294 77.49 1 1 2.62-.132z" stroke-width=".13725752"/><path d="M527.517 278.382a5.83 1.39 34.91 1 1-.907 2.748 5.83 1.39 34.91 1 1 .907-2.748z" stroke-width=".13725752"/><path d="M528.46 277.053a6.236 1.3 50.904 1 1-1.714 2.008 6.236 1.3 50.904 0 1 1.714-2.007z" stroke-width=".13725752"/><path d="M530.337 276.874a6.37 1.272 61.837 1 1-2.19 1.297 6.37 1.272 61.837 1 1 2.19-1.296z" stroke-width=".13725752"/><path d="M531.945 283.03c.017.033-1.77.406-2.158.422-.39.016-.73-.766-1.887-.552-1.157.213-2.095.982-2.455 1.495-.36.513.1.925 1.49.702 1.39-.224 1.947-1.11 2.637-1.304.69-.195 1.83-.44 2.452-.467.378-.48 1.462-1.42 2.038-1.976.576-.555 2.475-1.165 3.376-2.297.773-.93.794-1.925.008-1.76-.785.166-1.94.977-2.54 1.632-.602.656-.475 1.78-1.112 2.37-.49.418-1.754 1.765-1.85 1.736z" stroke-width=".07779493"/><path d="M538.442 289.084a1.343 6.035 8.74 1 1-2.533-1.16 1.343 6.035 8.74 1 1 2.532 1.16z" stroke-width=".13725752"/><path d="M536.993 288.73a1.286 6.3-2.05 1 1-2.585-.374 1.286 6.3-2.05 1 1 2.585.373z" stroke-width=".13725752"/><path d="M532.162 289.274a5.86 1.383 46.026 1 1-1.38 2.54 5.86 1.383 46.026 1 1 1.38-2.54z" stroke-width=".13725752"/><path d="M533.324 288.142a6.282 1.29 61.79 1 1-2.037 1.654 6.282 1.29 61.79 1 1 2.037-1.654z" stroke-width=".13725752"/><path d="M535.19 288.326a6.42 1.262 72.543 1 1-2.375.86 6.42 1.262 72.543 1 1 2.376-.86z" stroke-width=".13725752"/><path d="M535.652 294.715c.01.036-1.802.06-2.185 0-.383-.057-.576-.896-1.745-.907-1.17-.01-2.225.57-2.67 1.006-.444.437-.07.933 1.33.98 1.4.045 2.104-.723 2.814-.782.71-.06 1.868-.084 2.48.01.456-.402 1.686-1.124 2.35-1.56.662-.438 2.627-.676 3.713-1.62.922-.77 1.122-1.75.324-1.737-.797.012-2.07.592-2.778 1.123-.706.532-.785 1.666-1.513 2.127-.555.32-2.033 1.407-2.12 1.36z" stroke-width=".07779493"/><path d="M538.794 302.59a1.342 6.037 31.31 1 1-1.84-2.125 1.342 6.037 31.31 1 1 1.84 2.125z" stroke-width=".13725752"/><path d="M537.62 301.662a1.278 6.34 20.618 1 1-2.195-1.416 1.278 6.34 20.618 0 1 2.196 1.416z" stroke-width=".13725752"/><path d="M533.036 300.17a5.955 1.36 69.934 1 1-2.237 1.782 5.955 1.36 69.934 1 1 2.236-1.783z" stroke-width=".13725752"/><path d="M534.527 299.6a1.27 6.384-4.863 1 1-2.487.692 1.27 6.384-4.863 1 1 2.487-.692z" stroke-width=".13725752"/><path d="M536.145 300.542a1.245 6.506 5.55 1 1-2.484-.185 1.245 6.506 5.55 1 1 2.485.185z" stroke-width=".13725752"/><path d="M534.082 306.658c-.003.037-1.655-.69-1.98-.902-.323-.213-.17-1.07-1.226-1.564-1.054-.493-2.235-.392-2.807-.17-.573.22-.426.836.823 1.457 1.25.62 2.184.2 2.85.438.666.238 1.724.694 2.242 1.034.57-.184 1.962-.344 2.732-.476.77-.13 2.642.46 3.99.033 1.135-.33 1.697-1.158.97-1.476-.727-.318-2.105-.308-2.95-.106-.847.2-1.358 1.22-2.197 1.346-.626.066-2.386.464-2.448.384z" stroke-width=".07779493"/><path d="M535.155 316.28a1.572 6.876 48.457 1 1-1.33-3.01 1.572 6.876 48.457 1 1 1.33 3.01z" stroke-width=".15841022"/><path d="M534.168 314.832a1.493 7.24 37.466 1 1-1.95-2.356 1.493 7.24 37.466 1 1 1.95 2.356z" stroke-width=".15841022"/><path d="M529.612 311.526a1.56 6.926-3.478 1 1-3.048 1.16 1.56 6.926-3.478 1 1 3.048-1.16z" stroke-width=".15841022"/><path d="M531.44 311.437a1.466 7.37 11.633 0 1-2.964-.136 1.466 7.37 11.633 1 1 2.965.137z" stroke-width=".15841022"/><path d="M532.912 313.063a1.446 7.473 22.12 1 1-2.673-1.103 1.446 7.473 22.12 1 1 2.672 1.103z" stroke-width=".15841022"/><path d="M528.632 319.067c-.017.04-1.596-1.36-1.883-1.712-.287-.352.16-1.243-.837-2.17-1-.926-2.33-1.24-3.034-1.204-.704.04-.744.77.427 1.908 1.17 1.138 2.338 1.012 2.993 1.516.654.503 1.67 1.39 2.128 1.953.686.002 2.272.33 3.163.463.892.133 2.758 1.464 4.384 1.48 1.357.045 2.247-.664 1.55-1.278-.695-.614-2.215-1.1-3.213-1.185-.996-.084-1.893.855-2.858.69-.71-.152-2.78-.35-2.82-.46z" stroke-width=".09001648999999999"/><path d="M525.77 328.26a1.76 7.582 79.752 1 1 .363-3.632 1.76 7.582 79.752 1 1-.362 3.633z" stroke-width=".17603747"/><path d="M525.61 326.312a1.68 7.944 68.504 1 1-.597-3.37 1.68 7.944 68.504 1 1 .597 3.37z" stroke-width=".17603747"/><path d="M523.018 320.533a1.753 7.606 26.238 0 1-3.576-.66 1.753 7.606 26.238 1 1 3.576.66z" stroke-width=".17603747"/><path d="M524.832 321.506a1.654 8.062 41.823 0 1-2.788-1.844 1.654 8.062 41.823 1 1 2.788 1.844z" stroke-width=".17603747"/><path d="M525.364 323.903a1.632 8.172 52.67 1 1-1.98-2.595 1.632 8.172 52.67 0 1 1.98 2.595z" stroke-width=".17603747"/><path d="M517.953 327.137c-.038.03-.798-2.216-.882-2.716-.083-.5.836-1.088.378-2.546-.457-1.46-1.57-2.53-2.27-2.9-.7-.37-1.137.302-.63 2.06.51 1.76 1.706 2.315 2.063 3.173.357.858.852 2.287.987 3.088.662.4 2.014 1.628 2.8 2.27.788.642 1.86 2.987 3.422 3.943 1.284.827 2.53.668 2.194-.32-.335-.985-1.537-2.328-2.454-2.984-.917-.657-2.296-.283-3.138-.997-.602-.557-2.49-1.94-2.47-2.07z" stroke-width=".09988775"/><path d="M513.45 334.976a2.204 7.672 89.068 0 1 .012-4.41 2.204 7.672 89.068 0 1-.013 4.41z" stroke-width=".24513628999999998"/><path d="M512.434 328.084a2.13 7.938 37.587 0 1-3.27-2.735 2.13 7.938 37.587 1 1 3.27 2.734z" stroke-width=".24513628999999998"/><path d="M513.517 331.603a2.177 7.766 66.472 0 1-1.558-4.07 2.177 7.766 66.472 0 1 1.557 4.07z" stroke-width=".24513628999999998"/><path d="M515.606 264.837a4.765.97 41.126 0 1-1.81.986 4.765.97 41.126 1 1 1.81-.986zM513.248 266.81a4.826.957 8.163 1 1 .367 1.98 4.826.957 8.163 0 1-.367-1.98z" stroke-width=".12809135"/><path d="M514.196 265.567a5.047.915 26.817 1 1-.957 1.565 5.047.915 26.817 0 1 .956-1.565z" stroke-width=".12809135"/><path d="M479.62 327.505s6.43 1.38 12.018 3.41c5.59 2.03 14.08 9.003 16.363 9.398 2.56.116 6.11-.758 7.46-4.454-3.944 1.05-6.308 2.648-10.072.58-1.33-.504-5.685-4.47-10.458-6.59-4.774-2.123-14.402-4.542-14.402-4.542l-.908 2.197z" stroke-width=".10552847"/><path d="M486.474 269.388c-.023-.055 7.4-3.904 7.4-3.904l-8.16 2.087-.948 1.437 1.708.38z" stroke-width=".1292665"/><path d="M493.494 271.188c-2.865-.52-7.27-1.484-10.076-1.71 1.94-2.147 4.61-5.78 6.257-8.008-1.087 2.126-2.794 4.93-3.467 6.966 1.974 1.066 5.08 1.9 7.286 2.752z" stroke-width=".1292665"/><path d="M485.137 269.84c-.032-.05 6.576-5.092 6.576-5.092l-7.637 3.417-.68 1.58 1.74.095z" stroke-width=".1292665"/><path d="M492.166 271.112c-2.885-.55-7.325-1.56-10.144-1.802 1.905-2.212 4.517-5.956 6.127-8.254-1.052 2.194-2.71 5.085-3.35 7.186 2.003 1.108 5.134 1.982 7.366 2.87z" stroke-width=".1316168"/><path d="M484.048 270.25c-.018-.057 7.744-3.244 7.744-3.244l-8.34 1.373-1.076 1.344 1.672.526z" stroke-width=".1292665"/><path d="M491.3 271.175c-2.92-.244-7.43-.788-10.246-.727 1.624-2.457 3.767-6.546 5.09-9.058-.782 2.344-2.083 5.464-2.467 7.67 2.11.908 5.31 1.455 7.622 2.115z" stroke-width=".13279195"/><path d="M483.263 270.283c-.043-.043 5.246-6.393 5.246-6.393l-6.648 4.97-.31 1.696 1.71-.273z" stroke-width=".1292665"/><path d="M491.25 271.597c-3.128-.06-7.978-.335-10.966-.07 1.48-2.795 3.346-7.41 4.5-10.244-.596 2.613-1.665 6.11-1.85 8.544 2.334.843 5.79 1.214 8.315 1.77z" stroke-width=".14360333"/><path d="M482.2 271.8c-.042-.055 6.37-6.112 6.37-6.112l-7.71 4.265-.527 1.827 1.866.02z" stroke-width=".14242818"/><path d="M489.856 271.803c-3.36.013-8.534-.17-11.812.198 2.175-3.116 5.145-8.247 6.976-11.397-1.183 2.893-3.062 6.772-3.766 9.458 2.344.87 5.995 1.193 8.602 1.743z" stroke-width=".15605992"/><path d="M480.053 272.254c-.032-.06 8.138-6.893 8.138-6.893l-9.197 4.892-.948 2.026 2.008-.024z" stroke-width=".15488477"/><path d="M488.64 272.008c-3.33.48-8.48 1.022-11.677 1.836 1.71-3.34 3.916-8.755 5.28-12.082-.76 2.986-2.064 7.028-2.377 9.744 2.447.522 6.11.33 8.773.502z" stroke-width=".15488477"/><path d="M478.97 273.614c-.047-.05 6.27-8.685 6.27-8.685l-7.824 7.074-.42 2.168 1.974-.558z" stroke-width=".15488477"/><path d="M486.802 273.036c-3.35.312-8.527.594-11.765 1.246 1.894-3.25 4.404-8.544 5.952-11.797-.926 2.943-2.457 6.914-2.923 9.61 2.415.643 6.086.634 8.735.94z" stroke-width=".15488477"/><path d="M477.838 274.53c-.033-.06 7.982-6.907 7.982-6.907l-9.057 4.88-.915 2.04 1.99-.013z" stroke-width=".15488477"/><path d="M485.82 273.39c-3.34.705-8.523 1.598-11.714 2.622 1.56-3.41 3.523-8.902 4.734-12.275-.617 2.995-1.734 7.07-1.915 9.77 2.5.344 6.195-.102 8.894-.117z" stroke-width=".15488477"/><path d="M476.504 274.887c-.054-.04 5.1-9.468 5.1-9.468l-6.903 8.186-.113 2.163 1.917-.883z" stroke-width=".15488477"/><path d="M485.82 273.92c-3.582.933-9.167 2.156-12.547 3.44 1.298-3.88 2.783-10.098 3.702-13.918-.312 3.372-1.042 7.973-.912 10.995 2.79.276 6.794-.383 9.758-.516z" stroke-width=".17204196"/><path d="M475.5 277.077c-.053-.055 6.426-9.488 6.426-9.488l-8.215 7.667-.345 2.394 2.136-.573z" stroke-width=".17086680999999998"/><path d="M484.4 275.006c-3.523 1.114-9.024 2.623-12.327 4.073 1.11-3.903 2.298-10.128 3.034-13.952-.153 3.35-.665 7.934-.394 10.914 2.788.122 6.742-.744 9.686-1.036z" stroke-width=".17086680999999998"/><path d="M474.21 278.47c-.06-.043 4.884-10.473 4.884-10.473l-6.943 9.02.033 2.41 2.028-.956z" stroke-width=".17086680999999998"/><path d="M483.057 276.43c-3.608.822-9.222 1.876-12.643 3.052 1.46-3.8 3.208-9.907 4.288-13.66-.456 3.327-1.383 7.856-1.384 10.848 2.766.35 6.782-.19 9.74-.24z" stroke-width=".17086680999999998"/><path d="M473.057 279.48c-.043-.065 7.98-8.197 7.98-8.197l-9.407 6.07-.766 2.3 2.193-.174z" stroke-width=".17086680999999998"/><path d="M481.448 277.853c-3.575.48-9.122.997-12.535 1.855 1.66-3.722 3.742-9.765 5.028-13.477-.65 3.34-1.833 7.858-2.018 10.904 2.68.63 6.635.477 9.526.72z" stroke-width=".17086680999999998"/><path d="M471.477 278.66c-.06-.05 5.428-10.256 5.428-10.256l-7.363 8.63-.115 2.444 2.05-.818z" stroke-width=".17086680999999998"/><path d="M481.897 276.636c-3.888 1.592-9.96 3.81-13.603 5.773 1.195-4.616 2.454-11.927 3.235-16.42-.14 3.892-.667 9.247-.34 12.675 3.085-.097 7.452-1.44 10.707-2.03z" stroke-width=".19342969"/><path d="M470.73 281.758c-.063-.055 6.497-11.77 6.497-11.77l-8.577 9.96-.237 2.78 2.317-.97z" stroke-width=".19201950999999998"/><path d="M480.397 278.084c-3.81 1.79-9.77 4.322-13.32 6.464.987-4.615 1.918-11.89 2.498-16.36.034 3.843-.253 9.148.225 12.506 3.076-.272 7.375-1.844 10.597-2.61z" stroke-width=".19201950999999998"/><path d="M469.394 283.54c-.07-.042 4.74-12.668 4.74-12.668l-7.095 11.313.18 2.742 2.174-1.388z" stroke-width=".19201950999999998"/><path d="M478.736 279.14c-3.8 1.82-9.75 4.4-13.287 6.568.956-4.62 1.842-11.896 2.393-16.37.06 3.84-.195 9.145.305 12.497 3.076-.297 7.37-1.903 10.588-2.696z" stroke-width=".19201950999999998"/><path d="M468.333 285.047c-.058-.06 7.335-11.17 7.335-11.17l-9.25 9.143-.45 2.77 2.365-.743z" stroke-width=".19201950999999998"/><path d="M478.377 278.563c-3.388 2.705-8.748 6.68-11.804 9.653-.005-4.664-.63-11.85-1.007-16.27.85 3.66 1.695 8.8 2.88 11.88 2.987-1.065 6.907-3.69 9.93-5.263z" stroke-width=".19201950999999998"/><path d="M468.686 285.59c-.08-.01.85-13.384.85-13.384l-3.534 13.012.986 2.452 1.698-2.08z" stroke-width=".19201950999999998"/><path d="M477.416 279.797c-3.398 2.688-8.773 6.636-11.84 9.593.015-4.665-.58-11.86-.938-16.282.835 3.666 1.657 8.812 2.83 11.9 2.99-1.048 6.918-3.653 9.948-5.21z" stroke-width=".19201950999999998"/><path d="M467.836 287.855c-.075-.032 3.418-13.078 3.418-13.078l-5.915 12.027.466 2.685 2.03-1.635z" stroke-width=".19201950999999998"/><path d="M477.04 280.114c-3.213 3.164-8.325 7.858-11.164 11.258-.504-4.785-1.917-12.09-2.78-16.58 1.27 3.657 2.69 8.834 4.247 11.86 2.97-1.434 6.74-4.576 9.696-6.538z" stroke-width=".19883537999999998"/><path d="M467.855 289.524c-.084-.012.64-13.91.64-13.91l-3.417 13.515 1.06 2.55 1.717-2.156z" stroke-width=".19883537999999998"/><path d="M476.02 282.42c-3.436 2.842-8.88 7.022-11.967 10.138-.108-4.845-.91-12.308-1.397-16.897.958 3.796 1.942 9.13 3.234 12.32 3.057-1.133 7.044-3.896 10.13-5.56z" stroke-width=".19883537999999998"/><path d="M466.83 291.117c-.074-.045 4.842-13.082 4.842-13.082l-7.262 11.59.19 2.872 2.23-1.38z" stroke-width=".19883537999999998"/><path d="M475.962 282.474c-3.04 3.217-7.884 7.992-10.573 11.448-.48-4.85-1.826-12.253-2.646-16.805 1.206 3.705 2.556 8.95 4.032 12.014 2.815-1.46 6.385-4.658 9.186-6.656z" stroke-width=".19507489999999997"/><path d="M467.02 291.782c-.085 0-.573-13.83-.573-13.83l-2.24 13.775 1.284 2.394 1.53-2.338z" stroke-width=".19883537999999998"/><path d="M474.47 283.503c-2.942 3.246-7.638 8.066-10.22 11.548-.623-4.85-2.184-12.25-3.137-16.8 1.313 3.7 2.816 8.94 4.38 11.994 2.768-1.487 6.24-4.718 8.978-6.74z" stroke-width=".19507489999999997"/><path d="M466.24 293.155c-.078-.023 1.545-14.05 1.545-14.05l-4.12 13.29.82 2.73 1.755-1.97z" stroke-width=".19507489999999997"/><path d="M473.84 284.052c-2.692 3.515-7.012 8.767-9.326 12.48-.99-4.763-3.11-11.97-4.405-16.404 1.59 3.552 3.488 8.618 5.28 11.503 2.65-1.748 5.87-5.3 8.45-7.578z" stroke-width=".19507489999999997"/><path d="M466.183 294.47c-.08-.004-.892-14.067-.892-14.067l-1.77 13.955 1.276 2.46 1.387-2.348z" stroke-width=".19507489999999997"/><path d="M473.56 284.86c-2.525 3.682-6.6 9.197-8.738 13.06-1.235-4.747-3.73-11.893-5.255-16.29 1.778 3.494 3.94 8.495 5.89 11.306 2.572-1.9 5.627-5.644 8.104-8.075z" stroke-width=".19648507999999998"/><path d="M467.063 295.786c-.08-.025 1.432-14.13 1.432-14.13l-4.028 13.282.85 2.78 1.746-1.932z" stroke-width=".19648507999999998"/><path d="M473.048 286.17c-2.177 4.01-5.728 10.06-7.503 14.196-1.654-4.547-4.775-11.305-6.687-15.463 2.08 3.225 4.68 7.897 6.867 10.42 2.385-2.245 5.082-6.393 7.323-9.154z" stroke-width=".19648507999999998"/><path d="M466.57 296.95c-.078.02-3.948-13.4-3.948-13.4l1.334 14.124 1.78 1.99.835-2.715z" stroke-width=".19648507999999998"/><path d="M472.97 287.734c-2.268 4-5.964 10.03-7.82 14.154-1.664-4.533-4.818-11.27-6.75-15.416 2.113 3.216 4.747 7.873 6.975 10.39 2.468-2.24 5.272-6.375 7.596-9.128z" stroke-width=".19883537999999998"/><path d="M466.75 299.474c-.084 0-1.45-14.09-1.45-14.09l-1.306 14.092 1.41 2.415 1.345-2.416z" stroke-width=".19883537999999998"/><path d="M473.198 288.965c-2.332 3.945-6.125 9.89-8.048 13.97-1.59-4.573-4.633-11.384-6.498-15.575 2.06 3.265 4.618 7.984 6.804 10.553 2.504-2.182 5.374-6.25 7.742-8.948z" stroke-width=".19883537999999998"/><path d="M466.61 300.603c-.082.01-2.613-13.837-2.613-13.837l-.128 14.17 1.603 2.232 1.138-2.565z" stroke-width=".19883537999999998"/><path d="M472.196 290.96c-2.516 3.777-6.585 9.45-8.697 13.39-1.37-4.674-4.084-11.687-5.745-16 1.9 3.402 4.228 8.292 6.288 11.01 2.603-2.006 5.66-5.87 8.153-8.4z" stroke-width=".19883537999999998"/><path d="M465.4 302.14c-.08-.022 1.17-14.144 1.17-14.144l-3.854 13.41.932 2.735 1.753-2z" stroke-width=".19883537999999998"/><path d="M472.35 291.317c-2.152 4.092-5.67 10.275-7.406 14.474-1.795-4.458-5.144-11.057-7.196-15.117 2.206 3.123 4.974 7.666 7.274 10.086 2.402-2.344 5.084-6.594 7.327-9.443z" stroke-width=".19883537999999998"/><path d="M464.92 303.32c-.08.025-4.34-13.182-4.34-13.182l1.67 14.018 1.87 1.907.8-2.743z" stroke-width=".19883537999999998"/><path d="M471.758 292.37c-1.502 4.49-4.036 11.333-5.112 15.838-2.438-3.988-6.726-9.74-9.357-13.28 2.64 2.586 6.048 6.444 8.676 8.32 2.012-2.827 4.013-7.59 5.792-10.88z" stroke-width=".19883537999999998"/><path d="M468.787 304.398c-.08.028-4.7-13-4.7-13l2.055 13.94 1.92 1.833.725-2.772z" stroke-width=".19883537999999998"/><path d="M471.724 293.737c-1.47 4.505-3.954 11.376-4.998 15.892-2.466-3.964-6.796-9.67-9.453-13.183 2.66 2.56 6.096 6.38 8.737 8.228 1.992-2.848 3.96-7.63 5.714-10.938z" stroke-width=".19883537999999998"/><path d="M468.825 306.615c-.077.04-6.047-12.158-6.047-12.158l3.52 13.5 2.103 1.518.425-2.86z" stroke-width=".19883537999999998"/><path d="M471.266 294.877c-.94 4.677-2.614 11.844-3.13 16.47-2.903-3.574-7.855-8.61-10.894-11.712 2.933 2.155 6.78 5.452 9.614 6.905 1.648-3.11 3.05-8.133 4.41-11.663z" stroke-width=".19883537999999998"/><path d="M469.22 308.52c-.084.017-3.262-13.632-3.262-13.632l.538 14.154 1.707 2.117 1.016-2.64z" stroke-width=".19883537999999998"/><path d="M471.285 296.328c-.497 4.782-1.492 12.142-1.574 16.817-3.21-3.168-8.592-7.514-11.896-10.192 3.11 1.75 7.235 4.513 10.18 5.578 1.347-3.315 2.27-8.504 3.29-12.202z" stroke-width=".19883537999999998"/><path d="M469.376 309.524c-.065.063-8.62-9.842-8.62-9.842l6.495 11.92 2.375.81-.25-2.888z" stroke-width=".19883537999999998"/><path d="M471.465 298.002c-.515 4.78-1.54 12.132-1.64 16.806-3.2-3.185-8.564-7.562-11.857-10.26 3.104 1.77 7.217 4.556 10.16 5.637 1.358-3.308 2.3-8.492 3.337-12.183z" stroke-width=".19883537999999998"/><path d="M470.342 311.803c-.074.044-6.62-11.864-6.62-11.864l4.16 13.316 2.172 1.42.288-2.873z" stroke-width=".19883537999999998"/><path d="M471.854 299.966c-.314 4.808-1.028 12.22-.932 16.897-3.327-2.99-8.864-7.038-12.264-9.534 3.172 1.578 7.394 4.113 10.375 5.016 1.218-3.39 1.94-8.627 2.82-12.38z" stroke-width=".19883537999999998"/><path d="M471.18 313.973c-.068.06-8.18-10.37-8.18-10.37l5.964 12.308 2.336.962-.12-2.9z" stroke-width=".19883537999999998"/><path d="M471.943 302.18c-.286 4.81-.955 12.228-.83 16.905-3.346-2.96-8.906-6.962-12.32-9.43 3.18 1.553 7.417 4.052 10.403 4.928 1.197-3.4 1.89-8.644 2.747-12.404z" stroke-width=".19883537999999998"/><path d="M471.92 315.737c-.077.036-5.735-12.504-5.735-12.504l3.174 13.69 2.062 1.642.498-2.828z" stroke-width=".19883537999999998"/><path d="M472.16 303.61c.163 4.827.19 12.3.747 16.94-3.593-2.497-9.482-5.73-13.098-7.726 3.298 1.116 7.734 3.033 10.778 3.503.87-3.545 1.07-8.86 1.57-12.717z" stroke-width=".19883537999999998"/><path d="M472.922 315.255c-.048.08-10.475-7.172-10.475-7.172l8.88 9.786 2.47.126-.875-2.74z" stroke-width=".19883537999999998"/><path d="M472.49 304.135c.417 4.805.834 12.253 1.636 16.856-3.73-2.352-9.795-5.353-13.52-7.205 3.362.988 7.903 2.73 10.976 3.085.688-3.567.61-8.87.908-12.735z" stroke-width=".19883537999999998"/><path d="M474.05 317.922c-.064.06-8.728-10.033-8.728-10.033l6.61 12.046 2.39.87-.27-2.884z" stroke-width=".19883537999999998"/><path d="M473.247 305.966c.618 4.785 1.348 12.216 2.34 16.775-3.814-2.13-9.984-4.768-13.775-6.398 3.392.787 7.99 2.257 11.068 2.426.534-3.61.232-8.916.367-12.802z" stroke-width=".19883537999999998"/><path d="M475.797 319.612c-.05.078-10.395-7.346-10.395-7.346l8.768 9.93 2.468.17-.84-2.754z" stroke-width=".19883537999999998"/><path d="M473.574 307.998c.93 4.73 2.15 12.094 3.44 16.56-3.932-1.77-10.235-3.824-14.108-5.096 3.42.466 8.086 1.502 11.153 1.38.29-3.664-.363-8.943-.486-12.844z" stroke-width=".19883537999999998"/><path d="M476.946 321.07c-.065.06-8.598-10.192-8.598-10.192l6.452 12.164 2.38.916-.234-2.887z" stroke-width=".19883537999999998"/><path d="M474.138 309.307c1.365 4.6 3.26 11.793 4.954 16.083-4.052-1.243-10.477-2.452-14.425-3.204 3.426.007 8.135.418 11.156-.114-.056-3.7-1.197-8.884-1.685-12.765z" stroke-width=".19883537999999998"/><path d="M477.404 321.096c-.017.094-12.01-2.574-12.01-2.574l11.422 5.68 2.307-.87-1.72-2.236z" stroke-width=".19883537999999998"/><path d="M474.93 310.737c1.348 4.605 3.215 11.808 4.892 16.106-4.048-1.265-10.47-2.51-14.415-3.285 3.426.027 8.135.464 11.158-.05-.04-3.7-1.16-8.89-1.634-12.77z" stroke-width=".19883537999999998"/><path d="M479.37 322.36c-.036.084-11.493-5.55-11.493-5.55l10.308 8.355 2.47-.23-1.285-2.576z" stroke-width=".19883537999999998"/><path d="M474.335 311.55c2.283 4.196 5.62 10.814 8.16 14.636-4.21-.322-10.73-.087-14.738.05 3.344-.75 8.024-1.387 10.862-2.575-.82-3.604-3.006-8.423-4.285-12.11z" stroke-width=".19883537999999998"/><path d="M481.176 323.62c-.022.09-11.942-3.3-11.942-3.3l11.208 6.347 2.356-.72-1.622-2.328z" stroke-width=".19883537999999998"/><path d="M475.57 313.33c2.307 4.18 5.683 10.774 8.245 14.577-4.21-.286-10.722.004-14.726.174 3.336-.777 8.008-1.454 10.836-2.666-.84-3.6-3.055-8.406-4.356-12.085z" stroke-width=".19883537999999998"/><path d="M482.692 324.6c-.043.082-11.128-6.656-11.128-6.656l9.723 9.305 2.5.024-1.095-2.673z" stroke-width=".19883537999999998"/><path d="M476.495 314.377c2.672 3.9 6.63 10.09 9.514 13.58-4.163.26-10.532 1.4-14.448 2.094 3.202-1.216 7.726-2.506 10.385-4.093-1.176-3.51-3.817-8.05-5.452-11.58z" stroke-width=".19883537999999998"/><path d="M483.505 325.575c-.004.098-12.012-.283-12.012-.283l11.884 3.512 2.113-1.313-1.985-1.915z" stroke-width=".19883537999999998"/><path d="M490.47 267.378c0-.037 8.64-1.44 8.64-1.44l-8.597.2-1.5.77 1.456.47z" stroke-width=".10411829"/><path d="M495.217 269.226c-2.507-.758-6.296-2.027-8.87-2.586 2.735-1.087 6.783-3.016 9.274-4.198-1.916 1.2-4.702 2.74-6.188 3.943 1.435.975 4.04 1.97 5.785 2.84z" stroke-width=".1057635"/><path d="M490.097 267.676c-.01-.036 8.36-2.297 8.36-2.297l-8.66 1.103-1.308.897 1.607.296z" stroke-width=".10411829"/><path d="M495.615 269.83c-2.93-.277-7.423-.84-10.314-.868 2.18-1.93 5.233-5.155 7.114-7.136-1.294 1.86-3.282 4.332-4.14 6.093 1.965.788 5.12 1.315 7.34 1.91z" stroke-width=".12080542"/><path d="M486.99 268.264c.006-.038 8.69-.98 8.69-.98l-8.468-.272-1.584.696 1.36.556z" stroke-width=".10411829"/><path d="M493.424 270.16c-2.664-.51-6.712-1.397-9.407-1.713 2.56-1.257 6.292-3.42 8.59-4.747-1.716 1.296-4.247 2.987-5.527 4.25 1.623.804 4.428 1.53 6.344 2.21z" stroke-width=".10411829"/><path d="M486.232 268.178c-.022-.032 7.65-3.292 7.65-3.292l-8.378 2.212-1.004 1.02 1.732.06z" stroke-width=".10411829"/><path d="M493.17 271.135c-2.216-.916-5.612-2.467-7.806-3.112 1.7-1.58 4.092-4.35 5.566-6.048-1.025 1.697-2.592 3.892-3.284 5.575 1.472 1.253 3.853 2.483 5.525 3.585z" stroke-width=".10858386"/><path d="M486.668 268.753c-.016-.05 5.95-2.58 5.95-2.58l-6.48.89-.797 1.154 1.328.536z" stroke-width=".10787877"/><path d="M481.686 324.474c.005.095-12.333.093-12.333.093l12.488 3.053 2.05-1.343-2.204-1.803z" stroke-width=".19883537999999998"/><path d="M483.903 325.278c-.015.09-12.527-2.914-12.527-2.914l12.03 5.897 2.356-.757-1.86-2.225z" stroke-width=".19883537999999998"/><path d="M485.962 326.112c0 .094-12.436-.627-12.436-.627l12.435 3.748 2.133-1.208-2.13-1.913z" stroke-width=".19883537999999998"/><path d="M478.07 317.32c3.235 3.565 8.082 9.247 11.476 12.39-4.177.632-10.468 2.32-14.337 3.35 3.074-1.476 7.477-3.144 9.953-4.933-1.668-3.32-4.958-7.512-7.093-10.808z" stroke-width=".19883537999999998"/><path d="M487.673 326.74c-.022.087-12.43-4.068-12.43-4.068l11.68 6.945 2.448-.516-1.697-2.36z" stroke-width=".19883537999999998"/><path d="M479.22 318.138c3.525 3.216 8.843 8.378 12.48 11.147-4.002 1.153-9.952 3.637-13.613 5.156 2.84-1.873 6.954-4.104 9.178-6.22-1.974-3.16-5.62-7.004-8.046-10.082z" stroke-width=".19883537999999998"/><path d="M488.696 327.51c.02.096-11.796 2.32-11.796 2.32l12.43.847 1.755-1.733-2.39-1.434z" stroke-width=".19883537999999998"/><path d="M486.23 326.77c.01.094-12.304.943-12.304.943l12.694 2.182 1.944-1.48-2.335-1.646z" stroke-width=".19883537999999998"/><path d="M488.5 327.418c-.007.09-12.72-2.04-12.72-2.04l12.45 5.048 2.294-.92-2.023-2.088z" stroke-width=".19883537999999998"/><path d="M490.62 328.107c.006.094-12.46.233-12.46.233l12.693 2.878 2.037-1.352-2.27-1.76z" stroke-width=".19883537999999998"/><path d="M482.082 319.888c3.497 3.33 8.76 8.66 12.385 11.56-4.122.916-10.274 3.033-14.06 4.327 2.96-1.684 7.23-3.65 9.567-5.605-1.914-3.192-5.514-7.144-7.892-10.282z" stroke-width=".19883537999999998"/><path d="M492.375 328.615c-.017.088-12.713-3.197-12.713-3.197l12.18 6.116 2.404-.683-1.87-2.235z" stroke-width=".19883537999999998"/><path d="M483.29 320.625c3.762 2.962 9.457 7.74 13.295 10.25-3.908 1.424-9.66 4.31-13.2 6.078 2.694-2.065 6.632-4.572 8.693-6.836-2.207-3.012-6.135-6.592-8.787-9.492z" stroke-width=".19883537999999998"/><path d="M493.453 329.312c.026.095-11.6 3.126-11.6 3.126l12.47-.013 1.622-1.848-2.492-1.265z" stroke-width=".19883537999999998"/></g><path d="M509.475 311.86L500 305.312l-9.475 6.548 3.553-10.477-8.29-6.548h10.66L500 284.358l3.553 10.477h10.66l-8.29 6.548 3.552 10.477z" font-size="12" fill="#fedf00" fill-rule="evenodd" stroke="#000" stroke-width=".543"/><g style="line-height:125%;-inkscape-font-specification:Arial Bold" font-size="66.5" font-weight="900" letter-spacing="0" word-spacing="0" font-family="Arial Black"><path d="M459.142 329.602l-8.896 5.282-2.72-4.58c-.505-.85-.817-1.543-.938-2.08-.12-.534-.066-1.057.165-1.566.23-.51.63-.932 1.196-1.27.492-.292.98-.44 1.464-.442.482-.002.944.115 1.386.35.28.152.59.404.924.757-.085-.393-.117-.696-.097-.91.013-.145.08-.384.206-.718.124-.334.232-.572.323-.713l1.79-2.86 1.845 3.106-1.846 3.083c-.24.396-.37.698-.39.906-.02.28.045.545.194.796l.144.243 3.61-2.144zm-6.93.38l-.69-1.158c-.073-.126-.258-.344-.553-.656-.145-.16-.327-.254-.545-.28-.218-.027-.424.017-.618.133-.287.17-.454.393-.5.666-.045.274.08.66.38 1.163l.716 1.206zM443.837 323.1l-2.704-8.13 2.096-.696 1.692 5.09 1.56-.52-1.57-4.72 2.002-.666 1.57 4.72 1.936-.643-1.742-5.237 2.223-.74 2.754 8.278zM440.286 311.025l-.604-5.28c-.132-1.15.043-2.043.524-2.678.482-.635 1.227-1.01 2.237-1.126 1.038-.118 1.884.102 2.54.66.656.556 1.057 1.475 1.203 2.756l.2 1.74 3.814-.438.365 3.19zm4.017-3.692l-.09-.778c-.07-.613-.225-1.03-.466-1.254-.24-.222-.527-.315-.86-.277-.322.037-.583.176-.782.416-.2.24-.266.657-.198 1.25l.103.905zM439.958 291.608l.342-3.172 6.133.662c.608.065 1.172.222 1.692.47.52.247.96.595 1.32 1.043.362.45.6.905.716 1.367.164.642.198 1.396.105 2.26-.054.502-.148 1.044-.282 1.628-.134.584-.327 1.064-.578 1.44-.25.374-.586.706-1.005.995-.42.288-.84.47-1.26.55-.675.125-1.265.16-1.77.106l-6.133-.662.342-3.17 6.28.676c.56.06 1.015-.047 1.365-.324.35-.278.553-.692.613-1.244.06-.547-.05-.993-.328-1.338-.277-.344-.7-.548-1.272-.61zM441.342 284.02l1.975-5.65c.33-.94.815-1.583 1.457-1.924.643-.34 1.308-.39 1.997-.15.578.2 1.01.554 1.298 1.058.19.337.286.764.285 1.28.414-.64.884-1.056 1.41-1.244.527-.187 1.1-.172 1.723.045.506.177.92.454 1.242.83.322.378.53.81.622 1.302.058.305.03.724-.08 1.258-.15.71-.263 1.177-.34 1.4l-1.82 5.208zm4.895-1.706l.46-1.312c.163-.47.197-.827.1-1.068-.1-.24-.3-.415-.607-.522-.285-.1-.54-.085-.763.043-.224.13-.417.422-.576.88l-.465 1.332zm3.837 1.34l.538-1.538c.182-.52.218-.918.108-1.195s-.32-.47-.63-.58c-.29-.1-.56-.075-.808.074-.25.15-.466.49-.65 1.018l-.536 1.532zM446.24 271.582l1.652-2.737 6.677 4.03 2.577-4.273 2.18 1.316-4.228 7.01zM452.484 262.11l2.052-2.46 7.947 6.623-2.05 2.46zM466.39 256.77l2.678-1.185c.37.72.572 1.41.61 2.073.036.664-.086 1.292-.366 1.887-.28.594-.772 1.193-1.475 1.797-.853.733-1.656 1.208-2.41 1.424-.754.217-1.595.182-2.524-.106-.93-.287-1.813-.917-2.65-1.892-1.116-1.298-1.628-2.593-1.537-3.884.09-1.29.768-2.48 2.03-3.565.99-.85 1.938-1.318 2.847-1.404.91-.087 1.857.166 2.843.758l-1.732 2.316c-.28-.175-.51-.282-.686-.322-.295-.07-.584-.07-.866 0-.282.068-.544.207-.787.415-.55.472-.78 1.055-.693 1.75.06.518.394 1.128.998 1.83.748.872 1.393 1.355 1.934 1.45.542.097 1.052-.06 1.53-.47.464-.4.702-.83.716-1.295.013-.465-.14-.99-.46-1.58zM477.424 252.803l-3.213 1.714.362 1.742-2.883 1.537-1.437-10.96 3.076-1.64 8.298 7.3-2.952 1.575zm-1.644-1.658l-2.758-2.744.747 3.817zM485.55 240.544l4.68-.808c.924-.16 1.69-.163 2.302-.01.61.152 1.142.43 1.594.834.452.404.815.903 1.09 1.495.273.593.47 1.236.59 1.932.19 1.09.21 1.956.066 2.6-.144.642-.402 1.205-.772 1.686-.37.482-.797.834-1.28 1.056-.657.303-1.267.504-1.828.6l-4.68.81zm3.55 1.765l.962 5.57.772-.134c.658-.113 1.114-.267 1.367-.46.254-.196.427-.488.522-.88.095-.39.072-.994-.07-1.81-.186-1.08-.49-1.79-.91-2.127-.422-.34-1.04-.437-1.856-.297zM498.834 238.765l8.56.366-.094 2.208-5.36-.23-.07 1.644 4.972.212-.09 2.108-4.97-.212-.088 2.037 5.513.236-.1 2.34-8.715-.372zM511.292 239.748l3.105.76-1.854 7.575 4.847 1.186-.606 2.474-7.952-1.947zM527.89 245.25l4.575 2.705c.996.59 1.602 1.267 1.818 2.034.216.766.066 1.587-.45 2.462-.533.9-1.22 1.442-2.06 1.628-.84.187-1.813-.048-2.923-.704l-1.507-.89-1.953 3.305-2.765-1.633zm.52 5.43l.674.4c.53.314.958.442 1.28.384.325-.057.572-.23.742-.517.165-.28.212-.57.14-.876-.07-.304-.364-.608-.878-.912l-.784-.463zM537.375 262.737l-2.666-2.48-1.53.91-2.394-2.225 9.893-4.928 2.552 2.374-4.198 10.224-2.45-2.278zm1.033-2.094l1.696-3.502-3.365 1.95zM539.652 267.53l8.53-5.855 3.015 4.394c.56.814.917 1.484 1.073 2.01.155.527.135 1.052-.063 1.575-.197.524-.567.972-1.11 1.344-.473.324-.95.503-1.433.537-.48.034-.95-.053-1.406-.26-.29-.13-.614-.362-.972-.693.11.386.163.687.157.902-.003.145-.056.388-.16.73-.1.34-.193.585-.275.733l-1.6 2.97-2.043-2.98 1.64-3.196c.216-.41.326-.72.33-.93.003-.28-.08-.54-.244-.78l-.16-.233-3.46 2.376zm6.89-.835l.764 1.11c.082.12.28.328.595.62.156.15.343.232.562.244.22.01.422-.047.61-.175.274-.19.426-.42.453-.697.028-.276-.123-.654-.453-1.135l-.795-1.158zM549.75 282.185l-1.35-3.382-1.77.168-1.212-3.034 11.05-.223 1.292 3.238-8.168 7.447-1.24-3.107zm1.83-1.45l3.03-2.442-3.875.323zM554.266 292.032l2.13-.318.73 4.885-4.362.652c-.778-.84-1.335-1.602-1.673-2.286-.337-.685-.58-1.52-.727-2.507-.182-1.215-.123-2.236.176-3.063.3-.828.827-1.513 1.583-2.057s1.664-.895 2.725-1.054c1.117-.167 2.122-.082 3.017.255.895.34 1.623.92 2.184 1.744.433.644.738 1.552.913 2.725.17 1.13.194 1.99.073 2.582-.12.59-.37 1.104-.744 1.538-.375.435-.88.794-1.512 1.08l-1-2.97c.367-.183.63-.44.79-.77.16-.33.205-.73.136-1.195-.104-.693-.428-1.21-.97-1.55-.544-.34-1.337-.43-2.38-.275-1.106.166-1.866.492-2.28.98-.41.487-.56 1.103-.45 1.848.053.353.155.683.305.99.15.304.38.646.69 1.023l.963-.143zM561.03 307.053l-.283 3.177-6.144-.548c-.61-.054-1.176-.2-1.7-.438-.525-.238-.972-.578-1.34-1.02-.37-.44-.617-.892-.74-1.35-.176-.64-.224-1.394-.147-2.26.045-.502.13-1.046.252-1.632.123-.587.306-1.07.55-1.45.244-.38.573-.718.987-1.014.414-.296.83-.487 1.25-.572.672-.138 1.262-.185 1.768-.14l6.144.548-.283 3.177-6.292-.56c-.562-.05-1.015.067-1.36.35-.343.284-.54.702-.59 1.255-.048.548.07.992.353 1.33.284.34.712.536 1.283.587zM549.595 318.007l1.137-3.46-1.466-1.01 1.02-3.103 8.614 6.925-1.088 3.31-11.043.464 1.043-3.178zm2.334.062l3.89.074-3.18-2.24zM555.632 326.467l-1.825 3.045-4.07-.004 1.922 3.588-1.815 3.026-3.09-6.54-3.716-2.23 1.646-2.747 3.717 2.228z" style="text-align:start"/></g><path d="M-236.122-33.236a120.446 122.83 0 1 1-240.892 0 120.446 122.83 0 1 1 240.892 0z" transform="matrix(.5 0 0 .5 686.6 317.1)" fill="none" stroke="#000" stroke-width="1.678" stroke-linecap="round"/><path d="M-236.122-33.236a120.446 122.83 0 1 1-240.892 0 120.446 122.83 0 1 1 240.892 0z" transform="matrix(.4 0 0 .4 642.9 313.1)" fill="none" stroke="#000" stroke-width="2.007" stroke-linecap="round"/></svg>