<svg xmlns="http://www.w3.org/2000/svg" width="600" height="400" viewBox="0 0 750 500.01"><title>Flag of Swaziland</title><path fill-rule="evenodd" fill="#3e5eb9" d="M0 0h750v500.01H0z"/><path fill-rule="evenodd" fill="#ffd900" d="M0 89.287h750v321.43H0z"/><path fill-rule="evenodd" fill="#b10c0c" d="M0 125h750v250H0z"/><rect fill-rule="evenodd" rx="5.279" ry="5.357" height="10.714" width="607.14" stroke="#000" y="244.65" x="74.767" stroke-width="1.35" fill="#ffd900"/><g stroke="#000" transform="translate(-614.3 -25)"><path d="M-106.3 265.75l-88.583 35.433 88.583 35.433 88.582-35.433-88.582-35.433z" fill-rule="evenodd" transform="matrix(.3 0 0 .3 1256.8 136.4)" stroke-width="3.914" fill="#FFF"/><rect fill-rule="evenodd" rx="3.851" ry="3.543" height="7.087" width="442.91" y="223.23" x="761.81" stroke-width="1.25" fill="#ffd900"/><path d="M1224.4 279.92c-3.54 0-7.09-3.544-7.09-7.087s3.55-7.087 7.09-7.087" transform="matrix(-.5 0 0 .5 1806.3 90.4)" stroke-width="2.5" fill="none"/><path d="M1224.4 279.92c-3.54 0-7.09-3.544-7.09-7.087s3.55-7.087 7.09-7.087" transform="matrix(-.5 0 0 .5 1802.8 90.4)" stroke-width="2.5" fill="none"/><path d="M1224.4 279.92c-3.54 0-7.09-3.544-7.09-7.087s3.55-7.087 7.09-7.087" transform="matrix(-.5 0 0 .5 1799.2 90.4)" stroke-width="2.5" fill="none"/></g><g stroke="#000" transform="translate(-642.9 -3.6)"><path d="M-106.3 265.75l-88.583 35.433 88.583 35.433 88.582-35.433-88.582-35.433z" fill-rule="evenodd" transform="matrix(.3 0 0 .3 1256.8 136.4)" stroke-width="3.914" fill="#FFF"/><rect fill-rule="evenodd" rx="3.851" ry="3.543" height="7.087" width="442.91" y="223.23" x="761.81" stroke-width="1.25" fill="#ffd900"/><path d="M1224.4 279.92c-3.54 0-7.09-3.544-7.09-7.087s3.55-7.087 7.09-7.087" transform="matrix(-.5 0 0 .5 1806.3 90.4)" stroke-width="2.5" fill="none"/><path d="M1224.4 279.92c-3.54 0-7.09-3.544-7.09-7.087s3.55-7.087 7.09-7.087" transform="matrix(-.5 0 0 .5 1802.8 90.4)" stroke-width="2.5" fill="none"/><path d="M1224.4 279.92c-3.54 0-7.09-3.544-7.09-7.087s3.55-7.087 7.09-7.087" transform="matrix(-.5 0 0 .5 1799.2 90.4)" stroke-width="2.5" fill="none"/></g><g stroke-width="1pt" fill-rule="evenodd"><path d="M338.07-.416c-5.57 12.442 4.275-4.138 28.3 16.69 4.45 3.87 8.34 14.09 8.34 21.178-1.13-.975-1.968-3.145-3.213-4.553-1.743 2.252 1.664 12.576 2.162 17.456-3.757-2.71-3.395-3.993-4.643-7.324.25 4.026-.645 15.116.85 19.386-2.96-1.09-2.765-4.163-4.31-4.78 1.05 4.834-.917 10.094-.395 15.528-1.73-2.208-3.573-3.937-4.376-4.83-.135 2.59-3.327 9.39-3.4 11.836-1.468-1.143-1.866-2.926-2.11-4.126-1.825 2.955-8.31 13.872-8.725 17.202-4.995-5.69-17.792-19.545-19.458-26.9-1.473 4.176-3.604 5.584-7.817 8.632-1.665-11.656-7.89-24.756-4.56-34.747-2.36 1.804-4.303 3.608-6.66 5.828C310.287 29.18 321.68 9.388 338.07-.415z" transform="matrix(1 0 0 .8 310.9 246.1)" stroke="#000" fill="#3d5da7"/><path d="M619.02 292.157c2.246-4.49 4.314-5.915 5.766-8.805 2.564-5.08 2.93-9.125 5.163-8.532 2.234.593 2.23 2.673-.663 7.67-2.894 4.997-4.27 6.063-10.268 9.667zM634.21 302.85c-.288-3.417.704-4.845.522-7.047-.308-3.874-1.892-6.533.167-6.722 2.06-.188 3.022 1.133 3.028 5.037.007 3.904-.597 4.93-3.717 8.734zM645.74 309.554c-.9-4.772-.227-6.89-.802-9.963-1.004-5.41-2.987-8.97-1.078-9.466 1.91-.495 3.06 1.255 3.784 6.74.723 5.487.34 6.995-1.904 12.69zM657.727 276.112c-2.815-2.137-4.458-2.28-6.273-3.653-3.198-2.41-4.816-4.99-5.845-3.708-1.03 1.28-.3 2.68 3.052 4.902 3.35 2.223 4.485 2.398 9.065 2.458zM655.74 291.96c-1.483-3.082-3.045-3.863-4.004-5.846-1.697-3.483-1.7-6.498-3.54-5.725-1.84.772-1.988 2.35-.02 5.72 1.97 3.373 2.998 3.983 7.565 5.85z" fill="#a70000"/></g><g stroke-width="1pt" fill-rule="evenodd"><path d="M329.6 20.703c-.272-2.662.253-2.98-1.258-4.99 2.2.998 2.284 3.65 4.96 1.768.982-.55 1.41-.568.216-3.525 2.79.14 11.927 3.535 13.39 3.614 3.842.19 10.855-4.374 15.723 1.238 4.673 5.118 3.113 10.43 3.113 17.516-1.877-.975-.973-1.455-2.965-3.99 1.494 6.196-.08 17.365-.08 23.935-.767-1.585-.654-.897-1.404-2.538-1.992 5.997-4.38 7.23-4.38 14.318-.72-2.78-.025-2.19-.825-3.653-1.937 4.552-14.926 8.443-9.92 13.033-4.52-2.87-6.5-2.57-8.55-5.15-.88.617-1.583 1.785-2.403 3.386-7.943-3.96-5.103-12.5-11.326-18.206-1.076 2.393-.585 2.045-1.75 5.94-1.26-5.41-1.603-8.845-3.02-12.82-1.223 2.203-1.113 1.36-3.333 4.69-.918-6.588-2.413-8.143-1.822-12.502-2.36 1.804-.815 1.073-3.173 3.293 2.234-16.88 11.884-29.35 18.808-25.357z" transform="matrix(1.1 0 0 1 -265.1 233.6)" stroke="#000" fill="#3d5da7"/><path d="M90.128 283.016c2.272-5.57 4.32-7.32 5.79-10.905 2.593-6.303 3.015-11.34 5.194-10.572 2.18.77 2.144 3.363-.77 9.557-2.916 6.193-4.28 7.506-10.214 11.92zM98.733 296.952c.91-4.994 2.35-6.813 2.94-10.03 1.05-5.654.464-9.865 2.49-9.643 2.024.22 2.482 2.355 1.134 7.98-1.347 5.626-2.277 6.96-6.564 11.692zM109.026 306.64c.256-4.84 1.39-6.732 1.56-9.85.308-5.484-.748-9.41 1.183-9.433 1.93-.023 2.618 1.95 2.026 7.44-.59 5.49-1.306 6.862-4.77 11.843zM131.128 274.98c-4.226-4.21-6.782-4.996-9.507-7.704-4.802-4.756-7.123-9.22-8.832-7.637-1.71 1.58-.682 3.953 4.375 8.48 5.056 4.525 6.814 5.184 13.965 6.86zM128.558 291.255c-2.753-4.227-4.773-5.323-6.55-8.043-3.134-4.78-4.21-8.888-5.988-7.87-1.778 1.016-1.38 3.163 2.017 7.797 3.396 4.632 4.763 5.483 10.52 8.115z" fill="#a70000"/></g><g fill-rule="evenodd"><path d="M637.8 230.32c-53.15 59.05-124.02 177.16-265.75 177.16-124.02 0-212.6-118.11-265.75-177.16 53.15-59.06 141.73-177.17 265.75-177.17 141.73 0 212.6 118.11 265.75 177.17z" transform="matrix(.7 0 0 .6 125 110.7)" stroke="#000" stroke-width="1.976" fill="#FFF"/><path d="M362.537 180.13c9.502 10.688 1.568 14.996 11.625 15.698 10.606.778 4.594 11.292 13.516 11.657 6.237.272-.623 25.19 5.382 33.412 6.116 8.572 11.238 2.51 11.346 8.704.106 6.406-16.647 5.76-16.94 25.49-.492 11.37-14.138 12.097-14.79 19.413-.81 6.88 26.885 10.745 26.516 16.905-.38 6.14-29.903 5.18-31.188 12.184-.66 6.29 40.558 11.447 43.872 29.64-6.15 2.012-23.648 3.906-36.875 3.916-83.32.06-142.85-71.435-178.565-107.147 35.715-35.716 95.237-107.145 178.573-107.145 0 0-24.737 22.602-12.464 37.27z" stroke-width="1pt"/><g font-size="12" stroke-width="1pt" fill="#FFF"><path d="M263.096 211.907h8.658v28.572h-8.658zM263.096 259.527h8.658V288.1h-8.658zM280.41 211.907h8.66v28.572h-8.66zM280.41 259.527h8.66V288.1h-8.66zM297.725 211.907h8.658v28.572h-8.658zM297.725 259.527h8.658V288.1h-8.658zM315.044 211.907h8.66v28.572h-8.66zM315.044 259.527h8.66V288.1h-8.66zM332.36 211.907h8.657v28.572h-8.658zM332.36 259.527h8.657V288.1h-8.658zM349.674 211.907h8.658v28.572h-8.658zM349.674 259.527h8.658V288.1h-8.658z"/></g><g font-size="12" stroke-width="1pt"><path d="M394.048 211.907h8.66v28.572h-8.66zM394.048 259.527h8.66V288.1h-8.66zM411.363 211.907h8.658v28.572h-8.657zM411.363 259.527h8.658V288.1h-8.657zM428.677 211.907h8.66v28.572h-8.66zM428.677 259.527h8.66V288.1h-8.66zM445.997 211.907h8.658v28.572h-8.658zM445.997 259.527h8.658V288.1h-8.658zM463.31 211.907h8.66v28.572h-8.66zM463.31 259.527h8.66V288.1h-8.66zM480.626 211.907h8.658v28.572h-8.658zM480.626 259.527h8.658V288.1h-8.658z"/></g></g><g stroke-width="1pt" fill-rule="evenodd"><path d="M338.07-.416c-5.57 12.442 9.754-4.138 33.778 16.69 4.452 3.87 10.833 19.16 10.833 26.246-5.114-1.257-14.172-7.087-14.172-7.087s10.63 12.295 10.63 26.468c-3.756-2.71-5.635-2.303-6.883-5.633 0 4.588 3.34 7.512 3.34 14.6-2.71-2.5-5.006-4.164-7.3-5.626 3.543 7.087-6.457 20.835-1.452 25.424-8.752-1.462-17.707-7.92-21.25-15.006-1.878 1.462-2.082 3.756-2.155 6.203.276.265-13.322-11.655-12.073-16.234-1.824 2.955-2.08 4.58-2.497 7.91-4.996-5.69-9.574-11.38-11.24-18.734-2.22 3.33-2.36 3.33-4.58 6.66-1.664-11.655-1.664-11.24 1.666-21.23-2.36 1.804-4.302 3.608-6.66 5.828 2.234-16.88 13.628-36.674 30.016-46.477z" transform="matrix(.9 0 0 .8 17 162.2)" stroke="#000" fill="#3d5da7"/><path d="M305.052 208.634c.79-6.594 2.515-9.078 3.03-13.324.92-7.468-.17-12.926 2.476-12.788 2.646.138 3.408 2.893 2.1 10.345-1.308 7.45-2.41 9.262-7.606 15.767zM318.87 220.707c-.536-5.563.49-7.932.15-11.515-.587-6.306-2.535-10.577-.228-10.97 2.307-.392 3.473 1.723 3.722 8.09.248 6.365-.368 8.062-3.644 14.395zM340.433 230.556c-2.345-4.814-4.36-6.25-5.874-9.348-2.676-5.445-3.233-9.892-5.296-9.086-2.063.806-1.95 3.106 1.03 8.436 2.978 5.33 4.324 6.417 10.14 9.998zM347.888 187.443c-5.972-3.143-9.04-3.183-12.89-5.203-6.777-3.542-10.72-7.544-12.122-5.34-1.4 2.2.47 4.39 7.456 7.61 6.987 3.222 9.134 3.374 17.556 2.933zM350.076 205.448c-4.35-3.618-6.92-4.15-9.725-6.477-4.94-4.083-7.4-8.093-9.05-6.468-1.65 1.626-.548 3.774 4.64 7.62 5.185 3.85 6.958 4.326 14.136 5.326z" fill="#a70000"/></g></svg>