<svg xmlns="http://www.w3.org/2000/svg" xmlns:xlink="http://www.w3.org/1999/xlink" version="1" width="1000" height="500"><defs><clipPath id="b"><path d="M300 150h300v150zm0 0v150H0zm0 0H0V0zm0 0V0h300z"/></clipPath><clipPath id="a"><path d="M0 0h600v300H0z"/></clipPath><path fill="#ffce00" d="M252.032 158.293l9.335-28.862 9.33 28.864 30.278-.022-24.51 17.81 9.377 28.85-24.48-17.856-24.48 17.85 9.38-28.845-24.507-17.814z" id="c"/></defs><path fill="#5b97b1" d="M0 0h1000v500H0z"/><path fill="#00247d" d="M0 0h500v250H0z"/><g fill="none" stroke="#fff" stroke-width="60"><path d="M0 0l600 300m0-300L0 300" clip-path="url(#a)" transform="scale(.8)"/><path d="M0 0l600 300m0-300L0 300" clip-path="url(#b)" stroke="#cf142b" stroke-width="40" transform="scale(.8)"/><path d="M240 0v240M0 120h480" stroke-width="80"/><path d="M240 0v240M0 120h480" stroke="#cf142b" stroke-width="48"/></g><use x="657.663" y="-98.26" xlink:href="#c"/><use x="569.001" y="153.873" xlink:href="#c"/><use x="657.663" y="96.797" xlink:href="#c"/><use x="276.415" y="279.663" xlink:href="#c"/><use transform="rotate(180 459 245)" xlink:href="#c"/><use transform="rotate(180 511.5 172.4)" xlink:href="#c"/><use transform="rotate(180 555.7 157.3)" xlink:href="#c"/><use transform="rotate(180 511.5 282.9)" xlink:href="#c"/><use transform="rotate(180 459 295.8)" xlink:href="#c"/></svg>