<svg version="1" xmlns="http://www.w3.org/2000/svg" xmlns:xlink="http://www.w3.org/1999/xlink" width="500" height="250"><path fill="#0099b5" d="M0 0h500v80H0z"/><path fill="#ce1126" d="M0 80h500v90H0z"/><path fill="#fff" d="M0 85h500v80H0z"/><path fill="#1eb53a" d="M0 170h500v80H0z"/><circle cx="70" cy="40" r="30" fill="#fff"/><circle cx="80" cy="40" r="30" fill="#0099b5"/><g id="c" transform="translate(88 64)" fill="#fff"><g id="b"><path id="a" d="M0-6L-1.854-.294 1 .633"/><use xlink:href="#a" transform="scale(-1 1)"/></g><use xlink:href="#b" transform="rotate(72)"/><use xlink:href="#b" transform="rotate(144)"/><use xlink:href="#b" transform="rotate(216)"/><use xlink:href="#b" transform="rotate(288)"/></g><use xlink:href="#c" x="24"/><use xlink:href="#c" x="48"/><use xlink:href="#c" x="72"/><use xlink:href="#c" x="96"/><use xlink:href="#c" x="24" y="-24"/><use xlink:href="#c" x="48" y="-24"/><use xlink:href="#c" x="72" y="-24"/><use xlink:href="#c" x="96" y="-24"/><use xlink:href="#c" x="48" y="-48"/><use xlink:href="#c" x="72" y="-48"/><use xlink:href="#c" x="96" y="-48"/></svg>