<svg width="512" height="512" xmlns="http://www.w3.org/2000/svg"><title>background</title><path fill="none" d="M-1-1h514v514H-1z"/><g><title>Layer 1</title><path stroke="null" d="M107.3398 196.8194l136.975-.6492" opacity=".5" fill-opacity="null" stroke-opacity="null" stroke-width="NaN" fill="#08f"/><ellipse rx=".3246" cy="179.2913" cx="280.0193" fill="#fff"/><path d="M21 254.6486c0-129.8342 105.1657-235 235-235 129.8342 0 235 105.1658 235 235 0 129.8343-105.1658 235-235 235-129.8343 0-235-105.1657-235-235z" fill="#fff"/><path fill="#08f" d="M102.6285 154.1455c-5.3465 0-9.677 4.1555-9.677 9.286V534.879c0 5.1305 4.3305 9.286 9.677 9.286s9.677-4.1555 9.677-9.286V163.4315c0-5.1306-4.3304-9.286-9.677-9.286zm113.7045 9.286c-32.4905.3716-64.7777 9.2863-94.3505 27.2783v167.7317s76.5158-51.4548 169.347-12.9078c81.9156 34.0013 120.9622 12.7685 120.9622 12.7685v-167.741s-38.6402 20.3043-120.9622-12.7685c-24.3376-9.7737-49.725-14.6536-74.9965-14.361z"/><path fill="#FFF" d="M263.044 298.1767c.0508-1.456-.1698-2.8448-.6602-4.1657-.491-1.3218-1.218-2.4786-2.1805-3.4718-.9628-.9927-2.0855-1.7992-3.3682-2.4188-1.2825-.6208-2.6517-.9564-4.1077-1.0072s-2.8454.1883-4.1683.7182c-1.3228.5292-2.48 1.256-3.4712 2.18-.9914.925-1.778 2.0286-2.36 3.3132-.582 1.284-.8982 2.6535-.949 4.1095-.051 1.4563.169 2.8454.66 4.1663.491 1.322 1.1987 2.478 2.123 3.4695.9246.9917 2.028 1.7975 3.3108 2.4172 1.2827.6208 2.652.9558 4.108 1.0066s2.8455-.1878 4.168-.7176c1.3233-.5292 2.4998-1.2554 3.529-2.1784 1.0295-.9233 1.8353-2.0263 2.4172-3.311.5818-1.284.8983-2.654.9492-4.11zm-9.3477-15.7483l-.9196-.032c-2.4415-.3923-4.4143-1.5737-5.9184-3.5444-1.504-1.97-2.0983-4.178-1.7828-6.6223.607-4.1983 1.8032-8.2426 3.5886-12.1316 1.7855-3.889 4.0345-7.3208 6.747-10.295.8805-1.0435 1.834-1.9884 2.861-2.835 1.0276-.8464 2.0533-1.6737 3.079-2.482 2.6038-2.0573 4.6062-3.9055 6.0056-5.5446s2.1427-3.6848 2.2283-6.137c.075-2.1457-.3042-3.9236-1.1373-5.3338-.8326-1.41-1.8677-2.5396-3.1042-3.3884-1.2365-.8488-2.5383-1.4697-3.9055-1.8627-1.3673-.393-2.5874-.6083-3.6603-.6457l-.23-.008c-2.1456-.075-3.9182.1508-5.3176.6774s-2.596 1.2904-3.59 2.2915-1.8423 2.2183-2.5445 3.6515-1.4276 2.9808-2.1762 4.6427c-1.0025 2.3434-2.172 3.9713-3.508 4.8837s-2.6584 1.4225-3.9665 1.5303c-1.4668.2557-2.957.0885-4.471-.5014-1.5112-.6666-2.7066-1.5907-3.586-2.7723-.8082-1.0256-1.4147-2.332-1.8197-3.919-.4048-1.587-.184-3.5166.6626-5.7888.5107-1.44 1.3882-3.5 2.6327-6.1804s3.081-5.2823 5.5092-7.8062 5.515-4.6795 9.2602-6.467 8.3753-2.5462 13.89-2.277c3.6757.2052 7.273 1.002 10.7924 2.391s6.6538 3.359 9.4036 5.9102c2.7503 2.5512 4.9437 5.6393 6.5824 9.2643 1.638 3.625 2.3763 7.7364 2.2157 12.3343-.1177 3.3718-.6813 6.3444-1.6925 8.9178-1.0105 2.5734-2.2608 4.87-3.7508 6.8894s-3.0854 3.767-4.7864 5.242c-1.701 1.4752-3.2627 2.8017-4.685 3.9798-.7904.663-1.5404 1.2698-2.2508 1.8204-.7097.5512-1.265 1.088-1.667 1.6106-1.4382 1.6383-2.6757 3.5702-3.7126 5.798-1.0374 2.227-1.713 4.563-2.0285 7.007-.3128 2.3676-1.3574 4.2685-3.1334 5.7026-1.7768 1.4336-3.8143 2.1105-6.1133 2.0302z" stroke="null"/></g></svg>
