<svg width="512" height="512" xmlns="http://www.w3.org/2000/svg"><title>background</title><title>Layer 1</title><path fill="#08f" stroke-width="NaN" stroke-opacity="null" fill-opacity="null" opacity=".5" d="M107.3398 196.8194l136.975-.6492" stroke="null"/><ellipse fill="#fff" cx="280.0193" cy="179.2913" rx=".3246"/><path stroke="null" d="M64.204 6.641c-6.8367 0-12.374 5.3137-12.374 11.874v474.97c0 6.5603 5.5373 11.874 12.374 11.874s12.374-5.3137 12.374-11.874V18.515c0-6.5604-5.5374-11.874-12.374-11.874zm145.3938 11.874c-41.5456.4753-82.8312 11.8745-120.646 34.881v214.4783s97.8408-65.7952 216.544-16.5052C410.2412 294.8467 460.17 267.6963 460.17 267.6963V53.206S410.761 79.169 305.496 36.8787c-31.1205-12.4976-63.5834-18.7376-95.898-18.3634v-.0003z" fill="#08f"/><g><title>Layer 2</title><path d="M-1-1h514v514H-1V-1z" fill="none"/></g><g><title>background</title><path fill="none" d="M-1-1h582v402H-1z"/></g></svg>
