<svg xmlns="http://www.w3.org/2000/svg" xmlns:xlink="http://www.w3.org/1999/xlink" width="450" height="300"><path fill="#ce1126" d="M0 0h450v300H0z"/><path d="M0 150h450v150H0z"/><path d="M199.324 114.656h19.617L225 96l6.06 18.656h19.616l-15.868 11.528 6.06 18.656L225 133.312l-15.868 11.528 6.06-18.656-15.868-11.528zM302.624 142.355c.5 5.085.5 10.206 0 15.29l-14.927-1.47c.404-4.106.404-8.243 0-12.35l14.927-1.47m-2.983 30.287c-1.482 4.89-3.442 9.62-5.85 14.127l-13.23-7.072c1.946-3.64 3.53-7.46 4.727-11.41l14.354 4.354m-14.345 26.84c-3.24 3.95-6.863 7.572-10.812 10.813l-9.516-11.595c3.19-2.618 6.115-5.543 8.733-8.733l11.595 9.516M261.77 218.79c-4.507 2.41-9.24 4.37-14.128 5.852l-4.354-14.354c3.95-1.198 7.77-2.78 11.41-4.727l7.07 13.23m-29.123 8.835c-5.084.5-10.206.5-15.29 0l1.47-14.928c4.107.404 8.243.404 12.35 0l1.47 14.928m-30.287-2.983c-4.89-1.483-9.62-3.443-14.127-5.852l7.072-13.23c3.64 1.947 7.46 3.53 11.41 4.728l-4.354 14.354M247.642 75.36c4.89 1.482 9.62 3.442 14.127 5.85l-7.072 13.23c-3.64-1.946-7.46-3.53-11.41-4.727l4.354-14.354m26.84 14.345c3.95 3.242 7.572 6.863 10.813 10.813l-11.595 9.515c-2.618-3.19-5.543-6.114-8.733-8.732l9.516-11.595m19.307 23.526c2.408 4.507 4.368 9.24 5.85 14.128l-14.353 4.354c-1.198-3.95-2.78-7.77-4.726-11.41l13.23-7.07zM280.587 224.866l7.292-8.55c3.837 3.713 9.005 7.374 12.754 10.7 3.748 3.328 6.62 6.094 8.945 9.873 3.406 5.538-.42 11.81-5.725 8.13-2.87-1.992-4.672-7.368-9.067-11.816-3.255-2.77-5.82-5.677-14.002-7.078-.393-.068-.508-.898-.2-1.26z" fill="#f9d616"/><path d="M291.406 222.297c0 .36-.19.693-.503.873-.312.18-.696.18-1.008 0-.312-.18-.503-.513-.503-.873s.19-.693.503-.873c.312-.18.696-.18 1.008 0 .312.18.504.513.503.873z" id="a"/><path d="M232.5 78.78l-1.425 13.35c29.398 3.084 52.425 27.69 52.425 57.9 0 32.293-26.208 58.5-58.5 58.5-14.08 0-26.802-5.203-36.9-13.5l-8.55 10.426c12.426 10.202 28.13 16.575 45.45 16.575 39.744 0 72-32.255 72-72 0-37.17-28.333-67.44-64.5-71.25z" fill="#f9d616"/><path d="M231.36 197.845l20.248 11.972 4.4 17.08 23.242-1.762 10.212-11.972-37.854-26.234-20.247 10.915z"/><path d="M279.663 223.69c-26.035-17.315-42.59-26.664-67.542-40.85-9.8-5.574-25.022-19.583-13.015-43.02.756 15.386 61.57 57.622 87.265 75.987l-6.707 7.882z" fill="#f9d616"/><path d="M216.086 167.52c20.045 18.89 45.29 34.3 67.812 51.335" fill="none" stroke="#000" stroke-width="1.5" stroke-linecap="round"/><use transform="translate(7.42 6.466)" xlink:href="#a"/><use transform="translate(13.938 13.09)" xlink:href="#a"/></svg>