<svg xmlns="http://www.w3.org/2000/svg" xmlns:xlink="http://www.w3.org/1999/xlink" version="1" width="1000" height="700"><path d="M0 0v700h320V0H0z" fill="#0018a8"/><path d="M680 0v700h320V0H680z" fill="#d0103a"/><path fill="#fedf00" d="M320 0h360v700H320z"/><path d="M517.803 229.823c-.69-.387-1.35-.756-1.98-1.102-1.65-.905-3.41-.72-4.26.312-.964 1.164-1.305 3.15.032 4.382" fill="none" stroke="#231f20" stroke-width=".987" stroke-linecap="round" stroke-miterlimit="3.864"/><path d="M399.063 379.982c-.382.894-.604 1.19-1.003 1.944-.42.793-.65 1.246-1.105 2.02-.442.757-.703 1.178-1.19 1.906-.656.983-1.09 1.494-1.787 2.45" fill="none" stroke="#c7b37f" stroke-width=".987" stroke-linecap="round" stroke-miterlimit="3.864"/><path d="M469.373 188.477c12.05 0 16.98 10.338 29.03 10.338 7.44 0 11.776-2.43 18.26-6.087 4.524-2.562 7.41-3.927 12.606-3.927 5.317 0 8.58 1.61 11.3 6.168 1.537 2.58 2.814 7.628 2.137 10.525-1.28 5.493-2.07 7.88-4.262 12.952-1.042 2.44-2.027 3.898-2.027 6.566 0 6.398 8.704 8.595 14.622 8.687 1.29.02 12.138.198 18.815-6.56-3.623-.16-7.676-2.966-7.676-6.588 0-4.1 2.88-6.875 6.785-8.058.742-.212 2.005.443 2.677.09.954-.495.508-1.57 1.356-2.24 1.944-1.555 3.207-2.526 5.7-2.526 1.624 0 2.576.23 3.884 1.166.69.495.942 1.107 1.79 1.107 1.785 0 2.67-1.132 4.454-1.132 1.448 0 2.332.195 3.604.848 1.06.548 1.037 2.35 2.238 2.35.6 0 3.78-1.296 5.44-1.296 3.445 0 5.285 1.247 7.51 3.862.602.707.987 2.137 1.597 2.137 1.23 0 4.066.79 5.832 2.558.76.76 1.097 1.12 1.68 2.04.407.653 1.03 2.248 1.748 2.524.842.324 1.548.262 2.655.972 2.526 1.62 4.47 4.662 4.378 7.61-.03.99-.482 2.368-.75 3.31-2.942 10.285-9.94 13.548-17.01 22.383-3.003 3.763-5.374 6.767-5.374 11.59 0 1.167 1.436 3.303 2.073 4.275-.39-2.267.647-5.05 3.043-5.18 3.282-.178 5.817 2.317 6.26 5.568.087.76-.196 2.073-.52 2.85 1.767-1.167 4.096-1.955 6.217-2.202 1.15-.124 1.813-.16 2.98-.13 5.244.13 11.033 3.08 14.546 6.064 10.75 9.13 12.05 22.493 11.462 26.203-1.305 8.246-.484 23.168-21.56 29.117 3.897 1.642 6.55 4.573 6.55 8.178 0 3.923-3.005 7.28-6.927 7.28-2.245 0-3.8-.548-5.372-2.12-4.382 4.382-5.23 8.852-5.23 15.054 0 3.71.706 5.902 2.26 9.26 1.645 3.55 2.828 5.636 5.797 8.198 1.573-2.368 3.234-4.1 6.078-4.1 2.758 0 5.09.884 6.22 3.393.337.76.036 1.378.425 2.12.495.954 1.326 1.167 1.838 2.12.795 1.467.018 2.722.707 4.24.44.99 1.413 1.132 1.837 2.122.672 1.52.85 2.562.85 4.24 0 4.7-4.278 8.058-8.978 8.058-1.414 0-2.192-.566-3.605-.424 2.685 2.686 4.735 3.853 6.785 7.068 2.968 4.648 3.71 7.952 4.382 13.43.124 1.024.14 1.643.14 2.685 0 7.033-1.094 11.238-4.24 17.528-3.003 6.027-5.565 9.366-11.025 13.29-8.517 6.13-14.72 7.897-25.02 9.894-6.61 1.272-10.39 1.838-17.105 2.262-8.588.547-13.482.565-22.052 1.13-11.238.76-19.03 2.35-27 10.32 3.764 2.756 6.36 5.46 6.36 10.107 0 4.77-2.95 8.18-7.49 9.683-1.06.353-1.838.035-2.828.565-1.184.62-1.13 1.98-2.26 2.687-1.998 1.272-3.553 1.555-5.938 1.555-4.206 0-7.07-.99-10.037-3.96-3.446 2.864-4.612 5.444-8.48 7.635-1.274.707-1.928 1.696-3.394 1.696-2.315 0-3.375-1.466-5.23-2.827-2.95-2.156-4.524-3.587-6.927-6.36-3.516 2.102-5.672 3.816-9.754 3.816-2.51 0-4.1-.354-6.22-1.697-1.113-.69-1.29-1.714-2.403-2.403-1.167-.724-2.14-.46-3.393-.99-4.718-2.03-7.775-5.53-7.775-10.67 0-4.507 2.845-7.37 6.927-9.26-7.83-7.828-15.533-9.19-26.577-9.895-8.534-.548-13.393-.566-21.91-1.13-6.768-.46-10.532-1.15-17.246-2.263-5.07-.83-8.075-1.096-12.722-3.25-15.992-7.458-26.187-17.688-28.272-35.2-.177-1.5-.14-2.367-.14-3.886 0-9.118 3.585-14.684 10.035-21.133-1.66-.39-2.774.16-4.382-.424-4.03-1.466-6.926-4.258-6.926-8.552 0-1.59.07-2.65.848-4.028.547-.972 1.59-1.166 1.837-2.262.318-1.45-.106-2.473.566-3.817.442-.9 1.273-1.076 1.697-1.978 1.396-2.897 3.145-5.23 6.36-5.23 2.757 0 4.525 1.45 5.938 3.817 2.686-1.238 3.428-3.252 4.948-5.797 2.526-4.223 3.675-7.174 3.675-12.086 0-3.428-.336-5.442-1.413-8.693-.778-2.332-1.096-3.923-2.828-5.654-1.572 1.572-3.127 2.12-5.37 2.12-4.49 0-7.917-3.852-7.917-8.34 0-3.34 1.643-5.813 4.664-7.21-2.42-2.084-4.523-2.26-7.21-3.957-4.08-2.58-5.512-5.3-8.198-9.33-1.75-2.633-2.208-4.47-3.11-7.492-1.077-3.64-1.696-5.812-1.696-9.61 0-.99.018-1.574.14-2.545 1.01-7.67 2.387-12.475 7.21-18.518 2.863-3.587 4.807-5.796 9.048-7.634 3.604-1.555 5.76-2.686 9.683-2.686 1.184 0 1.874 0 3.04.142 1.802.23 2.95.388 4.523 1.27.6.337 1.697 1.344 1.697.637 0-.812-.425-1.236-.425-2.05 0-3.25 2.333-6.22 5.584-6.22 2.35 0 3.303 2.068 4.452 4.1.742-1.237 1.13-2.085 1.13-3.534 0-5.37-2.88-8.11-6.22-12.298-7.28-9.1-16.396-13.358-16.396-25.02 0-3.48 1.678-5.85 4.664-7.633.866-.513 2.03 0 2.878-.542.725-.46.642-1.395 1.1-2.137.725-1.15 1.367-1.642 2.374-2.526 1.66-1.45 3.12-1.015 4.957-2.287.918-.636 1.135-1.462 1.842-2.31 2.05-2.474 3.89-3.67 7.123-3.67 1.625 0 2.537.01 4.04.608.512.195 1.47.967 1.593.818.324-.388 1.202-1.318 2.244-1.813 1.36-.654 1.912-.907 3.432-.907 1.732 0 2.866.972 4.598.972.636 0 .782-.636 1.295-.972 1.537-1.042 2.422-1.63 4.295-1.63 1.802 0 2.798.594 4.317 1.565 1.43.903 1.637 2.11 3.103 2.958.813.477 1.502.265 2.403.565 4.03 1.343 7.068 4.03 7.068 8.27 0 2.297-.548 3.94-2.262 5.442-1.36 1.2-2.65.99-4.382 1.555 5.62 4.488 10.508 5.6 17.682 5.6 6.574 0 14.612-2.686 14.612-9.26 0-3.056-1.69-4.698-2.89-7.507-2.157-5-3.326-7.943-3.326-13.385 0-4.31.47-6.927 2.98-10.425 2.578-3.605 5.73-4.445 10.165-4.445z" fill="#c7b37f" fill-rule="evenodd"/><path d="M503.6 249.246h82.18v82.023H503.6v-82.024z" fill="#fedf00" stroke="#703d29" stroke-width=".797" stroke-miterlimit="3.864"/><path d="M380.947 291.195c2.392 1.253 4.82-.583 4.322-3.696-.234-1.458-1.806-3.3-3.934-3.434" fill="none" stroke="#703d29" stroke-width=".987" stroke-linecap="round" stroke-miterlimit="3.864"/><path d="M380.866 291.144c2.254 1.633 5.15-1.124 4.03-4.05-.757-1.974-3.564-4.106-7.45-1.463-4.295 2.92-3.11 12.13 5.13 12.285 7.35.14 11.818-10.573 5.287-18.093-6.283-7.234-17.727-5.542-25.19.396-3.176 2.526-9.175 9.145-11.04 18.164-.582 2.808-.957 5.112-.912 7.93.03 1.857.2 3.936.757 6.53 1.123 5.24 2.968 9.08 4.805 11.746.704 1.02 1.347 1.87 2.037 2.56 1.278 1.28 1.66 1.957 2.953 3.032 4.224 3.515 9.665 6.27 16.327 5.987 7.308-.312 11.507-5.443 10.73-11.507-.754-5.88-6.69-8.805-10.574-6.064-2.644 1.866-3.584 7.644 1.088 9.018 2.644.778 4.976-2.565 3.11-4.51" fill="none" stroke="#703d29" stroke-width=".987" stroke-linecap="round" stroke-miterlimit="3.864"/><path d="M531.783 487.426c.71.484 1.166 1.492 1.166 1.492.196.47.45.912.52 1.327.404 2.38-1.156 3.86-3.083 4.085-2.647.308-4.635-1.265-5.482-3.17M390.868 422.86c.515.485.626 1.114 1.322 1.243 1.05.195 1.866.583 2.915-.816 1.294-1.725.6-4.408-.747-6.097-1.44-1.808-5.614-3.406-9.112-1.462-1.17.65-2.638 1.506-3.965 3.265-.5.665-1.35 1.74-1.787 2.488-1.06 1.812-1.494 3.294-1.704 3.89-3.202 9.096.6 18.662 6.488 24.49" fill="none" stroke="#703d29" stroke-width=".987" stroke-miterlimit="3.864"/><path d="M531.59 487.234c.64.664 1.012 1.244 1.012 1.244.197.468.357.91.428 1.327.403 2.378-1.156 3.86-3.083 4.084-2.648.307-4.42-1.253-5.268-3.158M479.17 230.74c1.3-.722 2.51-1.407 3.623-2.02 1.648-.905 3.63-.715 4.482.317.963 1.164 1.11 3.182-.225 4.416" fill="none" stroke="#703d29" stroke-width=".987" stroke-linecap="round" stroke-miterlimit="3.864"/><path d="M425.587 223.463c.432 1.632 1.75 3.16 3.82 3.807 1.243.388 4.12.233 5.986-2.177 1.513-1.954 1.397-4.374.832-6.297-.366-1.245-1.37-2.446-2.698-3.468l-7.937 8.057-.002.08z" fill="none" stroke="#703d29" stroke-width="1.041" stroke-linejoin="round" stroke-miterlimit="3.864"/><path d="M432.403 214.493l1.09.777 1.165 1.244.777 1.555.39 1.32.077 1.712-.078 1.166-.39 1.32-.776.934-.933 1.01-1.322.7-1.71.39-1.477.233-1.555-.7-1.4-1.01-.854-1.245-.622-1.555v-.622l7.62-7.23z" fill="#c7b37f" fill-rule="evenodd"/><path d="M460.484 239.488c8.588-1.792 15.586-5.638 20.876-8.597M460.043 239.047c8.588-1.792 15.586-5.638 20.876-8.596M511.17 500.757c-2.02 3.11-6.84 7.774-11.895 9.64-5.053-1.866-9.874-6.53-11.895-9.64" fill="none" stroke="#703d29" stroke-width=".987" stroke-miterlimit="3.864"/><path d="M584.396 210.683c4.218-2.29 7.47-1.866 9.874 1.47 2.613 3.627 2.986 8.453 2.41 11.28-.855 4.2-2.07 5.943-5.407 8.988" fill="none" stroke="#703d29" stroke-width=".987" stroke-linecap="round" stroke-miterlimit="3.864"/><path d="M594.58 212.55c4.82-3.188 10.042-1.834 12.907 2.41 2.1 3.11 2.636 5.712 2.488 9.562-.254 6.6-4.384 11.832-8.94 14.383" fill="none" stroke="#703d29" stroke-width=".987" stroke-linecap="round" stroke-miterlimit="3.864"/><path d="M608.498 216.81c5.227.638 9.783 5.628 9.783 10.992 0 6.92-2.33 9.497-5.973 14.447-3.898 5.296-16.638 15.004-16.638 26.044 0 6.686 1.865 10.962 6.685 13.14 3.11 1.402 6.743-.117 8.397-1.612 4.043-3.654 2.427-10.062-1.788-10.828-5.13-.934-6.096 7.145-1.088 6.608" fill="none" stroke="#703d29" stroke-width=".987" stroke-miterlimit="3.864"/><path d="M617.283 223.667c3.965.31 7.153 3.9 7.153 8.086 0 5.986-1.67 8.583-6.453 14.538-4.12 5.133-16.483 14.15-16.172 22.78.12 3.265 2.87 6.34 5.243 6.51" fill="none" stroke="#703d29" stroke-width=".987" stroke-miterlimit="3.864"/><path d="M617.75 291.144c-2.255 1.633-5.132-1.003-3.888-3.802.86-1.933 3.42-4.354 7.308-1.71 4.294 2.92 3.11 12.128-5.13 12.283-7.35.14-12.318-10.297-5.288-18.093 6.417-7.116 18.315-5.723 25.78.214 3.175 2.527 9.565 9.466 10.935 18.573 1.658 11.018 1.445 24.574-9.937 32.92-4.576 3.356-10.917 4.882-16.515 4.637-7.308-.32-11.507-5.443-10.73-11.507.754-5.88 6.416-8.368 10.574-6.064 4.32 2.392 3.565 8.466-1.09 9.018-2.735.325-4.975-2.565-3.11-4.51" fill="none" stroke="#703d29" stroke-width=".987" stroke-linecap="round" stroke-miterlimit="3.864"/><path d="M613.862 287.342c1.212-5.455 5.885-5.963 9.658-5.907 10.296.15 17.416 12.363 17.535 24.178.15 14.923-6.334 23.71-17.24 24.178-2.823.123-7.685-1.22-7.77-4.663" fill="none" stroke="#703d29" stroke-width=".987" stroke-miterlimit="3.864"/><path d="M620.202 284.903c10.858 2.413 14.67 12.197 14.67 21.532 0 7.616-.754 18.022-15.575 21.683" fill="none" stroke="#703d29" stroke-width=".987" stroke-linecap="square" stroke-miterlimit="3.864"/><path d="M626.613 343.94c-1.866-4.508-6.687-2.487-6.983 0-.683 5.733 4.34 7.465 7.916 6.532 1.77-.462 3.067-1.578 3.895-3.03.936-1.64 1.22-3.78.612-5.825-.275-.927-.663-1.707-1.326-2.58-.666-.88-1.354-1.48-2-1.89-1.375-.88-2.873-.966-5.223-.966-8.708 0-16.327 10.29-18.886 20.978-.842 3.52-2 11.372-.396 18.815 1.712 7.93 5.14 13.42 9.16 17.585 2.178 2.255 5.147 4.262 8.99 6.435 1.186.67 4.32 2.06 6.498 2.683 2.235.64 4.3.546 6.158.142 5.16-1.12 7.56-5.92 4.96-10.83-2.13-4.02-8.397-6.22-11.352-1.088-.25.436-.64 1.384-.628 2.41.016 1.37.584 3.018 1.56 3.64 2.247 1.43 5.84 1.025 5.672-2.94" fill="none" stroke="#703d29" stroke-width="1.037" stroke-linecap="round" stroke-miterlimit="3.864"/><path d="M633.377 397.494c-1.633.63-2.526.544-4.557-.358-.834-.37-1.79-.943-2.907-1.578-3.98-2.26-8.708-5.824-13.14-14.143-1.31-2.46-2.124-4.743-2.672-6.992-.422-1.735-.715-3.45-.778-5.21-.108-3 .215-6.134.964-9.722 1.236-5.925 2.725-9.142 6.375-14.15 1.796-2.462 3.344-3.964 6.687-4.042" fill="none" stroke="#703d29" stroke-width=".987" stroke-miterlimit="3.864"/><path d="M638.108 389.576c.068-.364.104-.74.104-1.125 0-3.37-2.733-6.102-6.104-6.102-3.37 0-6.103 2.733-6.103 6.103 0 1.94.905 3.67 2.315 4.787" fill="none" stroke="#703d29" stroke-width=".987" stroke-miterlimit="3.864"/><path d="M635.735 383.51c-.46-2.77-2.813-4.88-5.648-4.88-3.164 0-5.73 2.63-5.73 5.87 0 1.588.616 3.03 1.616 4.086" fill="none" stroke="#703d29" stroke-width=".987" stroke-miterlimit="3.864"/><path d="M624.59 383.196c-5.208-3.732-9.67-10.856-9.717-19.274-.036-6.474 2.565-13.06 5.598-15.627" fill="none" stroke="#703d29" stroke-width=".987" stroke-miterlimit="3.864"/><path d="M616.328 380.327c2.044 3.032 4.517 6.403 9.74 9.237" fill="none" stroke="#703d29" stroke-width=".987" stroke-linecap="round" stroke-miterlimit="3.864"/><path d="M599.694 403.07c1.748-2.057 5.757-5.14 10.343-5.705 4.654-.57 8.7.784 12.83 3.005 8.058 4.335 12.552 8.995 15.548 17.642.76 2.195 1.392 5.505 1.304 9.02-.14 5.605-1.564 11.73-3.093 14.693-1.333 2.583-4.82 13.994-23.946 21.868-11.16 4.595-28.3 5.654-40.117 6.12-16.256.642-31.255 1.244-39.962 11.973" fill="none" stroke="#703d29" stroke-width="1.276" stroke-miterlimit="3.864"/><path d="M624.113 406.048c-5.12-3.36-14.838-7.762-23.623-3.428-3.26 1.608-5.443 3.596-6.676 6.84-2.22 5.84.262 12.274 2.788 14.95 1.322 1.4 4.2 4.073 7.775 4.12 5.91.078 7.313-4.057 7.464-4.976.7-4.276-1.787-5.987-3.11-6.453-1.013-.357-4.31-.265-5.01 2.066-.234.778-.276 2.133.346 3.144" fill="none" stroke="#703d29" stroke-width=".987" stroke-linecap="round" stroke-miterlimit="3.864"/><path d="M603.755 421.455c-.466-1.71-.035-3.35 1.322-5.21 1.813-2.485 5.675-3.342 9.174-1.4 1.17.652 2.64 1.508 3.966 3.267.502.665 1.35 1.74 1.788 2.488 1.06 1.81 1.494 3.292 1.703 3.887 3.846 10.928-2.265 22.77-10.255 27.522-6.206 3.69-13.608 5.335-22.47 6.375-3.982.467-6.256.436-10.262.622-3.224.15-6.008.096-8.63.064-2.157-.026-4.205-.015-6.297-.063-3.415-.08-6.95-.16-11.274.155-4.55.33-7.974.448-11.818 1.09-2.512.417-5.456.82-8.543 1.514-.927.207-1.866.377-2.81.662-.634.19-1.26.385-1.88.574-5.573 1.7-10.986 3.77-15.258 6.52-1.32.85-2.81 1.702-3.877 2.71-.665.626-1.472 1.255-2.124 1.897-2.99 2.94-6.046 6.125-6.76 10.437-.133.795-.133 1.63-.133 2.507 0 2.798 2.277 6.608 8.42 7.852" fill="none" stroke="#703d29" stroke-width="1.121" stroke-miterlimit="3.864"/><path d="M531.994 488.162c1.632 3.343-.224 5.023-2.488 5.286-3.343.39-5.13-2.254-5.365-4.664-.377-3.908 2.917-7.45 6.843-7.386 3.535.057 6.415 2.337 7.765 5.476.49 1.14.717 2.396.787 3.698.133 2.468-.734 4.74-2.223 6.474-1.997 2.326-5.112 3.733-8.428 3.866-6.6.265-11.74-5.91-11.74-12.206 0-12.05 17.872-18.623 24.957-20.314 8.71-2.077 14.007-2.855 27.99-3.632 5.598-.31 9.697-.153 15.86-.792 5.516-.572 8.397-.84 14.073-2.162 7.083-1.65 13.684-4.588 19.592-9.952 4.55-4.13 7.153-7.075 9.26-12.75 1.817-4.898 2.653-14.596-1.95-21.77-4.07-6.34-9.72-9.633-16.173-10.566-5.83-.843-10.942 1.673-13.994 7.457-1.477 2.798-1.022 7.48.148 9.64 1.01 1.866 3.897 4.618 7.47 4.665 5.91.078 7.314-4.057 7.465-4.976.7-4.276-1.787-5.986-3.11-6.453-1.013-.357-4.31-.265-5.01 2.066-.234.778-.276 2.133.346 3.144" fill="none" stroke="#703d29" stroke-width=".987" stroke-linecap="round" stroke-miterlimit="3.864"/><path d="M526.897 469.02c-7.576 3.36-13.13 5.875-17.84 13.31-1.476 2.333-1.865 5.676-1.865 7.62 0 4.198 1.71 8.94 5.21 11.895 3.246 2.74 6.452 3.576 10.418 3.188 3.007-.295 5.83-2.488 6.297-4.043" fill="none" stroke="#703d29" stroke-width=".987" stroke-linecap="round" stroke-miterlimit="3.864"/><path d="M599.79 279.878c-2.78 2.362-4.12 5.287-4.12 8.94 0 4.842 4.05 12.752 14 15.55 3.815 1.073 7.458.972 9.74-.416M601.734 325.204c-3.545 1.183-6.065 6.587-6.065 11.74 0 5.91 2.876 9.563 6.22 11.662" fill="none" stroke="#703d29" stroke-width=".987" stroke-miterlimit="3.864"/><path d="M605.62 344.408c-6.375 7.93-9.757 12.637-9.95 22.08-.183 8.862 2.643 14.927 7.93 21.303" fill="none" stroke="#703d29" stroke-width=".987" stroke-linecap="round" stroke-miterlimit="3.864"/><path d="M571.642 212.58l.547-.808c2.643-3.887 7.31-4.912 10.73-2.332 4.12 3.11 5.16 8.402 4.042 13.994-.7 3.5-3.074 6.413-6.326 8.52" fill="none" stroke="#703d29" stroke-width=".987" stroke-miterlimit="3.864"/><path d="M430.014 220.573c-.478-2.582-3.496-3.11-4.665-1.586-1.8 2.348-.486 6.257 3.175 7.4 1.244.39 4.12.234 5.987-2.176 1.512-1.952 1.396-4.372.832-6.296-.366-1.244-1.365-2.33-2.698-3.343-4.252-3.232-11.118-2.487-13.373 2.955-2.91 7.02 3.42 12.284 9.252 16.25 7.34 4.99 15.705 5.9 22.003 5.83 14.305-.155 25.19-6.997 32.265-10.884 1.648-.905 3.345-.72 4.198.312.964 1.164.95 3.042-.387 4.276" fill="none" stroke="#703d29" stroke-width="1.041" stroke-linecap="round" stroke-miterlimit="3.864"/><path d="M414.22 210.683c-4.044-1.865-7.37-1.506-9.875 1.47-2.876 3.42-2.986 8.453-2.41 11.28.855 4.2 2.07 5.943 5.408 8.988" fill="none" stroke="#703d29" stroke-width=".987" stroke-linecap="round" stroke-miterlimit="3.864"/><path d="M404.034 212.55c-4.82-3.188-10.04-1.834-12.906 2.41-2.1 3.11-2.635 5.712-2.488 9.562.254 6.6 4.385 11.832 8.94 14.383" fill="none" stroke="#703d29" stroke-width=".987" stroke-miterlimit="3.864"/><path d="M390.118 216.81c-5.228.638-9.4 5.07-9.4 10.433 0 6.92 1.703 9.72 5.59 15.006 3.896 5.298 16.638 15.004 16.638 26.044 0 6.686-1.866 10.962-6.686 13.14-3.11 1.402-6.743-.117-8.397-1.612-4.043-3.654-2.426-10.062 1.788-10.828 5.132-.934 6.097 7.145 1.09 6.608" fill="none" stroke="#703d29" stroke-width=".987" stroke-miterlimit="3.864"/><path d="M381.332 223.667c-3.965.31-7.866 3.723-7.866 7.908 0 5.987 2.384 8.76 7.166 14.716 4.12 5.133 15.762 13.973 15.45 22.603-.117 3.264-2.31 7.253-4.487 6.787M375.613 287.804c-2.378.794-5.348 2.277-7.55 5.395-1.856 2.63-2.938 6.285-3.608 9.484-.293 1.4-.643 5.832.252 10.41.662 3.38 2.058 6.526 3.602 8.805.552.816 1.055 1.367 1.62 1.93.517.52 1.252.976 1.773 1.374" fill="none" stroke="#703d29" stroke-width=".987" stroke-miterlimit="3.864"/><path d="M372.002 343.94c1.866-4.508 6.687-2.487 6.983 0 .683 5.733-4.34 7.465-7.916 6.532-1.772-.462-3.068-1.578-3.896-3.03-.935-1.64-1.217-3.78-.61-5.825.275-.927.662-1.707 1.325-2.58.665-.88 1.353-1.48 1.998-1.89 1.376-.88 2.874-.966 5.224-.966 8.708 0 16.327 10.29 18.886 20.978.843 3.52 2 11.372.396 18.815-1.71 7.93-5.14 13.42-9.16 17.585-2.177 2.255-5.146 4.262-8.99 6.435-1.185.67-4.32 2.06-6.496 2.683-2.236.64-4.337.688-6.158.142-4.423-1.327-7.262-5.46-4.96-10.83 1.792-4.18 8.397-6.22 11.35-1.088.252.436.642 1.384.63 2.41-.016 1.37-.585 3.018-1.562 3.64-2.246 1.43-5.838 1.025-5.67-2.94" fill="none" stroke="#703d29" stroke-width=".987" stroke-linecap="round" stroke-miterlimit="3.864"/><path d="M365.238 397.494c1.633.63 2.526.544 4.558-.358.833-.37 1.788-.943 2.906-1.578 3.98-2.26 8.708-5.824 13.14-14.143 1.31-2.46 2.124-4.743 2.672-6.992.423-1.735.716-3.45.78-5.21.107-3-.216-6.134-.965-9.722-1.237-5.925-2.726-9.142-6.376-14.15-1.795-2.462-3.343-3.964-6.686-4.042" fill="none" stroke="#703d29" stroke-width=".987" stroke-miterlimit="3.864"/><path d="M360.507 389.576c-.068-.364-.104-.74-.104-1.125 0-3.37 2.733-6.102 6.104-6.102 3.37 0 6.103 2.733 6.103 6.103 0 1.94-.905 3.67-2.315 4.787" fill="none" stroke="#703d29" stroke-width=".987" stroke-miterlimit="3.864"/><path d="M362.88 383.51c.46-2.77 2.814-4.88 5.648-4.88 3.164 0 5.73 2.63 5.73 5.87 0 1.588-.616 3.03-1.616 4.086" fill="none" stroke="#703d29" stroke-width=".987" stroke-miterlimit="3.864"/><path d="M374.024 383.196c5.21-3.732 9.672-10.856 9.718-19.274.036-6.474-2.566-13.06-5.597-15.627" fill="none" stroke="#703d29" stroke-width=".987" stroke-miterlimit="3.864"/><path d="M382.287 380.327c-2.043 3.032-4.517 6.403-9.74 9.237" fill="none" stroke="#703d29" stroke-width=".987" stroke-linecap="round" stroke-miterlimit="3.864"/><path d="M397.815 402.633c-1.45-3.41-4.33-4.985-9.02-5.485-4.662-.498-8.698.783-12.828 3.004-8.06 4.335-12.553 8.995-15.55 17.642-.76 2.195-1.39 5.505-1.303 9.02.14 5.605 1.563 11.73 3.092 14.693 1.334 2.583 4.82 13.994 23.946 21.868 11.162 4.595 28.3 5.654 40.118 6.12 16.256.642 31.255 1.244 39.963 11.973" fill="none" stroke="#703d29" stroke-width=".987" stroke-miterlimit="3.864"/><path d="M374.502 406.048c5.12-3.36 14.838-7.762 23.624-3.428 3.26 1.608 5.442 3.596 6.675 6.84 2.22 5.84-.26 12.274-2.787 14.95-1.322 1.4-4.2 4.073-7.775 4.12-5.91.078-7.313-4.057-7.463-4.976-.7-4.276 1.788-5.987 3.11-6.453 1.013-.357 4.312-.265 5.01 2.066.234.778.276 2.133-.346 3.144" fill="none" stroke="#703d29" stroke-width=".987" stroke-linecap="round" stroke-miterlimit="3.864"/><path d="M394.86 421.455c.467-1.71.227-3.507-1.32-5.21-1.556-1.71-5.677-3.342-9.176-1.4-1.17.652-2.638 1.508-3.965 3.267-.503.665-1.35 1.74-1.79 2.488-1.058 1.81-1.493 3.292-1.702 3.887-3.845 10.928 2.413 22.532 10.255 27.522 6.842 4.353 13.84 5.597 22.47 6.375 3.993.36 6.256.436 10.262.622 3.224.15 6.008.096 8.63.064 2.158-.026 4.205-.015 6.297-.063 3.416-.08 6.95-.16 11.274.155 4.55.33 7.973.448 11.818 1.09 2.51.417 5.455.82 8.542 1.514.926.207 1.865.377 2.81.662.633.19 1.26.385 1.88.574 5.572 1.7 10.985 3.77 15.257 6.52 1.32.85 2.84 1.672 3.877 2.71.796.795 1.472 1.255 2.124 1.897 2.99 2.94 6.047 6.125 6.762 10.437.132.795.132 1.63.132 2.507 0 2.798-2.277 6.608-8.42 7.852" fill="none" stroke="#703d29" stroke-width=".987" stroke-miterlimit="3.864"/><path d="M466.622 488.162c-1.633 3.343.224 5.023 2.487 5.286 3.342.39 5.13-2.254 5.364-4.664.378-3.908-2.916-7.45-6.842-7.386-3.535.057-6.414 2.337-7.764 5.476-.49 1.14-.718 2.396-.788 3.698-.133 2.468.735 4.74 2.222 6.474 1.998 2.326 5.114 3.733 8.43 3.866 6.6.265 11.74-5.91 11.74-12.206 0-12.05-17.873-18.623-24.958-20.314-8.708-2.077-14.005-2.855-27.99-3.632-5.597-.31-9.696-.153-15.86-.792-5.515-.572-8.396-.84-14.072-2.162-7.083-1.65-13.684-4.588-19.592-9.952-4.55-4.13-7.153-7.075-9.26-12.75-1.817-4.898-2.652-14.596 1.95-21.77 4.07-6.34 9.72-9.633 16.173-10.566 5.83-.843 10.942 1.673 13.995 7.457 1.477 2.798 1.02 7.48-.15 9.64-1.01 1.866-3.896 4.618-7.47 4.665-5.91.078-7.313-4.057-7.463-4.976-.7-4.276 1.788-5.986 3.11-6.453 1.013-.357 4.31-.265 5.01 2.066.234.778.276 2.133-.346 3.144" fill="none" stroke="#703d29" stroke-width=".987" stroke-miterlimit="3.864"/><path d="M471.718 469.02c7.576 3.36 13.13 5.875 17.84 13.31 1.476 2.333 1.865 5.676 1.865 7.62 0 4.198-1.71 8.94-5.21 11.895-3.246 2.74-6.452 3.576-10.418 3.188-3.007-.295-5.83-2.488-6.297-4.043M398.825 279.878c2.78 2.362 4.12 5.287 4.12 8.94 0 4.842-4.05 12.752-14 15.55-3.815 1.073-7.59.208-9.87-1.18" fill="none" stroke="#703d29" stroke-width=".987" stroke-miterlimit="3.864"/><path d="M400.458 296.283c1.788 1.243 2.488 2.64 2.488 5.07 0 1.664-1.076 3.822-2.907 5.866-3 3.345-8.083 6.19-13.718 6.26-3.056.037-6.23-.602-9.42-2.737-3.415-2.282-5.21-5.364-5.988-8.396" fill="none" stroke="#703d29" stroke-width=".987" stroke-miterlimit="3.864"/><path d="M400.298 306.712c2.026 1.862 2.648 4.193 2.648 7.13 0 4.288-1.742 7.598-5.75 11.106-.895.784-1.904 1.52-3.032 2.178" fill="none" stroke="#703d29" stroke-width=".987" stroke-miterlimit="3.864"/><path d="M396.882 325.204c4.276 3.344 6.064 6.587 6.064 11.74 0 5.91-2.877 9.563-6.22 11.662" fill="none" stroke="#703d29" stroke-width=".987" stroke-miterlimit="3.864"/><path d="M392.994 344.408c6.375 7.93 9.758 12.637 9.952 22.08.182 8.862-2.643 14.927-7.93 21.303M426.973 212.58l-.547-.808c-2.644-3.887-7.312-4.912-10.73-2.332-4.12 3.11-5.16 8.402-4.042 13.994.7 3.5 3.073 6.413 6.324 8.52" fill="none" stroke="#703d29" stroke-width=".987" stroke-linecap="round" stroke-miterlimit="3.864"/><path d="M573.042 224.367c-6.297 6.842-12.595 9.026-22.002 9.33-2.938.094-8.553-.933-11.818-3.26-2.098-1.492-4.43-4.05-2.954-8.48.987-2.963 5.746-11.274 5.98-17.027.355-8.79-3.026-13.606-8.313-15.472-9.774-3.45-20.267 6.212-26.59 8.32-3.305 1.1-4.99 1.23-8.007 1.242-3.018-.01-4.763-.14-8.068-1.243-6.323-2.107-16.816-11.768-26.59-8.32-5.287 1.867-8.668 6.684-8.312 15.473.233 5.753 4.992 14.064 5.98 17.027 1.477 4.43-.857 6.988-2.955 8.48-3.265 2.327-8.88 3.354-11.817 3.26-9.408-.304-15.706-2.488-22.003-9.33" fill="none" stroke="#703d29" stroke-width=".987" stroke-miterlimit="3.864"/><path d="M516.366 229.11c1.286 2.323 1.993 3.737 1.245 6.14-.847 2.725-2.778 4.355-5.52 4.355-6.22 0-9.878-7.364-7.075-12.05 4.976-8.32 14.54-3.647 23.402.473-.427-2.134-1.173-2.828-1.095-5.47.193-6.565 5.06-9.542 7.004-15.606 1.158-3.613 1.62-6.75-1.025-9.316-2.307-2.24-4.98-2.205-7.993-1.025-6.017 2.36-13.245 9.14-25.97 9.327-12.723-.188-20.012-6.967-26.03-9.326-3.01-1.18-5.685-1.213-7.993 1.026-2.643 2.566-2.183 5.703-1.025 9.316 1.943 6.064 6.81 9.04 7.003 15.605.078 2.643-.668 3.337-1.095 5.47 8.863-4.12 18.798-9.21 23.402-.473 2.565 4.87-.855 12.05-7.075 12.05-2.742 0-4.668-1.747-5.52-4.353-.76-2.32 0-4.352 1.244-6.14" fill="none" stroke="#703d29" stroke-width="1.121" stroke-miterlimit="3.864"/><path d="M471.465 227.453c.38-1.182.767-2.072.71-4.014-.193-6.566-5.06-9.543-7.005-15.607-1.157-3.612-1.618-6.75 1.026-9.315 2.307-2.24 4.98-2.206 7.993-1.025 6.017 2.36 13.307 9.137 26.03 9.326-12.723-.19-20.013-6.968-26.03-9.327-3.013-1.18-5.936-1.526-8.243.714-2.643 2.566-1.934 6.014-.777 9.626 1.944 6.064 6.563 9.04 6.756 15.606.057 1.94-.455 2.83-.834 4.013M500.18 206.374c12.518-.66 23.247-9.07 26.707-9.758 3.086-.612 4.81-.335 7.073 1.722-2.264-2.057-4.842-1.993-7.77-.845-6.018 2.36-13.247 9.137-25.97 9.326M515.225 239.57c1.16-.76 2.01-1.978 2.498-3.483.753-2.326.77-4.308-.475-6.096 1.535 2.01 1.676 3.705 1.244 6.143-.275 1.552-1.264 2.368-2.498 3.485M596.398 374.238v25.24h.067c0 .02-.01 2.39-.212 3.888-.133.983-.272 1.87-.43 2.702" fill="none" stroke="#703d29" stroke-width=".987" stroke-miterlimit="3.864"/><path d="M595.957 371.815v27.223h.067c0 .018-.01 2.39-.212 3.887-.21 1.563-.437 2.887-.73 4.125M595.957 339.943v22.702M596.398 341.734v18.463M596.398 318.25v13.842M595.957 316.618v17.063M596.398 304.1v5.37M595.957 303.013v7.776M596.398 292.633v5.52M595.957 291.274v7.774M596.398 274.44v10.186M595.957 272.187v13.917M592.988 414.173c-1.93 3.835-3.473 5.85-6.53 8.863-3.087 3.04-5.225 4.435-9.098 6.375-3.77 1.892-6.147 2.493-10.262 3.422-4.113.93-6.518 1.13-10.73 1.322-3.86.175-6.052.014-9.91-.255-4.126-.286-6.416-.86-10.537-1.223-3.403-.3-5.325-.574-8.742-.566-3.513.01-5.525.032-8.984.644-3.223.57-5.05 1.026-8.085 2.255-4.2 1.7-8.942 4.664-9.953 5.986-1.01-1.322-5.754-4.286-9.952-5.987-3.034-1.23-4.862-1.685-8.085-2.256-3.46-.612-5.47-.634-8.984-.643-3.417-.01-5.34.268-8.743.567-4.12.362-6.41.937-10.538 1.222-3.857.266-6.048.43-9.91.254-4.212-.19-6.617-.39-10.73-1.322-4.114-.93-6.488-1.534-10.262-3.42-3.875-1.937-6.01-3.335-9.096-6.376-.333-.328-.65-.645-.95-.953" fill="none" stroke="#703d29" stroke-width=".987" stroke-miterlimit="3.864"/><path d="M593.077 412.648c-.166.35-.342.71-.53 1.084-1.93 3.835-3.473 5.85-6.53 8.863-3.086 3.04-5.225 4.435-9.098 6.376-3.772 1.89-6.148 2.492-10.263 3.422-4.112.928-6.518 1.13-10.73 1.32-3.86.176-6.052.012-9.91-.254-4.126-.285-6.415-.86-10.537-1.222-3.404-.3-5.326-.574-8.743-.566-3.513.01-5.525.03-8.983.644-3.224.57-5.052 1.025-8.086 2.254-4.198 1.7-8.94 4.665-9.952 5.987-1.01-1.322-5.754-4.286-9.952-5.987-3.033-1.23-4.862-1.684-8.085-2.254-3.46-.613-5.472-.635-8.985-.644-3.417-.01-5.34.267-8.743.566-4.12.362-6.41.937-10.538 1.222-3.857.267-6.047.43-9.91.255-4.21-.19-6.617-.39-10.73-1.32-4.113-.934-6.488-1.535-10.26-3.422-3.876-1.937-6.013-3.334-9.098-6.375-1.615-1.592-2.808-2.905-3.858-4.355" fill="none" stroke="#703d29" stroke-width=".987" stroke-miterlimit="3.864"/><path d="M585.475 402.39c-.233 1.477-.76 4.012-2.162 6.61-1.477 2.33-.933 2.268-4.276 6-1.646 1.836-4.214 3.41-6.227 4.495-2.022 1.088-3.517 1.622-6.842 2.495-6.518 1.71-11.09 1.817-16.574 1.598-4.278-.17-7.544-.698-10.25-1.06-3.856-.52-6.73-.83-11.117-1.012-2.133-.09-4.15-.11-6.142 0-2.406.132-4.782.505-7.308 1.01-5.442 1.09-11.033 3.188-11.033 3.188l.056-85.655 82.194-.024v58.543s-.168 2.86-.32 3.81z" fill="#fedf00" fill-rule="evenodd" stroke="#703d29" stroke-width=".797" stroke-miterlimit="3.864"/><use transform="translate(0 36.595)" width="1000" height="700" xlink:href="#a"/><path d="M387.408 421.324c0-2.158 1.75-3.907 3.907-3.907s3.907 1.75 3.907 3.907c0 2.158-1.75 3.907-3.907 3.907-2.158 0-3.907-1.748-3.907-3.906z" fill="#c7b37f" stroke="#c7b37f" stroke-width=".513" stroke-miterlimit="3.864"/><path d="M387.602 414.346l-3.187 1.166L381.15 418l-1.4 1.944-1.788 3.11-.778 2.332-.622 2.877-.31 2.177" fill="none" stroke="#703d29" stroke-width="1.057" stroke-miterlimit="3.864"/><path d="M406.417 413.257c.666 4.942-1.412 9.8-3.522 12.034-1.322 1.4-4.2 4.074-7.775 4.12-5.91.08-7.673-3.985-8.03-4.974" fill="none" stroke="#703d29" stroke-width=".987" stroke-miterlimit="3.864"/><path d="M405.95 414.657l-.232 2.8-.467 1.943-1.398 3.343-2.177 2.877-2.333 1.865-1.71.856-2.41.545" fill="none" stroke="#703d29" stroke-width="1.057" stroke-miterlimit="3.864"/><path d="M399.405 410.7c1.097 1.083 2.07 2.405 2.893 3.965 1.477 2.8 1.022 7.48-.148 9.64-.13.238-.288.49-.475.75M370.044 453.204c3.514 3.687 8.828 7.692 16.99 11.052 11.16 4.596 28.3 5.654 40.118 6.12 15.715.62 30.193 1.267 39.01 10.998M493.286 475.01c2.598 2.556 5.246 5.295 6.365 8.798" fill="none" stroke="#703d29" stroke-width=".987" stroke-miterlimit="3.864"/><path d="M499.598 489.235c-.58 2.588-3.003 5.548-8.28 6.617l-1.024.212" fill="none" stroke="#703d29" stroke-width="1.197" stroke-miterlimit="3.864"/><path d="M491.28 494.725c-.634 2.35-1.786 4.626-3.468 6.45M464.58 466.273c1.247.487.304-.295 8.195 3.203 7.577 3.36 12.954 6.3 17.663 13.736 1.478 2.332 1.866 5.676 1.866 7.62 0 1.252-.152 2.553-.458 3.84" fill="none" stroke="#703d29" stroke-width=".987" stroke-linecap="round" stroke-miterlimit="3.864"/><path d="M488.178 501.697c-.34.362-.7.707-1.083 1.03-3.246 2.74-6.453 3.576-10.418 3.187-3.007-.295-5.908-2.548-6.685-4.025M491.785 491.47l-.7 3.422" fill="none" stroke="#703d29" stroke-width=".987" stroke-miterlimit="3.864"/><path d="M487.43 501.422l-1.477 1.478-2.643 1.477-3.032.933M511.612 501.197c-2.022 3.11-6.842 7.775-11.896 9.64-5.054-1.865-9.874-6.53-11.895-9.64" fill="none" stroke="#703d29" stroke-width=".987" stroke-miterlimit="3.864"/><path d="M512.052 501.638c-2.02 3.11-6.842 7.775-11.895 9.64-5.054-1.865-9.874-6.53-11.896-9.64l-.47-.726" fill="none" stroke="#231f20" stroke-width=".987" stroke-miterlimit="3.864"/><path d="M478.8 505.465l2.8-.35M461.633 497.35c.145.2.298.39.458.577 1.888 2.198 4.868 3.576 7.978 3.833" fill="none" stroke="#703d29" stroke-width=".987" stroke-miterlimit="3.864"/><path d="M465.09 500.064c1.537.768 3.28 1.216 5.082 1.29 6.6.264 11.74-5.91 11.74-12.207 0-4.367-2.377-8.044-5.706-11" fill="none" stroke="#703d29" stroke-width=".987" stroke-miterlimit="3.864"/><path d="M466.517 488.15c-1.594 3.554.676 5.476 2.94 5.74 3.343.388 5.224-2.256 5.458-4.666.253-2.62-1.145-5.17-3.278-6.485" fill="none" stroke="#703d29" stroke-width=".987" stroke-linecap="round" stroke-miterlimit="3.864"/><path d="M512.052 501.638c-2.02 3.11-6.842 7.775-11.895 9.64-5.054-1.865-9.874-6.53-11.896-9.64l-.47-.726M512.127 501.618c.36.392.746.762 1.156 1.11 3.246 2.74 6.453 3.575 10.418 3.186 3.008-.295 5.396-2.303 6.36-4.043 0 0 .542-.58.693-1.135" fill="none" stroke="#703d29" stroke-width=".987" stroke-miterlimit="3.864"/><path d="M529.752 500.987l-1.16 1.867-1.766 1.463-2.674 1.11-2.42.1" fill="none" stroke="#703d29" stroke-width=".987" stroke-miterlimit="3.864"/><path d="M536.03 483.22c1.43 1.098 2.836 2.76 3.6 4.536.49 1.14.717 2.395.787 3.697.132 2.468-.735 4.742-2.223 6.474-1.997 2.326-5.113 3.734-8.43 3.867-.245.01-.49.01-.733 0M529.325 501.353c-3.17.127-6.004-1.23-8.093-3.376" fill="none" stroke="#703d29" stroke-width=".987" stroke-miterlimit="3.864"/><path d="M528.9 501.44l2.824-.268 2.69-1.076 1.884-1.144 2.557-3.027.537-1.144.404-2.622.135-1.21" fill="none" stroke="#703d29" stroke-width=".987" stroke-miterlimit="3.864"/><path d="M631.59 406.566c3.34 3.114 5.686 6.905 7.49 12.11.76 2.194 1.39 5.505 1.302 9.02-.14 5.604-1.562 11.73-3.092 14.692-1.333 2.584-4.82 13.994-23.946 21.868-11.16 4.596-28.3 5.654-40.118 6.12-16.022.633-30.822 1.227-39.582 11.516" fill="none" stroke="#703d29" stroke-width="1.356" stroke-miterlimit="3.864"/><path d="M533.068 481.442l2.8-2.566 1.943-1.477 3.655-2.256 3.42-1.633 2.41-.62 4.822-1.09 5.598-.854" fill="none" stroke="#703d29" stroke-width=".987" stroke-miterlimit="3.864"/><path d="M605.45 416.945c1.19-1.62 5.52-3.673 9.017-1.73 1.152.64 2.517 1.45 3.714 3.243" fill="none" stroke="#703d29" stroke-width=".929" stroke-miterlimit="3.864"/><path d="M413.12 434.42c.81-.873 1.422-.544 1.573-.946.11-.297-.13-.327-.46-.45-.44-.165-.906-.26-1.347-.425-.456-.17-.87-.406-1.326-.576-.19-.07-.626-.294-.75.04-.228.61 1.602.558.988 2.2-.105.28-.365.88-1.275 1.874l-4.14 4.507c-.094.105-.248.326-.342.29-.094-.034-.08-.308-.082-.45l.06-6.39c.004-1.213.107-2.11.303-2.635.275-.734 1.12-.12 1.297-.59.112-.298.026-.31-.477-.498-.252-.094-.734-.195-1.74-.57-.535-.202-1.044-.47-1.563-.665-.236-.088-.67-.41-.828.01-.047.122.12.303.16.34.58.415.727.69.74 1.47l.113 11.636c.01.84.1 1.073.258 1.132.174.065.292-.01.635-.4l8.205-8.904z" fill="#703d29" fill-rule="evenodd"/><path d="M417.946 436.224c.533-1.69 1.532-.67 1.723-1.276.066-.214-.002-.275-.483-.426-.913-.288-1.512-.4-2.088-.58-.562-.177-1.164-.445-1.788-.642-.144-.046-.528-.225-.623.077-.198.623 1.77.695 1.258 2.314l-2.693 8.542c-.533 1.69-1.54.864-1.736 1.487-.03.088-.037.223.108.268.416.132 1.127.278 1.816.495 1.25.394 1.82.652 2.412.838.368.118.535.092.596-.104.18-.57-1.872-.316-1.182-2.505l2.676-8.487zM423.735 437.928c.317-1.073.816-.925 1.412-.75 1.626.483 2.136 2.074 1.616 3.827-.312 1.056-.706 2.03-3.153 1.304-.483-.144-1.078-.32-.946-.768l1.07-3.613zm-4.434 7.696c-.667 2.254-1.796 1.278-1.966 1.85-.106.358.248.405.425.457.804.24 1.63.407 2.5.664.676.2 1.09.4 1.363.482.37.11.53.04.58-.12.19-.645-1.622-.384-1.055-2.298l.917-3.094c.186-.627.126-.78.98-.528.805.24 1.047.486 1.184 1.382l.514 3.227c.19 1.186.373 2.466 1.645 2.842.643.19 1.822.112 1.986-.442.043-.143-.022-.28-.167-.322-.162-.048-.355.01-.516-.036-.13-.038-.434-.13-.495-.458-.492-2.598-1.092-5.598-1.06-5.705.052-.18.567-.202 1.156-.475.594-.29 1.257-.814 1.596-1.96.244-.822.67-3.44-2.857-4.484-1.08-.32-2.195-.573-3.273-.892-1.015-.3-1.122-.41-1.863-.63-.194-.057-.382-.016-.435.164-.19.643 1.76.502 1.167 2.505l-2.33 7.87zM432.465 449.48c-.518 2.158-2.154.845-2.324 1.552-.095.4.187.448.48.518.654.157 1.21.214 2.304.477 1.094.262 1.615.464 2.27.62.472.115.786.247.89-.188.122-.51-2.094-.485-1.558-2.716l1.968-8.2c.21-.87.395-.923 1.064-.762l1.388.333c1.895.378.89 2.267 1.542 2.424.425.1.415-.65.434-.876l.222-1.712c.027-.185.088-.44-.157-.498-1.518-.364-2.63-.555-5.014-1.127-2.384-.572-3.46-.908-4.978-1.272-.245-.06-.306.195-.366.373l-.837 2.332c-.09.227-.283.603.06.686.734.176.815-2.318 2.66-1.875l1.372.33c.67.16.81.29.6 1.16l-2.02 8.42zM452.295 444.418c.647-1 1.306-.783 1.385-1.205.058-.312-.184-.3-.53-.364-.463-.087-.94-.1-1.4-.184-.48-.09-.93-.248-1.407-.337-.198-.038-.667-.18-.732.167-.118.642 1.676.272 1.356 1.997-.054.294-.206.93-.93 2.067l-3.295 5.158c-.072.12-.186.364-.285.346-.1-.018-.134-.29-.16-.428l-1.05-6.305c-.207-1.195-.26-2.097-.16-2.647.143-.77 1.083-.312 1.175-.807.057-.312-.028-.31-.557-.407-.264-.05-.756-.065-1.813-.26-.56-.105-1.11-.282-1.654-.383-.248-.046-.732-.288-.814.152-.024.127.17.277.217.305.642.31.835.553.983 1.32l2.133 11.44c.154.825.285 1.04.45 1.07.182.034.285-.06.555-.504l6.535-10.193zM453.226 454.93c.01.457-.032.6.363.78.92.4 1.69.984 2.7 1.153 2.17.363 3.968-1.02 4.37-3.43.392-2.338-.568-3.312-2.196-4.473-2.037-1.457-2.908-1.85-2.702-3.082.206-1.233 1.07-1.807 2.162-1.624 2.85.476 2.524 3.94 2.905 4.004.363.06.45-.15.485-.56l.23-2.498c.038-.428.134-.696-.115-.738-.215-.036-.678.19-.893.153-.497-.083-1.073-.917-2.43-1.144-1.94-.324-3.522 1-3.876 3.117-.323 1.932.534 2.813 1.842 3.75 2.447 1.754 3.45 2.167 3.19 3.73-.248 1.473-1.39 2.19-2.68 1.974-1.84-.307-2.586-2.153-2.82-4.008-.026-.25-.03-.42-.296-.466-.415-.07-.338.492-.332.758l.092 2.607zM477.955 447.955c.538-1.062 1.217-.914 1.25-1.342.026-.317-.213-.28-.565-.307-.468-.037-.943 0-1.412-.036-.485-.038-.948-.15-1.433-.188-.2-.016-.682-.11-.71.244-.05.65 1.694.096 1.556 1.844-.022.298-.107.946-.708 2.153l-2.738 5.474c-.06.126-.148.38-.248.373-.1-.01-.164-.275-.204-.41l-1.705-6.16c-.33-1.167-.478-2.058-.434-2.616.06-.78 1.044-.424 1.084-.926.024-.316-.06-.304-.596-.346-.267-.02-.758.016-1.83-.07-.57-.044-1.132-.163-1.685-.206-.25-.02-.758-.21-.793.236-.01.13.2.26.247.282.67.24.89.463 1.117 1.21l3.316 11.154c.24.805.392 1.004.56 1.017.184.014.277-.09.5-.56l5.432-10.82z" fill="#703d29" fill-rule="evenodd"/><path d="M480.6 457c-.016 1.902-1.626 1.552-1.633 2.298-.002.318.334.227.52.23.452 0 .906-.068 1.443-.063.588.01 1.158.085 1.98.092.22 0 .64.024.64-.237.008-.877-2.15.373-2.12-3.21l.055-6.342c0-.168.036-.3.137-.298.084 0 .184.095.3.246l7.992 9.77c.116.152.2.264.435.267.2 0 .2-.148.205-.558l.09-10.467c.017-1.96 1.44-1.498 1.446-2.058.002-.056.003-.243-.315-.246-.15 0-.74.068-1.798.06-1.16-.012-1.645-.09-1.914-.092-.218 0-.27.185-.27.315-.006.616 2.045.298 2.03 1.996l-.054 6.212c-.006.467-.04.69-.14.69-.102 0-.3-.227-.518-.49l-6.678-8.287c-.3-.357-.096-.486-.633-.49-.89-.01-1.327.063-1.763.06-.32 0-.62-.08-.94-.084-.2 0-.287.146-.288.314-.01.896 1.882-.3 1.85 3.282l-.06 7.09zM496.86 448.6c.017-1.772 1.27-1.09 1.275-1.723.002-.224-.08-.262-.585-.267-.957-.01-1.562.06-2.166.056-.588 0-1.242-.086-1.897-.09-.15-.002-.57-.062-.573.256-.005.652 1.802.147 1.788 1.844l.015 8.956c-.015 1.772-1.22 1.276-1.225 1.93 0 .092.03.223.182.225.437.01 1.16-.064 1.882-.058 1.31.01 1.93.09 2.55.096.387 0 .54-.07.54-.275.006-.596-1.882.245-1.862-2.05l.077-8.9zM503.898 457.27c.02 2.22-1.886 1.342-1.88 2.07.006.41.29.39.592.387.67-.01 1.225-.085 2.35-.095 1.125-.01 1.68.06 2.35.053.488 0 .825.05.82-.4-.004-.52-2.148.038-2.17-2.256l-.072-8.434c-.007-.895.16-.99.848-.996l1.427-.01c1.93-.092 1.41 1.983 2.083 1.977.436 0 .245-.73.21-.953l-.2-1.715c-.018-.188-.02-.45-.272-.447-1.562.014-2.686.098-5.138.12-2.452.02-3.577-.044-5.14-.03-.25 0-.25.263-.264.45l-.247 2.465c-.03.243-.128.654.224.65.755-.01.23-2.445 2.127-2.46l1.41-.015c.69-.01.858.086.866.98l.075 8.658zM513.68 453.74c-.303.024-.536.06-.55-.126-.02-.26.064-.472.13-.702l1.03-3.394c.067-.21.133-.235.166-.237.084-.01.034 0 .146.14l1.637 3.257c.1.217.217.414.238.674.013.187-.222.187-.523.21l-2.276.18zm2.873.784c.436-.034.534.145 1.2 1.552.224.488.368.814.4 1.223.09 1.133-1.115 1.022-1.073 1.562.02.26.235.206.536.182.486-.038 1.1-.16 1.836-.22 1.105-.086 1.563-.047 2.165-.095.452-.036.606-.012.58-.328-.047-.613-.894.183-1.534-1.095l-5.415-11.027c-.262-.54-.298-.576-.45-.564-.217.018-.273.377-.366.684l-3.65 11.61c-.338 1.074-1.2 1.03-1.167 1.458.02.242.284.183.52.165.484-.038.964-.15 1.466-.19.537-.043 1.045-.01 1.58-.05.352-.028.88.062.85-.33-.04-.5-1.824-.06-1.93-1.4-.034-.447.15-1.116.237-1.497.288-1.258.634-1.36.92-1.382l3.296-.26zM529.532 446.793c-.17-1.277-.104-1.304 1.91-1.57 3.213-.422 2.2 1.913 2.982 1.81.383-.05.22-.65.17-.888l-.307-1.823c-.022-.166-.162-.336-.38-.307-1.464.193-2.603.418-3.785.574-2.547.334-3.755.418-4.438.507-.233.03-.347.197-.325.363.097.74 1.9-.1 2.12 1.565l1.14 8.657c.296 2.257-1.1 1.425-.99 2.276.017.11.128.19.344.162.916-.12 1.605-.287 2.12-.355.734-.097 1.36-.103 1.992-.187.417-.055.776-.027.727-.397-.065-.498-1.886.212-2.156-1.84l-.36-2.74c-.142-1.072-.238-1.285.528-1.386l1.232-.162c1.732-.228 1.524 1.794 2.056 1.724.4-.053.212-.705.164-.944l-.55-3.277c-.082-.497-.26-.436-.377-.42-.333.043-.16 1.752-1.59 1.94l-1.05.138c-.715.094-.732-.035-.837-.83l-.34-2.59zM535.667 451.03c.69 3.724 3.378 5.788 6.697 5.173 5.267-.976 5.44-5.658 4.965-8.226-.722-3.89-3.62-5.8-6.834-5.166-3.94.77-5.574 4.203-4.83 8.22zm1.837-1.422c-.493-2.66-.137-5.345 2.643-5.917 2.123-.43 4.532 1.325 5.283 5.38.565 3.044.096 5.674-2.734 6.255-2.945.603-4.696-3.038-5.192-5.717zM550.526 443.11c-.26-1.09.245-1.21.85-1.356 1.648-.396 2.885.727 3.31 2.505.26 1.07.404 2.11-2.077 2.704-.49.118-1.095.263-1.204-.19l-.88-3.665zm.01 8.88c.548 2.287-.918 2.005-.78 2.586.088.363.418.226.597.183.817-.197 1.616-.466 2.498-.677.686-.165 1.144-.198 1.422-.265.376-.09.48-.23.44-.393-.156-.654-1.594.478-2.06-1.463l-.753-3.138c-.154-.635-.282-.74.583-.947.816-.196 1.15-.103 1.717.605l2.06 2.537c.758.93 1.555 1.948 2.845 1.638.653-.157 1.635-.815 1.5-1.377-.035-.144-.16-.23-.306-.194-.164.04-.3.187-.465.226-.13.03-.44.106-.657-.15-1.725-2.003-3.744-4.3-3.77-4.41-.044-.18.39-.457.764-.988.37-.55.68-1.334.403-2.495-.2-.836-1.142-3.315-4.717-2.457-1.094.263-2.187.602-3.28.864-1.03.247-1.178.206-1.93.386-.195.047-.336.177-.293.36.157.652 1.776-.447 2.264 1.585l1.915 7.983zM564.005 448.98c.556 2.15-1.505 1.76-1.323 2.463.103.398.375.308.667.232.65-.168 1.167-.38 2.257-.66 1.09-.282 1.644-.35 2.294-.517.473-.122.812-.152.7-.585-.13-.506-2.077.556-2.65-1.666l-2.113-8.164c-.224-.867-.085-1 .582-1.172l1.38-.357c1.85-.555 1.85 1.584 2.5 1.416.423-.11.062-.77-.027-.977l-.61-1.615c-.062-.177-.127-.43-.37-.367-1.513.392-2.583.746-4.957 1.36-2.373.614-3.48.823-4.993 1.214-.244.063-.178.316-.148.5l.356 2.453c.03.243.035.666.376.577.732-.19-.368-2.43 1.47-2.904l1.365-.353c.667-.173.853-.124 1.077.743l2.168 8.38zM572.603 437.517c-.474-1.708.92-1.397.75-2.01-.06-.214-.15-.228-.637-.094-.922.256-1.485.49-2.067.65-.567.158-1.22.26-1.85.436-.145.04-.565.097-.48.404.175.63 1.863-.382 2.317 1.255l2.394 8.628c.474 1.708-.82 1.564-.646 2.193.025.09.092.208.238.168.42-.117 1.096-.382 1.792-.575 1.262-.35 1.88-.444 2.48-.61.372-.103.497-.215.443-.413-.16-.575-1.743.754-2.356-1.457l-2.377-8.576zM576.183 441.695c1.202 3.592 4.15 5.26 7.35 4.19 5.08-1.7 4.602-6.36 3.773-8.837-1.255-3.75-4.39-5.24-7.485-4.165-3.793 1.31-4.934 4.937-3.637 8.812zm1.62-1.664c-.857-2.564-.878-5.273 1.795-6.226 2.043-.723 4.672.68 5.98 4.59.983 2.937.885 5.606-1.837 6.576-2.83 1.006-5.072-2.356-5.936-4.94zM589.716 431.562c-.41-1.042.074-1.233.652-1.46 1.578-.622 2.96.318 3.63 2.02.402 1.023.69 2.032-1.683 2.968-.47.184-1.047.412-1.218-.023l-1.38-3.507zm1.244 8.794c.862 2.187-.63 2.113-.41 2.668.136.347.444.166.616.098.78-.307 1.535-.685 2.378-1.017.656-.258 1.106-.355 1.37-.46.36-.14.444-.295.383-.45-.246-.626-1.513.695-2.244-1.162l-1.183-3.003c-.24-.608-.38-.693.447-1.02.78-.306 1.124-.26 1.784.36l2.394 2.227c.88.816 1.81 1.713 3.046 1.227.624-.247 1.505-1.035 1.293-1.573-.054-.138-.19-.205-.33-.15-.156.062-.27.228-.427.29-.125.048-.422.165-.672-.057-1.987-1.744-4.306-3.738-4.347-3.842-.07-.173.323-.507.62-1.085.288-.595.488-1.416.05-2.527-.315-.8-1.59-3.123-5.013-1.775-1.047.412-2.082.9-3.128 1.312-.984.388-1.137.368-1.856.65-.187.075-.31.223-.24.397.245.625 1.695-.688 2.46 1.256l3.01 7.638z" fill="#703d29" fill-rule="evenodd"/><path d="M620.72 391.933c-2.472-2.28-5.035-5.44-7.506-10.077-1.31-2.46-2.124-4.743-2.672-6.992-.423-1.736-.716-3.45-.78-5.21-.107-3.002.216-6.134.965-9.723 1.236-5.924 3.442-10.507 6.375-14.148 1-1.242 2.154-2.792 3.25-3.488" fill="none" stroke="#703d29" stroke-width=".987" stroke-miterlimit="3.864"/><path d="M624.54 383.17c-.68-.555-1.408-1.025-2.043-1.69-3.826-4.004-6.704-9.924-6.743-16.676-.037-6.474 2.566-13.062 5.598-15.627" fill="none" stroke="#703d29" stroke-width=".987" stroke-miterlimit="3.864"/><path d="M615.333 363.164l.196-2.502.833-3.974 1.178-3.09 1.325-2.552 1.717-2.06" fill="none" stroke="#703d29" stroke-width=".881" stroke-miterlimit="3.864"/><path d="M627.505 402.79c.783.3 1.56.572 2.244.768 2.235.64 4.336.688 6.157.142 4.423-1.327 7.262-5.46 4.96-10.83-.534-1.245-1.556-2.44-2.716-3.333" fill="none" stroke="#703d29" stroke-width="1.356" stroke-miterlimit="3.864"/><path d="M638.99 390.458c.068-.365.103-.74.103-1.125 0-1.81-.757-3.468-2.01-4.586-.427-.38-.84-.973-1.36-1.232M636.47 384.25c-.072-2.912-2.456-4.995-5.41-5.513M621.544 349.377c1.573 2.055 4.54 2.588 6.883 1.977 1.772-.463 3.068-1.58 3.896-3.032.934-1.64 1.217-3.78.61-5.824-.275-.926-.662-1.706-1.325-2.58-.666-.878-1.492-1.812-2.132-2.23-.17-.11-.34-.262-.52-.383" fill="none" stroke="#703d29" stroke-width=".987" stroke-miterlimit="3.864"/><path d="M632.74 343.674l-.194 2.45-.7 1.67-1.088 1.595-1.244.932-1.904.7-1.672.116-1.244-.194" fill="none" stroke="#703d29" stroke-width=".881" stroke-miterlimit="3.864"/><path d="M629.242 397.164c.134.145.582.217.74.31 2.215 1.323 6.576-.325 5.294-3.746" fill="none" stroke="#703d29" stroke-width=".987" stroke-linecap="round" stroke-miterlimit="3.864"/><path d="M618.203 223.83c3.965.31 7.638 4.58 7.59 8.764-.07 6.08-2.108 8.59-6.89 14.545-4.12 5.13-16.483 14.15-16.172 22.78.056 1.53.88 3.114 1.803 4.388" fill="none" stroke="#703d29" stroke-width=".987" stroke-miterlimit="3.864"/><path d="M602.335 268.416l.544-2.644 1.165-2.45 1.516-2.448 2.606-3.343 2.06-2.293 3.343-3.382 2.876-2.915 1.827-2.1 2.41-2.915 2.138-3.226 1.284-2.645.7-3.42.212-4.242-.39-1.23" fill="none" stroke="#703d29" stroke-width=".881" stroke-miterlimit="3.864"/><path d="M613.23 277.36c1.214-4.128-.267-8.484-4.266-8.366M599.59 279.718c.878.867 1.94 1.584 3.206 2.156 2.26 1.02 4.8.495 6.654-.443M609.535 216.874c5.018 0 9.394 5.585 9.394 11.317 0 6.606-3.514 10.65-6.088 13.706-2.072 2.46-4.316 4.663-6.983 7.348" fill="none" stroke="#703d29" stroke-width=".987" stroke-miterlimit="3.864"/><path d="M603.582 211.58c1.707.79 3.204 2.13 4.346 3.82 2.1 3.11 2.633 5.712 2.488 9.563-.25 6.6-4.998 11.17-9.247 13.96M593.71 211.58c.347.296.68.634 1 1.014 2.877 3.42 3.1 8.477 2.41 11.28-1.035 4.214-2.427 6.03-5.846 8.55M583.36 209.85c4.12 3.11 5.345 8.488 3.98 14.025-.976 3.956-3.463 6.328-6.566 8.217" fill="none" stroke="#703d29" stroke-width=".987" stroke-linecap="round" stroke-miterlimit="3.864"/><path d="M576.368 213.905c1.328.904 2.68 2.29 3.415 4.06 2.908 7.02-3.42 12.285-9.252 16.25-4.18 2.843-8.693 4.362-12.967 5.13" fill="none" stroke="#703d29" stroke-width=".987" stroke-miterlimit="3.864"/><path d="M569.688 227.432c-1.414-.014-3.095-.417-4.92-2.34-.42-.442-.913-1.027-1.106-1.552M540.454 231.195c-.738-.37-1.53-.91-2.062-1.503-1.387-1.55-2.31-3.65-1.243-6.854.987-2.962 5.745-11.273 5.98-17.026.355-8.79-3.025-13.977-8.313-16" fill="none" stroke="#703d29" stroke-width=".987" stroke-miterlimit="3.864"/><path d="M542.685 203.85l-.206 3.306-.896 3.374-1.722 4.613-1.308 2.96-1.377 2.96-.688 2.067-.277 1.515.207 1.445M598.157 296.283c.493 1.447 1.307 1.948 2.332 3.022 2.228 2.335 5.495 4.343 9.622 5.504 3.813 1.072 7.25.265 9.87-1.368M595.81 423.404c.273.66.934 1.306.934 1.306 1.01 1.687 4.94 4.654 8.514 4.7 5.91.08 7.312-4.056 7.464-4.974.746-4.51-.796-5.743-3.11-7.013 0 0-1.36-.706-2.994-.434" fill="none" stroke="#703d29" stroke-width=".987" stroke-linecap="round" stroke-miterlimit="3.864"/><path d="M605.44 429.438l2.527-.506 1.905-1.01 1.05-1.05.738-1.205.506-1.944.038-1.36" fill="none" stroke="#703d29" stroke-width=".881" stroke-miterlimit="3.864"/><path d="M370.23 403.666c-2.087.535-4.047.547-5.76.033-4.422-1.327-8.006-5.564-6.178-10.83" fill="none" stroke="#703d29" stroke-width=".987" stroke-miterlimit="3.864"/><path d="M364.94 403.384l1.865.155 2.41-.195 2.41-.855" fill="none" stroke="#703d29" stroke-width=".881" stroke-miterlimit="3.864"/><path d="M365.29 387.873c1.936-.035 3.868 1.273 5.132 3.468.25.437.64 1.385.628 2.412-.016 1.368-.615 2.83-1.592 3.452-2.246 1.43-6.233.815-6.066-3.15" fill="none" stroke="#703d29" stroke-width=".987" stroke-linecap="round" stroke-miterlimit="3.864"/><path d="M363.423 393.712c0-1.932 1.236-3.498 2.76-3.498 1.524 0 2.76 1.566 2.76 3.498 0 1.933-1.236 3.5-2.76 3.5-1.524 0-2.76-1.567-2.76-3.5z" fill="#c7b37f" stroke="#c7b37f" stroke-width=".513" stroke-miterlimit="3.864"/><path d="M377.333 336.397c7.704 1.438 15.12 10.73 17.546 20.865.842 3.52 2 11.372.395 18.815-1.71 7.93-5.138 13.42-9.16 17.585-.953.988-2.058 1.928-3.323 2.855l-1.643 1.114" fill="none" stroke="#703d29" stroke-width=".987" stroke-miterlimit="3.864"/><path d="M379.214 343.153c.443.444.586 1.107.653 1.67.683 5.732-4.34 7.402-7.916 6.468-1.77-.46-3.88-2.105-4.71-3.56-.597-1.046-.96-2.297-.962-3.597" fill="none" stroke="#703d29" stroke-width=".987" stroke-miterlimit="3.864"/><path d="M379.44 345.385l-.312 2.177-.505.97-.74.934-1.01.778-1.127.505-1.477.232-1.012.078" fill="none" stroke="#703d29" stroke-width=".881" stroke-miterlimit="3.864"/><path d="M373.92 340.54c-.575.25-.892.457-1.323.91-.412.434-.497.592-.816 1.3-.232.517-.294 1.117-.38 1.857" fill="none" stroke="#c7b37f" stroke-width=".987" stroke-linecap="round" stroke-miterlimit="3.864"/><path d="M368.764 378.668c3.164 0 5.934 3.032 5.934 6.274 0 1.587-.615 3.028-1.615 4.084" fill="none" stroke="#703d29" stroke-width=".987" stroke-miterlimit="3.864"/><path d="M366.618 382.346c3.297 0 6.433 3.175 6.433 6.546 0 1.94-.904 3.668-2.314 4.785" fill="none" stroke="#703d29" stroke-width=".987" stroke-miterlimit="3.864"/><path d="M378.77 386.396c.543-.658.87-1.012 1.392-1.687.434-.563.692-.872 1.073-1.47.344-.54.497-.868.8-1.43.428-.795.64-1.258 1.05-2.06M381.11 401.533c-.924.425-1.472.613-2.37 1.09-.684.36-1.055.592-1.71 1.002-.776.484-1.208.766-1.945 1.306-.767.563-1.162.93-1.905 1.525M396.56 347.25c-.5-.515-.773-.816-1.284-1.32-.534-.528-.825-.84-1.4-1.323-.556-.468-.91-.683-1.492-1.12" fill="none" stroke="#c7b37f" stroke-width=".987" stroke-linecap="round" stroke-miterlimit="3.864"/><path d="M396.838 349.2c3.027 4.064 5.025 7.562 5.954 12.07M402.688 374.532c-.5 2.246-1.26 4.325-2.264 6.322-1.273 2.53-3.492 5.348-5.552 7.253" fill="none" stroke="#703d29" stroke-width=".987" stroke-linecap="round" stroke-miterlimit="3.864"/><path d="M402.787 341.754c-1.014 3.428-3.194 5.77-5.62 7.293M397.322 325.52c2.92 2.282 4.678 4.642 5.5 7.47M400.74 307.152c.894.824 1.516 1.74 1.93 2.757" fill="none" stroke="#703d29" stroke-width=".987" stroke-miterlimit="3.864"/><path d="M397.32 325.085c-1.126 1.01-2.25 1.63-3.264 2.03" fill="none" stroke="#703d29" stroke-width=".987" stroke-linecap="round" stroke-miterlimit="3.864"/><path d="M397.173 326.47c-.743.33-1.132.592-1.905.846-.885.292-1.485.444-2.34.483" fill="none" stroke="#c7b37f" stroke-width=".987" stroke-miterlimit="3.864"/><path d="M402.898 317.924c-.767 2.66-2.506 4.673-5.266 7.192" fill="none" stroke="#703d29" stroke-width=".987" stroke-linecap="round" stroke-miterlimit="3.864"/><path d="M400.9 296.6c.828.576 1.424 1.31 1.824 2.04" fill="none" stroke="#703d29" stroke-width=".987" stroke-miterlimit="3.864"/><path d="M402.91 303.942c-.483 1.19-1.317 2.475-2.43 3.718-2.998 3.346-8.083 6.19-13.717 6.26-3.056.038-6.23-.6-9.422-2.736-3.412-2.282-5.637-5.528-6.376-8.715" fill="none" stroke="#703d29" stroke-width=".987" stroke-linecap="round" stroke-miterlimit="3.864"/><path d="M370.995 300.68c.255.907.31 1.448.654 2.325.43 1.102.79 1.682 1.445 2.667.683 1.026 1.11 1.594 1.99 2.457.774.756 1.264 1.14 2.17 1.732.86.564 1.417.76 2.324 1.244" fill="none" stroke="#c7b37f" stroke-width=".987" stroke-linecap="round" stroke-miterlimit="3.864"/><path d="M399.11 280.132c1.73 1.47 3.06 3.347 3.7 5.295" fill="none" stroke="#703d29" stroke-width=".987" stroke-miterlimit="3.864"/><path d="M402.858 292.56c-1.384 4.575-5.51 10.232-13.473 12.25-3.804.963-8.702-.242-10.374-1.665" fill="none" stroke="#703d29" stroke-width=".987" stroke-linecap="round" stroke-miterlimit="3.864"/><path d="M378.04 301.948c.757.406 1.15.712 1.943 1.04.72.3 1.146.426 1.905.6 1.027.235 1.63.295 2.682.32 1.14.026 1.477 0 2.916-.235" fill="none" stroke="#c7b37f" stroke-width=".987" stroke-linecap="round" stroke-miterlimit="3.864"/><path d="M375.056 291.49c.417 4.12 3.174 7.208 8.4 7.307 7.352.138 11.82-10.574 5.288-18.094" fill="none" stroke="#703d29" stroke-width=".987" stroke-miterlimit="3.864"/><path d="M383.33 298.27l3.37-.887 1.994-1.507 1.285-1.818 1.108-2.837.443-2.304" fill="none" stroke="#703d29" stroke-width=".987" stroke-linecap="round" stroke-miterlimit="3.864"/><path d="M376.512 286.41c-1.064.265-2.41.658-3.824 1.332-1.893.9-3.903 2.305-5.506 4.575-1.856 2.63-2.94 6.286-3.61 9.485-.292 1.4-.642 5.832.254 10.41.66 3.38 2.057 6.527 3.6 8.806.555.817 1.057 1.523 1.622 2.087 2.02 2.022 3.887 3.266 6.997 2.644" fill="none" stroke="#703d29" stroke-width=".987" stroke-miterlimit="3.864"/><path d="M375.445 287.128c-2.97 1.838-5.182 2.273-7.492 4.948-2.3 4.553-3.203 7-4.1 10.65" fill="none" stroke="#703d29" stroke-width="1.041" stroke-linecap="round" stroke-miterlimit="3.864"/><path d="M377.045 324.363c0-1.587 1.193-2.873 2.665-2.873s2.665 1.286 2.665 2.873c0 1.587-1.193 2.873-2.665 2.873s-2.665-1.286-2.665-2.873z" fill="#c7b37f"/><path d="M358.525 327.394c1.074 1.347 2.337 2.56 3.63 3.637 2.62 2.182 5.712 4.102 9.272 5.153M379.673 336.952c6.57-.79 10.272-5.684 9.538-11.41-.558-4.364-4.562-7.72-7.284-7.913" fill="none" stroke="#703d29" stroke-width=".987" stroke-linecap="round" stroke-miterlimit="3.864"/><path d="M388.73 326.648l-.544 3.382-.66 1.477-1.362 1.866-1.827 1.4-1.866.932-3.614.894" fill="none" stroke="#703d29" stroke-width=".881" stroke-miterlimit="3.864"/><path d="M402.865 276.054c-1 2.89-2.83 4.953-5.724 6.26-2.885 1.304-6.226.086-8.013-1.292" fill="none" stroke="#703d29" stroke-width=".987" stroke-miterlimit="3.864"/><path d="M402.763 274.48l-.7 2.02-.855 1.478-1.166 1.633-1.633 1.478-1.944.933-1.633.39-1.01-.078" fill="none" stroke="#703d29" stroke-width=".881" stroke-miterlimit="3.864"/><path d="M390.386 268.92c2.85-.104 4.47 2.484 4.444 4.665" fill="none" stroke="#703d29" stroke-width=".987" stroke-miterlimit="3.864"/><path d="M395.376 271.58c-.546 2.005-1.624 4.492-4.773 4.22" fill="none" stroke="#703d29" stroke-width=".987" stroke-linecap="round" stroke-miterlimit="3.864"/><path d="M394.405 272.653l.04 1.555" fill="none" stroke="#703d29" stroke-width=".881" stroke-miterlimit="3.864"/><path d="M389.72 229.806c1.562 4.083 4.604 7.276 7.86 9.1" fill="none" stroke="#703d29" stroke-width=".987" stroke-linecap="round" stroke-miterlimit="3.864"/><path d="M398.69 240.155c-1.247-.728-2.01-1.046-3.196-1.866-1.208-.836-1.873-1.347-2.923-2.373-.757-.74-1.18-1.17-1.81-2.02-.563-.76-.78-1.258-1.276-2.06M401.2 224.722c.392 1.046.503 1.684 1.003 2.682.68 1.355 1.203 2.067 2.224 3.188 1.415 1.552 2.613 1.99 4.284 3.265M410.98 224.605c.39.94.508 1.518.996 2.41.432.79.73 1.21 1.3 1.905.724.89 1.196 1.352 2.098 2.06 1.05.824 1.793 1.067 2.94 1.75" fill="none" stroke="#c7b37f" stroke-width=".987" stroke-linecap="round" stroke-miterlimit="3.864"/><path d="M424.907 221.808c-.168-1.592.787-2.997 2.135-3.138 1.347-.14 2.576 1.035 2.744 2.627.17 1.592-.787 2.997-2.135 3.138-1.346.14-2.575-1.035-2.743-2.627z" fill="#c7b37f"/><path d="M622.86 287.286c2.685 3.68.926 10.932-6.38 11.07-2.854.054-5.43-1.528-6.94-3.924" fill="none" stroke="#703d29" stroke-width=".987" stroke-linecap="round" stroke-miterlimit="3.864"/><path d="M383.873 285.195c-3.023-2.955-9.43-3.726-15.798.303-.82.518-1.637 1.183-2.448 1.858-.876.73-1.575 1.57-2.25 2.482-.735.993-1.637 2.68-2.182 3.8-.75 1.545-1.06 2.56-1.474 4.142-1.162 4.455-1.157 8.596-1.02 9.776.176 1.513.32 2.904.568 4.182.845 4.372 2.138 7.44 3.475 9.657 1.407 2.332 4.905 7.69 12.058 8.396 2.813.28 7.613-1.01 7.77-4.663" fill="none" stroke="#703d29" stroke-width=".987" stroke-miterlimit="3.864"/><path d="M568.384 220.417c.478-2.58 3.59-3.08 4.758-1.555 1.8 2.348.61 6.382-3.052 7.526-1.244.39-4.12.234-5.986-2.177-1.513-1.952-1.397-4.372-.832-6.296.365-1.244 1.364-2.33 2.698-3.343 4.25-3.232 11.117-2.487 13.372 2.955 2.91 7.02-3.42 12.284-9.252 16.25-7.34 4.99-15.704 5.9-22.002 5.83-14.306-.155-25.19-6.997-32.266-10.884-1.648-.905-3.345-.72-4.198.312-.963 1.164-.947 3.043.39 4.276" fill="none" stroke="#703d29" stroke-width=".987" stroke-linecap="round" stroke-miterlimit="3.864"/><path d="M571.258 218.005c1.516.07 1.922.66 2.387 1.267 1.8 2.348.485 6.382-3.176 7.526" fill="none" stroke="#703d29" stroke-width=".987" stroke-linecap="round" stroke-miterlimit="3.864"/><path d="M491.5 224.79c2.403 1.837 4.1 4.1 3.817 7.774-.306 3.987-1.272 4.948-4.382 7.068" fill="none" stroke="#703d29" stroke-width="1.121" stroke-linecap="round" stroke-miterlimit="3.864"/><path d="M596.398 239.246v24.686" fill="none" stroke="#703d29" stroke-width=".987" stroke-miterlimit="3.864"/><path d="M494.68 233.695c-.14 2.403-1.13 3.958-3.533 4.948" fill="none" stroke="#703d29" stroke-width="1.121" stroke-linecap="round" stroke-miterlimit="3.864"/><path d="M520.783 211.91c-.08-2.648-2.69-2.923-3.69-2.923-2.885 0-3.665 1.8-7.265 3.733-4.512 2.423-6.455 2.96-10.466 2.997-4.01-.036-6.004-.574-10.516-2.998-3.6-1.933-4.206-3.675-7.09-3.675-1.568 0-3.59 1.353-3.514 3.832 0 0-.03.803.093 1.347.046.204.295.14.373.32-.037-1.203.208-1.825.8-2.633.76-1.037 2.025-1.312 2.54-1.312 2.886 0 3.954 1.85 7.553 3.784 4.513 2.423 6.455 2.962 10.465 2.998 4.01-.036 6.007-.575 10.52-2.998 3.598-1.933 4.633-3.938 7.52-3.938.998 0 1.704.648 2.03 1.667.203.628.09 1.046.142 1.294.025.12.173.11.206.24.1-.467.334-.633.3-1.733z" fill="#703d29" fill-rule="evenodd" stroke="#703d29" stroke-width=".277" stroke-miterlimit="3.864"/><path d="M435.875 221.963c0 2.685-1.98 4.382-4.664 4.947" fill="none" stroke="#703d29" stroke-width="1.041" stroke-linecap="round" stroke-miterlimit="3.864"/><path d="M598.344 307.333c-5.45 5.933-.437 16.116 3.637 18.418 1.41 1.098 2.014.516 3.14 1.176" fill="none" stroke="#703d29" stroke-width=".987" stroke-linecap="round" stroke-miterlimit="3.864"/><path d="M598.63 295.99c-1.79 1.245-2.42 2.642-2.49 5.07-.057 2.033.297 4.29 2.204 6.273 2.972 3.092 8.786 5.784 14.42 5.855 3.057.038 6.23-.6 9.422-2.736 3.413-2.282 5.21-5.364 5.987-8.397M595.583 398.598c0 .018-.01 2.388-.212 3.887-.59 4.363-1.284 6.873-3.264 10.806-1.93 3.837-3.473 5.85-6.53 8.865-3.086 3.04-5.224 4.434-9.097 6.375-3.773 1.89-6.15 2.49-10.264 3.42-4.112.93-6.517 1.132-10.73 1.322-3.86.175-6.052.01-9.908-.254-4.128-.286-6.417-.86-10.54-1.223-3.402-.3-5.325-.574-8.742-.565-3.512.01-5.525.03-8.983.643-3.223.57-5.052 1.025-8.086 2.255-4.198 1.7-8.94 4.664-9.952 5.986-1.01-1.322-5.754-4.286-9.95-5.986-3.035-1.23-4.864-1.684-8.087-2.255-3.458-.612-5.47-.634-8.983-.643-3.417-.01-5.34.266-8.743.565-4.122.362-6.41.937-10.54 1.223-3.855.267-6.046.43-9.908.254-4.212-.19-6.617-.393-10.73-1.32-4.114-.93-6.49-1.532-10.262-3.422-3.873-1.94-6.01-3.334-9.096-6.375-3.058-3.014-4.6-5.028-6.53-8.864-1.98-3.932-2.675-6.442-3.267-10.805-.204-1.5-.212-3.87-.212-3.888v-159.02h192.548v159.02h.067z" fill="none" stroke="#703d29" stroke-width=".987" stroke-miterlimit="3.864"/><path d="M515.11 249.635h12.253v81.23H515.11v-81.23z" id="m" fill="#d52b1e"/><path d="M412.665 249.246h82.18v82.023h-82.18v-82.024z" fill="#d52b1e" stroke="#703d29" stroke-width=".797" stroke-miterlimit="3.864"/><use transform="matrix(-1 0 0 1 907.52 0)" width="1000" height="700" xlink:href="#b"/><path d="M451.2 313.826s-.047 2.93-.854 5.287c-.934 2.72-.94 2.72-1.796 4.043-1.152 1.78-2.557 3.082-3.81 3.887-1.958 1.26-3.948 1.888-5.948 1.71-5.49-.486-8.038-6.44-9.283-11.273-1.323-5.13-5.074-7.923-7.465-6.064-1.4 1.088-1.478 2.914-.31 4.665 1.243 1.867 4.098 2.8 4.098 2.8l-2.932 3.732s-6.3-.82-7.534-7.394c-.466-2.488.742-7.133 4.89-8.522 5.298-1.773 8.687 2.004 10.32 5.192 2.245 4.383 3.21 12.434 9.43 11.19 3.383-.677 4.975-5.598 4.975-7.853l2.468-2.643 3.654 1.166.1.078z" id="b" fill="#fff" fill-rule="evenodd"/><path d="M461.117 278.95l10.76-11.643s1.624-1.31 1.61-3.4l-2.22.344-.496-1.14-.11-1.148 2.982-.63c.047-.484.007-.85.092-1.384.08-.494.19-.76.31-1.244l-3.265.218c.165-.57.128-.875.31-1.406.154-.447.197-.618.503-1.103.607-.09 1.158-.228 1.908-.304.728-.074 1.144-.04 1.874-.086 1.78-3.32 9.19-6.373 14.454-.904 3.81 3.958 2.987 11.22-1.95 13.14-2.8 1.088-5.055.444-6.863-1.11l1.97-3.866c2.722 1.625 4.977-.396 4.82-2.496-.195-2.653-1.917-4.296-4.352-4.51-2.255-.196-3.873 1.094-4.9 3.11-.625 1.232-.335 2.134-.543 3.5-.226 1.483-.1 2.31-.537 3.81-.318 1.087-1.155 2.433-2.37 3.592l-11.03 11.935-42.94 46.445-3.227-2.983 43.21-46.737z" fill="#fedf00" fill-rule="evenodd"/><path d="M429.51 283.038s2.7 13.373 11.874 33.432c4.665-1.71 7.42-2.8 12.36-2.8 4.945 0 7.7.934 12.363 2.8 9.175-20.06 11.874-33.432 11.874-33.432l-24.235-31.176-24.235 31.176z" fill="#fff" fill-rule="evenodd"/><use transform="matrix(-1 0 0 1 907.5 0)" width="1000" height="700" xlink:href="#c"/><path d="M451.383 262.412l-16.82 21.637s2.244 10.52 9.08 26.353c2.645-.602 4.915-1.127 7.73-1.32l.01-46.67z" id="c" fill="#fedf00" fill-rule="evenodd"/><path d="M525.13 364.174c-.796-.237-1.965-.826-1.965-.826.323-.25.587-.265.863-.554.39-.41.373-.79.592-1.32.216-.52.185-.954.672-1.342.29-.23.762-.27 1.118-.166.353.113.76.402.848.767.137.56-.16.885-.246 1.454-.086.567-.293.894-.195 1.46.065.374.227.518.354.907 0 0-1.264-.15-2.04-.38z" id="d" fill="#0065bd" fill-rule="evenodd"/><path d="M524.135 365.124c-.007-.347.27-.634.618-.64.348-.01.634.27.64.618.008.348-.27.634-.617.64-.348.01-.634-.27-.64-.618z" id="e" fill="#0065bd" fill-rule="evenodd"/><path d="M522.384 348.61s-.09-.06-.143-.104c-.383-.31-.42-.653-.6-1.11-.173-.434-.258-.69-.316-1.154-.05-.406 0-.64 0-1.048 0-.37.04-.578 0-.944-.04-.375-.03-.612-.21-.944-.097-.18-.394-.337-.314-.42.095-.096.257-.02.42 0 .4.05.63.166.943.42.377.306.527.57.672 1.05.167.547.248.897.408 1.467.082.295.128.47.283.734.16.275.32.383.524.63l-.01.022c-.3.326-.445.538-.778.833-.305.27-.56.403-.846.573l-.033-.01z" id="f" fill="#0065bd" fill-rule="evenodd"/><path d="M524.625 346.906s-.366.176-.594.282c-.297.327-.446.52-.78.812-.443.39-.77.503-1.25.844-.23.163-.42.215-.594.437-.252.322-.08.63-.25 1-.186.406-.37.598-.656.94-.366.433-.65.608-1.063 1-.418.394-.587.725-1.093 1-.134.07-.2.14-.344.186-.216.067-.35-.01-.563.062-.388.135-.51.563-.78.72.11.217.106.372.218.593.158.324.705 1.216.813 1.438.21.305.27.7.53.782.54.168.86.153 1.313.125.793.18 1.282.157 2.033.468.612.254.862.575 1.468.844.475.21.773.34 1.283.438.386.074.608.132 1 .094.25-.026.376-.12.625-.158.048-.01.08 0 .125 0l-.032.375c-.004 0 .006.028 0 .03v.063h.064l2.062.907c-.073.117-.15.256-.187.375-.1.32-.115.688-.064.843.63 1.888 1.16 3.07 1.47 3.188.614.236.805.865 1.155 1.5-.122.132-.226.2-.342.312-.615.59-1.152 1.01-1.657 1.813-.744 1.188-1.247 1.204-.31 2.78.548.926.813 1.1 1.53 2.407.362.66.562 1.174.78 1.97.208.75.28 1.19.314 1.968l.97.375.655-.656.624-1.188.03-.906c-.238-.203-.307-.474-.25-.78.07-.37.515-.293.72-.626.283-.462-.332-.735-.657-1.094-.605-.67-1.43-.833-1.625-1.844-.052-.273.078-.427.375-.72.856-.84 1.13-.972 1.97-1.81.24.14.61.192.968.124.28-.053.53.125 1.406.375.61.173.874.086 1.22.03l.375-.093c.05.21.112.416.125.687.053 1.06-.155 2.995.156 3.5.13.213.186.332.282.563.098.24.213.396.218.656.01.696.047 1.14 0 1.875-.044.692-.103 1.043-.218 1.75-.074.452-.166.715-.438 1.064-.283.363-.595.417-.97.687l-.092 1 1.125.47 1.28.312.688-.28c0-.255.04-.4.158-.626.127-.246.23-.438.468-.53.363-.143.76.128.907-.095.16-.24.06-.337.03-.75-.045-.66-.183-.988-.28-1.655-.165-1.11-.21-1.687-.157-2.75.03-.617.04-.957.157-1.563.17-.882.485-1.31.687-2.187.225-.978.265-1.607.375-2.47 3.17.454 5.807.398 9.344-.374.168-.036.75-.25.75-.25.798.69 1.705 1.265 2.717 1.626-.006.1-.015.845 0 .97.037.286-.04.48.125.717.106.15.197.24.375.282.263.06.455.023.657-.157.226-.2.184-.454.25-.75.032-.14.007-.564 0-.687.366.056.49.063.875.063.356 0 .528.014.874-.03.005.08.02.368.03.468.028.245-.075.435.032.657.11.23.25.36.5.406.206.04.354.018.53-.094.297-.186.265-.5.314-.845.015-.11.01-.69 0-.78.212-.068.827-.293 1.03-.376-.004.242-.038.516-.093.812-.07.376-.12.578-.25.937-.206.567-.44.855-.75 1.374-.376.634-.572.986-1.03 1.563-.212.266-.358.385-.563.656-.256.337-.342.566-.594.906-.324.437-.51.723-.938 1.062-.693.55-1.15.11-2.093.843l-.22 1.032 1.437.53 1.282.25.436-.25c-.012-.3.032-.513.22-.75.213-.27.44-.35.78-.405.362-.06.747.034 1.03-.22.352-.31.35-.913.626-1.468.86-1.723 1.62-2.563 3-3.906.613-.597 1.138-.758 1.657-1.438.245-.322.52-.47.53-.875.008-.282-.144-.415-.22-.687-.102-.377-.186-1-.186-1 1.522.745.97.646 1.25 1.406.225.615-.033 1.04.062 1.688.11.756.466 1.114.53 1.875.08.904-.142 1.42-.31 2.312-.15.784-.13 1.276-.47 2-.322.688-.57 1.076-1.156 1.562-.21.175-.368.25-.594.406l-.125 1.03 1.126.376 1.625.438.376-.344c.164-.655-.054-1.617.406-1.688.407-.062.693 0 .782-.312.036-.13.06-.326.093-.625.222-1.886.422-3.645.625-4.5.23-.968.215-1.178.407-1.906.174-.664-.087-.283.405-1.688.734-2.098-.208-2.376-1.063-3.657-.462-.693-.62-.944-.687-1.5-.097-.817.165-1.495.125-2.75-.04-1.32-.023-2.16 0-2.875.115-.053.222-.12.344-.188 1.17-.642 1.636-.836 2.375-2.468.223-.496.318-.994.31-1.47-.004-.33-.064-.65-.093-1.03-.03-.4-.19-.638-.312-.938-.13-.318-.324-.558-.563-.844-.772-.924-1.778-1.13-2.718-1.468-1.484-.532-2.505-.435-4.125-.563-1.673-.133-2.608-.16-4.283-.063-2.006.114-3.127.52-5.125.75-1.915.222-2.977.37-4.906.406-2.26.042-4.42-.46-5.78-.343-2.452.21-2.494.76-6.19 1.062-1.926.158-3.842.188-3.842.188l-2.157-.688c.857-.306 1.067-.488 1.47-1.03.27-.367.232-.68.562-1.064.265-.31.442-.622.78-.968-.31-.25-.643-.377-.938-.438-.363-.076-.573-.042-.937 0-.494.056-.772.124-1.22.344-.358.177-.623.357-.843.594 0 0-1.285-.83-2.187-1.22-1.12-.483-1.6-.71-3-.905zm1.97 11.907h.06c-.01.01-.018.022-.03.03l-.03-.03z" id="a" fill="#d52b1e" fill-rule="evenodd"/><path d="M568.765 359.517l-.763.244c-.867.403-1.578.42-2.6.497-2.644.203-4.27-1.057-6.997-.847-1.404.108-2.026 1.19-3.46 1.548-.653.163-1.032.225-1.702.282l.513-1.033s-1.284.26-2.116.263c-.596 0-.935-.028-1.523-.13l1.018-.95s-.813-.133-1.293-.336c-.443-.187-.684-.33-1.06-.63.663-.113 1.035-.19 1.69-.352 1.555-.385 2.04-1.147 3.89-1.326 1.15-.11 3.032-.046 7.642.717 3.036.502 4.383.267 5.536-.257.76-.346 1.01-1.01 1.103-1.79.092-.775-.404-1.403-.874-1.81-.123-.105-.445-.334-1.114-.362" fill="none" stroke="#fedf00" stroke-width=".987" stroke-linecap="round" stroke-miterlimit="3.864"/><path d="M524.796 350.606c-.53-.066-.885.01-1.34.29-.48.297-.542.698-.888 1.143.445.098.698.36 1.142.253.346-.084.526-.238.76-.507.316-.363.432-.676.428-1.156l-.102-.024z" fill="#fcd900" fill-rule="evenodd" stroke="#fedf00" stroke-width=".513" stroke-miterlimit="3.864"/><path d="M536.044 363.794s.264.48.407.8c.25.554.377.878.525 1.467.2.8.114 1.285.24 2.098.024.144.05.264.078.377l-.05 1.13M544.037 362.705s-.22.813-.354 1.333c-.352 1.354-.676 2.087-.944 3.46-.046.23-.078.443-.104.644" fill="none" stroke="#fedf00" stroke-width=".987" stroke-linecap="round" stroke-miterlimit="3.864"/><path d="M525.984 359.246l2.23 1.03c1.15-.634 2.474-1.923 3.497-3.918.882-1.718 1.022-2.65 1.365-4.313l-1.79-.582-.356.073c-.553 1.724-.693 2.704-1.62 4.193-.8 1.29-1.717 2.304-2.648 3.033l-.678.483z" id="g" fill="#0065bd" fill-rule="evenodd"/><path d="M530.916 377.368c.36-.493.514-.81.922-1.263.457-.505.8-.702 1.312-1.15.156.015.335-.012.48.07-.027.545-.055.95-.18 1.54-.1.482-.185.747-.346 1.21-.134.39-.158.64-.39.98-.154.227-.29.316-.475.518-.512-.742-1.332-1.297-1.324-1.905z" id="h" fill="#0065bd" fill-rule="evenodd"/><path d="M563.926 379.22c.573.21.92.27 1.47.537.61.3.894.576 1.467.944.026.155.103.32.063.483-.532.123-.928.208-1.53.252-.49.036-.77.027-1.26 0-.41-.023-.658.024-1.048-.105-.26-.086-.384-.192-.63-.315.573-.695.88-1.636 1.468-1.796z" id="i" fill="#0065bd" fill-rule="evenodd"/><path d="M554.173 377.182c.572.21.92.27 1.468.538.612.3.897.575 1.47.943.025.154.103.32.062.483-.532.123-.928.207-1.53.25-.49.037-.77.028-1.26 0-.41-.022-.657.025-1.048-.103-.26-.086-.384-.192-.63-.315.574-.695.88-1.636 1.468-1.796z" id="j" fill="#0065bd" fill-rule="evenodd"/><path d="M536.825 379.312c.573.21.92.27 1.47.538.61.3.894.576 1.467.944.026.154.104.32.063.482-.532.123-.928.207-1.53.252-.49.036-.77.027-1.26 0-.41-.022-.658.024-1.048-.105-.26-.086-.384-.192-.63-.315.573-.695.88-1.636 1.468-1.796z" id="k" fill="#0065bd" fill-rule="evenodd"/><path d="M527.853 349.51c-.612-.28-1.05-1.046-.66-1.595.155-.22.413-.174.566-.396.187-.273.14-.508.135-.84-.007-.376-.144-.572-.21-.943-.072-.406-.14-.636-.136-1.05.004-.627-.04-1.074.345-1.57.244-.318.66-.594.824-.614.146.137-.058.502-.033.822.035.462.13.718.287 1.154.203.56.48.807.703 1.362.208.515.4.807.42 1.363.015.457-.025.735-.21 1.153-.164.37-.3.58-.61.84-.27.224-.458.324-.796.418-.246.02-.4-.01-.627-.108z" id="l" fill="#0065bd" fill-rule="evenodd"/><path d="M531.776 364.174c.79.176.544 3.36 1.79 4.09" fill="none" stroke="#fedf00" stroke-width=".987" stroke-linecap="round" stroke-miterlimit="3.864"/><path d="M560.123 369.78l.384-.248c1.014-.415 1.925-1.028 2.686-1.79" fill="none" stroke="#fedf00" stroke-width=".987" stroke-miterlimit="3.864"/><path d="M552.38 368.023h.006c3.533-.883 5.885-2.647 7.58-2.868" fill="none" stroke="#fedf00" stroke-width=".987" stroke-linecap="round" stroke-miterlimit="3.864"/><path d="M555.967 363.61c.3-.012.585-.034.83-.07 1.467-.21 1.703.688 2.726 1.26 1.856 1.037 2.097 2.306 4.298 3.355.118.055.225.107.323.155l.847.43" fill="none" stroke="#fedf00" stroke-width=".987" stroke-linecap="round" stroke-miterlimit="3.864"/><path d="M517.696 354.53c.268.066.432.08.707.053.332-.03.484-.238.817-.25.27-.01.462-.03.684.126.14.098.2.188.28.34.087.168.163.283.124.467-.06.285-.324.418-.614.42-.237 0-.434-.062-.544-.272-.07-.135-.082-.242-.04-.39-.283.108-.49.112-.777.018-.303-.1-.474-.24-.637-.513z" fill="#fcd900" fill-rule="evenodd" stroke="#fedf00" stroke-width=".513" stroke-miterlimit="3.864"/><use transform="translate(0 36.59)" width="1000" height="700" xlink:href="#d"/><use transform="translate(0 36.59)" width="1000" height="700" xlink:href="#e"/><use transform="translate(0 36.59)" width="1000" height="700" xlink:href="#f"/><path d="M568.765 396.108l-.763.244c-.867.402-1.578.418-2.6.496-2.644.202-4.27-1.057-6.997-.848-1.404.108-2.026 1.19-3.46 1.55-.653.16-1.032.224-1.702.28l.513-1.033s-1.284.262-2.116.263c-.596 0-.935-.028-1.523-.13l1.018-.95s-.813-.132-1.293-.335c-.443-.187-.684-.33-1.06-.63.663-.113 1.035-.19 1.69-.353 1.555-.385 2.04-1.147 3.89-1.325 1.15-.11 3.032-.046 7.642.716 3.036.503 4.383.268 5.536-.257.76-.346 1.01-1.01 1.103-1.788.092-.776-.404-1.404-.874-1.81-.123-.106-.445-.335-1.114-.363" fill="none" stroke="#fedf00" stroke-width=".987" stroke-linecap="round" stroke-miterlimit="3.864"/><path d="M524.796 387.197c-.53-.066-.885.01-1.34.29-.48.297-.542.698-.888 1.143.445.1.698.36 1.142.254.346-.083.526-.24.76-.508.317-.362.432-.675.428-1.156l-.102-.024z" fill="#fedf00" fill-rule="evenodd" stroke="#fcd900" stroke-width=".513" stroke-miterlimit="3.864"/><path d="M536.044 398.688s.264.48.407.8c.25.554.377.878.525 1.467.2.8.114 1.284.24 2.097.024.144.05.264.078.377l-.05 1.128M544.037 399.296s-.22.812-.354 1.332c-.352 1.354-.676 2.088-.944 3.46-.046.23-.078.443-.104.645" fill="none" stroke="#fedf00" stroke-width=".987" stroke-linecap="round" stroke-miterlimit="3.864"/><use transform="translate(0 36.59)" width="1000" height="700" xlink:href="#g"/><use transform="translate(0 36.59)" width="1000" height="700" xlink:href="#h"/><use transform="translate(0 36.59)" width="1000" height="700" xlink:href="#i"/><use transform="translate(0 36.59)" width="1000" height="700" xlink:href="#j"/><use transform="translate(0 36.59)" width="1000" height="700" xlink:href="#k"/><use transform="translate(0 36.59)" width="1000" height="700" xlink:href="#l"/><path d="M531.776 400.764c.79.176.544 3.36 1.79 4.09" fill="none" stroke="#fedf00" stroke-width=".987" stroke-linecap="round" stroke-miterlimit="3.864"/><path d="M560.123 406.37l.384-.248c1.014-.415 1.925-1.027 2.686-1.79" fill="none" stroke="#fedf00" stroke-width=".987" stroke-miterlimit="3.864"/><path d="M552.38 404.614h.006c3.533-.883 5.885-2.648 7.58-2.87" fill="none" stroke="#fedf00" stroke-width=".987" stroke-linecap="round" stroke-miterlimit="3.864"/><path d="M555.967 400.2c.3-.012.585-.034.83-.07 1.467-.21 1.703.688 2.726 1.26 1.856 1.038 2.097 2.306 4.298 3.355.118.055.225.107.323.155l.847.43" fill="none" stroke="#fedf00" stroke-width=".987" stroke-linecap="round" stroke-miterlimit="3.864"/><path d="M517.696 391.12c.268.067.432.08.707.054.332-.03.484-.238.817-.25.27-.01.462-.03.684.125.14.098.2.19.28.34.087.168.163.284.124.468-.06.284-.324.417-.614.42-.237 0-.434-.062-.544-.272-.07-.135-.082-.243-.04-.39-.283.108-.49.112-.777.017-.303-.1-.474-.238-.637-.513z" fill="#fedf00" fill-rule="evenodd" stroke="#fcd900" stroke-width=".513" stroke-miterlimit="3.864"/><path d="M412.97 402.407c.232 1.477.758 4.012 2.16 6.608 1.478 2.333.934 2.27 4.277 6 1.646 1.838 4.214 3.412 6.228 4.496 2.02 1.09 3.516 1.624 6.84 2.496 6.52 1.71 11.092 1.817 16.575 1.6 4.278-.172 7.545-.7 10.25-1.063 3.857-.52 6.73-.828 11.117-1.01 2.133-.09 4.15-.11 6.142 0 2.405.132 4.78.505 7.308 1.01 5.442 1.09 10.962 3.188 10.962 3.188l.013-85.654-82.193-.023v58.543s.17 2.86.318 3.81z" fill="#fedf00" fill-rule="evenodd" stroke="#703d29" stroke-width=".797" stroke-miterlimit="3.864"/><path d="M422.508 416.84c1.31.843 2.65 1.384 3.852 2.02 1.97 1.046 2.893 1.296 5.278 2.15l-.005-80.443h-9.126v76.054-.01.23zM468.17 421.144l.01-80.577h-9.144v81.3s6.258-.536 9.132-.723zM486.407 340.567h-9.113v80.24c2.97.323 6.024.765 9.13 1.595l-.017-81.835z" fill="#d52b1e" fill-rule="evenodd" stroke="#d52b1e" stroke-width=".513" stroke-miterlimit="3.864"/><path d="M620.49 275.03c7.388-.15 28.858 5.64 29.01 30.877.15 24.925-15.382 28.997-21.607 30.656" fill="none" stroke="#703d29" stroke-width=".997" stroke-miterlimit="3.864"/><path d="M622.426 275.028c12.743-.554 25.892 8.826 26.47 32.237.454 18.29-12.516 26.583-18.74 28.242" fill="none" stroke="#703d29" stroke-width="1.037" stroke-miterlimit="3.864"/><use transform="translate(23.48)" width="1000" height="700" xlink:href="#m"/><use transform="translate(46.96)" width="1000" height="700" xlink:href="#m"/><path d="M449.925 340.567v82.412c-.09.01-6.1.138-9.174-.18l.003-82.218 9.17-.014z" fill="#d52b1e" fill-rule="evenodd" stroke="#d52b1e" stroke-width=".513" stroke-miterlimit="3.864"/></svg>