<svg xmlns="http://www.w3.org/2000/svg" width="1200" height="800" viewBox="0 0 3600 2400"><title>Flag of Equatorial Guinea</title><path fill="#E32118" d="M0 0h3600v2400H0z"/><path fill="#FFF" d="M0 0h3600v1600H0z"/><path fill="#3E9A00" d="M0 0h3600v800H0z"/><path fill="#0073CE" d="M0 0v2400l900-1200L0 0"/><g fill="#FFF" stroke="#000" stroke-width="3.5"><path d="M2027 1352l25 36 23-34-16-29-32 27zM1868 1457l2 36s10 0 19-3c8-3 15-9 15-9l-1-19-35-5zM1734 1457l-2 35s-9 0-18-2c-8-2-15-7-15-7l-10-24 45-2z"/><path d="M1608 958.8h383V1360c0 135-176 31-191 103-26-74-191 33-191-111 0-140-1-393.2-1-393.2z" stroke-width="4.8"/><path d="M1573 1352l-26 36-28-46 21-22 33 32z"/></g><g fill="#FFD700" stroke="#000" stroke-width="3.5"><path d="M1787 902.6l-22 1-11 19.7-12-18.8-22 .9 10-19.8-12-18.8 23-1 10-19.7 12 18.8 22-.9-10 19.8 12 18.8zM1693 909.9l-22 5.4-6 21.3-16-16-21 5.2 6-21.3-15-16.2 21-5.3 6-21.4 16 16 22-5.2-7 21.4 16 16.1zM1602 928.6l-20 9.9-1 22.2-19-12.2-20 9.8 2-22.2-19-12.3 20-10 2-22.2 18 12.2 20-9.8-1 22.2 18 12.4zM1816 902.6l22 1 10 19.7 12-18.8 22 .9-10-19.8 12-18.8-22-1-11-19.7-12 18.8-22-.9 10 19.8-11 18.8zM1910 909.9l21 5.4 6 21.3 16-16 21 5.2-6-21.3 16-16.2-22-5.3-6-21.4-16 16-21-5.2 6 21.4-15 16.1zM2000 928.6l20 9.9 1 22.2 19-12.2 20 9.8-1-22.2 18-12.3-20-10-1-22.2-19 12.2-20-9.8 2 22.2-19 12.4z"/></g><g fill="#FFF" stroke="#000" stroke-width="3.5"><path d="M1698 1481v48c0 34 206 34 206 0v-48c0 25-206 20-206 0z"/><path d="M1514 1418c18 92 184 94 184 94v-31c-4-12 3-16 30-20 11-1 6-17 6-17s-72 13-123-7c-69-28-79-82-79-82s-5 42-18 63zM2087 1418c-17 92-183 94-183 94v-31c3-12-4-16-31-20-11-1-5-17-5-17s72 13 123-7c68-28 76-82 76-82s7 42 20 63z"/><path d="M1527 1383c-46-25-10-51-6-125 7 45 58 64 52 93-21 1-31-31-41 4l-5 28zM2074 1383c46-26 8-51 4-125-7 45-57 64-51 93 20 1 30-31 40 4l7 27v1z"/></g><path d="M1761 1541v-32h18c2 1 4 2 5 3 1 2 2 4 2 6s-1 4-1 5c-1 2-2 3-3 4-1 0-2 1-3 1-2 0-4 1-7 1h-4v12h-7zm7-27v9h8c1-1 2-1 2-2 1-1 1-1 1-2 0-2 0-3-1-3-1-1-2-2-3-2h-7zm49 27h-7l-3-8h-13l-3 8h-7l13-32h7l13 32zm-12-13l-5-12-4 12h9zm12 13v-6l17-21h-15v-5h24v5l-18 21h18v6h-26z"/><path d="M1827 1399s-5 5-14 1-10-257-10-257c20-22 36-29 36-29l12 10c-45 23-41 56-37 113 1 21 1 48 6 74 7 33 21 61 22 82 1 13-15 6-15 6z" fill="#73452B" stroke="#000"/><path d="M1796 1108h18c-15 145-2 231-2 273 0 14 8 19 7 19-18 20-27-1-27-1l4-291z" fill="#73452B" stroke="#000"/><path d="M1768 1399c-17 8-19-8-18-10 37-75 53-240 19-258l2-16c13 4 25 21 25 21 5 185 0 261-3 264-18 19-25-3-26-5" fill="#A36629" stroke="#000"/><path d="M1767 1396c-3-16 26-57 24-100M1816 1331c9 25 13 47 11 68" fill="none" stroke="#000"/><path d="M1855 1040c6-7 6-7 17-7 2-15 27-15 29 4 20-4 24 8 16 20 19-5 36 0 31 22 34 9 21 33 6 38-2 15-16 20-35 14-24 17-38 11-49-6-27 4-29-2-41-17-21 9-25 9-43-2-1 14-6 10-15 9 1 18-6 26-22 20 12 25-19 36-34 15-14 1-15-3-22-8-6 20-28 17-32 6-28-4-25-19-2-20 2-16 16-13 25-11 1-10 7-8 12-6-3-7-1-11 8-13-13-17-5-23 8-29-7-16 5-15 14-16-1-17 4-20 22-22-2-6 1-11 11-11-6-17 2-20.9 20-18 3-24.7 56-13 52 21 15 2 20 5 24 17z" fill="#009A3B" stroke="#000"/><g fill="none" stroke="#000"><path d="M1748 1031c4 2 9 0 10 11 8-14 18-6 18 10M1831 1023c-4 6-19 6-17 22-5-7-15-9-19-2M1855 1040c0 4-1 16-5 22M1917 1057c1 1-14 0-21 5M1954 1117c-4-2-12-7-18 1 0-4 0-15-11-15M1919 1131c0-10-2-13-4-16M1886 1117c-8-6-16 3-16 8M1828 1108c0-4-3-12 4-15M1714 1150c2-10 9-10 8-15-1-8-10-15-21-4M1722 1135c6-2 12-1 14 2M1705 1098c4-4 14-3 20 0M1725 1074c5 0 14-2 17 7 11-17 19-15 21-11M1783 1068c8-3 22 5 30 19 4-11 10-9 16-10M1867 1087c13-6 21 6 25 11 6-8 11-8 17-8M1746 1111c3-5 10-6 15-3-1-9 5-13 9-11"/></g><path d="M1555 1417l5 4-11 12c-2 2-3 4-3 4-1 2-1 3-1 4s1 2 2 3c1 2 3 2 4 2s2 0 3-1c1 0 2-1 3-3l12-13 4 4-10 12-6 6c-1 1-2 1-4 1h-4c-2-1-3-2-5-3-2-2-4-4-4-6-1-1-1-3-1-4s0-3 1-4c0-1 2-3 4-6l11-12zm3 43l17-26 5 3-1 24 11-17 5 3-16 26-6-3 1-24-11 17-5-3zm26 16l14-28 5 3-13 27-6-2zm22-24l10 4c3 1 4 2 5 3 2 1 3 2 4 4s1 3 1 5c0 3-1 5-2 8 0 2-1 4-3 5-1 2-3 4-5 4-1 1-3 1-4 1-2 0-4 0-6-1l-11-4 11-29zm4 7l-7 19 4 2c2 0 3 1 4 1h3c0-1 1-2 2-3s2-3 2-5c1-2 2-4 2-5s0-3-1-3c0-1-1-2-2-3-1 0-2-1-5-2l-2-1zm42 37l-7-1-1-7-12-3-4 7-7-2 18-27 6 1 7 32zm-9-14l-2-12-6 11 8 1zm13-16h12c2 1 4 1 5 1 2 1 4 2 5 3 1 2 2 3 2 5 1 2 1 5 1 8 0 2 0 4-1 6s-2 4-4 5c-1 1-2 2-4 3h-6l-11-1 1-30zm6 5l-1 21h9c1-1 1-1 2-1 1-1 1-2 2-3 0-2 1-4 1-6s0-4-1-5c0-2 0-3-1-3-1-1-2-2-3-2h-5l-3-1zM1918 1473l6-1 3 18v6c-1 2-2 3-3 5-1 1-3 2-6 2s-5 0-7-2c-2-1-3-3-3-7l5-1c1 2 1 3 2 4 0 1 1 1 3 1 1 0 2-1 2-2 1-1 1-2 1-5l-3-19v1zm10-2l6-1 3 16c1 2 1 4 1 5 1 1 2 2 3 2 1 1 2 1 4 0 2 0 3-1 3-1 1-1 2-2 1-3v-5l-4-16 6-1 3 15c1 3 1 6 1 7 0 2 0 3-1 4 0 1-1 2-2 3-2 1-4 2-6 2-3 1-5 1-6 1-2-1-3-1-4-2l-3-3c0-2-1-4-2-7l-3-16zm31 14l5-2c1 2 2 3 4 3 1 1 3 1 4 0 2 0 3-1 4-2s1-2 1-3c-1-1-1-1-1-2h-8c-3 0-6 0-7-1-2-1-4-3-5-5v-4c1-2 2-3 3-4s3-2 5-3c4-1 7-1 9 0s4 3 5 5l-6 2c-1-1-1-2-2-2-1-1-3-1-4 0-2 0-3 1-4 2v2c0 1 0 1 1 2h13c1 0 3 1 4 2s2 2 2 4c1 2 1 3 0 5 0 2-1 3-2 4l-6 3c-4 1-7 1-9 0-3-1-5-3-6-6zm37-2l-10-23-8 4-2-5 22-9 2 4-8 4 9 22-5 3zm17-8l-14-26 5-3 14 26-5 3zm20-24l6-2c1 3 1 6 0 8-1 3-2 5-5 7-4 2-7 2-11 1-3-1-6-3-9-7-2-4-3-8-2-12 0-3 2-6 6-9 3-1 6-2 9-1 2 0 4 1 6 3l-5 4c-1-1-2-2-4-2-1 0-2 0-4 1s-3 3-3 5 1 4 2 7c2 4 4 5 6 6s4 0 6-1l3-3c0-2 0-3-1-5zm15 3l-18-24 5-4 18 24-5 4zm29-25l-5 4-6-3-9 8 3 6-5 5-11-30 5-4 28 14zm-16-2l-10-5 4 11 6-6z"/></svg>