<svg xmlns="http://www.w3.org/2000/svg" xmlns:xlink="http://www.w3.org/1999/xlink" width="1200" height="600"><path fill="#171796" d="M0 0h1200v600H0z"/><path fill="#fff" d="M0 0h1200v400H0z"/><path fill="red" d="M0 0h1200v200H0z"/><path fill="red" d="M600.037 455.185c64.152 0 116.636-52.487 116.636-116.635V199.954H483.4V338.55c0 64.15 52.486 116.635 116.634 116.635z"/><path fill="#fff" d="M600.037 453.316c62.928 0 114.41-51.485 114.41-114.41V202.198H485.624v136.705c0 62.93 51.486 114.41 114.414 114.41z"/><g fill="red"><path d="M533.916 206.5h-44.03v48.376h44.03zM533.916 303.25h44.03v-48.374h-44.03zM489.886 338.636c0 4.393.272 8.726.78 12.988h43.25V303.25h-44.03v35.386zM621.98 303.25h-44.034v48.374h44.034zM621.98 399.997h44.03v-48.373h-44.03zM666.01 426.46c9.763-7.37 18.273-16.318 25.14-26.46h-25.14v26.46zM533.92 399.997h44.03v-48.373h-44.03zM508.74 399.997c6.874 10.157 15.398 19.117 25.18 26.492v-26.493h-25.18z"/><path d="M607.632 448.373c4.872-.34 9.662-.998 14.345-1.958v-46.418h-44.03v46.424c4.668.958 9.445 1.612 14.303 1.95 5.127.317 10.254.3 15.38 0zM709.217 351.624c.51-4.277.782-8.625.782-13.033v-35.338h-43.993v48.375h43.21zM621.98 303.25h44.03v-48.374h-44.03zM621.98 206.5h-44.03v48.376h44.03zM710 254.876V206.5h-43.99v48.376z"/></g><g><path fill="#fff" d="M712.464 198.535l27.3-61.885-20.8-33.587-34.46 12.758-24.193-27.655-31.88 18.27-28.425-23.282-28.427 23.28-31.88-18.268-24.197 27.653-34.46-12.757-20.804 33.596 27.265 61.897c34.358-15.55 72.452-24.214 112.508-24.214 40.037 0 78.114 8.657 112.46 24.195z"/><path fill="#0093dd" d="M516.26 118.552l-.05.06-34.174-12.655-19.123 30.876 7.325 16.656 18.558 42.125c13.856-6.126 28.302-11.15 43.227-14.953l-15.76-62.107z"/><path fill="#fff" stroke="#000" stroke-width=".34976248" d="M514.293 149.084c1.223 2.32 1.916 4.96 1.916 7.752 0 9.2-7.504 16.703-16.704 16.703-8.107 0-14.896-5.83-16.395-13.51 2.886 5.1 8.363 8.553 14.62 8.553 9.243 0 16.785-7.538 16.785-16.785 0-.925-.077-1.83-.222-2.717z"/><path d="M498.985 125.975l-.056.275-1.166 5.995 4.6 4.02.21.183-.266.092-5.773 1.99-1.182 5.993-.056.275-.21-.186-4.61-4.005-5.778 1.973-.27.092.056-.28 1.164-5.99-4.597-4.02-.213-.187.266-.092 5.773-1.987 1.18-5.993.057-.275.21.184 4.61 4.007 5.778-1.973"/><g fill="#f7db17"><path d="M492.048 134.488l4.31 3.758 5.393-1.857zM492.083 134.298l9.707 1.9-4.295-3.757zM481.663 132.257l9.704 1.9-4.31-3.757zM491.33 134.348l-9.706-1.898 4.295 3.753zM491.873 133.984l6.5-7.455-5.4 1.84zM484.895 141.99l6.498-7.455-5.408 1.854zM491.54 134.662l-6.497 7.456 5.4-1.843zM498.52 126.656l-6.5 7.455 5.41-1.853zM491.497 134.008l-3.208-9.354-1.106 5.598zM494.942 144.055l-3.208-9.354-1.1 5.61zM491.917 134.636l3.208 9.357 1.105-5.6zM488.473 124.588l3.208 9.358 1.1-5.614z"/></g><path fill="#171796" d="M571.874 109.257l-.06.047-31.613-18.115-23.94 27.362 15.76 62.108c14.627-3.724 29.712-6.265 45.147-7.542l-5.296-63.86z"/><g fill="red"><path d="M528.11 165.245c15.465-3.936 31.422-6.626 47.745-7.974l-1.34-16.142c-17.226 1.425-34.068 4.263-50.39 8.416l3.982 15.7zM520.187 134.03c17.17-4.37 34.884-7.353 53.005-8.852l-1.315-15.847c-19.01 1.57-37.59 4.705-55.603 9.287l3.913 15.414z"/></g><g transform="scale(.003)"><path fill="#0093dd" d="M212105 36890l-23 13-9517-7794-9497 7778 1788 21560c2543-210 5113-322 7709-322 2608 0 5190 113 7744 325l1795-21560z"/><g id="a"><path d="M202545 46585c-18-2-44 10-69 45-186 250-359 469-545 720-195 61-242 180-167 348-261-26-291 193-302 432-250-379-522-482-814-307-11-230-187-338-439-392-180-10-319-65-436-145-60-42-110-64-170-106-126-88-226-5-172 74 267 434 535 868 802 1302-14 80 6 151 88 204 47 133 93 265 140 397-11 38-21 75-32 113-221-105-443-118-664-133-170-8-287-50-361-137-54-63-91-26-92 82-3 534 162 1014 599 1492-231 4-462 11-694 21-79 6-95 39-73 104 126 304 339 579 822 766-208 112-327 285-357 520-9 224-75 382-212 455-60 32-81 65-24 106 253 185 565 193 895 112-157 270-226 553-198 850 208 56 412 15 614-52-29 61-44 175-52 309-7 115-41 229-104 343-32 33-65 84 4 102 336 91 648 52 915-47 0 243 2 487 76 727 18 58 70 102 125 26 155-214 322-396 527-517 31 90 75 168 156 215 96 55 147 170 153 343 0 30-2 60 35 90 149 7 514-380 589-597 206 121 284 246 439 461 55 76 99 29 128-25 62-243 67-481 66-724 267 99 579 138 915 47 69-19 36-70 4-102-62-114-105-250-113-365-9-133-14-226-43-287 202 68 405 108 614 52 29-297-53-579-211-850 330 80 655 73 908-112 57-41 35-74-24-106-136-73-203-231-212-455-30-235-149-409-357-520 483-187 696-463 822-766 22-66 6-99-73-104-231-10-480-24-711-27 437-478 606-961 604-1495-1-108-38-146-92-82-74 87-179 137-348 146-222 15-435 24-656 128-11-38-21-75-32-113 46-132 106-260 153-393 82-53 102-123 88-204 267-434 513-868 781-1302 54-79-46-162-171-74-60 42-110 64-170 106-117 80-257 134-437 145-251 54-417 167-428 397-293-175-564-73-814 307-11-239-41-457-302-432 75-168 17-291-178-352-186-250-458-470-644-720-31-35-51-47-69-45z"/><g fill="#f7db17"><path d="M205075 47978c-51-26-124 17-162 95s-33 170 19 196c40 20 84-6 119-56l22-36c2-3 4-6 5-9 38-78 49-163-2-188zM200067 47978c52-26 124 17 162 95s39 165-13 191-103-24-141-102-60-158-9-184zM204606 48883c-32 0-59 27-59 59s26 59 59 59 59-26 59-59c0-32-26-59-59-59zM200574 48883c-32 0-59 26-59 59 0 32 26 59 59 59s59-26 59-59-26-59-59-59zM204868 48579c-754-91-1506-133-2260-133s-1509 41-2269 115c-26 8-21 90 14 86 756-73 1507-113 2256-113 743 0 1485 40 2228 129 39 4 54-80 32-84z"/><path d="M200319 48495c768-75 1530-117 2289-116 754 0 1507 42 2261 133l111-184c-32 10-62 9-90-5-76-38-92-161-36-274 56-114 164-175 240-138 39 19 62 62 68 114l446-739c-204 130-328 214-581 252-281 41-409 139-368 307 38 156-57 133-201 54-314-171-541 71-652 353-73 186-159 181-168-13-4-70 0-131-7-200-21-223-89-286-216-224-161 78-175 25-137-58 28-60 86-128 66-221-9-67-66-92-151-98-182-244-467-483-649-727-182 244-374 483-556 727-86 5-142 30-152 98-20 93 52 157 80 217 38 82 23 135-137 57-127-61-186-3-207 220-7 69-10 139-13 209-9 194-95 199-168 13-111-282-352-524-667-353-145 79-203 102-182-54 23-172-107-266-388-307-253-37-377-122-581-252l419 682c12-25 29-45 53-57 76-38 184 24 240 138 56 113 40 237-36 274-10 5-21 8-32 10l100 163zM204708 49406c-7 3-7 4-24 11-46 19-80 66-134 124-57 60-128 125-211 188-12 10-25 19-44-6s-7-35 6-44c80-62 149-124 204-182 30-32 56-63 77-92-95-11-190-21-284-30-79 24-157 55-222 95-59 35-107 77-137 125-8 14-16 27-44 11-27-16-19-30-11-44 35-58 91-107 158-147 33-20 69-38 106-54-107-9-214-18-321-25-22 13-42 29-61 47-20 19-39 42-56 67-9 13-18 26-44 8s-18-31-8-44c19-29 41-54 64-77l9-9c-80-5-161-10-241-14-2 2-5 5-8 7-21 18-40 38-55 59s-28 43-38 67c-6 15-12 29-41 18-29-12-23-26-17-41 12-29 27-55 45-81 8-11 18-22 27-33-115-5-230-9-344-12-4 5-9 8-14 11-25 15-47 32-66 51s-35 40-48 63c-8 14-16 28-43 12-28-16-20-29-12-43 16-28 35-54 59-77 7-7 14-13 21-19-122-2-244-4-365-4-120 0-240 1-360 3 8 7 15 13 22 20 23 23 42 49 59 77 8 14 16 27-12 43s-35 2-44-12c-13-23-29-44-48-63s-41-36-66-51c-6-3-12-7-15-12-115 2-230 6-345 11 11 11 20 23 29 35 19 25 33 52 45 81 6 15 12 29-17 41s-35-3-41-18c-9-24-22-46-38-67-15-21-34-41-55-59-4-3-7-6-10-10-81 4-162 8-243 13 4 4 9 8 13 12 24 23 45 48 64 77 9 13 18 26-8 44s-35 5-44-8c-18-26-36-48-56-67s-41-35-64-49c-1-1-3-2-5-3-110 7-220 14-330 23 43 18 85 38 122 61 67 40 124 89 158 147 8 14 16 27-11 44-27 16-35 3-44-11-29-48-78-90-137-125-72-44-159-77-246-102h-2c-90 7-179 15-268 24 22 33 51 68 86 106 55 58 124 120 204 182 13 9 25 19 6 44s-32 15-44 6c-83-64-155-128-211-188-37-38-99-111-135-140-196-90-354-127-575-147-153-14-318-9-458-79 36 85 75 164 126 229 53 68 120 121 209 147 8 2 21 16 22 25 28 157 84 286 169 386 52 60 114 110 188 149-75-81-132-166-172-251-67-142-90-286-77-420 1-16 3-32 34-29 32 3 30 19 29 35-11 123 9 256 72 387 56 118 159 237 291 346 24 19 0 63-29 55-154-44-290-123-383-231-89-104-149-237-180-397-94-32-165-90-222-164-47-60-85-131-118-205 28 428 182 801 456 1137 61 75 165 182 255 216 92 35 95 100-20 101-34 1-69 1-105 1 84 31 164 66 233 105 127 73 217 162 224 273 1 16 2 32-29 34-32 2-33-14-34-29-6-86-82-160-192-223-113-65-259-117-402-160-154 0-312-1-459 3 39 28 80 57 131 84 82 44 188 86 343 122 89 21 166 52 233 91 71 42 130 93 177 150 10 12 20 25-5 45s-34 8-45-5c-42-52-95-98-159-135-61-36-133-64-216-84-161-38-272-81-358-128-75-40-131-82-184-123 180 393 450 573 835 689 23 7 43 13 61 19 3 1 6 1 9 2 86 21 175 40 266 55 92 15 166 28 261 37 16 1 32 3 29 34-3 32-19 30-34 29-99-9-174-22-266-38-58-10-115-21-171-33-26 6-64 9-107 12-232 14-420 225-435 494 0 5 0 11-1 16 88-80 179-157 273-212 117-68 239-103 364-69 15 4 31 8 22 39-8 31-23 27-39 22-106-28-212 3-316 63-108 63-213 158-315 253-24 147-82 285-205 377 61 34 104 65 163 45 86-39 172-78 261-108 91-31 184-52 282-57 16-1 32-1 33 31s-14 32-31 33c-91 4-179 24-264 53-75 26-149 58-222 91 221 47 460-1 667-79 60-22 105-42 133-41 51-30 112-53 172-79 66-28 132-51 182-57 16-2 32-4 35 28 4 32-12 33-28 35-112 13-127 21-222 79 0 21-66 57-126 96-36 24-70 52-87 67-95 86-144 181-188 287-29 70-52 145-68 224 55-108 121-211 201-303 94-108 208-201 345-265 14-7 29-13 42 15 13 29-1 35-15 42-129 60-236 147-324 250-90 103-161 222-219 345-31 64-8 1-42 86 110-122 212-224 323-307 132-100 283-157 418-133 15 3 31 6 26 37s-21 28-37 26c-116-21-250 32-369 121-121 92-244 223-366 361 184 26 366-26 542-85 91-30 183-135 239-152 19-24 38-46 57-67 33-37 67-71 102-100 12-10 24-20 45 4s8 34-4 45c-33 28-65 60-96 94-32 35-62 73-92 113-6 8-13 17-24 16-60 70-151 162-172 240-57 210-25 370-122 576 71-38 128-81 175-134 53-60 94-135 128-230 37-104 95-195 167-270 75-77 165-136 261-172 15-5 30-11 41 19s-4 35-19 41c-87 32-169 86-238 157-66 68-119 151-153 247-37 102-81 183-141 250-44 50-95 91-156 127 52-3 78-10 121-7 79-6 211-66 279-119 66-51 116-120 154-206 6-15 13-29 42-16s23 27 16 42c-42 96-99 174-173 231-56 43-121 75-196 93 161-5 311-42 467-100 65-24 87-168 127-208 32-58 66-112 105-158 47-56 101-101 164-127 15-6 29-12 41 18 12 29-3 35-17 41-52 21-98 60-139 108-36 42-68 93-98 147 10 73-51 228-53 305-7 205-2 409 53 612 53-71 107-134 162-192 0-5 0-10 1-15 18-106 33-219 40-332 7-112 7-223-6-329-2-16-4-32 27-35 32-4 34 12 35 28 14 111 14 226 7 340-6 90-16 180-30 269 54-51 53-51 77-103 37-80 59-159 67-237 9-80 5-157-13-230-4-15-7-31 24-38s35 8 38 24c19 80 25 165 14 252-8 65-24 132-49 199 56-42 114-82 178-122-4-75-5-153-3-227 2-68 7-134 18-190 4-20 7-40 47-33s37 27 33 48c-9 50-14 111-16 177-2 78 0 162 4 243 5 82 49 185 125 230 103 62 158 163 186 274 16-145 17-280 3-400-17-143-55-267-114-368-8-14-16-27 12-44 27-16 35-2 43 12 63 110 104 241 122 393 17 146 13 310-13 488 102-82 381-258 352-594-7-27-16-52-28-75-7-14-14-28 14-42s35 0 42 14c17 33 30 69 39 110 5 24 8 49 11 76 13-7 45-43 51-39 24 16 58 38 80 54-21-60-35-120-42-178-10-87-5-172 14-252 4-15 7-31 38-24s27 23 24 38c-18 73-22 151-13 230 9 77 31 157 67 237 4 8 8 16 5 25 24 21 47 42 70 65-13-84-22-170-28-255-8-115-7-230 7-341 2-16 4-32 35-28s29 20 27 35c-13 106-13 217-6 329 7 113 22 225 40 332 1 2 1 5 1 7 54 59 95 120 152 196 55-203 73-407 66-612-2-76-69-227-65-302-30-55-63-107-100-151-41-49-87-87-139-108-15-6-29-12-18-41 12-29 27-24 41-18 62 26 117 71 164 127 38 45 72 98 103 154 57 7 78 179 143 212 154 57 298 94 453 100-75-19-140-50-195-93-74-57-131-135-173-231-6-15-13-29 16-42s35 2 42 16c38 86 88 156 154 206 85 66 289 124 400 127-61-37-113-78-157-128-59-67-104-148-141-250-34-95-87-179-153-247-68-71-150-124-238-157-15-6-29-11-19-41 11-29 26-24 41-19 96 36 186 94 261 172 72 74 130 166 167 270 34 95 75 169 128 230 47 54 105 98 177 135-98-207-66-367-122-577-35-129-232-277-193-320 45-51 133 88 248 127 175 59 357 111 540 85-122-138-244-269-366-361-119-90-237-140-352-120-16 3-31 6-37-26-5-31 10-34 26-37 135-24 269 32 401 132 111 84 201 175 311 298-18-47 0-14-30-77-59-123-130-241-220-345-89-102-196-189-324-250-14-7-28-13-15-42 13-28 28-22 42-15 137 65 251 157 345 265 81 93 147 198 203 307-15-81-39-157-68-227-44-106-93-201-188-287-62-56-209-140-208-179-29-15-33-11-63-24-61-26-121-46-164-52-16-2-32-4-28-35 4-32 19-30 35-28 50 6 115 28 182 56 33 14 66 43 98 60 53 4 139 47 208 74 206 78 446 126 666 79-73-33-147-65-223-91-85-29-172-49-264-53-16-1-32-1-31-33s17-31 33-31c98 4 191 26 282 57 89 30 175 69 261 108 59 27 101-7 163-45-123-92-181-230-205-376l-2-2c-102-95-207-190-315-253-104-60-210-91-316-63-15 4-31 8-39-22-8-31 7-35 22-39 125-33 247 1 364 69 94 55 186 132 274 213 0-6-1-11-1-17-15-270-203-480-435-494-78-5-189 21-186-32 4-59 97-44 234-86 385-116 655-296 836-690-54 41-110 83-186 124-86 47-198 91-358 128-82 19-154 48-216 84-64 38-117 84-159 135-10 12-20 25-45 5s-14-32-5-45c47-57 106-108 177-150 67-39 145-70 233-91 155-36 261-78 343-122 51-27 92-55 131-84-148-4-305-3-459-3-143 44-289 96-402 160-110 63-186 136-192 223-1 16-2 32-34 29-32-2-31-18-29-34 8-111 97-200 224-273 69-39 149-74 233-105-35 0-70 0-104-1-116-2-112-66-20-101 90-34 190-141 251-216 271-334 412-714 456-1130-33 72-69 140-115 198-57 73-128 131-222 164-31 160-91 293-180 397-92 108-216 185-369 230-29 8-52-35-29-55 132-109 221-226 278-344 62-131 83-264 72-387-1-16-3-32 29-35 31-3 33 13 34 29 12 134-10 278-78 420-40 85-97 170-172 251 73-39 136-89 187-149 85-100 141-229 170-386 1-8 14-22 22-25 89-27 155-79 209-147 51-65 90-143 126-228-140 69-304 64-457 78-213 19-369 68-554 152z"/><path d="M204649 49231c-680-88-1359-113-2041-114-684 0-1369 40-2058 112-20 6-15 33-14 46 2 28 37 35 121 27 643-60 1285-93 1932-93 674 0 1351 21 2038 102 33 9 77-85 22-81z"/><path fill-rule="evenodd" d="M200570 49160c683-71 1362-110 2038-110 675 0 1349 40 2025 127l31-127c-17 9-37 15-58 15-67 0-123-55-123-123s55-123 123-123c51 0 94 31 113 75l60-170c-724-84-1446-122-2171-122-729 0-1459 38-2193 107l58 164c22-32 59-54 101-54 68 0 123 55 123 123s-55 123-123 123c-12 0-25-2-36-6l33 94-2 7zm3067-416c-68 0-123 55-123 123s55 123 123 123 123-55 123-123-55-123-123-123zm0 64c-33 0-59 27-59 59s26 59 59 59c32 0 59-27 59-59s-26-59-59-59zm-1082-91c-67 0-123 55-123 123s55 123 123 123 123-55 123-123-55-123-123-123zm0 64c-32 0-59 26-59 59s26 59 59 59 59-26 59-59c0-32-26-59-59-59zm-1064-40c-68 0-123 55-123 123s55 123 123 123c67 0 123-55 123-123s-55-123-123-123zm0 64c-33 0-59 26-59 59s26 59 59 59c32 0 59-26 59-59 0-32-26-59-59-59z"/></g><path d="M202601 47974c-14-68-49-129-100-175-51-47-116-78-187-88-33-4-39-58-7-68 60-20 114-67 157-133 45-69 79-157 95-256 5-34 64-35 69-1 15 84 51 153 97 208 55 66 125 112 193 138 31 12 25 63-8 68-59 9-105 42-141 87-50 62-81 145-100 221-8 33-62 31-69-2zm33-118c20-52 47-103 81-146 28-34 60-64 99-84-51-30-100-70-143-120-28-34-53-73-73-116-19 59-45 112-75 158-31 47-67 86-108 116 50 19 95 47 134 82 34 31 63 68 85 110zM203433 52971l-515 206c-17 7-35 14-48-21-14-34 4-41 21-48l515-206c17-7 35-14 48 21 14 34-4 41-21 48zm59-326l-604 328c-16 9-33 18-51-15s-1-42 15-51l604-328c16-9 33-18 51 15s1 42-15 51zm-1826-65l604 328c16 9 33 18 15 51s-34 24-51 15l-604-328c-16-9-33-18-15-51s34-24 51-15zm51 322l515 206c18 7 35 14 21 48-14 35-31 28-49 21l-515-206c-17-7-34-14-21-48 14-35 31-28 48-21zm224 434c137 33 261 48 358 31 88-16 155-60 191-146v-493c-107-1-212-15-303-41-109-31-170-98-201-178-41-107-27-235-4-329 5-18 9-36 45-27s32 27 27 45c-20 82-33 194 1 284 23 60 69 110 152 133 91 25 198 38 307 38 107 0 214-13 304-40 82-24 148-69 192-123s65-117 57-176c-5-36-24-62-49-80-34-24-82-35-128-37-47-2-94 7-142 16-25 5-50 9-77 13-19 2-37 5-42-32s14-40 32-42c23-3 48-8 73-12 52-10 105-20 159-18 60 2 121 18 168 51 42 29 72 72 80 131 11 80-16 163-73 233-53 65-131 119-229 147-83 24-178 38-274 42v483c3 5 3 11 2 16 37 82 102 125 188 141 97 18 221 2 358-31 18-5 36-9 45 27 8 37-9 41-28 45-146 35-279 51-388 32-92-17-165-58-215-132-49 74-124 115-215 132-109 20-242 4-388-32-18-4-37-8-28-45 8-36 27-32 45-27zm356 210l402-9c19 0 38-1 38 37 1 38-18 38-37 38l-402 9c-19 0-37 1-38-37s18-38 37-38zM202890 50464c151-125 293-227 423-297 133-72 254-111 359-106 19 1 37 1 36 39-1 37-20 37-39 36-92-4-200 32-322 97-125 67-263 166-410 289-14 12-29 24-53-5s-9-41 5-53zm-605 56c-141-130-298-240-445-314-139-71-268-108-363-100-19 2-37 4-40-34-4-37 15-39 34-40 110-10 252 31 404 107 152 77 315 191 461 325 14 13 28 25 2 53-25 27-39 15-53 2zm-213 1004c37-83 83-155 136-219 53-63 112-119 174-170 14-12 29-24 52 5 24 29 9 41-5 53-59 48-114 101-164 160-49 59-91 125-125 201-8 17-15 34-49 19s-27-32-19-49zm371-1734c49 66 88 139 114 223 26 82 40 175 39 279 5 80 6 165-7 249-13 86-42 170-97 246-43 60-101 97-165 113-53 13-109 10-164-7 29 100 51 208 6 308-8 18-33 27-51 18-43-22-86-43-128-62s-84-36-127-51l-1-1c-95-37-173-73-236-112-65-39-115-80-150-124l1 2c-44-49-72-106-88-170-14-55-20-114-22-174-72-39-138-78-194-116-64-43-118-87-161-131-13-14-26-27 1-53s40-12 53 1c39 40 89 80 150 121 60 40 128 81 204 121 124 13 247 51 370 109 106 50 211 115 317 192 13 7 19 16 27 20 8 6 16 13 25 19 51 22 104 28 152 16 47-11 90-39 122-84 48-66 72-139 84-214 12-77 11-157 6-234v-2c1-97-12-183-35-258-24-76-58-142-102-201-11-15-22-30 7-52s41-7 52 7zm-375 1047c-104-77-207-141-311-190-105-49-210-83-314-98 2 48 8 93 18 135 13 52 35 99 71 138l1 1c30 37 73 72 130 107 60 36 134 71 225 106l-1-1c45 16 89 34 133 54 31 14 61 28 93 44 19-83-10-179-37-267-2-8-5-15-9-29zm776-1003c-44 59-79 125-102 201-24 76-36 161-35 258v2c-5 77-6 158 6 234 12 75 37 148 84 214 32 45 75 72 122 84 48 12 101 6 152-16 8-6 17-13 25-19 6-4 13-12 27-20 105-77 211-143 317-192 123-58 246-95 370-109 75-40 144-80 204-121s111-81 149-121c13-13 26-27 53-1s14 39 0 53c-43 44-97 88-161 131-57 38-122 77-194 116-2 61-8 119-22 174-16 63-44 121-88 170l1-2c-35 44-85 85-150 124-63 38-141 75-237 112l-1 1c-43 15-85 32-127 51-43 19-85 40-128 62-18 9-43 0-51-18-45-100-23-208 6-308-55 18-111 20-164 7-64-15-122-53-165-113-55-76-84-160-97-246-13-85-12-169-7-249-1-104 13-196 39-279 26-84 65-158 114-223 11-15 22-30 52-7 30 22 19 37 7 52zm940 715c-105 15-209 49-314 98-104 49-207 113-311 190-4 13-6 21-8 29-27 88-56 184-37 267 31-15 62-30 93-44 44-20 87-38 133-54l-1 1c91-35 165-70 225-106 58-34 100-70 131-107l1-1c35-39 57-86 71-138 11-42 16-87 19-135z"/><path fill-rule="evenodd" d="M203459 50602c-119 0-216 97-216 216s97 217 216 217 216-97 216-217c0-119-97-216-216-216zm0 69c-81 0-147 66-147 147s66 147 147 147 147-66 147-147-66-147-147-147zm0 60c-48 0-87 39-87 87s39 87 87 87 87-39 87-87-39-87-87-87zm-1697-124c119 0 217 97 217 216s-97 217-217 217c-119 0-216-97-216-217 0-119 97-216 216-216zm0 69c81 0 147 66 147 147s-66 147-147 147-147-66-147-147 66-147 147-147zm0 60c48 0 87 39 87 87s-39 87-87 87-87-39-87-87 39-87 87-87z"/></g><use xlink:href="#a" transform="rotate(-2.173 -55532.79 156275.842)"/><use xlink:href="#a" transform="rotate(2.18 459865.852 156275.76)"/></g><g><path fill="#171796" d="M692.64 120.105l-.075.027-24.3-27.774-31.95 18.312-5.388 64.68c15.636 1.296 30.912 3.88 45.723 7.653l15.987-62.895z"/><path d="M642.618 124.09c1.11-.27 2.205-.328 3.267.323.465.192.816.438 1.032.753.492-.38.993-.738 1.512-1.044.728-.54 1.472-1.017 2.273-1.284 1.146-.582 2.29-.927 3.435-1.032 1.212-.207 2.43-.22 3.642-.147 1.01.06 1.99.338 2.922.875.846.42 1.69.843 2.535 1.263.894.498 1.788.948 2.682 1.326 1.133.447 2.408.597 3.767.648.666.024 1.32.024 1.962-.147.518-.138.842.192.27.543-4.2 2.577-7.492.285-10.3-.74 1.03.695 1.935 1.415 2.7 2.15 1.068 1.03 2.262 2.073 4.374 3.036 1.28.582 2.676 1.04 4.467 1.056.607.006 1.26-.018 1.97-.135.356-.057.51-.024.515.162.006.126-.027.378-.24.52-1.083.725-2.103.917-3.24.99-2.166.137-4.482-.574-6.6-1.71-1.695-.913-2.838-2.023-4.188-3.02-1.347-.992-2.51-1.544-3.762-1.808-1.233-.265-2.568-.235-3.693.113.336.066.62.225.795.426.58.34 1.323.49 2.4.614.56.066.387.453-.477.918-.52.67-1.194 1.03-2.09.942-1.237.82-1.678.324-2.092-.213-.05.34-.15.673-.297.994.055.174.06.366-.017.54.198.306.294.603.228.93.034.174.09.342.277.498.258.234.423.504.456.834.003.22.123.4.297.56.252.208.507.39.76.7.746.27 1.09.843 1.214 1.584.564.183.798.59.91 1.077.32.135.614.297.782.582 1.152.002 2.277.002 3.33.113.987.105 1.79.72 2.51 1.518.487.076.98.1 1.483-.014.518-.228 1.067-.402 1.664-.453.987-.084 1.977-.135 2.92.09.638.153 1.136.492 1.544.954.588.67 1.494.58 2.268.25 1.05-.448 1.923-.433 2.997.038.46-.177.918-.26 1.377-.213.393-.426.81-.53 1.24-.543.698-.025 1.205.083 1.073.98-.036.243-.18.477-.363.56-.32.694-.933.898-1.71.832-.084.477-.28.83-.59 1.06.356 1.1.014 1.54-.802 1.526-.17.318-.426.516-.86.453-.32.388-.694.586-1.105.652.048.288.17.423.375.732.555.84-.28 1.18-1.04 1.19.194.556.218 1.11.15 1.666.776.47.88.966.164 1.455.525.918.32 1.593-.663 2.085-.016.513-.067 1.03-.41 1.317-.233.198-.57.234-.347.606.4.66.312 1.494-.28 1.518-.125-.01-.24.007-.248.208 0 .07-.06.138-.177.207-.708.38-1.37.816-1.98 1.317-.09.06-.18.102-.27.02-.444.967-1.272 1.948-2.187 2.935-.14.726-.55 1.218-1.232 1.473-.048.225-.192.357-.405.414.38.423.525.83.156 1.233-.454.495-1.05.978-1.648 1.13-1.27.325-2.064.265-2.574-.22-.45-.43-.273-.754.012-.89-.783.064-.942-.35-.92-.902.044-.276.137-.24.413-.23.426.01.81-.22 1.212-.352.156-.264.36-.492.612-.684.14-.89.702-1.38 1.464-1.672.616-.234 1.204-.828 1.774-1.596.35-.606.705-1.21 1.056-1.815-.246-.32-.312-.642-.32-.963-.325-.18-.55-.402-.706-.654-.552-.04-.78-.288-.86-.633-.127.003-.265-.01-.415-.054-.27.174-.544.327-.883.312-.447.46-.91.834-1.38 1.152-.165.456-.492.64-.89.696-1.135.135-1.813 1.548-2.437 2.124-.252.186-.408.516-.52.912-.053.743-.182 1.325-.59 1.337-.366-.015-.423-.054-.435-.093-.16-.015-.318-.015-.477.02.306.337.354.76.072 1.132-.282.366-.687.48-1.077.507-.807.054-1.46-.018-2.067-.264-.58-.238-.648-.583-.63-.92-.417-.197-.5-.395-.456-.59.057-.252.288-.38.58-.3.25-.12.503-.2.755-.25.732-.788 1.485-1.466 2.313-1.78.243-.295.522-.56.86-.778.097-.708.562-1.266 1.132-1.785.05-.255.135-.513.28-.768-.034-.154.008-.226.01-.37-.23-.43-.368-.945-.197-1.374-.07-.207-.09-.477-.063-.684-1.362.81-1.782.534-1.938-.123-.498.416-.963.61-1.296.01-.483.145-.97.307-1.452.115-.315.123-.633.234-.996.258-.147.29-.345.582-.612.873-.015.612-.228 1.224-.62 1.836-.23.654-.51 1.305-.883 1.96.006.21-.024.42-.135.632.105.753-.147 1.12-.56 1.305-.112.302-.277.608-.53.91-.01.1-.02.202-.032.3.165.445.192.886-.258 1.33-.363.228-.75.468-1.134.657-.453.222-.873.117-1.254-.02-.67-.24-.618-.475-.53-.703-.21.084-.45.093-.66-.01-.163-.1-.265-.206-.427-.31-.144-.262-.195-.5.156-.685.44-.196.74-.34 1.088-.697.12-.27.273-.474.49-.528.21-.492.467-.825.818-.915.258-.61.534-1.28.86-1.863.115-.177.2-.36.145-.56-.005-.166.007-.322.145-.415.078-.066.216-.126.042-.22-.16-.542-.06-1.06.207-1.46.354-.534.75-1.824.375-2.457-.07-.354-.14-.76-.094-1.092-.13-.006-.225.012-.354-.078-.288-.177-.528-.01-.747.312-.16.402-.318.756-.477.756-.15 1.038-.66 1.845-1.19 2.052-.124.477-.202.954-.136 1.43.054.52 0 .874-.24.934-.264.065-.51.218-.663.64-.043.118-.09.26-.094.427.366.378.255.85-.096 1.197-.792.78-1.776.666-2.817.36-.753-.297-.936-.612-.86-.933-1.07-.09-.856-.908.03-1.154.95-.267 1.72-.876 2.354-1.746.057-1.032.294-1.734.85-1.845.053-.633.25-1.203.518-1.743.28-.49.45-1.026.35-1.68-.59-.37-.614-.75-.07-1.14.18-.105.158-.213-.064-.32-.36-.037-.314-.382-.29-.706-.015-.168-.102-.255-.26-.258-.8-.117-.6-.444-.26-.798.145-.162.24-.402.09-.498-.122-.078-.206-.35-.233-.59-.49-.37-.28-.748 0-1.11-.276-.235-.405-.577-.444-.976-.91-.04-1.248-.5-.756-1.173.207-.285.474-.558.798-.82.21-.338.41-.677.312-1.016-.26-.663.573-1.164 1.287-1.68-.1-.174-.15-.345-.156-.52-.402-.386-.3-.746.144-1.088-.1-.178-.147-.355-.165-.53-1 .2-.993-.398-.528-1.358-.58-.333-.418-.924.632-1.824.015-.207.054-.366.114-.477-.498.013-.91.16-1.266.385-.4.26-.795.228-1.194.063-.123-.198-.312-.366-.528-.52-.273-.24-.336-.51-.28-.797-1.175.067-1.4-.803-.695-1.316.393-.312.68-.64.79-.996.317-.807.992-1.356 1.65-1.92 0-.23.05-.462.122-.696-.29-.195-.597-.336-.933-.363-.12-.3-.345-.625-.726-.808-.22-.132-.29-.255-.156-.552-.624-.558-.468-.897-.31-1.218z"/><g fill="#f7db17"><path d="M663.954 154.383c-.07.006-.14.012-.222.01-.303.308-.666.617-1.002.88-.29-.335-.723.034-.3.238-.072.052-.144.103-.216.15-.138.367-.264.523-.672.586-.063.01-.126.02-.19.036-.002-.156.004-.306.02-.453.017-.184.047-.36.086-.535.006-.033.015-.063-.048-.078s-.072.018-.078.05c-.04.18-.072.364-.093.55-.02.165-.025.333-.02.5-1.028.33-1.622 1.402-2.324 2.164-.303.262-.456.622-.567 1-.06.2-.082 1.122-.29 1.137-.098.003-.203 0-.314 0-.11-.168-.26-.17-.45-.012-.43-.01-.885-.012-1.266.048-.26.282.456.177.837.41.174.106.25.313.18.6-.35.838-2.31.568-2.96.223-.304-.16-.316-.342-.304-.603.135 0 .273-.01.41-.03.235-.033.466-.102.694-.23.063-.037.13-.073.057-.202s-.138-.092-.2-.056c-.193.11-.39.168-.59.195-.203.03-.413.03-.614.02-.018 0-.036-.003-.05 0-.115-.066-.202-.144-.154-.213.048-.066.237.006.273.018.302-.14.566-.23.893-.294.69-.737 1.392-1.43 2.343-1.81.285-.343.594-.613.966-.86.132-.82.53-1.26 1.128-1.805.072-.34.156-.582.324-.88-.036-.188-.01-.308 0-.5-.228-.432-.363-.807-.183-1.29-.11-.35-.095-.588-.053-.912.012-.084.01-.144-.003-.183.186-.147.375-.285.56-.41.172-.115.343-.22.514-.316-.027.324-.015.663.048 1.017l-.003.004c-.102.11-.19.22-.25.333-.062.117-.098.234-.092.35 0 .034 0 .067.067.064.066 0 .066-.032.063-.065-.003-.093.024-.19.078-.285.054-.1.135-.2.23-.303.01-.01.02-.02.025-.033.315-.01.624-.177.933-.426.28-.228.558-.522.834-.83-.003.45-.006.9-.012 1.35-.27.24-.5.533-.68.89-.016.03-.03.057.026.087.06.03.075 0 .087-.03.166-.327.376-.597.62-.822h.01c.067 0 .067-.033.067-.066v-.003c.042-.036.087-.072.132-.105.305-.238.653-.418 1.028-.562-.057.396-.084.783-.015 1.155.075.408.267.792.657 1.128.006.007.015.01.024.013z"/><path d="M644.358 142.97c.05-.092.18-.212.222-.203l.024-.006c.14-.263.288-.51.44-.73.2-.29.41-.544.63-.76.025-.024.05-.045.094 0 .045.048.02.07 0 .093-.216.21-.42.456-.615.738-.15.22-.294.46-.432.72.046.06.067.154.043.22.045.41.1.642.282.88.02-.02.042-.034.063-.043.075-.183.177-.345.303-.49.157-.173.346-.32.574-.443.156-.13.282-.26.384-.4.102-.134.183-.272.24-.413.012-.03.024-.06.087-.035.06.024.048.057.036.087-.062.153-.146.3-.254.444-.11.144-.246.285-.414.423l-.012.005c-.213.117-.396.255-.54.417-.11.123-.198.26-.267.414.096.07.138.258.048.378-.272.393-.596.624-.086.96-.018.264.066.465.24.648.117.123.105.552-.183.86-.27.274-.062.202.217.235.02.006.042.015.063.02v-.002c.102-.198.222-.375.354-.54.13-.162.27-.315.414-.46.2-.197.36-.413.474-.632.11-.213.177-.432.19-.642.002-.032.002-.065.07-.06.067.004.064.037.06.07-.014.228-.083.462-.203.696-.12.23-.29.456-.5.663-.14.14-.275.284-.4.446-.127.16-.24.33-.34.52.336.203.228.57.28.905.065.01.122.025.173.05.003-.007.006-.013.012-.02.066-.1.132-.206.198-.31l.312-.496c.018-.027.036-.057.09-.02.057.035.04.062.02.09l-.31.494-.2.312c-.002.006-.005.012-.008.015.207.168.222.474-.033.708-.5.378-.36.495.108.795.06.44.063.795-.033 1.17.002.01.002.02.005.033.012.124.02.25.03.373l.03.375c.003.033.006.066-.06.072s-.07-.027-.072-.06l-.03-.375c-.003-.033-.006-.063-.006-.096-.024.056-.048.116-.078.18-.337.734-.685 1.334-.76 2.16-.807.19-.687.986-.732 1.688-.636.858-1.374 1.545-2.397 1.887-.19.063-.656.177-.7.42-.007.087.31.276.515.165.564-.54.846-.24.198.312-.05.105-.01.222.102.32.585.526 2.034.697 2.694.28.488-.306.743-.642.317-1.107.027-.66.285-1.305.98-1.49.082-.15.058-.43.022-.583-.067-.573.023-1.083.164-1.635.024-.07.075-.126.19-.156.263-.053.77-.818.93-1.553.038-.16.062-.324.092-.49.042-.254.14-.3.27-.15.123-.164.12-.263.195-.452.27-.393.66-.708 1.117-.486-.117-.322-.198-.685-.222-1.054-.033-.438.01-.89.144-1.305.017-.062.038-.122.137-.107.132-.312.26-.62.393-.933l.396-.94c.012-.03.024-.06.084-.035s.048.057.036.087c-.132.312-.264.624-.396.94-.132.31-.26.62-.393.93.057.04.04.095.02.15-.12.374-.158.788-.128 1.193.03.438.137.86.3 1.206.014.034.032.067.026.1.216.126.213.156.204.444-.006.225.024.447.078.717.43.793-.018 2.12-.435 2.782-.2.32-.255.687-.17 1.056.257.25.09.507-.14.68-.017.06 0 .13.004.19.024.258-.07.474-.204.687-.35.633-.62 1.308-.903 1.97-.51.142-.615.44-.82.916-.296.085-.326.172-.452.445-.342.345-.67.552-1.107.75-.362.165-.01.324.244.498.23.17.534-.2.723-.483.207-.312.417-.22.282.024-.15.267-.26.65-.274.852-.078.216.744.38.885.387.502.024 1.132-.465 1.525-.714.327-.334.276-.625.132-1.03l.003-.027c-.21.006-.408-.018-.603-.06-.237-.054-.47-.135-.708-.234-.03-.013-.06-.025-.037-.088.024-.06.057-.048.087-.036.234.096.46.177.687.225.19.043.384.064.59.058l.034-.315c.262-.32.442-.636.583-1.02.555-.26.558-.53.483-1.125.123-.24.15-.38.14-.654.367-.65.667-1.317.916-2.022.438-.582.648-1.13.597-1.824.038-.27.137-.423.335-.414.144-.2.273-.408.39-.64.024.004.048.007.072.007-.006-.014-.003-.032 0-.047.036-.16.078-.3.132-.417.05-.117.11-.21.18-.285.08-.197.11-.39.09-.575-.022-.192-.088-.378-.196-.56-.066-.076-.126-.154-.147-.235-.027-.093-.01-.186.084-.28.025-.023.05-.044.094 0 .045.05.024.073 0 .094-.054.05-.063.1-.048.147.018.06.066.124.123.19l.005.012c.117.2.195.408.216.62s-.008.433-.104.652c0 .003-.012.018-.012.02-.063.067-.117.15-.165.256-.05.11-.09.24-.124.39-.003.01-.003.018-.006.024.31 0 .582-.096.88-.243l.017-.017c.15-.12.31-.303.44-.543.112-.2.202-.447.253-.73.006-.032.012-.062.078-.053.063.012.057.045.054.075-.054.3-.15.555-.267.77-.102.19-.222.343-.342.463.48.144.897.003 1.353-.138-.066-.642-.057-1.13.012-1.515.075-.417.216-.71.393-.933.022-.028.04-.052.094-.013.05.042.033.066.012.093-.165.207-.297.483-.366.876-.066.366-.078.834-.015 1.452.006-.003.015-.003.024-.006.19.327.293.564.686.31.144-.097.294-.193.414-.32.045-.047.03-.074.066-.113.375-.4.753-.772 1.128-1.102.378-.333.756-.618 1.134-.85.027-.017.057-.035.09.022s.006.072-.02.09c-.373.225-.745.51-1.117.834-.32.282-.64.594-.962.93.018.057.027.156.036.306.033.444.114.71.747.468.355-.135.39-.15.718-.345.16-.096.294-.177.387-.198.207-.162.41-.315.618-.453.2-.135.405-.258.606-.366.032-.24.086-.474.164-.7.195-.575.522-1.11.933-1.613l.02-.018c.343-.186.622-.405.844-.654.226-.248.394-.527.52-.83.012-.03.024-.06.087-.036.06.024.048.057.036.087-.132.316-.31.607-.54.868-.23.258-.516.486-.87.678-.4.492-.717 1.008-.903 1.563-.066.194-.117.392-.147.6.012.002.024.014.036.038.03.06 0 .075-.028.087-.01.003-.018.01-.027.015-.04.324-.03.666.03 1.02.28-.01.56-.165.846-.396.304-.246.613-.585.92-.93.002-.01.002-.015.01-.02.076-.247.172-.463.298-.637.135-.186.3-.327.504-.414.03-.012.06-.027.087.036.023.06-.004.07-.037.086-.18.078-.33.204-.45.37-.12.167-.213.377-.285.617-.003.468-.01.936-.012 1.404.015-.012.033-.024.048-.04.345-.266.74-.464 1.17-.62.045-.018.096.024.087.072-.065.42-.1.836-.032 1.22.066.36.228.696.552.996.123-.222.267-.42.423-.6.054-.063.11-.123.168-.18.004-.006.007-.012.016-.015.123-.122.25-.236.38-.344.097-.087.193-.177.286-.267l.288-.268c.024-.024.048-.045.093.003s.02.072-.003.093l-.288.267c-.096.087-.192.177-.288.267l-.003.003c-.122.1-.242.204-.353.318.003.123.01.243.015.366.003.065.003.13.006.197.276.075.44.078.723.072.094.554.142.64.625.653-.006-.198-.003-.39.018-.58.024-.215.07-.425.144-.623.012-.03.024-.06.084-.04.064.025.052.055.04.085-.072.186-.114.384-.138.59-.02.184-.024.373-.018.568h.04c.19.396.42.59.827.768.115-.18.2-.36.253-.54.06-.2.084-.4.072-.602-.003-.033-.003-.066.06-.07.066-.002.07.028.072.06.015.217-.012.433-.078.65s-.172.428-.316.64c-.012.02-.024.037-.045.037.017.23.056.402.137.576.06-.128.123-.257.195-.377.1-.174.213-.33.35-.468.025-.024.046-.045.094 0 .045.045.024.07 0 .093-.13.126-.234.28-.33.44-.084.145-.16.3-.23.46.044.078.1.156.167.246-.768 1.317-1.59 3.14-3.105 3.74-.783.31-1.125.71-1.28 1.546-.295.228-.505.46-.697.777-.51.17-.965.426-1.517.402 0 .356.117.512.474.515.68-.342.834-.405.894-.357.085.072-.095.56-.66.957-.086.054-.083.087-.032.177.477.747 1.728.48 2.4.303.48-.126 1.347-.696 1.587-1.176.093-.223-.117-.508-.327-.742-.96.147-.777-.774.048-.39.28-.084.315-.087.393-.396.734-.285 1.04-.594 1.208-1.383.74-.8 1.485-1.62 2.02-2.578.146-.18.233-.498.19-.663.133-.157.205-.355.253-.535.05-.192.08-.38.073-.573 0-.033-.003-.066.063-.07s.066.03.07.064c.005.204-.025.405-.076.61-.042.155-.096.31-.153.467.048.12.072.2.177.17.642-.515 1.29-.878 1.983-1.307.048-.294.237-.438.528-.45.117.003.16-.033.2-.14.163-.406-.04-.685-.236-1.02-.18-.502.14-.622.46-.862.337-.25.313-.91.325-1.29h.003c-.012-.063-.024-.13-.04-.195-.026-.133-.065-.265-.113-.406-.012-.03-.02-.063.04-.084.062-.02.07.01.083.042.05.147.09.285.12.42.012.054.02.108.033.16.322-.166.658-.358.784-.715.11-.396-.105-.77-.297-1.107-.08.04-.165.078-.252.114-.156.07-.324.14-.5.21-.03.012-.06.024-.085-.036s.006-.075.036-.084c.17-.07.336-.138.495-.21.133-.057.26-.117.376-.174.144-.096.29-.198.396-.333.23-.333-.39-.633-.606-.768 0-.01.003-.02.003-.028-.313-.285-.622-.573-.934-.858-.024-.02-.048-.045-.003-.093s.07-.026.093-.002l.864.792c.048-.49.054-.957-.1-1.443-.047-.156-.104-.31-.158-.462-.012 0-.024-.006-.036-.015-.264-.135-.45-.3-.57-.49-.123-.188-.183-.398-.2-.626-.004-.033-.004-.066.062-.072.066-.003.066.03.072.063.015.204.066.396.177.564.11.17.28.32.522.443.26.135.81.066 1.127-.087.44-.25-.135-.753-.27-1.05-.096-.213-.12-.432-.162-.66.04-.006.078-.015.12-.02-.057-.073-.117-.136-.177-.187-.075-.067-.156-.115-.237-.145-.03-.012-.062-.02-.038-.084.02-.062.054-.05.084-.038.1.036.192.093.28.168.083.072.16.16.236.26.042-.005.087-.014.13-.023.434-.087.674-.33.938-.642-.144-.174-.303-.336-.474-.49-.177-.158-.357-.308-.54-.455-.024-.02-.05-.042-.01-.093s.067-.03.094-.01c.186.15.372.304.546.463.177.162.345.333.498.52.015.017.03.035.018.06.4.035.465-.046.666-.403-.05-.183-.135-.354-.24-.52-.11-.17-.246-.332-.4-.488-.023-.025-.044-.05 0-.094.05-.045.073-.02.094 0 .156.162.3.333.414.51.114.174.2.354.255.55.187.002.388.01.547-.085.348-.206.054-.95-.036-1.238.007-.003.01-.006.016-.012-.045-.03-.093-.06-.138-.087-.08-.05-.165-.102-.246-.156-.027-.018-.054-.036-.02-.09.035-.057.062-.04.09-.02l.245.155c.06.04.12.075.18.114l.08-.063c.256-.204.346-.474.424-.756.12-.432.145-.24.65-.315.542-.084.836-.144 1.157-.78.168-.084.255-.156.285-.363.054-.376.024-.568-.405-.6-.6-.05-.966.07-1.37.467l.16.246c.02.027.037.054-.017.093-.054.036-.072.01-.09-.018l-.153-.234c-.546-.054-.984.033-1.494.225-.05-.022-.102-.043-.153-.064.108.144.192.282.255.417.087.192.132.375.138.55 0 .032.003.065-.063.068s-.066-.03-.07-.062c-.005-.16-.044-.324-.125-.5s-.204-.364-.378-.562l-.003-.003c-.426-.153-.816-.23-1.215-.222.065.067.134.133.2.196.087.084.174.168.258.252.024.024.048.045 0 .093-.045.05-.07.025-.093 0-.087-.083-.174-.167-.258-.25l-.258-.253c-.01-.01-.02-.018-.025-.027-.34.027-.69.117-1.077.28-.243.1-.492.18-.735.224.18.174.333.37.453.59.126.23.222.48.285.76.007.033.016.063-.047.078s-.072-.018-.078-.048c-.06-.267-.153-.51-.273-.726s-.27-.408-.447-.576c-.018-.015-.033-.033-.027-.057-.225.033-.45.036-.666.003l.267.44c.014.03.026.06-.03.088-.06.027-.076 0-.088-.03l-.246-.516c-.207-.042-.41-.12-.6-.237.063.237.11.492.147.762.048.357.078.738.087 1.14 0 .033.003.066-.063.066s-.066-.032-.066-.062c-.008-.4-.035-.777-.083-1.125-.045-.32-.105-.624-.19-.9-.092-.072-.182-.156-.27-.252-.215-.236-.455-.42-.72-.56.016.11.016.22 0 .327-.026.198-.107.4-.263.594-.02.028-.04.052-.093.013-.05-.042-.032-.066-.01-.093.14-.177.212-.354.236-.53.018-.127.012-.256-.015-.382-.41-.19-.863-.282-1.33-.32.125.164.245.33.353.5.126.198.24.4.342.603.186.154.285.34.342.544.054.2.066.417.075.636 0 .033.003.066-.063.07s-.067-.03-.07-.064c-.006-.21-.018-.417-.07-.606-.05-.183-.14-.35-.305-.483-.003-.003-.018-.018-.018-.02-.102-.205-.216-.406-.34-.604-.125-.198-.263-.39-.416-.576l-.005-.006c-.16-.008-.318-.01-.477-.008.027.036.054.072.078.11.057.094.096.196.108.313.003.033.006.066-.06.072s-.07-.027-.072-.06c-.012-.096-.042-.18-.09-.258-.04-.064-.084-.12-.14-.175-.33.01-.658.036-.973.063.33.423.593.86.797 1.31.228.502.38 1.018.468 1.552.006.033.012.066-.054.075-.062.012-.068-.02-.074-.054-.087-.52-.237-1.028-.46-1.517-.212-.465-.488-.918-.836-1.353l-.048.003c-.255.024-.513.078-.76.147.112.07.208.138.292.207.114.093.204.186.282.28.02.026.042.05-.01.092s-.07.017-.092-.01c-.072-.087-.16-.177-.264-.264-.105-.084-.228-.17-.378-.258-.132.042-.26.09-.39.14-.072.028-.14.055-.213.076.22.16.434.333.638.528.246.237.477.504.684.813.018.027.036.054-.018.09s-.072.01-.093-.018c-.2-.3-.422-.56-.662-.792-.225-.216-.465-.405-.714-.58-.27.06-.543.076-.816.067.168.333.315.67.426 1.008.12.366.204.735.23 1.11.004.033.007.066-.06.072s-.068-.027-.07-.06c-.028-.366-.11-.723-.226-1.08-.12-.357-.276-.708-.453-1.056-.165-.012-.333-.033-.5-.054.095.306.18.62.25.942.085.378.154.765.205 1.158.003.033.006.066-.057.075-.066.01-.07-.024-.075-.057-.048-.39-.117-.774-.2-1.146-.08-.348-.172-.69-.28-1.026-.474-.513-1-1.014-1.64-1.28.13.167.236.34.31.524.118.282.172.582.163.897 0 .032-.002.065-.065.062-.066 0-.066-.036-.063-.066.006-.297-.042-.58-.153-.846-.1-.237-.244-.46-.445-.666-.144-.042-.297-.075-.453-.09-.42-.042-.843-.07-1.266-.084.324.294.58.564.555.89-.002.034-.005.067-.07.06s-.064-.038-.06-.07c.02-.304-.28-.577-.63-.89-.253-.008-.508-.01-.76-.014.138.14.258.282.354.423.132.19.225.383.27.575v.01c.027.296.1.557.23.773.13.213.316.378.57.495.03.015.06.027.034.087s-.057.048-.087.033c-.278-.126-.482-.312-.626-.546-.14-.23-.22-.507-.25-.822-.04-.174-.125-.35-.248-.528-.114-.165-.26-.333-.435-.5-.28 0-.56-.004-.842-.004.117.333.198.675.255 1.023.066.426.096.86.105 1.302 0 .033 0 .066-.066.066s-.066-.033-.066-.063c-.006-.434-.036-.866-.102-1.283-.057-.357-.14-.705-.264-1.044h-.078c-.183-.3-.354-.432-.618-.555-.003.03-.006.06-.015.087-.022.09-.058.18-.12.27-.02.027-.04.054-.094.018s-.036-.063-.018-.09c.05-.075.084-.15.1-.222.008-.038.014-.077.014-.12-.042-.017-.087-.035-.135-.056-.135-.564-.26-.798-.71-.99-.004.156-.013.318-.043.483-.036.204-.102.41-.225.61-.02.026-.037.056-.09.02-.058-.036-.04-.063-.022-.09.114-.183.174-.372.207-.56.03-.172.04-.346.04-.514-.025-.01-.052-.018-.08-.027-.12-.79-.263-1.23-1.082-1.542.01.102.012.207.006.312-.01.177-.043.357-.115.543-.012.03-.024.062-.084.038s-.047-.054-.038-.084c.066-.17.096-.34.105-.504.01-.156-.003-.312-.024-.465-.174-.198-.423-.387-.636-.597.006.29-.033.58-.114.87-.1.35-.26.705-.49 1.056-.017.027-.035.057-.09.02-.056-.035-.038-.062-.02-.09.22-.338.378-.68.474-1.02.093-.323.126-.65.102-.977-.094-.102-.172-.213-.226-.33l-.018.042c-.033.07-.063.143-.096.215-.015.03-.027.06-.087.036-.06-.026-.048-.056-.036-.086l.096-.216.075-.174c-.006-.036-.012-.072-.015-.11-.027-.253-.162-.448-.345-.613l-.003-.002c-.024.078-.054.16-.09.237-.057.123-.132.243-.228.366-.02.028-.04.052-.093.013-.05-.042-.03-.066-.012-.093.09-.114.16-.228.213-.34.045-.095.078-.19.102-.29-.084-.1-.144-.2-.192-.312-.03.072-.072.144-.126.216-.064.084-.145.165-.247.25-.024.02-.05.04-.093-.01s-.015-.072.01-.093c.092-.074.164-.15.22-.224s.097-.147.124-.222c.042-.117.057-.042.018-.23.07-.373-.07-.595-.267-.904.003-.01.006-.015.012-.024-.117.003-.252.042-.4.105-.176.08-.37.196-.575.337-.027.018-.054.036-.09-.018-.04-.055-.012-.073.018-.09.213-.145.414-.265.597-.346.186-.08.357-.126.504-.117.037-.1.04-.174.016-.288-.6.22-1.074.326-1.455.35-.398.024-.704-.04-.96-.147-.03-.015-.06-.027-.032-.087.024-.06.057-.048.087-.036.237.102.522.162.9.138.375-.024.837-.126 1.43-.348-.002-.006-.002-.012-.005-.018.108-.24.195-.474.255-.708-.213.057-.423.054-.633.048h-.042c-.033 0-.066-.003-.066-.066 0-.066.036-.066.066-.066h.042c.222.003.444.01.663-.063.015-.078.027-.156.04-.234.032-.26.338-.324.554-.09.18.192.344.396.52.48.36.17.766.018 1.057-.216-.087-.027-.177-.057-.267-.087-.033-.01-.063-.02-.042-.08.02-.064.05-.055.08-.043.115.036.23.072.343.11.028-.026.055-.053.08-.08.743.063 1.226-.093 1.703-.573-.423.01-.8-.003-1.128-.04-.36-.04-.657-.113-.876-.22-.03-.016-.06-.03-.03-.088.03-.06.06-.045.086-.03.204.102.49.17.834.21.35.04.765.05 1.236.036h.006l.13-.153c.203-.085.407-.178.557-.346-.868-.093-1.693-.264-2.47-.67-.2-.224-.52-.35-.858-.437-.63-.078-1.188.078-1.7.345-.136-.126-.24-.24-.373-.363-.2-.025-.385-.13-.583-.154-.264-.03-.54.02-.804-.01-.033-.002-.066-.005-.057-.07.006-.067.04-.064.072-.058.264.03.54-.02.804.01.255.03.498.14.753.17.852-.32 1.557-.498 2.166-.47.712-.208 1.45-.295 2.188-.277-.01-.005-.018-.014-.027-.023-.086-.087-.044-.132 0-.174.4-.405.493-.777.364-1.113-.132-.348-.492-.675-.993-.975-.533.06-1.046-.084-1.613-.02-.354.038-.702.116-1.044.23.285.102.534.27.738.51.253.297.433.702.53 1.212.01.06.02.123-.1.144-.12.025-.132-.038-.144-.098-.087-.465-.25-.83-.474-1.098-.237-.34-.78-.47-.95-.54-.568.057-1.126.12-1.612.246-.366.093-.687.222-.933.414.366-.078.747-.063 1.077.102.315.156.582.45.75.927.02.057.04.117-.078.156s-.138-.02-.156-.08c-.14-.41-.363-.656-.624-.785-.52-.258-1.59-.033-2.043.303-.264.198-.528.453-.79.75-.047.057-.098.11-.21.015-.11-.1-.062-.153-.01-.207.272-.31.548-.582.833-.792.276-.204.56-.35.855-.42.3-.333.745-.534 1.258-.666.5-.13 1.074-.195 1.656-.252-.17-.345-.39-.552-.642-.663-.27-.12-.58-.138-.915-.105-.7.24-1.32.615-1.917 1.038.054 0 .108 0 .16.003.176.01.335-.016.482.04.057.022.117.043.075.16-.05.14-.438.054-.573.045-.153-.01-.32.003-.507.048-.027.006-.057.015-.084.006-.73.45-1.25.905-1.857 1.418l-.102.036c-.54-.02-.912.054-1.134.222-.2.153-.216.393-.177.717-.093.303-.21.636-.24.99-.633.543-1.338 1.086-1.665 1.878-.072.232-.195.436-.348.62.13.02.234.06.315.122.03.024.057.048.08.078.016-.135.037-.27.07-.4.045-.185.11-.356.198-.494.018-.027.036-.054.09-.018.057.036.04.063.02.09-.08.123-.14.282-.182.456-.05.207-.077.435-.083.645-.003.065-.123.07-.132.005-.015-.11-.063-.198-.14-.255-.082-.06-.196-.096-.343-.108-.135.147-.288.28-.44.402-.127.102-.247.213-.274.378-.018.288.336.34.672.36.765.045.156.48.576.86.204.142.393.307.537.508.29.105.47.08.67-.01.038-.518-.007-.782.22-.782h.025c.012-.066.027-.132.054-.198.04-.096.096-.195.174-.29.02-.025.042-.052.093-.01s.03.066.008.093c-.07.087-.12.174-.153.258-.027.073-.045.145-.054.217.04.078.03.23.028.504.435-.212.83-.266 1.275-.287.83-.972 1.185-.726.456-.018l-.118.222c-.126.243-.207.432-.234.762-.213.185-1.257 1.043-.867 1.36.274-.038.445-.026.34.178-.13.273-.52.84-.39 1.152.048.114.216.102.38.063.013-.012.025-.02.037-.033.273-.222.56-.477.83-.774.268-.29.517-.624.718-1.005.027-.053.054-.104.132-.086.08-.3.177-.597.285-.897.11-.31.237-.62.372-.933.02-.045.084-.054.114-.012.114.165.225.285.336.363.1.072.198.105.294.105s.195-.033.294-.1c.108-.074.216-.188.327-.344.017-.027.038-.054.092-.015s.036.064.015.094c-.12.168-.237.29-.36.375s-.243.125-.37.122c-.122 0-.245-.045-.368-.132-.1-.072-.202-.17-.3-.303-.118.273-.226.546-.325.82-.11.302-.207.608-.29.91.068.058.038.112.01.166-.215.405-.48.756-.76 1.065-.23.252-.472.474-.71.675.034.222.09.432.193.648.453-.39.876-.785 1.248-1.193.372-.41.696-.834.95-1.275.02-.027.034-.057.09-.024s.04.063.025.09c-.13.228-.28.45-.443.67.03.044.006.062-.018.083-.05.04-.076.196-.088.397-.018.273 0 .612.03.855.003.033.01.066-.057.075s-.07-.024-.075-.057c-.033-.255-.048-.603-.033-.88.003-.07.012-.137.02-.197-.098.117-.2.234-.305.35-.378.418-.81.82-1.272 1.216-.003.002-.01.005-.012.008.012.024.027.048.042.072-.402.29-.73.393-.28.783l.45-.324.48-.346c.028-.018.055-.04.094.015s.012.07-.015.092l-.484.345c-.156.11-.31.222-.465.333-.008.183.034.315.115.46.04-.007.072-.01.1-.01.335-.243.67-.49 1.007-.732.027-.02.054-.04.093.015s.012.072-.015.093c-.324.237-.65.474-.978.71-.02.04-.063.09-.117.15-.33.238-1.482.95-1.36 1.44v.004c.277-.078.553-.174.817-.31.273-.14.54-.33.792-.587.024-.024.045-.045.093 0 .045.045.024.07 0 .093-.26.267-.537.46-.822.61v.01l-.006.136-.007.135c-.003.033-.003.066-.07.063s-.062-.036-.062-.07c.004-.044.004-.09.007-.134.003-.024.003-.05.003-.075-.234.11-.47.19-.71.256.098.465-.145.864-.394 1.263-.14.113-1.293 1.046-.813 1.325.13.063.273.093.417.108z"/><path d="M644.88 126.744c-.24-.144-.55-.32-.85-.38-.152-.295-.36-.532-.638-.712-.222-.144-.222-.132-.138-.29.252-.028.357-.097.36-.166.132.003.246.02.342.054.11.04.195.096.255.177.022.027.04.054.094.012.054-.04.033-.067.012-.094-.078-.1-.183-.174-.318-.222-.13-.045-.285-.066-.468-.06-.015 0-.027 0-.04.006-.095-.045-.24-.075-.42-.07-.17-.16-.314-.35-.245-.584.01.01.024.012.04.015.134.04.26.08.368.13.105.045.192.102.252.168.02.024.045.048.093.003s.027-.068.006-.092c-.075-.08-.174-.144-.294-.2-.087-.04-.183-.076-.285-.106.99-.2 1.875-.186 2.76.34.465.19.684.413.936.755-.083.072-.167.14-.25.213-.58-.015-1.006.066-1.273.27-.24.18-.288.504-.297.828z"/></g><path d="M664.56 154.14c-.195.12-.354.204-.555.237.01-.006.018-.015.024-.024.128-.243.278-.456.446-.648l.066-.075.01.24.008.273zM667.04 159.45c-.13.198-.293.378-.476.543-.18.162-.384.315-.603.46-.026.017-.056.035-.092-.02s-.01-.07.018-.09c.21-.137.408-.287.588-.446.177-.16.333-.33.456-.52.018-.026.036-.053.093-.017.054.036.036.063.018.09zM668.682 157.494l-.25.38c-.017.028-.035.055-.092.02-.054-.037-.036-.064-.018-.09.084-.127.165-.256.25-.382.017-.027.035-.054.092-.018.054.036.036.063.018.093zM667.788 157.368c-.042.19-.11.37-.23.534s-.298.312-.553.43c-.03.014-.06.026-.087-.034s.003-.075.033-.087c.235-.107.394-.24.502-.386.11-.147.17-.312.21-.486.006-.033.015-.063.078-.048s.057.045.048.078zM669.396 155.406c-.066.066-.123.14-.174.225-.048.085-.093.175-.126.277-.012.03-.02.063-.084.042s-.054-.055-.042-.085c.036-.108.08-.207.138-.3s.12-.174.192-.25c.024-.023.045-.044.093 0 .045.046.024.07 0 .094zM670.71 155.535c-.057.186-.11.375-.18.56-.07.193-.153.382-.26.57-.02.028-.034.058-.09.025s-.043-.063-.025-.09c.105-.183.183-.366.252-.546.066-.183.12-.37.177-.555.01-.034.018-.064.08-.046s.055.048.046.08zM670.113 147.846c.408.6.498 1.218.513 1.84.045-.226.096-.454.16-.68l.008-.02c.17-.24.28-.48.333-.717s.054-.478.012-.715c-.007-.033-.013-.063.053-.075.063-.012.072.02.078.054.046.255.046.513-.01.768-.058.252-.17.504-.346.756-.11.417-.192.837-.27 1.257l-.015.078c-.013.063-.133.054-.133-.012 0-.047 0-.092.003-.14.01-.783.018-1.57-.49-2.313-.017-.027-.038-.054.02-.093.053-.036.074-.01.092.018zM669.114 149.133l-.015.15c-.004.05-.01.102-.013.153-.003.033-.006.066-.072.06s-.063-.04-.06-.072c.003-.05.01-.102.012-.15.003-.05.01-.102.015-.153.003-.032.006-.065.072-.06s.063.04.06.073zM668.835 150.88c.102.332.18.67.237 1.02.04.236.063.476.075.722.027-.045.057-.087.09-.13.108-.134.252-.25.423-.35.027-.018.057-.033.09.024s.006.075-.024.09c-.16.093-.288.198-.384.32-.096.12-.16.256-.186.41-.012.065-.132.053-.132-.013.003-.36-.027-.71-.08-1.053s-.133-.675-.232-1.002c-.01-.033-.02-.063.042-.08s.072.01.08.04zM670.227 151.503c.057.27.093.528.105.777s.003.492-.024.73c-.003.032-.01.065-.075.056s-.06-.042-.057-.075c.027-.224.036-.458.024-.704-.012-.243-.045-.498-.102-.756-.006-.033-.015-.063.05-.078.064-.015.073.018.08.05zM671.42 151.28c.046.247.07.487.058.718-.012.234-.057.456-.153.672-.08.246-.087.492-.045.738.042.252.138.504.252.76.015.03.027.06-.033.086s-.076-.003-.088-.033c-.12-.26-.22-.524-.264-.788-.045-.27-.04-.537.05-.807l.004-.006c.087-.2.132-.41.14-.628.013-.222-.01-.453-.056-.687-.006-.033-.012-.063.054-.075s.072.02.078.054zM671.997 149.3c-.03.124-.06.25-.093.376-.03.123-.06.25-.093.375-.005.034-.014.064-.077.05s-.057-.05-.048-.082c.03-.123.06-.25.093-.375.03-.123.06-.25.093-.375.01-.033.016-.063.082-.048.063.015.057.048.048.08zM671.406 146.013l.105.342c.01.033.02.063-.044.08-.063.022-.072-.01-.08-.04-.037-.115-.07-.23-.106-.343-.012-.033-.02-.063.042-.08s.072.01.08.04zM671.71 143.514c.002.156.002.312-.01.98-.14.127-.243.286-.297.484-.054.2-.06.447-.01.74.007.034.013.067-.053.08s-.072-.022-.078-.055c-.057-.315-.048-.58.012-.798.06-.225.177-.405.336-.546l-.027-.418c-.003-.156-.003-.312-.006-.465 0-.033 0-.066.066-.066s.066.034.066.067zM669.228 142.644c.384.252.714.53.942.86.23.334.363.715.348 1.165-.003.044-.05.074-.093.056-.216-.093-.435-.186-.65-.28.143.934.107 1.678-.097 2.248-.216.603-.615 1.014-1.185 1.248-.05.02-.105-.027-.087-.08.11-.355.177-.71.204-1.063s.012-.71-.048-1.06c-.006-.033-.012-.066.054-.075.066-.012.072.02.075.054.06.362.08.728.05 1.09-.025.32-.08.634-.17.955.466-.228.796-.594.982-1.113.204-.573.234-1.335.072-2.3-.01-.052.045-.094.09-.073.222.095.447.19.67.287-.007-.378-.127-.702-.325-.987-.22-.315-.535-.582-.907-.825-.027-.018-.054-.036-.018-.093.036-.054.063-.036.09-.018zM675.723 141.366l-.054.13s-.034.086-.052.128c-.012.03-.024.06-.084.036s-.048-.054-.036-.084l.054-.13s.033-.086.05-.128c.013-.03.025-.06.085-.036s.048.054.036.084zM674.196 141.333c.126.05.228.12.312.204.084.08.147.177.2.282.016.03.03.06-.026.086-.06.03-.075 0-.087-.027-.048-.094-.105-.178-.177-.25s-.16-.132-.27-.174c-.03-.012-.06-.024-.036-.084s.054-.048.084-.036zM671.928 141.984c.165.183.273.396.33.64.057.236.066.5.036.782-.003.033-.006.066-.072.06s-.063-.04-.057-.072c.027-.27.02-.52-.033-.74-.054-.22-.15-.415-.3-.58-.02-.024-.045-.048.006-.093.048-.044.072-.017.093.007zM664.263 142.722l-.027.258c-.01.087-.018.174-.024.258-.003.033-.006.066-.072.06s-.063-.04-.057-.072c.01-.087.018-.174.024-.258l.027-.258c.003-.033.006-.066.072-.06s.063.04.06.072zM665.685 141.972c.036.123.072.246.11.37l.034.11c.008.033.017.063-.046.08s-.072-.01-.08-.044l-.034-.11c-.036-.124-.072-.247-.11-.37-.01-.03-.02-.063.044-.08s.072.01.08.044zM668.6 143.93c.016.055.025.11.028.16.003.054.003.105 0 .16-.003.032-.006.065-.072.06s-.063-.04-.06-.073c.003-.045.003-.093 0-.138-.003-.05-.012-.094-.024-.14-.01-.032-.018-.062.045-.08s.072.015.08.048zM669.606 141.71c.063.064.105.133.12.2.018.07.006.143-.03.212-.015.03-.033.06-.09.027-.057-.03-.042-.06-.027-.09.02-.043.026-.082.017-.124s-.04-.09-.084-.138c-.024-.024-.045-.045 0-.093.045-.045.07-.024.093 0zM662.646 142.062c0 .156.024.306.075.444.052.14.133.273.247.396.153.174.23.345.273.52.042.17.045.338.054.503 0 .033.003.066-.063.07s-.065-.03-.068-.064c-.006-.16-.012-.323-.048-.48-.04-.155-.108-.308-.243-.464-.125-.135-.212-.282-.272-.438-.057-.156-.084-.32-.084-.492 0-.033 0-.066.066-.066s.066.033.066.066zM665.463 143.958c.156.29.243.576.276.864.035.285.017.576-.034.88-.057.35.018.692.21 1.013.177.3.456.585.816.85-.11-.388-.177-.77-.162-1.138.018-.432.15-.85.453-1.242.13-.168.216-.342.276-.52.062-.176.095-.356.12-.53.002-.033.008-.066.07-.057.067.006.06.04.058.072-.024.186-.06.372-.123.558s-.16.375-.297.555c-.285.372-.408.762-.426 1.167-.018.41.072.837.21 1.275.018.057-.05.105-.1.075-.452-.306-.797-.642-1.01-1-.207-.35-.29-.72-.225-1.1.048-.29.063-.57.03-.843s-.114-.54-.26-.816c-.016-.026-.034-.056.026-.086.057-.033.075-.003.09.027zM664.332 145.69c0 .31-.087.623-.243.935-.124.246-.286.49-.478.732.1-.04.2-.078.3-.126.174-.08.348-.176.522-.308.12-.09.243-.195.363-.32.123-.127.246-.274.372-.448.017-.027.038-.054.092-.015s.033.065.015.092c-.13.177-.258.33-.384.462-.114.117-.228.22-.342.306.02.08.03.14.043.204l.045.228c.006.033.015.063-.05.078-.064.015-.073-.018-.08-.05-.02-.094-.032-.163-.047-.232-.008-.048-.017-.096-.03-.144-.155.11-.314.195-.467.267-.18.085-.357.148-.534.214-.058.02-.112-.057-.073-.105.252-.3.465-.598.612-.895.146-.294.23-.585.23-.876 0-.034 0-.067.066-.067s.066.033.066.066zM662.955 145.578v.297c0 .033 0 .066-.066.066s-.067-.032-.067-.065v-.297c0-.033 0-.066.066-.066s.065.033.065.066z"/><path d="M662.09 143.892c.18.44.23.852.16 1.236-.066.384-.25.74-.522 1.077l-.01.01c-.26.224-.455.494-.6.797-.098.204-.173.423-.23.654.072-.1.144-.192.23-.28.172-.173.376-.308.646-.383.276-.153.537-.32.78-.51.246-.192.474-.402.684-.64.02-.023.045-.047.093-.005s.028.066.007.093c-.216.244-.45.46-.702.655s-.52.37-.804.525l-.014.006c-.246.066-.435.192-.594.35s-.285.358-.408.562c-.033.054-.132.018-.12-.045.066-.372.165-.723.315-1.04s.353-.6.63-.838c.257-.318.428-.654.49-1.014s.02-.746-.152-1.163c-.012-.03-.024-.06.036-.087.06-.024.075.006.087.036zM664.89 148.38c-.042.12.045.23.222.46.04.05.08.104.12.155.237.315.324.672.33 1.047.006.366-.063.747-.135 1.116-.012.063-.12.06-.13-.003-.06-.408-.233-.768-.488-1.09-.26-.323-.604-.61-1-.875-.027-.018-.054-.036-.018-.093.036-.054.063-.036.09-.018.408.272.762.57 1.03.905.203.255.356.53.446.834.045-.262.078-.523.075-.775-.006-.348-.087-.678-.303-.97-.045-.062-.084-.11-.117-.152-.207-.267-.306-.396-.243-.582.012-.03.02-.062.084-.04s.05.053.042.083zM666.084 148.302c.048.05.1.102.147.156.05.05.1.102.148.156.024.024.045.048-.003.093s-.072.02-.093-.003c-.048-.05-.1-.102-.147-.156-.048-.05-.1-.102-.147-.156-.02-.024-.045-.048.003-.093s.073-.022.094.002zM667.548 148.773c-.093.294-.183.585-.273.88l-.276.878c-.01.034-.02.064-.082.043-.063-.018-.054-.05-.042-.08.093-.295.183-.586.273-.88l.275-.88c.01-.032.018-.062.08-.044.064.02.055.05.043.083zM668.376 153.684c-.027.075-.027.147 0 .22.012.03.024.062-.04.083-.06.024-.07-.006-.083-.04-.04-.104-.04-.21 0-.314.012-.033.024-.063.084-.04.063.025.05.055.04.085zM667.506 152.24l-.12.463c-.04.156-.078.31-.12.465-.01.033-.018.063-.08.048-.064-.018-.058-.048-.05-.08.04-.157.082-.31.12-.466.04-.153.082-.31.12-.462.01-.033.016-.063.082-.048.063.015.057.048.048.08zM666.252 152.235l.114.114c.024.023.045.044 0 .092-.048.045-.072.024-.093 0l-.114-.114c-.025-.024-.046-.045 0-.093.047-.045.07-.024.092 0zM664.78 151.53c-.03.087-.06.174-.094.26-.03.088-.06.175-.093.262-.012.03-.02.063-.084.04-.06-.022-.052-.055-.04-.085.03-.087.06-.174.093-.26.03-.088.06-.175.093-.262.012-.033.02-.063.084-.042s.05.054.042.084zM662.67 153.76c-.08.086-.135.182-.174.28-.04.103-.06.208-.078.32-.006.032-.012.065-.075.053-.066-.012-.06-.042-.054-.075.02-.117.044-.23.086-.342.042-.114.105-.222.198-.324.02-.024.045-.048.093-.003s.027.068.003.092zM656.634 159.672c-.03.066-.072.135-.13.2-.053.067-.12.13-.2.196-.024.02-.05.042-.093-.012-.04-.05-.014-.072.01-.093.075-.057.135-.117.183-.177.048-.057.084-.114.108-.168.016-.03.028-.06.088-.036.06.027.045.057.033.087zM657.58 159.17c-.028.067-.073.124-.13.172-.054.045-.123.084-.204.117-.033.01-.063.023-.084-.04-.024-.063.01-.075.04-.084.065-.024.122-.057.164-.093s.072-.078.093-.123c.01-.03.026-.06.086-.033s.045.057.033.087zM658.833 158.406c-.02.036-.045.072-.078.108s-.078.072-.135.108c-.027.018-.057.036-.09-.02s-.006-.076.024-.09c.048-.028.08-.058.108-.085.024-.027.045-.057.063-.084s.033-.057.09-.02c.057.032.04.06.024.09zM660.72 153.498c-.06.177-.102.35-.117.525s-.006.348.03.52c.006.032.015.062-.048.077s-.072-.018-.078-.05c-.042-.187-.05-.376-.033-.562s.06-.372.123-.555c.012-.033.02-.063.084-.042s.052.055.043.085zM662.004 140.44c-.006.146-.045.29-.114.434s-.168.285-.297.426c-.02.024-.045.048-.093.003s-.027-.07-.003-.093c.12-.132.213-.264.276-.393.06-.13.096-.258.1-.384 0-.033.002-.066.068-.063s.064.036.064.07zM660.693 139.28c.114.2.183.4.222.6.04.2.048.4.036.598 0 .033-.002.066-.068.063s-.063-.035-.063-.068c.01-.19.002-.375-.034-.564-.036-.186-.102-.375-.207-.56-.016-.028-.034-.058.023-.09s.075-.004.09.023zM658.956 141.435c-.237-.174-.405-.35-.513-.528-.108-.183-.147-.366-.12-.552.006-.033.012-.063.075-.054.066.013.06.043.054.076-.024.156.012.31.102.465.096.163.255.325.477.49.028.018.055.04.016.093s-.066.033-.093.015zM660.88 144.702V144.986c0 .034 0 .067-.067.067s-.066-.033-.066-.066V144.702c0-.033 0-.066.066-.066s.066.033.066.066zM658.422 142.227c.387.366.618.807.74 1.296.08.303.112.624.118.96l.015-.003c.174-.06.31-.216.402-.465.1-.264.15-.63.16-1.095 0-.003.005-.03.008-.033.138-.225.222-.453.28-.678s.083-.457.104-.688c.005-.057.083-.08.12-.033.224.317.422.647.575 1s.255.73.294 1.138c.002.033.005.066-.06.072s-.07-.027-.073-.06c-.036-.39-.138-.753-.282-1.095-.123-.29-.28-.564-.46-.83-.017.173-.044.35-.09.527-.056.234-.143.465-.284.7-.008.473-.062.848-.164 1.12-.108.292-.27.472-.483.544-.02.006-.04.012-.057.003-.003.16-.012.326-.024.494-.003.033-.006.066-.072.06s-.063-.04-.06-.072c.045-.546.033-1.065-.087-1.533-.117-.466-.34-.886-.705-1.234-.024-.02-.048-.045-.003-.093s.07-.024.093-.003zM659.862 148.386l-.08.52-.082.515c-.003.034-.01.067-.075.055-.063-.01-.06-.042-.054-.075l.082-.516.08-.52c.007-.032.01-.062.076-.053.063.013.06.043.054.076zM657.096 149.56l.072.392c.006.033.012.063-.054.075-.063.012-.072-.02-.078-.054l-.072-.393c-.006-.033-.012-.063.054-.075.063-.012.072.02.075.054zM659.487 146.385c-.033.26-.1.513-.2.756-.106.244-.25.48-.44.706l-.002.003c-.237.257-.35.524-.387.803s.003.57.08.867c.01.033.016.063-.047.08-.062.016-.07-.014-.08-.047-.08-.31-.123-.615-.084-.915.04-.303.165-.597.42-.876.18-.213.318-.438.417-.67.1-.233.162-.473.192-.722.003-.033.01-.066.072-.057.066.01.06.042.057.075zM658.863 145.455c.045.252.006.5-.1.753-.104.243-.272.49-.488.732l-.006.006c-.226.19-.385.396-.51.61-.127.215-.22.44-.313.668-.012.03-.024.06-.087.036-.06-.024-.048-.054-.036-.084.093-.23.19-.462.32-.687s.3-.442.535-.64c.203-.23.362-.462.46-.693.097-.225.133-.453.09-.675-.005-.033-.01-.063.055-.078.063-.012.072.02.078.054zM655.812 146.904c.072.504-.006.936-.195 1.314-.186.378-.483.702-.846.993-.023.022-.05.043-.092-.01-.042-.052-.015-.073.012-.094.348-.28.633-.59.81-.948s.252-.762.183-1.24c-.003-.032-.01-.065.057-.074s.07.024.075.057zM651.915 149.06c.04.08.075.157.11.235.043.084.082.165.12.25.016.03.028.06-.03.086-.06.028-.074 0-.086-.03-.04-.083-.082-.164-.12-.248l-.112-.23c-.015-.03-.027-.06.03-.088.06-.027.075 0 .087.03zM650.37 149.09c-.003.298.02.592.093.874.075.282.195.555.393.816l.006.012c.1.2.156.402.195.606.027.15.045.3.054.45.19-.2.334-.405.44-.618.12-.246.182-.5.188-.765 0-.033 0-.066.066-.063.066 0 .066.033.063.066-.006.282-.075.555-.2.82-.13.263-.32.515-.568.758-.04.04-.11.012-.112-.045-.01-.194-.024-.39-.06-.578s-.09-.378-.18-.567c-.204-.273-.333-.56-.41-.858s-.103-.6-.1-.91c0-.032 0-.065.066-.065s.066.033.066.066zM650.58 154.368c.012-.162.036-.32.075-.486.04-.162.087-.32.153-.483.012-.03.024-.06.084-.037.063.024.048.054.04.084-.064.156-.112.312-.148.465s-.06.31-.072.462c-.003.033-.003.066-.072.06-.066-.003-.063-.036-.06-.07zM650.4 155.838l.08-.585c.004-.033.01-.066.076-.057s.06.042.057.075l-.08.586c-.004.033-.01.066-.076.057s-.06-.042-.057-.075zM649.39 158.3c.095-.095.188-.21.275-.335.09-.13.174-.27.258-.417.015-.03.033-.057.09-.027.057.034.042.06.024.09-.084.154-.174.298-.264.43-.093.132-.19.252-.294.354-.025.024-.05.045-.094 0s-.02-.07 0-.093zM647.928 150.036v.243c0 .032 0 .065-.066.065s-.066-.033-.066-.066v-.244c0-.033 0-.066.066-.066s.066.033.066.066zM645.456 155.73c-.003-.06-.006-.12-.012-.18l-.012-.183c0-.033-.003-.066.063-.07s.07.028.07.064l.01.18c.004.06.007.12.013.18 0 .034.003.067-.063.07s-.07-.027-.07-.063zM651.663 145.602c-.126.435-.225.888-.216 1.275.006.375.11.687.38.86.316.205.454.51.586.808.01.018.015.036.024.054.04-.148.072-.304.087-.46.02-.192.02-.378-.006-.546-.006-.033-.012-.066.054-.078.063-.012.072.02.075.054.03.18.03.38.01.582-.025.225-.076.453-.142.65-.018.055-.096.06-.12.01-.033-.07-.066-.14-.1-.216-.122-.28-.25-.567-.536-.75-.313-.2-.436-.552-.445-.97-.006-.4.093-.866.222-1.313.01-.033.018-.063.08-.045s.055.048.046.08zM651.228 143.943c.042.34.03.65-.027.966-.056.31-.158.623-.293.962-.16.405-.23.834-.21 1.266.02.43.132.855.33 1.26.015.03.03.06-.03.087-.06.03-.075 0-.087-.03-.21-.42-.324-.867-.345-1.31-.02-.45.054-.898.22-1.32.13-.33.23-.637.284-.94.056-.3.068-.6.026-.924-.003-.032-.01-.065.057-.074.063-.01.07.024.075.057zM648.345 148.047c-.09.198-.108.396-.075.594.036.202.123.406.246.61.018.027.033.057-.02.09-.058.033-.076.006-.09-.024-.13-.216-.226-.435-.262-.654-.04-.222-.018-.447.084-.67.015-.03.027-.06.087-.032s.045.057.033.087zM647.088 147.597c.02.117.027.255.015.393-.012.12-.042.237-.09.342v.003c-.057.11-.07.222-.048.333.024.117.084.234.165.354.018.027.036.054-.018.093s-.072.012-.093-.018c-.094-.132-.16-.267-.187-.402-.027-.14-.015-.28.06-.42.042-.09.066-.192.078-.297.013-.123.007-.25-.01-.357-.007-.032-.013-.065.053-.074.066-.012.072.02.075.054zM654.438 136.71c-.04.345-.02.67.048.978.07.306.186.6.348.88.018.026.033.056-.024.09s-.072.002-.09-.025c-.165-.288-.29-.594-.363-.915s-.093-.66-.048-1.02c.002-.033.005-.066.07-.057.067.007.064.04.058.073zM653.517 137.6c.17.304.318.63.43.988s.185.75.212 1.185c.002.033.002.066-.064.07s-.066-.03-.07-.064c-.023-.424-.098-.805-.206-1.153s-.252-.663-.417-.96c-.015-.03-.033-.057.024-.09s.075-.003.09.024zM648.95 137.742c-.44.627-.632 1.137-.668 1.578-.036.438.08.804.255 1.143l.003.01c.12.347.174.692.165 1.04-.006.345-.078.693-.2 1.038-.013.034-.022.064-.085.04-.063-.02-.05-.054-.04-.084.12-.333.187-.663.196-.996.006-.33-.042-.66-.156-.99-.183-.357-.306-.747-.267-1.21s.237-.995.693-1.643c.018-.027.04-.054.093-.018.053.038.035.065.014.092zM653.208 135.936c.04.19.02.387-.066.58-.078.176-.213.344-.414.503-.204.158-.324.365-.378.614-.057.255-.045.552.018.885.006.032.012.065-.054.077-.063.012-.072-.02-.078-.054-.063-.35-.075-.663-.015-.936.06-.276.196-.51.427-.69.183-.144.303-.297.375-.453.075-.165.09-.336.057-.498-.007-.033-.016-.063.05-.078.063-.012.072.02.078.05zM648.7 136.323c.086.28.09.552.008.825-.078.27-.24.537-.486.798l-.006.006c-.237.198-.38.45-.47.73-.094.284-.127.602-.145.932-.002.033-.002.066-.068.063s-.063-.036-.063-.07c.017-.338.053-.665.15-.965s.25-.57.506-.786c.23-.246.38-.495.456-.744.072-.246.07-.498-.01-.75-.008-.033-.02-.063.043-.08s.072.01.08.044zM651.28 136.458c-.016.102-.016.198 0 .294.014.093.05.183.11.27.018.027.036.054-.018.093-.054.036-.072.012-.093-.018-.073-.105-.115-.213-.133-.32-.018-.112-.018-.223 0-.334.003-.033.01-.066.075-.057s.06.042.057.075zM651.156 135.78c-.237.1-.417.267-.546.507-.126.237-.2.543-.225.918.015.018.024.033.024.045.125.17.212.375.266.603.06.25.08.53.072.837 0 .033-.003.066-.07.063s-.062-.036-.062-.066c.01-.297-.012-.567-.07-.804-.047-.2-.122-.38-.227-.53-.49.455-.73.96-.745 1.508-.018.574.207 1.198.64 1.864.017.027.035.057-.02.093s-.07.006-.09-.02c-.446-.69-.677-1.34-.66-1.94.02-.59.277-1.13.808-1.616v-.002c.02-.41.102-.747.243-1.01.144-.268.345-.457.612-.568.03-.012.06-.024.087.036.024.06-.006.075-.036.087zM650.424 134.832c-.006.054-.012.096-.015.14-.034.313-.067.664-.304.877-.132.116-.216.254-.276.4-.06.154-.09.32-.11.493-.004.033-.007.066-.073.057-.066-.006-.06-.04-.057-.075.02-.183.057-.36.12-.525.066-.168.162-.32.31-.453.197-.177.233-.504.26-.79.006-.053.012-.104.015-.143.003-.033.01-.066.075-.057s.06.042.057.075zM657.59 142.48c.08.16.142.33.184.5s.063.348.054.53c0 .034-.003.067-.07.064s-.062-.036-.062-.07c.01-.17-.012-.332-.048-.494-.04-.16-.102-.318-.177-.474-.014-.03-.026-.06.034-.087s.072 0 .087.03zM657.612 144.83c.057.27.06.547.012.823s-.15.558-.3.843c-.102.237-.2.474-.303.71-.014.03-.026.06-.086.037s-.048-.057-.036-.087c.102-.237.2-.477.303-.714l.004-.006c.147-.273.243-.54.29-.804.046-.26.043-.522-.01-.774-.007-.033-.013-.066.05-.078.063-.015.072.018.078.05zM656.118 142.64c.43.478.708.982.84 1.513.135.53.12 1.09-.042 1.67-.01.034-.018.064-.08.046s-.055-.05-.046-.082c.156-.56.17-1.095.042-1.605s-.4-.996-.813-1.458c-.022-.024-.043-.048.005-.093s.072-.018.093.006zM655.986 145.28c-.132.28-.28.56-.46.838s-.39.558-.638.837c-.144.16-.276.336-.39.53-.114.2-.213.415-.29.658-.02.06-.133.04-.127-.024.013-.2-.01-.397-.065-.595s-.144-.4-.264-.597v.003c-.24-.353-.34-.71-.323-1.064.02-.354.162-.705.414-1.056.145-.246.247-.495.32-.74s.107-.496.116-.745c0-.033.003-.066.07-.063s.062.036.062.07c-.012.257-.048.515-.123.773s-.183.516-.333.774l-.003.005c-.238.333-.373.663-.39.99-.02.33.08.657.302.987l.003.003c.126.21.22.42.28.633.026.1.047.198.06.297.056-.13.116-.252.185-.366.12-.205.258-.39.408-.556.246-.273.453-.55.627-.822.177-.276.324-.55.45-.822.015-.03.027-.06.087-.033s.045.057.033.087zM652.07 144.02c-.008.328.022.634.088.922.066.285.174.552.324.798.018.027.033.057-.02.09-.058.036-.073.006-.09-.02-.157-.26-.27-.538-.34-.835-.07-.3-.1-.618-.09-.954 0-.032.003-.065.066-.062.066.003.066.036.063.066zM649.842 145.215v.384c0 .032 0 .065-.066.065s-.066-.033-.066-.066v-.385c0-.033 0-.066.066-.066s.066.032.066.065zM650.58 143.178c.006.225-.024.444-.093.654-.072.21-.183.41-.345.6-.02.024-.042.05-.093.006-.052-.042-.028-.066-.007-.093.15-.177.255-.363.318-.558.067-.195.094-.4.088-.61 0-.032-.003-.065.063-.065s.067.033.067.063zM648.573 147.132c-.36-.897-.447-1.608-.357-2.187.09-.585.36-1.03.714-1.392.237-.243.444-.483.58-.783s.197-.66.15-1.146c-.004-.033-.007-.066.06-.072s.065.027.07.06c.05.51-.017.89-.16 1.212-.142.318-.358.57-.604.822-.336.342-.59.768-.678 1.32-.087.558 0 1.248.35 2.12.013.03.025.06-.035.085s-.075-.005-.087-.035zM647.415 145.66c-.054.143-.075.29-.057.434.015.144.07.29.16.438.017.027.035.057-.022.09-.057.036-.072.006-.09-.02-.1-.163-.16-.328-.177-.493s.002-.33.065-.496c.012-.03.024-.06.084-.04.062.025.047.055.038.085zM653.11 141.615c.236.333.374.678.4 1.038s-.053.732-.257 1.12c-.015.026-.03.056-.087.026-.06-.03-.042-.06-.027-.088.19-.363.27-.71.242-1.047-.024-.336-.156-.66-.378-.972-.02-.027-.04-.054.015-.093s.07-.012.092.015zM654.888 140.223c.144.345.22.696.234 1.05.015.35-.036.708-.144 1.065-.018.06-.126.048-.13-.018-.01-.33-.08-.627-.203-.888s-.306-.486-.543-.678c-.024-.02-.05-.042-.01-.093s.067-.03.094-.008c.255.204.447.444.58.723.08.17.14.357.176.555.04-.22.057-.438.048-.657-.012-.336-.084-.672-.222-1.002-.012-.03-.024-.06.036-.086.06-.024.075.006.087.036zM655.944 138.78c.234.23.4.537.5.915.1.372.136.81.118 1.31v.004c-.024.212-.033.42-.01.61.022.19.076.364.175.52.018.027.036.057-.018.093-.058.036-.076.006-.094-.02-.11-.175-.17-.37-.195-.577-.023-.204-.014-.42.01-.642v.003c.018-.49-.018-.915-.11-1.272-.097-.354-.25-.64-.466-.855-.024-.024-.048-.045 0-.093.045-.048.07-.024.093 0zM653.142 138.5c-.153.187-.246.406-.29.65-.046.245-.04.515.005.81.006.032.012.062-.054.074-.063.012-.07-.02-.075-.054-.048-.306-.054-.594-.006-.855.048-.264.153-.5.318-.708.02-.024.042-.05.093-.01s.03.067.01.094zM647.65 142.2c-.025.546-.184.99-.44 1.356-.254.363-.602.65-1.013.89-.027.02-.057.034-.09-.023s-.006-.072.024-.09c.394-.23.73-.507.973-.855.243-.345.393-.765.417-1.284 0-.033.003-.066.07-.063s.062.037.062.07zM647.508 140.31c.03.204.018.402-.027.6-.044.195-.122.39-.22.59-.016.03-.03.058-.088.03-.06-.03-.045-.06-.03-.086.096-.192.17-.378.213-.56s.054-.364.027-.553c-.003-.032-.01-.065.057-.074s.07.024.074.057zM651.228 140.037v.186l.063.966.007.086c.003.033.003.066-.06.072h-.02c-.01.012-.025.018-.055.018-.066 0-.066-.033-.066-.066v-1.068l-.018-.26c-.003-.034-.006-.067.06-.073.066-.004.07.026.072.06v.02c.015.012.015.033.015.054zM652.125 138.378c-.264.32-.37.63-.375.933s.087.607.225.907c.312.5.414 1 .38 1.5-.03.498-.194.993-.413 1.488-.015.03-.027.06-.087.033s-.045-.057-.033-.087c.216-.48.372-.962.402-1.442.03-.477-.066-.95-.363-1.428l-.002-.006c-.147-.318-.246-.64-.24-.97.006-.332.123-.668.405-1.013.02-.023.042-.05.093-.008s.03.066.01.093zM646.356 128.09c.435-.332.86-.52 1.308-.57.444-.044.903.052 1.4.286l.496-.006c.168-.003.34-.006.507-.006.033 0 .066 0 .066.066s-.033.066-.066.066c-.17.003-.34.006-.507.006l-.456.006-.01.01c-.533.47-.99.728-1.394.812-.417.087-.777-.006-1.104-.24-.033-.024-.066-.048-.02-.114s.08-.045.113-.02c.293.203.61.287.977.212.354-.075.756-.294 1.227-.693-.432-.19-.828-.264-1.21-.225-.413.042-.815.222-1.226.537-.033.024-.066.048-.114-.015-.048-.066-.018-.09.015-.114z"/><path d="M647.646 127.84c.183 0 .33.146.33.33 0 .18-.147.33-.33.33-.18 0-.33-.148-.33-.33s.147-.33.33-.33zM649.917 129.834c.237-.123.42-.255.573-.39.15-.135.27-.273.372-.41.018-.028.04-.055.093-.016s.033.066.015.093c-.108.148-.234.295-.39.436-.16.14-.35.276-.6.405-.03.016-.06.03-.087-.026-.03-.057-.003-.075.027-.087zM654.6 127.896c.123-.033.243-.033.366.003.12.032.237.098.354.194.024.02.05.042.01.093s-.067.03-.094.01c-.102-.085-.207-.142-.306-.17s-.198-.026-.297-.002c-.033.01-.063.018-.08-.048-.02-.063.014-.072.044-.08zM651.92 128.004c.106-.24.265-.423.484-.54.216-.114.49-.162.822-.132.033.003.066.006.06.072s-.04.063-.072.06c-.31-.027-.558.015-.75.117-.192.1-.33.262-.423.478-.01.03-.026.06-.086.033s-.048-.056-.033-.086zM652.227 128.442c.018-.117.066-.222.147-.303.078-.085.19-.145.34-.187.032-.01.062-.018.08.045s-.015.072-.045.08c-.124.034-.217.085-.277.15-.06.064-.096.145-.11.235-.007.033-.013.063-.076.054s-.06-.042-.054-.075zM647.77 129.924c-.073.114-.14.23-.187.357-.045.127-.07.262-.06.42.003.034.006.067-.06.07s-.07-.027-.072-.06c-.01-.177.02-.333.067-.474.048-.138.12-.264.198-.384.018-.027.036-.057.09-.02.057.035.04.062.02.09zM649.047 130.497v.198c0 .033 0 .066-.066.066s-.065-.032-.065-.065v-.198c0-.033 0-.066.066-.066s.067.034.067.067zM648.216 129.07c.132.047.26.07.393.074.13 0 .266-.018.398-.048.033-.006.063-.015.078.048s-.018.072-.048.08c-.144.034-.288.055-.432.052-.147-.003-.29-.027-.438-.084-.033-.012-.063-.024-.04-.084.025-.063.055-.048.085-.04zM649.038 126.672c-.11-.003-.198.03-.264.08-.087.067-.14.16-.165.24-.01.034-.02.064-.082.046s-.054-.05-.045-.08c.033-.106.102-.223.213-.307.087-.065.204-.11.345-.107.034 0 .067.003.067.066 0 .065-.033.065-.066.065zM647.71 126.807c-.1.042-.178.09-.238.138-.054.045-.09.096-.105.144-.012.032-.02.062-.084.04s-.05-.05-.042-.083c.025-.075.076-.14.148-.204.07-.057.16-.11.273-.16.03-.01.06-.023.085.037.027.06-.003.075-.036.087zM646.89 126.83c-.08.058-.15.118-.207.187s-.102.147-.135.23c-.012.03-.02.064-.084.04-.06-.02-.05-.054-.04-.084.037-.1.09-.19.157-.27s.145-.15.235-.213c.027-.018.054-.036.093.018s.012.072-.018.093zM645.837 127.674c-.087.066-.17.138-.252.222s-.156.174-.228.273c-.018.026-.04.053-.093.014s-.033-.066-.015-.093c.074-.104.155-.2.24-.287s.173-.165.266-.234c.027-.022.054-.04.093.01.038.055.01.073-.016.094zM645.942 128.835c-.063.07-.126.138-.19.204l-.19.203c-.022.024-.046.048-.094.003s-.027-.07-.003-.093l.19-.204.19-.205c.022-.024.046-.048.094-.003s.026.07.002.093zM644.877 129.144v.408c0 .033 0 .066-.066.066s-.065-.033-.065-.066v-.408c0-.033 0-.066.066-.066s.067.033.067.066zM646.242 130.938l-.063.67c-.004.02-.004.04-.007.062-.003.033-.006.066-.072.06s-.062-.04-.06-.072c.004-.02.004-.042.007-.063l.063-.67c.003-.032.006-.065.072-.06s.063.04.06.073zM645.44 130.344c-.002.144-.008.29-.014.435 0 .032-.003.065-.07.062s-.062-.036-.062-.066c.003-.147.01-.29.015-.438 0-.033.002-.066.068-.063s.063.036.063.07zM644.697 124.662c.138.05.26.123.36.22.102.098.18.22.23.37.013.034.022.064-.04.085s-.073-.012-.085-.042c-.045-.132-.114-.237-.198-.32-.087-.085-.192-.148-.315-.193-.03-.012-.06-.024-.04-.084.024-.063.054-.05.084-.04zM651.23 133.182c.127.285.196.57.2.852.005.285-.052.57-.172.855-.012.03-.024.06-.084.035s-.048-.057-.036-.087c.11-.267.165-.534.16-.8-.004-.268-.067-.535-.187-.802-.014-.03-.026-.06.034-.087s.075.002.087.032zM649.1 135.645c.094-.32.23-.6.385-.855s.333-.486.51-.714c.204-.264.34-.552.41-.846.08-.318.082-.648.025-.96-.006-.033-.012-.063.054-.075.063-.012.072.02.075.054.06.33.056.674-.025 1.013-.075.312-.216.618-.435.897-.174.225-.348.453-.5.702-.15.246-.283.516-.37.822-.01.033-.018.063-.08.045s-.055-.05-.046-.082zM646.362 134.922c.045-.12.11-.225.2-.318s.202-.17.334-.234c.03-.015.06-.027.087.03.027.06 0 .075-.033.087-.12.057-.22.126-.297.207-.078.078-.135.17-.17.273-.013.03-.025.063-.085.04-.06-.022-.05-.055-.04-.085zM645.83 134.73c.103-.132.205-.255.322-.363.12-.11.255-.204.41-.267.03-.012.06-.024.085.036.024.063-.006.075-.04.084-.14.057-.26.14-.368.24-.112.102-.21.225-.307.348-.02.027-.04.054-.093.012-.054-.04-.033-.066-.012-.093zM648.67 131.916c.113.05.22.075.326.078s.207-.012.306-.04c.033-.008.063-.017.08.046s-.014.072-.044.08c-.11.034-.225.05-.345.046s-.243-.033-.375-.09c-.03-.015-.06-.027-.033-.087s.057-.046.087-.034zM647.256 131.733c.033-.04.066-.075.1-.114l.01-.016c.022-.024.046-.048.094-.006.048.045.027.07.006.093l-.012.016c-.033.04-.066.075-.102.114-.02.024-.042.048-.093.006-.05-.042-.028-.07-.007-.093zM677.808 140.547c.063.07.117.14.165.22.045.077.08.158.11.245.013.033.022.063-.04.08-.064.022-.073-.01-.085-.04-.024-.08-.057-.15-.1-.22-.038-.07-.09-.135-.146-.195-.02-.024-.045-.048.003-.093s.072-.02.093.003zM643.89 156.465c.144.132.294.252.46.336.16.082.34.133.545.133.033 0 .066 0 .066.066s-.032.065-.065.065c-.225 0-.423-.057-.606-.147-.178-.09-.34-.216-.49-.354-.024-.02-.048-.045-.003-.093s.07-.026.093-.002z"/><g fill="red"><path d="M669.492 126.075c.753.033 1.48.003 2.097-.1-.66.478-1.504.8-2.413.95.177-.14.29-.283.342-.43.047-.14.038-.282-.028-.42zM667.695 125.89c.49.08.996.137 1.497.17.006.012.015.02.02.033.082.11.106.22.07.324-.042.12-.156.246-.342.375-.05.036-.102.072-.03.17-.333.043-.672.06-1.017.055-.174-.003-.345-.012-.52-.027.02-.01.037-.027.052-.042.183-.192.3-.39.333-.597.024-.152.006-.305-.063-.458zM654.417 122.073c.846-.11 1.707-.138 2.583-.117.288.117.5.288.633.513.144.25.195.58.135.992-.01.06-.018.123.105.138.123.018.132-.045.138-.105.067-.468.007-.85-.164-1.15-.084-.143-.192-.266-.324-.37.078.002.156.005.234.01 1.008.055 1.79.343 2.667.778.006.006.015.015.02.024.187.195.25.396.22.603-.033.22-.165.456-.375.7-.04.047-.08.092.015.173.093.08.135.033.174-.015.237-.28.393-.555.432-.825.02-.153.008-.297-.046-.44.738.365 1.488.716 2.217 1.1.016.01.03.015.046.024 0 .015.006.033.012.048.06.207.036.384-.066.537-.11.16-.312.297-.603.405-.058.02-.115.042-.073.16.042.113.102.092.16.07.34-.128.58-.293.72-.497.116-.17.16-.36.134-.573.484.26.967.53 1.462.768l.003.003c.087.174.102.33.033.474-.072.153-.24.297-.507.43-.053.026-.11.053-.056.164s.11.084.165.057c.32-.16.524-.342.62-.546.066-.14.084-.285.054-.438.17.074.345.146.522.212.477.177 1.053.33 1.67.444l.016.018c.114.16.153.312.126.46-.027.152-.12.308-.27.464-.042.045-.084.087.003.174.016.015.028.024.04.033-1.875-.192-3.543-1.09-5.29-1.764-.206-.08-.416-.158-.623-.24-.645-.242-1.296-.572-1.944-.836-.02-.02-.054-.033-.084-.042-.046-.015-.088-.03-.133-.042-.027-.012-.057-.02-.084-.033.003.003.01.006.012.01-.59-.19-1.188-.337-1.794-.42-.67-.094-1.355-.112-2.057-.022l-.114-.018c.06-.37.01-.693-.172-.975-.13-.2-.324-.378-.594-.525z"/><path d="M651.348 122.898c.86-.375 1.734-.615 2.625-.762.408.162.678.36.83.594.148.23.184.5.133.813-.378-.036-.753-.033-1.12.006-.41.044-.812.137-1.208.278-.198-.417-.465-.67-.777-.807-.152-.068-.314-.107-.482-.125zM660.79 127.674c-.232-.147-.466-.29-.71-.423-1.166-.64-2.504-1.037-3.845-1.088.012-.01.02-.02.033-.03.477-.486.582-.945.42-1.374-.126-.333-.417-.642-.82-.92.45-.025.868.002 1.336.068.66.093 1.515.315 2.295.63.19.42.245.79.16 1.1-.086.328-.332.6-.728.826-.054.03-.108.06-.048.168s.114.078.168.045c.46-.258.74-.582.846-.978.08-.306.057-.648-.078-1.03.528.238 1.005.52 1.338.83.435.3.864.602 1.284.92.003.534-.153.837-.41.996-.274.165-.664.186-1.108.14-.06-.005-.123-.01-.135.112v.006z"/><path d="M663.357 129.606c-.78-.61-1.542-1.245-2.36-1.794.452.036.857 0 1.163-.183.297-.184.492-.502.525-1.02.49.377.96.776 1.407 1.205.225.213.45.423.68.63 0 .003.004.006.004.012.054.192.072.357.057.495-.015.135-.063.246-.14.333-.082.09-.2.156-.346.195-.22.063-.504.075-.855.036-.057-.006-.117-.012-.132.093z"/><path d="M666.048 131.38c-.27-.14-.528-.283-.777-.43-.596-.354-1.157-.76-1.706-1.182.336.027.618.01.846-.054.195-.054.35-.144.462-.267.114-.126.183-.282.204-.474.01-.084.01-.174-.003-.27.537.46 1.1.885 1.71 1.257.318.195.64.378.957.55-.003.02 0 .04.003.065.04.246-.1.402-.35.5-.295.118-.733.166-1.234.196-.058.004-.112.007-.118.103z"/><path d="M668.922 132.507c-.912-.25-1.794-.597-2.6-.99.46-.033.87-.087 1.163-.204.333-.132.525-.336.513-.663.534.27 1.068.504 1.61.696.097.213.103.387.013.534-.107.18-.344.33-.638.46-.057.023-.114.05-.063.16v.004z"/><path d="M674.91 131.898c.078-.012.558-.138.31.045-1.765 1.155-4.003 1.152-6.112.61.327-.148.594-.325.73-.547.1-.165.12-.354.07-.56.673.218 1.354.374 2.056.464.003.108-.027.216-.11.32-.112.14-.3.274-.61.41-.057.023-.114.047-.063.16.05.115.106.088.163.064.348-.153.573-.315.705-.48.117-.147.165-.294.165-.447.867.093 1.764.08 2.7-.042zM662.712 162.285c-.132.138-.243.29-.35.47-.514.172-.967.427-1.52.403 0 .357.118.513.475.516.68-.342.834-.405.894-.357.085.072-.095.56-.66.957-.086.054-.083.087-.032.177.477.748 1.728.48 2.4.304.48-.126 1.347-.696 1.587-1.176.093-.22-.117-.507-.327-.74-.53.08-.714-.166-.63-.337-.56-.197-1.185-.24-1.836-.215zM643.533 156.24c-.39.318-.825.57-1.332.738-.19.063-.656.177-.7.42-.007.087.31.276.515.165.564-.54.846-.24.198.312-.05.105-.01.222.102.32.585.526 2.034.697 2.694.28.488-.306.743-.642.317-1.107.003-.105.015-.207.033-.312l-.807-.08-.495-.29-.525-.446zM656.157 160.632c-.048.006-.1.012-.147.02-.26.283.456.178.837.412.174.105.25.312.18.6-.35.837-2.31.567-2.96.222-.304-.16-.316-.342-.304-.603.135 0 .273-.01.41-.03.235-.033.466-.102.694-.23.063-.037.13-.076.057-.202-.072-.128-.138-.092-.2-.056-.193.108-.39.168-.59.195-.203.03-.413.03-.614.02h-.05c-.115-.066-.202-.144-.154-.213.048-.066.237.006.273.018.302-.14.566-.23.893-.294.045-.044.087-.092.132-.137.597.05 1.167.14 1.545.28zM647.1 160.12c-.12.07-.162.173-.25.362-.34.345-.668.552-1.106.75-.363.165-.012.324.243.498.23.17.534-.2.723-.483.207-.312.417-.22.282.024-.15.268-.258.652-.273.853-.08.216.743.38.884.387.5.024 1.13-.465 1.524-.714.327-.333.276-.624.132-1.03l.003-.026c-.21.006-.408-.018-.603-.06-.237-.054-.47-.135-.708-.234-.03-.012-.06-.024-.036-.087.015-.04.033-.05.054-.046l-.864-.198zM650.607 126.73c.138-.007.276-.013.41.002.256.03.5.14.754.17.853-.32 1.558-.497 2.167-.47.71-.207 1.45-.294 2.187-.276-.01-.006-.018-.015-.027-.024-.087-.087-.045-.132 0-.174.4-.405.492-.777.363-1.113-.132-.348-.492-.675-.993-.975-.534.06-1.047-.084-1.614-.02-.354.038-.702.116-1.044.23.284.102.533.27.737.51.252.297.432.702.528 1.212.012.06.02.12-.1.144s-.13-.04-.143-.1c-.087-.464-.25-.83-.474-1.097-.237-.34-.78-.472-.95-.54-.568.056-1.126.12-1.612.245-.366.093-.687.222-.933.414.366-.08.747-.064 1.077.1.315.157.582.45.75.928.02.057.04.117-.078.156s-.138-.018-.156-.078c-.14-.41-.363-.657-.624-.786-.52-.258-1.59-.033-2.043.303-.265.198-.53.453-.79.75-.027.033-.057.063-.093.066.972.065 1.95.116 2.706.42zm-2.883-.55c-.02-.054.015-.093.048-.132.273-.31.55-.582.834-.792.276-.204.56-.35.855-.42.3-.333.745-.534 1.26-.666.502-.13 1.075-.195 1.654-.252-.17-.345-.39-.552-.642-.663-.27-.12-.582-.138-.915-.105-.7.24-1.32.615-1.917 1.038.054 0 .108 0 .16.003.176.013.335-.014.482.043.06.02.117.042.075.16-.05.14-.438.053-.573.044-.153-.01-.32.003-.507.048-.03.006-.057.015-.084.006-.627.388-1.1.78-1.608 1.21.384.135.684.294.88.48z"/></g></g><g><path fill="#0093dd" d="M720.288 198.102l26.256-59.51-19.368-31.273-34.54 12.788-15.986 62.895c15.066 3.843 29.646 8.92 43.635 15.102z"/><path fill="#fff" d="M686.805 143.055c17.3 4.413 34.05 10.242 50.115 17.346l-10.13 22.972c-14.803-6.543-30.23-11.913-46.17-15.978z"/><path fill="red" d="M728.418 179.682l6.768-15.34c-15.85-7.007-32.37-12.755-49.437-17.11l-3.99 15.692c16.187 4.13 31.86 9.585 46.892 16.23l-.234.528z"/><path d="M690.62 159.183c.454-.285.937-.216 1.423-.138.393-.147.846-.198 1.338-.18.21-.114.454-.195.73-.246.147-.115.153-.238.02-.37-.122-.15-.19-.297-.2-.447-.78-.453-1.068-1.143-1.365-1.827-.444-.117-.65-.267-.7-.435-.215-.02-.428-.04-.64-.065-1.012.11-1.273-.216-1.633-.483-.3-.1-.56-.264-.73-.58l-.332-.42c-.276-.35-.192-.815.225-.788.294.033.585.033.855-.084.315-.14.786-.138 1.143-.108.423-.024.69-.297 1.1-.68-.002-.166-.002-.328-.005-.493-.066-.178.018-.256.252-.232.55.018.876.276 1.098.642.64.11 1.143.417 1.482.954.85.003 1.422.324 1.49.64.052.23-.197.494-.58.776.002.057.005.117.005.174.228.198.378.396.456.59.478.184.934.43 1.36.79 1.215-.14 3.264.74 6.033 2.508 1.797.32 3.54.82 5.214 1.542.354.012.708.02 1.06.033 3.002-.444 5.912-.102 8.612 1.962 1.02.122 1.934.443 2.82.81.656.27 1.325.374 2 .437 1.092.105 2.2.375 3.297.885 1.233.276 2.385.663 3.1 1.527.506.61.383 1.175-.262 1.41-.39.82-1.167.857-2.33.452-.802.147-1.684-.495-2.485-1.098-1.113-.357-2.136-1-3.147-1.683-.525-.392-1.056-.64-1.572-.752-.404-.087-.767-.144-1.01 0-.12.072-.105.114 0 .2.282.238.48.592.543 1.018.057.375-.003.807.018 1.266.025.483.316.834.802 1.134.333.204.73.42 1.302.5.273.055.35.214.342.42.153.733.294 1.47.56 2.134.076.19.22.28.436.438.74.534.357 1.13-.318 1.26-.59.522-1.1.873-1.707 1.01-.483.163-.68-.035-.843-.272-.29-.006-.438-.123-.56-.312-.592-.435-.088-1.19 1.325-.867.03-.165.15-.216.27-.213-.085-.366-.133-.774.026-1.155-.126-.082-.234-.184-.417-.244-.51-.162-.994-.396-1.375-.753-.723-.68-1.854-1.25-2.943-1.824-.9-.046-1.57-.46-2.274-.81-.318-.004-.636-.01-.954-.013-.28-.093-.507.003-.675.204-.283.343-.61.286-.997.24-.444-.05-.894-.017-1.338-.023-.22.054-.435.123-.672.126-.5-.027-.99-.033-1.323.246-.276.29-.552.27-.828.16-.207-.095-.357-.197-.444-.305-.348-.072-.573-.16-.648-.264-.585-.164-.75-.33-.723-.494-.777-.186-.408-.798.096-.82.594-.023 1.137.09 1.72.172.488.138 1.09.057 1.49-.303.258-.234.354-.435.67-.61-1.006-.065-1.747-.242-2.293-.587-1.47-.927-2.646-1.152-3.582-.366-.25.14-.444.198-.71.096-.226-.087-.514-.087-.74-.036-.53.12-1.055.054-1.586-.138-.777.195-1.55.237-2.328.078-.657.345-1.137.384-1.443.12-.287-.162-.56-.327-.818-.504-.417-.063-.597-.168-.615-.306-.534-.06-.6-.255-.597-.468-.222-.255-.138-.45.084-.615.396-.166.807-.226 1.263.008.273.13.474.255.64.384.302-.036.563 0 .79.084.17-.264.646-.276 1.168-.246.26-.174.573-.297.972-.333-.012-.063-.024-.126-.033-.186-.525-.137-.795-.518-1.056-.902-.807-.015-1.386-.354-1.962-.708-.474.04-.855-.117-1.224-.34-.3.025-.633.037-.948-.044-.624.17-1.215.16-1.773 0-.392.036-.707-.003-1.03-.033-.37.423-.784.498-1.237.282-.25-.315-.603-.522-1.05-.64-.34-.11-.444-.257-.504-.416-.415-.256-.33-.508.068-.7.3-.144.675-.17 1.245.11.186.07.393.118.627.136z"/><path fill="#fff" d="M710.403 165.213c-.04-.07-.123-.243-.426-.07-.94-.05-1.99-.038-2.778-.503-.823-.483-1.67-.987-2.578-.95.27-.256.606-.43.996-.535.522-.138 1.14-.147 1.824-.036.96.155 1.806.34 2.46.587.63.237 1.074.53 1.27.91.005.008.044.053.053.06.252.16.47.326.654.5.137.13.257.264.36.408-.298.027-.604.006-.904-.054-.33-.065-.648-.176-.936-.323z"/><path d="M712.563 119.886l.054.282 1.182 6.12-4.702 4.098-.216.19.273.095 5.892 2.038 1.197 6.12.057.282.217-.19 4.71-4.082 5.9 2.022.274.093-.053-.282-1.182-6.122 4.7-4.098.217-.19-.273-.092-5.893-2.04-1.197-6.12-.057-.282-.216.19-4.713 4.085-5.898-2.024z"/><g fill="#f7db17"><path d="M709.683 130.317l4.392-3.828 5.523 1.9zM720.33 128.25l4.407-3.83 5.505 1.904zM730.28 126.52l-4.39 3.827-5.524-1.902zM719.634 128.59l-4.407 3.827-5.505-1.902zM713.187 120.45l5.51 1.89 1.117 5.733zM720.303 128.634l5.52 1.902 1.104 5.72zM726.777 136.386l-5.51-1.887-1.117-5.734zM719.66 128.202l-5.52-1.9-1.103-5.72zM723.486 118.548l1.12 5.718-4.408 3.83zM719.955 128.802l1.113 5.733-4.4 3.82zM716.478 138.288l-1.12-5.718 4.408-3.83zM720.01 128.034l-1.114-5.733 4.4-3.815z"/></g></g></g></svg>