<svg xmlns="http://www.w3.org/2000/svg" xmlns:xlink="http://www.w3.org/1999/xlink" width="500" height="300" viewBox="0 0 500 300"><title>Flag of Haiti</title><path fill="#00209f" fill-rule="evenodd" stroke-width="7.5" stroke-linecap="round" stroke-dashoffset="1" d="M0 0h500v300H0z"/><path fill="#d21034" fill-rule="evenodd" stroke-width="7.5" stroke-linecap="round" stroke-dashoffset="1" d="M0 150h500v150H0z"/><path fill="#fff" fill-rule="evenodd" stroke-linecap="round" overflow="visible" d="M202.68 112.284h94.64v75.34h-94.64z"/><path d="M356.938 303.72l-103.875 3.124-103.407 1.22c0-.002-53.126 20.365-74.844 24.936-21.653 4.557-18.837 11.93-35.593 15.813-13.422 3.108-14.97 4.09-22.845 4.625-4.765.324-10.635 4.124-16.375 8.312V420h509v-55.406c-5.517-3.117-10.775-5.26-16.156-7.156-7.478-2.635-12.517-5.517-25.938-8.625-16.756-3.882-13.94-11.256-35.594-15.813-21.717-4.57-74.374-29.28-74.375-29.28zM247.813 74.25l-2.5 50.563h15.593l-2.28-50.126 16.254-2.366-1.8-19.97-40.394 1.618.226 18.134 14.9 2.148z" fill="#016a16" fill-rule="evenodd" stroke="#016a16" transform="matrix(.186 0 0 .1794 202.68 112.284)"/><g transform="matrix(.186 0 0 .1794 202.68 112.284)"><g id="a"><g fill-rule="evenodd" stroke="#000"><path d="M210.97 213.298l-13.562-30.235 5.864-1.283 24.738 50.21-17.04-18.692z" fill="#f1b517"/><path d="M179.634 147.696l15.026 42.513h7.696l-22.722-42.514z" fill="#fff"/><path d="M225.08 174.084l7.512-.183 13.743 59.922-2.932 18.874-18.324-78.612z" fill="#f1b517"/><path d="M231.492 235.838l-23.09-64.32 8.614-.55 26.937 78.613-12.46-13.742z" fill="#f1b517"/><path d="M197.592 134.87l9.528 44.71h7.697l-17.225-44.71zM217.2 134.136l5.13 46.178 5.497-.366-10.628-45.812z" fill="#fff"/></g><g fill-rule="evenodd"><path d="M212.812 217.86l-61.503-69.596c-19.21 15.766-15.64 44.715-15.64 44.715l69.684 56.672 7.458-31.793z" fill="#0a328c" stroke="#000"/><path d="M248.373 256.16l-45.625-47.907c-19.29.694-3.984 30.544-3.012 34.29l48.637 43.116v-29.5z" fill="#d20014" stroke="#000"/><g fill="#f1b517" stroke="#000"><path d="M244.49 247.924L150.16 143.23l-3.682 2.694 99.826 114.958-1.814-12.958zM144.71 136.515l-2.072-2.485.207-4.97-19.465-12.838 8.698 20.293 6.626 1.242 2.07 2.485 3.935-3.727z"/><path d="M134.77 143.97c3.313-4.142 7.247-8.283 14.288-12.218l5.384 8.076-11.597 10.147-8.075-6.005z"/></g><path d="M185.94 236.3l-77.267-63.613c-13.23 13.953-2.23 57.037-2.23 57.037l75.52 42.408 3.978-35.83z" fill="#0a328c" stroke="#000"/><path d="M250.015 287.838l-63.56-52.774c-21.708 3.157-4.644 36.27-3.35 39.917l67.126 37.733-.215-24.875z" fill="#d20014" stroke="#000"/><g fill="#f1b517" stroke="#000"><path d="M247.493 277.175L110.06 170.245l-3.158 3.294 144.335 116.814-3.744-13.18zM103.526 164.58l-2.47-2.088-.66-4.93-21.4-9.264 12.09 18.475 6.74.073 2.472 2.087 3.228-4.354z"/><path d="M95.032 173.647c2.543-4.654 5.7-9.416 11.95-14.513l6.704 7.018-9.658 12.006-8.996-4.51z"/></g><path d="M180.41 275.203c-1.026-.257-99.59-58.212-99.59-58.212-7.175 12.558-.686 30.776 2.46 33.61.182 8.36-3.24 12.858 3.8 30.32 2.077 11.354 7.145 21.815 14.522 28.028 8.988 35.77 44.22 38.173 57.793 9.053l21.015-42.797z" fill="#0a328c" stroke="#000"/><path d="M245.638 313.45l-67.486-41c-21.707 3.158.46 44.906 1.754 48.553l65.163 23.994.568-31.547z" fill="#d20014" stroke="#000"/><g fill="#f1b517" stroke="#000"><path d="M234.292 298.59l-152.47-84.114-2.602 3.748 160.832 92.798-5.76-12.43zM74.484 209.903l-2.767-1.676-1.422-4.766-22.585-5.8 14.83 16.355 6.67-.982 2.767 1.675 2.507-4.805z"/><path d="M67.513 220.187c1.784-4.994 4.156-10.19 9.532-16.203l7.72 5.883-7.66 13.37-9.592-3.05z"/></g><path d="M124.407 161.635l3.162 5.72c1.957-.752 21.68-19.27 21.68-19.27l14.153-.453 4.065-4.667c-10.39-11.593-20.175 1.656-20.175 1.656l-22.886 17.015z" fill="#0a328c" stroke="#0a328c"/><path d="M135.7 171.27c.752-5.118 10.087-17.916 11.442-18.368 7.01 2.18 13.528 6.362 20.627-10.238-6.174 8.13-18.67-.15-18.67-.15l-5.42 4.667.15 2.26-16.41 15.808 8.28 6.023z" fill="#d20014" stroke="#d20014"/><path d="M87.372 191.53l.856 5.91c1.816-1.05 19.153-20.77 19.153-20.77l13.908-2.66 2.834-4.643c-9.666-11.783-19.97 3.888-19.97 3.888l-16.78 18.276z" fill="#0a328c" stroke="#0a328c"/><path d="M98.377 202.143c-.66-5.475 6.558-21.533 7.826-22.19 8.317 2.562 15.56 6.424 18.62-11.533-4.824 8.996-18.613 2.02-18.613 2.02l-4.624 5.457.653 2.96L88.2 197.64l10.175 4.503z" fill="#d20014" stroke="#d20014"/><g><path d="M61.423 239.14l3.19 6.503c1.652-1.292 16.153-25.522 16.153-25.522l13.403-4.568 2.522-5.653c-10.765-10.308-18.81 7.482-18.81 7.482l-16.46 21.757z" fill="#0a328c" stroke="#0a328c"/><path d="M75.79 248.365c-1.076-5.568 2.603-23.396 3.767-24.224 8.394 2.596 15.4 3.333 17.335-14.617-4.882 8.526-17.898 5.315-17.898 5.315l-3.82 6.048.805 2.116-11.073 22.024 10.884 3.34z" fill="#d20014" stroke="#d20014"/></g></g><path d="M233.175 337.278l-37.97-12.205-16.545-29.29-58.583-2.985 2.034 21.968 49.906 9.902 4.746 8.815 57.363 16.545-.95-12.75z" fill="#f1b517" fill-rule="evenodd" stroke="#000"/><g fill-rule="evenodd" stroke="#000"><path d="M193.52 345.46l-59.96-91.413-2.94 2.295 59.484 91.796 3.416-2.677z" fill="#503200"/><path d="M139.14 257.64l-6.4-11.105c-1.2-2.052-3.018-2.733-5.692-1.272-2.604 1.422-2.35 4.232-1.29 6.26l5.918 10.324 7.465-4.208z" fill="#fff"/></g><g fill-rule="evenodd" stroke="#000"><g fill="#f1b517"><path d="M200.643 289.01l-120.99-12.746-2.94 18.236 120.4 12.55 3.53-18.04z"/><path d="M77.496 271.557l-3.137 25.296h5.097l3.53-23.14-5.49-2.156zM97.694 275.675l-1.373 22.747 3.14.392 2.548-20.197-4.314-2.942zM179.66 285.48l-2.94 21.374 5.882-.196 2.353-21.178h-5.294zM197.688 286.063L193.5 310.78l6.656 1 1.906-13c.535 2.613 2.856 4.595 5.625 4.595 3.166 0 5.75-2.585 5.75-5.75s-2.584-5.72-5.75-5.72c-2.2 0-4.197 1.34-5.062 3.83l1.25-9.266-6.188-.408z"/></g><g fill="#f1b517"><path d="M154.02 290.077l-16.638 19.412 1.94 2.356 21.354-15.114-6.655-6.655zM115.335 338.47l16.64-19.414-1.942-2.357-21.354 15.113 6.655 6.656zM158.874 333.616l-20.244-16.224-2.08 1.526 15.946 20.937 6.378-6.24zM108.957 296.178l20.52 15.668 2.497-1.94-16.084-20.94-6.933 7.212zM131.287 283.25l1.96 25.49 2.763-.12 6.492-24.816-11.215-.555zM138.012 345.1l-1.96-25.492-3.04-.294-3.72 25.786h8.72zM165.228 310.743l-25.786 2.843-.393 2.55 26.08 3.53.098-8.923zM103.874 319.567l25.175-4.125.53-2.028-26.04-3.016.334 9.17z"/><path d="M141.36 313.655c0 3.772-3.057 6.83-6.83 6.83-3.77 0-6.83-3.058-6.83-6.83 0-3.772 3.06-6.83 6.83-6.83 3.773 0 6.83 3.058 6.83 6.83z" stroke-width=".99963872" stroke-linecap="round" overflow="visible"/><path d="M170.806 313.655c0 20.024-16.25 36.276-36.275 36.276-20.023 0-36.275-16.25-36.275-36.275 0-20.024 16.252-36.275 36.276-36.275 20.025 0 36.276 16.25 36.276 36.275zm-7.246 0c0 16.024-13.005 29.03-29.03 29.03-16.023 0-29.028-13.006-29.028-29.03s13.005-29.03 29.03-29.03c16.023 0 29.028 13.006 29.028 29.03z" stroke-linecap="round" overflow="visible"/></g><path d="M111.87 295.346l-5.686-4.437M152.496 291.047l4.853-5.13M162.895 336.805l-5.962-4.853M111.87 342.35l5.13-5.684" fill="none"/></g><g fill-rule="evenodd" stroke="#000"><path d="M234.04 277.83l6.21 32.815-5.065 2.766-5.45-35.11 4.305-.47z" fill="#f1b517"/><path d="M230.79 273.605c-2.88-1.248-6.623.864-12.767-7.2-10.102 9.6-.576 11.04.96 20.543 2.857 1.217 4.617-7.374 12.384-8.255.96-.096 12.358-1.133 12.358-1.133l-2.86-4.042s-7.93.216-10.074.087z" fill="#fff"/><path d="M234.92 280.037l-1.153-9.792c-1.248-3.456-5.376-.48-5.376 1.536l1.057 9.025 5.472-.768z" fill="#fff"/></g><g fill="#f1b517" fill-rule="evenodd" stroke="#000" stroke-width="1.092" stroke-linecap="round"><path d="M164.544 361.08c.002 1.423-.756 2.74-1.988 3.45-1.232.713-2.75.713-3.982 0-1.232-.71-1.99-2.027-1.988-3.45-.002-1.423.756-2.738 1.988-3.45 1.232-.712 2.75-.712 3.982 0 1.232.712 1.99 2.027 1.988 3.45zM154.362 353.613c.002 1.423-.756 2.74-1.988 3.45-1.232.713-2.75.713-3.982 0-1.232-.71-1.99-2.027-1.988-3.45-.002-1.422.756-2.738 1.988-3.45 1.232-.712 2.75-.712 3.982 0 1.232.712 1.99 2.028 1.988 3.45zM140.65 358.5c.002 1.424-.756 2.74-1.988 3.45-1.232.713-2.75.713-3.982 0-1.232-.71-1.99-2.026-1.988-3.45-.002-1.422.756-2.738 1.988-3.45 1.232-.712 2.75-.712 3.982 0 1.232.712 1.99 2.028 1.988 3.45zM119.47 363.252c.003 1.423-.755 2.74-1.987 3.45-1.23.713-2.75.713-3.982 0-1.23-.71-1.99-2.027-1.987-3.45-.002-1.423.756-2.738 1.988-3.45 1.233-.712 2.752-.712 3.983 0 1.232.712 1.99 2.027 1.988 3.45zM110.51 364.338c.003 1.423-.755 2.74-1.987 3.45-1.232.713-2.75.713-3.982 0-1.23-.71-1.99-2.027-1.987-3.45-.002-1.422.756-2.738 1.988-3.45 1.233-.712 2.75-.712 3.983 0 1.232.712 1.99 2.028 1.988 3.45zM101.687 364.338c.002 1.423-.756 2.74-1.988 3.45-1.233.713-2.75.713-3.983 0-1.232-.71-1.99-2.027-1.988-3.45-.003-1.422.755-2.738 1.987-3.45 1.232-.712 2.75-.712 3.982 0 1.23.712 1.99 2.028 1.987 3.45zM92.727 364.067c.002 1.423-.756 2.738-1.988 3.45-1.233.712-2.75.712-3.983 0-1.232-.712-1.99-2.027-1.988-3.45-.003-1.423.755-2.74 1.987-3.45 1.232-.713 2.75-.713 3.982 0 1.23.71 1.99 2.027 1.987 3.45zM97.07 357.007c.003 1.423-.755 2.74-1.987 3.45-1.232.713-2.75.713-3.982 0-1.23-.71-1.99-2.027-1.987-3.45-.002-1.422.756-2.738 1.988-3.45 1.233-.712 2.75-.712 3.983 0 1.232.712 1.99 2.028 1.988 3.45zM105.76 357.415c.002 1.423-.756 2.738-1.988 3.45-1.232.712-2.75.712-3.982 0-1.232-.712-1.99-2.027-1.988-3.45-.002-1.423.756-2.74 1.988-3.45 1.232-.713 2.75-.713 3.982 0 1.232.71 1.99 2.027 1.988 3.45zM114.04 356.33c.003 1.42-.755 2.737-1.987 3.45-1.232.71-2.75.71-3.982 0-1.23-.713-1.99-2.03-1.987-3.45-.002-1.424.756-2.74 1.988-3.452 1.233-.712 2.75-.712 3.983 0 1.232.712 1.99 2.028 1.988 3.45zM109.833 349.405c0 1.423-.757 2.738-1.988 3.45-1.232.712-2.75.712-3.983 0-1.232-.712-1.99-2.027-1.988-3.45-.002-1.423.756-2.74 1.988-3.45 1.232-.713 2.75-.713 3.983 0 1.23.71 1.99 2.027 1.988 3.45zM101.687 349.27c.002 1.422-.756 2.737-1.988 3.45-1.233.71-2.75.71-3.983 0-1.232-.713-1.99-2.028-1.988-3.45-.003-1.424.755-2.74 1.987-3.45 1.232-.713 2.75-.713 3.982 0 1.23.71 1.99 2.026 1.987 3.45z" overflow="visible" stroke-width="1.00019556"/></g><g fill-rule="evenodd" stroke="#000"><path d="M169.928 334.727c-3.423-1.434-3.39 6.532-3.39 6.532l5.393.057c2.36 1.11 4.258 4.698 2.754 6.46-1.244 1.455-11.71-2.46-12.413-.21 1.852 10.825 15.688 14.99 20.695 10.255 4.897-4.63 6.137-16.99-9.775-20.228l-3.262-2.867z" fill="#fff"/><path d="M173.128 337.666l-1.572 3.562" fill="none"/></g><g fill-rule="evenodd"><path d="M65.956 338.777l-5.18-22.573M72.247 337.48l-7.956-17.575M85.938 332.856l-17.947-9.99M93.71 330.82l-33.305-14.986" fill="none" stroke="#000"/><path d="M40.53 299.518s-12.12-.198-14.282.68c-.872.355 3.05 4.597 2.235 6.22-3.028 6.032-23.633 5.205-25.262 3.885-2.786-2.258 19.192-4.195 19.336-5.732.166-1.763-3.25-6.392-2.72-9.23.687-3.682 9.62-5.052 9.62-5.052l11.075 9.23z" fill="#d20014" stroke="#d20014"/><path d="M56.763 310.878l-27.44-23.537s-1.21-1.327-2.22-.184c-.99 1.12.37 2.405.37 2.405L55.78 313.8l.983-2.922z" fill="#503200" stroke="#000"/><path d="M83.186 334.108c-.486-.486-22.348-20.112-22.348-20.112l-1.457-5.733s-3.376 2.37-4.614 3.595c-1.24 1.224-3.158 4.567-3.158 4.567l6.12.29 19.336 18.365 6.122-.972z" fill="#f1b517" stroke="#000"/></g><path d="M204.833 307.097l.102 9.125c-2.882 1.022-2.442 3.26-2.35 6.514l.102 26.597c-1.022 1.766-4.182 1.848-5.67 3.232-1.486 1.383-1.3 4.068 5.484 5.834l5.248.193c7.993-1.812 9.643-4.556 5.635-6.103-2.132-.823-4.938-1.805-6.007-3.106l.178-6.337 5.187.195c1.396 0 4.048-3.633 4.14-6.608l.027-13.77c-.186-7.81-5.838-8.687-7.418-8.594l.108-7.19-4.765.017zm8.77 15.22c.093-2.23-2.988-4.22-4.23-4.276-1.24-.055-3.95 2.603-4.042 4.834v5.577c.187 2.045 1.763 8.972 4.927 9.48 1.5.242 3.44-2.23 3.44-4.274l-.094-11.34z" fill="#f1b517" fill-rule="evenodd" stroke="#000"/><g fill-rule="evenodd" stroke="#000"><path d="M253.518 53.597c-41.756-43.32-74.638-22.183-82.467-16.18 5.176 1.047 9.82-2.294 12.225-2.68-1.506 1.972-4.656 6.855-4.656 6.855s12.91-6.318 14.352-5.74c-1.86 1.537-3.914 5.218-3.914 5.218.96.385 8.222-5.893 9.656-6.002-2.212 2.596-2.898 8.516-2.898 8.516l6.29-3.036c1.635 1.202-.454 3.514.967 3.393 10.456-.89 25.158 9.908 27.177 13.226" fill="#016a16"/><path d="M243.18 61.53c-4.352-10.337-83.834-27.903-99.818 1.36 6.256 1.63 12.24-5.44 12.24-5.44l-.545 6.527 10.608-8.432-3.808 8.704 8.43-7.073-.27 7.072 10.335-11.697-1.36 6.8 9.247-4.08-1.09 5.712" fill="#016a16"/><path d="M239.644 63.16c-20.4-14.142-51.95-4.623-51.95-4.623-20.125 11.695-30.853 9.585-33.452 31.278 1.903-.816 7.343-7.616 7.343-7.616l4.08 8.43 1.36-11.966 3.263 9.247 4.896-15.23 1.088 10.335 7.616-10.335 3.535 2.992 3.264-7.888 2.992 5.168s5.166-3.264 8.158-1.36l5.712-6.8 1.36 4.896 4.895-5.983 1.904 4.35 4.895-4.622-.272 3.263 16.863.272" fill="#016a16"/><path d="M235.03 65.612c-14.217-.276-55 15.673-65.548 32.365 4.2-2.43 6.79-3.54 6.79-3.54l2.08 6.71 2.544-6.71.544 5.17c1.56-4.036 3.32-4.492 6.255-.273l1.088-6.255 1.632 5.982 2.72-6.527s1.71 7.074 2.72 6.8c0 0 4.51-12.234 6.527-12.784l.544 7.616 2.72-7.615 2.448 5.713.544-8.16 2.72 6.256s1.426-6.152 3.535-7.345l4.08 3.808 18.165-13.528" fill="#016a16"/><path d="M237.76 69.093c-18.936 7.523-35.873 34.444-34.576 45.858 8.415-10.823 6.602-9.332 10.364 3.12 0 0 1.423-10.895 2.85-12.192l2.47 8.064.917-10.547 2.526.12-.648-6.614 3.762 2.984c-.88-3.782-1.816-5.058 2.075-8.3 0 0-4.93.647-1.04-8.562l3.633 3.632s-.648-4.02.65-5.577l13.358-4.8" fill="#016a16"/><path d="M239.595 71.11l-7.154 14.125 3.67 1.1-8.254 6.42 6.97-.733s-10.64 4.036-11.923 14.858l10.822-4.952s-9.17 9.72-10.455 15.59l6.236-5.685s-6.053 6.787-5.136 17.06l4.586-5.32c-1.1 12.473-.734 13.574 4.77 23.112 0 0-1.468-14.675.183-16.51l12.105 13.025-6.787-18.527s7.52 11.74 12.107 10.64l-9.54-15.042 9.357 7.888-10.64-16.51 9.906 3.12s-7.154-9.355-6.604-15.225l6.787 7.704s-2.567-8.805-1.833-11.373l3.485.734-6.787-8.07 4.586-.918-.55-5.32 3.302-1.1-.183-5.87" fill="#016a16"/><path d="M246.75 75.33c-11.74 16.51-5.687 42.006-12.658 55.03" fill="none"/></g><path d="M181.735 366.293c0-1.765-4.134-1.006-4.134-3.07 0-2.295 6.305-.608 7.176 1.41 3.548-3.323 5.077-.894 7.25.11 3.096-4.77 6.922-4.59 10.657-1.1 2.16-2.468 7.58-1.65 9.447 1.1 3.575-3.674 6.75-2.77 9.228-.11.997-1.932 2.46-1.51 3.515-.11 1.905-3.502 6.68-2.45 8.69-.14 1.788-2.035 3.62-.445 5.99 1.06 1.602-1.554 4.186-1.26 4.186.283 0 1.61-3.377 1.044-3.377 2.642 0 1.426 2.463.705 2.463 2.51 0 1.418-3.656 1.95-4.22-.313-1.24 2.45-5.712 1.51-6.153-.77-1.488 1.863-4.824 2.43-6.7-.328-1.542 1.3-3.386 1.485-4.233.173-2.78 3.1-7.47 2.462-9.084-.954l-1.578.07c-2.732 3.844-7 2.068-8.175-.058-4.586 3.43-7.326 2.35-9.887.11-2.943 3.716-7.426 3.456-8.46 0-1.98 1.495-6.11 1.847-6.11.098 0-1.677 3.51-1.067 3.51-2.613zm8.9.834c0 .8-1.05 1.447-2.34 1.447-1.293 0-2.34-.648-2.34-1.447 0-.798 1.047-1.446 2.34-1.446 1.29 0 2.34.65 2.34 1.447zm9.79-1.214c0 .96-1.263 1.74-2.818 1.74-1.555 0-2.817-.78-2.817-1.74s1.262-1.74 2.817-1.74c1.555 0 2.817.78 2.817 1.74zm19.225 1.1c0 .97-1.14 1.76-2.548 1.76-1.407 0-2.55-.79-2.55-1.76 0-.974 1.143-1.763 2.55-1.763 1.407 0 2.548.79 2.548 1.762zm-10.237-.464c0 1.228-1.116 2.226-2.493 2.226-1.376 0-2.492-.998-2.492-2.227 0-1.23 1.116-2.228 2.492-2.228 1.377 0 2.493.998 2.493 2.227zm21.834.057c0 1.1-1 1.99-2.23 1.99s-2.227-.89-2.227-1.99.998-1.99 2.228-1.99c1.23 0 2.23.89 2.23 1.99zm-6.69.463c0 .71-.644 1.286-1.44 1.286-.794 0-1.44-.576-1.44-1.286 0-.71.646-1.287 1.44-1.287.796 0 1.44.576 1.44 1.287zm13.026.52c0 1.02-.727 1.848-1.623 1.848s-1.623-.828-1.623-1.848.727-1.848 1.623-1.848 1.623.828 1.623 1.848z" fill="#f1b517" fill-rule="evenodd" stroke="#000"/></g><use transform="matrix(-1 0 0 1 508.238 0)" width="509" height="420" xlink:href="#a"/></g><g fill-rule="evenodd" stroke="#000"><path d="M259.585 302.43s6.393-55.437 6.377-79.3c-.012-18.78-4.377-60.4-4.377-60.4h-18.378s-2.796 41.413-2.377 60.144c.534 23.87 6.377 79.557 6.377 79.557h12.378z" fill="#f1b517" transform="matrix(.186 0 0 .1794 202.68 112.284)"/><path d="M241.988 165.397h21.296l-2.5-14.862h-15.436l-3.36 14.862z" fill="#f1b517" transform="matrix(.186 0 0 .1794 202.68 112.284)"/><path d="M243.352 153.482h19.03l-3.586-14.86h-11.722l-3.722 14.86z" fill="#f1b517" transform="matrix(.186 0 0 .1794 202.68 112.284)"/><path d="M244.575 141.434h15.86l-2.68-14.862h-10.092l-3.088 14.862z" fill="#f1b517" transform="matrix(.186 0 0 .1794 202.68 112.284)"/><path d="M258.313 124.813H247.22l-1.126 5.374h13.125l-.908-5.375z" fill="#f1b517" transform="matrix(.186 0 0 .1794 202.68 112.284)"/><path d="M260.587 290.347h-14.093M261.358 279.49h-15.814M263.45 268.475h-20.045M264.48 256.475h-20.977M264.63 244.475h-22.06M265.49 233.508h-23.93M265.54 223.524h-25.012M265.39 211.475h-25.01M264.555 199.573H240.38M263.45 187.475h-21.865M262.39 176.557h-19.747" fill="none" transform="matrix(.186 0 0 .1794 202.68 112.284)"/></g><g fill-rule="evenodd"><path d="M773.625 297.875c-13.508 0-24.47 5.262-24.47 11.72 0 1.106.305 2.17.908 3.186 2.92 3.508 12.406 6.064 23.656 6.064 10.522 0 19.49-2.245 23-5.406.883-1.21 1.374-2.492 1.374-3.844 0-6.457-10.96-11.72-24.47-11.72z" fill="#0a328c" stroke="#0a328c" stroke-width="1.265" stroke-linecap="round" overflow="visible" transform="matrix(.186 0 0 .1794 105.992 112.284)"/><path d="M798.31 310.49v39.347c0 4.613-11.016 8.358-24.59 8.358-13.575 0-24.592-3.745-24.592-8.358V310.49c0 4.614 11.017 8.358 24.592 8.358 13.574 0 24.59-3.744 24.59-8.357z" fill="#f1b517" stroke="#000" stroke-width="1.023" stroke-linecap="round" overflow="visible" transform="matrix(.186 0 0 .1794 105.992 112.284)"/><path d="M749.125 310.5v6.03l11.938 38.158 9.53-29.344 10.47 30.47 7.66-28.76 9.59 19.333v-10.7l-8.907-18.75c-1 .283-2.064.524-3.187.75l-5.533 21.25-7.78-20.093c-1.304-.015-2.6-.044-3.845-.125l-7.812 20.217-8.938-24.343c-2.02-1.214-3.187-2.6-3.187-4.094z" fill="#d20014" stroke="#d20014" transform="matrix(.186 0 0 .1794 105.992 112.284)"/><g stroke-width="1.023" stroke-linecap="round"><path d="M798.31 342.49v7.347c0 4.613-11.016 8.358-24.59 8.358-13.575 0-24.592-3.745-24.592-8.358v-7.346c0 4.614 11.017 8.358 24.592 8.358 13.574 0 24.59-3.744 24.59-8.357z" fill="#0a328c" stroke="#0a328c" overflow="visible" transform="matrix(.186 0 0 .1794 105.992 112.284)"/><path d="M263.844 350.094c-2 .308-4.134.54-6.375.656l.06 7.344c2.243-.12 4.378-.346 6.376-.656l-.062-7.344zM237.656 348.813l-.062 7.312c1.898.563 4.032 1.03 6.375 1.375v-7.344c-2.316-.34-4.432-.79-6.314-1.344zM229.125 342.5v7.344c0 1.37.997 2.64 2.72 3.78l.124-7.25c-1.808-1.162-2.845-2.468-2.845-3.874zM278.313 343.28l-.125.033c-.43 1.49-2.037 2.874-4.47 4.03l.032 7.313c2.852-1.364 4.563-3.012 4.563-4.812v-6.563z" transform="matrix(.186 0 0 .1794 202.68 112.284)" fill="#f1b517" stroke="#000" overflow="visible"/></g><path d="M798.31 310.748v39.09c0 4.612-11.016 8.357-24.59 8.357-13.575 0-24.592-3.745-24.592-8.358v-39.09" fill="none" stroke="#000" stroke-width="1.023" stroke-linecap="round" overflow="visible" transform="matrix(.186 0 0 .1794 105.992 112.284)"/><path d="M792.063 307.556c0 5.268-10.102 9.538-22.562 9.538s-22.562-4.27-22.562-9.538c0-5.268 10.102-9.54 22.563-9.54 12.46 0 22.563 4.272 22.563 9.54z" transform="matrix(.1568 0 0 .095 129.21 138.264)" fill="#fff" stroke="#fff" stroke-width="1.569" stroke-linecap="round" overflow="visible"/><path d="M247.5 311.656l.844 6.97c1.65.124 3.367.212 5.125.218l1.25-7.188h-7.22zM269.563 309.97l-4.907 1.374.313 6.562c1.667-.293 3.237-.652 4.655-1.062l-.063-6.875zM240.5 299.33c-1.392.426-2.694.922-3.875 1.47l.688 5.262 3.125-1.03.062-5.702zM253.625 297.254c-.654 0-1.296.038-1.938.062l1.063 6.592 3.25-.062 1.28-6.436c-1.194-.086-2.41-.156-3.655-.156zM268 299.58l-.656 5.764 3.72 1.362.405-5.656c-1.057-.54-2.22-1.032-3.47-1.47z" transform="matrix(.186 0 0 .1794 202.68 112.284)" fill="#f1b517" stroke="#000" stroke-width="1.265" stroke-linecap="round" overflow="visible"/><path d="M232.95 315.058l.99-7.178-5.027-2.823.15 8.17 3.888 1.83zM278.14 313.51l.225-7.178-4.71 1.458 4.486 5.72z" transform="matrix(.186 0 0 .1794 202.68 112.284)" fill="#f1b517" stroke="#000"/></g><g transform="matrix(.186 0 0 .1794 202.68 112.284)"><use transform="matrix(1 0 0 -1 -.012 534.063)" width="509" height="420" xlink:href="#b" fill="#016a16"/><path d="M188.076 269.236c0 2.512-4.077 4.55-9.1 4.55-5.024 0-9.1-2.038-9.1-4.55v-2.47h18.2v2.47z" transform="matrix(1.0746 0 0 2.8825 -10.215 -500.305)" fill="#016a16" fill-rule="evenodd" stroke="#fff" stroke-width=".564" stroke-linecap="round" overflow="visible"/><path d="M191.818 266.354c.005 2.765-4.345 5.008-9.712 5.008s-9.717-2.243-9.712-5.008c-.005-2.765 4.345-5.008 9.712-5.008s9.717 2.243 9.712 5.008z" fill="#fff" fill-rule="evenodd" stroke-width=".692" stroke-linecap="round" overflow="visible"/><path d="M179.885 271.994l-1.668-18.38h7.432l-1.214 18.38h-4.55z" fill="#016a16" fill-rule="evenodd" stroke="#f1b517"/><path d="M192.856 266.656c-1.425 2.75-5.704 4.75-10.75 4.75s-9.294-2-10.72-4.75c-.328.635-.53 1.3-.53 2 0 3.73 5.04 6.75 11.25 6.75s11.25-3.02 11.25-6.75c0-.7-.17-1.365-.5-2z" id="b" fill="#016a16" fill-rule="evenodd" stroke="#fff" stroke-width="1.299" stroke-linecap="round" overflow="visible"/></g><g fill="#f1b517" fill-rule="evenodd" stroke="#000"><path d="M694.53 304.688l19.658 2.062 3.062-18.094-23.063-2.437" transform="matrix(.186 0 0 .1794 105.992 112.284)"/><path d="M699.66 285.48l-2.94 21.374 5.882-.196 2.353-21.178h-5.294z" transform="matrix(.186 0 0 .1794 105.992 112.284)"/></g><g fill-rule="evenodd"><path d="M328.107 266.16c4.47-.64 11.093 5.71 11.49 13.565.316 6.232-9.096 5.904-9.096 5.904-.478 2.553-5.668 4.915-9.893 5.106-4.1.185 1.117-7.98 1.117-7.98-2.553-7.02.798-15.32.798-15.32l5.585-1.276z" fill="#f1b517" stroke="#000" transform="matrix(.186 0 0 .1794 202.68 112.284)"/><path d="M321.724 282.438l4.31-.16s.328 2.303 1.116 2.394c.847.097 1.755-2.234 1.755-2.234l6.543-.16" fill="none" stroke="#000" transform="matrix(.186 0 0 .1794 202.68 112.284)"/><path d="M330.5 270.788c3.657-2.74.453-8.252-2.074-8.3l-5.904.16c-2.783.06-7.487 3.193-6.862 5.906.545 2.365 2.076 3.443 4.468 3.032 1.086-.187 3.367-3.14 4.468-3.192 1.478-.07 4.722 3.28 5.905 2.394z" fill="#d20014" stroke="#f1b517" transform="matrix(.186 0 0 .1794 202.68 112.284)"/></g><g fill-rule="evenodd"><path d="M254.01 37.685c-3.7-1.806-12.075-7.317-9.59-10.607l3.836-6.77c5.436-12.692-.098-7.775-.677-11.737-.556-3.803 20.783-.832 21.1 7.788.09 2.374-1.582.98-1.353 14.557l-4.062 8.124c-3.04.293-6.637-.078-9.254-1.355z" fill="#0a328c" stroke="#0a328c" transform="matrix(.186 0 0 .1794 202.68 112.284)"/><path d="M256.607 70.523l-5.304-4.627 1.467-39.608 5.19 1.58-1.353 42.655z" fill="#f1b517" stroke="#000" transform="matrix(.186 0 0 .1794 202.68 112.284)"/><path d="M263.49 38.814c3.33-2.02 5.51-8.045 3.498-11.623-5.464-7.176-9-4.215-18.167-7.447-1.827 2.018-5.677 5.902-4.852 8.802 12.06 5.884 7.377.872 11.367 1.606 2.15.396 3.54 3.04 8.155 8.664z" fill="#d20014" stroke="#d20014" transform="matrix(.186 0 0 .1794 202.68 112.284)"/></g><path d="M62.188 348.813c-3.317.435-3.932 4.395-2.688 8.03-14.448 4.21-27.355 9.698-40.094 13.407-.512-2.64 6.313-10.28 6.313-10.28 1.804.9 3.155 5.186 3.155 5.186.45-8.802 8.812-14.656 8.813-14.656-4.966-.677-20.07 5.392-21.876 7.875 0 0 5.848-.677 6.75 0 0 0-11.514 12.887-12.03 16.72 1.79 4.186 21.655 7.31 21.655 7.31-.313 1.085-5.843 5.19-5.843 5.19 7.9 1.798 19.817-4.004 23.375-7.533 0 0-9.295-.794-16.532-6.875 0 0 1.492 3.787.593 5.594 0 0-11.29-3.373-12.468-5.31.03-.17 26.71-7.33 39.626-11.158.478 2.393 3.043 6.912 6.124 5.844 2.01-.696 1.374-4.826.626-7.75.726.647 1.67 1.03 2.718 1.03 2.27.002 4.125-1.82 4.125-4.092 0-2.27-1.853-4.125-4.124-4.125-1.816 0-3.33 1.178-3.875 2.81-.513-2.523-1.855-7.544-4.343-7.217zm10.157 8.516c0 1.062-.862 1.924-1.924 1.924-1.062 0-1.924-.862-1.924-1.925 0-1.063.862-1.925 1.925-1.925 1.063 0 1.925.862 1.925 1.924z" fill="#f1b517" fill-rule="evenodd" stroke="#000" transform="matrix(.186 0 0 .1794 202.68 112.284)"/><g fill="#f1b517" fill-rule="evenodd" stroke="#000"><path d="M486.127 365.7c.984-2.045-.87-12.33-.87-12.33-2.006.23-4.745 3.796-4.745 3.796 2.587-8.425-4.652-22.508-4.652-22.508 4.897 1.062 21.22 17.44 22.066 20.39 0 0-7.147-2.644-8.227-2.316 1.165 8.394 6.765 12.294 8.868 16.658 0 0-9.28 2.113-8.348 10.157l-6.062.116c-2.1-2.68.816-7.11.816-7.11l-41.62-18.07c-2.68-1.167-8.714-4.005-7.81-7.346.91-3.368 10.842 1.4 13.29 2.215l37.293 16.347z" transform="matrix(.186 0 0 .1794 202.68 112.284)"/><path d="M446.152 358.212l4.897-9.326c1.748-2.448-1.866-5.13-4.43-1.982l-5.48 8.51c-2.45 4.664 2.68 5.946 5.012 2.798z" transform="matrix(.186 0 0 .1794 202.68 112.284)"/></g><g><g fill="#fff" fill-rule="evenodd" stroke="#000"><path d="M154.288 379.535l-.34-10.173-11.868.678-.678 11.077 12.886-1.582z" transform="matrix(.186 0 0 .1794 202.68 112.284)"/><path d="M67.54 393.796l-15.87-9.227c65.445 6.216 78.81-17.444 94.624-18.71 9.72-.787 11.24 11.16-7.598 5.477l4.872 12.494s-46.46 27.09-92.124 15.9l16.096-5.934z" transform="matrix(.186 0 0 .1794 202.68 112.284)"/><path d="M155.588 379.535l-.34-10.173-14.516.347-.678 11.076 15.534-1.25z" transform="matrix(-.186 0 0 .1794 297.178 112.284)"/><path d="M65.823 391.3l-14.934-8.447c74.964 2.315 57.897-12.762 95.404-16.993 9.692-1.09 16.978 11.822-7.598 5.477l4.872 12.494-11.79.013c-25.536 17.43-60 18.986-82.832 13.39l16.877-5.934z" transform="matrix(-.186 0 0 .1794 297.178 112.284)"/><path d="M138.43 371.405v17.584s41.563 15.984 115.732 15.984c74.49 0 115.732-15.985 115.732-15.985v-17.585s-31.457 15.026-115.732 15.026c-83.955 0-115.73-15.025-115.73-15.025z" transform="matrix(.186 0 0 .1794 202.68 112.284)"/></g><path d="M229.583 182.086l.682-2.31.317.088-.602 2.037 1.18.325-.08.272-1.497-.41zm2.237-1.016l.038-.453.102-.39.337.083-.102.39-.193.415-.182-.045zm3.326-.155l.323.063-.288 1.36c-.05.236-.117.418-.202.547-.085.128-.21.22-.372.28-.163.06-.363.065-.598.02-.228-.046-.407-.12-.537-.225-.13-.105-.21-.235-.24-.39-.033-.157-.022-.36.03-.61l.287-1.36.323.065-.287 1.358c-.043.204-.055.358-.036.463.02.105.07.192.156.264.085.07.197.12.335.148.24.046.42.027.542-.057.123-.082.215-.272.277-.567l.286-1.358zm.363 2.51l.4-2.37.335.053.975 2.064.315-1.86.312.048-.402 2.37-.333-.052-.975-2.066-.316 1.862-.31-.05zm2.54.384l.343-2.38.327.044-.342 2.378-.327-.043zm.94-1.05c.046-.397.193-.694.44-.894.247-.2.545-.28.894-.242.228.025.428.1.6.226.17.125.292.287.366.486.074.2.096.418.068.656-.03.242-.105.453-.23.633-.122.18-.283.31-.48.386-.198.08-.404.106-.618.083-.233-.026-.435-.103-.605-.232-.17-.128-.292-.29-.365-.49-.072-.197-.096-.4-.07-.61zm.336.042c-.034.287.02.522.16.705.14.184.332.29.574.315.246.027.46-.034.638-.183.18-.15.287-.38.323-.686.024-.195.01-.368-.04-.52-.052-.153-.138-.276-.26-.37-.12-.094-.264-.15-.427-.168-.232-.026-.44.03-.625.164-.185.135-.3.382-.342.742zm2.31 1.416l.202-2.394.337.027 1.144 1.983.158-1.88.315.026-.203 2.392-.336-.027-1.144-1.983-.16 1.88-.315-.024zm3.49.242l.108-2.4 1.68.072-.014.283-1.35-.057-.033.743 1.167.05-.012.284-1.168-.05-.05 1.09-.328-.014zm1.834.08l1.004-2.384.355.006.97 2.42-.376-.007-.275-.732-1.042-.02-.288.722-.35-.006zm.738-.974l.844.016-.247-.67c-.075-.203-.13-.37-.166-.5-.036.152-.084.304-.145.455l-.287.7zm1.914 1.01l.005-2.4h.33l-.005 2.402h-.33zm1.543-.006l-.03-2.117-.822.01-.004-.282 1.972-.027.005.284-.824.01.03 2.12-.328.003zm2.443-.057l-.116-2.4.33-.014.1 2.115 1.226-.055.014.283-1.554.07zm1.675-.073l.777-2.46.354-.025 1.193 2.325-.374.026-.343-.706-1.04.072-.218.744-.35.024zm.644-1.033l.842-.058-.31-.646c-.093-.197-.164-.358-.212-.485-.02.155-.054.31-.1.466l-.22.72zm2.923.758l-.273-2.387 1.67-.178.032.282-1.343.143.084.74 1.163-.124.032.282-1.162.124.124 1.084-.327.035zm1.826-1.37c-.06-.395.005-.72.192-.972.187-.254.454-.405.8-.452.23-.03.442-.006.64.073.198.08.36.207.483.38.124.176.204.382.24.62.034.24.016.463-.057.668-.073.205-.194.368-.365.492-.17.123-.362.2-.576.23-.232.03-.448.005-.647-.078-.198-.083-.36-.21-.48-.385-.122-.175-.2-.367-.23-.575zm.337-.042c.042.287.155.5.34.644.183.143.396.198.637.165.245-.034.435-.145.57-.333.133-.19.177-.437.132-.743-.028-.193-.087-.357-.176-.492-.09-.135-.205-.234-.348-.295-.142-.062-.295-.08-.457-.06-.23.033-.417.137-.56.313-.145.176-.19.442-.137.8zm2.614.806l-.444-2.363 1.086-.19c.217-.04.387-.047.51-.024.12.022.225.082.313.177.09.096.145.208.17.338.03.168 0 .32-.09.454-.09.135-.25.238-.48.31.094.025.166.053.218.084.11.067.22.156.33.267l.546.568-.407.073-.418-.435c-.122-.125-.22-.22-.295-.285-.076-.064-.14-.107-.195-.13-.054-.02-.107-.033-.16-.036-.038 0-.098.006-.182.02l-.376.066.197 1.05-.323.056zm.076-1.377l.697-.122c.148-.025.26-.06.34-.105.077-.044.132-.102.163-.175.03-.072.04-.147.025-.223-.02-.112-.08-.196-.178-.254-.098-.057-.237-.07-.42-.038l-.774.136.147.783zm3.933-.262l.34.01c-.01.27-.085.49-.23.66-.142.173-.34.286-.594.34-.262.058-.486.053-.674-.015-.188-.067-.348-.19-.48-.365-.13-.176-.222-.376-.274-.6-.057-.244-.058-.467-.004-.67.054-.203.16-.37.316-.504.156-.133.34-.222.556-.27.243-.052.46-.036.655.047.193.083.348.226.463.428l-.3.142c-.095-.158-.206-.265-.33-.32-.127-.054-.27-.063-.433-.028-.187.04-.333.117-.438.23-.106.114-.167.25-.184.406-.017.156-.007.312.03.466.045.2.116.367.21.502.096.136.215.227.36.273.144.047.29.053.438.02.18-.038.32-.12.422-.248.102-.127.15-.294.15-.5zm.915.654l-.67-2.313 1.735-.466.08.273-1.417.38.205.71 1.326-.357.078.27-1.327.358.23.787 1.47-.396.08.272-1.79.482z" style="text-align:start;line-height:100%;-inkscape-font-specification:Arial" font-size="18.7" font-family="Arial"/><path d="M228.428 181.71s7.73 2.868 21.526 2.868c13.855 0 21.526-2.868 21.526-2.868" fill="none" fill-rule="evenodd"/></g></svg>