<svg xmlns="http://www.w3.org/2000/svg" height="900" width="1575" xmlns:xlink="http://www.w3.org/1999/xlink" viewBox="-157.5 0 315 180"><title>Flag of Iran</title><path fill="#239f40" d="M-157.5 0h315v180h-315z"/><path fill="#FFF" d="M-157.5 60h315v60h-315z"/><path fill="#da0000" d="M-157.5 120h315v60h-315z"/><g id="e"><g id="d"><g id="c" transform="translate(0 55.1)" stroke="#FFF" stroke-linecap="square" fill="none"><path id="a" d="M-12.6-4.2H4.2m-16.8 5.6v-2.8H-7v2.8h5.6v-2.8h-2.8m8.4 2.8H1.4v-2.8H7v-2.8m0 2.8v2.8h5.6v-5.6m-2.8 0v5.6m-19.6 0" stroke-width="1.4"/><path id="b" transform="scale(1.4 2)" d="M-9 2.25h8m2 0h8"/><use xlink:href="#a" transform="translate(0 72.6)" height="180" width="315"/><use xlink:href="#b" transform="translate(0 60.8)" height="180" width="315"/></g><use xlink:href="#c" transform="translate(28)" height="180" width="315"/></g><use xlink:href="#d" transform="translate(-56)" height="180" width="315"/></g><use xlink:href="#e" transform="translate(112)" height="180" width="315"/><use xlink:href="#c" transform="translate(-84)" height="180" width="315"/><use xlink:href="#d" transform="translate(-140)" height="180" width="315"/><g fill="#da0000"><path d="M9.166 73.916s16.28 12.732 4.314 31.03c11.27-6.89 12.244-25.83-4.314-31.03zM0 72.107c-2.59 2.922-7.044.017-5.513-3.166 2.678 4.802 5.513.923 5.513.923s2.835 3.88 5.514-.922c1.53 3.184-2.922 6.09-5.514 3.167z"/><path d="M0 111.764l-1.86-2.435s-4.384 1.46-10.158-.558c4.73 0 7.375-.835 8.348-1.322 0 0-10.714-5.774-10.505-17.532.626-11.897 6.957-15.515 6.957-15.515s-11.27 16.42 5.287 30.142l-.73-16.976V75.097c.938-.226 2.66-2.21 2.66-2.21s1.722 1.984 2.66 2.21v12.47l-.73 16.977C18.49 90.822 7.218 74.402 7.218 74.402s6.332 3.618 6.958 15.515C14.383 101.675 3.67 107.45 3.67 107.45c.973.486 3.617 1.32 8.348 1.32-5.775 2.02-10.158.558-10.158.558L0 111.763z"/><path d="M-9.165 73.916s-16.28 12.732-4.314 31.03c-11.27-6.89-12.244-25.83 4.315-31.03z"/></g></svg>