<svg xmlns="http://www.w3.org/2000/svg" xmlns:xlink="http://www.w3.org/1999/xlink" width="600" height="300" viewBox="0 0 2000 1000"><title>Flag of Kazakhstan</title><defs><path id="b" d="M0-76.45C4-76.5 5.5-79 5.5-82c0-4-5.5-23.05-5.5-23.05S-5.5-86-5.5-82c0 3 1.5 5.55 5.5 5.55z"/><path id="d" d="M-1 15C-1 5 8-.14 15.072-.14c9.528 0 14.6 5.683 14.6 13.122 0 4.217-.774 6.863-2.723 10.9 0 0-15.718 32.605-21.837 45.216-.763 1.573-1.01 3.363-1.01 5.989 0 4.053 3.943 7.367 8.075 7.468 3.768.094 7.873-3.504 7.873-7.603 0-4.98-2.588-7.2-5.247-7.2-3.272 0-4.576 1.342-4.576 3.634 0 1.597.773 2.288 1.884 2.288 2.807 0 2.02-3.768 2.02-3.768 1.394.304 2.54 1.725 1.884 3.498 1.02.227 1.974.76 2.725 1.615-.753.727-1.616 1.29-2.726 1.48.657 2.164-.22 3.222-2.12 3.667.383-.833.396-1.6.27-2.322-2.99.848-7.57-.5-7.57-5.652 0-5.113 3.557-9.42 10.228-8.343-1.587-.757-2.394-2.306-2.557-4.037 1.21.47 2.557.538 2.557.538-.78-1.37-1.863-2.553-1.817-5.247 1.237.56 2.385 1.6 3.97.942-2.487-4.883.568-11.6 8.343-13.188-2.845 3.327-4.24 6.92-4.24 10.497 0 11.592 3.23 13.54 3.23 21.6 0 3.37-1.736 7.012-5.18 9.486v-.134c2.276.608 3.734 1.726 4.572 3.245-5.2 1.472-12.76 1.445-16.818-.148C4.216 86.862.96 83.292 0 81.48c-.96-1.81-2.823-8.364 0-14.264C3.09 60.76 17.66 29.94 22.204 20.25c.964-2.055 1.548-4.235 1.548-6.595 0-5.934-5.45-8.007-8.546-8.007-3.7 0-7.468 2.813-7.468 6.325 0 2.226 1.21 3.566 2.96 3.566 4.184 0 3.93-3.55 3.095-5.787 2.604 1.167 4.117 3.252 3.7 5.45 1.475.2 2.878.9 4.173 2.355-1.02 1.283-2.26 2.253-4.172 2.288.835 3.41-1.454 4.852-3.7 5.652.71-2.503 1.177-5.383-3.096-5.383-3.115 0-5.568-.538-6.998-2.557-.084 2.69-.336 13.323-.336 13.323-.18 3.996 5.36 3.882 8.882 2.692-1.33 4.602-4.054 7.09-10.362 6.46 1.53.64 3.162 2.076 3.162 4.844C5.046 48.622 2 52.772 0 54l-1-39z"/><path id="e" d="M0-35.6s4.753-3.983 6.367-1.985C8.963-34.37-1.615-18.36-1.615-12.722-1.615-3.467 4.575-.95 12.22.37 17.347 1.26 25.7 0 25.7 0c-1.572-2.108-2.595-2.73-5.245-2.897 2.95-1.528 5.954-4.844 5.954-10.007 0-7.962-3.287-11.243-3.287-20.22 0-4.98 4.093-11.317 4.093-11.317-7.234.72-10.82 7.403-8.78 12.744-1.15.165-2.197-.094-3.095-.942-.528 1.48.308 3.198 1.427 4.678-.902.48-1.564.193-3-.103.136 1.525 1.052 3.146 3.294 4.67-6.503-1.684-10.505 2.838-10.505 7.572 0 3.575 2.512 6.138 4.967 6.138.793 0 1.96-.326 2.617-.816.462.984.223 2.3-.254 3.286 1.8-.475 2.94-1.54 2.128-3.76 1.383-.127 2.482-.593 3.23-1.48-.758-.97-1.907-1.526-3.23-1.48 1.007-2.073-.115-3.233-1.75-4.173 0 0 1.04 4.172-1.614 4.172-1.193 0-2.28-.388-2.28-2.142 0-1.528 1.338-3.645 4.433-3.51 3.095.135 5.605 2.13 5.605 7.058 0 4.547-3.677 6.808-8.52 6.954-4.37.135-7.667-2.226-7.667-6.722 0-5.983 8.66-19.622 8.66-24.954 0-4-3.607-6.233-7.135-6.233-4.576 0-8.436 4.52-8.436 4.52L-.004-35.6z"/></defs><path fill="#00afca" d="M0 0h2000v1000H0z"/><use xlink:href="#a" transform="matrix(-1 0 0 1 240 0)" height="1000" width="2000"/><use xlink:href="#b" transform="matrix(1.9606 .39 -.39 1.9606 1080.472 420)" height="500" width="1000" fill="#fec50c"/><use xlink:href="#b" transform="matrix(1.847 .765 -.765 1.847 1080.472 420)" height="500" width="1000" fill="#fec50c"/><use xlink:href="#b" transform="matrix(1.662 1.1106 -1.1106 1.662 1080.472 420)" height="500" width="1000" fill="#fec50c"/><use xlink:href="#b" transform="scale(1.999) rotate(45 16.633 757.483)" height="500" width="1000" fill="#fec50c"/><use xlink:href="#b" transform="scale(1.999) rotate(56.25 73.712 610.646)" height="500" width="1000" fill="#fec50c"/><use xlink:href="#b" transform="matrix(.765 1.847 -1.847 .765 1080.472 420)" height="500" width="1000" fill="#fec50c"/><use xlink:href="#b" transform="matrix(.39 1.9606 -1.9606 .39 1080.472 420)" height="500" width="1000" fill="#fec50c"/><use xlink:href="#b" transform="matrix(0 1.999 -1.999 0 1080.472 420)" height="500" width="1000" fill="#fec50c"/><use xlink:href="#b" transform="matrix(-.39 1.9606 -1.9606 -.39 1080.472 420)" height="500" width="1000" fill="#fec50c"/><use xlink:href="#b" transform="matrix(-.765 1.847 -1.847 -.765 1080.472 420)" height="500" width="1000" fill="#fec50c"/><use xlink:href="#b" transform="scale(1.999) rotate(123.75 214.096 249.5)" height="500" width="1000" fill="#fec50c"/><use xlink:href="#b" transform="scale(1.999) rotate(135 226.733 216.99)" height="500" width="1000" fill="#fec50c"/><use xlink:href="#b" transform="scale(1.999) rotate(146.25 238.38 187.028)" height="500" width="1000" fill="#fec50c"/><use xlink:href="#b" transform="matrix(-1.847 .765 -.765 -1.847 1080.472 420)" height="500" width="1000" fill="#fec50c"/><use xlink:href="#b" transform="scale(1.999) rotate(-146.25 302.113 23.072)" height="500" width="1000" fill="#fec50c"/><use xlink:href="#b" transform="scale(1.999) rotate(-135 313.76 -6.89)" height="500" width="1000" fill="#fec50c"/><use xlink:href="#b" transform="scale(1.999) rotate(-123.75 326.397 -39.4)" height="500" width="1000" fill="#fec50c"/><use xlink:href="#b" transform="matrix(-.765 -1.847 1.847 -.765 1080.472 420)" height="500" width="1000" fill="#fec50c"/><use xlink:href="#b" transform="matrix(-.39 -1.9606 1.9606 -.39 1080.472 420)" height="500" width="1000" fill="#fec50c"/><use xlink:href="#b" transform="matrix(0 -1.999 1.999 0 1080.472 420)" height="500" width="1000" fill="#fec50c"/><use xlink:href="#b" transform="matrix(.39 -1.9606 1.9606 .39 1080.472 420)" height="500" width="1000" fill="#fec50c"/><use xlink:href="#b" transform="matrix(.765 -1.847 1.847 .765 1080.472 420)" height="500" width="1000" fill="#fec50c"/><use xlink:href="#b" transform="matrix(1.1106 -1.662 1.662 1.1106 1080.472 420)" height="500" width="1000" fill="#fec50c"/><use xlink:href="#b" transform="scale(1.999) rotate(-45 523.86 -547.383)" height="500" width="1000" fill="#fec50c"/><circle transform="translate(1080.3 420.17) scale(1.9585)" r="68.7" fill="#fec50c"/><use xlink:href="#b" transform="matrix(1.999 0 0 1.999 1080.472 420)" height="500" width="1000" fill="#fec50c"/><use xlink:href="#b" transform="matrix(-1.9606 .39 -.39 -1.9606 1080.472 420)" height="500" width="1000" fill="#fec50c"/><use xlink:href="#b" transform="matrix(-1.999 0 0 -1.999 1080.472 420)" height="500" width="1000" fill="#fec50c"/><use xlink:href="#b" transform="matrix(-1.9606 -.39 .39 -1.9606 1080.472 420)" height="500" width="1000" fill="#fec50c"/><use xlink:href="#b" transform="matrix(-1.847 -.765 .765 -1.847 1080.472 420)" height="500" width="1000" fill="#fec50c"/><use xlink:href="#b" transform="matrix(1.662 -1.1106 1.1106 1.662 1080.472 420)" height="500" width="1000" fill="#fec50c"/><use xlink:href="#b" transform="matrix(1.847 -.765 .765 1.847 1080.472 420)" height="500" width="1000" fill="#fec50c"/><use xlink:href="#b" transform="matrix(1.9606 -.39 .39 1.9606 1080.472 420)" height="500" width="1000" fill="#fec50c"/><path fill-rule="evenodd" fill="#fec50c" d="M1075.8 654.95l-2.322 4.643-2.58 5.933-1.547 2.838-1.29 2.58-1.03 2.063-1.29 1.29-3.096-2.58-3.353-2.32-3.61-1.807-3.87-1.548-4.127-1.032-4.128-1.03-4.127-.775-4.385-.516-9.03-.775-9.027-.258-8.77-.516-8.256-1.03-4.643-.775-4.385-1.032-2.322-.773-2.32-.774-2.065-1.032-1.806-1.032-2.838-1.806-2.838-2.063-3.095-2.322-2.84-2.578-5.932-5.676-5.933-5.675-5.933-5.416-5.417-4.9-2.58-1.807-2.58-1.805-2.32-1.032-2.322-.774-4.386-1.032-3.87-1.29-3.868-1.29-3.87-1.805-3.354-1.55-3.354-2.063-3.095-2.063-2.838-2.064-3.096-2.322-2.58-2.32-2.58-2.58-2.58-2.58-4.9-5.417-4.643-5.675-9.286-12.124-9.802-12.38-5.675-5.934-5.933-5.933-3.354-3.095-3.353-2.838-3.612-2.58-3.87-2.837-.773.258-.774.775-.774 1.032-.515 1.29-.775 2.32-.258 1.033-1.806-.774-1.547-.774-1.805-.773-1.548-.517h-3.354l-1.805.516-1.805.772 1.806 2.322 2.322 3.096 2.322 3.61 2.064 3.87 2.063 4.128 1.55 3.87.515 2.063.516 1.55.26 1.804v1.548h-13.93l2.063 3.096 2.322 3.095 2.58 3.096 2.837 2.836 2.837 2.838 2.837 2.837 2.837 2.323 2.58 1.805-2.838.258-3.87.258-3.868.516-2.838.258 2.322 2.064 2.837 2.064 3.095 2.32 3.353 2.323 3.353 2.062 3.355 1.806 3.095 1.032 2.838.774 1.29.258 1.032.258.773.258.516.516.257.258v1.03l-.258.517-.517 1.547-.258 1.548-.258 1.032v.773l.258 1.29.258 1.032.516.516.773.516 1.032.516 1.29.258 1.29.516 1.29.516 1.29.516 1.03.773.26.257v.516l-.26.258-1.03.775-1.033.774-1.03 1.03-1.033 1.29v1.032l-.26 1.032.26 1.29.257 1.548 4.385 1.548 4.643 1.547 2.064.516 2.063.774 1.547.774 1.29.775-8.512 6.707 2.32 2.063 2.84 1.548 3.61 1.806 3.612 1.29 4.127 1.29 3.87.772 3.353.774h3.095l-2.837 2.064-3.612 2.322-3.87 2.063-2.837 2.064 2.58 1.805 3.61 1.805 4.128 2.064 4.9 2.322 11.35 4.9 12.383 4.902 12.9 4.643 12.64 4.13 5.674 1.804 5.16 1.29 4.642 1.29 4.128.774-8.255-.774-7.74-1.032-7.738-1.29-7.223-1.548-7.224-2.063-6.965-2.063-6.706-2.322-6.45-2.58-12.64-5.158-11.865-5.16-5.676-2.32-5.675-2.323-5.418-2.063-5.417-2.063 1.29-.774 1.548-.516 2.063-.774 2.322-.516 4.9-1.548 4.386-1.548-7.738-1.29-10.576-2.064-5.16-1.548-4.385-1.29-1.806-.773-1.548-.774-1.29-.774-.774-.775v-.258l.258-.258.774-.26.774-.515 2.063-.773 2.838-.774 6.19-1.806 5.16-1.806-12.64-2.32-9.802-1.55-3.612-.773-2.836-1.032-1.032-.515-1.032-.774-.774-.515-.516-.773.774-.516 2.322-.516 3.353-.516 3.87-.774 4.126-.516 3.61-1.032 1.807-.516 1.548-.516 1.033-.773 1.03-.774-2.062-.774-2.063-.775-2.58-.516-2.58-.517-5.932-.774-5.933-.775-3.096-.774-2.837-.514-2.84-1.032-2.836-1.032-2.58-1.29-2.32-1.806-2.065-1.805-1.55-2.32.517-.26 1.032-.257h1.29l2.062.258 4.644.26 5.16.257 5.674.516h7.223l2.063-.258 1.548-.516 1.032-.517-6.19-2.58-8.256-3.61-4.643-2.322-4.9-2.32-4.902-2.58-4.9-2.58-4.645-2.838-4.385-3.095-4.127-3.096-3.612-3.094-1.547-1.806-1.55-1.548-1.03-1.547-1.033-1.806-1.032-1.55-.515-1.804-.258-1.548-.258-1.806h1.805l2.063.258 2.064.774 2.063.774 4.128 2.58 4.643 2.58 2.065 1.29 2.32 1.29 2.323 1.03 2.064.774 2.32.516 2.065.258h2.32l2.065-.774-6.19-4.643-6.966-5.934-7.996-6.965-7.997-7.738-7.997-8.254-7.48-8.255-3.354-4.385-3.353-4.127-2.84-4.127-2.58-3.87-.514-1.03v-1.807l.257-.773.258-.774.775-.517.774-.774.773-.517 1.032-.258 1.032-.258h2.063l1.29.258 1.032.258 1.032.774.774.774 4.643 4.644 5.418 5.417 5.675 5.934 6.19 5.933 6.192 5.417 6.19 5.16 3.097 2.063 2.837 1.806 3.095 1.547 2.837 1.032-2.064-1.29-2.32-2.32-3.097-3.097-3.352-3.87-7.48-9.028-8.256-10.576-4.127-5.674-3.87-5.675-3.61-5.674-3.612-5.417-3.096-5.16-2.58-4.643-1.805-4.386-1.548-3.61-.258-1.29v-2.064l.258-.773.516-.774.516-.775.516-.516.774-.517 1.806-.516 1.547-.516h3.61l1.033.26.773.257 1.032.516.774.774 2.064 1.806 2.063 2.58 4.643 5.932 4.9 7.48 5.676 7.998 5.932 8.254 3.095 3.87 3.096 3.87 3.353 3.352 3.612 3.095-4.386-8.513-4.9-9.802-2.58-5.417-2.322-5.417-2.322-5.675-2.063-5.674-1.806-5.933-1.807-5.676-1.29-5.675-1.03-5.675-.517-5.417-.258-5.16.258-2.58.258-2.32.258-2.322.516-2.32.516-.775.258-.774.773-.775.516-.516 1.807-.775 1.806-.516h1.805l1.548.257.774.258.516.258.258.516.258.773 2.58 8.254 2.32 8.77 2.323 9.03 2.32 8.77 2.323 8.77 3.095 8.255 1.548 3.87 1.807 3.87 2.064 3.61 2.322 3.612-1.548-7.48-1.03-6.708-1.033-6.19-.515-5.676-.516-4.9-.26-4.386.26-3.612.257-3.095.516-2.58.774-2.064.516-.773.516-.774.514-.516.774-.516.774-.258h2.322l2.063.774 2.064 1.032 1.807 8.254 1.806 7.997 2.063 7.48 2.322 7.223 2.58 7.223 2.837 7.222 3.095 7.48 3.612 7.482 2.58 4.9 2.58 4.902 2.837 4.9 2.836 4.902 3.096 4.644 3.095 4.643 3.354 4.643 3.354 4.643 6.19 7.74 6.45 7.223 6.707 7.223 6.966 6.706 7.222 6.707 7.48 6.19 7.74 5.933 7.997 5.675 5.417 3.612 5.675 3.353 5.933 3.354 5.675 3.095 9.028 4.386 8.77 4.127 9.288 3.61 9.287 3.355 8.77 2.837 9.03 2.322 9.286 2.062 9.028 1.806 9.546 1.29 9.286 1.032 9.544.774 9.545.516M1099.3 733.37l4.385.516 2.064.774.515.258v.258h-.516l-.517.258-4.127.774h-3.354l-10.834-.774-13.156-.258-14.188-.258-14.704.258-6.965.258-6.964.516-6.19.515-5.933.516-4.902.775-4.385 1.032-1.548.516-1.547.516-1.29.515-1.032.774.516-2.58 1.03-2.58-1.805.515-1.806.516-1.548.775-1.548.774-1.29.773-1.032 1.032-.774 1.29-.258 1.29-.774-1.806-.515-1.55-.257-1.805-.258-1.548.258-1.29.258-1.547.26-1.29.772-1.29.516-1.032 1.032-1.29 1.032-1.03 1.032-1.033 2.837-1.806 3.097-1.806c1.67 1.013 3.55 1.748 5.417 2.32 1.618.216 3.544-.046 5.417-.515 3.15 2.772 7.36 2.43 10.06-.517.494-.537 1.09-1.36 1.29-2.063.428-1.488.345-3.437 0-5.16l3.096-.257 3.612-.516 3.87-1.032 4.126-1.032 4.128-.774 3.87-1.033 3.61-.516 3.096-.257-1.29 1.032-3.095 2.322-3.612 2.837-2.578 1.806 3.353.774 2.838.516-2.064 2.32-2.065 2.323-2.063 2.322-1.548 2.063 2.064.774 2.063.516 2.323.516h4.643l2.322-.516 2.32-.516 1.807-1.032 2.064 1.032 2.062.774 2.064.516 2.064.516 4.643.516 4.9.516h19.606"/><path fill-rule="evenodd" fill="#fec50c" d="M1020.1 718.67l.774.258.774.258.258.774.258.774-.258.774-.258.773-.774.517h-1.806l-.516-.516-.516-.772-.258-.774.258-.774.516-.774.516-.258 1.032-.258"/><path fill-rule="evenodd" fill="#fec50c" d="M1019.8 719.7l.516.258.258.516-.258.516-.516.258-.516-.258-.258-.516.258-.516.516-.258"/><path fill="#fec50c" d="M1020 723.25c-1.307 0-2.366-1.058-2.366-2.365s1.06-2.365 2.366-2.364c1.306 0 2.366 1.06 2.366 2.365s-1.06 2.366-2.366 2.365z"/><path fill-rule="evenodd" fill="#fec50c" d="M1212.2 746.01l-1.806.774-1.805.258-1.55.258-1.29-.258-1.29-.258-1.288-.516-1.032-.516-1.29-.774-2.064-1.548-2.063-1.547-1.032-.774-1.29-.517-1.03-.258h-1.29l-2.322 4.9-3.096 6.192-1.032 1.548-1.03 1.29-1.033.774-1.032.772-1.29.516h-1.29l-1.29-.516-1.547-.774-.516-.773-.516-.774-.516-1.03-.516-1.29-.516-2.322-.258-1.548-1.548 1.29-1.547 1.805-1.29 2.064-1.548 2.32-1.806 2.322-1.804 1.806-1.032 1.032-1.29.774-1.29.515-1.547.515h-.774l-1.29.258-1.29-.258-1.032-.516-3.094-3.612-3.354-3.61-2.32 3.61-2.58 3.096-1.29 1.29-1.29 1.29-1.29 1.03-1.29.775-1.032.515-1.29.258h-1.29l-1.03-.258-1.033-.516-.774-.775-1.032-1.29-.515-1.548-.516-1.547-1.032-2.58-.258-1.29-.516-1.032-.516-.516h-.516l-6.965 11.35-1.032 1.032-1.806.774-2.064.516-2.064.516h-2.32l-1.807-.516-.516-.258-.775-.774-.258-.516v-1.032l1.032-11.35-.775.258-1.032.516-1.032.516-1.03 1.032-2.064 2.322-2.322 2.58-2.32 2.837-2.84 2.32-1.29 1.033-1.288 1.032-1.548.774-1.29.258-1.806.258-1.29-.258-.515-.258-.516-.516-.257-.774v-.774l.258-3.353.517-3.354.258-1.805-.258-1.548-.258-1.548-1.033-1.806-1.548 2.322-2.58 3.354-3.096 3.353-3.353 3.353-1.805 1.29-1.806 1.29-1.55.516-1.288.516-.516-.258h-.774l-.516-.516-.258-.258-.516-.774-.258-.774v-1.032l-.258-1.29.258-9.802-6.45 4.386-7.738 4.9-1.805.775-2.063 1.03-1.806.517-2.062.516-1.806.516h-1.806l-1.806-.258-1.547-.516.774-2.063.773-1.807.774-1.806 1.032-1.548 1.032-1.548 1.032-1.548 1.29-1.29 1.29-1.29 2.837-2.063 3.353-2.063 3.354-1.548 3.87-1.29 3.87-1.033 4.384-.773 4.385-.774 4.385-.516 9.545-.516 9.802-.258h19.605l4.9-.258 4.645-.258 4.643-.258 4.385-.516 4.386-.774 3.868-.774 3.87-1.03 3.61-1.55 3.354-1.547 2.838-2.064 2.837-2.062 2.322-2.838-2.58-5.16 2.063-.257 2.064-.516 2.063-1.032 1.806-1.29.774-.515.774-.774.516-1.032.516-.774.257-1.032v-1.805l-.515-1.032 4.385-.773 4.643-.516 4.9-.257h5.16l10.576.516 10.834.773 11.092 1.29 10.834 1.03 10.576 1.033 9.803.516v3.612l-.257 1.547-.516 1.55-.516 1.547-.515 1.29-.774 1.03-1.03 1.29-1.806 1.807-2.322 1.548-2.322 1.032-2.58.515-2.837.515-2.837-.258-2.58-.258-2.837-.774-2.58-1.29-2.58-1.29-2.064-1.806-2.064-2.063v4.385l-.774 5.675-.516 2.837-.773 2.58-.517 1.032-.774.774-.517.774-.774.516m-207.4-24.248l5.932 2.58 1.548-1.29 2.063-1.548 2.322-1.29 2.064-1.29 7.737-3.095 6.707-3.097 3.354-1.29 2.837-1.548 2.838-1.547 2.32-1.548 5.935-3.87 5.933-3.87 5.676-3.61 5.16-3.612 3.868-3.095 3.096-2.838 3.353-3.095 3.612-3.354 1.29-1.29 1.547-1.03 1.806-1.033 2.063-1.032 4.387-2.062 4.385-1.548 5.933-1.548 6.45-1.548 6.706-1.29 7.482-1.29 9.028-1.03 9.03-1.29 9.285-1.033 9.03-1.546 3.094-.516 2.837-.774 3.095-.774 3.096-.774 3.095-3.87 4.9-5.417 3.355-3.354 3.87-3.095 4.385-3.353 5.16-3.353 7.737-4.643 8.255-4.127 8.513-4.385 8.254-3.87 7.74-3.87 7.222-3.61 5.933-3.096 4.643-3.095 1.29-3.87 1.806-3.87 2.32-3.868 2.84-3.87 3.094-4.128 3.87-4.127 4.127-4.644 5.16-4.9 4.642-4.127 4.9-4.127 2.58-1.806 2.58-1.806 2.837-1.548 2.838-1.547 2.837-1.29 2.838-1.033 3.095-.774 2.838-.774 3.095-.26 2.838-.257 3.095.258 2.84.517-.26 3.096-.773 3.095-1.032 3.096-1.29 3.353-1.805 3.354-2.322 3.354-2.837 3.61-3.353 3.613 2.58-.258 2.32-.517 1.807-.516 1.806-.774 1.548-.516 1.805-.516 2.322-.257 2.58-.258.257 1.806v1.807l-.258 1.805-.515 1.548-.775 1.548-1.032 1.548-1.032 1.29-1.29 1.29-5.416 5.16-5.417 4.9 3.095.258 3.354 1.032 3.353 1.03 2.58.517-3.097 2.322-3.61 2.32-3.612 2.323-4.127 2.322-4.127 2.32-4.127 2.58-4.13 2.838-3.868 3.096 1.806.258 2.32 1.032 1.033.258 1.033.515.774.258.774-.258-5.158 2.838-6.45 3.095-3.095 1.548-2.58 1.548-1.29.774-.773.774-.516.774-.516.773.258 1.033.516.774 1.032.774.774.775-.258 1.032-.516.774-1.032.774-1.032.774-2.322 1.29-3.095 1.29-3.096 1.032-2.836 1.032-2.064 1.03-1.547.775 5.16 5.16-1.807 1.805-1.806 1.29-1.547.774-1.806.774-3.612.516h-4.9l.515 2.32.774 2.323.516 2.578.516 2.58-4.385 3.353-5.417 3.87-5.933 3.87-6.706 3.87-3.87 2.063-3.87 1.806-4.127 1.547-4.385 1.547-4.643 1.548-4.902 1.032-5.16 1.032-5.417.774 9.546.258h8.255l7.74-.774 6.964-.774 6.45-1.29 5.674-1.548 5.675-2.063 5.417-2.065 7.223-3.353 6.965-3.87 6.707-4.127 6.965-4.127-4.128-2.064-4.127-1.29-2.064-.774-2.062-1.032-2.322-1.03-2.32-1.29 2.062-1.55 2.322-1.03 2.837-1.033 3.096-.773 6.19-1.29 6.45-.774 5.675-.774 5.16-.516 2.063-.516 1.806-.516 1.032-.516.774-.774-.258-.258-.516-.515-.774-.258-1.03-.516-2.84-.517-3.61-.516-3.612-.258-3.61-.517-3.097-.774-2.063-.775 6.964-1.547 6.965-1.548 6.192-1.29 5.16-1.29 4.385-1.29 3.87-1.547 1.805-.774 1.29-.775 1.29-.774 1.03-1.03-.257-.26-.516-.515-1.032-.258-1.29-.258-3.354-.26h-3.87l-4.126-.257-3.87-.258-3.353-.515-2.064-.516 1.807-.774 1.806-.774 6.19-1.806 5.418-1.548 4.902-1.29 4.643-1.547 4.9-1.548 4.902-2.064 2.322-1.29 2.063-1.29.774-.773.774-1.032.774-.774.258-.774-.258-.774-.773-.515-.773-.257h-7.223l-3.354.258h-4.643l-1.29-.257-1.03-.516-1.033-.516 10.318-6.706 9.544-6.19 8.513-5.418 7.48-5.16 3.095-2.58 2.838-2.58 2.32-2.578 2.065-2.58 1.548-2.837 1.29-2.837.773-3.095v-3.354h-1.806l-1.806.258-2.064.774-2.064.774-4.127 2.58-4.385 2.58-2.322 1.29-2.063 1.29-2.322 1.03-2.32.774-2.064.516-2.064.258h-2.322l-2.063-.774 6.19-4.643 6.966-5.932 7.996-6.965 7.996-7.738 7.997-8.255 7.48-8.255 3.354-4.385 3.353-4.127 2.838-4.127 2.58-3.87.515-1.032.258-.774-.257-1.03-.258-.775-.258-.774-.773-.515-.774-.774-.774-.257-1.032-.516-1.032-.258h-2.063l-1.033.257-1.29.258-.774.774-1.032.773-4.642 4.643-5.417 5.417-5.674 5.933-6.19 5.933-6.192 5.416-6.19 5.16-3.097 2.063-2.837 1.805-3.096 1.548-2.58 1.29 1.806-1.548 2.322-2.322 3.096-3.095 3.353-3.87 7.482-9.028 8.254-10.576 4.128-5.675 3.87-5.676 3.868-5.418 3.354-5.675 3.095-5.158 2.58-4.643 2.065-4.386 1.29-3.612.257-1.29v-2.063l-.258-.775-.515-.774-.517-.773-.516-.516-.774-.257-1.548-.774-1.806-.517h-3.612l-1.032.258-.774.26-1.032.515-.773.774-2.064 1.805-2.064 2.58-4.644 5.932-4.9 7.48-5.418 7.998-5.933 8.255-3.354 3.87-3.094 3.868-3.354 3.354-3.61 3.095 4.642-8.512 4.643-9.803 2.58-5.417 2.322-5.417 2.32-5.675 2.064-5.675 1.806-5.933 1.805-5.675 1.29-5.675 1.032-5.675.516-5.418.258-5.16-.257-2.578-.258-2.322-.258-2.322-.516-2.32-.257-.775-.516-.774-.774-.773-.516-.516-1.805-.773-1.806-.515h-1.806l-1.548.258-.516.257-.773.258-.258.516-.258.775-2.58 8.513-2.322 8.512-2.32 9.03-2.323 8.77-2.32 8.77-3.097 8.255-1.548 4.127-1.805 3.61-2.064 3.87-2.322 3.354 1.548-7.48 1.032-6.707 1.032-6.192.516-5.676.516-4.9.258-4.386-.258-3.61-.258-3.097-.516-2.58-.774-2.064-.516-.774-.516-.774-.516-.516-.774-.258-.774-.258-.773-.258h-.774l-.775.258-2.064.516-2.063 1.032-1.805 8.254-1.806 7.997-2.064 7.48-2.32 7.224-2.58 7.222-2.838 7.222-3.096 7.48-3.61 7.482-2.58 4.9-2.58 4.902-2.838 4.902-2.837 4.9-3.096 4.644-3.095 4.643-3.354 4.643-3.353 4.644-6.19 7.738-6.45 7.223-6.707 7.223-6.965 6.707-7.223 6.707-7.48 6.19-7.74 5.934-7.996 5.675-5.417 3.612-5.675 3.612-5.675 3.353-5.675 3.353-9.03 4.128-9.027 4.127-9.287 3.353-9.286 3.354-7.74 2.32-7.738 2.323-7.997 1.806-7.996 1.806-7.996 1.29-8.255 1.032-7.997 1.032-8.255.516-.774.258-.774.258-1.547.773-1.806 1.29-2.58 2.322-3.353 3.095-4.127 4.128-4.902 5.417-4.643 5.417-5.417 5.933-2.838 2.837-2.837 2.838-3.354 2.58-3.353 2.58-2.58 1.805-2.58 1.548-2.837 1.29-2.837 1.29-6.192 2.58-6.19 2.32-6.192 2.322-5.417 2.064-2.323 1.032-2.322 1.29-2.063 1.032-1.548 1.032-1.548 1.548-1.29 1.29-.773 1.29-.516 1.29-.258 1.805v1.03"/><path d="M1019.8 721.47c-.533 0-.965-.432-.965-.965s.432-.965.965-.964c.533 0 .965.432.965.965s-.432.965-.965.965z" stroke="#00afca" stroke-width=".381" fill="#fec50c"/><use xlink:href="#c" transform="matrix(1 0 0 -1 0 1000)" height="1000" width="2000"/><use xlink:href="#a" transform="rotate(180 120 500)" height="1000" width="2000"/><use xlink:href="#a" transform="matrix(1 0 0 -1 0 1000)" height="1000" width="2000"/><use xlink:href="#c" transform="rotate(180 120 500)" height="1000" width="2000"/><use xlink:href="#a" transform="rotate(180 120 322.54)" height="1000" width="2000"/><use xlink:href="#a" transform="matrix(1 0 0 -1 0 645.08)" height="1000" width="2000"/><use id="a" xlink:href="#d" transform="matrix(-2.022 0 0 -2.027 120 322.54)" height="500" width="1000" fill="#fec50c"/><use xlink:href="#a" transform="translate(0 354.92)" height="1000" width="2000"/><use xlink:href="#a" transform="matrix(-1 0 0 1 240 354.92)" height="1000" width="2000"/><use xlink:href="#c" transform="matrix(-1 0 0 1 240 0)" height="1000" width="2000"/><use id="c" xlink:href="#e" transform="matrix(-2.022 0 0 2.027 120 145.08)" height="500" width="1000" fill="#fec50c"/></svg>