<svg xmlns="http://www.w3.org/2000/svg" xmlns:xlink="http://www.w3.org/1999/xlink" version="1" width="600" height="300"><path fill="#ce1126" d="M0 0h600v300H0z"/><path d="M349.39 141.29c8.76 2.348 22.013 1.764 27.964 8.71-8.76-2.347-19.55 11.81-27.964 8.71 7.428 5.2-108.043 0-98.78 0-8.76-2.348-22.014-1.764-27.964-8.71 8.758 2.347 19.55-11.81 27.963-8.71-7.428-5.2-20.313-9.226-23.3-17.747 7.43 5.2 22.537-4.448 29.257 1.38-5.2-7.427-16.07-15.578-15.823-24.645 5.2 7.427 22.704 3.45 27.02 11.303-2.348-8.757-9.416-20.05-6.44-28.57 2.346 8.758 19.975 10.933 21.523 19.862.79-9.033-2.398-22.105 3.72-29.05-.79 9.032 15.133 17.096 13.433 26.025 3.832-8.217 5.95-21.492 13.432-26.026-3.832 8.22 8.67 21.2 3.72 29.052 6.412-6.41 12.6-18.288 21.525-19.862-6.412 6.41.425 22.743-6.44 28.57 8.218-3.83 17.915-12.877 27.02-11.302-8.218 3.832-7.405 21.545-15.824 24.646 9.033-.79 21.17-5.914 29.256-1.38-9.034.79-14.037 17.747-23.3 17.747z" fill="#fcd116" fill-rule="evenodd" stroke="#bd9c08" stroke-width="1.5"/><path d="M258.36 150.002L226.77 137.09l34.098-1.33-25.266-22.936 32.497 10.413-15.897-30.195 26.976 20.9-4.613-33.81 18.2 28.863 7.23-33.348 7.232 33.348 18.2-28.864-4.612 33.81 26.975-20.898-15.898 30.195 32.497-10.413-25.266 22.936 34.098 1.33-31.587 12.912 31.587 12.912H226.772l31.587-12.912z" fill="#fcd116" fill-rule="evenodd" stroke="#bd9c08" stroke-width="1.5" stroke-linejoin="round"/><path d="M341.357 150c0 22.84-18.516 41.358-41.357 41.358-22.84 0-41.358-18.517-41.358-41.358 0-22.84 18.517-41.358 41.358-41.358 22.84 0 41.357 18.517 41.357 41.358z" fill="#fcd116" stroke="#bd9c08" stroke-width="1.8" stroke-linecap="round"/><path fill="#003f87" stroke-width="7.087" stroke-linecap="round" d="M0 165h600v135H0z"/><path d="M0 257.143c20 0 40 12.857 60 12.857s40-12.857 60-12.857S160 270 180 270s40-12.857 60-12.857S280 270 300 270s40-12.857 60-12.857S400 270 420 270s40-12.857 60-12.857S520 270 540 270s40-12.857 60-12.857v-21.43c-20 0-40 12.858-60 12.858s-40-12.856-60-12.856-40 12.857-60 12.857-40-12.856-60-12.856-40 12.857-60 12.857-40-12.856-60-12.856-40 12.857-60 12.857-40-12.856-60-12.856-40 12.857-60 12.857-40-12.856-60-12.856v21.43z" id="a" fill="#fff" fill-rule="evenodd" stroke-width=".333"/><path d="M313.6 49.862l22.178.147c.142-.94-1.903-2.806-3.644-3.08-5.616-.88-9.826.937-16.64 1.007l-1.894 1.925z" fill="#fcd116" fill-rule="evenodd" stroke="#bd9c08" stroke-width="1.2"/><path d="M269.43 44.643c5.21 6.58 15.306 11.153 24.952 11.213 13 .08 27.414-10.44 44.85-13.662l-56.917-1.172c-7.364-5.045-12.952-4.405-16.762-1.277l-10.882.33c-1.54.838 1.272 4.342 3.552 4.47l11.21.098z" fill="#fcd116" fill-rule="evenodd" stroke="#bd9c08" stroke-width="1.2"/><path d="M295.16 40.868c-2.07-9.518-9.706-13.62-18.89-14.837-10.607-1.405-35.023-2.846-51.24-7.504 7.016 6.9 21.71 10.346 31.916 11.904 10.81 1.65 21.336 4.054 29.674 10.35l8.54.088z" fill="#fcd116" fill-rule="evenodd" stroke="#bd9c08" stroke-width="1.2"/><path d="M288.267 47.22c3.394 4.355 8.656 4.11 14.313.31 5.64-3.786 11.765-14.447 14.725-14.622 20.694-1.202 45.725-9.936 57.665-16.68-15.137 2.142-30.143 4.572-45.41 4.632-26.05.104-29.133 11.968-39.748 20.286" fill="#fcd116" fill-rule="evenodd" stroke="#bd9c08" stroke-width="1.2" stroke-linecap="round"/><path d="M292.31 42.103c5.552-3.536 10.064-8.15 15.262-12.006 8.607-6.382 18.55-6.57 29.223-6.7 9.46-.117 26.046-4.07 35.043-6.18" fill="none" fill-rule="evenodd" stroke="#bd9c08" stroke-width="1.2" stroke-linecap="round"/><path d="M286.534 40.436c-1.64-8.51-9.604-11.065-19.668-12.594-10.95-1.663-22.117-2.59-33.038-5.607-2.708-.748-5.233-2.07-7.85-3.105" fill="none" fill-opacity=".75" fill-rule="evenodd" stroke="#bd9c08" stroke-width="1.2"/><path d="M290.023 52.983c10.272.754 17.908-2.336 26.673-6.706M254.63 41.83h12.96" fill="none" fill-opacity=".75" fill-rule="evenodd" stroke="#bd9c08" stroke-width="1.2" stroke-linecap="round"/><path d="M273.37 40.437c0 .895-.725 1.62-1.62 1.62-.895 0-1.62-.725-1.62-1.62 0-.895.725-1.62 1.62-1.62.895 0 1.62.725 1.62 1.62z" fill="#bd9c08" stroke-width="0" stroke-linecap="round" stroke-linejoin="round"/><use transform="translate(0 -85.714)" id="b" width="600" height="300" xlink:href="#a"/><use transform="translate(0 42.857)" width="600" height="300" xlink:href="#b"/></svg>