<svg xmlns="http://www.w3.org/2000/svg" width="900" height="600"><path fill="#c1272d" d="M0 0h900v600H0z"/><path d="M449.97 200l-22.44 69.28-72.78.064 58.844 42.812-22.438 69.344c15.165-11.122 42.626-31.055 58.844-42.813l58.906 42.782-22.5-69.283 58.844-42.875h-72.72L449.97 200zm0 47.438l7.155 21.843-14.25.033 7.094-21.875zm-27.22 36.5l-4.375 13.593L399.78 284l22.97-.063zm15.375 0h23.75l7.344 22.625-19.22 14-19.22-14 7.345-22.625zm39.125 0h22.938l-18.532 13.593-4.406-13.592zm-51.22 37.312l11.564 8.344L419 343.124l7.03-21.874zm48 0l7.033 21.875-18.563-13.5v-.03l11.53-8.345z" fill="#006233"/></svg>