<svg xmlns="http://www.w3.org/2000/svg" width="900" height="600"><path fill="#efb22d" d="M0 0h900v600H0z"/><path d="M0 600h900V0z" fill="#e23d28"/><g fill="none" stroke="#000" stroke-width=".5"><g fill="#fff"><path d="M481.74 187.59c-4.986-1.77-8.207.805-8.045 7.244.16 6.44 3.542 10.14 8.53 7.727l-.484-14.97z"/><path d="M486.125 175.532c-4.155-3.28-8.03-1.874-9.946 4.276-1.918 6.15.095 10.74 5.595 10.057l4.35-14.333z"/><path d="M493.037 163.86c-3.58-3.906-7.63-3.14-10.508 2.623-2.876 5.764-1.626 10.62 3.915 10.826l6.592-13.45zM488.504 220.59c-6.117 2.254-6.763 10.625-2.896 15.776 3.862 5.152 10.946 6.117 14.808 0l-11.912-15.776z"/><path d="M481.42 202.883c-5.795-1.932-11.016 5.852-11.912 12.878-1.125 8.855-13.683 11.752-6.758 25.113 1.445-8.53 7.083-13.2 11.587-13.522 4.508-.32 11.27-1.287 14.167-6.76l-7.084-17.707zM499.775 237.332c-6.763 1.61-7.73 10.625-2.9 17.064 4.133 5.513 17.062 4.185 16.74-1.288l-13.84-15.776zM518.93 291.582c.32-5.795-9.014-8.05-13.522-6.922-4.508 1.127-13.12-.16-15.133-4.99-1.61 3.863.725 8.048 7.245 10.14 4.934 1.586 4.83 5.152 3.38 6.762 3.704.644 14.65.644 18.03-4.99z"/><path d="M513.616 254.557c-6.6-2.898-10.512 1.516-13.037 5.795-3.705 6.278-15.135-1.77-18.997 6.6 5.233-2.254 10.558 2.553 13.037 4.186 7.084 4.668 20.767 3.22 22.7-7.727l-3.704-8.853z"/><path d="M517.48 262.284c-6.6 4.99-9.176 10.946-9.014 14.97.163 4.025 5.796 12.88 11.913 13.362 3.54-7.244 5.31-22.537-2.9-28.332zM490.116 293.353c0-2.415 3.542-3.38 5.954-2.576 2.417.805 6.117 3.22 4.83 5.795l-10.784-3.22zM453.733 280.152c-.642-2.897 4.025-7.888 10.304-5.15 6.275 2.736 7.083 8.048 4.504 10.14l-14.807-4.99z"/><path d="M469.025 285.465c-.484-1.61 4.037-4.826 11.754-2.898 7.724 1.932 9.62 6.906 9.336 10.786l-21.09-7.888zM452.93 280.152c4.024-3.058 2.5-8.855-1.13-10.624-6.6-3.22-4.184-11.59-8.37-13.2-4.185-1.61-8.21-4.508-8.372-7.405-2.092 4.024-.804 7.727 2.096 10.302 2.896 2.576-2.254 13.04 1.446 15.776l14.33 5.152zM366.644 277.898c-3.38-5.312-11.43-4.346-14.81-.643-3.38 3.702-2.898 9.176.322 11.59l14.488-10.947z"/><path d="M385.96 270.01c-1.287-7.082-9.82-7.887-14.487-6.117-4.668 1.77-7.888 8.854-4.83 14.005l19.318-7.887z"/><path d="M398.84 269.045c3.058-5.957-2.898-14.81-9.66-16.098-5.644-1.074-12.314-1.046-14.488-6.6-1.368 4.83 2.255 7.888 6.44 10.624 4.185 2.738-.805 9.82 5.956 13.846l11.752-1.77z"/><path d="M398.195 269.25c-1.408-4.267 1.45-9.944 7.233-9.546 5.784.398 9.08 4.602 6.53 9.856l-13.763-.31z"/><path d="M411.074 269.57c-.796-4.42 2.83-9.64 8.5-8.434 5.67 1.206 8.342 5.83 5.084 10.675l-13.584-2.24z"/><path d="M423.858 271.604c-.575-4.458 3.308-9.488 8.912-8 5.605 1.486 8.042 6.24 4.542 10.914l-13.454-2.914zM326.72 345.35c-10.785 0-13.42 2.566-14.97 13.682-1.932 13.844 16.903 15.454 14.97-13.683z"/><path d="M331.55 330.86c-16.58-6.278-25.595 19.962-42.015 15.294 5.876 9.336 20.12.016 25.434.965 9.014 1.61 28.493-1.77 16.58-16.26zM320.765 366.76c-8.21-3.704-17.064 8.853-15.454 14.326 2.044 6.952 20.767 1.288 15.455-14.327zM282.452 420.85c4.507 1.283 9.98 3.862 9.015 12.554-.966 8.692-17.386 26.4-32.196 27.367-14.81.967-20.12 18.834-32.84 13.842 11.914-2.25 11.914-15.775 21.25-19.958-6.76-2.417-10.302 12.88-18.995 12.88-8.693 0-12.878 13.84-23.503 12.874-10.624-.962-11.743 16.854-33 17.067-16.26.158-36.38 19.154-43.626 10.946 15.777-2.253 22.142-10.995 31.552-20.608 15.132-15.45 32.196-8.53 37.99-22.212-6.92 4.667-14.97 6.92-22.858 6.762-9.902-.204-20.766 15.775-31.874 8.692 6.44-.804 10.625-3.542 17.386-10.625 6.924-7.255 17.083-2.568 25.113-9.98 12.556-11.592 23.342-1.933 35.415-16.42-3.38-1.61-10.624-.484-17.386 3.057-6.76 3.542-15.453-2.416-23.18 1.77.965-9.495 18.995-4.06 30.263-10.624 12.718-7.404 23.262-5.233 33.323-4.346-14.005-.08-19.48-13.362-38.796-9.5-8.425 1.688-15.132-11.587-23.503-4.83.243-4.986 9.016-9.012 18.03-4.182 9.016 4.83 12.65-4.226 30.587 7.083 7.405 4.667 20.122-2.9 28.17 2.092-1.045-3.058-5.633-4.992-11.026-4.588 3.382-6.92 25.194-6.037 34.692.888z"/><path d="M296.78 410.384c-7.084-5.473-16.903 1.128-23.665-1.45 0 4.508 2.254 11.27 9.66 13.845 2.253-1.61 12.394-10.463 14.004-12.396z"/><path d="M307.887 394.77c-11.108-5.635-13.04 8.37-21.733 5.472.323 4.025 3.542 9.015 10.625 10.142l11.107-15.615z"/><path d="M314.487 382.052c-16.42-6.44-18.513 9.337-28.172 6.278 2.254 5.473 16.098 8.37 23.18 6.44l4.992-12.718zM337.024 312.992c-4.347-6.117-13.522-1.127-14.97 6.117-1.45 7.243 2.09 17.385 8.21 15.13l6.76-21.248z"/><path d="M348.13 293.674c-7.565-1.77-16.258-.966-15.292 6.44-2.898 1.287-3.702 10.785 4.186 12.878l11.107-19.318z"/><path d="M353.122 288.684c-7.405-8.693-15.664-8.49-20.284-4.83-8.532 6.762-16.822 2.9-17.064 9.66 5.152-3.944 9.66.804 13.845-.644 4.184-1.45 7.243 6.6 18.833 3.22l4.67-7.406zM335.253 418.596c1.127 2.09 8.05 3.058 11.43-.484 4.48-4.695-.484-17.71-7.567-18.675-7.083-.966-7.727 14.65-3.863 19.16z"/><path d="M327.204 418.917c10.14 3.7 14.488-4.67 9.015-9.982-1.45 1.77-6.763 8.21-9.016 9.982z"/><path d="M289.213 432.758c-1.932 5.796-11.912 6.763-23.18 24.792-11.27 18.03-22.055 10.462-24.792 22.858 13.524-10.946 24.143-3.675 32.197-14.487 12.235-16.42 22.31-14.062 27.045-25.112 6.76-15.775 36.38-15.454 37.99-40.244-9.98-1.932-41.532 24.79-49.26 32.194zM543.237 189.36c12.88 4.186 13.2 20.928 28.01 26.4 14.81 5.474 16.26 18.674 28.332 15.455-11.268-3.06-10.464-16.098-22.214-19.317-13.783-3.776-18.995-24.79-29.945-28.01M602.316 276.772c2.255 5.15 1.934 14.327-6.116 16.74 4.346 2.738 10.783.162 14.325-5.794-5.313 11.752-1.77 22.376 6.6 24.47-4.025-8.21 4.99-12.075 2.096-17.387 5.313 2.255 9.98 9.5 9.817 14.006 6.925-7.727-5.15-18.03-2.896-25.273l-23.824-6.76zM518.93 359.515c-7.89-6.922-11.255 1.81-15.135-1.208-3.62-2.817-8.45-3.22-10.3-.402 6.763.24 3.46 5.473 16.58 6.76-13.12.886-10.705 15.536-19.48 14.81 9.338 8.855 14.167-7.887 21.734-5.15-2.255.644 3.54 5.956-.485 13.04 6.52-.162 9.175-9.177 9.984-13.845l-2.9-14.005zM345.234 434.692c-2.898-2.413-11.27-3.542-14.49-1.61-3.218 1.93-2.09 2.414 1.772 2.74 3.864.32 8.853 6.57.483 6.92-3.864.158-2.576 9.495-10.626 10.14 3.3 4.026 12.718 1.368 16.098-3.057-.643 3.62 4.186 6.92 2.254 11.267 5.956.645 2.495-12.07 11.913-11.43-3.865.484-2.255 9.175 4.506 6.92-4.024 1.935-1.932 6.6 2.576 5.476-2.898.967-3.864 4.667.16 6.763 3.864-5.312-.483-24.308-14.648-34.128zM695.846 257.068c12.32 0 22.308-9.99 22.308-22.312 0-12.32-9.987-22.31-22.308-22.31-12.325 0-22.313 9.99-22.313 22.31 0 12.322 9.988 22.312 22.313 22.312z"/><path d="M579.296 284.016c6.762-6.44 17.066-9.66 24.145-4.83 7.085 4.83 30.59 10.625 42.18 2.576 11.588-8.05 17.063-12.234 22.213-11.27 3.867 5.797 8.534 8.534 14.33 9.016 1.77 1.932 8.05 3.542 11.59 3.06 5.15 1.287 11.43-.323 16.418-5.796 7.73 1.126 14.972-4.67 17.71-13.36 8.207-.967 8.69-10.143 3.54-16.26-4.828-.966-1.124-17.225-18.674-14.005 7.408 4.507 1.77 13.522 7.89 17.707-4.186 0-9.578 1.77-10.865 8.05 1.61-4.347-.24-7.245-1.37-8.21.162-3.703-8.046-12.798-15.775-9.498 5.554 1.207 2.417 10.14 6.442 13.522-2.9.16-5.96 1.61-7.73 4.185-2.09-3.702-9.495-7.566-14.004-7.888 0-1.288-.24-3.863-.804-5.15-2.014-3.865-3.705-8.452-2.9-14.328-3.864 4.185-7.084 9.98-9.014 14.166-6.116-4.185-21.25 1.932-28.333 3.54-7.083 1.61-30.908-2.252-36.383-8.047-5.47-5.796-16.096-9.337-26.075-12.235-13.725-3.982-13.846-18.994-28.98-29.297-.32 18.674 28.013 77.914 34.45 84.353zM421.537 426.32c11.913 0 21.57-9.658 21.57-21.57 0-11.913-9.657-21.57-21.57-21.57s-21.57 9.657-21.57 21.57c0 11.912 9.657 21.57 21.57 21.57z"/><path d="M370.025 409.74c4.346 5.635 11.75 5.314 14.81 4.83 2.575 6.76 10.785 6.6 14.326 10.3 3.543 3.705 15.615 3.384 19.156 1.288-3.216-.32-7.403-2.25-11.428-5.633-4.858-4.08-2.576-12.234-6.44-15.13 2.9-3.22 3.382-8.533 2.738-10.626 3.06-1.772 5.312-4.67 5.634-6.118 5.313-.322 9.98-3.06 11.913-5.15 2.737 2.574 9.658-.806 13.362 3.54.805-10.625-9.337-16.26-16.1-12.717-2.737-1.45-9.98-.483-11.268 1.45-2.253-.967-8.532 2.252-11.43 4.345 3.22-1.77 3.703-7.083 2.415-9.015 2.737-1.126 5.796-4.83 6.118-7.566 3.863.643 9.657-1.933 12.232-1.29-4.183-5.472-11.105-7.404-18.19-6.92-7.324.402-10.462 5.554-11.428 11.107-4.347 2.575-5.795 11.268-4.185 14.327-2.497-.08-4.83 2.335-5.797 3.702-3.38-1.448-8.21-2.494-11.67-2.494M366.322 373.198c-1.45-4.186.47-7.954 1.448-11.27 2.495-8.45.966-10.623-6.6-9.496-.643 4.024 3.22 17.224 5.152 20.766z"/><path d="M360.767 352.915c1.932 1.93 8.774 2.817 9.498-3.3.832-7.022-2.012-9.74-8.13-7.003-.482 1.61-1.046 8.21-1.368 10.303z"/><path d="M362.216 342.37c2.576 1.047 8.13 3.14 11.19-2.816 2.564-4.996-.806-8.854-6.118-8.533-1.288 1.45-3.864 6.602-5.072 11.35z"/><path d="M366.966 330.54c.644 1.93 7.244 8.37 12.073 3.7 4.83-4.667 4.83-11.59-2.415-14.165-1.933.322-7.728 7.083-9.66 10.464z"/><path d="M376.625 320.075c1.448 4.024 5.955 10.946 14.326 7.727 8.372-3.22 4.83-13.683.967-15.776-2.253.16-11.43 4.347-15.292 8.05z"/><path d="M391.917 312.026c-.644 3.542 0 13.2 11.43 13.04 11.428-.162 8.21-13.523 5.312-15.455-4.67 0-12.557.162-16.743 2.416z"/><path d="M409.142 310.094c-1.288 2.737-4.19 20.75 18.19 15.776 2.897-.644 10.463-17.224-18.19-15.776z"/><path d="M421.375 311.704c-2.25 2.254 3.54 20.445 18.675 17.386 15.133-3.06 2.416-20.284-18.675-17.386z"/><path d="M434.254 314.44c-2.413 4.99 1.212 19.8 19.883 19.8 16.92 0-.887-19.477-19.883-19.8z"/><path d="M448.904 318.787c-1.213 2.767-2.696 18.468 19.316 19.8 15.938.967 12.075-21.57-19.316-19.8z"/><path d="M472.566 325.387c-2.733 4.83-5.633 16.903 18.513 17.87 15.47.618 5.957-17.548-18.514-17.87z"/><path d="M492.69 329.09c-3.54 4.83-.932 14.302 8.047 16.098 11.27 2.253 12.88-8.37 5.154-13.522-7.728-5.152-13.2-2.576-13.2-2.576z"/><path d="M503.637 331.344c-2.575 4.507-.98 15.453 16.096 15.453 3.542 0 17.067-13.844-16.096-15.453zM371.48 541.275c13.83 0 25.042-11.213 25.042-25.042 0-13.833-11.212-25.046-25.042-25.046-13.832 0-25.044 11.213-25.044 25.046 0 13.83 11.212 25.042 25.044 25.042z"/><path d="M555.15 177.126c-1.934 1.932-5.954 7.727-6.763 9.98-8.37 25.113 13.975 43.872 27.046 70.83 10.304 21.25 9.017 54.734-7.083 75.983-5.51 7.268-3.863 9.336-10.946 16.74-2.717 2.842-5.796 6.44-4.83 16.743 4.51-1.61 10.947 2.576 12.234 6.117 3.22-1.61 7.73-.966 9.338.966 5.47-2.576 9.98-1.288 14.808 3.863 4.187-.645 8.696 0 12.88 4.506 2.253-4.507 6.762-6.117 9.978-5.15-.32-5.796 5.475-9.98 10.625-7.727-1.608-7.73 5.475-13.524 12.238-11.27 5.79-4.508 17.383-4.83 23.18 1.93-10.305-2.896-9.98 8.05-18.676 7.085 2.253 6.44-3.543 10.14-9.334 12.234 3.7-1.772 7.725-3.864 9.012-1.61 3.22-2.817 9.658-1.77 11.27-.323 4.263-1.368 8.372-.322 10.3 4.83 5.797 3.54 9.66 12.556 5.476 19.317-1.288-7.083-6.117-6.76-8.05-9.66-4.508 1.61-9.017 1.61-10.304-1.287-2.575 2.576-11.267 4.83-15.13.966-1.45 5.796-6.44 10.625-12.237 10.625 1.613 4.507-2.896 12.236-6.437 16.1 5.475 2.894 3.862 9.336 2.575 13.2 8.37 1.286 1.288 8.69 15.776 13.52-7.08 2.254-20.925 0-22.86-8.692-7.082-.32-11.91-7.404-11.586-14.813-5.475-5.15-6.28-12.554 1.287-17.705-6.44 1.93-9.983-8.37-19.32-4.186-4.642 2.083-16.9-1.448-16.738-5.795-1.934 3.22-13.684 1.932-15.297-3.54-3.862 2.09-12.88-1.45-12.717-6.763-4.99 2.254-11.75-1.77-11.43-6.922-4.666-.643-5.15-4.83-4.828-8.37-4.188-1.932-3.058-5.957-1.45-10.786-2.896-3.22-1.608-7.727.646-11.912-3.22-3.22-2.575-7.083-1.613-11.59-15.453-1.29-34.81-5.016-79.2-18.674-66.965-20.606-84.996 27.688-70.185 57.952 17.087 34.92-1.932 42.5 3.863 68.58 6.117 1.286 9.337 6.436 9.015 11.91 3.62.16 6.197 3.54 4.91 9.98 3.058-.562 7.002.32 9.578 2.896 2.255-4.183 9.66-5.15 13.523-.32 8.37-.646 12.557 6.116 12.236 14.487 4.503 8.05 2.895 17.87-1.935 24.146.484-3.378 0-8.208-.158-11.103-.3-5.33-7.73-6.442-6.924-10.788-3.863.32-7.566-1.772-8.854-4.668-2.255 1.93-5.474 2.575-8.21 1.61 4.345 1.932 7.726 9.657 6.438 14.807 2.254 3.866 1.77 10.95-.966 14.007-1.287 6.275-6.117 8.53-12.395 5.792 3.542-2.25 4.83-6.276 4.668-9.66-2.253-1.928-3.38-5.633-3.54-7.887-6.28.967-14.972-4.346-16.575-6.446-13.832 0-25.044 11.213-25.044 25.046-.644-5.154-7.16-10.23-6.354-14.575-3.863-11.912 1.61-23.02 17.386-25.27-1.932-4.51 4.83-9.18 2.254-14.33-3.29-6.58-9.337-15.133-18.352-25.112 5.474-9.338 3.864-21.892.644-29.62-4.623-11.097-9.015-8.372-25.435 9.657-26.76 29.384-62.46 21.25-94.012 40.567-8.384 5.133-16.742 7.083-7.727-1.93 9.016-9.016 32.84-18.028 48.294-25.758 28.94-14.47 53.445-38.635 63.104-85.64 22.697-110.465 106.245-74.05 159.045-53.445 49.57 19.346 40.567-24.47 15.454-50.87-30.183-31.732-24.146-56.664-9.98-76.625 25.434-3.542 74.214 5.312 64.393 13.844z"/><path d="M644.82 448.483c15.217 0 27.555-12.333 27.555-27.55s-12.338-27.554-27.554-27.554-27.554 12.336-27.554 27.553 12.338 27.55 27.555 27.55z"/></g><path d="M539.696 178.414c-6.117 27.044-.967 39.28 8.05 51.19 18.63 24.622 33.483 80.812 12.233 117.515"/><g stroke-linecap="round"><path d="M571.89 315.406c2.576-.965 7.406-4.024 8.535-9.336M573.825 303.655c.804-4.668 8.046-6.68 8.208-11.67M573.983 285.465c-.483-4.83 7.246-9.176 6.117-14.005M569.8 268.08c-.646-2.738 6.437-7.89 4.508-12.235M564.487 251.176c-1.45-3.058 3.38-6.6 1.288-9.82M556.758 237.654c-.483-2.093 2.496-6.68.888-9.416M549.033 221.717c.642-.805 3.22-2.737 2.17-5.15M543.72 210.047c1.046-.564 4.184-1.53 3.784-3.864"/><g stroke-linejoin="round"><path d="M382.58 513.57c-6.44-2.253-14.488.967-16.097 6.442M371.312 525c.805-5.47 9.176-7.888 11.75-5.313-5.31-2.895-7.887 7.405-3.218 7.73M423.145 397.666c-3.862 1.933-4.987 9.016 0 14.33M428.94 399.276c-2.732 2.254-2.574 9.015 1.45 10.625-3.378-2.413 0-6.6 2.418-6.76 2.412-.16 4.02 2.737 1.125 5.634M655.116 415.212c-9.012-2.412-16.258 8.05-8.05 17.388-.158-9.017 6.28-14.97 14.167-13.363M657.612 425.475c-2.216 0-3.462 1.733-3.462 3.42 0 1.772 1.53 3.463 4.025 3.463 1.612 0 2.9-1.85 2.9-3.3M689.404 227.834c1.45 5.474 9.017 7.727 14.97 6.44M704.375 230.732c-4.667.16-8.53-4.186-8.208-7.888 0 2.736 6.28 4.024 8.208 2.254"/></g><path d="M384.834 414.57c-1.287-3.22 3.864-6.44 4.025-9.498.16-3.06 5.794-5.473 11.59.322M397.712 371.105c-1.126.483-2.092 1.127-3.058 1.45M408.82 388.652c-1.37.08-4.185-.08-5.715-1.127M403.186 394.77c-1.127.563-3.623 1.53-5.072 1.85M347.97 492c-.16 2.9 2.737 7.083 4.347 8.37M360.527 485.08c-1.61 2.412-2.576 6.6-1.61 9.495M384.512 494.737c-2.897-1.933-.965-6.925-1.287-10.14-.323-3.222 3.38-8.372 10.624-4.026M357.468 476.387c2.898-.483 5.956-.325 7.888.48M394.17 467.208c-1.287 1.77-1.61 3.704-1.77 4.992M407.693 466.887c-2.253 0-4.185 1.61-5.15 3.22M376.463 384.466c2.576.886 9.256 4.99 9.498 9.257M403.83 363.54c-7.888-.162-10.947-8.21-4.99-8.21M417.995 374.325c-3.058 1.288-1.608 6.6 2.738 9.176M399.16 424.87c-1.528-1.928.484-7.562 5.475-5.874M410.913 483.63c.32-4.91 6.52-7.81 9.016-2.255M388.054 497.633c-.403-5.39 2.333-7.162 4.748-7.483 2.415-.32 5.877 1.687 7.486 5.23M340.082 501.658c.322-3.22 3.06-6.6 5.956-6.116M634.675 358.71c-2.096 1.53-3.463 8.37 4.504 9.015M622.437 369.98c0 .803 1.046 1.93 1.692 2.413M660.43 382.856c-2.093-1.61-7.49 4.91-2.576 9.66M609.237 436.946c-1.208-4.588 3.06-5.796 7.084-4.83M598.937 404.428c2.413-1.61 4.83-3.38 7.888-4.186M597.65 422.133c0-3.862 1.93-7.08 3.7-8.046M611.812 377.705c-.32 4.67 1.613 9.176 3.063 11.59M650.13 378.027c-2.34.725-4.43 1.61-5.314 3.542M647.55 391.227c1.13-.966 2.416-2.092 2.98-2.897M708.4 250.693c0 4.508-5.633 6.922-9.333 4.025M720.637 250.854c2.492 1.932 11.105.082 9.092-4.91M710.17 276.772c-1.77-.322-4.828-2.254-6.116-3.864M727.88 263.41c-2.897.644-4.83 0-6.28-.643M682.162 279.508c1.61 0 5.47-.644 8.13-2.01M677.333 251.015c-2.092-.24-3.625.16-4.83.966M709.77 258.903c-.562 2.013-2.012 5.15-3.783 6.52"/><path d="M671.858 265.986c4.025-1.77 9.017 11.912 18.675 7.083M691.337 258.903c-1.287 1.77-2.09 4.508-2.254 6.922" stroke-linejoin="round"/></g><path d="M498.808 237.976c1.287-.16 3.542-.644 4.025-2.254M333.16 387.847c4.83 2.737 8.21 7.405 6.117 14.327M554.504 223.166c1.45.966 6.925.966 9.983-.16M568.35 226.385c-.163 2.254.483 10.786-3.863 12.557M566.096 237.815c4.025 1.288 12.075.805 14.65-6.6M575.112 237.493c2.092 3.22 2.734 9.498-3.54 12.878M576.72 242.805c4.667 1.61 15.455 1.77 14.326-7.405M587.346 242.805c3.22 4.508 17.387 9.82 15.133.483M574.308 255.845c5.47 1.288 13.2-2.415 9.98-12.074M599.74 248.6c.806 3.703 18.835 7.566 16.422-.804M612.78 252.625c3.382 7.727 21.25 7.083 15.616-3.22M625.496 257.454c3.54 4.347 19.32 1.77 13.04-8.693M638.375 257.293c9.82 7.405 21.25-3.22 8.854-10.946M652.862 254.88c8.696 6.92 19.32-5.636 11.754-9.177M584.125 251.98c2.737.806 8.533.484 9.82-4.506M591.77 250.854c-.32 7.325 11.996 10.142 15.134 1.69M602.8 257.133c2.254 4.83 13.037 6.76 14.808-.162M615.837 260.19c1.77 4.83 11.11 4.348 13.684-.643M626.14 262.767c2.897 6.278 14.81 6.278 17.547-2.898M641.596 263.893c4.666 2.898 14.65 1.77 13.84-7.243M653.508 263.088c6.92 5.635 16.742.162 11.913-9.336M664.937 270.493c3.704-.643 5.634-8.048 1.77-9.98M579.137 271.78c7.725-4.184 9.175-11.267 3.863-18.19M585.737 264.698c4.83 2.898 14.004-.16 15.613-7.244M592.337 265.503c2.734 3.542 3.217 7.888-.325 11.913M594.59 270.01c8.53-5.312 19.156 4.508 11.268 10.464M604.408 269.528c1.933-.483 5.313-4.025 5.633-8.05M608.27 273.23c3.542-3.702 27.692 3.864 12.396 11.59M619.54 263.088c4.668 1.77 7.085 8.372 0 10.625M625.658 279.186c5.15-5.312 21.25-1.93 15.454 4.83M637.25 277.094c2.896-9.82 20.12-3.703 14.487.322M633.708 267.274c.483 1.932.642 6.76-2.575 9.337M648.196 265.342c.64 1.61.483 4.67-.967 6.6M659.14 265.503c.968 1.77 2.576 5.152-.965 7.888M521.346 191.453c.158 9.176 3.38 15.293 15.775 9.498M525.208 202.4c-6.117 8.21.804 17.063 12.88 8.21M506.375 206.424c8.37 9.015 23.34 2.415 13.683-11.27M530.2 214.15c-1.613 8.855 5.633 10.626 11.587 6.6M498.966 207.873c1.525 8.9 10.625 15.937 19.48 10.464M509.916 220.107c0 12.718 17.546 14.166 21.57.966M525.208 229.122c5.633 11.59 17.867 6.922 21.892-.16M512.812 210.61c2.254 5.634 6.763 11.912 17.225 7.244M480.616 207.873c1.45 4.668 9.82 10.302 19.48 3.863M486.575 213.83c-5.155 7.565 5.15 14.648 17.545 3.38M492.69 223.166c2.093 10.624 6.276 19.157 21.41 5.473M506.533 234.113c5.475 6.76 13.846 10.946 21.733-.483"/><path d="M534.062 236.044c-.483 8.05 1.125 12.074 7.404 11.752 4.95-.254 9.66-4.186 12.396-8.37M540.34 247.796c-.16 9.175 7.08 16.42 20.606 7.083M545.975 258.58c-2.575 6.923 5.15 18.192 20.283 12.396M513.937 240.23c-.962 8.853 7.246 14.81 20.446 3.38M520.38 250.05c.482 7.243 8.69 15.936 20.766 3.38M526.175 259.225c-.967 12.396 10.462 15.937 20.12 6.44M508.95 250.05c2.575.16 4.666-2.093 5.954-3.703M514.42 259.064c2.255.483 6.12-1.61 7.41-4.185M520.058 273.713c2.575 2.737 11.267.805 12.392-2.897M529.716 273.552c4.83 11.27 17.705 10.786 23.017-1.93M550.32 276.128c2.413 6.6 8.534 10.785 18.513 8.532M555.15 282.89c-5.634 9.175 1.77 19.96 14.325 9.336M558.208 296.572c-.642 5.795 4.67 12.396 11.913 13.2M534.383 279.67c-1.933 13.038 7.404 19.317 19.158 12.395M520.7 285.948c3.058 2.414 8.533 2.736 13.683.805M540.662 294.318c-2.9 10.947 8.37 18.835 18.03 6.6M525.045 287.718c.163 5.635 5.638 11.752 15.134 9.98M566.74 308.968c-6.44 4.346-7.728 12.073 1.29 17.063M550.962 306.714c.325 6.6 3.384 10.302 10.625 10.946M541.466 303.333c-9.658 8.854-.162 19.157 11.267 10.464M548.23 316.534c-3.222 10.14 8.853 16.258 15.29 5.956M528.266 294.962c-3.54 9.98.967 16.58 9.175 15.937M515.55 293.03c.483 5.957 5.633 8.05 11.43 6.762M519.25 299.31c-4.346 8.37 2.254 12.877 10.95 9.658M556.6 327.64c-1.45 5.313-.646 9.177 7.24 10.948M557.083 335.207c-9.5 4.347-10.304 13.522-2.9 19.478M549.433 324.986c-4.987 4.507-4.025 12.314 1.45 15.372M507.18 295.606c-5.476 5.394-.243 20.284 11.828 12.155M538.57 314.44c-7.408 6.118-4.024 17.226 8.21 14.167M526.333 309.772c-3.862 10.947-.158 14.81 8.533 14.97"/><path d="M499.13 295.123c-6.6 4.99-4.83 12.074-1.93 15.293 2.895 3.22 8.366 1.77 10.137-2.414M485.283 290.777c-7.404 9.498 0 20.766 10.467 17.386M524.887 318.948c-7.566 2.737-13.337 9.607-8.696 15.615 2.74 3.542 14.65 4.025 18.03-9.66M511.204 310.094c-4.346 6.28-2.9 12.235 5.15 15.293M510.72 321.846c-4.67 2.575-7.73 5.634-6.6 11.268M500.258 312.026c-1.77 7.566.32 12.235 4.987 14.488M500.095 321.04c-7.245-.482-10.945 2.576-8.533 9.66M492.208 322.812c-7.083-2.576-8.213-8.693-5.154-15.132M486.09 317.177c-7.728.322-11.107 4.186-11.107 9.498"/><path d="M475.625 287.074c-5.634 2.415-7.405 9.98-5.313 14.167 2.096 4.186 8.696 4.508 12.72 1.77M459.85 281.118c-5.15 5.795.804 17.064 9.983 14.327M446.65 276.61c-4.83 6.762.483 18.03 12.88 14.81M460.17 322.812c-1.287-8.05 7.084-13.36 17.388-2.898M472.566 303.655c-3.058 2.737-4.504 7.083-4.025 10.625M433.45 272.747c-5.313 9.015 1.13 17.225 12.558 14.006M463.233 295.123c-7.567 7.566-4.992 15.132.642 19.48M458.4 303.977c-11.43.16-12.07 13.362-2.734 17.547M449.708 290.777c-4.667 3.22-6.117 12.073 1.933 15.615M449.387 310.577c-4.83-2.254-10.625.483-10.142 6.117M442.14 310.738c-4.345-10.302-17.06-8.532-15.932 2.093M445.683 298.02c-2.733.484-8.208 2.093-10.3 6.28M436.187 286.43c-5.15 5.796-1.13 12.718 3.058 14.166M420.895 270.172c-.966 6.922 1.77 10.302 10.463 9.66M423.954 279.026c-3.384 8.37 1.125 12.073 9.816 11.59M425.883 289.328c-5.15 6.117-1.608 12.718 3.38 15.454M423.47 297.055c-9.175-1.127-10.625 9.498-7.566 14.488"/><path d="M416.062 269.367c-5.632 2.414-8.852 9.497-5.793 13.844 3.06 4.347 9.175 2.898 12.555.645M412.2 285.143c-4.668 7.083-.484 12.395 4.508 14.488"/><path d="M394.17 268.562c-3.7 3.863-1.448 11.75 7.567 11.912 7.258.13 10.946-6.76 8.693-11.59M400.45 280.474c-2.898 6.44-1.128 13.362 9.82 12.234M414.937 302.85c-6.76-3.058-15.776 0-11.912 8.05M402.06 291.42c-2.738 3.864-1.772 9.338 1.287 12.718M401.576 301.723c-4.507.805-8.854 3.22-6.117 10.303M394.815 306.23c-5.795-1.77-13.2 2.416-8.693 8.372M385.156 308.968c-4.99-.805-10.946 4.507-6.117 9.82M377.107 314.44c-4.507 1.128-9.82 6.28-5.15 10.303M399.805 289.167c-6.44 2.898-7.083 10.142-4.024 15.454M393.044 275.806c-9.66 3.702-9.497 16.58 1.127 20.605M389.664 293.513c-5.795 3.38-6.922 9.82-3.06 14.005M379.522 270.976c-3.864 1.288-3.542 13.2 6.76 12.88M368.897 275c-7.727 5.152 1.61 18.19 14.166 8.855M376.14 287.074c-1.125 5.313.323 11.108 8.855 11.752M376.625 294.158c-6.118 2.253-7.245 14.81 3.863 15.775M357.146 282.728c-7.888 7.244 6.44 13.522 11.75 3.06M346.2 294.8c-3.864 4.67 9.658 16.904 15.614-3.54M363.263 290.938c.322 4.83 3.22 7.727 9.176 8.05M372.278 303.655c-9.498 1.45-12.556 13.36-1.932 15.937M354.73 302.046c-.32 4.507 4.347 8.21 9.66 7.405M369.22 319.27c-8.693 1.932-9.82 13.2-2.093 12.556M363.102 342.29c-7.244-2.173-7.405-10.786-.966-14.005"/><path d="M357.146 334.724c-6.117 3.702-3.702 12.556-.483 13.844 3.22 1.288 5.795-.322 6.117-3.058M362.297 357.905c.644 4.185-14.89 2.576-6.922-10.464M355.294 358.63c-5.23 8.21 3.3 14.89 8.693 7.888M356.02 368.53c-2.094 6.6 5.874 11.35 11.025 6.198M338.634 306.714c-2.898 5.956 11.59 8.21 12.555-4.025M334.61 315.568c-2.898 11.59 18.994 9.175 13.36-5.796M348.453 317.5c3.06 1.77 12.235 1.93 14.488-7.89M356.34 317.82c.645 3.06 3.382 6.762 5.957 7.89M345.877 320.88c-.965 6.278 5.312 11.43 12.557 10.946M347.004 326.997c-3.54 4.83-4.668 14.166 6.44 14.81M330.102 328.607c-1.77 4.99 8.692 10.142 14.81 1.932M326.882 341.324c-.886 3.784 8.532 8.854 13.844-7.244M336.54 342.29c2.254 4.024 9.82 7.244 14.49-.644M343.463 346.476c-1.932 5.634 3.38 10.946 9.82 9.336M331.39 345.188c-1.288 8.048 8.048 12.717 13.844 8.53M325.272 348.73c-2.736 10.302 10.464 14.165 15.454 6.438M337.345 358.227c.484 5.795 9.5 10.785 16.58 5.956M321.248 363.056c-.644 2.576 10.14 5.152 11.75-3.863M327.526 365.31c2.576 6.6 11.268 8.21 16.26.16M340.887 368.69c1.127 6.118 9.015 9.498 15.937 5.313M359.722 376.417c-1.77 8.21 6.76 14.81 12.073 10.303M346.038 374.97c-2.575 9.014 8.693 14.165 14.97 9.174M332.516 370.46c-.644 8.372 5.956 13.362 13.522 9.66M318.19 371.266c-2.255 5.473 9.658 9.98 15.292 5.313M310.784 386.237c3.06 3.542 13.683 0 14.65-7.888M322.536 384.144c3.863 4.508 13.04 6.922 16.74-2.736M336.058 386.398c-.16 6.922 12.234 11.913 16.26-.805M366.885 388.09c-1.128 3.38 1.53 8.772 7.082 9.416M356.663 385.996c-.805 3.864 4.83 9.256 10.786 7.083M368.575 394.69c-1.61 4.185-.242 10.22 5.392 10.14M369.138 402.496c-4.185 3.54-2.415 9.82 3.623 10.062M366.966 408.452c-5.957 4.023-3.864 12.877 4.024 12.398M348.936 391.39c0 8.692 10.786 9.98 12.878 1.93M357.63 398.47c-1.61 5.153 2.575 10.143 9.175 8.694M358.917 460.608c1.45 2.096 7.405-1.446 5.795-4.987-1.61-3.54-7.92-1.616-7.244 2.092M363.263 454.17c.805-7.083-7.566-8.208-9.66-2.09M356.663 448.537c2.093-3.54-4.99-8.37-7.888-3.22M351.35 443.225c1.932-5.154-6.116-7.404-6.76-2.738M342.82 433.725c.965-2.575 9.98-.967 6.116 4.346M355.858 444.512c3.54-3.22-2.414-9.82-6.117-7.404M379.683 454.333c-2.818.32-5.716 2.17-3.623 8.13 1.452 4.133 7.647 4.345 8.532 1.85"/><path d="M375.577 457.308c-2.736-1.77-8.692 1.21-5.956 7.004 2.062 4.363 7.245 2.575 8.05.32M360.204 465.6c1.368 2.412 8.21 1.37 9.417-1.288M364.873 457.633c1.45-.966 4.104.238 4.668 1.446M364.39 417.95c-4.668 3.058-1.77 12.396 5.473 9.98M362.94 425.517c-3.7 2.895-.32 11.912 6.6 8.533M364.068 434.05c-2.576 2.575-.08 9.737 6.6 8.37M363.102 437.592c-1.45-.646-5.232-.163-6.842 2.25M358.917 404.992c-3.542 3.38-1.852 10.304 4.748 10.866M357.63 412.075c-5.073 2.496-5.073 12.554 5.07 12.958M357.226 423.425c-2.817 2.254-1.45 10.946 5.795 9.817M359.56 432.92c-1.046 1.047-1.208 3.705-.32 4.83M356.34 429.62c-2.574.08-5.955 1.934-6.84 4.588M344.83 424.87c.966-2.574 8.936-2.412 9.498 5.155M355.133 421.008c-1.127.242-3.3 1.288-3.863 3.463M351.673 397.426c-3.462 3.138-5.15 13.04 5.392 14.97M344.67 417.87c0-2.658 7.164-4.912 9.658-.966M340.082 403.462c1.046 2.013 6.036 4.75 9.095 2.496M314.164 387.686c-.16 4.668 3.703 8.854 9.015 8.21 5.312-.644 6.44-5.312 4.83-8.37M323.984 396.057c-3.54 4.346.805 10.464 4.83 8.693M328.01 392.998c2.092-.805 9.014-1.77 11.106 1.45M305.633 394.286c-1.61 2.415 8.37 4.83 11.75.16M314.004 396.862c-.322 3.22 1.288 8.692 9.498 6.44"/><path d="M324.79 408.29c1.287-2.736-4.83-7.243-9.498-2.253-4.67 4.99.643 10.625 3.54 8.692M303.38 397.506c-2.416 4.185 6.92 11.832 12.234 4.75"/><path d="M297.18 404.75c-3.38 3.462.806 9.82 5.877 7.887 5.07-1.93 4.587-7.243 3.38-8.61"/><path d="M290.662 411.19c-2.737 2.493-.08 8.368 3.702 8.368 3.783 0 6.118-2.975 5.393-6.758M306.035 410.706c-.483 3.702 4.99 6.277 8.532 2.82M314.727 406.763c.483-.805.082-2.174-.723-2.818M284.785 416.18c-3.138 2.495 3.623 9.416 7.888 3.057M309.013 414.812c-2.013 1.93 1.207 7 4.426 5.47M297.986 418.354c.483 3.458 7.244 6.033 11.51.725M301.688 421.812c-1.046 2.175 1.047 5.638 3.623 5.155M365.757 441.696c-2.494 4.908 5.474 10.625 11.27 4.666M371.553 449.02c-1.207 2.655.242 6.36 2.414 7.726M363.987 454.575c.564-2.417 4.024-4.67 7.164-3.542M359.802 448.212c.482-2.17 3.38-4.345 5.554-3.78M549.354 347.763c-11.43.16-6.6 18.513 3.22 14.81M545.654 361.286c-2.254 3.702 2.092 9.578 6.92 6.117M551.287 368.128c-3.383 5.634 8.692 14.246 13.52 5.392M560.946 376.9c.158 5.313 15.612 8.693 13.362-1.93M572.858 380.764c3.7 6.278 17.546 6.922 16.096-2.415M585.896 384.79c2.9 4.184 16.42 6.76 15.937-1.934M531.004 331.826c1.93 4.99 8.53 6.762 15.775 3.864M526.816 335.368c4.51 2.898-2.09 16.098-9.012 10.786M526.816 343.578c4.992 2.415 11.11.644 12.88-6.44M536.637 342.612c.484 3.702 5.796 6.6 12.717 5.15M524.24 346.476c6.443 5.473-2.894 16.74-7.082 11.59M526.658 350.66c3.058 2.255 10.946.967 11.75-4.99M534.866 350.66c.646 3.864 3.705 5.313 8.05 5.474M524.887 355.973c3.217 4.508 11.267 5.796 14.81-.16M536.154 359.193c-.32 4.346 4.508 7.888 9.5 6.922M518.608 368.85c4.183 2.094 8.692-5.794 5.15-11.267M523.437 377.222c4.992.322 5.634-7.243.967-11.43M534.866 384.144c4.188-.965 2.896-10.14-7.245-10.946M547.583 390.906c4.025-1.127.804-11.27-10.3-10.625M562.88 394.447c2.732-4.186-6.28-11.268-13.684-7.566M570.44 400.242c4.993 1.45 8.372-11.75-7.403-9.658M579.616 400.242c4.35-1.126 7.41-9.015-5.308-6.44M589.28 400.886c3.86 1.932 5.632-9.337-6.122-6.278M524.404 365.793c4.83 2.736 12.396-.483 11.75-6.6M534.22 364.505c1.613 2.898.967 8.532-2.09 9.98M534.704 371.266c3.22 1.288 7.567.16 10.142-4.99M540.34 371.266c.964 2.254 1.29 6.76-.807 9.015M541.146 375.13c3.54 1.93 7.725-.644 9.495-4.347M548.387 374.003c2.575 1.61 4.83 9.176.484 12.234M551.287 382.696c3.06.16 7.567.16 10.463-3.703M559.658 381.086c2.738.805 5.954 5.312 4.83 9.337M564.646 388.974c3.062-.322 8.37-2.415 9.82-6.118M573.016 385.27c2.58 1.45 4.35 4.51 4.025 8.05M577.04 390.744c3.06-.16 5.797-1.77 6.6-5.15M582.837 387.847c2.254.805 4.992 3.38 5.154 6.44M587.666 392.354c2.255-.322 3.863-1.77 5.313-4.024M599.096 388.008c2.9 2.898-.963 12.556-6.92 10.786M537.283 192.902c-5.958 3.54-22.863 2.415-14.492-11.59M538.89 183.404c-11.75 4.67-26.24-4.346-11.107-14.166M523.758 166.018c-9.82 0-16.42 15.777-3.217 21.25M485.608 172.62c-2.575 4.99 6.6 10.462 12.88 5.472 4.862-3.866 4.503-14.327 1.607-18.352M480.616 184.53c-3.22 10.625 20.446 11.27 16.742-5.633M479.33 200.307c.803 8.05 22.7 5.473 15.61-10.786M497.52 185.014c1.77 2.415 6.6 6.6 14.81 5.795M501.383 173.585c.725 2.897 5.633 5.15 11.912 2.978M281.727 418.512c-5.553 3.946 2.98 10.142 6.117 3.3M277.38 421.575c-5.553 3.942 2.98 10.137 6.118 3.296M272.793 424.55c-5.554 3.946 2.978 10.142 6.117 3.3M267.964 427.287c-5.313 2.817.885 9.738 6.278 3.62M262.73 429.946c-5.31 2.812.887 9.737 6.28 3.62M289.696 421.654c-.08 4.104 7.727 5.796 10.543-.325M294.605 425.437c-2.414 3.06 2.013 6.842 4.428 5.47M284.223 424.87c-.242 3.463 6.52 5.476 9.82 1.692M287.925 428.496c-2.173 2.816 2.093 6.6 4.83 5.47M279.715 428.012c.24 2.738 4.104 5.875 8.29 4.105M282.21 431.712c-1.61 1.45-.805 4.834 1.45 5.88M273.84 431.47c-.645 2.497 3.622 6.926 7.968 4.026M274.725 434.37c-2.576 2.013-2.254 5.072 1.046 5.472M268.526 434.05c-.32 1.687 1.853 4.425 4.59 4.104M254.764 433.887c-2.576 1.367 4.024 8.37 8.128 1.85M248.404 436.783c-3.22 1.534 4.75 9.26 8.292 1.37M269.25 436.462c-2.494.563-4.104 4.188-2.01 5.634M261.12 437.75c-.32 1.45 2.738 3.862 5.234 2.98M259.03 438.396c-2.416 1.53-1.128 5.79 1.69 5.15M250.417 441.212c-2.253 1.688-.725 5.07 2.415 4.267M254.52 440.97c.083.884 2.094 2.255 3.785 1.692M242.61 439.52c-2.817 1.21-2.656 8.292 6.84 4.43M236.25 442.337c-3.944 1.934-2.656 7.246 5.957 2.175M242.93 444.917c-1.045.804-2.17 4.345 1.772 2.975M235.687 446.604c-1.61 1.45-.563 4.43 2.98 3.3M227.397 447.087c-2.897 1.692 3.46 3.946 7.727-.562M229.33 449.18c-1.29 1.287-1.29 5.07 2.092 3.703M221.12 450.708c-1.933 1.45 1.367 3.384 7.404.725M223.534 452.804c-2.254 1.85-2.013 4.183 1.287 3.458M216.853 453.85c-2.495 2.254 1.126 3.783 5.473 1.93M216.934 456.346c-4.267 1.93-2.415 5.47.24 4.104M359.4 468.658c-.99 2.13 2.253 3.863 5.312 3.38 2.938-.463 5.748-2.884 3.54-6.276M368.415 469.946c2.897 2.254 8.048-.32 8.048-3.704"/><g fill="#fff"><path d="M545.975 128.832c-12.88-6.44-39.6-18.35-47.167-8.692 6.92-2.898 27.204.16 43.946 15.615l3.22-6.923z"/><path d="M553.783 128.15c-14.892-17.347-23.662-13.464-34.37-19.44-10.06-5.614-26.08-6.76-29.184 2.167 14.695-7.157 28.186 3.85 36.474 5.18 11.383 1.83 17.808 10.628 21.137 14.676l5.943-2.583zM609.883 125.935c-7.73-17.708-24.254-13.083-31.554-20.605-10.622-10.947-37.505-21.088-48.614-13.523 24.467-1.287 34.888 16.866 47.97 23.18 9.34 4.51 19.318 14.168 32.197 10.948z"/><path d="M580.908 124.003c-13.2-16.42-33.487-30.908-42.82-25.434 12.233.642 16.095 9.175 24.79 14.647 8.693 5.474 4.83 13.362 18.03 10.786zM518.125 152.98c-13.846-5.152-40.888-7.728-53.446 8.048 20.928 3.542 52.478 1.61 53.445-8.05z"/><path d="M515.55 159.097c-13.846-6.44-24.66 2.555-37.67 1.287-24.79-2.414-42.497-.966-44.75 10.947 14.165-12.716 37.99-2.253 47.65-4.828 9.657-2.576 45.395-.322 56.66 4.507-5.794-7.084-14.807-9.016-21.89-11.913zM559.012 122.232c-3.216-10.624-3.058-21.893 12.88-21.088-4.026-4.99-18.834-7.566-21.25 11.108-17.546-12.88-36.705-15.132-40.242-4.025 9.012-7.727 23.016-2.092 39.758 16.903 1.45-.805 5.313-2.415 8.854-2.898z"/><path d="M534.866 136.88c-9.98-6.438-23.504-16.9.163-21.087-10.143-5.473-24.955-3.058-23.343 15.615-27.046-10.946-46.467-7.252-50.55 3.542-4.508 11.912 12.238 18.512 15.133 10.946-3.058 1.288-13.52-2.254-8.05-9.015 5.475-6.76 33.525-1.684 60.21 12.236 7.403 3.863 32.836 3.22 6.436-12.235z"/><path d="M527.783 154.59c-7.7-15.723-32.68-1.45-37.713-16.678-6.88 22.31 35.52 9.965 37.713 16.677zM686.67 171.653c5.238 2.602 9.767-1.49 1.755-4.698 5.242 2.6 9.812-1.392 1.8-4.603 5.242 2.6 9.812-1.392 1.8-4.602-2.138 2.15-5.196 10.04-5.354 13.903zM689.404 141.39c11.592-12.235-.962-16.42 13.2-28.977 11.592-10.273 2.213-17.12 13.204-25.113 3.542-2.575 11.267-7.727 11.913-12.878 4.667 11.59-14.49 13.2-13.203 31.873.82 11.89-7.217 10.852-10.3 30.908-.646 4.186-3.542 13.522-14.813 4.186z"/><path d="M694.558 146.862c6.438-13.844 13.83-13.577 17.384-18.995 6.762-10.303 21.087 1.77 33.162-7.405-2.092 13.04-18.35 8.37-25.433 16.74-7.083 8.372-12.878 12.236-25.112 9.66z"/><path d="M696.167 151.37c11.27-9.015 19.575-3 27.366-7.728 19.638-11.912 27.53 2.415 45.075-3.22-4.67 11.27-30.587 1.61-41.854 9.982-11.27 8.37-50.87 16.42-30.587.966zM663.33 215.6c-.164-5.15-4.993-11.752-11.755-12.556-6.76-.805-9.66-7.89-14.81-8.21-5.15-.322-8.532-10.625-15.615-10.464-7.084.16-9.98 9.337 6.6 17.708 16.583 8.37 34.933 18.03 35.58 13.522zM642.4 219.946c-7.084.322-8.05 10.625-14.81 10.947 9.335 4.99 16.097-2.254 20.926-8.693l-6.116-2.254z"/><path d="M648.196 221.234c-6.117 5.15-7.888 15.937.966 18.996-5.312-7.325 9.338-10.625 4.83-17.386l-5.796-1.61z"/><path d="M654.312 221.556c-4.83 9.337 7.567 10.464 4.346 17.547 7.083-1.61 8.213-14.97 1.77-18.513l-6.116.966z"/><path d="M606.983 201.595c11.592-.644 22.192 5.626 29.3 15.776 4.508 6.44 19.638 9.015 24.792 3.864 5.15-5.15 2.254-16.098-10.625-12.556-3.22-5.473-12.56-3.542-17.063-8.05-4.508-4.506-21.896-17.385-26.404.967z"/><path d="M650.45 208.678c-3.06.644-4.025 5.956-2.096 8.693M657.05 211.898c.966 1.61.32 3.863-.163 4.99M625.337 202.078c5.954.322 7.084 4.668 13.52 6.278" stroke-linecap="round"/><path d="M621.404 187.43c20.57 5.15 36.892 9.658 47.012 15.453 10.12 5.795 25.792 7.405 39.505 3.54 13.713-3.862 40.155-7.404 38.85 9.66 7.188-8.532-1.958-17.708-20.24-19.318.328-8.37-8.63-15.937-15.072-10.946 5.96-.806 11.1 10.302-.65 14.81 2.284-8.372-6.04-15.938-14.69-12.235 5.55 1.61 11.16 10.916-1.256 14.488-7.837 2.253-19.262-.644-27.75-5.795-8.487-5.152-56.154-23.825-45.708-9.66z"/><path d="M673.308 179.058c-6.437 2.897-2.254 9.66-12.233 13.522-9.984 3.863-16.904 12.717-14.65 20.283 6.762-14.81 18.675-14.166 22.858-19.96 4.188-5.796 10.304-14.328 4.025-13.845z"/><path d="M675.08 180.024c-.322 11.75-9.572 7.47-5.96 23.986 1.13 5.15 3.22 13.522-.32 21.893 10.383-7.566 3.704-23.46 8.37-29.46 2.255-2.897 5.15-7.405 6.28-11.268-2.417 6.76-2.254 19.318 4.346 22.537-5.313-12.557 14.33-22.86.804-37.347-1.93 3.542-8.05 9.82-13.52 9.66zM642.237 168.272c1.613 2.415 3.22 8.532 1.77 11.913 3.222-1.932 7.893-6.922 9.34-10.303 6.6.966 9.174 9.176 2.9 12.717 3.86 0 10.46 0 14.16-4.347-4.503-4.99-18.507-12.718-28.17-9.98z"/><path d="M542.108 145.176c-1.042-.95-2.8-1.85-5.954-2.5-9.746-1.998-4.713-10.784 3.583-10.705 17.704-19.316 27.646-4.425 49.217-10.543 7.55-2.14 12.733-1.507 16.846.272 9.658-6.44 20.987-4.64 29.2 2.925.912-1.45 2.137-2.56 3.858-3.037 7.563-2.1 13.68 4.348 15.77 12.72 5.897-1.093 12.63 1.825 17.06 5.85 6.133-3.15 10.358-3.29 11.912-.052 5.475-2.576 12.567-4.19 16.108 4.502 3.542 8.693-8.37 6.117-10.304 24.47-1.192 11.32-13.842 15.775-23.825 9.014-15.968-10.817-31.55-12.557-39.28 3.863-7.725 16.42-13.78 25.96-32.517 20.606-6.758-1.93-15.454.645-20.925 8.05-5.475 7.405-13.846.483-23.825 1.288 12.554-1.932 7.746-5.09 18.675-5.796 9.98-.644 7.404-9.98 13.842-11.268-25.113 6.44-24.146-2.898-44.75 3.54 9.012-11.59 23.18-5.15 30.262-11.91-18.675-.323-27.025-12.523-35.416-7.406-13.2 8.05-7.41 30.965-41.855 28.976-16.74-.966-27.365 1.288-37.345 11.27 17.388-36.06 41.038-16.25 52.48-27.69 6.762-6.76 11.912-11.912 15.454-18.35 1.245-2.268 2.932-3.564 5.04-4.064-28.654-9.015-11.325-23.058 16.688-24.024z"/><path d="M683.59 140.11c.44.905.664 2.08.664 3.532 0 7.083-10.625 7.405-11.267 17.87-.337 5.473-.966 8.53-4.67 7.887-3.7-.645-6.92-6.44-3.38-13.2" stroke-linecap="round"/><path d="M547.42 134.628c-2.666-1.874-5.333-2.635-7.724-2.657M605.74 121.648c8.526 3.69 12.685 12.546 25.068 12.98 11.92.418 19.32 17.707 39.28 6.44.54-.306 1.07-.59 1.583-.855M635 124.625c-1.78 2.83-2.184 6.78-1.696 10.244M596.037 161.028c-15.13 0-18.996 7.727-18.996 15.132 0 7.405 7.085 17.064 19.643 17.064 12.554 0 19.317-7.727 19.317-16.098 0-8.37-7.73-16.098-19.963-16.098z"/><path d="M598.775 192.902c-.32-4.185-7.888-3.542-7.567-6.76.32-3.22 4.188-4.51 4.188-9.016 0-4.507 6.758-4.83 9.012-1.288 2.254 3.542 9.017 10.464 10.467 6.922M604.408 175.838c-3.542 3.542-5.15 10.786-.483 16.42M609.237 181.312c-1.125 2.414-1.446 6.117-.158 8.37"/></g><path d="M669.362 169.48c11.834.966 13.846-12.073 4.992-12.878M654.796 134.306c-4.105-5.23-13.52-7.002-13.684 4.105"/><path d="M639.987 151.047c-4.025-9.98-14.33-11.43-19.804-6.44-4.554 4.155-4.667 14.973 5.154 17.226 3.38-4.024 9.98-9.337 14.65-10.786zM635.558 144.77c-5.796-5.152-14.33 4.588-6.6 13.522" fill="#fff"/><path d="M654.796 134.306c-3.542-3.783-11.267-.805-9.096 6.842 1.69-3.54 5.312-6.52 9.096-6.842zM632.912 154.93c2.438-1.77 4.954-3.224 7.075-3.883-1.158-2.864-2.83-5.026-4.758-6.534-1.843-1.272-7.134 5.844-2.318 10.416z" fill="#000" stroke="none"/><g stroke-linecap="round"><path d="M623.404 141.872c-5.796-3.864-11.108-3.542-12.88-.322-4.183-.16-7.645 2.897-7.808 9.015M611.654 153.14c-6.92-4.748-16.42-2.977-15.775 7.648M591.69 166.823c3.38-2.736 8.21-4.668 11.914.162M643.366 156.36c-1.287 1.77-2.254 4.507-.162 8.693-2.575-3.38-9.013-3.38-15.938 5.634M658.658 155.877c-8.37.966-8.208 6.44-1.45 8.854M599.096 135.432c-7.084-1.448-12.234 2.737-2.413 6.28M612.62 130.603c-9.983-2.414-14.008.16-9.5 2.415M583.804 170.687c-.32 3.54 1.608 8.21 7.404 2.898M585.737 181.312c0 .966-.162 2.092-.808 2.897M562.554 134.145c-6.117-1.77-7.242-7.405-.158-6.922M560.462 147.184c-6.762-2.254-6.762-8.854-1.13-8.21M573.016 143.804c-7.887-1.932-8.208-7.406-2.25-6.6M573.983 127.062c-4.183-.322-10.625 4.346.163 7.083M585.737 136.398c-9.82-1.448-9.658 2.576-3.866 5.152M593.14 127.062c-7.565-1.45-10.14 3.058-4.99 4.99M569.316 154.91c-1.854-1.528-3.38-8.853 5.47-6.68M587.666 152.657c-5.954-1.61-11.587 4.186-6.116 7.566M595.554 145.735c-6.275-1.127-11.588.644-8.208 2.898"/></g><path d="M525.312 169.16c3.88-.92 9.55.978 18.246 5.068 5.475 2.576 21.896 8.05 32.196 2.576-10.625 3.864-18.67-12.234-26.72-10.302-8.05 1.93-22.78 4.91-28.976-.967 15.13.967 23.267-11.02 40.563-.643 4.834 2.897 10.95 4.83 16.42 4.507-14.16-17.065-32.836-6.118-34.77-19.962 8.534 9.176 29.38-2.093 40.005 15.132M654.462 134.308c-3.537.656-6.708 2.734-8.762 6.84M545.333 152.006c-1.992-2.48-1.092-4.95-3.23-6.906" fill="#fff"/></g></svg>