<svg xmlns="http://www.w3.org/2000/svg" width="684" height="360" viewBox="0 0 570 300"><title>Flag of the Marshall Islands</title><path fill="#003893" d="M0-.005h570v300H0z"/><path d="M109.536 202.53l-3.84-63.863-13.392 35.184 5.976-37.15-22.056 30.503 15.408-34.344-29.184 23.76 23.76-29.185-34.344 15.384 30.504-22.033-37.176 5.976 35.184-13.392-63.84-3.84 63.84-3.84L45.192 92.3l37.176 5.975L51.864 76.22l34.344 15.407-23.76-29.184 29.184 23.76L76.224 51.86 98.28 82.362 92.304 45.21l13.392 35.16 3.84-63.84 3.84 63.84 13.392-35.16-5.976 37.153 22.032-30.504-15.408 34.343 29.208-23.76-23.76 29.184 34.344-15.408-30.504 22.055 37.152-5.976-35.184 13.39 63.864 3.84-63.864 3.84 35.184 13.393-37.152-5.976 30.504 22.032-34.344-15.385 23.76 29.184-29.208-23.76 15.408 34.343-22.032-30.504 5.976 37.15-13.392-35.183-3.84 63.864zM0 295.195l570-172.8V4.795L0 285.595v9.6z" fill-rule="evenodd" fill="#FFF"/><path d="M0 290.395l570-226.8v-58.8L0 285.595v4.8z" fill-rule="evenodd" fill="#dd7500"/></svg>