<svg xmlns="http://www.w3.org/2000/svg" version="1" width="900" height="600"><path fill="#cf142b" d="M450 0h450v600H450z"/><path fill="#fff" d="M0 0h450v600H0z"/><path d="M100.518 91.487c0 .99-1.12 1.792-2.503 1.792-1.382 0-2.502-.803-2.502-1.793 0-.99 1.12-1.792 2.502-1.792 1.382 0 2.503.802 2.503 1.792z" fill="#f1eeee" fill-rule="evenodd"/><path d="M22.222 82.828v45.457h45.455c0 7.574 7.576 15.15 15.152 15.15v45.454h45.452v-45.455c7.576 0 15.152-7.576 15.152-15.15h45.455V82.828h-45.456c0-7.574-7.576-15.15-15.152-15.15V22.222H82.83v45.454c-7.577 0-15.153 7.577-15.153 15.15H22.222z" font-size="12" fill="#e60d2e" fill-rule="evenodd" stroke-width="1pt"/><path d="M25.254 85.857v39.396h45.452c0 7.574 7.576 15.15 15.152 15.15v45.455h39.392v-45.454c7.577 0 15.153-7.577 15.153-15.15h45.452V85.856h-45.452c0-7.575-7.576-15.15-15.153-15.15V25.25H85.858v45.454c-7.576 0-15.152 7.576-15.152 15.15H25.254z" font-size="12" fill="#96877d" fill-rule="evenodd" stroke-width="1pt"/><path d="M26.77 87.373v36.364h45.452c0 7.574 7.576 15.153 15.152 15.153v45.454h36.363V138.89c7.576 0 15.152-7.58 15.152-15.153h45.45V87.373h-45.45c0-7.574-7.577-15.15-15.153-15.15V26.767H87.374v45.454c-7.576 0-15.152 7.577-15.152 15.15H26.77z" font-size="12" fill="#ccc" fill-rule="evenodd" stroke-width="1pt"/><path d="M84.536 71.68c2.662 2.663 1.943 7.7-1.607 11.25-3.552 3.55-8.588 4.27-11.25 1.607-2.663-2.662-1.944-7.7 1.606-11.25s8.587-4.27 11.25-1.606z" fill="#96877d" fill-rule="evenodd"/><path d="M71.143 79.715l1.072-1.072 4.285 2.142-2.143-4.285 1.072-1.072 4.284 8.57-8.57-4.285z" fill="#d0d0d0" fill-rule="evenodd"/><path font-size="12" fill="#d0d0d0" fill-rule="evenodd" stroke-width="1pt" d="M77.57 73.287l1.073-1.07 6.428 6.427-1.07 1.07z"/><path d="M139.43 84.537c-2.66 2.663-7.698 1.943-11.248-1.607-3.55-3.55-4.27-8.587-1.607-11.25 2.663-2.663 7.7-1.943 11.25 1.607s4.27 8.587 1.606 11.25z" fill="#96877d" fill-rule="evenodd"/><path d="M131.396 71.145l1.07 1.072-2.14 4.286 4.284-2.143 1.072 1.073-8.57 4.285 4.284-8.57z" fill="#d0d0d0" fill-rule="evenodd"/><path font-size="12" fill="#d0d0d0" fill-rule="evenodd" stroke-width="1pt" d="M137.824 77.574l1.072 1.07-6.428 6.43L131.396 84z"/><path d="M126.575 139.434c-2.663-2.663-1.943-7.7 1.607-11.25s8.586-4.27 11.25-1.607c2.662 2.663 1.942 7.7-1.608 11.25s-8.587 4.27-11.25 1.607z" fill="#96877d" fill-rule="evenodd"/><path d="M139.967 131.4l-1.07 1.072-4.287-2.143 2.143 4.285-1.07 1.072-4.287-8.57 8.57 4.285z" fill="#d0d0d0" fill-rule="evenodd"/><path font-size="12" fill="#d0d0d0" fill-rule="evenodd" stroke-width="1pt" d="M133.54 137.828l-1.072 1.07-6.43-6.427 1.073-1.07z"/><path d="M71.68 126.578c2.662-2.663 7.698-1.943 11.248 1.607 3.55 3.55 4.27 8.587 1.607 11.25-2.662 2.662-7.7 1.943-11.25-1.608-3.55-3.55-4.27-8.587-1.606-11.25z" fill="#96877d" fill-rule="evenodd"/><path d="M79.714 139.97l-1.07-1.072 2.142-4.286-4.286 2.142-1.07-1.072 8.57-4.285-4.286 8.57z" fill="#d0d0d0" fill-rule="evenodd"/><path font-size="12" fill="#d0d0d0" fill-rule="evenodd" stroke-width="1pt" d="M73.286 133.542l-1.07-1.07 6.427-6.43 1.072 1.07z"/><path d="M137.373 105.557c.004 17.575-14.242 31.826-31.818 31.826-17.575 0-31.82-14.25-31.817-31.826C73.734 87.98 87.98 73.73 105.555 73.73c17.576 0 31.822 14.25 31.818 31.827z" fill="none" stroke="#96877d" stroke-width=".514"/><path d="M129.797 105.557c.003 13.39-10.85 24.25-24.242 24.25-13.39 0-24.245-10.86-24.242-24.25-.003-13.39 10.85-24.248 24.242-24.248 13.39 0 24.245 10.856 24.242 24.247z" fill="none" stroke="#96877d" stroke-width=".514"/><path d="M94.95 131.315c0 .542-.29 1.042-.758 1.314-.47.27-1.047.27-1.516 0-.47-.273-.758-.773-.757-1.315-.002-.542.287-1.043.756-1.315.47-.272 1.047-.272 1.516 0 .47.272.758.773.757 1.315zM119.19 131.315c.002.542-.287 1.042-.756 1.314-.47.27-1.047.27-1.516 0-.47-.273-.758-.773-.757-1.315 0-.542.29-1.043.758-1.315.47-.272 1.047-.272 1.516 0 .47.272.758.773.757 1.315zM104.545 131.315v1.58h-2.02c-2.02 0-2.02 1.58 0 1.58h2.02v1.58c.007 1.636 1.763 1.835 1.892.136l.128-1.706h2.02c2.02 0 2.02-1.58 0-1.58h-2.02v-1.58c0-1.58-2.02-1.58-2.02 0z" fill-rule="evenodd"/><path d="M122.85 110.186c.532-.134 1.41-.025 1.41-.025s.076.366-.154.488c.256.147 1.178.102 1.178.102s-.358.275-.538.384c.333.032.743.462.743.462s-.77.128-1.102-.052c.204.41.18.77.18.77s-1.244-.308-1.692-1.128M120.775 109.495c-.3.743-2.51-.64-2.51-.64s.973 1.543 2.433 1.716M93.18 123.663h25.878l2-1.59-3.332-1.792-5.124-1.74-2.05-1.13-3.792.206-3.177 1.69-4.355.514-1.025 1.178-3.228.257-5.073-.103 8.455 1.332-6.97-.358 1.794 1.537z" fill="#96877d" fill-rule="evenodd" stroke="#000" stroke-width=".203"/><path d="M107.12 116.233c-3.242-1.742-4.19 2.55-5.586 3.587 1.883.32 3.305-1.448 4.92-2.306 1.223 3.333 3.15 1.127 3.15 1.127s2.01 3.19 4.69 1.744c.73.55 1.536.05 1.536.05s.974.18 1.18-.256c.51.18 1.075-.46 1.075-.46s1.114.012 1.332-.564c1.653.294 3.843-3.382 3.843-3.382l.666-1.28.974-.206s.064-.64-.46-.615c-.014-.384-.347-.59-.82-.512.09-.23-.257-.41-.257-.41-.923.23-.974 2.563-.974 2.563s-1.615 1.23-2.204 1.538c-.026-1.333-2.255-3.14-1.794-3.997.46-.857 1.91 1.32 3.177.923 1.267-.397 1.89-2.047 1.946-3.33-.358-.872-1.23-2.306-1.23-2.306l-.82-.052-.717-1.742s-1.512.987-1.487 1.845c.026.858 1.59 1.588 1.59 1.588s-.902.564-1.743.308c-.077.87 1.024.704 1.434.717.205.63.82.975.82.975s.385.96-.615.87c-1-.09-2.18-2.39-3.588-1.33-1.498 1.126.667 3.176.667 3.176s-1.32.692-2.102 2.46c-3.19-2.69-5.06-1.434-8.61-.717z" fill="#96877d" fill-rule="evenodd" stroke="#000" stroke-width=".203"/><path d="M102.456 111.672c1.332 1.256.403 3.343.922 3.74.55.424 1.333-.204 1.333-.204 1.397.372 3.895-.41 3.895-.41 1.1.615.665-.292 1.332-.256.59 1.512 2.562 1.23 2.562 1.23s-1.807-1.845-2.92-2.357c-.86.512-3.358.59-3.793.512-.486-.086-.18-.68-.41-1.025.918-.894.192-3.113-.308-3.945-2.037-1.357-4.47.967-2.614 2.715zM93.6 107.916c-1.677.453-4.585-2.165-5.944-1.16-1.358 1.006-.724 3.48.18 4.71.886 1.204-1.294 1.64-1.883 2.356-.553.673.18 1.45.18 1.45l.617.398-.108.906.326 1.087s.3.262.398-.073c.28.28.03 1.093.725 1.196-.248-.52.182-1.957.182-1.957s1.214.09 1.522-.436c.308-.525-.29-1.666-.29-1.666h.362c-.407-.28-.543-1.124-.543-1.124s1.685-.534 1.667-1.81c-.018-1.28-2.736-2.637-1.74-3.3 1.106-.732 3.026 1.904 4.675.69 1.63-1.2.58-.036.58-.036s.745-1.68-.906-1.232zM102.25 89.97c-2.24-.934-6.82-.99-9.376-2.253-1.12.07-1.62.954-1.666 1.306-1.172-.057-1.966 1.788-1.793 2.153-2.133-.865-3.126 2.51-2.434 3.202-1.818.077-1.594 2.402-1.767 3.05-.583 1.415.13 1.89 1.28 1.383.174.616-.068.96-.588 1.077 3.157 3.613 4.942-2.224 7.712-2.204 3.458-1.012 4.817-2.715 4.817-2.715l1.357.18 2.46-5.177z" fill="#96877d" fill-rule="evenodd" stroke="#000" stroke-width=".203"/><path d="M108.45 87.384c0 1.825-1.478 3.305-3.304 3.305-1.825 0-3.305-1.48-3.305-3.306s1.48-3.305 3.306-3.305 3.305 1.478 3.305 3.304z" fill="#96877d" stroke="#000" stroke-width=".203" stroke-linecap="round"/><path d="M99.33 113.415c-2.05-.372-5.444-2.498-5.79-5.278 1.91-7.494 11.755-3.58 12.604-9.218-.216-3.72.45-7.4 2.512-10.51.96-1.218 2.204-1.54 2.204-1.54s.222.795-.103 1.334c1.627-.18 3.856.73 5.38.82.45.91.41 1.242.308 1.793-.102.55-.717.41-.717.41-.398.377-.876.76-1.948.564-.807.615-2.51.77-2.51.77s3.56 3.753 2.972 4.918c.743.346 1.844 2 1.844 2s2.434-1.282 3.23-2.46c1.408 0 3.714 1.472 4.867 1.64 1.41 1.14 2.818 2.305 2.818 2.305s-1.677 1.102-2.408-.36c-.883.078-2.792-2.036-5.43-1.382-.078 2.345-2.666 3.997-2.666 3.997s2.416-.338 3.74.462c1.372 1.152 3.383 2.714 3.383 2.714l1.792 3.075s-1.64.28-2.254-1.846c-.615 1.717-.64-1.063-3.075-2.357-.743.09-1.114.14-1.742-.36-1.754.475-3.83 1.5-6.302 1.23-1.755.552-3.036 2.013-4.817 2.82-1.78.807-2.304.41-2.304.41l-1.435.05c-.206.864-.09 2.178-.87 2.41.5.537-.36 2.83-1.23 3.227.41 1.474 1.61 1.924 2.87 2.665 0 0 1.114-.514 1.844.153.73.666 1.486 2.562 1.486 2.562s-1.52.102-1.998-.103c-.48-.205-.525-.704-1.076-.563-3.472-3.09-5.303-1.86-5.637-2.564-.343-.72.82-2.6.46-3.79z" fill="#96877d" fill-rule="evenodd" stroke="#000" stroke-width=".203"/><path d="M90.99 99.655c.18-.227 1.45.253 1.45.253l2.318 1.45 4.71 3.043 1.667 2.43-3.007-.98-4.167-3.587-2.246-1.45s-.905-.932-.724-1.158zM118.853 107.368c-1.627-.41-5.636 4.458-5.636 4.458l3.023 3.28s.09-5.586 2.613-7.738z" fill="#96877d" fill-rule="evenodd" stroke="#000" stroke-width=".203"/><path d="M99.023 93.79c-.887 1.136-.967 3.428.187 4.352.11 1.39 1.292 4.197 2.22 4.46 1.016.288 5.074 1.23 6.663.974-.304 2.575 1.716 4.64 3.587 5.995-.014.233-.017.515.2.8.208.277 1.19.327 1.234.175.436.613 2.548.882 2.7.61.15-.267-3.105-2.532-3.827-3.223-.613-1.144-1.775-3.694-2.05-5.74-1.597-1.9-4.34-1.862-4.34-1.862l.087-3.723.154-4.202-1.486-.768s.3-.137.46-.308c.362.155 1.04-.57 1.128-.775.342.12.652.12.712-.064.052-.16.114-.878.238-1.25 1.12-.986-.163-3.08-1.878-3.113-1.696-.035-2.076 2.023-2.044 2.18.16.645.125.97 0 1.126-.127.16-.717.513-.717.513s-.947-.45-2.1 0c-1.153.448-2.447 1.05-2.51 1.793-.526.076-1.384.755-1.538 1.332-.46-.09-1.063.294-2.05 1.896-1.768.78-1.87 4.56-1.87 4.56s-.477.695-.5 1.063c-.022.37.167.706.398.642.025.243.345.46.486.384.052.244.403.38.615.346.02.167.703.125.757-.026.06-.166-.067-.996.013-1.063.073-.06.64.372.794.256.154-.116-.03-.485-.115-.628-.078-.128-.565-.27-.68-.87-.115-.604.307-1.436.307-1.436s1.922-1.512 2.14-2.806c1.447.14 2.213-1.124 2.626-1.6z" fill="#96877d" fill-rule="evenodd" stroke="#000" stroke-width=".203"/><path d="M95.68 88.37c.438-1.073 2.023-.973 2.023-.973s.567-1.493 2.703-.603c.804-.62 2.92.27 2.92.27s.794-1.057 1.833-.936c1.924.225 2.244 1.99 2.126 2.293-1.054.267-2.88-.855-4.266-.537-.81.458-2.124.942-2.614 1.602-1.284.134-2.655-1.182-4.727-1.115zM99.69 90.15c.48-.294 1.658-.812 2.46-.18.838.905 2.125 1.744 2.125 1.744l1.46.615.667.41-.436 6.686c-1.352-1.384-2.62-1.626-3.587-3.254-.52-.698-.123-2.377-1.026-3.485S99.49 90.83 99.69 90.15z" fill="#96877d" fill-rule="evenodd" stroke="#000" stroke-width=".203"/><path d="M103.2 92.082s.766-.145.98.036c.266.09.524.168.597.4.29.085.49.234.49.45.27.074.38.563.38.563l-.254.382s-.29-.272-.327-.562c-.183-.09-.588-.186-.688-.453-.317-.032-.52-.195-.58-.47-.294.067-.598-.345-.598-.345z" fill="#96877d" fill-rule="evenodd" stroke="#000" stroke-width=".203"/><path d="M109.68 87.717c-.434-.487-1.203-.128-1.203-.128l-2.05 3.534-.896.743-.076 2.767.743 2.588-.257 2s1.033-.97 1.153-1.513c.116-.52-.384-2.204-.384-2.204s-.616-1.05.127-2.998c.743-1.947 2.434-3.56 2.844-4.79z" fill="#96877d" fill-rule="evenodd" stroke="#000" stroke-width=".203"/><path d="M114.74 90.868s-3.2 4.574-8.44 6.2c-1.448.346-.923-3.38-.923-3.38l-.36.1s-.806 3.652 1.128 3.69c5.266-1.037 9.216-6.58 9.216-6.58l-.62-.03zM116.906 117.155s-.487.36-1.127 0c-.334-.768-1.23-.82-1.23-.82s-.578-1.66-1.487-1.178c-.14-.858-1.127-.41-1.127-.41s-.026-1.243-1.18-1.076c.385-1.42-1.587-1.33-1.587-1.33s-.065-1.603-2.973-1.283c6.264-2.805 11.222 4.407 11.222 4.407M119.878 117.77s1.448 1.627 2.204 1.64c.755.013.82-1.59.82-1.59s.243.693.614.514c-.038.487.462.615.462.615s-1.307 3.035-5.022.152M108.554 118.385l-.513 2.1s-.652.59-.46.718 1.23-.205 1.23-.205 1.614-.192 2.1-.666c.334.756 1.077.82 1.077.82s.05-.32-.05-.512c.357.064.665-.05.665-.05s.205-.59-.256-.82c.05-.437.27-.82-.513-.77-.576.615-1.998 1.32-2.357 1.076-.36-.243 1.41-1.025.923-2.05" fill="#96877d" fill-rule="evenodd" stroke="#000" stroke-width=".203"/><path d="M75.954 113.4l2.083-.495-.23-.966c-.053-.222-.14-.373-.262-.453-.123-.08-.332-.1-.63-.066l-.034-.144 1.795-.428.034.145c-.206.05-.35.114-.435.188-.084.075-.14.162-.167.264-.026.1-.02.24.024.418l.23.965 1.665-.397c.27-.064.442-.123.52-.177.06-.042.102-.11.13-.204.034-.13.037-.258.007-.383l-.046-.192.145-.035.542 2.276-.145.034-.044-.187c-.052-.22-.154-.363-.305-.432-.098-.04-.306-.025-.624.05l-3.424.817c-.27.064-.442.124-.52.178-.06.04-.102.108-.13.2-.036.127-.038.255-.008.382l.045.188-.146.035-.94-3.945 1.153-.328.032.136c-.232.127-.395.25-.49.367-.094.117-.152.248-.173.392-.02.144.002.354.068.63l.28 1.17zm-1.342-9.4c.04-.707.342-1.303.908-1.79.565-.488 1.25-.71 2.05-.664.828.046 1.5.346 2.016.898.516.553.753 1.2.712 1.94-.043.75-.344 1.364-.905 1.843-.56.48-1.264.696-2.11.648-.864-.05-1.552-.383-2.065-1.002-.444-.537-.646-1.162-.606-1.873zm.288.092c-.027.487.13.888.476 1.202.43.392 1.076.612 1.943.66.887.05 1.58-.1 2.08-.453.382-.27.585-.645.612-1.124.03-.51-.146-.944-.526-1.3-.38-.355-1-.557-1.858-.605-.93-.052-1.635.092-2.113.433-.38.274-.586.67-.615 1.19zm7.894-9.95l-.517 1.36-3.038.816c-.044.13-.082.235-.112.315l-.042.104-.05.114 1.48.565c.32.122.533.163.637.122.146-.053.256-.175.328-.365l.077-.2.14.054-.832 2.182-.14-.053.074-.192c.08-.215.07-.396-.035-.542-.058-.08-.232-.177-.522-.288l-3.29-1.252c-.32-.122-.533-.163-.638-.123-.147.056-.257.18-.33.373l-.074.192-.138-.053.707-1.857c.205-.54.396-.924.572-1.15.177-.227.405-.39.685-.488.28-.1.566-.092.86.02.312.118.545.324.697.616.153.292.196.67.128 1.135l1.86-.496c.428-.113.73-.235.906-.366.175-.13.33-.33.467-.596l.14.053zM78.8 96.76c.018-.048.034-.09.05-.124l.033-.086c.185-.485.22-.89.103-1.218-.116-.327-.337-.552-.663-.676-.318-.12-.614-.12-.89.003-.274.124-.474.35-.6.678-.054.145-.105.35-.152.617l2.12.806zm11.596-18.053l1.053 1.366-.12.076c-.352-.282-.68-.453-.988-.513-.442-.088-.877.007-1.305.284-.582.377-.876.894-.88 1.552-.003.553.17 1.1.518 1.636.283.437.625.78 1.027 1.03.4.25.793.372 1.175.362.38-.01.716-.107 1.004-.294.17-.11.32-.236.45-.38.128-.145.24-.306.332-.484l-.857-1.322c-.148-.23-.263-.37-.344-.417-.08-.048-.168-.067-.265-.057-.098.01-.238.075-.423.195l-.083-.13 1.77-1.146.083.128-.084.054c-.177.114-.26.25-.248.41.008.112.092.29.25.536l.908 1.4c-.17.306-.358.574-.567.802-.21.23-.47.443-.777.642-.884.572-1.738.724-2.564.454-.62-.202-1.11-.58-1.47-1.136-.26-.403-.412-.85-.458-1.345-.055-.587.042-1.128.29-1.624.208-.41.54-.765.996-1.06.167-.11.327-.193.48-.254.154-.062.385-.127.695-.196.156-.035.256-.066.298-.093.043-.028.067-.07.072-.13.005-.06-.027-.148-.094-.267l.126-.08zm8.873.613l-2.04.542-.136.926c-.034.23-.037.394-.01.495.02.08.078.14.17.18.093.042.27.037.527-.012l.04.144-1.66.44-.037-.143c.21-.098.34-.186.387-.265.1-.16.178-.452.237-.875l.7-4.827.136-.036 2.998 3.893c.242.313.437.506.585.58.15.07.332.086.55.042l.04.143-2.08.553-.037-.144c.207-.067.34-.14.397-.22.058-.078.076-.16.053-.246-.03-.114-.13-.28-.3-.498l-.52-.673zm-.186-.258l-1.46-1.89-.35 2.37 1.81-.48zm9.62-.03l.132.035-.523 1.46-4.217-.165.006-.148.205.008c.23.01.398-.06.503-.206.06-.085.095-.282.107-.592l.137-3.514c.013-.34-.016-.554-.088-.643-.1-.12-.252-.186-.458-.194l-.205-.008.006-.148 2.464.096-.006.148c-.29-.014-.492.005-.61.057-.12.053-.202.12-.248.205-.047.084-.076.288-.09.61l-.132 3.423c-.01.222.007.376.047.46.03.058.078.1.144.13.064.03.273.05.623.065l.398.015c.42.017.713-.003.884-.058.17-.055.33-.158.475-.31.144-.15.293-.392.445-.724zm7.258 1.943l.117.07-.908 1.256-4.006-1.324.047-.142.194.065c.22.072.4.053.54-.06.08-.062.17-.242.267-.537l1.104-3.338c.107-.324.138-.538.094-.643-.062-.144-.19-.25-.387-.314l-.195-.063.047-.14 2.343.773-.047.142c-.274-.094-.475-.132-.603-.115-.13.017-.227.06-.294.127-.068.068-.153.256-.254.564l-1.075 3.25c-.07.21-.098.363-.083.456.013.063.047.118.102.165.055.045.25.123.583.233l.376.125c.397.132.685.194.865.19.18-.007.36-.062.543-.167.18-.104.39-.295.63-.572zm5.85 3.098l-1.723-1.22-.8.49c-.197.12-.325.222-.385.307-.048.068-.058.15-.03.247.028.097.144.23.347.397l-.086.12-1.4-.99.086-.122c.21.1.36.14.45.128.187-.026.46-.152.824-.378l4.156-2.553.115.08-1.07 4.797c-.087.385-.11.658-.07.82.038.16.144.31.318.448l-.086.122-1.756-1.242.086-.122c.183.117.324.172.422.166.098-.006.172-.045.224-.118.068-.096.13-.28.19-.548l.185-.83zm.08-.308l.517-2.332-2.048 1.25 1.53 1.082zm6.462 1.19l.88 1.19-1.3 5.11 2.525-1.872c.268-.2.414-.354.436-.464.03-.147-.017-.306-.144-.478l-.113-.152.12-.088 1.128 1.523-.12.09-.114-.156c-.137-.184-.29-.274-.46-.268-.104.003-.28.096-.524.278l-3.69 2.735-.086-.116 1.386-5.5-2.696 1.998c-.27.2-.416.353-.44.46-.03.15.02.308.145.478l.114.155-.12.09-1.13-1.524.12-.088.113.15c.14.19.293.28.462.274.103-.004.278-.096.523-.278l3.045-2.257c.054-.237.08-.406.08-.507-.002-.1-.03-.23-.082-.387-.027-.077-.088-.18-.182-.306l.12-.088zm6.87 12.663l-1.184.484-.05-.144c.2-.102.34-.194.414-.274.118-.13.19-.273.213-.427.023-.156-.002-.34-.078-.552l-.257-.723-3.925 1.39c-.315.11-.5.214-.554.31-.073.133-.073.3-.002.5l.062.178-.14.05-.77-2.18.14-.05.064.183c.077.217.197.348.36.393.1.025.295-.012.583-.114l3.926-1.39-.218-.616c-.085-.24-.163-.404-.234-.493-.095-.114-.227-.194-.396-.24-.17-.044-.374-.035-.612.03l-.05-.144 1.225-.366 1.485 4.194zm-4.313 9.667l-.074-1.453 2.448-1.974c-.012-.136-.02-.247-.025-.333-.003-.035-.004-.072-.005-.112v-.125l-1.582.082c-.342.018-.553.067-.632.146-.112.108-.163.263-.152.467l.01.212-.147.008-.12-2.332.148-.008.01.205c.013.23.096.39.25.482.087.052.285.07.595.054l3.516-.183c.34-.018.552-.066.63-.146.114-.11.164-.268.154-.474l-.01-.205.148-.008.103 1.983c.03.578.01 1.006-.06 1.284-.07.28-.214.52-.43.723-.216.203-.48.313-.793.33-.335.016-.63-.078-.888-.283-.258-.205-.45-.534-.575-.986l-1.504 1.206c-.345.275-.57.508-.68.7-.108.19-.17.435-.187.733l-.15.007zm2.597-4.01c.003.05.004.095.005.132 0 .037.002.068.003.092.027.52.16.904.398 1.156.24.252.532.37.88.35.34-.017.61-.137.812-.36.202-.225.293-.512.275-.863-.008-.155-.044-.364-.11-.626l-2.262.117zm1.495 11.21l-.483 1.84-.145-.04.027-.1c.018-.068.014-.174-.012-.32-.026-.144-.08-.285-.164-.42-.083-.136-.23-.314-.44-.535l-1.67-1.797-1.32-.347c-.325-.085-.537-.1-.636-.05-.135.07-.23.21-.286.424l-.045.17-.144-.037.587-2.24.144.04-.05.185c-.058.223-.032.4.08.528.067.078.248.157.544.234l1.248.327 2.588-.867c.304-.103.496-.177.577-.22.08-.045.192-.15.333-.32.04-.044.072-.115.098-.214l.143.037-.59 2.255-.145-.038.03-.117c.033-.122.033-.24.004-.358-.03-.12-.103-.192-.217-.222-.094-.025-.283.01-.568.104l-1.988.655 1.354 1.46c.203.22.364.345.483.376.074.02.143.017.21-.005.067-.023.126-.065.177-.126.05-.062.094-.162.13-.302l.145.037z" font-size="4" font-family="Times New Roman"/></svg>