<svg xmlns="http://www.w3.org/2000/svg" xmlns:xlink="http://www.w3.org/1999/xlink" width="1000" height="600"><defs><linearGradient id="e" gradientUnits="userSpaceOnUse" x1="498.738" y1="289.055" x2="500.626" y2="283.42"><stop stop-color="#510000" offset="0"/><stop stop-color="#8a0000" offset=".3"/><stop stop-color="#a00" offset="1"/></linearGradient><linearGradient id="f" gradientUnits="userSpaceOnUse" x1="501.444" y1="291.373" x2="502.927" y2="287.449"><stop stop-color="#ff2a2a" offset="0"/><stop stop-color="red" offset="1"/></linearGradient><linearGradient id="j" gradientUnits="userSpaceOnUse" x1="484.764" y1="311.709" x2="484.764" y2="317.647"><stop stop-color="#F5F549" offset="0"/><stop stop-color="#97C924" offset="1"/></linearGradient><linearGradient id="a"><stop stop-color="#025" offset="0"/><stop stop-color="#04a" offset=".5"/><stop stop-color="#025" offset="1"/></linearGradient><linearGradient id="g" xlink:href="#a" gradientUnits="userSpaceOnUse" x1="444.509" y1="317.486" x2="634.411" y2="317.486"/><clipPath id="b"><path d="M500 226.375l-63.7015 110.332h127.401z"/></clipPath></defs><path fill="#0067C6" d="M0 0h1000v600H0z"/><path fill="#fff" d="M0 200h1000v200H0z"/><g fill="#c8a400"><path d="M410 299.329l9.979.6667c.033-.486.064-.972.098-1.4578-1.308-.0874-2.6163-.1752-3.9246-.262.0986-1.6033.233-3.2048.3036-4.8095 1.3883-1.004 2.7776-2.007 4.1615-3.017l.1235-1.848-4.3885 3.1858c-.1475-1.038-.7216-2.1073-1.7646-2.468-.9133-.3305-2.0318-.3883-2.8232.2643-1.0033.738-1.1836 2.0586-1.314 3.208-.1745 2.1768-.2965 4.36-.4508 6.5374zm1.5194-1.3622c.12-1.6376.1945-3.2792.3515-4.9136.1227-.8083.271-1.742.9787-2.257.6395-.4244 1.5845-.1085 1.8462.614.522 1.2468.2902 2.6217.2233 3.9304l-.1898 2.8406c-1.0698-.0707-2.1415-.1423-3.21-.2144zM411.299 284.006l9.738 2.2737c.7378-3.1594 1.4754-6.3188 2.213-9.4782l-1.3835-.323-1.8826 8.0628-2.9645-.6922 1.6966-7.2657-1.3765-.3214-1.6965 7.2657c-.8743-.2043-1.7486-.4082-2.623-.6125l1.812-7.7605-1.3905-.3247-2.1425 9.176zM414.807 270.929l9.445 3.2848.48-1.3795-3.7153-1.292c.485-1.4288 1.016-2.8426 1.462-4.284.32-1.177.567-2.5527-.1256-3.647-.5622-.8088-1.562-1.3278-2.5493-1.2965-1.0885.0466-1.9754.8476-2.4583 1.7755-.7143 1.342-1.1137 2.818-1.6346 4.2398l-.9038 2.599zm1.8252-.9116c.5057-1.4172.9623-2.8527 1.5094-4.2545.3404-.7488.7553-1.6372 1.617-1.8755.7087-.1622 1.4516.3825 1.513 1.1086.1732 1.336-.4106 2.5968-.8208 3.8367l-.7796 2.2417-3.039-1.057zM420.024 258.833c1.7808 1.033 3.5465 2.0926 5.3375 3.1073 1.0102.543 2.2914.8538 3.3473.2453 1.4407-.7975 2.343-2.2707 3.051-3.707.558-1.2104.9623-2.714.2517-3.9507-.7653-1.235-2.1562-1.8028-3.3437-2.5403l-3.4572-2.022-.7338 1.2545c1.694.9975 3.4004 1.9752 5.0865 2.986.8063.491 1.4744 1.3804 1.3355 2.3685-.159 1.178-.8323 2.2118-1.5032 3.164-.5532.771-1.4827 1.3937-2.469 1.185-1.029-.1972-1.8652-.8704-2.7695-1.357l-3.3992-1.9883-.7338 1.2546zM427.227 247.062l7.9418 6.0768c1.2324-1.609 2.46-3.2226 3.7014-4.8238.712-1.0218 1.368-2.3506.8854-3.604-.4385-.9975-1.466-1.7697-2.567-1.821-.4975-.068-1.146.3083-1.415.4743.283-1.0658-.5895-2.068-1.572-2.3504-1.1818-.4202-2.3805.3375-3.162 1.1782-.9205 1.001-1.689 2.1286-2.531 3.1947l-1.2816 1.675zm2.0143-.2977c.9295-1.1906 1.8092-2.4218 2.783-3.5763.453-.504 1.1794-1.0748 1.8817-.7053.64.2777.7978 1.085.4923 1.6663-.4852 1.0398-1.2862 1.8827-1.954 2.8054-.3637.4753-.7274.9505-1.091 1.426-.704-.5388-1.408-1.0775-2.112-1.616zm3.236 2.476c.9642-1.2336 1.8725-2.513 2.89-3.7034.5195-.5437 1.1724-1.2287 1.997-1.0724.7045.162 1.2167.927.9735 1.6362-.3963 1.3092-1.376 2.3115-2.1643 3.396l-1.241 1.622c-.8185-.626-1.637-1.2523-2.4553-1.8785zM436.231 236.455l6.8675 7.269 5.8826-5.5577-.9757-1.0328-4.7055 4.4456-.1206.114-.087-.092-5.8047-6.1442zM445.035 228.752l6.0953 7.9276 1.1892-.9143-6.0953-7.9276zM453.991 222.67c-.9877.6154-1.7842 1.335-2.3978 2.1755-.6112.8373-.9412 1.7105-.989 2.6225-.0475.9116.1955 1.7945.733 2.6572.4925.7904 1.1527 1.4038 1.9762 1.844.8202.4387 1.7056.601 2.676.4925.965-.108 2.055-.535 3.2688-1.2913 1.1655-.726 1.9914-1.5623 2.5003-2.5248.4882-.9233.6258-1.9036.4164-2.9473l-1.383.5422c.3622 1.9986-.9266 2.9588-2.37 3.8748-2.2586 1.374-4.4597 1.2745-5.8082-.7898-1.3983-2.3278.1297-4.251 2.0516-5.4997 1.364-.851 2.708-1.4332 3.9873-.6185l1.0826-.9642c-.7456-.5144-1.592-.7525-2.5556-.6993-1.0116.0558-2.0682.4282-3.1887 1.1263zM465.808 216.773l-1.047 11.2056 1.5574-.628.3148-3.474.006-.003 5.0583-2.0395 2.6364 2.2845 1.5573-.628-8.5264-7.3458-1.5575.628zm1.3683 1.1486l3.3247 2.878-3.7234 1.501.3987-4.379zM487.726 210.591l.624 9.9805c1.8046-.1217 3.612-.2065 5.4142-.356 1.4176-.1623 2.9388-.5306 3.9077-1.6587 1.2512-1.3882 1.4286-3.462.8812-5.1887-.4596-1.5206-1.8275-2.671-3.3756-2.9628-1.5243-.293-3.0784-.0617-4.6138.008-.946.059-1.892.1185-2.8378.1774zm1.5393 1.3273c1.4365-.0757 2.8707-.2158 4.3097-.224.8165-.024 1.6286.2147 2.288.7008 1.0006.6842 1.5878 1.9157 1.4565 3.1252-.0712 1.3898-1.0933 2.6685-2.444 3.0204-.773.2-1.576.256-2.3672.3436l-2.7965.175c-.1493-2.3803-.2982-4.7606-.4465-7.141zM501.664 210l-.5707 9.9837 9.7173.5555.081-1.4185c-2.7553-.1572-5.5107-.3157-8.266-.472.0572-1.0132.116-2.026.1732-3.0392 2.483.1408 4.966.2837 7.449.4253.027-.4704.054-.9408.0808-1.4113-2.483-.1416-4.966-.2845-7.449-.4253.0506-.8964.1023-1.7927.1533-2.689 2.652.1505 5.304.303 7.9562.4543l.0815-1.4257L501.664 210zM527.774 214.166l-3.616 9.3233 1.286.4988 2.867-7.3918.149-.3843.16.4265 3.448 9.9188 1.684.6532 3.6162-9.3233-1.2894-.5-2.8657 7.3884-.1463.3775-.158-.4218-3.454-9.9133zM541.208 219.937l-4.5458 8.907-1.336-.6818 4.5457-8.907zM548.751 224.356c-.9714-.641-1.9577-1.0645-2.9776-1.2715-1.016-.206-1.9472-.1417-2.7958.1955-.8484.337-1.5494.9262-2.109 1.7747-.513.7773-.795 1.6332-.8516 2.5653-.0563.9285.1655 1.801.669 2.6374.501.832 1.3437 1.6445 2.5374 2.432 1.1462.7562 2.2506 1.158 3.3377 1.219 1.043.0583 1.9912-.2256 2.8523-.8513l-1.0697-1.0305c-1.6652 1.163-3.0756.3923-4.5102-.5372-2.191-1.4794-3.019-3.5213-1.7056-5.608 1.5322-2.242 3.9174-1.6558 5.854-.43 1.3427.8842 2.4325 1.863 2.226 3.3654l1.3278.5816c.1565-.8923.0197-1.7608-.4306-2.6143-.4728-.896-1.252-1.701-2.354-2.428zM558.272 231.538l-10.4535 4.1698 1.268 1.1007 3.2366-1.3015.005.005 4.119 3.575-.8335 3.3874 1.268 1.1007 2.6583-10.936-1.268-1.1006zm-.3996 1.7412l-1.0486 4.2704-3.0318-2.6316 4.0804-1.6388zM565.825 238.486l-7.716 6.363c.3095.3758.62.751.929 1.127l3.0347-2.5025c1.0288 1.2336 2.0292 2.4913 3.0795 3.7066-.3207 1.6832-.643 3.366-.9565 5.0505l1.1784 1.429 1.0058-5.329c.8645.708 2.1276 1.0634 3.1602.502.888-.42 1.6704-1.2276 1.7162-2.2565.1077-1.3787-.8754-2.4963-1.6623-3.5187-1.256-1.524-2.5137-3.0475-3.769-4.5713zm-.1704 2.0335c1.0802 1.3344 2.2144 2.6267 3.246 3.999.4758.7074 1.0686 1.7014.523 2.528-.4498.7068-1.4348.645-2.039.1864-1.2248-.824-2.0335-2.087-2.9894-3.1838l-1.2227-1.4827c.8273-.6823 1.655-1.3647 2.482-2.047zM577.523 254.401l-11.2426.5153.8376 1.4554 3.4843-.1695.003.006 2.7204 4.727-1.897 2.9275.8374 1.4554 6.094-9.4617-.8375-1.4554zm-.948 1.5143l-2.3896 3.6912-2.0025-3.4796 4.392-.2117zM583.939 267.638c-.6252-1.6966-1.6112-3.4337-3.28-4.2824-1.8565-.933-4.328-.479-5.6445 1.1557-1.147 1.3593-1.2056 3.2812-.8992 4.9518.362 1.918 1.2412 3.7442 2.563 5.1855l-.747.2685.4784 1.3312c1.5615-.561 3.123-1.1223 4.6844-1.6835l-1.8217-5.0583-1.0822.389 1.34 3.7282-1.587.5704c-1.3998-1.2027-2.1808-2.9803-2.5863-4.7483-.3007-1.3265-.3127-2.9166.6938-3.9605 1.1545-1.201 3.201-1.574 4.587-.5497 1.3667 1.0003 2.1382 2.6215 2.528 4.233.267 1.06.2233 2.32-.581 3.147-.2247.169.1316.404.1926.6056l.3825.6315c.8476-.6684 1.36-1.7142 1.3436-2.7967.0284-1.0642-.2063-2.1205-.564-3.1178zM586.811 275.447l-5.5926 1.088c-1.038.2018-1.8158.5306-2.3345.968-.518.4366-.8493 1.0523-1.009 1.871-.158.8102-.1355 1.803.097 3.0108.002.009.004.0182.005.0277.2372 1.207.5884 2.1358 1.0387 2.8276.455.6993.993 1.146 1.6367 1.3565.645.211 1.4894.2242 2.5273.0223l5.5925-1.088-.2775-1.4266-5.4575 1.0616c-2.45.4766-3.2752-.813-3.696-3.0187-.002-.009-.003-.0182-.005-.0276-.4367-2.2026-.155-3.7074 2.2948-4.184l5.4575-1.0617-.2775-1.4267zM589.879 292.467l-10.348-4.4253.1214 1.675 3.2113 1.3625.0005.007.394 5.4397-2.9815 1.811.1213 1.675 9.6023-5.8702-.1213-1.6748zm-1.5122.9513l-3.757 2.2847-.29-4.0042 4.047 1.7195zM417.7516 318.335l-1.4506.382 1.604 6.0924 1.4505-.3818zM582.283 318.3347l1.4505.382-1.604 6.0923-1.4504-.382zM433.217 343.989l-11.1807 1.2862.9356 1.3945 3.4643-.4084.004.006 3.0386 4.529-1.6917 3.051.9356 1.3943 5.4296-9.858-.9355-1.3944zm-.8417 1.5758l-2.1305 3.8466-2.2367-3.3338 4.3673-.5128zM437.497 350.098l-7.127 6.6648.9516 1.0178 6.0063-5.6166-3.151 8.67 1.0914 1.1672 8.6112-2.614-5.898 5.5154.9518 1.0178 7.127-6.6648-1.4456-1.546-8.751 2.6143 3.2765-8.4687zM447.878 360.689l-6.0155 7.9883 7.775 5.855c.285-.3783.57-.7566.8548-1.135l-6.614-4.9806c.6103-.8106 1.2207-1.621 1.831-2.4317 1.987 1.496 3.9736 2.9922 5.9604 4.4882.2834-.3764.567-.7528.8503-1.1292l-5.9603-4.4883c.54-.7172 1.0802-1.4343 1.6202-2.1516l6.366 4.794.859-1.1408-7.527-5.6682zM457.662 367.85l-4.71 8.8228c.4294.2295.8593.458 1.2883.688l1.8525-3.47c1.421.7488 2.8255 1.5303 4.2594 2.254.3447 1.6783.6878 3.357 1.0398 5.034l1.6338.872-1.1002-5.31c1.069.325 2.3723.1725 3.113-.7398.6295-.705 1.058-1.6933.7564-2.6393-.3513-1.3034-1.6342-1.986-2.717-2.6173-1.803-.969-3.6117-1.9287-5.416-2.8944zm.6172 1.945c1.507.8223 3.048 1.585 4.5247 2.4608.6845.462 1.553 1.0947 1.467 2.0265-.076.8177-.9575 1.254-1.7034 1.0806-1.4592-.242-2.69-1.1123-3.9896-1.7613l-1.814-.9684c.505-.946 1.0102-1.892 1.5152-2.8382zM468.957 373.756l-3.7786 9.2586 1.3888.5668 3.7786-9.2586zM477.975 376.871c-1.1045-.3667-2.167-.5198-3.2056-.4548-1.0346.0647-1.9172.3686-2.6492.9146-.7317.5458-1.2557 1.2968-1.576 2.2614-.2935.884-.3436 1.7836-.1563 2.6985.1866.9112.6273 1.696 1.3307 2.3732.6997.6734 1.7246 1.239 3.0818 1.6898 1.3032.4327 2.474.534 3.5397.3105 1.0223-.2143 1.8643-.7347 2.5335-1.5625l-1.3007-.7176c-1.306 1.5555-2.8682 1.1774-4.495.6522-2.5-.8598-3.8297-2.6167-3.103-4.973.8974-2.5628 3.353-2.616 5.5417-1.935 1.526.5054 2.8326 1.1676 3.023 2.6722l1.4336.217c-.0805-.9025-.4382-1.7057-1.0947-2.413-.6892-.7426-1.6507-1.3176-2.9036-1.7336zM488.029 379.122l-6.5402 9.159 1.662.2405 2.019-2.8446.007.001 5.398.781 1.13 3.3003 1.6618.2404-3.6757-10.6373-1.662-.2404zm.605 1.681l1.4265 4.1593-3.9733-.575 2.547-3.5844zM511.47 379.193c-1.1427.2208-2.144.6073-3.018 1.1722-.8706.5627-1.4915 1.2598-1.8626 2.094-.371.8342-.4605 1.7455-.2677 2.7435.1767.9144.5733 1.7236 1.1844 2.4297.6088.7033 1.3773 1.172 2.322 1.4183.94.245 2.1105.2367 3.5146-.0346 1.3482-.2604 2.4188-.7452 3.2388-1.4615.7866-.6872 1.2662-1.553 1.4446-2.6025l-1.4854.0108c-.3778 1.9957-1.925 2.4305-3.6007 2.7687-2.601.4737-4.6204-.4077-5.14-2.818-.4716-2.6743 1.644-3.9224 3.8856-4.3998 1.5783-.306 3.0417-.368 3.9442.8508l1.3562-.5124c-.5118-.7473-1.2168-1.2728-2.1354-1.5683-.9645-.3103-2.0844-.341-3.3806-.0907zM518.148 378.01c.948 3.1957 1.8963 6.3913 2.8444 9.587 3.1104-.923 6.2207-1.8457 9.331-2.7685l-.404-1.3622-7.9377 2.355-.866-2.9182 7.153-2.1222-.402-1.3552-7.153 2.1223-.766-2.5823c2.5465-.7557 5.0932-1.5112 7.64-2.2668-.1355-.4565-.271-.9128-.4063-1.3692l-9.0334 2.6802zM528.966 374.61l4.1984 9.076 1.252-.579-3.5018-7.57c3.237 1.4682 6.455 2.9794 9.6845 4.4642.2155.1868.4307.062.646-.0532.4197-.194.8393-.3882 1.259-.5824-1.3994-3.0253-2.799-6.0506-4.1983-9.076-.4184.1936-.8368.387-1.255.5806l3.497 7.56c-3.3236-1.507-6.629-3.0544-9.9456-4.577l-1.636.7568zM539.947 369.452l.7834 1.1903 3.5715-2.3506.1355-.0892.0676.1027 4.6467 7.0602 1.214-.799-4.6465-7.0602-.0676-.1027.1385-.0912 3.5893-2.3623-.7834-1.1903zM550.009 362.562c2.259 2.4516 4.5183 4.9032 6.7774 7.3547.3582-.3296.7156-.6604 1.0744-.9893l-2.6656-2.8926c1.1754-1.095 2.376-2.1633 3.5318-3.2786 1.6982.228 3.3962.4572 5.0954.6776l1.362-1.255-5.376-.7116c.6592-.902.9447-2.1828.3275-3.183-.4684-.8635-1.3178-1.6003-2.3477-1.5895-1.3825-.0318-2.4443 1.0112-3.422 1.853-1.4528 1.3375-2.905 2.6778-4.3573 4.0143zm2.0398.0584c1.273-1.1518 2.501-2.3555 3.8145-3.461.6802-.5138 1.64-1.1603 2.4955-.661.7305.4104.7228 1.3972.2982 2.026-.7563 1.2693-1.9746 2.147-3.0183 3.163l-1.4097 1.299-2.1802-2.366zM561.643 350.918l4.4734 10.3272 1.0632-1.2997-1.3955-3.197.004-.005 3.4533-4.2216 3.4103.734 1.0632-1.2998-11.009-2.3375-1.0633 1.2997zm1.7522.3486l4.299.9234-2.5418 3.1074-1.7572-4.0308zM565.998 345.253l8.3904 5.4407 4.403-6.79-1.192-.773-3.522 5.4314-.0903.1392-.106-.0688-7.0922-4.5988z"/></g><g clip-path="url(#b)"><path fill="#fff" d="M500.001 226.408l-31.4786 54.5355-15.42 26.7015h93.797l-14.7144-25.4844-32.184-55.7526z"/><g id="d"><g id="c"><path fill="#17c0eb" stroke="#17c0eb" stroke-width=".1287" opacity=".6204" d="M500.001 226.408l-2.3565 4.0816 2.3565 54.977 2.3566-54.977z"/><path fill="#fff" d="M500.001 277.475c-.044 0-.089.002-.1335.003l.1335 3.1112.1335-3.1112c-.0443-.001-.0892-.003-.1335-.003z"/></g><use xlink:href="#c" transform="rotate(72 500 285.467)"/><use xlink:href="#c" transform="rotate(144 500 285.467)"/><use xlink:href="#c" transform="rotate(216 500 285.467)"/><use xlink:href="#c" transform="rotate(288 500 285.467)"/></g><use xlink:href="#d" transform="rotate(8 500 285.467)"/><use xlink:href="#d" transform="rotate(16 500 285.467)"/><use xlink:href="#d" transform="rotate(24 500 285.467)"/><use xlink:href="#d" transform="rotate(32 500 285.467)"/><use xlink:href="#d" transform="rotate(40 500 285.467)"/><use xlink:href="#d" transform="rotate(48 500 285.467)"/><use xlink:href="#d" transform="rotate(56 500 285.467)"/><use xlink:href="#d" transform="rotate(64 500 285.467)"/><g><path fill="red" d="M500 265.844c-11.0666 0-21.1953 4.0514-28.9688 10.75L456.3752 302c-.5014 2.6704-.75 5.434-.75 8.25h5.0313c0-21.7264 17.6173-39.3438 39.3438-39.3438 21.7264 0 39.3438 17.6173 39.3438 39.3438h5.0313c0-2.8134-.2495-5.582-.75-8.25l-14.6562-25.4062c-7.7728-6.6966-17.904-10.75-28.9687-10.75z"/><path fill="#f60" d="M500 266.656c-11.764 0-22.4393 4.675-30.2812 12.25l-12.031 20.844c-.8335 3.366-1.2813 6.8762-1.2813 10.5h4.25c0-21.7264 17.6173-39.3438 39.3438-39.3438 21.7264 0 39.3438 17.6173 39.3438 39.3438h4.25c0-3.625-.4472-7.164-1.281-10.5312l-12.0313-20.8125c-7.841-7.5746-18.5177-12.25-30.2812-12.25z"/><path fill="#ff0" d="M500 267.469c-12.7024 0-24.1008 5.5222-31.9375 14.3125l-8.7188 15.0938c-1.384 4.2085-2.125 8.7035-2.125 13.375h3.4375c0-21.7264 17.6173-39.3438 39.3438-39.3438 21.7264 0 39.3438 17.6173 39.3438 39.3438h3.4375c0-4.673-.7403-9.1653-2.125-13.375l-8.719-15.095c-7.836-8.788-19.237-14.312-31.938-14.312z"/><path fill="#0f0" d="M500 268.25c-14.5495 0-27.3723 7.414-34.9062 18.6562l-2.8125 4.875c-2.735 5.574-4.282 11.842-4.282 18.469h2.6563c0-21.7264 17.6173-39.3438 39.3438-39.3438 21.7264 0 39.3438 17.6173 39.3438 39.3438h2.6562c0-6.6155-1.5558-12.8712-4.2813-18.4375l-2.844-4.937c-7.536-11.227-20.337-18.625-34.875-18.625z"/><path fill="#0cf" d="M500 269.062c-22.7472 0-41.1875 18.4403-41.1875 41.1875h1.8438c0-21.7264 17.6173-39.3438 39.3438-39.3438 21.7264 0 39.3438 17.6173 39.3438 39.3438h1.8438c0-22.7472-18.4403-41.1875-41.1875-41.1875z"/><path fill="#00f" d="M500 269.844c-22.3058 0-40.375 18.1004-40.375 40.4062h1.3438c0-21.5594 17.4718-39.0312 39.0312-39.0312s39.0312 17.4718 39.0312 39.0312h1.375c0-22.3058-18.1004-40.4062-40.4062-40.4062z"/><path fill="purple" d="M500.001 270.657c-21.8638 0-39.5887 17.725-39.5887 39.5887 0 .245.003.4898.007.7338h.8008c-.005-.244-.007-.4887-.007-.7338 0-21.4222 17.366-38.788 38.788-38.788 21.4222 0 38.788 17.366 38.788 38.788 0 .245-.002.4897-.007.7338h.7972c.004-.244.007-.4888.007-.7338 0-21.8638-17.7214-39.5887-39.5852-39.5887z"/></g><g><path fill="#510000" d="M500.395 288.134c-.6444-.1242-1.2256-.4836-1.7753-.6095-.7555.7244-.835 1.4562-.731 2.0794.2628.1394.3112.353.878.86s.496.7732.462 1.9654c-.0145.5024.07 1.5806.579 1.682.5485.1093.9323-.3464 1.0898-1.1605.153-.7907.418-1.216.6982-1.702.3066-1.852-.193-2.508-1.2007-3.115z"/><path fill="red" d="M497.168 283.524c-.5954.015-1.5285 1.0122-1.943.4754-.2386-.3088-.2788-.902-.037-1.4.5585-1.1515 1.1244-1.716 2.1673-2.3306 2.3777-1.4008 3.889-.9505 5.074 1.0627 1.098 1.773 2.152 3.73 2.246 5.372.029.501.2824 1.4077-.1562 1.8598-1.3477 1.3892-4.596-1.435-6.497-.9882-.6392.1504-1.3774.6167-1.9806.218-.4692-.3103-.077-.997.2727-1.2942.6122-.52 1.501-2.3653 1.3802-3.1644-.0677-.4468-.08.1784-.5258.1896z"/><path fill="url(#e)" d="M496.927 282.548c-1.0833.4452-.9658 1.076-1.5094 1.5902.1538.0578.7653.3106 1.3634-.3012.2582-.214.548-.2934.677-.3625-.305.2216-.523.5547-.6835.6848-.405.3287-1.0347 1.0824-1.341 1.846-.3063.7638-.43 1.673-.375 1.7822.055.109.4258.7787 1.5653 1.2315 2.031.807 2.417 2.4387 4.4776 2.4387 1.6134 0 1.3544-1.0558 2.6458-.8316 1.1192.1943 1.714-.6965.6358-1.2317-1.371-.4687-4.092-.192-5.3725.0332-.4134-4.0836-.055-2.65-.1518-4.4052-.0968-1.7554-.6228-1.8606.0724-3.2813-.5777.8724-1.2767.7345-2.004.807z"/><path fill="#ff2a2a" d="M500.938 279.795c-.04.2232-.0767.5164-.0555.6.087.3385.1746.693.2774.9938.115.3362.1617.5794.2404.928.0812.36.401.5.6937.722.37.2804.084 1.0375.3145 1.0687.184.025.4883-1.0713.4902-1.247 0-.2362-.001-.4268-.037-.6467-.135-.295-.2717-.5855-.4254-.872-.002-.004-.007-.006-.009-.009-.0604-.112-.122-.222-.1943-.328-.2167-.3182-.4847-.6125-.786-.8625-.0187-.0154-.0368-.0318-.0556-.047-.0843-.0644-.17-.1302-.259-.1874-.063-.0406-.1293-.076-.1942-.1126z"/><path fill="url(#f)" d="M501.249 287.398c-.7183-.1877-1.4258-.5426-2.037-.7252-1.2006-.3585-2.48-1.134-3.3656-.8134-.317.1403-.2893.4558-.3902.9094-.042.5336-.5962 1.3195-.1363 1.0624.6853-.383 2.4906.7328 3.0953 1.1062.2865.177.8922.5238 1.0815 1.0217.1894.498.092 1.756.0412 2.2956-.0533.566.119 1.835.686 1.987.6112.1638 1.078-.3225 1.3158-1.2298.231-.8812.405-1.3873.7574-1.9153s.756-.7558 1.3198-.8623c.564-.1066 1.3823.4618 1.3823-.2034 0-.437-.3838-.8548-.2207-1.4537.1285-.4717-.4014-.3776-.8418-.5722-1.036-.3187-1.9694-.419-2.6878-.6068z"/><path fill="#910000" d="M498.363 288.902c-.3267-.1776-2.3152-1.4778-3.0428-1.071-.23.1285-.3175-.0163-.3206-.2574-.004-.241.109-.594.184-.866.075-.2722.196-.792.5164-1.062.6873-.5793 2.2686.575 3.1082.8868-.0717.4352-.4702 2.3552-.4452 2.3696z"/><path fill="#ff3a3a" d="M501.763 291.361c.9157-1.603 1.5076-1.397 2.6134-1.3736.3684.008.4762-.3292.3923-.6675-.278.624-1.662-.069-2.415.2626-1.5724.6925-1.2802 3.7697-2.0263 4.0702.7755.6512 1.1236-1.7457 1.4356-2.2918z"/></g><g fill="url(#g)"><path fill="#fff" d="M453.103 307.645l-9.9555 17.2366h113.708L546.9 307.645h-93.797z"/><g id="i"><path id="h" d="M449.705 321.364c-1.6578 0-3.1973.1674-4.7096.3528l-.487.8466c2.4336-.2165 4.6974-.6492 7.1404-.709 3.2935.08 6.2835.829 9.786.829 1.518.0147 3.027-.0297 4.5263 0 3.4994 0 6.4887-.749 9.7827-.829 3.2958.08 6.304.829 9.8038.829 1.5177.005 3.1774-.0238 4.5297 0 3.4992 0 6.4743-.749 9.765-.829 3.293.08 6.2692.829 9.7684.829 1.5305.0148 3.033-.03 4.5438 0 3.4993 0 6.4904-.749 9.7862-.829 3.2963.0795 6.281.829 9.7825.829 1.5164.0145 3.0313-.0297 4.53 0 3.4986 0 6.4748-.749 9.765-.829 2.5507.062 4.9208.5176 7.486.723l-.5152-.8924c-1.403-.1683-2.8346-.321-4.3674-.321-1.5293-.0208-3.0364.0308-4.5474 0-3.4992 0-6.4736.7484-9.765.829-3.2962-.08-6.2834-.829-9.786-.829-1.5128-.021-3.03.0312-4.5262 0-3.4992 0-6.4926.749-9.786.829-3.2942-.08-6.2835-.829-9.7827-.829-1.5218-.0207-3.0418.0308-4.5472 0-3.4993 0-6.4754.749-9.765.829-3.294-.08-6.2692-.829-9.7685-.829-1.5227-.0213-3.0263.0313-4.526 0-3.5027 0-6.49.749-9.7862.829-3.294-.0806-6.2833-.829-9.7825-.829-1.5203-.021-3.0434.0313-4.5474 0z"/><use xlink:href="#h" y="-1.1133"/><use xlink:href="#h" y="-2.2305"/></g><use xlink:href="#i" y="-3.3438"/><use xlink:href="#i" y="-6.6914"/><path d="M453.23 307.458l-.1235.2152h93.79l-.1233-.2152H453.23zm-.2187.3775l-.127.2187h94.2346l-.127-.2187h-93.9807zm-.201.3457l-.2047.3563h94.792l-.2046-.3563h-94.3828zm-.3176.5503l-.2505.434h95.5187l-.2506-.434h-95.0178zm-.3987.6915l-.2504.434h96.316l-.2505-.434h-95.815zm-.3986.6914l-.247.4304h97.1063l-.247-.4304h-96.6123zm-.3986.6914l-.2505.4304h97.9106l-.2506-.4304h-97.4096zm-.4304.7444l-.3034.529h98.8772l-.3034-.529h-98.2704zM457.357 312.287c3.4502.662 3.7818 0 3.7818 0zm81.5028 0s.3316.662 3.7818 0z"/></g><g fill="#ccd11e"><g id="k"><path fill="url(#j)" d="M530.631 297.043c-1.7088 0-2.2316.862-2.2316.862-2.737 10.576-11.8078 21.3328-22.6008 21.3328h-8.0802v10.7684c0 .003.0112 0 .017 0h61.4976l-6.1865-10.954c-9.7078-1.4487-17.6397-11.3727-20.1666-21.147-.0004 0-.5403-.8622-2.249-.8622z"/><path fill="#97c924" d="M530.631 297.465c-.784 0-1.26.1807-1.5384.355-.2638.165-.3145.2757-.321.2876 0 .007-.015.01-.0175.0168-1.3996 5.3224-4.3518 10.6683-8.3337 14.7065-4.012 4.0696-9.0697 6.8292-14.605 6.8292h-7.6748v9.9226h60.8557l-5.68-10.0578c-4.6876-.6117-8.973-3.163-12.4584-6.694-3.9857-4.0384-6.932-9.3836-8.3338-14.7066 0 0-.0164-.0165-.017-.0168-.007-.012-.0696-.1043-.338-.2706-.283-.1756-.754-.372-1.538-.372z"/><path fill="#ede71f" d="M530.63 297.465c.147 0 .2797.021.4057.034.0238 3.0174 0 8.1092 0 10.8014-.0287 2.34-.8303 4.2225-2.0118 6.441-.5475 1.554-.9862.9622-2.3493 2.8565-1.8317.654-3.1867.9087-5.1384 1.2165-2.5175.3975-8.1216.7502-10.887.1352 3.6412-1.0673 6.961-3.2694 9.771-6.1196.7465-.757 1.4595-1.5593 2.1297-2.4 1.1182-1.4004 2.1275-2.913 3.0093-4.4794.3527-.6264.6864-1.249.9975-1.8933.4668-.966.8833-1.9505 1.251-2.941.123-.3305.244-.666.355-.9975.2223-.6637.417-1.3296.5918-1.995.002-.006.015-.0102.0168-.0167.006-.0118.058-.1222.3208-.2872.1357-.085.3316-.1703.575-.237.005-.001.0124.001.0168 0 .2515-.0664.5544-.1178.946-.1178z"/><path fill="#c6cb24" d="M529.938 298.902c-.4117 6.034-2.2774 13.1917-6.6443 17.8107-1.6066 1.3366-3.66 2.55-5.6458 2.2546 6.7703-5.5105 10.8852-13.9468 12.29-20.0653z"/><path fill="#9ecb34" d="M524.494 309.281c-1.0018 2.7214-4.7878 6.7465-8.84 10.045-1.1506.0353-1.7597.1012-2.8042.038 2.4677-.225 8.2217-5.0826 11.6442-10.083z"/></g><use xlink:href="#k" x="-15.3407"/><g fill="#c6cb24"><path fill="url(#j)" d="M502.218 297.911c2.7346 10.5755 11.7902 21.3327 22.583 21.3327h8.0886v10.768c0 .003-.0144 0-.017 0H467.078c-.006 0-.0168.003-.0168 0v-10.768h8.0715c10.7926 0 19.863-10.7575 22.6-21.3327 0 0 .5342-.8656 2.243-.8656s2.243.8656 2.243.8656z"/><path fill="#97c924" d="M499.975 297.465c.7838 0 1.2546.1964 1.5384.372.2686.1663.3312.2587.3383.2706l.017.0168c1.4016 5.3227 4.348 10.6683 8.3337 14.7065 4.0165 4.0696 9.0867 6.8292 14.6226 6.8292h7.6405v9.9223H467.485v-9.9223h7.6745c5.5357 0 10.593-2.76 14.6053-6.8293 3.982-4.0384 6.9338-9.384 8.3338-14.7066.003-.007.015-.01.017-.0168.006-.012.0575-.1223.321-.2876.2785-.1743.7545-.355 1.5383-.355z"/><path fill="#ede71f" d="M499.263 297.53c-.0864.0162-.167.0347-.2424.0546-.004.001-.0128-.001-.0176 0-.243.0665-.4358.1514-.5715.2364-.264.165-.3146.2738-.321.2857-.002.006-.016.011-.0177.0176-.1752.6654-.3703 1.333-.5926 1.9967-.111.3316-.2335.6644-.3563.995-.3685.9903-.782 1.976-1.249 2.942-.3115.6443-.6456 1.268-.9983 1.8944-.8818 1.5666-1.891 3.0763-3.0092 4.4768-.6708.8406-1.3843 1.645-2.1308 2.4024-2.8096 2.8502-6.128 5.05-9.7684 6.1172 2.7647.615 4.0315-.056 6.5485-.4536 1.9523-.3078 4.211-.563 6.043-1.217 1.3638-1.8944.899-1.3 1.4465-2.854 1.1808-2.2184 2.9054-4.2218 3.3337-6.6816 1.6186-3.0215 1.903-8.6137 1.903-10.2126z"/><path d="M499.275 298.902c-.4117 6.034-2.2768 13.1917-6.6438 17.8107-1.6066 1.3366-3.66 2.55-5.6458 2.2546 6.7704-5.5105 10.8848-13.9468 12.2896-20.0653z"/><path fill="#9ecb34" d="M493.832 309.281c-1.002 2.7214-4.788 6.7468-8.8402 10.0453-1.1503.035-1.7595.1008-2.8043.0375 2.468-.2253 8.2224-5.0827 11.6444-10.0828z"/><path fill="#ede71f" d="M500.951 297.584c.004.001.0128-.001.0176 0 .243.0665.4357.1514.5715.2364.264.165.3146.2738.321.2857.002.006.016.0112.0177.0177.1753.6654.3704 1.333.5927 1.9967.111.3316.2335.6644.3563.995.3684.9903.782 1.976 1.2488 2.942.3116.6443.6457 1.268.9984 1.8945.8816 1.5664 1.891 3.076 3.009 4.4766.671.8406 1.3844 1.645 2.131 2.4024 2.8095 2.8502 6.1278 5.445 9.7683 6.5123-7.245.0274-10.3888-.63-13.022-4.0166-2.6332-3.3866-3.606-4.8682-4.1405-6.9365-.5345-2.0682-2.0254-6.5704-1.87-10.8063z"/><path d="M501.476 298.902c.4117 6.034 2.221 12.0063 6.5873 16.6253 1.6066 1.3366 3.66 2.55 5.6458 2.2546-7.3347-5.002-10.8287-12.7616-12.233-18.88z"/></g><g id="l"><path fill="url(#j)" d="M484.749 297.043c-1.709 0-2.2483.862-2.2483.862-2.5224 9.7466-11.825 22.3183-21.4962 23.8114l-4.79 8.2898h49.0145v-11.3486c-8.8247-2.3707-15.8893-11.6292-18.2484-20.7525-.0003 0-.5228-.862-2.2316-.862z"/><path fill="#97c924" d="M484.749 297.465c-.784 0-1.255.1964-1.5384.372-.2686.1663-.3312.2587-.338.2706-.0003 0-.017.0168-.017.0168-1.4016 5.3227-4.6774 10.7045-8.0797 14.9888-3.4023 4.2842-9.7197 8.6182-14.0418 9.0764l-4.2827 7.3937h48.0605v-10.6937c-3.554-1.0907-6.7992-3.2664-9.5523-6.0587-3.9818-4.0383-6.9337-9.384-8.3337-14.7066-.002-.007-.0154-.01-.017-.0168-.006-.012-.0578-.1223-.3213-.2876-.279-.1743-.755-.355-1.5387-.355z"/><path fill="#93bc30" d="M483.445 298.903c-.6172 9.0433-5.6533 20.4536-11.3402 22.4194-1.8543.6415-5.0983.8644-6.2273 1.0088 9.949-4.7315 15.8284-15.8536 17.5675-23.4282z"/><path fill="#ede71f" d="M484.746 297.465c-.147 0-.2797.021-.4057.034-.0233 3.0174 0 8.1092 0 10.8014.0292 2.34.831 4.2225 2.0117 6.441.0687.194.1358.3536.203.49.41 1.0856.7134 1.4626 2.282 2.6537 4.987 3.7867 11.17 4.353 14.8083 4.0404-1.1397-.8985-2.358-1.7153-3.4317-2.4678 1.7115-.0552 3.351-.2488 4.5136-.5074-3.6405-1.0672-6.9608-3.2693-9.7704-6.1195-.4896-.4966-.945-1.0218-1.4032-1.5552-.2083-.2915-.501-.6972-.5918-.8114-1.118-1.4003-2.2627-2.947-3.1445-4.5134-.3527-.6264-.686-1.249-.9974-1.8933-.467-.966-.883-1.9505-1.2513-2.941-.1228-.3305-.244-.666-.355-.9975-.2222-.6637-.4164-1.3296-.5917-1.995-.002-.006-.0152-.0102-.0168-.0167-.006-.0118-.0573-.1222-.3213-.2872-.136-.085-.3317-.1703-.575-.237-.005-.001-.0125.001-.017 0-.2514-.0664-.5544-.1178-.946-.1178z"/><path d="M485.446 298.902c.4117 6.034 2.2774 13.1917 6.6438 17.8107 1.6066 1.3366 3.66 2.55 5.6458 2.2546-6.7704-5.51-10.8853-13.9468-12.2896-20.0653z"/><path fill="#9ecb34" d="M489.613 307.247c2.369 5.837 8.37 11.2893 14.5434 14.9536 1.1503.035 1.4912.003 2.5362-.06-4.4183-2.371-11.5382-5.7538-17.0796-14.8936z"/></g><use xlink:href="#l" x="-15.4296" fill="#c6cb24"/></g><g><path fill="#fff" d="M556.5 324.692c-.5744.2027-4.4212-.1892-6.433-.044l-1.2793.3355c-1.1235-.008-2.2382.025-3.3303 0-3.602 0-6.6494.9483-10.0754.949-3.4327 0-6.47-.949-10.0754-.949-1.119-.008-2.2336.025-3.3302 0-3.6015 0-6.6463.949-10.0754.949-3.4292 0-6.4733-.949-10.0754-.949-1.131-.007-2.2416.0238-3.348 0-3.6017 0-6.632.949-10.0577.949-3.429 0-6.456-.949-10.058-.949-.2673 0-.5164.009-.776.0177-.1778-.004-.3767-.0177-.5574-.0177-.1197 0-.2215-.003-.3387 0-.1172-.003-.2367 0-.3564 0-.1807 0-.3443.0138-.522.0177-.2598-.008-.512-.0177-.7798-.0177-3.6053 0-6.6424.9493-10.0754.949-3.429 0-6.4735-.949-10.0754-.949-.262 0-.5215.01-.776.0177-.1808-.004-.339-.0177-.5222-.0177-.1242 0-.252-.003-.374 0-.117-.003-.2365 0-.3562 0-.1807 0-.3617.0138-.5398.0177-.259-.008-.5084-.0177-.776-.0177-2.879 0-6.2182.6074-8.936.8502l-6.2725 10.8584 62.9712-.007 64.3753.007z"/><path fill="url(#a)" d="M547.993 323.111c-.199 0-.398 0-.5962.007-3.2402.0945-5.564 1.1148-11.2007 1.1148-5.6365 0-6.218-1.0186-12.5835-.8784-5.9467.131-8.4422 1.2612-11.67 1.217-3.2275-.044-8.4726-.6975-12.5094-.275-4.0367.4223-8.8282 1.2838-11.9732 1.291-3.9083-.0174-7.8196-.731-11.9062-.3245-4.0867.4064-5.997 1.4998-11.063 1.485-4.3553-.0125-9.083-.6976-12.746-.695-3.4348.003-7.2665.9574-10.086 1.443l-.843 1.464c2.247-.2606 8.5514-1.2182 10.802-1.277 2.3442-.0613 10.717.483 15.3352.3245 4.6183-.1585 5.1587-1.1712 10.6186-1.1712 3.801 0 6.666.3986 10.5657.3986 2.4342 0 4.6433-1.242 8.3433-1.242.936-.0266 1.8644-.0607 2.794-.0913 3.1185-.5152 8.3834.045 12.0474.2328 3.3153.173 5.4573-.6156 8.9147-.7303 1.4957-.0682 2.9973-.066 4.4732-.1483 3.4606-.115 6.4222.6405 9.6802.6244 3.25-.2005 6.4034-.9225 9.86-1.0372 1.5113-.0717 2.998-.0723 4.491-.1482 2.286-.0758 5.8358.0784 8.2726.501l-.8396-1.45c-2.3795-.0755-5.312-.6352-8.181-.635z"/><g id="n"><path id="m" fill="url(#a)" d="M450.312 334.748c-3.457 0-6.4023.853-9.652.9454-1.2107-.0338-2.3665-.1837-3.535-.3457l-.4903.8502c.4864.0322.9752.0634 1.4888.0634 1.5012.018 2.9903-.0362 4.4733 0 3.457 0 6.382-.8525 9.6344-.9455 3.254.0923 6.2055.9454 9.6662.9454 1.501.0185 2.992-.0362 4.4733 0 3.4574 0 6.412-.8532 9.666-.9455 3.256.0923 6.2304.9454 9.6875.9454 1.495.018 2.9932-.036 4.4698 0 3.4574 0 6.4012-.8532 9.652-.9455 3.2534.0923 6.1914.9454 9.6485.9454 1.513.0184 2.9994-.0362 4.491 0 3.457 0 6.4104-.8532 9.666-.9455 3.2577.0917 6.21.9454 9.6698.9454 1.4954.018 2.992-.036 4.4698 0 3.4572 0 6.401-.8532 9.6522-.9455 3.253.0923 6.209.9454 9.666.9454 1.4994.018 2.9957-.036 4.4734 0 .6056 0 1.1963-.0342 1.778-.0776l-.4622-.7973c-1.064.144-2.1337.2762-3.235.307-3.2543-.0924-6.195-.9455-9.652-.9455-1.5106-.0196-2.9978.0292-4.491 0-3.457 0-6.3967.853-9.6484.9454-3.257-.0916-6.2058-.9454-9.6662-.9454-1.496-.0198-2.993.0297-4.4733 0-3.457 0-6.4124.853-9.666.9454-3.2545-.0923-6.2092-.9454-9.6663-.9454-1.5033-.0196-3.0035.0292-4.491 0-3.457 0-6.3986.853-9.6484.9454-3.254-.0923-6.195-.9454-9.652-.9454-1.506-.02-2.9898.0296-4.4733 0-3.4604 0-6.4092.8538-9.6662.9454-3.2544-.0923-6.2087-.9454-9.6662-.9454-1.502-.02-3.0057.0298-4.4908 0z"/><use xlink:href="#m" y="-1.2894"/><use xlink:href="#m" y="-2.5746"/></g><use xlink:href="#n" y="-3.8672"/><use xlink:href="#n" y="-7.7287"/></g><path fill="#97c924" d="M443.846 324.705l-2.427 4.191c2.839-.4707 7.102-1.703 10.6344-1.7057 3.663-.003 8.082.9028 12.4372.9155 5.066.0147 6.9764-1.0787 11.063-1.4852 4.0868-.4065 7.998.5276 11.9063.545 3.145-.007 7.9364-1.0892 11.9732-1.5116 4.0368-.4225 7.7372.2934 12.603.3687 4.8658.0753 5.6296-1.1797 11.5763-1.3106 6.3654-.1402 6.947.8785 12.5836.8785 4.2416.2282 7.883-.854 11.6665-1.122 3.7835-.2676 5.5383.043 8.3044.1095l-1.838-3.2526c-.0307 0-.061.003-.0918.004l-101.246 2.2256z"/><path fill="#fff" d="M550.067 324.648s2.71.1485 3.8475.2756c1.1374.127 2.9545.2535 2.9545.2535l-.369-.485c-.5745.2028-4.4213-.189-6.433-.044z"/></g><path fill="#c8a400" d="M500 224.874l-32.1418 55.6856-32.858 56.899 64.2978-.007 65.7018.007-32.153-55.683-32.847-56.902zm0 3.002l31.549 54.652 30.8507 53.428-63.1018-.004-61.7013.004 31.5597-54.645z"/></svg>
