<svg xmlns="http://www.w3.org/2000/svg" xmlns:xlink="http://www.w3.org/1999/xlink" height="600" width="1200"><defs><clipPath id="b"><path d="M0 0h600v300H0z"/></clipPath><clipPath id="c"><path d="M0 0l300 150H0zm300 0h300L300 150zm0 150h300v150zm0 0v150H0z"/></clipPath><g id="d"><g id="a"><path d="M0-.325v.5l1-.5z"/><path d="M.19.263l-.293-.405L1-.325z"/></g><use xlink:href="#a" transform="scale(-1,1)"/><use xlink:href="#a" transform="rotate(72,0,0)"/><use xlink:href="#a" transform="rotate(-72,0,0)"/><use xlink:href="#a" transform="rotate(-72,0,0) scale(-1,1)"/></g></defs><path fill="#00247d" d="M0 0h1200v600H0z"/><path stroke="#fff" d="M0 0l600 300M0 300L600 0" stroke-width="60" clip-path="url(#b)"/><path stroke="#cc142b" d="M0 0l600 300M0 300L600 0" stroke-width="40" clip-path="url(#c)"/><path stroke="#fff" d="M300 0v300M0 150h600" stroke-width="100" clip-path="url(#b)"/><path stroke="#cc142b" d="M300 0v300M0 150h600" stroke-width="60" clip-path="url(#b)"/><g><use xlink:href="#d" fill="#fff" transform="translate(900,120) scale(45.4)"/><use xlink:href="#d" fill="#cc142b" transform="translate(900,120) scale(30)"/><g transform="rotate(82,900,240)"><use xlink:href="#d" fill="#fff" transform="translate(900,120) rotate(-82) scale(40.4)"/><use xlink:href="#d" fill="#cc142b" transform="translate(900,120) rotate(-82) scale(25)"/></g><g transform="rotate(82,900,240)"><use xlink:href="#d" fill="#fff" transform="translate(900,380) rotate(-82) scale(45.4)"/><use xlink:href="#d" fill="#cc142b" transform="translate(900,380) rotate(-82) scale(30)"/></g><g><use xlink:href="#d" fill="#fff" transform="translate(900,480) scale(50.4)"/><use xlink:href="#d" fill="#cc142b" transform="translate(900,480) scale(35)"/></g></g></svg>
