<svg xmlns="http://www.w3.org/2000/svg" width="531" height="354" viewBox="0 0 1498.6001 999.06664" id="svg2" fill-rule="evenodd"><defs id="defs4"><style id="style6">.str0 {stroke:black;stroke-width:0.1} .fil1 {fill:#28AE66} .fil0 {fill:#A90000} .fil2 {fill:#CA3745} .fil3 {fill:white} .fil9 {fill:black;fill-rule:nonzero} .fil5 {fill:#28AE66;fill-rule:nonzero} .fil4 {fill:#383739;fill-rule:nonzero} .fil8 {fill:#CA3745;fill-rule:nonzero} .fil6 {fill:#FAAE29;fill-rule:nonzero} .fil7 {fill:white;fill-rule:nonzero}</style></defs><path id="path10" d="M517.013 916.645c8.275 0 14.986 6.71 14.986 14.986v14.985c0 8.275-6.712 14.986-14.987 14.986h-14.986v-44.955h14.986zm0 59.942c16.55 0 29.972-13.422 29.972-29.972V931.63c0-16.55-13.42-29.97-29.972-29.97H487.04v74.927h29.973zM457.07 901.66h14.985v74.927H457.07V901.66zm-29.973 0h14.986v74.927h-14.986l-29.972-47.042v47.042H382.14V901.66h14.985l29.972 47.04v-47.04zm-224.79 0h44.958v14.986h-29.972v14.985h29.972v14.987h-29.972v14.985h29.972v14.986h-44.958V901.66zm-59.944-.002h14.986v59.944h29.97v14.986h-44.957v-74.93zm157.357 59.944h14.982c12.412 0 22.48-10.067 22.48-22.48 0-12.412-10.254-22.435-22.48-22.478H299.72v14.986h14.982c4.137 0 7.493 3.356 7.493 7.493 0 4.137-3.356 7.493-7.493 7.493H299.72v14.986zm14.982-74.93c28.963 0 52.45 23.488 52.45 52.45 0 28.964-23.487 52.452-52.45 52.452-28.963 0-52.45-23.488-52.45-52.45 0-28.964 23.487-52.452 52.45-52.452zm0 14.986c20.688 0 37.465 16.777 37.465 37.465 0 20.687-16.777 37.465-37.465 37.465-20.688 0-37.465-16.778-37.465-37.465 0-20.688 16.777-37.465 37.465-37.465z" class="fil0" fill="#a90000"/><path id="rect12" class="fil1" fill="#28ae66" d="M0 0h1498.6v999.066H0z"/><path id="rect14" class="fil2" fill="#ca3745" d="M179.828 0h269.748v999.066H179.828z"/><g id="звезды" fill="#fff"><path d="M744.007 110.8c44.292 19.017 75.324 63.027 75.324 114.274 0 68.643-55.665 124.31-124.307 124.31-30.73 0-58.854-11.165-80.553-29.65 13.424 5.758 28.09 9.236 43.543 9.91 68.577 2.994 126.618-50.19 129.612-118.767 1.74-39.815-15.463-76.075-43.618-100.076z" class="fil3" id="_155960960"/><path class="fil3" id="_155960888" d="M648.23 121.68l-14.084-10.232 5.38-16.557-14.084 10.234-14.085-10.233 5.38 16.558-14.085 10.233h17.41l5.38 16.558 5.38-16.557z"/><path class="fil3" id="_155960816" d="M648.23 185.62l-14.084-10.232 5.38-16.557-14.084 10.233-14.085-10.232 5.38 16.558-14.085 10.233h17.41l5.38 16.558 5.38-16.557z"/><path class="fil3" id="_155960744" d="M648.23 249.56l-14.084-10.232 5.38-16.557-14.084 10.233-14.085-10.232 5.38 16.558-14.085 10.233h17.41l5.38 16.558 5.38-16.557z"/><path class="fil3" id="_155960672" d="M585.063 216.796l-14.085-10.233 5.38-16.557-14.085 10.233-14.084-10.234 5.38 16.557-14.086 10.233h17.41l5.38 16.557 5.38-16.557z"/><path class="fil3" id="_155960600" d="M665.82 154.446l14.086-10.234-5.38-16.556 14.084 10.232 14.085-10.232-5.38 16.556 14.085 10.234h-17.41l-5.38 16.557-5.38-16.557z"/></g><g id="_155914472" fill-rule="nonzero"><path class="fil4" id="_155960456" fill="#383739" d="M281.37 163.747l-31.05-17.465h-16.318l-20.425-12.3v-16.86l-21.615-13.254V72.006l21.615-13.255V41.893l20.425-12.3h16.32l31.05-17.465h66.66l31.05 17.464h16.32l20.425 12.302v16.86l21.614 13.254v31.862l-21.613 13.255v16.86l-20.426 12.3h-16.318l-31.05 17.464z"/><path class="fil5" id="_155960384" fill="#28ae66" d="M347.843 163.035l31.05-17.465h16.31l19.91-11.99v-16.855l21.614-13.255V72.403L415.113 59.15V42.295l-19.91-11.99h-16.307l-31.05-17.466h-66.286l-31.052 17.464H234.2l-19.91 11.99V59.15l-21.615 13.253v31.067l21.615 13.255v16.854l19.91 11.99h16.308l31.05 17.465z"/><path class="fil4" id="_155960312" fill="#383739" d="M283.342 156.577l-31.05-17.465h-16.2l-15.16-9.128V113.16L199.32 99.91v-23.94l21.615-13.255V45.89l15.16-9.128h16.198l31.052-17.465h62.72l31.05 17.465h16.2l15.158 9.13v16.82l21.614 13.255v23.94l-21.615 13.254v16.824l-15.158 9.128h-16.2l-31.05 17.465z"/><path class="fil6" id="_155960240" fill="#faae29" d="M393.113 138.4l14.643-8.82v-16.816L429.37 99.51V88.293H315.06v67.57h30.813l31.05-17.464z"/><path class="fil6" id="_155960168" fill="#faae29" d="M221.646 46.293V63.11l-21.614 13.255V87.58h114.312V20.01H283.53l-31.052 17.464H236.29z"/><path class="fil7" id="_155960096" fill="#fff" d="M221.646 129.58l14.643 8.82h16.188l31.05 17.464h30.816v-67.57H200.032V99.51l21.614 13.254z"/><path class="fil7" id="_155960024" fill="#fff" d="M407.756 63.11V46.294l-14.643-8.82h-16.19l-31.05-17.464H315.06v67.57h114.31V76.365z"/><path class="fil4" id="_155959952" fill="#383739" d="M366.52 63.4l-4.118-4.347 12.513-11.804v-8.014l7.3 4.524 5.322-4.96 5.272 3.252-5.33 4.97 6.843 4.24H379.39z"/><path d="M387.626 39.693l-4.782 4.457 4.007 2.482 4.788-4.464-4.012-2.475zm-11.998.824v7.04L363.41 59.08l3.138 3.314 12.557-11.846h12.714l-16.192-10.03z" class="fil8" id="_155959880" fill="#ca3745"/><path class="fil4" id="_155959808" fill="#383739" d="M341.334 61.222l-4.117-4.348L349.73 45.07v-8.012l7.302 4.523 5.32-4.958 5.272 3.25-5.33 4.97 6.844 4.24h-14.935z"/><path d="M362.44 37.514l-4.78 4.457 4.006 2.483 4.788-4.464-4.014-2.476zm-11.996.824v7.04L338.226 56.9l3.136 3.313L353.92 48.37h12.715l-16.19-10.032z" class="fil8" id="_155959736" fill="#ca3745"/><path class="fil4" id="_155959664" fill="#383739" d="M368.366 77.647L364.25 73.3l12.51-11.805v-8.013l7.303 4.524 5.32-4.96 5.272 3.252-5.33 4.97 6.844 4.24h-14.935z"/><path d="M389.472 53.94l-4.78 4.456 4.006 2.48 4.787-4.463-4.013-2.474zm-11.997.823V61.8l-12.217 11.527 3.136 3.313 12.557-11.845h12.716l-16.19-10.032z" class="fil8" id="_155959592" fill="#ca3745"/><path class="fil4" id="_155959520" fill="#383739" d="M366.52 112.473l-4.118 4.348 12.513 11.805v8.012l7.3-4.523 5.322 4.96 5.272-3.252-5.33-4.97 6.843-4.24H379.39z"/><path d="M387.626 136.18l-4.782-4.456 4.007-2.482 4.788 4.464-4.012 2.475zm-11.998-.823v-7.04l-12.217-11.524 3.138-3.313 12.557 11.845h12.714l-16.192 10.032z" class="fil8" id="_155959448" fill="#ca3745"/><path class="fil4" id="_155959376" fill="#383739" d="M341.334 114.65l-4.117 4.35 12.513 11.804v8.01l7.302-4.522 5.32 4.96 5.272-3.25-5.33-4.97 6.844-4.24h-14.935z"/><path d="M362.44 138.36l-4.78-4.457 4.006-2.483 4.788 4.464-4.014 2.476zm-11.996-.824v-7.04l-12.218-11.524 3.136-3.313 12.558 11.844h12.715l-16.19 10.032z" class="fil8" id="_155959304" fill="#ca3745"/><path class="fil4" id="_155959232" fill="#383739" d="M368.366 98.227l-4.117 4.348 12.51 11.804v8.01l7.303-4.522 5.32 4.96 5.272-3.252-5.33-4.97 6.844-4.24h-14.935z"/><path d="M389.472 121.935l-4.78-4.457 4.006-2.482 4.787 4.465-4.013 2.475zm-11.997-.824v-7.037l-12.217-11.526 3.136-3.313 12.557 11.845h12.716l-16.19 10.03z" class="fil8" id="_155959160" fill="#ca3745"/><path class="fil4" id="_155959088" fill="#383739" d="M262.88 112.473l4.118 4.348-12.514 11.805v8.012l-7.3-4.523-5.322 4.96-5.27-3.252 5.328-4.97-6.843-4.24h14.935z"/><path d="M241.774 136.18l4.78-4.456-4.006-2.482-4.787 4.464 4.014 2.475zm11.997-.823v-7.04l12.22-11.524-3.137-3.313-12.558 11.845H237.58l16.19 10.032z" class="fil8" id="_155917160" fill="#ca3745"/><path class="fil4" id="_155917088" fill="#383739" d="M288.065 114.65l4.118 4.35-12.513 11.804v8.01l-7.302-4.522-5.32 4.96-5.272-3.25 5.33-4.97-6.844-4.24h14.934z"/><path d="M266.96 138.36l4.78-4.457-4.007-2.483-4.788 4.464 4.014 2.476zm11.995-.824v-7.04l12.218-11.524-3.136-3.313-12.557 11.844h-12.715l16.19 10.032z" class="fil8" id="_155917016" fill="#ca3745"/><path class="fil4" id="_155916944" fill="#383739" d="M261.034 98.227l4.117 4.348-12.512 11.804v8.01l-7.302-4.522-5.32 4.96-5.272-3.252 5.33-4.97-6.844-4.24h14.934z"/><path d="M239.927 121.935l4.78-4.457-4.006-2.482-4.786 4.465 4.013 2.475zm11.998-.824v-7.037l12.217-11.526-3.137-3.313-12.557 11.845h-12.714l16.19 10.03z" class="fil8" id="_155916872" fill="#ca3745"/><path class="fil4" id="_155916800" fill="#383739" d="M262.88 63.4l4.118-4.347-12.514-11.804v-8.014l-7.3 4.524-5.322-4.96-5.272 3.252 5.33 4.97-6.844 4.24h14.935z"/><path d="M241.773 39.693l4.782 4.457-4.007 2.482-4.788-4.464 4.013-2.475zm11.998.824v7.04l12.22 11.524-3.138 3.314-12.558-11.846H237.58l16.19-10.03z" class="fil8" id="_155916728" fill="#ca3745"/><path class="fil4" id="_155916656" fill="#383739" d="M288.065 61.222l4.117-4.348L279.67 45.07v-8.012l-7.302 4.523-5.32-4.958-5.273 3.25 5.33 4.97-6.844 4.24h14.935z"/><path d="M266.958 37.514l4.78 4.457-4.005 2.483-4.788-4.464 4.013-2.476zm11.997.824v7.04L291.173 56.9l-3.137 3.313L275.48 48.37h-12.715l16.19-10.032z" class="fil8" id="_155916584" fill="#ca3745"/><path class="fil4" id="_155916512" fill="#383739" d="M261.033 77.647l4.117-4.348-12.513-11.805v-8.013l-7.3 4.524-5.322-4.96-5.27 3.252 5.328 4.97-6.843 4.24h14.934z"/><path d="M239.927 53.94l4.78 4.456-4.006 2.48-4.786-4.463 4.013-2.474zm11.997.823V61.8l12.217 11.527-3.135 3.313-12.557-11.845h-12.715l16.19-10.032z" class="fil8" id="_155916440" fill="#ca3745"/><path class="fil4" id="_155916368" fill="#383739" d="M356.764 37.136l2.37-5.77-10.16-5.273h-13.746l-7.052-6.796h-26.95l-7.053 6.796h-13.746l-10.157 5.272 2.368 5.77 9.06-4.756h3.966l13.89 16.062 15.147-9.225 15.148 9.225 13.89-16.063h3.966z"/><path class="fil4" id="_155916296" fill="#383739" d="M356.764 138.737l2.37 5.772-10.16 5.27h-13.746l-7.052 6.797h-26.95l-7.053-6.796h-13.746l-10.157-5.27 2.368-5.773 9.06 4.758h3.966l13.89-16.063 15.147 9.224 15.148-9.224 13.89 16.063h3.966z"/><path class="fil4" id="_155916224" fill="#383739" d="M242.8 75.525h-6.962l-1.56-1.865v-4.94l3.923-2.597-6.424-2.4-.154.106-8.297 5.756v1.548l-13.287 16.803 13.287 16.803v1.55l8.45 5.86 6.426-2.4-3.92-2.596v-4.94l1.558-1.865h6.962z"/><path class="fil8" id="_155916152" fill="#ca3745" d="M224.04 105.916v-1.424l-13.093-16.555L224.04 71.38v-1.422l7.835-5.437 4.766 1.78-3.074 2.037v5.582l1.938 2.317h6.582v23.4h-6.582l-1.938 2.318v5.582l3.075 2.036-4.765 1.78z"/><path class="fil4" id="_155916080" fill="#383739" d="M386.6 75.525h6.96l1.56-1.865v-4.94l-3.92-2.597 6.425-2.4.153.106 8.297 5.756v1.548l13.287 16.803-13.288 16.803v1.55l-8.45 5.86-6.425-2.4 3.92-2.596v-4.94l-1.56-1.865h-6.96z"/><path class="fil8" id="_155916008" fill="#ca3745" d="M405.36 105.916v-1.424l13.093-16.555L405.36 71.38v-1.422l-7.836-5.437-4.766 1.78 3.076 2.037v5.582l-1.94 2.317h-6.58v23.4h6.58l1.94 2.318v5.582l-3.076 2.036 4.766 1.78z"/><path d="M314.343 20.01V38.6l-14.645 8.92-13.707-15.853h-4.47L273 36.14l-1.823-4.443 9.425-4.892h13.86l7.05-6.796h12.83zm.715 2.023V38.6l14.645 8.92 13.707-15.853h4.47l8.52 4.473 1.824-4.443-9.425-4.892h-13.86l-7.05-6.796h-12.83v2.023h-.002z" class="fil8" id="_155915936" fill="#ca3745"/><path d="M314.343 155.864v-18.59l-14.645-8.92-13.707 15.853h-4.47l-8.52-4.474-1.823 4.444 9.425 4.892h13.86l7.05 6.794h12.83zm.715-2.023v-16.567l14.645-8.92 13.707 15.854h4.47l8.52-4.474 1.824 4.444-9.425 4.892h-13.86l-7.05 6.794h-12.83v-2.023h-.002z" class="fil8" id="_155915864" fill="#ca3745"/><path class="fil4" id="_155915792" fill="#383739" d="M247.746 91.16h-12.663l-5.54 5.627 3.75-.03-6.5 5.285-3.617-3.13v-1.51l-7.76-9.465 7.76-9.467v-1.508l3.618-3.13 6.498 5.284-3.75-.03 5.54 5.626h12.665l9.958-7.788V56.386h24.908l28.927-17.75v-4.657l-4.424-2.95h-1.402l-4.817 3.225-.746 2.405-3.768-5.145 7.324-6.154h1.17l8.267-6.063h3.116l8.263 6.064h1.172l7.324 6.155-3.77 5.145-.746-2.405-4.817-3.224h-1.402l-4.424 2.95v4.655l28.928 17.75h24.908v20.54l9.96 7.787h12.662l5.542-5.625-3.75.03 6.497-5.285 3.618 3.13v1.508l7.76 9.467-7.76 9.466v1.51l-3.618 3.13-6.498-5.285 3.75.03-5.542-5.627h-12.663l-9.96 7.79v20.537H346.79L317.86 137.24v4.655l4.425 2.948h1.402l4.817-3.224.746-2.406 3.77 5.144-7.325 6.154h-1.172l-8.264 6.065h-3.117l-8.266-6.065h-1.17l-7.326-6.154 3.77-5.144.747 2.405 4.816 3.223h1.402l4.425-2.948v-4.656l-28.927-17.753h-24.908V98.95z"/><path d="M315.058 145.396l3.166 2.42-3.166 2.422v-4.842zm-10.064 4.403h.117l8.266 6.064h.965v-4.73l-4.335-3.317 4.337-3.316v-8.887l-30.953-18.995h-22.882V97.532l-11.814-9.24h-17.82l-4.478 5.065-4.48-5.064h-5.287l7.258 8.854v1.438l2.875 2.498 4.62-3.597-2.712.02v-.898l6.044-6.16h13.277l10.43 8.155v20.172h24.395l29.437 18.065v5.435l-4.92 3.28h-1.836l-5.206-3.485-.4-1.292-2.54 3.464 6.616 5.557h1.028zM226.4 83.593l3.526 3.986h-7.054l3.528-3.986zm87.943-57.958l-3.164 2.42 3.163 2.42v-4.84zm85.133 62.658l3.527 3.986 3.526-3.986h-7.054zm-75.187-62.22l-8.266-6.065h-.965v4.73l4.337 3.317-4.34 3.318v8.886l30.954 18.996h22.882v19.086l11.814 9.24h17.817l4.48-5.064 4.48 5.062h5.288l-7.258-8.853V77.29l-2.875-2.5-4.62 3.598 2.712-.022v.9l-6.044 6.158H381.41l-10.427-8.154V57.1h-24.398l-29.437-18.066v-5.436l4.92-3.28h1.836l5.207 3.486.4 1.292 2.54-3.464-6.616-5.558h-1.145z" class="fil6" id="_155915720" fill="#faae29"/><path d="M314.343 150.237l-3.164-2.42 3.163-2.42v4.84zm-84.417-61.943L226.4 92.28l-3.527-3.986h7.053zm94.48 61.505h-.117l-8.266 6.064h-.965v-4.728l4.337-3.32-4.34-3.317v-8.887l30.954-18.995h22.882V97.532l11.814-9.24h17.818l4.48 5.065 4.477-5.064h5.29l-7.258 8.854v1.438l-2.875 2.498-4.62-3.597 2.712.02v-.898l-6.044-6.16H381.41l-10.427 8.155v20.172h-24.398l-29.437 18.065v5.435l4.92 3.28h1.836l5.207-3.485.4-1.292 2.54 3.464-6.616 5.557h-1.028zm78.597-66.206l-3.527 3.986h7.054l-3.527-3.986zm-97.89-57.52l8.265-6.065h.966v4.73l-4.34 3.317 4.34 3.318v8.886l-30.953 18.996h-22.88v19.086l-11.814 9.24h-17.822l-4.478-5.064-4.48 5.062h-5.285l7.26-8.853V77.29l2.876-2.5 4.62 3.598-2.713-.022v.9l6.044 6.158h13.276l10.428-8.154V57.1h24.397l29.438-18.066v-5.436l-4.92-3.28h-1.837l-5.206 3.486-.4 1.292-2.54-3.464 6.617-5.558h1.143zm9.945 4.404l3.166-2.42-3.166-2.422v4.842z" class="fil7" id="_155915648" fill="#fff"/><path class="fil5" id="_155915576" fill="#28ae66" d="M314.344 41.096l-30.752 18.872h-22.37v18.72l-11.37 8.892h64.492z"/><path class="fil5" id="_155915504" fill="#28ae66" d="M315.06 134.777l30.75-18.87h22.37V97.184l11.37-8.89h-64.49z"/><path class="fil8" id="_155915432" fill="#ca3745" d="M379.55 87.58l-11.37-8.89V59.967h-22.37l-30.75-18.87V87.58z"/><path class="fil8" id="_155915360" fill="#ca3745" d="M249.852 88.294l11.37 8.89v18.722h22.37l30.752 18.872V88.294z"/><path class="fil4" id="_155915288" fill="#383739" d="M297.3 84.686l4.116-4.35-12.513-11.803v-8.01l-7.302 4.522-5.32-4.96-5.27 3.25 5.33 4.97-6.845 4.24h14.934z"/><path d="M276.192 60.977l4.782 4.457-4.008 2.483-4.787-4.464 4.012-2.476zm11.998.825v7.038l12.217 11.525-3.137 3.314-12.557-11.847H272l16.19-10.03z" class="fil8" id="_155915216" fill="#ca3745"/><path class="fil4" id="_155915144" fill="#383739" d="M332.1 91.188l-4.117 4.348 12.513 11.805v8.012l7.3-4.523 5.322 4.958 5.27-3.25-5.328-4.97 6.844-4.24H344.97z"/><path d="M353.206 114.896l-4.78-4.457 4.006-2.483 4.787 4.464-4.014 2.476zm-11.997-.824v-7.038L328.99 95.51l3.137-3.315 12.556 11.846H357.4l-16.19 10.032z" class="fil8" id="_155915072" fill="#ca3745"/><path class="fil4" id="_155915000" fill="#383739" d="M297.298 91.188l4.117 4.348-12.513 11.805v8.012l-7.3-4.523-5.322 4.958-5.27-3.25 5.328-4.97-6.843-4.24h14.934z"/><path d="M276.192 114.896l4.78-4.457-4.006-2.483-4.787 4.464 4.012 2.476zm11.997-.824v-7.038l12.216-11.525-3.136-3.315-12.557 11.846h-12.715l16.19 10.032z" class="fil5" id="_155914928" fill="#28ae66"/><path class="fil4" id="_155914856" fill="#383739" d="M332.1 84.686l-4.117-4.35 12.513-11.803v-8.01l7.3 4.522 5.322-4.96 5.27 3.25-5.328 4.97 6.844 4.24H344.97z"/><path d="M353.206 60.977l-4.78 4.457 4.006 2.483 4.787-4.464-4.014-2.476zm-11.997.825v7.038L328.99 80.365l3.137 3.314 12.556-11.847H357.4l-16.19-10.03z" class="fil5" id="_155914784" fill="#28ae66"/><path class="fil4" id="_155914712" fill="#383739" d="M347.768 87.938L314.7 109.976l-33.066-22.038 33.067-22.04z"/><path d="M314.344 66.993l-30.89 20.587h30.89V66.993zm.715 20.587h30.89l-30.89-20.587V87.58zm-31.607.714l30.89 20.587V88.295h-30.89zm31.606 20.587l30.89-20.586h-30.89v20.587z" class="fil7" id="_155914640" fill="#fff"/><path class="fil4 str0" id="_155914568" fill="#383739" stroke="#000" stroke-width=".1" d="M323.846 74.368v6.065H335.3v15.172h-11.454v6.065h-17.7v-6.065h-11.457V80.433h11.455v-6.065z"/><path d="M306.573 75.01v6.06h-11.445v6.51h19.216V75.01h-7.77zm8.486 12.57h19.215v-6.51H322.83v-6.06h-7.77v12.57zm-19.932.714v6.51h11.445v6.06h7.77v-12.57H295.13zm19.93 12.57h7.772v-6.06h11.445v-6.51H315.06v12.57z" class="fil8" id="_155914496" fill="#ca3745"/></g><g id="_155856272" fill-rule="nonzero"><path class="fil4" id="_155914400" fill="#383739" d="M284.912 339.033v9.708h59.58v-9.707h26.623v-9.708h26.623v-9.708h26.622v-87.72h-26.622v-9.707h-26.623v-9.708h-26.622v-9.708h-59.58v9.708H258.29v9.708h-26.623v9.707h-26.622v87.72h26.622v9.708h26.623v9.708z"/><path class="fil8" id="_155914328" fill="#ca3745" d="M343.78 338.32v9.707h-58.155v-9.707h-26.622v-9.708H232.38v-9.708H205.76V232.61h26.623v-9.707h26.623v-9.708h26.622v-9.708h58.154v9.708h26.62v9.708h26.624v9.708h26.622v86.294h-26.622v9.708H370.4v9.708z"/><path class="fil4" id="_155914256" fill="#383739" d="M292.675 331.27v9.71h44.055v-9.71h26.623v-9.708h26.622v-9.707h26.622V239.66h-26.622v-9.708h-26.622v-9.708H336.73v-9.708h-44.055v9.708h-26.622v9.708H239.43v9.708h-26.623v72.195h26.623v9.707h26.623v9.71z"/><path class="fil8" id="_155914184" fill="#ca3745" d="M336.016 330.557v9.707h-42.628v-9.707h-26.622v-9.71h-26.622v-9.706H213.52v-70.766h26.624v-9.708h26.622v-9.708h26.622v-9.707h42.628v9.708h26.623v9.708h26.62v9.708h26.624v70.767H389.26v9.708h-26.62v9.71z"/><path class="fil4" id="_155914112" fill="#383739" d="M286.492 228.144l-.015-6.992-6.758 6.045-6.76-6.045-.014 6.992-6.895-5.212v10.008l-6.602 4.197-.017-6.266-6.332 5.69-6.333-5.69-.017 6.267-7.318-4.65v9.28l-5.913 4.28-.016-5.69-7.025 5.09-7.025-5.09-.016 5.69-6.627-4.797v28.11h-7.762v12.794h7.762v28.11l6.627-4.798.016 5.69 7.025-5.088 7.025 5.088.017-5.69 5.913 4.28v9.28l7.318-4.65.017 6.267 6.333-5.69 6.333 5.69.018-6.266 6.603 4.195v10.01l6.896-5.212.015 6.99 6.76-6.043 6.757 6.043.015-6.99 6.183 4.673v10.675l9.243-8.425v9.9l12.784-8.22 12.785 8.22v-9.9l9.244 8.425v-10.675l6.182-4.673.015 6.99 6.758-6.043 6.76 6.043.014-6.99 6.893 5.212v-10.01l6.604-4.195.016 6.266 6.335-5.69 6.333 5.69.017-6.266 7.318 4.65v-9.28l5.913-4.28.016 5.69 7.025-5.09 7.024 5.09.016-5.69 6.627 4.796v-28.11h7.763V269.36h-7.763v-28.11l-6.627 4.797-.016-5.69-7.025 5.09-7.027-5.09-.015 5.69-5.913-4.28v-9.28l-7.318 4.65-.016-6.266-6.332 5.69-6.335-5.69-.016 6.267-6.604-4.198V222.93l-6.894 5.21-.016-6.99-6.76 6.045-6.757-6.045-.015 6.992-6.18-4.675v-10.674l-9.245 8.425v-9.9l-12.785 8.22-12.784-8.22v9.9l-9.243-8.424v10.674z"/><path class="fil5" id="_155914040" fill="#28ae66" d="M205.758 281.44v-11.366h7.763v-27.426l6.624 4.795.016-5.69 6.315 4.574.213-.155 6.103-4.42.017 5.69 6.623-4.794v66.22l-6.623-4.796-.016 5.69-6.315-4.574-6.315 4.575-.016-5.69-6.623 4.794V281.44z"/><path class="fil6" id="_155913968" fill="#faae29" d="M247.458 313.08l-7.314 4.648v-83.942l7.314 4.648.016-5.966 5.624 5.052 5.623-5.052.017 5.966 7.315-4.648v83.942l-7.315-4.647-.016 5.966-5.622-5.05-5.624 5.05z"/><path class="fil5" id="_155913896" fill="#28ae66" d="M273.656 321.938l-6.89 5.21V224.365l6.89 5.21.014-6.83 6.05 5.41 6.047-5.41.015 6.83 6.892-5.21v102.783l-6.892-5.21-.015 6.83-6.048-5.408-6.05 5.41z"/><path class="fil6" id="_155913824" fill="#faae29" d="M314.703 220.388h-.002l-12.07-7.76v10.21l-9.242-8.425v122.69l9.243-8.426v10.21l12.07-7.76h.002l12.07 7.76v-10.21l9.244 8.425v-122.69l-9.243 8.426v-10.21z"/><path class="fil5" id="_155913752" fill="#28ae66" d="M423.646 281.44v-11.366h-7.762v-27.426l-6.623 4.795-.015-5.69-6.315 4.574-.214-.155-6.102-4.42-.016 5.69-6.623-4.794v66.22l6.623-4.796.016 5.69 6.316-4.574 6.315 4.575.016-5.69 6.624 4.794V281.44z"/><path class="fil6" id="_155913680" fill="#faae29" d="M381.947 313.08l7.314 4.648v-83.942l-7.313 4.648-.016-5.966-5.622 5.052-5.625-5.052-.015 5.966-7.315-4.648v83.942l7.315-4.647.015 5.966 5.625-5.05 5.623 5.05z"/><path class="fil5" id="_155913608" fill="#28ae66" d="M355.75 321.938l6.89 5.21V224.365l-6.89 5.21-.016-6.83-6.05 5.41-6.047-5.41-.015 6.83-6.89-5.21v102.783l6.89-5.21.015 6.83 6.048-5.408 6.05 5.41z"/><path class="fil4" id="_155913536" fill="#383739" d="M322.8 238.95l-2.865 2.45v-7.23l6.47-4.77-11.704-8.626-11.703 8.627 6.47 4.77v7.23l-2.863-2.45v-3.987l-6.85 5.626 7.346 6.78-2.864 3.958h20.93l-2.863-3.958 7.345-6.78-6.848-5.627z"/><path class="fil8" id="_155913464" fill="#ca3745" d="M305.89 236.473v2.805l4.29 3.672v-9.14l-5.98-4.41 10.5-7.74 10.502 7.74-5.98 4.41v9.14l4.29-3.672v-2.805l5.05 4.148-7.208 6.655 2.417 3.34h-18.136l2.415-3.34-7.21-6.654z"/><path class="fil4" id="_155913392" fill="#383739" d="M314.7 233.342l5.35-3.94-5.35-3.944-.21.157-5.137 3.786z"/><path d="M314.7 226.346c.355.26 3.522 2.594 4.147 3.055l-4.146 3.056-4.144-3.055 4.145-3.054z" class="fil5" id="_155913320" fill="#28ae66"/><path class="fil4" id="_155913248" fill="#383739" d="M361.918 284.522h35.818v-4.67h11.718v-8.19h-11.718v-4.67h-35.818l-24.934-16.377h-44.566l-24.933 16.378h-35.818v4.67H219.95v8.19h11.717v4.67h35.818l24.933 16.378h44.566z"/><path class="fil8" id="_155913176" fill="#ca3745" d="M232.38 283.808v-4.67h-11.718v-6.76h11.72v-4.672h35.316l24.933-16.378h44.14l24.934 16.378h35.317v4.67h11.72v6.76h-11.72v4.672h-35.316l-24.933 16.38h-44.14l-24.932-16.38z"/><path class="fil4" id="_155882848" fill="#383739" d="M384.538 280.534v-9.554h-25.53v-2.267l-22.777-14.954h-43.059l-22.777 14.953v2.267h-25.53v9.554h25.53v2.267l22.778 14.955h43.06l22.78-14.954v-2.266z"/><path class="fil8" id="_155882776" fill="#ca3745" d="M245.578 271.693h25.53v-2.595l22.276-14.626h42.634l22.277 14.626v2.595h25.53v8.127h-25.53v2.596l-22.277 14.626h-42.634l-22.277-14.626v-2.596h-25.53z"/><path d="M318.648 256.792l-3.947 2.963-3.945-2.963h-7.377l7.635 5.733-13.937 10.463-7.376-5.538 2.268-1.703 2.657 1.995 3.688-2.768-6.345-4.764-9.646 7.24 11.065 8.307-11.065 8.308 9.646 7.24 6.345-4.764-3.688-2.768-2.657 1.995-2.268-1.702 7.376-5.538 13.937 10.463-7.635 5.733h7.377l3.946-2.963 3.948 2.963h7.377l-7.634-5.733 13.937-10.463 7.377 5.538-2.268 1.702-2.658-1.995-3.688 2.77 6.346 4.764 9.645-7.24-11.064-8.31 11.065-8.306-9.644-7.24-6.346 4.764 3.688 2.768 2.658-1.995 2.268 1.703-7.377 5.538-13.936-10.463 7.636-5.733h-7.378zm-3.947 8.5l13.94 10.465-13.94 10.464-13.935-10.463 13.936-10.464z" class="fil4" id="_155882704" fill="#383739"/><path d="M323.886 257.507l-6.685 5.018 15.127 11.355 8.565-6.43-3.456-2.595-2.658 1.995-2.5-1.876 5.158-3.873 8.456 6.35-11.065 8.307 11.065 8.308-8.456 6.35-5.158-3.874 2.5-1.876 2.658 1.995 3.456-2.595-8.565-6.43-15.125 11.355 6.684 5.018h-5l-4.185-3.14-4.183 3.14h-5l6.684-5.018-15.124-11.355-8.564 6.43 3.456 2.594 2.657-1.996 2.5 1.877-5.157 3.874-8.457-6.35 11.066-8.307-11.065-8.307 8.458-6.35 5.157 3.874-2.5 1.876-2.657-1.995-3.456 2.595 8.564 6.43 15.125-11.355-6.683-5.018h5l4.184 3.14 4.186-3.14h5zm-9.4 7.055l-14.91 11.195 15.125 11.356 15.128-11.356L314.7 264.4l-.213.162z" class="fil6" id="_155882632" fill="#faae29"/><path class="fil4" id="_155882560" fill="#383739" d="M275.016 275.757l6.483 4.306 6.482-4.306-6.483-4.306z"/><path class="fil5" id="_155882488" fill="#28ae66" d="M281.5 272.31l5.192 3.447-5.193 3.45-5.194-3.45z"/><path class="fil4" id="_155882416" fill="#383739" d="M308.22 275.757l6.482 4.306 6.483-4.306-6.483-4.306z"/><path class="fil5" id="_155882344" fill="#28ae66" d="M314.702 272.31l5.193 3.447-5.193 3.45-5.192-3.45z"/><path class="fil4" id="_155882272" fill="#383739" d="M354.39 275.757l-6.484 4.306-6.483-4.306 6.483-4.306z"/><path class="fil5" id="_155882200" fill="#28ae66" d="M347.906 272.31l-5.193 3.447 5.193 3.45 5.192-3.45z"/><path d="M223.604 263.697c.808.815 1.775 1.228 2.87 1.228 1.097 0 2.064-.413 2.873-1.228 2.528-2.548 2.613-7.156 2.588-10.47l-3.45 3.645-2.01-3.47s-1.64 2.835-2.01 3.47l-3.45-3.646c-.025 3.315.06 7.923 2.59 10.47z" class="fil4" id="_155882128" fill="#383739"/><path d="M226.475 254.827l1.87 3.23s2.02-2.136 2.846-3.006c-.098 3.745-.92 6.704-2.35 8.143-.67.676-1.465 1.018-2.365 1.018-.9 0-1.695-.34-2.364-1.016-1.43-1.44-2.25-4.4-2.35-8.143l2.844 3.007 1.87-3.23z" class="fil7" id="_155882056" fill="#fff"/><path class="fil4" id="_155881984" fill="#383739" d="M258.592 245.81l-5.494-4.717-5.495 4.718 3.772 3.24v7.51l-2.13-2.127v-4.24l-4.89 4.534 8.743 8.744 8.743-8.743-4.89-4.534v4.24l-2.13 2.128v-7.51z"/><path class="fil8" id="_155881912" fill="#ca3745" d="M252.09 248.722l-3.39-2.91 4.398-3.778 4.4 3.777-3.39 2.912v9.563l3.556-3.557v-2.9l3.15 2.918-7.716 7.716-7.715-7.716 3.15-2.918v2.9l3.556 3.557z"/><path class="fil4" id="_155881840" fill="#383739" d="M285.215 237.385l-5.495-4.717-5.495 4.717 3.77 3.238v7.513l-2.128-2.13v-4.24l-4.89 4.535 8.743 8.745 8.744-8.744-4.892-4.533v4.24l-2.13 2.13v-7.514z"/><path class="fil7" id="_155881768" fill="#fff" d="M278.71 240.296l-3.39-2.91 4.4-3.778 4.4 3.777-3.39 2.91v9.564l3.555-3.557v-2.9l3.15 2.918-7.715 7.716-7.716-7.715 3.15-2.918v2.9l3.556 3.557z"/><path class="fil4" id="_155881696" fill="#383739" d="M258.592 305.702l-5.494 4.72-5.495-4.72 3.772-3.237v-7.512l-2.13 2.13v4.24l-4.89-4.535 8.743-8.745 8.743 8.745-4.89 4.534v-4.24l-2.13-2.13v7.513z"/><path class="fil8" id="_155881624" fill="#ca3745" d="M252.09 302.792l-3.39 2.91 4.398 3.78 4.4-3.78-3.39-2.91v-9.563l3.556 3.556v2.9l3.15-2.918-7.716-7.716-7.715 7.716 3.15 2.918v-2.9l3.556-3.557z"/><path class="fil4" id="_155881552" fill="#383739" d="M370.813 245.81l5.494-4.717 5.494 4.718-3.77 3.24v7.51l2.13-2.127v-4.24l4.89 4.534-8.743 8.744-8.744-8.743 4.89-4.534v4.24l2.13 2.128v-7.51z"/><path class="fil8" id="_155881480" fill="#ca3745" d="M377.317 248.722l3.39-2.91-4.4-3.778-4.4 3.777 3.39 2.912v9.563l-3.556-3.557v-2.9l-3.148 2.918 7.715 7.716 7.715-7.716-3.15-2.918v2.9l-3.555 3.557z"/><path class="fil4" id="_155881408" fill="#383739" d="M370.813 305.702l5.494 4.72 5.494-4.72-3.77-3.237v-7.512l2.13 2.13v4.24l4.89-4.535-8.743-8.745-8.744 8.745 4.89 4.534v-4.24l2.13-2.13v7.513z"/><path class="fil8" id="_155881336" fill="#ca3745" d="M377.317 302.792l3.39 2.91-4.4 3.78-4.4-3.78 3.39-2.91v-9.563l-3.556 3.556v2.9l-3.148-2.918 7.715-7.716 7.715 7.716-3.15 2.918v-2.9l-3.555-3.557z"/><path class="fil4" id="_155881264" fill="#383739" d="M285.215 314.13l-5.495 4.716-5.495-4.717 3.77-3.24v-7.512l-2.128 2.13v4.24l-4.89-4.535 8.743-8.744 8.744 8.743-4.892 4.534v-4.24l-2.13-2.13v7.514z"/><path class="fil7" id="_155881192" fill="#fff" d="M278.71 311.218l-3.39 2.91 4.4 3.778 4.4-3.777-3.39-2.912v-9.563l3.555 3.556v2.902l3.15-2.92-7.715-7.714-7.716 7.715 3.15 2.92v-2.902l3.556-3.555z"/><path class="fil4" id="_155881120" fill="#383739" d="M344.19 237.385l5.495-4.717 5.495 4.717-3.77 3.238v7.513l2.128-2.13v-4.24l4.89 4.535-8.743 8.745-8.743-8.744 4.89-4.533v4.24l2.13 2.13v-7.514z"/><path class="fil7" id="_155881048" fill="#fff" d="M350.694 240.296l3.39-2.91-4.4-3.778-4.398 3.777 3.39 2.91v9.564l-3.557-3.557v-2.9l-3.15 2.918 7.715 7.716 7.715-7.715-3.15-2.918v2.9l-3.556 3.557z"/><path class="fil4" id="_155880976" fill="#383739" d="M344.19 314.13l5.495 4.716 5.495-4.717-3.77-3.24v-7.512l2.128 2.13v4.24l4.89-4.535-8.743-8.744-8.743 8.743 4.89 4.534v-4.24l2.13-2.13v7.514z"/><path class="fil7" id="_155880904" fill="#fff" d="M350.694 311.218l3.39 2.91-4.4 3.778-4.398-3.777 3.39-2.912v-9.563l-3.557 3.556v2.902l-3.15-2.92 7.715-7.714 7.715 7.715-3.15 2.92v-2.902l-3.556-3.555z"/><path d="M223.604 287.817c.808-.815 1.775-1.23 2.87-1.23 1.097 0 2.064.415 2.873 1.23 2.528 2.548 2.613 7.155 2.588 10.47l-3.45-3.645-2.01 3.47s-1.64-2.835-2.01-3.47l-3.45 3.646c-.025-3.315.06-7.924 2.59-10.47z" class="fil4" id="_155856944" fill="#383739"/><path d="M226.475 296.687l1.87-3.23s2.02 2.135 2.846 3.005c-.098-3.744-.92-6.703-2.35-8.142-.67-.676-1.465-1.017-2.365-1.017-.9 0-1.695.34-2.364 1.017-1.43 1.44-2.25 4.398-2.35 8.142l2.844-3.005c.624 1.076 1.248 2.153 1.87 3.23z" class="fil7" id="_155856872" fill="#fff"/><path d="M405.8 263.697c-.807.815-1.774 1.228-2.87 1.228-1.097 0-2.063-.413-2.872-1.228-2.528-2.548-2.614-7.156-2.59-10.47l3.452 3.645 2.01-3.47s1.64 2.835 2.01 3.47l3.45-3.646c.025 3.315-.06 7.923-2.59 10.47z" class="fil4" id="_155856800" fill="#383739"/><path d="M402.93 254.827l-1.872 3.23-2.844-3.006c.1 3.745.92 6.704 2.35 8.143.67.676 1.467 1.018 2.366 1.018.9 0 1.695-.34 2.364-1.016 1.43-1.44 2.252-4.4 2.35-8.143-.823.872-2.843 3.007-2.843 3.007l-1.87-3.23z" class="fil7" id="_155856728" fill="#fff"/><path d="M405.8 287.817c-.807-.815-1.774-1.23-2.87-1.23-1.097 0-2.063.415-2.872 1.23-2.528 2.548-2.614 7.155-2.59 10.47l3.452-3.645 2.01 3.47s1.64-2.835 2.01-3.47l3.45 3.646c.025-3.315-.06-7.924-2.59-10.47z" class="fil4" id="_155856656" fill="#383739"/><path d="M402.93 296.687l-1.872-3.23-2.844 3.005c.1-3.744.92-6.703 2.35-8.142.67-.676 1.467-1.017 2.366-1.017.9 0 1.695.34 2.364 1.017 1.43 1.44 2.252 4.398 2.35 8.142l-2.843-3.005-1.87 3.23z" class="fil7" id="_155856584" fill="#fff"/><path class="fil4" id="_155856512" fill="#383739" d="M322.8 312.564l-2.865-2.45v7.23l6.47 4.768-11.704 8.627-11.703-8.628 6.47-4.768v-7.23l-2.863 2.45v3.986l-6.85-5.626 7.346-6.78-2.864-3.96h20.93l-2.863 3.96 7.345 6.78-6.848 5.626z"/><path class="fil8" id="_155856440" fill="#ca3745" d="M305.89 315.04v-2.804l4.29-3.673v9.14l-5.98 4.41 10.5 7.74 10.502-7.74-5.98-4.41v-9.14l4.29 3.673v2.805l5.05-4.148-7.208-6.654 2.417-3.34h-18.136l2.415 3.34-7.21 6.654z"/><path class="fil4" id="_155856368" fill="#383739" d="M314.7 318.17l5.35 3.942-5.35 3.942-.21-.155-5.137-3.788z"/><path d="M314.7 325.167c.355-.26 3.522-2.594 4.147-3.055l-4.146-3.055-4.144 3.055 4.145 3.055z" class="fil5" id="_155856296" fill="#28ae66"/></g><g id="_155766872"><path class="fil4" id="_155856200" fill="#383739" fill-rule="nonzero" d="M223.887 458.464v-6.748l-12.79 8.125-5.13-3.962-5.298.615-2.545 3.597 4.56 3.487-4.56 3.488 2.543 3.597 5.298.616 5.13-3.965 12.79 8.126v-6.75l-8.05-5.113z"/><path class="fil5" id="_155856128" fill="#28ae66" fill-rule="nonzero" d="M211.055 460.713l12.12-7.698v5.056l-8.67 5.508 8.67 5.506v5.056l-12.12-7.698-5.296 4.093-4.694-.544-1.962-2.775 4.756-3.637-4.756-3.637 1.963-2.775 4.692-.545z"/><path class="fil4" id="_155856056" fill="#383739" fill-rule="nonzero" d="M223.887 435.022v-6.748l-12.79 8.125-5.13-3.964-5.298.614-2.545 3.6 4.56 3.486-4.56 3.487 2.543 3.598 5.298.616 5.13-3.965 12.79 8.128v-6.75l-8.05-5.112z"/><path class="fil5" id="_155855984" fill="#28ae66" fill-rule="nonzero" d="M211.055 437.27l12.12-7.696v5.056l-8.67 5.506 8.67 5.506v5.057l-12.12-7.7-5.296 4.093-4.694-.544-1.962-2.778 4.756-3.636-4.756-3.636 1.963-2.776 4.692-.546z"/><path class="fil4" id="_155855912" fill="#383739" fill-rule="nonzero" d="M223.887 492.133v6.748l-12.79-8.124-5.13 3.964-5.298-.616-2.545-3.597 4.56-3.487-4.56-3.488 2.543-3.597 5.298-.615 5.13 3.964 12.79-8.126v6.748l-8.05 5.114z"/><path class="fil5" id="_155855840" fill="#28ae66" fill-rule="nonzero" d="M211.055 489.884l12.12 7.698v-5.056l-8.67-5.507 8.67-5.507v-5.056l-12.12 7.698-5.296-4.093-4.694.544-1.962 2.776 4.756 3.637-4.756 3.636 1.963 2.776 4.692.545z"/><path class="fil4" id="_155855768" fill="#383739" fill-rule="nonzero" d="M405.517 458.464v-6.748l12.792 8.125 5.13-3.962 5.297.615 2.543 3.597-4.56 3.487 4.56 3.488-2.543 3.597-5.297.616-5.13-3.965-12.793 8.126v-6.75l8.052-5.113z"/><path class="fil5" id="_155855696" fill="#28ae66" fill-rule="nonzero" d="M418.35 460.713l-12.118-7.698v5.056l8.667 5.508-8.668 5.506v5.056l12.118-7.698 5.295 4.093 4.693-.544 1.962-2.775-4.755-3.637 4.755-3.637-1.962-2.775-4.693-.545z"/><path class="fil4" id="_155855624" fill="#383739" fill-rule="nonzero" d="M405.517 435.022v-6.748l12.792 8.125 5.13-3.964 5.297.614 2.543 3.6-4.56 3.486 4.56 3.487-2.543 3.598-5.297.616-5.13-3.965L405.516 452v-6.75l8.052-5.112z"/><path class="fil5" id="_155855552" fill="#28ae66" fill-rule="nonzero" d="M418.35 437.27l-12.118-7.696v5.056l8.667 5.506-8.668 5.506v5.057l12.118-7.7 5.295 4.093 4.693-.544 1.962-2.778-4.755-3.636 4.755-3.636-1.962-2.776-4.693-.546z"/><path class="fil4" id="_155855480" fill="#383739" fill-rule="nonzero" d="M405.517 492.133v6.748l12.792-8.124 5.13 3.964 5.297-.616 2.543-3.597-4.56-3.487 4.56-3.488-2.543-3.597-5.297-.615-5.13 3.964-12.793-8.126v6.748l8.052 5.114z"/><path class="fil5" id="_155855408" fill="#28ae66" fill-rule="nonzero" d="M418.35 489.884l-12.118 7.698v-5.056l8.667-5.507-8.668-5.507v-5.056l12.118 7.698 5.295-4.093 4.693.544 1.962 2.776-4.755 3.637 4.755 3.636-1.962 2.776-4.693.545z"/><path d="M377.526 392.517v9.75h7.093v4.31h6.966v-7.846h-6.214v-6.213h-7.846z" class="fil4" id="_155855336" fill="#383739" fill-rule="nonzero"/><path d="M384.66 393.23v6.215h6.212v6.42h-5.54v-4.31h-7.092v-8.324h6.42z" class="fil5" id="_155855264" fill="#28ae66" fill-rule="nonzero"/><path d="M398.432 407.894v9.75h7.085v4.31h6.975v-7.847h-6.213v-6.213h-7.848z" class="fil4" id="_155855192" fill="#383739" fill-rule="nonzero"/><path d="M405.565 408.607v6.214h6.213v6.42h-5.54v-4.308h-7.092v-8.325h6.42z" class="fil5" id="_155855120" fill="#28ae66" fill-rule="nonzero"/><path d="M251.88 392.517v9.75h-7.095v4.31h-6.965v-7.846h6.213v-6.213h7.847z" class="fil4" id="_155855048" fill="#383739" fill-rule="nonzero"/><path d="M244.746 393.23v6.215h-6.213v6.42h5.54v-4.31h7.092v-8.324h-6.42z" class="fil5" id="_155854976" fill="#28ae66" fill-rule="nonzero"/><path d="M377.526 534.64v-9.752h7.093v-4.31h6.966v7.846h-6.214v6.215h-7.846z" class="fil4" id="_155786952" fill="#383739" fill-rule="nonzero"/><path d="M384.66 533.924v-6.213h6.212v-6.418h-5.54v4.31h-7.092v8.322h6.42z" class="fil5" id="_155786880" fill="#28ae66" fill-rule="nonzero"/><path d="M251.88 534.64v-9.752h-7.095v-4.31h-6.965v7.846h6.213v6.215h7.847z" class="fil4" id="_155786808" fill="#383739" fill-rule="nonzero"/><path d="M244.747 533.924v-6.213h-6.214v-6.418h5.54v4.31h7.093v8.322h-6.42z" class="fil5" id="_155786736" fill="#28ae66" fill-rule="nonzero"/><path d="M398.432 519.262v-9.75h7.085v-4.31h6.975v7.846h-6.213v6.214h-7.848z" class="fil4" id="_155786664" fill="#383739" fill-rule="nonzero"/><path d="M405.565 518.548v-6.214h6.213v-6.42h-5.54v4.31h-7.092v8.324h6.42z" class="fil5" id="_155786592" fill="#28ae66" fill-rule="nonzero"/><path d="M230.974 407.894v9.75h-7.087v4.31h-6.973v-7.847h6.214v-6.213h7.846z" class="fil4" id="_155786520" fill="#383739" fill-rule="nonzero"/><path d="M223.84 408.607v6.214h-6.212v6.42h5.54v-4.308h7.092v-8.325h-6.42z" class="fil5" id="_155786448" fill="#28ae66" fill-rule="nonzero"/><path d="M230.974 519.262v-9.75h-7.087v-4.31h-6.973v7.846h6.214v6.214h7.846z" class="fil4" id="_155786376" fill="#383739" fill-rule="nonzero"/><path d="M223.842 518.548v-6.214h-6.214v-6.42h5.54v4.31h7.093v8.324h-6.418z" class="fil5" id="_155786304" fill="#28ae66" fill-rule="nonzero"/><path d="M340.937 392.29l-5.413-5.255-5.317 4.927s4.166 4.043 4.634 4.5l-5.98 5.806h8.88l3.197-3.103 3.196 3.103h8.88l-5.982-5.807 4.635-4.498-5.316-4.927c-1.808 1.75-3.61 3.503-5.413 5.256z" class="fil4" id="_155786232" fill="#383739" fill-rule="nonzero"/><path d="M335.513 388.02l5.424 5.265 5.423-5.265c.42.387 3.805 3.524 4.27 3.954-.48.464-4.624 4.487-4.624 4.487l5.247 5.095h-6.83l-3.486-3.385-3.487 3.385h-6.83l5.246-5.094-4.622-4.486c.463-.43 3.85-3.567 4.27-3.954z" class="fil5" id="_155786160" fill="#28ae66" fill-rule="nonzero"/><path d="M314.703 392.29c-.45-.44-5.412-5.255-5.412-5.255l-5.316 4.927 4.635 4.5-5.984 5.806h8.88l3.197-3.103 3.196 3.103h8.88l-5.982-5.807 4.634-4.498-5.316-4.927c-1.806 1.75-3.61 3.503-5.413 5.256z" class="fil4" id="_155786088" fill="#383739" fill-rule="nonzero"/><path d="M309.28 388.02l5.423 5.265s4.98-4.836 5.424-5.265c.42.387 3.804 3.524 4.268 3.954-.48.464-4.622 4.487-4.622 4.487l5.247 5.095h-6.83l-3.487-3.385-3.486 3.385h-6.83l5.246-5.094-4.622-4.486c.465-.43 3.85-3.567 4.27-3.954z" class="fil5" id="_155786016" fill="#28ae66" fill-rule="nonzero"/><path d="M288.47 392.29l5.414-5.255 5.317 4.927s-4.166 4.043-4.634 4.5l5.982 5.806h-8.88l-3.197-3.103-3.195 3.103h-8.88l5.98-5.807c-.467-.455-4.633-4.498-4.633-4.498l5.317-4.927c1.805 1.75 3.607 3.503 5.41 5.256z" class="fil4" id="_155785944" fill="#383739" fill-rule="nonzero"/><path d="M293.895 388.02l-5.424 5.265-5.422-5.265c-.42.387-3.806 3.524-4.27 3.954.48.464 4.623 4.487 4.623 4.487l-5.246 5.095h6.83l3.487-3.385 3.487 3.385h6.83l-5.246-5.094s4.144-4.022 4.624-4.486c-.464-.43-3.85-3.567-4.27-3.954z" class="fil5" id="_155785872" fill="#28ae66" fill-rule="nonzero"/><path d="M340.937 534.865l-5.413 5.254-5.317-4.927s4.166-4.042 4.634-4.498l-5.98-5.807h8.88l3.197 3.103 3.196-3.102h8.88l-5.982 5.807 4.635 4.498-5.316 4.926c-1.808-1.75-3.61-3.503-5.413-5.255z" class="fil4" id="_155785800" fill="#383739" fill-rule="nonzero"/><path d="M335.513 539.136l5.424-5.266 5.423 5.266c.42-.388 3.805-3.525 4.27-3.954l-4.624-4.487 5.247-5.094h-6.83l-3.486 3.385-3.487-3.384h-6.83l5.246 5.095s-4.143 4.02-4.622 4.487l4.27 3.954z" class="fil5" id="_155785728" fill="#28ae66" fill-rule="nonzero"/><path d="M314.703 534.865c-.45.44-5.412 5.254-5.412 5.254l-5.316-4.927 4.635-4.498-5.984-5.807h8.88l3.197 3.103 3.196-3.102h8.88l-5.982 5.807 4.634 4.498-5.316 4.926c-1.806-1.75-3.61-3.503-5.413-5.255z" class="fil4" id="_155785656" fill="#383739" fill-rule="nonzero"/><path d="M309.28 539.136l5.423-5.266 5.424 5.266 4.268-3.954-4.622-4.487 5.247-5.094h-6.83l-3.487 3.385-3.486-3.384h-6.83l5.246 5.095s-4.143 4.02-4.622 4.487l4.27 3.954z" class="fil5" id="_155785584" fill="#28ae66" fill-rule="nonzero"/><path d="M288.47 534.865l5.414 5.254 5.317-4.927s-4.166-4.042-4.634-4.498l5.982-5.807h-8.88l-3.197 3.103-3.195-3.102h-8.88l5.98 5.807c-.467.456-4.633 4.498-4.633 4.498l5.317 4.926c1.805-1.75 3.607-3.503 5.41-5.255z" class="fil4" id="_155785512" fill="#383739" fill-rule="nonzero"/><path d="M293.895 539.136l-5.424-5.266-5.422 5.266-4.27-3.954 4.623-4.487-5.246-5.094h6.83l3.487 3.385 3.487-3.384h6.83l-5.246 5.095 4.624 4.487-4.27 3.954z" class="fil5" id="_155785440" fill="#28ae66" fill-rule="nonzero"/><path class="fil4" id="_155785368" fill="#383739" fill-rule="nonzero" d="M244.072 401.555v15.376h-20.898v93.295h20.898V525.6h141.26v-15.375h20.9V416.93h-20.9v-15.375z"/><path class="fil8" id="_155785296" fill="#ca3745" fill-rule="nonzero" d="M384.62 402.268v15.376h20.897v91.868H384.62v15.376H244.784v-15.376h-20.898v-91.868h20.898v-15.376z"/><path class="fil4" id="_155785224" fill="#383739" fill-rule="nonzero" d="M375.577 408.17H253.828v18.515H229.79v73.785h24.037v18.515h121.75V500.47h24.04v-73.785h-24.04z"/><path class="fil8" id="_155785152" fill="#ca3745" fill-rule="nonzero" d="M374.864 408.884V427.4h24.038v72.357h-24.038v18.515H254.54v-18.515h-24.037V427.4h24.037v-18.516z"/><path class="fil4" id="_155785080" fill="#383739" fill-rule="nonzero" d="M229.79 486.426l44.082 32.56h81.66l44.085-32.56V440.73l-44.084-32.56h-81.661l-44.083 32.56z"/><path d="M355.297 408.884c.188.138 43.32 31.994 43.605 32.206v44.975c-.286.213-43.417 32.068-43.605 32.207h-81.19c-.187-.14-43.318-31.994-43.604-32.207V441.09l43.604-32.206h81.19z" class="fil5" id="_155785008" fill="#28ae66" fill-rule="nonzero"/><path d="M364.045 418.093h-99.04v7.866h-12.66v75.237h12.66v7.864H364.4v-7.863h12.657V425.96H364.4v-7.867h-.357z" class="fil4" id="_155819744" fill="#383739" fill-rule="nonzero"/><path class="fil8" id="_155819672" fill="#ca3745" fill-rule="nonzero" d="M363.688 418.807v7.865h12.658v73.81h-12.658v7.866h-97.97v-7.865H253.06v-73.81h12.658v-7.866z"/><path class="fil4" id="_155819600" fill="#383739" fill-rule="nonzero" d="M255.436 490.964l21.545 18.097h75.444l21.544-18.096v-54.772l-21.544-18.1H276.98l-21.544 18.1z"/><path d="M352.163 418.807l21.09 17.716v54.11c-.25.208-20.893 17.55-21.09 17.715H277.24c-.195-.165-20.838-17.506-21.09-17.716v-54.11c.252-.21 20.895-17.55 21.09-17.715h74.923z" class="fil5" id="_155819528" fill="#28ae66" fill-rule="nonzero"/><path class="fil4" id="_155819456" fill="#383739" fill-rule="nonzero" d="M259.202 489.21l19.15 16.087h72.7l19.15-16.087v-51.264l-19.15-16.087H278.352l-19.15 16.086z"/><path d="M350.792 422.572l18.697 15.707v50.597c-.252.21-18.502 15.542-18.698 15.707h-72.18l-18.697-15.707V438.28l18.698-15.708h72.18z" class="fil8" id="_155819384" fill="#ca3745" fill-rule="nonzero"/><path class="fil4" id="_155819312" fill="#383739" fill-rule="nonzero" d="M287.037 418.807h55.33v-2.887l-5.817-5.014-5.463 4.707-5.46-4.707-5.463 4.707-5.462-4.707-5.462 4.707-5.462-4.707-5.46 4.707-5.463-4.707-5.818 5.014z"/><path class="fil8" id="_155819240" fill="#ca3745" fill-rule="nonzero" d="M341.654 418.093h-10.21v-1.846l5.106-4.4 5.104 4.4z"/><path class="fil6" id="_155819168" fill="#faae29" fill-rule="nonzero" d="M330.73 418.093h-10.21v-1.846l5.106-4.4 5.104 4.4z"/><path class="fil8" id="_155819096" fill="#ca3745" fill-rule="nonzero" d="M319.807 418.093h-10.21v-1.846l5.105-4.4 5.105 4.4z"/><path class="fil6" id="_155819024" fill="#faae29" fill-rule="nonzero" d="M308.884 418.093h-10.21v-1.846l5.104-4.4 5.106 4.4z"/><path class="fil8" id="_155818952" fill="#ca3745" fill-rule="nonzero" d="M297.96 418.093h-10.21v-1.846l5.105-4.4 5.106 4.4z"/><path class="fil4" id="_155818880" fill="#383739" fill-rule="nonzero" d="M235.874 474.5l4.706 5.463-4.706 5.462 5.013 5.818h12.174v-55.33h-12.173l-5.013 5.817 4.705 5.462-4.706 5.462 4.706 5.462-4.706 5.462 4.706 5.462z"/><path class="fil6" id="_155818808" fill="#faae29" fill-rule="nonzero" d="M241.214 490.53l-4.398-5.105 4.398-5.106h11.132v10.21z"/><path class="fil8" id="_155818736" fill="#ca3745" fill-rule="nonzero" d="M241.215 479.606l-4.4-5.105 4.4-5.104h11.13v10.21z"/><path class="fil6" id="_155818664" fill="#faae29" fill-rule="nonzero" d="M241.215 468.682l-4.4-5.104 4.4-5.105h11.13v10.21z"/><path class="fil8" id="_155818592" fill="#ca3745" fill-rule="nonzero" d="M241.215 457.76l-4.4-5.106 4.4-5.105h11.13v10.21z"/><path class="fil6" id="_155818520" fill="#faae29" fill-rule="nonzero" d="M241.214 446.836l-4.398-5.106 4.398-5.104h11.132v10.21z"/><path class="fil4" id="_155818448" fill="#383739" fill-rule="nonzero" d="M287.037 508.348h55.33v2.887l-5.817 5.015-5.463-4.707-5.46 4.706-5.463-4.708-5.462 4.707-5.462-4.708-5.462 4.707-5.46-4.707-5.463 4.707-5.818-5.015z"/><path class="fil8" id="_155818376" fill="#ca3745" fill-rule="nonzero" d="M341.654 509.06h-10.21v1.85l5.106 4.397 5.104-4.398z"/><path class="fil6" id="_155818304" fill="#faae29" fill-rule="nonzero" d="M330.73 509.06h-10.21v1.85l5.106 4.397 5.104-4.398z"/><path class="fil8" id="_155818232" fill="#ca3745" fill-rule="nonzero" d="M319.807 509.06h-10.21v1.85l5.105 4.397 5.105-4.398z"/><path class="fil6" id="_155818160" fill="#faae29" fill-rule="nonzero" d="M308.884 509.06h-10.21v1.85l5.104 4.397 5.106-4.398z"/><path class="fil8" id="_155818088" fill="#ca3745" fill-rule="nonzero" d="M297.96 509.06h-10.21v1.85l5.105 4.397 5.106-4.398z"/><path class="fil4" id="_155818016" fill="#383739" fill-rule="nonzero" d="M393.53 474.5l-4.705 5.463 4.706 5.462-5.012 5.818h-12.173v-55.33h12.173l5.013 5.817-4.705 5.462 4.706 5.462-4.705 5.462 4.706 5.462-4.705 5.462z"/><path class="fil6" id="_155817944" fill="#faae29" fill-rule="nonzero" d="M388.19 490.53l4.4-5.105-4.4-5.106h-11.13v10.21z"/><path class="fil8" id="_155817872" fill="#ca3745" fill-rule="nonzero" d="M388.19 479.606l4.4-5.105-4.4-5.104h-11.13v10.21z"/><path class="fil6" id="_155817800" fill="#faae29" fill-rule="nonzero" d="M388.19 468.682l4.4-5.104-4.4-5.105h-11.13v10.21z"/><path class="fil8" id="_155802624" fill="#ca3745" fill-rule="nonzero" d="M388.19 457.76l4.4-5.106-4.4-5.105h-11.13v10.21z"/><path class="fil6" id="_155802552" fill="#faae29" fill-rule="nonzero" d="M388.19 446.836l4.4-5.106-4.4-5.104h-11.13v10.21z"/><path class="fil3" id="_155802480" fill="#fff" d="M289.384 504.584l4.093-3.94 4.092 3.94z"/><path class="fil4" id="_155802408" fill="#383739" fill-rule="nonzero" d="M293.477 492.4l-4-3.2-4.01 1.73-.72 4.576 3.81 3.35-6.272 6.064h7.78l3.412-3.285 3.413 3.285h7.778l-6.272-6.063 3.81-3.352-.722-4.574-4.007-1.73z"/><path class="fil5" id="_155802336" fill="#28ae66" fill-rule="nonzero" d="M286.113 491.43l3.252-1.406 4.112 3.288.223-.178 3.888-3.11 3.253 1.406.6 3.8-4.096 3.602 5.95 5.752h-5.725l-4.093-3.94-4.093 3.94h-5.724l5.95-5.752-4.097-3.603z"/><path class="fil3" id="_155802264" fill="#fff" d="M310.61 504.584l4.093-3.94 4.093 3.94z"/><path class="fil4" id="_155802192" fill="#383739" fill-rule="nonzero" d="M314.703 492.4l-4-3.2-4.007 1.73-.722 4.576 3.81 3.35-6.272 6.064h7.778l3.413-3.285 3.413 3.285h7.78l-6.273-6.063 3.81-3.352-.72-4.574-4.01-1.73z"/><path class="fil5" id="_155802120" fill="#28ae66" fill-rule="nonzero" d="M307.34 491.43l3.252-1.406 4.11 3.288.224-.178 3.89-3.11 3.25 1.406.6 3.8-4.095 3.602 5.95 5.752h-5.724l-4.093-3.94-4.092 3.94h-5.724l5.95-5.752-4.095-3.603z"/><path class="fil3" id="_155802048" fill="#fff" d="M340.023 504.584l-4.092-3.94-4.092 3.94z"/><path class="fil4" id="_155801976" fill="#383739" fill-rule="nonzero" d="M335.93 492.4l4.002-3.2 4.007 1.73.72 4.576-3.81 3.35 6.273 6.064h-7.78l-3.412-3.285-3.412 3.285h-7.778l6.27-6.063-3.81-3.352.723-4.574 4.007-1.73z"/><path class="fil5" id="_155801904" fill="#28ae66" fill-rule="nonzero" d="M343.294 491.43l-3.252-1.406-4.11 3.288-.225-.178-3.888-3.11-3.253 1.406-.6 3.8 4.096 3.602-5.95 5.752h5.725l4.093-3.94 4.093 3.94h5.724l-5.948-5.752 4.094-3.603z"/><path class="fil3" id="_155801832" fill="#fff" d="M289.384 422.572l4.093 3.94 4.092-3.94z"/><path class="fil4" id="_155801760" fill="#383739" fill-rule="nonzero" d="M293.477 434.757l-4 3.2-4.01-1.733-.72-4.574 3.81-3.35-6.408-6.195h7.778l3.55 3.415 3.548-3.415h7.777l-6.407 6.194 3.81 3.35-.722 4.575-4.007 1.73z"/><path class="fil5" id="_155801688" fill="#28ae66" fill-rule="nonzero" d="M286.113 435.725l3.252 1.406 4.112-3.286.223.178 3.888 3.11 3.253-1.407.6-3.798-4.096-3.603 5.95-5.752h-5.725l-4.093 3.94-4.093-3.94h-5.724l5.95 5.752-4.097 3.602z"/><path class="fil3" id="_155801616" fill="#fff" d="M310.61 422.572l4.093 3.94 4.093-3.94z"/><path class="fil4" id="_155801544" fill="#383739" fill-rule="nonzero" d="M314.703 434.757l-4 3.2-4.007-1.733-.722-4.574 3.81-3.35-6.407-6.195h7.777l3.55 3.415 3.548-3.415h7.778l-6.407 6.194 3.81 3.35-.72 4.575-4.01 1.73z"/><path class="fil5" id="_155801472" fill="#28ae66" fill-rule="nonzero" d="M307.34 435.725l3.252 1.406 4.11-3.286.224.178 3.89 3.11 3.25-1.407.6-3.798-4.095-3.603 5.95-5.752h-5.724l-4.093 3.94-4.092-3.94h-5.724l5.95 5.752-4.095 3.602z"/><path class="fil3" id="_155801400" fill="#fff" d="M340.023 422.572l-4.092 3.94-4.092-3.94z"/><path class="fil4" id="_155801328" fill="#383739" fill-rule="nonzero" d="M335.93 434.757l4.002 3.2 4.007-1.733.72-4.574-3.81-3.35 6.408-6.195h-7.778l-3.55 3.415-3.547-3.415h-7.78l6.408 6.194-3.81 3.35.723 4.575 4.007 1.73z"/><path class="fil5" id="_155801256" fill="#28ae66" fill-rule="nonzero" d="M343.294 435.725l-3.252 1.406-4.11-3.286-.225.178-3.888 3.11-3.253-1.407-.6-3.798 4.096-3.603-5.95-5.752h5.725l4.093 3.94 4.093-3.94h5.724l-5.948 5.752 4.094 3.602z"/><path class="fil7" id="_155801184" fill="#fff" fill-rule="nonzero" d="M369.49 443.198v5.37h-.008l-3.24-2.68z"/><path d="M364.52 441.912c-.4-.36-3.372-3.052-3.372-3.052l-4.53.57-1.784 3.287 3.178 3.17-3.178 3.168 1.783 3.287 4.53.57 3.372-3.053 5.332 4.395v-6.307l-2.49-2.06 2.49-2.065v-5.64l-.402-.336-4.93 4.065z" class="fil4" id="_155801112" fill="#383739" fill-rule="nonzero"/><path d="M369.49 443.198l-3.248 2.69 3.247 2.686v4.457l-4.994-4.114-3.584 3.247-3.842-.483c-.143-.263-1.153-2.125-1.354-2.498l3.307-3.295-3.307-3.297c.2-.373 1.21-2.236 1.354-2.498l3.842-.484 3.584 3.248 4.993-4.114v4.456z" class="fil5" id="_155801040" fill="#28ae66" fill-rule="nonzero"/><path class="fil7" id="_155800968" fill="#fff" fill-rule="nonzero" d="M369.49 460.89v5.37h-.008l-3.24-2.68z"/><path d="M364.52 459.605c-.4-.36-3.372-3.052-3.372-3.052l-4.53.57-1.784 3.287 3.178 3.17-3.178 3.166 1.783 3.29 4.53.567 3.372-3.052 5.403 4.456v-6.308l-2.56-2.12 2.56-2.12v-6.31l-5.404 4.457z" class="fil4" id="_155800896" fill="#383739" fill-rule="nonzero"/><path d="M369.49 460.89l-3.248 2.69 3.247 2.685v4.458l-4.994-4.115-3.584 3.247c-.288-.036-3.523-.443-3.842-.482l-1.354-2.498 3.307-3.296s-2.973-2.965-3.307-3.3c.2-.37 1.21-2.234 1.354-2.497l3.842-.482 3.584 3.248 4.993-4.113v4.455z" class="fil5" id="_155800824" fill="#28ae66" fill-rule="nonzero"/><path class="fil7" id="_155800752" fill="#fff" fill-rule="nonzero" d="M369.49 483.958v-5.37h-.008l-3.24 2.68z"/><path d="M364.52 485.243c-.4.36-3.372 3.053-3.372 3.053l-4.53-.57-1.784-3.288 3.178-3.17-3.178-3.167 1.783-3.287 4.53-.57 3.372 3.053 5.403-4.454v6.307l-2.56 2.12 2.56 2.12v5.58l-.44.367-4.964-4.094z" class="fil4" id="_155800680" fill="#383739" fill-rule="nonzero"/><path d="M369.49 483.958l-3.248-2.69 3.247-2.686v-4.457l-4.994 4.115-3.584-3.248c-.288.036-3.523.444-3.842.483l-1.354 2.498 3.307 3.296-3.307 3.296c.2.372 1.21 2.235 1.354 2.498l3.842.483 3.584-3.247 4.993 4.114v-4.456z" class="fil5" id="_155768192" fill="#28ae66" fill-rule="nonzero"/><path class="fil7" id="_155768120" fill="#fff" fill-rule="nonzero" d="M259.92 443.198v5.37h.006l3.24-2.68z"/><path d="M264.89 441.912c.4-.36 3.37-3.052 3.37-3.052l4.53.57 1.785 3.287-3.18 3.17c.432.428 3.18 3.168 3.18 3.168l-1.784 3.287-4.53.57s-2.97-2.692-3.37-3.053l-5.33 4.393v-6.307l2.486-2.06-2.486-2.06v-5.717l.354-.3c1.66 1.37 3.316 2.735 4.976 4.102z" class="fil4" id="_155768048" fill="#383739" fill-rule="nonzero"/><path d="M259.92 443.198l3.245 2.69-3.246 2.686v4.457l4.993-4.114 3.583 3.247 3.843-.483 1.352-2.498-3.307-3.295 3.307-3.297c-.2-.373-1.21-2.236-1.353-2.498l-3.844-.484-3.583 3.248-4.994-4.114v4.456z" class="fil5" id="_155767976" fill="#28ae66" fill-rule="nonzero"/><path class="fil7" id="_155767904" fill="#fff" fill-rule="nonzero" d="M259.92 460.89v5.37h.006l3.24-2.68z"/><path d="M264.89 459.605c.4-.36 3.37-3.052 3.37-3.052l4.53.57 1.785 3.287-3.18 3.17c.432.428 3.18 3.166 3.18 3.166l-1.784 3.29-4.53.567-3.37-3.052-5.343 4.405v-6.307l2.5-2.07-2.5-2.07V455.2c1.78 1.468 3.56 2.937 5.343 4.405z" class="fil4" id="_155767832" fill="#383739" fill-rule="nonzero"/><path d="M259.92 460.89l3.245 2.69-3.246 2.685v4.458l4.993-4.115 3.583 3.247c.287-.036 3.523-.443 3.843-.482l1.352-2.498-3.307-3.296s2.973-2.965 3.307-3.3l-1.353-2.497-3.844-.482-3.583 3.248-4.994-4.113v4.455z" class="fil5" id="_155767760" fill="#28ae66" fill-rule="nonzero"/><path class="fil7" id="_155767688" fill="#fff" fill-rule="nonzero" d="M259.92 483.958v-5.37h.006l3.24 2.68z"/><path d="M264.89 485.243c.4.36 3.37 3.053 3.37 3.053l4.53-.57 1.785-3.288-3.18-3.17c.432-.428 3.18-3.167 3.18-3.167l-1.784-3.287-4.53-.57s-2.97 2.692-3.37 3.053l-5.343-4.404v6.307l2.5 2.07-2.5 2.07v5.665l.386.325c1.652-1.364 3.303-2.726 4.957-4.087z" class="fil4" id="_155767616" fill="#383739" fill-rule="nonzero"/><path d="M259.92 483.958l3.245-2.69-3.246-2.686v-4.457l4.993 4.115 3.583-3.248c.287.036 3.523.444 3.843.483l1.352 2.498-3.307 3.296 3.307 3.296c-.2.372-1.21 2.235-1.353 2.498l-3.844.483-3.583-3.247-4.994 4.114v-4.456z" class="fil5" id="_155767544" fill="#28ae66" fill-rule="nonzero"/><path class="fil4" id="_155767472" fill="#383739" fill-rule="nonzero" d="M332.857 475.8v-6.313h8.823v-11.82h-8.823v-6.312h-6.39v-6.92h-23.53v6.92h-6.39v6.313h-8.823v11.82h8.824v6.312h6.39v6.92h23.53v-6.92z"/><path class="fil6" id="_155767400" fill="#faae29" fill-rule="nonzero" d="M297.26 458.382v-6.312h6.39v-6.922h10.695v7.135l-10.114 5.75v5.188h-15.79v-4.838z"/><path class="fil6" id="_155767328" fill="#faae29" fill-rule="nonzero" d="M332.144 468.773v6.313h-6.39v6.922H315.06v-7.135l10.113-5.75v-5.188h15.794v4.838z"/><path class="fil7" id="_155767256" fill="#fff" fill-rule="nonzero" d="M332.144 452.07v6.312h8.823v4.84h-15.794v-5.19l-10.113-5.75v-7.134h10.695v6.922z"/><path class="fil7" id="_155767184" fill="#fff" fill-rule="nonzero" d="M303.65 475.086h-6.39v-6.313h-8.82v-4.838h15.79v5.188l10.115 5.75v7.135H303.65z"/><path class="fil2" id="_155767112" fill="#ca3745" d="M304.945 463.935v4.81l9.4 5.344v-10.155z"/><path class="fil1" id="_155767040" fill="#28ae66" d="M314.345 453.067l-9.4 5.344v4.81h9.4z"/><path class="fil2" id="_155766968" fill="#ca3745" d="M324.46 463.22v-4.81l-9.4-5.343v10.153z"/><path class="fil1" id="_155766896" fill="#28ae66" d="M315.06 474.09l9.4-5.346v-4.81h-9.4z"/></g><g id="_155698728" fill-rule="nonzero"><path class="fil4" id="_155766800" fill="#383739" d="M229.198 589v19.51h-18.592v17.696h-18.843v50.384h18.843v17.695h18.592v19.51h67.6l11.888 7.143-5.713 3.432H278.87l-2.08-2.345h21.844l-6.154-6.197h-31.248l14.158 14.74h29.302l10.01-6.015 10.01 6.014h29.304l14.157-14.74h-31.247l-6.155 6.198h21.847l-2.08 2.345H326.43l-5.712-3.432 11.89-7.143h67.6v-19.51h18.59V676.59h18.843v-50.384H418.8V608.51h-18.593V589h-67.6l-11.89-7.142 5.714-3.432h24.107l2.08 2.344H330.77l6.156 6.198h31.247l-14.157-14.74h-29.304l-10.01 6.015-10.01-6.015H275.39l-14.158 14.74h31.248l6.154-6.198H276.79l2.08-2.344h24.103l5.713 3.432L296.798 589z"/><path class="fil8" id="_155766728" fill="#ca3745" d="M418.085 626.92h18.843v48.957h-18.843v17.695h-18.59v19.51h-67.086l-13.076 7.856 6.9 4.146h24.623l3.345-3.772h-21.717l4.738-4.77h29.275l-12.785 13.312H324.91l-10.208-6.133-10.207 6.134h-28.8l-12.788-13.312h29.276l4.737 4.77h-21.718l3.346 3.772h24.624l6.9-4.146-13.076-7.856H229.91v-19.51h-18.59v-17.695h-18.843V626.92h18.843v-17.696h18.59v-19.51h67.086l13.075-7.856-6.898-4.146h-24.624l-3.346 3.773h21.718l-4.737 4.77h-29.276l12.787-13.312h28.8l10.208 6.133 10.208-6.133h28.803l12.785 13.31h-29.275l-4.738-4.768h21.717l-3.345-3.773h-24.624l-6.9 4.146 13.076 7.856h67.084v19.51h18.59z"/><path class="fil4" id="_155766656" fill="#383739" d="M314.702 718.155l20.112-12.085h57.668v-19.508h18.593v-17.697h18.842V633.93h-18.842v-17.696h-18.593v-19.508h-57.668l-20.112-12.085-20.11 12.086h-57.67v19.508H218.33v17.697h-18.842v34.935h18.842v17.697h18.592v19.508h57.67z"/><path class="fil6" id="_155766584" fill="#faae29" d="M391.77 685.848v19.51h-57.154l-19.914 11.965-19.913-11.966h-57.155v-19.51h-18.592v-17.695H200.2v-33.508h18.843v-17.696h18.592v-19.51h57.155l19.912-11.964 19.914 11.965h57.153v19.508h18.59v17.696h18.843v33.508H410.36v17.696z"/><path class="fil4" id="_155766512" fill="#383739" d="M314.702 712.446l18.756-11.268h54.13v-19.51h18.593v-17.696h18.844v-25.148H406.18v-17.696h-18.59v-19.51h-54.132l-18.756-11.268-18.754 11.27h-54.133v19.508h-18.59v17.696H204.38v25.148h18.844v17.696h18.59v19.51h54.134z"/><path class="fil5" id="_155766440" fill="#28ae66" d="M386.876 680.955v19.51H333.26l-18.558 11.15-18.557-11.15H242.53v-19.51h-18.593v-17.697h-18.843v-23.72h18.843V621.84h18.593v-19.508h53.615l18.557-11.15 18.557 11.15h53.616v19.51h18.59v17.696h18.844v23.72h-18.843v17.697z"/><path class="fil4" id="_155766368" fill="#383739" d="M249.55 674.12V693h29.47l-29.47-19.548z"/><path class="fil8" id="_155766296" fill="#ca3745" d="M250.262 674.784l26.392 17.504h-26.392z"/><path class="fil4" id="_155749368" fill="#383739" d="M333.77 672.685v-9.642h-3.29l-15.778-9.866-.19.118-15.588 9.748h-3.29v9.642h-9.354v10.356h9.355v9.643h3.29l15.777 9.867 15.78-9.867h3.288v-9.642h9.356v-10.355z"/><path d="M314.702 654.018l14.433 9.025H300.27l14.432-9.025zm14.432 38.665l-14.432 9.024-14.43-9.024h28.862z" class="fil6" id="_155749296" fill="#faae29"/><path class="fil8" id="_155749224" fill="#ca3745" d="M333.057 683.04v8.93H315.06v-8.93z"/><path class="fil8" id="_155749152" fill="#ca3745" d="M314.346 683.04v8.93h-17.998v-8.93z"/><path class="fil8" id="_155749080" fill="#ca3745" d="M342.412 673.398v8.93h-17.998v-8.93z"/><path class="fil8" id="_155749008" fill="#ca3745" d="M323.702 673.398v8.93h-18v-8.93z"/><path class="fil8" id="_155748936" fill="#ca3745" d="M304.99 673.398v8.93h-17.997v-8.93z"/><path class="fil8" id="_155748864" fill="#ca3745" d="M333.057 663.756v8.93H315.06v-8.93z"/><path class="fil8" id="_155748792" fill="#ca3745" d="M314.346 663.756v8.93h-17.998v-8.93z"/><path class="fil4" id="_155748720" fill="#383739" d="M287.14 646.22v-9.643h-3.288l-15.78-9.865-.188.118-15.59 9.747h-3.29v9.643h-7.417v10.357h7.418v9.642h3.29l15.778 9.864 15.78-9.865h3.288v-9.643h11.293V646.22z"/><path d="M268.073 627.554l14.433 9.023H253.64l14.433-9.023zm14.43 38.665l-14.43 9.022-14.43-9.023h28.86z" class="fil8" id="_155748648" fill="#ca3745"/><path class="fil6" id="_155748576" fill="#faae29" d="M286.427 656.576v8.93H268.43v-8.93z"/><path class="fil6" id="_155748504" fill="#faae29" d="M267.717 656.576v8.93H249.72v-8.93z"/><path class="fil6" id="_155748432" fill="#faae29" d="M297.72 646.934v8.93h-17.998v-8.93z"/><path class="fil8" id="_155748360" fill="#ca3745" d="M279.01 646.934v8.93h-18v-8.93z"/><path class="fil6" id="_155748288" fill="#faae29" d="M260.3 646.934v8.93h-18v-8.93z"/><path class="fil6" id="_155748216" fill="#faae29" d="M286.427 637.292v8.928H268.43v-8.928z"/><path class="fil6" id="_155748144" fill="#faae29" d="M267.717 637.292v8.928H249.72v-8.928z"/><path class="fil4" id="_155748072" fill="#383739" d="M342.263 646.22v-9.643h3.29l15.78-9.865.188.118 15.59 9.747h3.29v9.643h7.418v10.357H380.4v9.642h-3.29l-15.777 9.864-15.78-9.865h-3.29v-9.643H330.97V646.22z"/><path d="M361.333 627.554l-14.434 9.023h28.864l-14.43-9.023zM346.9 666.22l14.433 9.022 14.43-9.023H346.9z" class="fil8" id="_155748000" fill="#ca3745"/><path class="fil6" id="_155747928" fill="#faae29" d="M342.978 656.576v8.93h17.997v-8.93z"/><path class="fil6" id="_155747856" fill="#faae29" d="M361.687 656.576v8.93h17.998v-8.93z"/><path class="fil6" id="_155747784" fill="#faae29" d="M331.684 646.934v8.93h17.998v-8.93z"/><path class="fil8" id="_155747712" fill="#ca3745" d="M350.396 646.934v8.93h17.997v-8.93z"/><path class="fil6" id="_155747640" fill="#faae29" d="M369.106 646.934v8.93h17.997v-8.93z"/><path class="fil6" id="_155747568" fill="#faae29" d="M342.978 637.292v8.928h17.997v-8.928z"/><path class="fil6" id="_155747496" fill="#faae29" d="M361.687 637.292v8.928h17.998v-8.928z"/><path class="fil4" id="_155747424" fill="#383739" d="M333.77 630.11v9.643h-3.29l-15.778 9.866-.19-.12-15.588-9.747h-3.29v-9.642h-9.354v-10.355h9.355v-9.642h3.29l15.777-9.867 15.78 9.867h3.288v9.642h9.356v10.356z"/><path d="M314.702 648.778l14.433-9.025H300.27l14.432 9.025zm14.432-38.665l-14.432-9.025-14.43 9.025h28.862z" class="fil6" id="_155734872" fill="#faae29"/><path class="fil8" id="_155734800" fill="#ca3745" d="M333.057 619.755v-8.93H315.06v8.93z"/><path class="fil8" id="_155734728" fill="#ca3745" d="M314.346 619.755v-8.93h-17.998v8.93z"/><path class="fil8" id="_155734656" fill="#ca3745" d="M342.412 629.398v-8.93h-17.998v8.93z"/><path class="fil8" id="_155734584" fill="#ca3745" d="M323.702 629.398v-8.93h-18v8.93z"/><path class="fil8" id="_155734512" fill="#ca3745" d="M304.99 629.398v-8.93h-17.997v8.93z"/><path class="fil8" id="_155734440" fill="#ca3745" d="M333.057 639.04v-8.93H315.06v8.93z"/><path class="fil8" id="_155734368" fill="#ca3745" d="M314.346 639.04v-8.93h-17.998v8.93z"/><path class="fil4" id="_155734296" fill="#383739" d="M249.55 628.677v-18.884h29.47l-29.47 19.548z"/><path d="M250.262 628.012l26.392-17.504h-26.392v17.504z" class="fil8" id="_155734224" fill="#ca3745"/><path class="fil4" id="_155734152" fill="#383739" d="M379.856 674.12V693h-29.472l29.472-19.548z"/><path d="M379.143 674.784c-1.027.68-24.594 16.31-26.39 17.504h26.39v-17.504z" class="fil8" id="_155734080" fill="#ca3745"/><path class="fil4" id="_155734008" fill="#383739" d="M379.856 628.677v-18.884h-29.472l29.472 19.548z"/><path d="M379.143 628.01c-1.027-.68-24.594-16.31-26.39-17.503h26.39v17.504z" class="fil8" id="_155733936" fill="#ca3745"/><path class="fil4" id="_155733864" fill="#383739" d="M255.343 648.918v4.96h-8.085v-4.96z"/><path class="fil7" id="_155733792" fill="#fff" d="M254.58 649.68h-6.56v3.438h6.56z"/><path class="fil4" id="_155733720" fill="#383739" d="M262.76 639.275v4.96h-8.084v-4.96z"/><path class="fil7" id="_155733648" fill="#fff" d="M262 640.036h-6.563v3.44H262z"/><path class="fil4" id="_155733576" fill="#383739" d="M281.47 639.275v4.96h-8.083v-4.96z"/><path class="fil7" id="_155733504" fill="#fff" d="M280.71 640.036h-6.562v3.44h6.562z"/><path class="fil4" id="_155733432" fill="#383739" d="M274.053 648.918v4.96h-8.084v-4.96z"/><path class="fil7" id="_155733360" fill="#fff" d="M273.292 649.68h-6.562v3.438h6.562z"/><path class="fil4" id="_155733288" fill="#383739" d="M292.764 648.918v4.96h-8.085v-4.96z"/><path class="fil7" id="_155733216" fill="#fff" d="M292.002 649.68h-6.562v3.438h6.562z"/><path class="fil4" id="_155733144" fill="#383739" d="M281.47 658.56v4.96h-8.083v-4.96z"/><path class="fil7" id="_155733072" fill="#fff" d="M280.71 659.32h-6.562v3.44h6.562z"/><path class="fil4" id="_155733000" fill="#383739" d="M262.76 658.56v4.96h-8.084v-4.96z"/><path class="fil7" id="_155732928" fill="#fff" d="M262 659.32h-6.563v3.44H262z"/><path class="fil4" id="_155727696" fill="#383739" d="M309.39 612.81v4.96h-8.084v-4.96z"/><path class="fil7" id="_155727624" fill="#fff" d="M308.63 613.57h-6.563v3.44h6.562z"/><path class="fil4" id="_155727552" fill="#383739" d="M328.1 612.81v4.96h-8.084v-4.96z"/><path class="fil7" id="_155727480" fill="#fff" d="M327.34 613.57h-6.563v3.44h6.562z"/><path class="fil4" id="_155727408" fill="#383739" d="M300.034 622.453v4.96h-8.085v-4.96z"/><path class="fil7" id="_155727336" fill="#fff" d="M299.272 623.214h-6.56v3.44h6.56z"/><path class="fil4" id="_155727264" fill="#383739" d="M318.745 622.453v4.96h-8.084v-4.96z"/><path class="fil7" id="_155727192" fill="#fff" d="M317.984 623.214h-6.562v3.44h6.562z"/><path class="fil4" id="_155727120" fill="#383739" d="M337.456 622.453v4.96h-8.085v-4.96z"/><path class="fil7" id="_155727048" fill="#fff" d="M336.695 623.214h-6.562v3.44h6.562z"/><path class="fil4" id="_155726976" fill="#383739" d="M309.39 632.095v4.96h-8.084v-4.96z"/><path class="fil7" id="_155726904" fill="#fff" d="M308.63 632.856h-6.563v3.44h6.562z"/><path class="fil4" id="_155726832" fill="#383739" d="M328.1 632.095v4.96h-8.084v-4.96z"/><path class="fil7" id="_155726760" fill="#fff" d="M327.34 632.856h-6.563v3.44h6.562z"/><path class="fil4" id="_155714360" fill="#383739" d="M356.018 639.275v4.96h-8.084v-4.96z"/><path class="fil7" id="_155714288" fill="#fff" d="M355.257 640.036h-6.562v3.44h6.562z"/><path class="fil4" id="_155714216" fill="#383739" d="M374.73 639.275v4.96h-8.085v-4.96z"/><path class="fil7" id="_155714144" fill="#fff" d="M373.968 640.036h-6.562v3.44h6.562z"/><path class="fil4" id="_155714072" fill="#383739" d="M344.726 648.918v4.96h-8.084v-4.96z"/><path class="fil7" id="_155714000" fill="#fff" d="M343.965 649.68h-6.562v3.438h6.562z"/><path class="fil4" id="_155713928" fill="#383739" d="M363.437 648.918v4.96h-8.085v-4.96z"/><path class="fil7" id="_155713856" fill="#fff" d="M362.675 649.68h-6.562v3.438h6.562z"/><path class="fil4" id="_155713784" fill="#383739" d="M382.147 648.918v4.96h-8.084v-4.96z"/><path class="fil7" id="_155713712" fill="#fff" d="M381.386 649.68h-6.562v3.438h6.562z"/><path class="fil4" id="_155713640" fill="#383739" d="M356.018 658.56v4.96h-8.084v-4.96z"/><path class="fil7" id="_155713568" fill="#fff" d="M355.257 659.32h-6.562v3.44h6.562z"/><path class="fil4" id="_155713496" fill="#383739" d="M374.73 658.56v4.96h-8.085v-4.96z"/><path class="fil7" id="_155713424" fill="#fff" d="M373.968 659.32h-6.562v3.44h6.562z"/><path class="fil4" id="_155708192" fill="#383739" d="M309.39 665.74v4.96h-8.084v-4.96z"/><path class="fil7" id="_155708120" fill="#fff" d="M308.63 666.5h-6.563v3.44h6.562z"/><path class="fil4" id="_155708048" fill="#383739" d="M328.1 665.74v4.96h-8.084v-4.96z"/><path class="fil7" id="_155707976" fill="#fff" d="M327.34 666.5h-6.563v3.44h6.562z"/><path class="fil4" id="_155707904" fill="#383739" d="M300.034 675.382v4.96h-8.085v-4.96z"/><path class="fil7" id="_155707832" fill="#fff" d="M299.272 676.143h-6.56v3.44h6.56z"/><path class="fil4" id="_155707760" fill="#383739" d="M318.745 675.382v4.96h-8.084v-4.96z"/><path class="fil7" id="_155707688" fill="#fff" d="M317.984 676.143h-6.562v3.44h6.562z"/><path class="fil4" id="_155707616" fill="#383739" d="M337.456 675.382v4.96h-8.085v-4.96z"/><path class="fil7" id="_155707544" fill="#fff" d="M336.695 676.143h-6.562v3.44h6.562z"/><path class="fil4" id="_155707472" fill="#383739" d="M309.39 685.024v4.96h-8.084v-4.96z"/><path class="fil7" id="_155707400" fill="#fff" d="M308.63 685.785h-6.563v3.44h6.562z"/><path class="fil4" id="_155707328" fill="#383739" d="M328.1 685.024v4.96h-8.084v-4.96z"/><path class="fil7" id="_155698752" fill="#fff" d="M327.34 685.785h-6.563v3.44h6.562z"/></g><g id="_155661568" fill-rule="nonzero"><path class="fil4" id="_155698656" fill="#383739" d="M416.81 860.27l-70.022 37.683h-64.172l-70.02-37.683v-62.092l70.02-37.683h64.172l70.02 37.683z"/><path class="fil5" id="_155698584" fill="#28ae66" d="M346.608 897.24l69.487-37.396v-61.24l-69.487-37.395h-63.812l-69.486 37.394v61.24l69.486 37.396z"/><path class="fil4" id="_155698512" fill="#383739" d="M411.147 856.856l-65.778 35.4h-61.334l-65.78-35.4v-55.264l65.78-35.4H345.37l65.777 35.4z"/><path class="fil6" id="_155698440" fill="#faae29" d="M410.434 856.43v-26.85H315.06v61.962h30.13z"/><path class="fil6" id="_155698368" fill="#faae29" d="M218.97 828.867h95.375v-61.96h-30.13l-65.244 35.11z"/><path class="fil7" id="_155698296" fill="#fff" d="M284.216 891.542h30.13v-61.96H218.97v26.848z"/><path class="fil7" id="_155698224" fill="#fff" d="M410.434 802.018l-65.244-35.11h-30.13v61.96h95.374z"/><path class="fil4" id="_155698152" fill="#383739" d="M345.232 854.262l-18.75 11.896v12.86l12.296 9.014h-18.22v-18.115l-5.857 3.716-5.856-3.716v18.115h-18.22l12.294-9.015v-12.86l-18.748-11.895h-13.1v-50.074h13.1l18.748-11.896v-12.86l-12.293-9.015h18.22v18.116l5.856-3.716 5.858 3.716v-18.116h18.22l-12.295 9.016v12.86l18.75 11.895h13.1v50.074z"/><path class="fil6" id="_155698080" fill="#faae29" d="M345.025 804.9l-19.255-12.216V779.07l10.828-7.938H321.27v18.7l-6.21-3.943v42.977h42.56V804.9z"/><path class="fil6" id="_155698008" fill="#faae29" d="M284.377 853.55l19.254 12.215v13.613l-10.825 7.94h15.325V868.62l6.215 3.943V829.58h-42.563v23.97z"/><path class="fil7" id="_155697936" fill="#fff" d="M321.27 887.32H336.6l-10.828-7.942v-13.613l19.255-12.216h12.594v-23.97h-42.56v42.98l6.21-3.94z"/><path class="fil7" id="_155697864" fill="#fff" d="M303.63 792.684L284.377 804.9h-12.594v23.967h42.563v-42.98l-6.215 3.944v-18.698h-15.325l10.826 7.94z"/><path class="fil4" id="_155697792" fill="#383739" d="M343.726 809.433h9.395v39.585h-9.394L314.7 867.433l-29.025-18.415h-9.395v-39.585h9.395l29.026-18.416.192.12z"/><path class="fil8" id="_155674840" fill="#ca3745" d="M343.52 810.146l-28.82-18.284-28.818 18.284h-8.888v38.158h8.888l28.82 18.284 28.817-18.284h8.888v-38.158h-8.785z"/><path class="fil4" id="_155674768" fill="#383739" d="M322.325 810.95v2.646h3.328v5.292h-8.592v-13.23h19.524v9.208h9.483v13.495h-9.893v-5.29h4.63v-2.91h-6.155l-14.88 9.065 14.88 9.068h6.153v-2.91h-4.63v-5.293h9.894v13.496h-9.484v9.207h-19.522v-13.23h8.593v5.293h-3.328v2.645h8.995v-5.057l-16.62-10.128-16.617 10.128v5.057h8.993v-2.645h-3.328v-5.292h8.592v13.23h-19.52v-9.208h-9.486V830.09h9.894v5.292h-4.63v2.91h6.154l14.88-9.067-14.88-9.066h-6.154v2.91h4.63v5.29h-9.894v-13.494h9.485v-9.208h19.52v13.23h-8.592v-5.292h3.328v-2.646h-8.993v5.06l16.618 10.126 16.62-10.127v-5.06z"/><path class="fil7" id="_155674696" fill="#fff" d="M287.885 834.668h4.63v-3.865h-8.466v12.07h9.482v9.206h18.095v-11.804h-7.164v3.865h3.328v4.074H297.37v-6.173l17.333-10.56 17.333 10.562v6.173H321.61v-4.073h3.33v-3.865h-7.166v11.802h18.095v-9.208h9.483v-12.068h-8.466v3.864h4.63v4.338h-7.067l-16.05-9.78 16.05-9.782h7.067v4.338h-4.63v3.866h8.466v-12.07h-9.483v-9.206h-18.095v11.803h7.165v-3.866h-3.328v-4.073h10.42v6.172l-17.33 10.56-17.334-10.56v-6.173h10.423v4.072h-3.327v3.865h7.164v-11.803h-18.095v9.207h-9.483v12.068h8.464v-3.866h-4.63v-4.338h7.068l16.05 9.78-16.05 9.782h-7.067z"/><path class="fil4" id="_155674624" fill="#383739" d="M379.63 832.363v6.917h8.403v-6.917h8.334v19.585h-8.334v-6.916h-8.402v6.916h-8.333v-19.585z"/><path class="fil4" id="_155674552" fill="#383739" d="M349.808 858.363v6.918h8.4v-6.917h8.336v19.585h-8.335v-6.917h-8.402v6.918h-8.334v-19.585z"/><path class="fil4" id="_155674480" fill="#383739" d="M379.63 826.084v-6.916h8.403v6.916h8.334V806.5h-8.334v6.916h-8.402V806.5h-8.333v19.584z"/><path class="fil4" id="_155674408" fill="#383739" d="M249.773 832.363v6.917h-8.4v-6.917h-8.336v19.585h8.335v-6.916h8.4v6.916h8.335v-19.585z"/><path class="fil4" id="_155674336" fill="#383739" d="M249.773 826.084v-6.916h-8.4v6.916h-8.336V806.5h8.335v6.916h8.4V806.5h8.335v19.584z"/><path class="fil4" id="_155674264" fill="#383739" d="M349.808 800.085v-6.917h8.4v6.917h8.336V780.5h-8.335v6.916h-8.402V780.5h-8.334v19.585z"/><path class="fil4" id="_155674192" fill="#383739" d="M279.596 858.363v6.918h-8.4v-6.917h-8.335v19.585h8.335v-6.917h8.4v6.918h8.335v-19.585z"/><path class="fil4" id="_155674120" fill="#383739" d="M279.596 800.085v-6.917h-8.4v6.917h-8.335V780.5h8.335v6.916h8.4V780.5h8.335v19.585z"/><path class="fil8" id="_155674048" fill="#ca3745" d="M372.01 833.078v18.157h6.907v-6.917h9.83v6.917h6.906v-18.157h-6.907v6.916h-9.83v-6.916z"/><path class="fil8" id="_155673976" fill="#ca3745" d="M342.188 859.077v18.157h6.907v-6.916h9.83v6.916h6.905v-18.157h-6.906v6.917h-9.83v-6.917z"/><path class="fil8" id="_155662528" fill="#ca3745" d="M372.01 825.37v-18.156h6.907v6.916h9.83v-6.916h6.906v18.157h-6.907v-6.917h-9.83v6.918z"/><path class="fil8" id="_155662456" fill="#ca3745" d="M257.394 833.078v18.157h-6.907v-6.917h-9.83v6.917h-6.905v-18.157h6.906v6.916h9.83v-6.916z"/><path class="fil8" id="_155662384" fill="#ca3745" d="M257.394 825.37v-18.156h-6.907v6.916h-9.83v-6.916h-6.905v18.157h6.906v-6.917h9.83v6.918z"/><path class="fil8" id="_155662312" fill="#ca3745" d="M342.188 799.37v-18.157h6.907v6.918h9.83v-6.917h6.905v18.158h-6.906v-6.916h-9.83v6.917z"/><path class="fil8" id="_155662240" fill="#ca3745" d="M287.217 859.077v18.157h-6.908v-6.916h-9.83v6.916h-6.906v-18.157h6.906v6.917h9.83v-6.917z"/><path class="fil8" id="_155662168" fill="#ca3745" d="M287.217 799.37v-18.157h-6.908v6.918h-9.83v-6.917h-6.906v18.158h6.906v-6.916h9.83v6.917z"/><path class="fil4" id="_155662096" fill="#383739" d="M399.153 801.23l-27.636-14.872v14.873z"/><path class="fil9" id="_155662024" d="M230.25 857.216l27.637 14.873v-14.874z"/><path class="fil9" id="_155661952" d="M230.25 801.23l27.637-14.872v14.873z"/><path class="fil4" id="_155661880" fill="#383739" d="M399.153 857.216l-27.636 14.873v-14.874z"/><path class="fil6" id="_155661808" fill="#faae29" d="M372.23 800.518v-12.965l24.092 12.965z"/><path class="fil6" id="_155661736" fill="#faae29" d="M257.174 857.93v12.965l-24.09-12.966z"/><path class="fil7" id="_155661664" fill="#fff" d="M257.174 800.518v-12.965l-24.09 12.965z"/><path class="fil7" id="_155661592" fill="#fff" d="M372.23 857.93v12.965l24.092-12.966z"/></g><g id="олива" fill="#faae29" fill-rule="nonzero"><path d="M201.71 883.882c1.33 5.674 5.842 9.956 6.917 15.84 2.152-6.135 4.136-11.278 2.655-17.99-1.06-4.8-5.1-8.224-5.566-13.157-4.403 3.958-5.35 9.573-4.005 15.307zm-1.115 23.772c3.734 5.12 8.925 9.048 14.658 11.666-1.13-4.485.99-7.862 3.34-11.422 2.832-4.286 4.213-8.496 1.904-13.432-1.076 2.566-2.522 4.697-4.218 6.89-2.51 3.424-4.16 6.467-4.546 10.857-2.9-2.15-4.176-5.36-5.727-8.468-2.365-4.45-6.182-8.172-10.566-10.604 1.166 4.993 2.064 10.272 5.155 14.514zm20.944 15.262c-.8 2.843-1.488 5.662-1.334 8.635-2.467-2.658-5.744-4.66-8.668-6.8-3.98-3.22-8.62-5.492-11.876-9.592.485 6.034 3.068 10.954 7.97 14.625 5.184 3.88 11.435 5.966 16.54 10.04-.764-5.49 1.252-9.886 2.972-14.93 1.433-4.82.046-9.715-3.223-13.39.05 4.074-1.235 7.57-2.38 11.413zm11.63 18.537c1.075 4.164 4.058 7.55 6.096 11.264-5.493-1.703-10.34-4.683-15.305-7.486-5.914-3.22-12.336-5.27-17.69-9.52 2.665 9.864 9.27 15.582 18.93 18.5 6.606 1.994 12.172 1 20.188 4.238-.92-5.426-2.54-11.283-5.104-16.175-1.992-3.54-4.2-7.03-5.43-10.926-1.78 3.2-2.624 6.458-1.683 10.106zm20.213 15.095c1.892 3.24 4.388 5.967 7.484 8.118-7.797.496-14.072-4.445-21.674-4.66-4.696-.132-9.154 1.326-13.942.888 5.683 3.835 11.633 7.183 18.55 8.078 8.995 1.163 17.29-1.1 27.21-.215-4.636-3.272-6.956-7.652-9.846-12.362-3.763-5.88-7.315-10.073-14.635-11.02 2.937 3.304 4.647 7.395 6.853 11.173zm27.693 12.943c-13.737 2.336-26.9 5.358-40.93 5.497 15.704 5.475 30.5 6.465 46.077.812 8.417-3.056 14.87-4.69 21.228-4.236 9.29.668 20.582 4.333 33.077 17.512l4.91-3.93c-17.91-15.956-41.34-19.57-64.36-15.655z" class="fil6" id="_155640120"/><path d="M427.76 883.882c-1.33 5.674-5.84 9.956-6.915 15.84-2.152-6.135-4.135-11.278-2.654-17.99 1.06-4.8 5.1-8.224 5.566-13.157 4.403 3.958 5.35 9.573 4.005 15.307zm1.117 23.772c-3.734 5.12-8.925 9.048-14.657 11.666 1.128-4.485-.99-7.862-3.34-11.422-2.833-4.286-4.214-8.496-1.905-13.432 1.076 2.566 2.523 4.697 4.218 6.89 2.51 3.424 4.16 6.467 4.545 10.857 2.9-2.15 4.177-5.36 5.727-8.468 2.365-4.45 6.182-8.172 10.566-10.604-1.164 4.993-2.06 10.272-5.153 14.514zm-20.944 15.262c.798 2.843 1.488 5.662 1.333 8.635 2.468-2.658 5.744-4.66 8.668-6.8 3.982-3.22 8.622-5.492 11.877-9.592-.485 6.034-3.068 10.954-7.97 14.625-5.184 3.88-11.435 5.966-16.54 10.04.765-5.49-1.252-9.886-2.972-14.93-1.43-4.82-.046-9.715 3.223-13.39-.047 4.074 1.237 7.57 2.383 11.413zM396.3 941.453c-1.073 4.164-4.056 7.55-6.093 11.264 5.492-1.703 10.34-4.683 15.304-7.486 5.916-3.22 12.338-5.27 17.693-9.52-2.666 9.864-9.27 15.582-18.93 18.5-6.606 1.994-12.173 1-20.19 4.238.92-5.426 2.54-11.283 5.106-16.175 1.99-3.54 4.2-7.03 5.427-10.926 1.782 3.2 2.625 6.458 1.684 10.106zm-20.21 15.095c-1.892 3.24-4.39 5.967-7.484 8.118 7.796.496 14.073-4.445 21.673-4.66 4.695-.132 9.153 1.326 13.942.888-5.683 3.835-11.633 7.183-18.55 8.078-8.995 1.163-17.29-1.1-27.21-.215 4.636-3.272 6.956-7.652 9.846-12.362 3.763-5.88 7.315-10.073 14.636-11.02-2.94 3.304-4.65 7.395-6.855 11.173zm-27.694 12.943c13.737 2.336 26.9 5.358 40.93 5.497-15.704 5.475-30.5 6.465-46.077.812-8.418-3.056-14.872-4.69-21.23-4.236-9.29.668-20.58 4.333-33.075 17.512l-4.91-3.93c17.91-15.956 41.34-19.57 64.36-15.655z" class="fil6" id="_155640048"/></g><g id="_155639520" fill-rule="nonzero"><path class="fil4" id="_155639904" fill="#383739" d="M200.365 219.1l5.124 4.773-25.66 23.905v-9.763l15.18-14.142-5.123-4.774 10.807-10.067-4.708-4.386v6.283h-9.313v-7.516l20.955-19.522h10.532l1.207 6.904h-6.112l6.63 6.174 16.56-15.125-16.56-15.125-6.63 6.176h6.112l-1.207 6.902h-10.532l-20.955-19.52v-7.518h9.313v6.284l4.708-4.386-10.807-10.067 5.124-4.773-15.18-14.142v-9.762l25.66 23.904-5.125 4.774 10.806 10.068-9.275 8.64 6.137 5.716 11.807-11 25.926 23.83-25.927 23.834-11.808-11.002-6.137 5.717 9.276 8.64z"/><path class="fil6" id="_155639832" fill="#faae29" d="M211.424 173.602l8.454-7.877 17.65 16.12-17.65 16.12-8.454-7.876h7.052l-.96-5.49h-9.574l-20.51 19.106v6.518h7.795v-7.282l6.54 6.09L190.96 219.1l5.124 4.773-16.256 15.143v7.764l24.588-22.907-5.123-4.774 10.805-10.067-9.276-8.64 7.21-6.716 11.81 11.004 24.844-22.835-24.843-22.836-11.81 11.003-7.21-6.715 9.275-8.64-10.805-10.067 5.123-4.773-24.588-22.906v7.765l16.256 15.142-5.123 4.774 10.806 10.068-6.54 6.09v-7.28h-7.795v6.517l20.512 19.107h9.574l.96-5.49z"/><path class="fil4" id="_155639760" fill="#383739" d="M229.055 181.53l-5.47 5.093-.89-5.093.89-5.095z"/><path class="fil6" id="_155639688" fill="#faae29" d="M224.097 177.91l-.635 3.62.635 3.618 3.885-3.618z"/><path class="fil4" id="_155639616" fill="#383739" d="M192.172 187.003l5.138-5.15-5.138-5.164h-6.312v-7.23l-6.032-6.032v36.836l6.032-6.032v-7.23z"/><path class="fil6" id="_155639544" fill="#faae29" d="M191.875 177.403l4.428 4.45-4.428 4.437h-6.728v7.647l-5.32 5.318v-34.817l5.32 5.32v7.645z"/></g><g id="_155634008" fill-rule="nonzero"><path class="fil4" id="_155639448" fill="#383739" d="M200.365 406.92l5.124 4.774-25.66 23.905v-9.764l15.18-14.142-5.123-4.773 10.807-10.066-4.708-4.386v6.284h-9.313v-7.516l20.955-19.522h10.532l1.207 6.903h-6.112l6.63 6.175 16.56-15.125-16.56-15.125-6.63 6.175h6.112l-1.207 6.903h-10.532l-20.955-19.52v-7.518h9.313v6.283l4.708-4.386-10.807-10.067 5.124-4.774-15.18-14.144v-9.762l25.66 23.905-5.125 4.773 10.806 10.066-9.275 8.64 6.137 5.716 11.807-11 25.926 23.83L219.84 393.5l-11.808-11.002-6.137 5.716 9.276 8.64z"/><path class="fil6" id="_155639376" fill="#faae29" d="M211.424 361.423l8.454-7.876 17.65 16.12-17.65 16.12-8.454-7.877h7.052l-.96-5.49h-9.574l-20.51 19.107v6.518h7.795v-7.282l6.54 6.09-10.806 10.068 5.124 4.774-16.256 15.143v7.764l24.588-22.906-5.123-4.773 10.805-10.066-9.276-8.64 7.21-6.715 11.81 11.002 24.844-22.835-24.843-22.837-11.81 11.005-7.21-6.716 9.275-8.64-10.805-10.067 5.123-4.774-24.588-22.908v7.764l16.256 15.143-5.123 4.773 10.806 10.066-6.54 6.09v-7.282h-7.795v6.518l20.512 19.107h9.574l.96-5.49z"/><path class="fil4" id="_155639304" fill="#383739" d="M229.055 369.35l-5.47 5.094-.89-5.093.89-5.093z"/><path class="fil6" id="_155639232" fill="#faae29" d="M224.097 365.732l-.635 3.62.635 3.618 3.885-3.62z"/><path class="fil4" id="_155634104" fill="#383739" d="M192.172 374.825l5.138-5.15-5.138-5.164h-6.312v-7.228l-6.032-6.032v36.836l6.032-6.033v-7.228z"/><path class="fil6" id="_155634032" fill="#faae29" d="M191.875 365.225l4.428 4.45-4.428 4.437h-6.728v7.646l-5.32 5.318V352.26l5.32 5.32v7.645z"/></g><g id="_155633552" fill-rule="nonzero"><path class="fil4" id="_155633936" fill="#383739" d="M200.365 594.738l5.124 4.774-25.66 23.905v-9.763l15.18-14.142-5.123-4.774 10.807-10.066-4.708-4.386v6.283h-9.313v-7.517l20.955-19.522h10.532l1.207 6.905h-6.112l6.63 6.174 16.56-15.126-16.56-15.125-6.63 6.175h6.112l-1.207 6.902h-10.532l-20.955-19.52v-7.518h9.313v6.283l4.708-4.386-10.807-10.067 5.124-4.774-15.18-14.142v-9.762l25.66 23.904-5.125 4.774 10.806 10.067-9.275 8.64 6.137 5.716 11.807-11 25.926 23.83-25.927 23.834-11.808-11.002-6.137 5.717 9.276 8.64z"/><path class="fil6" id="_155633864" fill="#faae29" d="M211.424 549.24l8.454-7.876 17.65 16.12-17.65 16.12-8.454-7.876h7.052l-.96-5.49h-9.574l-20.51 19.107v6.518h7.795v-7.282l6.54 6.092-10.806 10.066 5.124 4.774-16.256 15.143v7.764l24.588-22.908-5.123-4.774 10.805-10.066-9.276-8.64 7.21-6.716 11.81 11.004 24.844-22.836-24.843-22.836-11.81 11.004-7.21-6.715 9.275-8.64-10.805-10.067 5.123-4.774-24.588-22.906v7.764l16.256 15.142-5.123 4.774 10.806 10.067-6.54 6.09v-7.28h-7.795v6.517l20.512 19.107h9.574l.96-5.49z"/><path class="fil4" id="_155633792" fill="#383739" d="M229.055 557.17l-5.47 5.092-.89-5.093.89-5.096z"/><path class="fil6" id="_155633720" fill="#faae29" d="M224.097 553.55l-.635 3.62.635 3.617 3.885-3.618z"/><path class="fil4" id="_155633648" fill="#383739" d="M192.172 562.642l5.138-5.15-5.138-5.164h-6.312V545.1l-6.032-6.033v36.836l6.032-6.032v-7.228z"/><path class="fil6" id="_155633576" fill="#faae29" d="M191.875 553.042l4.428 4.45-4.428 4.437h-6.728v7.646l-5.32 5.318v-34.817l5.32 5.32v7.645z"/></g><g id="_155620248" fill-rule="nonzero"><path class="fil4" id="_155633480" fill="#383739" d="M200.365 782.56l5.124 4.772-25.66 23.905v-9.763l15.18-14.142-5.123-4.773 10.807-10.068-4.708-4.386v6.284h-9.313v-7.516l20.955-19.522h10.532l1.207 6.903h-6.112l6.63 6.175 16.56-15.125-16.56-15.125-6.63 6.175h6.112l-1.207 6.903h-10.532l-20.955-19.52v-7.518h9.313v6.283l4.708-4.386-10.807-10.066 5.124-4.773-15.18-14.143v-9.762l25.66 23.905-5.125 4.774 10.806 10.067-9.275 8.64 6.137 5.717 11.807-11 25.926 23.83-25.927 23.833-11.808-11-6.137 5.715 9.276 8.64z"/><path class="fil6" id="_155633408" fill="#faae29" d="M211.424 737.06l8.454-7.875 17.65 16.12-17.65 16.12-8.454-7.877h7.052l-.96-5.49h-9.574l-20.51 19.107v6.518h7.795V766.4l6.54 6.092-10.806 10.067 5.124 4.772-16.256 15.143v7.764l24.588-22.908-5.123-4.773 10.805-10.068-9.276-8.64 7.21-6.715 11.81 11.003 24.844-22.835-24.843-22.837-11.81 11.005-7.21-6.716 9.275-8.64-10.805-10.066 5.123-4.773-24.588-22.907v7.764l16.256 15.143-5.123 4.774 10.806 10.067-6.54 6.09v-7.28h-7.795v6.517l20.512 19.107h9.574l.96-5.49z"/><path class="fil4" id="_155633336" fill="#383739" d="M229.055 744.99l-5.47 5.092-.89-5.093.89-5.095z"/><path class="fil6" id="_155633264" fill="#faae29" d="M224.097 741.37l-.635 3.62.635 3.618 3.885-3.62z"/><path class="fil4" id="_155633192" fill="#383739" d="M192.172 750.463l5.138-5.15-5.138-5.164h-6.312v-7.23l-6.032-6.032v36.836l6.032-6.033v-7.227z"/><path class="fil6" id="_155620272" fill="#faae29" d="M191.875 740.863l4.428 4.45-4.428 4.437h-6.728v7.646l-5.32 5.318v-34.816l5.32 5.32v7.645z"/></g><g id="_155619792" fill-rule="nonzero"><path class="fil4" id="_155620176" fill="#383739" d="M429.04 219.1l-5.125 4.773 25.66 23.905v-9.763l-15.182-14.142 5.124-4.774-10.806-10.067 4.708-4.386v6.283h9.313v-7.516l-20.954-19.522h-10.532l-1.207 6.904h6.112l-6.63 6.174-16.562-15.125 16.563-15.125 6.63 6.176h-6.113l1.207 6.902h10.532l20.955-19.52v-7.518h-9.312v6.284l-4.707-4.386 10.807-10.067-5.124-4.773 15.18-14.142v-9.762l-25.658 23.904 5.124 4.774-10.807 10.068 9.276 8.64-6.138 5.716-11.807-11-25.927 23.83 25.927 23.834 11.807-11.002 6.137 5.717-9.277 8.64z"/><path class="fil6" id="_155620104" fill="#faae29" d="M417.98 173.602l-8.453-7.877-17.652 16.12 17.652 16.12 8.454-7.876h-7.052l.96-5.49h9.574l20.51 19.106v6.518h-7.795v-7.282l-6.538 6.09 10.803 10.067-5.123 4.773 16.256 15.143v7.764l-24.588-22.907 5.123-4.774-10.804-10.067 9.276-8.64-7.21-6.716-11.81 11.004-24.844-22.835 24.843-22.836 11.812 11.003 7.21-6.715-9.276-8.64 10.805-10.067-5.122-4.773 24.588-22.906v7.765l-16.256 15.142 5.123 4.774-10.804 10.068 6.537 6.09v-7.28h7.796v6.517l-20.51 19.107h-9.575l-.96-5.49z"/><path class="fil4" id="_155620032" fill="#383739" d="M400.35 181.53l5.468 5.093.892-5.093-.892-5.095z"/><path class="fil6" id="_155619960" fill="#faae29" d="M405.307 177.91l.635 3.62-.635 3.618-3.885-3.618z"/><path class="fil4" id="_155619888" fill="#383739" d="M437.233 187.003l-5.14-5.15 5.14-5.164h6.31v-7.23l6.033-6.032v36.836l-6.032-6.032v-7.23z"/><path class="fil6" id="_155619816" fill="#faae29" d="M437.53 177.403l-4.43 4.45 4.43 4.437h6.727v7.647l5.32 5.318v-34.817l-5.32 5.32v7.645z"/></g><g id="_155619336" fill-rule="nonzero"><path class="fil4" id="_155619720" fill="#383739" d="M429.04 406.92l-5.125 4.774 25.66 23.905v-9.764l-15.182-14.142 5.124-4.773-10.806-10.066 4.708-4.386v6.284h9.313v-7.516l-20.954-19.522h-10.532l-1.207 6.903h6.112l-6.63 6.175-16.562-15.125 16.563-15.125 6.63 6.175h-6.113l1.207 6.903h10.532l20.955-19.52v-7.518h-9.312v6.283l-4.707-4.386 10.807-10.067-5.124-4.774 15.18-14.144v-9.762l-25.658 23.905 5.124 4.773-10.807 10.066 9.276 8.64-6.138 5.716-11.807-11-25.927 23.83 25.927 23.833 11.807-11.002 6.137 5.716-9.277 8.64z"/><path class="fil6" id="_155619648" fill="#faae29" d="M417.98 361.423l-8.453-7.876-17.652 16.12 17.652 16.12 8.454-7.877h-7.052l.96-5.49h9.574l20.51 19.107v6.518h-7.795v-7.282l-6.538 6.09 10.803 10.068-5.123 4.774 16.256 15.143v7.764l-24.588-22.906 5.123-4.773-10.804-10.066 9.276-8.64-7.21-6.715-11.81 11.002-24.844-22.835 24.843-22.837 11.812 11.005 7.21-6.716-9.276-8.64 10.805-10.067-5.122-4.774 24.588-22.908v7.764L433.32 327.64l5.123 4.773-10.804 10.066 6.537 6.09v-7.282h7.796v6.518l-20.51 19.107h-9.575l-.96-5.49z"/><path class="fil4" id="_155619576" fill="#383739" d="M400.35 369.35l5.468 5.094.892-5.093-.892-5.093z"/><path class="fil6" id="_155619504" fill="#faae29" d="M405.307 365.732l.635 3.62-.635 3.618-3.885-3.62z"/><path class="fil4" id="_155619432" fill="#383739" d="M437.233 374.825l-5.14-5.15 5.14-5.164h6.31v-7.228l6.033-6.032v36.836l-6.032-6.033v-7.228z"/><path class="fil6" id="_155619360" fill="#faae29" d="M437.53 365.225l-4.43 4.45 4.43 4.437h6.727v7.646l5.32 5.318V352.26l-5.32 5.32v7.645z"/></g><g id="_155610240" fill-rule="nonzero"><path class="fil4" id="_155610624" fill="#383739" d="M429.04 594.738l-5.125 4.774 25.66 23.905v-9.763l-15.182-14.142 5.124-4.774-10.806-10.066 4.708-4.386v6.283h9.313v-7.517l-20.954-19.522h-10.532l-1.207 6.905h6.112l-6.63 6.174-16.562-15.126 16.563-15.125 6.63 6.175h-6.113l1.207 6.902h10.532l20.955-19.52v-7.518h-9.312v6.283l-4.707-4.386 10.807-10.067-5.124-4.774 15.18-14.142v-9.762l-25.658 23.904 5.124 4.774-10.807 10.067 9.276 8.64-6.138 5.716-11.807-11-25.927 23.83 25.927 23.834 11.807-11.002 6.137 5.717-9.277 8.64z"/><path class="fil6" id="_155610552" fill="#faae29" d="M417.98 549.24l-8.453-7.876-17.652 16.12 17.652 16.12 8.454-7.876h-7.052l.96-5.49h9.574l20.51 19.107v6.518h-7.795v-7.282l-6.538 6.092 10.803 10.066-5.123 4.774 16.256 15.143v7.764l-24.588-22.908 5.123-4.774-10.804-10.066 9.276-8.64-7.21-6.716-11.81 11.004-24.844-22.836 24.843-22.836 11.812 11.004 7.21-6.715-9.276-8.64 10.805-10.067-5.122-4.774 24.588-22.906v7.764l-16.256 15.142 5.123 4.774-10.804 10.067 6.537 6.09v-7.28h7.796v6.517l-20.51 19.107h-9.575l-.96-5.49z"/><path class="fil4" id="_155610480" fill="#383739" d="M400.35 557.17l5.468 5.092.892-5.093-.892-5.096z"/><path class="fil6" id="_155610408" fill="#faae29" d="M405.307 553.55l.635 3.62-.635 3.617-3.885-3.618z"/><path class="fil4" id="_155610336" fill="#383739" d="M437.233 562.642l-5.14-5.15 5.14-5.164h6.31V545.1l6.033-6.033v36.836l-6.032-6.032v-7.228z"/><path class="fil6" id="_155610264" fill="#faae29" d="M437.53 553.042l-4.43 4.45 4.43 4.437h6.727v7.646l5.32 5.318v-34.817l-5.32 5.32v7.645z"/></g><g id="_155609784" fill-rule="nonzero"><path class="fil4" id="_155610168" fill="#383739" d="M429.04 782.56l-5.125 4.772 25.66 23.905v-9.763l-15.182-14.142 5.124-4.773-10.806-10.068 4.708-4.386v6.284h9.313v-7.516l-20.954-19.522h-10.532l-1.207 6.903h6.112l-6.63 6.175-16.562-15.125 16.563-15.125 6.63 6.175h-6.113l1.207 6.903h10.532l20.955-19.52v-7.518h-9.312v6.283l-4.707-4.386 10.807-10.066-5.124-4.773 15.18-14.143v-9.762l-25.658 23.905 5.124 4.774-10.807 10.067 9.276 8.64-6.138 5.717-11.807-11-25.927 23.83 25.927 23.833 11.807-11 6.137 5.715-9.277 8.64z"/><path class="fil6" id="_155610096" fill="#faae29" d="M417.98 737.06l-8.453-7.875-17.652 16.12 17.652 16.12 8.454-7.877h-7.052l.96-5.49h9.574l20.51 19.107v6.518h-7.795V766.4l-6.538 6.092 10.803 10.067-5.123 4.772 16.256 15.143v7.764l-24.588-22.908 5.123-4.773-10.804-10.068 9.276-8.64-7.21-6.715-11.81 11.003-24.844-22.835 24.843-22.837 11.812 11.005 7.21-6.716-9.276-8.64 10.805-10.066-5.122-4.773 24.588-22.907v7.764l-16.256 15.143 5.123 4.774-10.804 10.067 6.537 6.09v-7.28h7.796v6.517l-20.51 19.107h-9.575l-.96-5.49z"/><path class="fil4" id="_155610024" fill="#383739" d="M400.35 744.99l5.468 5.092.892-5.093-.892-5.095z"/><path class="fil6" id="_155609952" fill="#faae29" d="M405.307 741.37l.635 3.62-.635 3.618-3.885-3.62z"/><path class="fil4" id="_155609880" fill="#383739" d="M437.233 750.463l-5.14-5.15 5.14-5.164h6.31v-7.23l6.033-6.032v36.836l-6.032-6.033v-7.227z"/><path class="fil6" id="_155609808" fill="#faae29" d="M437.53 740.863l-4.43 4.45 4.43 4.437h6.727v7.646l5.32 5.318v-34.816l-5.32 5.32v7.645z"/></g><g id="_155603432" fill-rule="nonzero"><path class="fil4" id="_155609712" fill="#383739" d="M195.986 22.804v6.283h-9.313V21.57l20.955-19.52h10.532l1.207 6.903h-6.112l6.63 6.174L236.444.004h9.32l-25.926 23.83-11.808-11-6.137 5.716 9.276 8.64-10.805 10.066 5.124 4.774-25.66 23.905v-9.763l15.18-14.142-5.123-4.774 10.807-10.066z"/><path class="fil6" id="_155603744" fill="#faae29" d="M196.084 42.03l-16.256 15.143v7.763l24.588-22.906-5.123-4.774 10.805-10.066-9.276-8.64 7.21-6.716 11.81 11.004L244.685.004h-7.157l-17.65 16.118-8.453-7.877h7.052l-.96-5.49h-9.574l-20.51 19.108v6.518h7.795V21.1l6.54 6.092-10.806 10.066z"/><path class="fil4" id="_155603672" fill="#383739" d="M228.714.004l-5.128 4.776-.836-4.776z"/><path class="fil6" id="_155603600" fill="#faae29" d="M223.518.004l.58 3.3 3.543-3.3z"/><path class="fil4" id="_155603528" fill="#383739" d="M197.304.004h-17.476V18.42l6.032-6.03V5.16h6.312L197.31.01z"/><path class="fil6" id="_155603456" fill="#faae29" d="M179.828 17.412V.004h16.47l.005.006-4.428 4.437h-6.728v7.647z"/></g><g id="_155602976" fill-rule="nonzero"><path class="fil4" id="_155603360" fill="#383739" d="M433.418 22.804v6.283h9.313V21.57L421.777 2.05h-10.532l-1.207 6.903h6.112l-6.63 6.174L392.96.004h-9.32l25.925 23.83 11.807-11 6.137 5.716-9.277 8.64 10.806 10.066-5.125 4.774 25.66 23.905v-9.763L434.392 42.03l5.124-4.774L428.71 27.19z"/><path class="fil6" id="_155603288" fill="#faae29" d="M433.32 42.03l16.256 15.143v7.763L424.988 42.03l5.123-4.774-10.804-10.066 9.276-8.64-7.21-6.716-11.81 11.004L384.72.004h7.157l17.65 16.118 8.454-7.877h-7.052l.96-5.49h9.574l20.51 19.108v6.518h-7.795V21.1l-6.538 6.092 10.803 10.066z"/><path class="fil4" id="_155603216" fill="#383739" d="M400.69.004l5.128 4.776.836-4.776z"/><path class="fil6" id="_155603144" fill="#faae29" d="M405.886.004l-.58 3.3-3.543-3.3z"/><path class="fil4" id="_155603072" fill="#383739" d="M432.1.004h17.476V18.42l-6.032-6.03V5.16h-6.31l-5.14-5.15z"/><path class="fil6" id="_155603000" fill="#faae29" d="M449.576 17.412V.004h-16.47l-.005.006 4.43 4.437h6.727v7.647z"/></g></svg>